<?xml version="1.0" encoding="UTF-8"?>
<svg width="559px" height="336px" viewBox="0 0 559 336" version="1.1" xmlns="http://www.w3.org/2000/svg" xmlns:xlink="http://www.w3.org/1999/xlink">
    <!-- Generator: Sketch 64 (93537) - https://sketch.com -->
    <title>Group 278</title>
    <desc>Created with Sketch.</desc>
    <defs>
        <path d="M0.126031469,22.4644737 C0.126031469,34.8678947 10.1457692,44.9227895 22.505979,44.9227895 L22.505979,44.9227895 C34.8658741,44.9227895 44.8859266,34.8678947 44.8859266,22.4644737 L44.8859266,22.4644737 C44.8859266,10.0610526 34.8658741,0.006 22.505979,0.006 L22.505979,0.006 C10.1457692,0.006 0.126031469,10.0610526 0.126031469,22.4644737 M10.6502098,22.4644737 C10.6502098,15.8938421 15.9581643,10.5672632 22.505979,10.5672632 L22.505979,10.5672632 C29.0536364,10.5672632 34.3615909,15.8938421 34.3615909,22.4644737 L34.3615909,22.4644737 C34.3615909,29.0349474 29.0536364,34.3616842 22.505979,34.3616842 L22.505979,34.3616842 C15.9581643,34.3616842 10.6502098,29.0349474 10.6502098,22.4644737" id="path-1"></path>
        <path d="M0.126031469,22.4644737 C0.126031469,34.8678947 10.1457692,44.9227895 22.505979,44.9227895 L22.505979,44.9227895 C34.8658741,44.9227895 44.8859266,34.8678947 44.8859266,22.4644737 L44.8859266,22.4644737 C44.8859266,10.0610526 34.8658741,0.006 22.505979,0.006 L22.505979,0.006 C10.1457692,0.006 0.126031469,10.0610526 0.126031469,22.4644737 M10.6502098,22.4644737 C10.6502098,15.8938421 15.9581643,10.5672632 22.505979,10.5672632 L22.505979,10.5672632 C29.0536364,10.5672632 34.3615909,15.8938421 34.3615909,22.4644737 L34.3615909,22.4644737 C34.3615909,29.0349474 29.0536364,34.3616842 22.505979,34.3616842 L22.505979,34.3616842 C15.9581643,34.3616842 10.6502098,29.0349474 10.6502098,22.4644737" id="path-3"></path>
        <path d="M0.126031469,22.4644737 C0.126031469,34.8678947 10.1457692,44.9227895 22.505979,44.9227895 L22.505979,44.9227895 C34.8658741,44.9227895 44.8859266,34.8678947 44.8859266,22.4644737 L44.8859266,22.4644737 C44.8859266,10.0610526 34.8658741,0.006 22.505979,0.006 L22.505979,0.006 C10.1457692,0.006 0.126031469,10.0610526 0.126031469,22.4644737 M10.6502098,22.4644737 C10.6502098,15.8938421 15.9581643,10.5672632 22.505979,10.5672632 L22.505979,10.5672632 C29.0536364,10.5672632 34.3615909,15.8938421 34.3615909,22.4644737 L34.3615909,22.4644737 C34.3615909,29.0349474 29.0536364,34.3616842 22.505979,34.3616842 L22.505979,34.3616842 C15.9581643,34.3616842 10.6502098,29.0349474 10.6502098,22.4644737" id="path-5"></path>
        <path d="M0.126031469,22.4644737 C0.126031469,34.8678947 10.1457692,44.9227895 22.505979,44.9227895 L22.505979,44.9227895 C34.8658741,44.9227895 44.8859266,34.8678947 44.8859266,22.4644737 L44.8859266,22.4644737 C44.8859266,10.0610526 34.8658741,0.006 22.505979,0.006 L22.505979,0.006 C10.1457692,0.006 0.126031469,10.0610526 0.126031469,22.4644737 M10.6502098,22.4644737 C10.6502098,15.8938421 15.9581643,10.5672632 22.505979,10.5672632 L22.505979,10.5672632 C29.0536364,10.5672632 34.3615909,15.8938421 34.3615909,22.4644737 L34.3615909,22.4644737 C34.3615909,29.0349474 29.0536364,34.3616842 22.505979,34.3616842 L22.505979,34.3616842 C15.9581643,34.3616842 10.6502098,29.0349474 10.6502098,22.4644737" id="path-7"></path>
        <path d="M0.126031469,22.4644737 C0.126031469,34.8678947 10.1457692,44.9227895 22.505979,44.9227895 L22.505979,44.9227895 C34.8658741,44.9227895 44.8859266,34.8678947 44.8859266,22.4644737 L44.8859266,22.4644737 C44.8859266,10.0610526 34.8658741,0.006 22.505979,0.006 L22.505979,0.006 C10.1457692,0.006 0.126031469,10.0610526 0.126031469,22.4644737 L0.126031469,22.4644737 Z M10.6502098,22.4644737 C10.6502098,15.8938421 15.9581643,10.5672632 22.505979,10.5672632 L22.505979,10.5672632 C29.0536364,10.5672632 34.3615909,15.8938421 34.3615909,22.4644737 L34.3615909,22.4644737 C34.3615909,29.0349474 29.0536364,34.3616842 22.505979,34.3616842 L22.505979,34.3616842 C15.9581643,34.3616842 10.6502098,29.0349474 10.6502098,22.4644737 L10.6502098,22.4644737 Z" id="path-9"></path>
    </defs>
    <g id="Page-1" stroke="none" stroke-width="1" fill="none" fill-rule="evenodd">
        <g id="AB2D-homepage-v2---bottom" transform="translate(-187.000000, -113.000000)">
            <g id="Group-278" transform="translate(187.000000, 112.379247)">
                <g id="Group-206" transform="translate(0.000000, 0.620753)">
                    <path d="M466.529281,114.286151 C489.245969,90.650756 377.879308,8.3997051 285.913183,0.901054805 C201.243032,-6.00276836 89.3801476,27.4200517 202.95073,76.8327539 C311.164295,123.914631 454.65927,126.63615 466.529281,114.286151" id="Fill-2" fill="#CFEFF9"></path>
                    <path d="M22.0314889,97.7019444 C75.070489,30.5495548 186.451731,101.477551 281.754548,118.707297 C377.057521,135.9372 532.073348,108.561972 531.686189,184.130279 C531.271708,264.698209 496.894317,310.026045 308.338956,331.674551 C119.783439,353.323215 33.4554472,286.606707 8.8019983,215.580018 C-10.389543,160.288867 7.85595959,115.649531 22.0314889,97.7019444" id="Fill-4" fill="#CFEFF9"></path>
                    <path d="M385.700653,183.474714 C377.916294,199.289019 368.156291,242.502716 365.494401,244.870727 C362.832511,247.238582 347.453189,256.414076 344.791299,260.853862 C342.129565,265.293648 343.312506,263.81372 344.495603,264.109642 C345.678543,264.405722 412.519925,264.701802 412.519925,264.701802 C412.519925,264.701802 404.830264,218.824014 403.943019,218.527935 C403.055618,218.232169 385.700653,183.474714 385.700653,183.474714" id="Fill-6" fill="#A2DFF2"></path>
                    <path d="M374.632642,264.487517 C386.908412,264.573187 399.862589,264.640813 406.993939,264.675646 L397.230488,206.239804 C392.022571,196.135745 385.7007,183.474761 385.7007,183.474761 C384.719384,185.468397 383.706555,187.897915 382.680556,190.625867 C381.668041,234.515667 387.984268,246.817809 383.239807,254.638272 C379.537494,260.740781 376.158314,263.470929 374.632642,264.487517" id="Fill-8" fill="#96CFE0"></path>
                    <path d="M426.692193,164.387683 C437.794116,174.643469 462.505732,184.368759 462.505732,184.368759 C462.505732,184.368759 466.260254,219.084948 463.698236,238.741701 C461.136374,258.398612 462.559822,262.386982 462.559822,262.386982 L409.196905,262.841693 C409.196905,262.841693 404.766797,252.889675 392.248012,223.3581 C384.277393,204.555852 385.700684,183.474714 385.700684,183.474714 L416.728998,169.515497 L426.692193,164.387683 Z" id="Fill-10" fill="#A2DFF2"></path>
                    <path d="M411.605039,262.386919 L462.559744,262.386919 C462.559744,262.386919 461.136453,258.398549 463.698314,238.741795 C465.808009,222.555782 463.63466,196.160112 462.801506,187.342989 L458.167578,185.355629 C446.533999,188.71026 439.829729,206.075415 437.857849,223.046267 C436.538662,234.40133 417.740807,245.579248 405.444656,251.733692 C409.48437,259.440399 411.605039,262.386919 411.605039,262.386919" id="Fill-12" fill="#96CFE0"></path>
                    <path d="M418.11314,176.722885 C418.11314,176.722885 418.591176,191.383781 421.089383,191.226876 C423.587747,191.069971 438.110241,172.638175 438.110241,172.638175 L435.641352,171.456837 L418.11314,176.722885 Z" id="Fill-14" fill="#96CFE0"></path>
                    <path d="M414.356124,175.882893 C414.356124,175.882893 411.199422,189.369512 409.632986,189.055702 C408.06655,188.741892 405.950898,175.030742 405.950898,175.030742 L414.356124,175.882893 Z" id="Fill-16" fill="#96CFE0"></path>
                    <path d="M413.769859,174.202754 L418.113108,174.673469 L419.78459,179.851336 C419.78459,179.851336 415.964845,184.325641 415.886452,186.128795 C415.80806,187.931948 416.727289,194.678866 416.777303,200.798164 C416.82716,206.917461 414.58122,231.275875 415.600791,246.198018 L416.620361,261.120162 L407.890434,261.460646 C407.890434,261.460646 407.42008,245.045394 407.890434,227.472026 C408.360788,209.898658 413.358613,186.128795 413.358613,186.128795 L411.386262,180.086694 L413.769859,174.202754 Z" id="Fill-18" fill="#F37168"></path>
                    <path d="M399.113252,128.754525 C392.970899,142.44512 400.342914,155.1276 400.119496,154.592868 C399.896078,154.058292 409.416357,131.477769 409.416357,131.477769 L399.113252,128.754525 Z" id="Fill-20" fill="#2E5B9A"></path>
                    <path d="M422.389034,138.878197 L430.178724,167.3731 C430.398536,168.177081 430.211335,169.03394 429.686106,169.681173 C427.858938,171.933389 425.257096,176.566952 420.009199,178.053157 C418.988845,178.342019 417.731588,178.419374 416.714056,178.423155 C415.644314,178.427062 414.72242,177.673133 414.519384,176.622026 L409.300179,149.595598 L422.389034,138.878197 Z" id="Fill-22" fill="#F09959"></path>
                    <path d="M420.901571,141.259812 L418.053891,142.427814 L409.300132,149.595551 L412.659714,166.726604 L413.999126,173.556838 C421.96755,168.58483 424.89033,160.473466 420.901571,141.259812" id="Fill-24" fill="#E38540"></path>
                    <path d="M420.415308,151.801103 C420.421574,161.332302 414.68012,168.84068 407.591728,168.571588 C400.503023,168.302496 396.154286,162.936813 394.745419,150.826722 C393.640244,141.32612 396.38131,130.270432 403.469859,130.539524 C410.558408,130.808616 420.409188,142.269904 420.415308,151.801103" id="Fill-26" fill="#F09959"></path>
                    <path d="M462.5057,184.36879 C472.815076,186.698674 474.731142,207.654131 478.082885,229.755622 C478.468732,232.299367 480.449236,253.830195 480.449236,253.830195 C480.449236,253.830195 480.646314,257.776985 476.702866,259.750223 C473.333406,261.436168 471.970477,262.710238 452.449375,262.907624 C433.701534,263.097165 409.529414,262.315464 409.529414,262.315464 C409.529414,262.315464 409.315403,255.33413 411.238367,251.922543 C414.130417,246.792061 443.773381,239.424897 446.534046,239.030281 C446.928359,233.504869 443.81148,213.51328 448.1113,199.958094 C451.069199,190.634167 454.248636,185.750183 458.232377,184.473603 C459.560343,184.048233 460.97752,184.023599 462.5057,184.36879" id="Fill-28" fill="#A2DFF2"></path>
                    <path d="M420.129892,262.740724 C429.372819,262.879899 442.056542,263.012484 452.449484,262.907514 C471.97043,262.710285 473.333359,261.436215 476.702819,259.750114 C480.646267,257.776875 480.843502,254.422088 480.843502,254.422088 C480.843502,254.422088 478.850455,231.511908 478.477308,228.966123 C476.308349,214.166209 473.964731,197.230503 468.510506,189.055749 C473.637365,204.095257 474.46315,216.784955 474.554712,222.204926 C474.60112,224.94951 474.348227,228.708642 473.547841,231.334291 C472.660596,234.24488 470.392863,236.070157 466.843728,235.083381 C459.745146,233.110143 450.871917,237.254163 450.871917,237.254163 C450.871917,237.254163 457.57603,234.886308 463.885985,237.056933 C470.195785,239.227558 483.209696,253.632855 469.012687,258.960881 C464.667871,260.591439 438.646789,261.920738 420.129892,262.740724" id="Fill-30" fill="#96CFE0"></path>
                    <path d="M412.81584,252.580352 C412.81584,252.580352 415.444962,248.107459 420.834592,248.107459 C426.224222,248.107459 425.829909,256.921758 425.041125,259.815872 C424.252341,262.7103 421.09752,262.84163 421.09752,262.84163 L410.24222,262.566418 L412.81584,252.580352 Z" id="Fill-32" fill="#96CFE0"></path>
                    <path d="M306.092624,262.977306 L396.66368,262.977306 C396.66368,260.468394 394.63128,258.43459 392.124293,258.43459 L306.092624,258.43459 L306.092624,262.977306 Z" id="Fill-34" fill="#75A1DE"></path>
                    <path d="M410.852347,251.869227 C399.934647,246.843714 396.849281,248.120922 394.366596,247.160192 C388.236159,244.788101 386.530185,246.22692 381.51966,257.021832 C380.521255,259.172687 382.890115,259.515368 385.247686,259.716834 C387.605414,259.9183 390.878294,255.57658 391.839697,255.130499 C392.801258,254.684574 395.312321,254.634992 395.312321,254.634992 C395.312321,254.634992 394.52636,254.567837 393.146341,256.826643 C391.766322,259.085291 390.247236,259.879858 392.080989,260.03645 C393.914743,260.193041 394.4337,257.200704 397.783404,258.146999 C401.132952,259.093136 400.446862,262.283801 408.987864,262.007962 C417.088301,261.746401 423.141287,262.55713 423.439021,257.433551 C423.721704,252.572318 424.46502,250.193167 419.940998,248.948753 C416.460535,247.991161 410.852347,251.869227 410.852347,251.869227" id="Fill-36" fill="#F09959"></path>
                    <path d="M410.999647,251.881795 C418.603546,251.673111 415.592654,260.872926 414.739745,261.592336 C413.88668,262.311589 418.909433,262.226703 418.909433,262.226703 C418.909433,262.226703 421.569912,258.660251 419.974158,254.166803 C418.378404,249.673513 414.465685,249.141134 414.465685,249.141134 L410.969387,250.690885 L410.999647,251.881795 Z" id="Fill-38" fill="#A86B48"></path>
                    <path d="M418.566953,250.02804 C418.627629,251.198395 416.768789,252.246207 414.415452,252.368279 C412.0618,252.490508 410.104657,251.640867 410.043981,250.470669 C409.983306,249.300314 411.841988,248.252659 414.195639,248.13043 C416.549134,248.008201 418.506277,248.857842 418.566953,250.02804" id="Fill-40" fill="#2E5B9A"></path>
                    <path d="M417.893265,249.533883 C417.947512,250.579498 416.286849,251.515594 414.184053,251.6248 C412.081257,251.733849 410.332638,250.974899 410.278547,249.929441 C410.224299,248.883668 411.884963,247.94773 413.987759,247.838367 C416.090398,247.729318 417.839017,248.488425 417.893265,249.533883" id="Fill-42" fill="#3E6BAB"></path>
                    <path d="M416.529207,249.231417 C416.568246,249.984248 415.372763,250.657998 413.859164,250.736608 C412.345408,250.815217 411.086584,250.268717 411.047701,249.516043 C411.008662,248.763526 412.204145,248.089619 413.717744,248.01101 C415.231657,247.9324 416.490167,248.478744 416.529207,249.231417" id="Fill-44" fill="#F0CEB4"></path>
                    <path d="M351.706553,252.572852 C357.319915,249.451853 364.180812,250.492134 366.675726,253.613133 C369.170484,256.734131 369.586277,258.814693 363.972759,258.814693 C358.359554,258.814693 347.132674,259.230962 345.261606,259.022749 C343.39038,258.814693 351.706553,252.572852 351.706553,252.572852" id="Fill-46" fill="#F09959"></path>
                    <path d="M359.001948,251.487383 C365.031259,250.03099 369.150463,253.542211 374.179017,256.897156 C378.545,259.809941 379.422524,262.641764 374.59481,260.226054 C367.526017,256.688943 363.368087,256.272987 363.368087,256.272987 L359.001948,251.487383 Z" id="Fill-48" fill="#F09959"></path>
                    <path d="M352.273063,254.220355 C349.228305,254.220355 346.570491,253.248642 344.42113,253.427828 C342.271926,253.607013 335.465903,260.597762 336.540348,261.135319 C336.61733,261.17376 336.701366,261.209378 336.791204,261.242485 C338.407183,261.837626 340.23106,261.17784 341.141665,259.715328 C342.10495,258.168401 343.671856,256.368386 345.495732,257.012795 C348.540647,258.088065 351.735762,257.984508 351.735762,257.984508 L352.273063,254.220355 Z" id="Fill-50" fill="#F09959"></path>
                    <path d="M352.74602,260.063076 C349.627416,258.81474 354.617245,248.411463 356.280417,248.411463 C357.943588,248.411463 364.180796,253.405123 364.180796,253.405123 C364.180796,253.405123 362.713762,254.233425 357.735692,252.572899 C356.488313,252.15663 355.448674,259.230852 353.993399,260.063076 C352.538123,260.895458 352.74602,260.063076 352.74602,260.063076" id="Fill-52" fill="#F7A96F"></path>
                    <polygon id="Fill-54" fill="#A2DFF2" points="412.89453 167.979648 414.356077 175.777045 410.08542 185.029267 405.444593 175.2227"></polygon>
                    <path d="M395.735342,156.214905 C397.529899,167.532625 401.71652,168.728712 404.681946,169.762403 C407.647371,170.796094 418.736907,166.132561 419.918907,163.032745 C422.942813,155.102762 418.06289,149.131269 419.052358,149.052346 C420.041669,148.973422 421.441129,151.584166 424.637499,154.717246 C424.935076,155.00909 426.990366,156.930863 426.939725,156.174581 C426.252537,145.869526 430.922996,141.766929 427.789654,131.794984 C425.479746,124.443668 420.818694,125.922498 420.818694,125.922498 C420.818694,125.922498 416.579237,120.197817 407.130609,122.683821 C400.799957,124.349525 395.539361,127.910015 389.237244,130.837864 C382.934971,133.765712 400.150869,146.104884 407.721687,139.034271 C415.292662,131.963501 413.284093,144.826108 414.811333,145.512724 C416.338572,146.199184 415.48582,145.51649 417.247767,151.582754 C419.009713,157.649018 411.91113,163.134733 409.760671,164.079458 C402.88535,167.100195 401.464254,166.135856 399.390149,163.717949 C397.590418,161.620128 395.735342,156.214905 395.735342,156.214905" id="Fill-56" fill="#2E5B9A"></path>
                    <path d="M424.843859,147.225955 C424.543616,150.217507 422.867274,152.42422 421.09937,152.154814 C419.331937,151.885408 418.856252,149.587533 418.442811,146.250319 C418.069977,143.241821 420.419552,141.052054 422.187142,141.32146 C423.954889,141.590866 425.144258,144.234403 424.843859,147.225955" id="Fill-58" fill="#F09959"></path>
                    <path d="M429.53575,165.021281 L437.280912,172.241425 C437.280912,172.241425 422.379156,186.284429 421.089446,186.127524 C419.799578,185.970619 417.611021,174.202738 417.611021,174.202738 L429.53575,165.021281 Z" id="Fill-60" fill="#A2DFF2"></path>
                    <path d="M417.838453,174.027616 C416.409047,174.699484 416.868583,176.740191 416.262297,177.449716 C415.655853,178.159084 415.294465,178.350665 414.806551,177.362006 C414.318637,176.37319 414.3975,174.140431 414.018394,174.027616 C413.639132,173.914959 410.764799,182.910954 410.764799,182.910954 C410.764799,182.910954 412.877316,177.157716 413.358644,177.785336 C413.839503,178.412956 413.456792,178.997428 415.205725,179.102083 C416.954658,179.206582 419.178962,178.468814 419.178962,178.468814 L417.838453,174.027616 Z" id="Fill-62" fill="#A2DFF2"></path>
                    <path d="M305.984991,262.977306 L354.361686,262.977306 L333.818033,217.747222 C333.218646,216.427337 331.903693,215.580049 330.455002,215.580049 L286.697184,215.580049 C285.648295,215.580049 284.950133,216.665048 285.384113,217.620757 L305.984991,262.977306 Z" id="Fill-64" fill="#A8CEFF"></path>
                    <path d="M281.993723,215.580033 L326.64098,215.580033 C328.08967,215.580033 329.404623,216.427321 330.004168,217.747363 L350.547507,262.97729 L301.28153,262.97729 L280.680651,217.620741 C280.246514,216.665032 280.944833,215.580033 281.993723,215.580033" id="Fill-66" fill="#75A1DE"></path>
                    <path d="M305.267827,241.912345 C306.961258,245.424194 309.70891,247.607057 311.405006,246.788013 C313.101103,245.968968 313.103298,242.458061 311.410023,238.946211 C309.716592,235.434362 306.968941,233.251499 305.272687,234.070543 C303.576748,234.889588 303.574553,238.400495 305.267827,241.912345" id="Fill-68" fill="#6695D6"></path>
                    <path d="M132.428029,182.182538 C131.675619,182.182538 130.935282,182.145038 130.209839,182.108165 C129.609197,182.077725 128.988173,182.046344 128.389569,182.038028 C128.178537,182.035047 128.009994,181.86151 128.012934,181.650316 C128.015795,181.441161 128.18622,181.27343 128.394743,181.27343 C129.012788,181.28206 129.641024,181.313911 130.248565,181.344665 C134.79046,181.574531 139.488826,181.81334 144.065057,173.006572 C146.051676,169.18311 148.21405,161.749889 147.770036,153.38324 C147.406452,146.53041 145.085726,136.782526 136.094438,129.259399 C135.93248,129.123989 135.911,128.882983 136.046305,128.7209 C136.181611,128.558974 136.422589,128.537164 136.58439,128.672887 C145.78671,136.372533 148.161371,146.338359 148.53295,153.342601 C148.98496,161.863017 146.773826,169.450476 144.742838,173.359295 C140.704221,181.131745 136.405499,182.182538 132.428029,182.182538" id="Fill-70" fill="#303C60"></path>
                    <path d="M131.000896,180.376906 C130.823259,180.376906 130.645936,180.372669 130.467358,180.363883 C130.256639,180.353527 130.094211,180.174184 130.104558,179.963304 C130.114906,179.75258 130.292073,179.58987 130.504673,179.600226 C130.669297,179.608385 130.834234,179.612307 130.997761,179.612307 C135.737675,179.612621 140.115887,176.253283 143.072846,170.317565 C147.934582,160.558069 148.40619,144.547005 139.70417,134.096656 C139.569179,133.934573 139.591128,133.693567 139.753087,133.558158 C139.915359,133.42322 140.156024,133.445343 140.291015,133.607269 C149.200618,144.306783 148.726187,160.682495 143.756427,170.658519 C140.664947,176.864586 136.039329,180.376435 131.000896,180.376906" id="Fill-72" fill="#303C60"></path>
                    <path d="M113.999872,131.617352 C127.716179,120.962713 140.597764,126.610668 145.212564,141.031186 C149.523045,154.500545 143.998894,183.444353 123.53724,178.400639 C102.369272,173.182918 100.605601,166.697404 100.766462,157.271332 C100.894869,149.740986 104.104408,139.304132 113.999872,131.617352" id="Fill-74" fill="#303C60"></path>
                    <path d="M106.871986,174.334068 L87.2657495,181.655729 C87.2657495,181.655729 92.753213,221.509617 93.223567,236.729409 C93.693921,251.949201 86.0114721,265.152763 86.0114721,265.152763 L137.28006,265.152763 C137.28006,265.152763 144.33537,223.706288 142.924308,209.114117 C141.513246,194.521945 131.792596,179.403357 131.322242,179.038866 C130.851888,178.674533 119.093038,176.007146 119.093038,176.007146 L106.871986,174.334068 Z" id="Fill-76" fill="#A2DFF2"></path>
                    <path d="M141.356493,223.392494 C141.356493,223.392494 143.330568,241.907292 144.146633,242.848723 C144.96254,243.790153 175.065197,258.536406 175.065197,258.536406 L131.322274,261.520426 L141.356493,223.392494 Z" id="Fill-78" fill="#D54A41"></path>
                    <path d="M131.322274,179.038913 C136.182598,179.145295 137.501941,187.097715 138.645215,193.006603 C139.788646,198.915334 131.322274,179.038913 131.322274,179.038913" id="Fill-80" fill="#D54A41"></path>
                    <path d="M123.012686,210.526278 C120.347347,200.955069 106.026478,174.302075 106.026478,174.302075 L87.2657808,181.655745 C87.2657808,181.655745 91.5663844,212.89021 92.879456,230.616246 L100.005633,265.152779 L123.012686,265.152779 C123.012686,265.152779 125.678025,220.097487 123.012686,210.526278" id="Fill-82" fill="#F37168"></path>
                    <polygon id="Fill-84" fill="#D54A41" points="96.5353767 248.334422 117.682023 243.476327 115.95598 261.520411"></polygon>
                    <path d="M107.108684,253.361363 C103.659421,248.687631 100.285572,243.545538 103.571308,232.806798 C106.857201,222.067901 107.177356,218.214627 106.026399,208.486512 C104.875443,198.758398 99.6516915,183.224795 89.4606878,182.75408 C89.4606878,182.75408 89.1246983,186.155468 88.5815962,191.586267 C90.2364584,204.41357 92.9021114,226.325991 93.22352,236.729425 C93.693874,251.949217 86.0114251,265.152779 86.0114251,265.152779 L127.716148,266.070673 C127.716148,266.070673 110.557947,258.035094 107.108684,253.361363" id="Fill-86" fill="#D54A41"></path>
                    <path d="M142.924339,209.114132 C141.513277,194.521961 131.792628,179.403372 131.322274,179.038882 C131.031595,178.813723 126.430121,177.709111 122.956557,176.897912 C123.97848,179.308916 134.749116,204.998669 134.301182,215.579877 C133.830828,226.6875 134.314666,265.152779 134.314666,265.152779 L137.280091,265.152779 C137.280091,265.152779 144.335401,223.706304 142.924339,209.114132" id="Fill-88" fill="#F37168"></path>
                    <path d="M516.741877,267.63053 L22.7844002,267.63053 C21.4584723,267.63053 20.3835566,266.554945 20.3835566,265.227842 L20.3835566,265.077527 C20.3835566,263.750581 21.4584723,262.674997 22.7844002,262.674997 L516.741877,262.674997 C518.067648,262.674997 519.14272,263.750581 519.14272,265.077527 L519.14272,265.227842 C519.14272,266.554945 518.067648,267.63053 516.741877,267.63053" id="Fill-93" fill="#2E5B9A"></path>
                    <path d="M334.757581,46.7018336 L281.222358,46.7018336 C279.850178,46.7018336 278.727443,45.5782364 278.727443,44.2050032 L278.727443,25.063212 C278.727443,23.6899788 279.850178,22.5665385 281.222358,22.5665385 L334.757581,22.5665385 C336.129761,22.5665385 337.252339,23.6899788 337.252339,25.063212 L337.252339,44.2050032 C337.252339,45.5782364 336.129761,46.7018336 334.757581,46.7018336" id="Fill-95" fill="#9EC8FF"></path>
                    <path d="M285.796206,43.0607573 L285.796206,56.37682 L301.129119,41.0321316 C301.129119,41.0321316 286.10805,43.0607573 285.796206,43.0607573" id="Fill-97" fill="#9EC8FF"></path>
                    <path d="M332.110006,44.309094 L283.869714,44.309094 C282.706528,44.309094 281.754532,43.3565233 281.754532,42.1922877 L281.754532,27.0758961 C281.754532,25.9118174 282.706528,24.9592467 283.869714,24.9592467 L332.110006,24.9592467 C333.273505,24.9592467 334.225188,25.9118174 334.225188,27.0758961 L334.225188,42.1922877 C334.225188,43.3565233 333.273505,44.309094 332.110006,44.309094" id="Fill-99" fill="#FFFFFF"></path>
                    <path d="M310.328883,29.7446631 L286.627744,29.7446631 C286.056107,29.7446631 285.588262,29.2766153 285.588262,28.7043825 C285.588262,28.1321497 286.056107,27.6641019 286.627744,27.6641019 L310.328883,27.6641019 C310.90052,27.6641019 311.368366,28.1321497 311.368366,28.7043825 C311.368366,29.2766153 310.90052,29.7446631 310.328883,29.7446631" id="Fill-101" fill="#9EC8FF"></path>
                    <path d="M330.125551,33.7222224 L286.166264,33.7222224 C285.848462,33.7222224 285.588356,33.4619169 285.588356,33.1438703 L285.588356,33.1319455 C285.588356,32.813742 285.848462,32.5535934 286.166264,32.5535934 L330.125551,32.5535934 C330.443353,32.5535934 330.703459,32.813742 330.703459,33.1319455 L330.703459,33.1438703 C330.703459,33.4619169 330.443353,33.7222224 330.125551,33.7222224" id="Fill-103" fill="#9EC8FF"></path>
                    <path d="M330.125551,35.9865509 L286.166264,35.9865509 C285.848462,35.9865509 285.588356,35.7262454 285.588356,35.4081988 L285.588356,35.396274 C285.588356,35.0780705 285.848462,34.8179219 286.166264,34.8179219 L330.125551,34.8179219 C330.443353,34.8179219 330.703459,35.0780705 330.703459,35.396274 L330.703459,35.4081988 C330.703459,35.7262454 330.443353,35.9865509 330.125551,35.9865509" id="Fill-105" fill="#9EC8FF"></path>
                    <path d="M321.039691,43.4768381 L319.59978,43.4768381 C319.295775,43.4768381 319.049309,43.2301834 319.049309,42.9257875 L319.049309,41.7391145 C319.049309,41.4348755 319.295775,41.1882207 319.59978,41.1882207 L321.039691,41.1882207 C321.343696,41.1882207 321.590319,41.4348755 321.590319,41.7391145 L321.590319,42.9257875 C321.590319,43.2301834 321.343696,43.4768381 321.039691,43.4768381" id="Fill-107" fill="#9EC8FF"></path>
                    <path d="M325.65979,43.4768381 L324.21988,43.4768381 C323.915874,43.4768381 323.669409,43.2301834 323.669409,42.9257875 L323.669409,41.7391145 C323.669409,41.4348755 323.915874,41.1882207 324.21988,41.1882207 L325.65979,41.1882207 C325.963796,41.1882207 326.210418,41.4348755 326.210418,41.7391145 L326.210418,42.9257875 C326.210418,43.2301834 325.963796,43.4768381 325.65979,43.4768381" id="Fill-109" fill="#9EC8FF"></path>
                    <path d="M330.279874,43.4768381 L328.839963,43.4768381 C328.535958,43.4768381 328.289492,43.2301834 328.289492,42.9257875 L328.289492,41.7391145 C328.289492,41.4348755 328.535958,41.1882207 328.839963,41.1882207 L330.279874,41.1882207 C330.583879,41.1882207 330.830502,41.4348755 330.830502,41.7391145 L330.830502,42.9257875 C330.830502,43.2301834 330.583879,43.4768381 330.279874,43.4768381" id="Fill-111" fill="#9EC8FF"></path>
                    <path d="M211.452175,262.977306 L120.881277,262.977306 C120.881277,259.764674 123.483589,257.160521 126.693755,257.160521 L211.452175,257.160521 L211.452175,262.977306 Z" id="Fill-113" fill="#A8CEFF"></path>
                    <path d="M211.559824,262.977306 L163.183286,262.977306 L183.726625,217.747222 C184.32617,216.427337 185.641123,215.580049 187.089813,215.580049 L230.847631,215.580049 C231.89652,215.580049 232.594682,216.665048 232.160702,217.620757 L211.559824,262.977306 Z" id="Fill-115" fill="#A8CEFF"></path>
                    <path d="M230.847552,215.580033 L190.903835,215.580033 C189.455302,215.580033 188.140192,216.427321 187.540804,217.747363 L166.997309,262.97729 L211.559745,262.97729 L232.160624,217.620741 C232.594761,216.665032 231.896599,215.580033 230.847552,215.580033" id="Fill-117" fill="#75A1DE"></path>
                    <path d="M207.937314,240.76176 C206.244039,244.273609 203.496231,246.456473 201.800135,245.637428 C200.104195,244.818384 200.101843,241.307476 201.795274,237.795626 C203.488706,234.283777 206.236357,232.100914 207.932454,232.919801 C209.62855,233.739003 209.630745,237.249911 207.937314,240.76176" id="Fill-119" fill="#6695D6"></path>
                    <path d="M115.524384,149.655771 C115.524384,149.655771 111.41443,170.654063 106.871908,174.334115 C102.329386,178.014166 117.326153,195.758875 122.517607,191.212864 C127.709061,186.666697 122.878996,176.715306 122.878996,176.715306 C122.878996,176.715306 120.066906,174.983545 124.825791,163.943233 C129.584519,152.902922 116.773801,144.676859 116.773801,144.676859 L115.524384,149.655771 Z" id="Fill-121" fill="#F09959"></path>
                    <path d="M116.773754,144.676781 L115.524336,149.655693 C115.524336,149.655693 114.952386,152.577265 113.999919,156.431168 C115.775662,164.72313 119.094794,170.115487 122.064452,173.543705 C122.151468,171.631817 122.807768,168.624575 124.825744,163.943312 C129.584472,152.902843 116.773754,144.676781 116.773754,144.676781" id="Fill-123" fill="#E38540"></path>
                    <path d="M141.513277,157.64919 C138.751358,165.271953 132.001622,171.390936 127.716226,169.978791 C120.71485,167.671659 115.618407,162.195829 116.8222,150.088719 C118.240004,135.830756 129.202702,134.195648 135.641221,136.017629 C142.079897,137.839768 144.569481,149.214131 141.513277,157.64919" id="Fill-125" fill="#F09959"></path>
                    <path d="M106.026431,174.302043 L99.4040031,176.897881 L109.842727,190.285492 L106.863818,195.620265 C106.863818,195.620265 117.614229,203.697267 120.881308,219.348234 C124.14823,234.999201 123.792956,248.334407 123.792956,248.334407 C123.792956,248.334407 124.59538,216.592824 123.012639,210.526247 C119.942638,198.758366 106.026431,174.302043 106.026431,174.302043" id="Fill-127" fill="#D54A41"></path>
                    <path d="M122.956573,176.897865 C122.956573,176.897865 131.219909,198.129946 132.530942,204.104891 C133.841819,210.079836 134.107412,239.278615 134.107412,239.278615 C134.107412,239.278615 137.907245,213.821237 136.809753,206.289794 C135.71226,198.758351 134.144413,191.952436 134.144413,191.952436 L129.127304,188.245711 C129.127304,188.245711 128.178757,178.148242 127.645532,178.01754 C127.112307,177.886838 122.956573,176.897865 122.956573,176.897865" id="Fill-129" fill="#D54A41"></path>
                    <path d="M118.133908,254.744544 C134.207629,249.869974 132.259266,247.43261 138.104355,250.194924 C143.949288,252.957081 151.274111,254.83241 147.845857,255.719395 C144.41776,256.606379 139.240887,253.769535 139.240887,253.769535 C139.240887,253.769535 140.052561,258.156601 137.130095,259.45656 C134.207629,260.756361 121.231032,261.22896 113.999809,259.205355 C106.768744,257.18175 118.133908,254.744544 118.133908,254.744544" id="Fill-131" fill="#F09959"></path>
                    <path d="M117.682007,253.988983 L120.881198,253.988983 L119.281681,263.084142 C119.281681,263.084142 112.978467,262.148047 113.448821,261.520426 C113.919175,260.892806 117.682007,253.988983 117.682007,253.988983" id="Fill-133" fill="#A2DFF2"></path>
                    <path d="M87.2657808,181.655745 C80.994394,192.6391 79.0047965,198.629265 73.8931458,219.183829 C68.7814952,239.738394 66.7269889,249.090877 72.371237,251.792312 C77.0420092,254.027582 111.048291,264.233943 115.173452,262.97729 C117.054868,263.084059 119.942685,253.361363 119.942685,253.361363 L88.9904122,239.553716 C88.9904122,239.553716 97.9487748,218.151708 99.4949852,204.09317 C101.041196,190.034476 94.1643064,181.655745 90.7150436,181.655745 L87.2657808,181.655745 Z" id="Fill-135" fill="#F37168"></path>
                    <path d="M119.7637,151.038262 C118.24916,155.796251 118.899032,156.766709 116.802665,157.211535 C114.706297,157.656361 112.791642,155.573603 112.172029,152.649206 C111.552416,149.724653 112.749624,146.993249 114.845992,146.548423 C116.94236,146.103597 120.670386,148.189807 119.7637,151.038262" id="Fill-137" fill="#F09959"></path>
                    <path d="M144.403838,142.375925 C136.199923,156.967469 119.903254,154.82493 109.99948,149.803968 C101.925696,145.710785 133.033657,130.205269 133.033657,130.205269 L144.403838,142.375925 Z" id="Fill-139" fill="#303C60"></path>
                    <path d="M117.682007,130.205285 C114.641168,121.026809 102.181334,123.196806 96.535361,135.408885 C90.8893882,147.620964 99.5288507,155.787559 104.764204,152.79585 C109.999558,149.803984 117.682007,130.205285 117.682007,130.205285" id="Fill-141" fill="#303C60"></path>
                    <path d="M222.951202,124.602205 C206.367931,124.602205 192.924429,111.14838 192.924429,94.5523732 C192.924429,77.9562099 206.367931,64.5023845 222.951202,64.5023845 C239.534474,64.5023845 252.977975,77.9562099 252.977975,94.5523732 C252.977975,111.14838 239.534474,124.602205 222.951202,124.602205 L222.951202,124.602205 Z M293.246707,114.205518 C294.254206,110.589013 294.987958,106.858909 295.429934,103.039525 L283.912845,97.8511454 C283.970856,96.7587723 284.002056,95.6591815 284.002056,94.5523732 C284.002056,91.4820547 283.772993,88.4655547 283.336191,85.5168377 L294.316449,79.2638568 C293.518258,75.5138255 292.432681,71.8708036 291.083236,68.3581697 L278.474612,69.1205715 C276.747002,65.3487305 274.646087,61.7846318 272.220628,58.4729933 L279.036058,47.8348294 C276.605112,44.9151398 273.950434,42.1893849 271.099148,39.6814143 L260.293548,46.2177658 C257.047949,43.7025775 253.542557,41.50826 249.823938,39.6806297 L250.919236,27.0849182 C247.444417,25.640607 243.833666,24.4584842 240.112068,23.5606734 L233.576186,34.3786505 C230.125355,33.7726831 226.575593,33.4546365 222.951202,33.4546365 C222.388816,33.4546365 221.828467,33.4634232 221.269687,33.478643 L216.392586,21.8210668 C212.562336,22.1628061 208.817221,22.7987423 205.180287,23.7095763 L204.416902,36.3247441 C200.451818,37.5878299 196.663273,39.245532 193.095638,41.2512495 L183.364327,33.197626 C180.170623,35.2656348 177.150166,37.5774742 174.326004,40.1053718 L179.508051,51.6302062 C176.618039,54.559467 174.022312,57.779316 171.767592,61.2425247 L159.404807,58.6358608 C157.546282,61.9219237 155.935476,65.3663038 154.596535,68.9440533 L164.539035,76.7405094 C163.356094,80.6304999 162.551789,84.684927 162.166255,88.8612693 L150.017011,92.3007854 C149.994277,93.0487519 149.979226,93.7987581 149.979226,94.5523732 C149.979226,97.6401081 150.172698,100.682497 150.544435,103.669499 L162.965073,105.948389 C163.73959,110.056477 164.924568,114.018958 166.47658,117.792054 L157.312986,126.490871 C158.981802,129.919561 160.912292,133.196523 163.07592,136.29885 L175.135483,132.538934 C177.700481,135.768354 180.585475,138.731036 183.742021,141.381006 L179.667031,153.346743 C182.710221,155.594565 185.934028,157.610953 189.313051,159.3708 L198.243035,150.435213 C201.973884,152.089934 205.901183,153.380164 209.980563,154.26354 L211.928456,166.751614 C215.523528,167.296703 219.204205,167.580387 222.951202,167.580387 C223.057816,167.580387 223.163489,167.576778 223.270102,167.576464 L227.02776,155.511249 C231.213284,155.234939 235.283414,154.537496 239.196289,153.459087 L246.722424,163.613984 C250.333802,162.369256 253.815989,160.847904 257.145939,159.076917 L254.869739,146.641405 C258.390809,144.475958 261.674351,141.962339 264.675209,139.149345 L276.050878,144.638983 C278.651309,141.878865 281.038512,138.916341 283.187716,135.777141 L275.401946,125.830144 C277.501136,122.311862 279.256497,118.565125 280.622719,114.635438 L293.246707,114.205518 Z" id="Fill-143" fill="#9EC8FF"></path>
                    <path d="M180.427875,127.29763 C180.188465,127.29763 179.952034,127.188267 179.798071,126.980996 C178.089589,124.680767 176.552942,122.229282 175.231091,119.694638 C175.030877,119.310691 175.179509,118.836681 175.563474,118.636156 C175.94697,118.435789 176.420616,118.584691 176.621144,118.968638 C177.90474,121.430008 179.397016,123.810886 181.056425,126.045057 C181.31465,126.392759 181.242372,126.884185 180.894937,127.142608 C180.754458,127.247107 180.590461,127.29763 180.427875,127.29763" id="Fill-145" fill="#FFFFFF"></path>
                    <path d="M216.430324,148.506175 C216.396458,148.506175 216.362123,148.503821 216.32763,148.499428 C206.922901,147.265997 197.961717,143.552839 190.412692,137.761472 C190.06902,137.498029 190.003954,137.005504 190.267509,136.661725 C190.53075,136.317789 191.022898,136.252516 191.36657,136.516431 C198.69735,142.140222 207.399213,145.745901 216.531293,146.943557 C216.96057,146.999886 217.263007,147.393875 217.206722,147.823324 C217.154983,148.218411 216.818052,148.506175 216.430324,148.506175" id="Fill-147" fill="#FFFFFF"></path>
                    <polygon id="Fill-149" fill="#9EC8FF" points="223.964078 137.408467 366.499218 137.408467 366.499218 58.2693148 223.964078 58.2693148"></polygon>
                    <polygon id="Fill-151" fill="#FFFFFF" points="225.531925 132.073695 362.422817 132.073695 362.422817 59.9952706 225.531925 59.9952706"></polygon>
                    <g id="Group-163" transform="translate(227.231471, 60.664157)" fill="#9EC8FF">
                        <path d="M0.779376602,65.1248623 L129.975433,65.1248623 L129.975433,0.663394644 L0.779376602,0.663394644 L0.779376602,65.1248623 Z M130.289003,65.7524825 L0.465807259,65.7524825 C0.292560197,65.7524825 0.152237916,65.6118956 0.152237916,65.4386724 L0.152237916,0.3495845 C0.152237916,0.176204396 0.292560197,0.0357743564 0.465807259,0.0357743564 L130.289003,0.0357743564 C130.462093,0.0357743564 130.602572,0.176204396 130.602572,0.3495845 L130.602572,65.4386724 C130.602572,65.6118956 130.462093,65.7524825 130.289003,65.7524825 L130.289003,65.7524825 Z" id="Fill-152"></path>
                        <path d="M130.288987,54.9042071 L0.465791581,54.9042071 C0.292544519,54.9042071 0.152222238,54.7636201 0.152222238,54.5903969 C0.152222238,54.4171737 0.292544519,54.2765868 0.465791581,54.2765868 L130.288987,54.2765868 C130.462077,54.2765868 130.602556,54.4171737 130.602556,54.5903969 C130.602556,54.7636201 130.462077,54.9042071 130.288987,54.9042071" id="Fill-153"></path>
                        <path d="M130.288987,44.0560728 L0.465791581,44.0560728 C0.292544519,44.0560728 0.152222238,43.9154859 0.152222238,43.7422627 C0.152222238,43.5690395 0.292544519,43.4284526 0.465791581,43.4284526 L130.288987,43.4284526 C130.462077,43.4284526 130.602556,43.5690395 130.602556,43.7422627 C130.602556,43.9154859 130.462077,44.0560728 130.288987,44.0560728" id="Fill-154"></path>
                        <path d="M130.288987,33.2078758 L0.465791581,33.2078758 C0.292544519,33.2078758 0.152222238,33.0672889 0.152222238,32.8940657 C0.152222238,32.7208425 0.292544519,32.5802555 0.465791581,32.5802555 L130.288987,32.5802555 C130.462077,32.5802555 130.602556,32.7208425 130.602556,32.8940657 C130.602556,33.0672889 130.462077,33.2078758 130.288987,33.2078758" id="Fill-155"></path>
                        <path d="M130.288987,22.3596631 L0.465791581,22.3596631 C0.292544519,22.3596631 0.152222238,22.2190762 0.152222238,22.045853 C0.152222238,21.8726298 0.292544519,21.7320428 0.465791581,21.7320428 L130.288987,21.7320428 C130.462077,21.7320428 130.602556,21.8726298 130.602556,22.045853 C130.602556,22.2190762 130.462077,22.3596631 130.288987,22.3596631" id="Fill-156"></path>
                        <path d="M130.288987,11.5114504 L0.465791581,11.5114504 C0.292544519,11.5114504 0.152222238,11.3708635 0.152222238,11.1976403 C0.152222238,11.0244171 0.292544519,10.8838301 0.465791581,10.8838301 L130.288987,10.8838301 C130.462077,10.8838301 130.602556,11.0244171 130.602556,11.1976403 C130.602556,11.3708635 130.462077,11.5114504 130.288987,11.5114504" id="Fill-157"></path>
                        <path d="M108.651777,65.7524198 C108.478687,65.7524198 108.338208,65.6118328 108.338208,65.4386096 L108.338208,0.349521738 C108.338208,0.176141634 108.478687,0.0357115944 108.651777,0.0357115944 C108.824868,0.0357115944 108.965347,0.176141634 108.965347,0.349521738 L108.965347,65.4386096 C108.965347,65.6118328 108.824868,65.7524198 108.651777,65.7524198" id="Fill-158"></path>
                        <path d="M87.0145677,65.7524198 C86.8414774,65.7524198 86.7009983,65.6118328 86.7009983,65.4386096 L86.7009983,0.349521738 C86.7009983,0.176141634 86.8414774,0.0357115944 87.0145677,0.0357115944 C87.1876579,0.0357115944 87.328137,0.176141634 87.328137,0.349521738 L87.328137,65.4386096 C87.328137,65.6118328 87.1876579,65.7524198 87.0145677,65.7524198" id="Fill-159"></path>
                        <path d="M65.3773736,65.7524198 C65.2042834,65.7524198 65.0638043,65.6118328 65.0638043,65.4386096 L65.0638043,0.349521738 C65.0638043,0.176141634 65.2042834,0.0357115944 65.3773736,0.0357115944 C65.5504639,0.0357115944 65.690943,0.176141634 65.690943,0.349521738 L65.690943,65.4386096 C65.690943,65.6118328 65.5504639,65.7524198 65.3773736,65.7524198" id="Fill-160"></path>
                        <path d="M43.7401639,65.7524198 C43.5670737,65.7524198 43.4265946,65.6118328 43.4265946,65.4386096 L43.4265946,0.349521738 C43.4265946,0.176141634 43.5670737,0.0357115944 43.7401639,0.0357115944 C43.9132542,0.0357115944 44.0537333,0.176141634 44.0537333,0.349521738 L44.0537333,65.4386096 C44.0537333,65.6118328 43.9132542,65.7524198 43.7401639,65.7524198" id="Fill-161"></path>
                        <path d="M22.1029699,65.7524198 C21.9298796,65.7524198 21.7894006,65.6118328 21.7894006,65.4386096 L21.7894006,0.349521738 C21.7894006,0.176141634 21.9298796,0.0357115944 22.1029699,0.0357115944 C22.2760602,0.0357115944 22.4165393,0.176141634 22.4165393,0.349521738 L22.4165393,65.4386096 C22.4165393,65.6118328 22.2760602,65.7524198 22.1029699,65.7524198" id="Fill-162"></path>
                    </g>
                    <path d="M227.697686,126.730544 C227.467839,126.730544 227.246459,126.603608 227.136553,126.38394 C226.981493,126.073896 227.106607,125.696853 227.416257,125.541674 L248.968349,114.736249 L260.083284,104.03297 L270.40583,82.4392232 C270.441891,82.3640656 270.492219,82.2969103 270.554462,82.2413659 L282.288227,71.7786219 C282.436388,71.6465078 282.638641,71.5925324 282.832427,71.6325432 C283.026683,71.6727109 283.190523,71.8024714 283.274246,71.9825985 L293.167202,93.2716355 L304.921662,114.171548 L313.772941,103.994371 C313.887237,103.862885 314.051077,103.78506 314.225108,103.779254 C314.402902,103.770625 314.567682,103.84029 314.690445,103.963618 L324.762292,114.090271 L335.288188,82.5113995 C335.319074,82.4191393 335.370813,82.3355089 335.439328,82.2666276 L357.076553,60.5702649 C357.321294,60.3250223 357.71843,60.3245516 357.963328,60.5694804 C358.208696,60.8142523 358.209009,61.2116929 357.964268,61.4570924 L336.431305,83.0487994 L325.630252,115.453149 C325.561267,115.659636 325.390528,115.815756 325.178555,115.865495 C324.967209,115.915391 324.744262,115.851688 324.590769,115.697293 L314.276847,105.326966 L305.284148,115.66654 C305.150254,115.820307 304.95004,115.89923 304.747474,115.878989 C304.544752,115.858278 304.364606,115.740128 304.264578,115.562355 L292.06234,93.8659919 C292.054501,93.8520274 292.047132,93.8375921 292.040233,93.8229999 L282.492674,73.277536 L271.482941,83.0946156 L261.165726,104.677222 C261.133271,104.745162 261.089058,104.806512 261.03481,104.858604 L249.769205,115.706864 C249.723737,115.750641 249.671841,115.787356 249.615399,115.815756 L227.978173,126.663859 C227.888022,126.709048 227.792227,126.730544 227.697686,126.730544" id="Fill-164" fill="#F39892"></path>
                    <path d="M227.697231,126.730387 C227.539192,126.730387 227.381153,126.671077 227.259331,126.551986 C227.011298,126.309881 227.006438,125.912598 227.248357,125.664531 L258.975146,93.1199083 C259.213929,92.8752933 259.60448,92.8666635 259.853297,93.100609 L270.957414,103.532286 L292.16505,82.2666276 C292.406655,82.0243661 292.797519,82.0207573 293.043828,82.2578409 L303.852093,92.6695908 L313.793025,82.2760419 C313.909673,82.1539697 314.07069,82.084147 314.239391,82.082421 C314.402917,82.0810089 314.570677,82.1470659 314.689833,82.2666276 L335.711365,103.345569 L356.959294,60.7334462 C357.113884,60.4232449 357.490951,60.297407 357.800444,60.4521154 C358.110407,60.6068238 358.236305,60.9837098 358.081559,61.2939111 L336.444333,104.686636 C336.354182,104.867391 336.182817,104.993543 335.9837,105.025865 C335.784584,105.058658 335.581861,104.992758 335.439344,104.849818 L314.255383,83.6078521 L304.323387,93.9923005 C304.208151,94.1126467 304.049798,94.1823126 303.883293,94.1856076 C303.71961,94.1900009 303.555613,94.1261405 303.435359,94.0103446 L292.617687,83.5896511 L271.415539,104.849818 C271.175972,105.089882 270.789498,105.096316 270.542405,104.864096 L259.443305,94.4371264 L228.146106,126.541002 C228.023186,126.667154 227.860287,126.730387 227.697231,126.730387" id="Fill-165" fill="#9EC8FF"></path>
                    <path d="M228.726052,98.472615 L190.007293,98.472615 L190.007293,28.4276804 C190.007293,27.5727047 190.699968,26.8794981 191.554445,26.8794981 L237.417724,26.8794981 C238.2722,26.8794981 238.964718,27.5727047 238.964718,28.4276804 L238.964718,88.2260862 C238.964718,93.8850245 234.380805,98.472615 228.726052,98.472615" id="Fill-166" fill="#9EC8FF"></path>
                    <path d="M227.590131,96.4897742 L190.558689,96.4897742 L190.558689,29.5614451 C190.558689,28.7493044 191.216558,28.0907738 192.028232,28.0907738 L235.846569,28.0907738 C236.658086,28.0907738 237.315955,28.7493044 237.315955,29.5614451 L237.315955,86.7564819 C237.315955,92.1320497 232.961574,96.4897742 227.590131,96.4897742" id="Fill-167" fill="#FFFFFF"></path>
                    <path d="M218.075026,82.4556511 L218.075026,81.2220634 C218.075026,80.2489382 217.393954,79.4600195 216.553902,79.4600195 L169.663212,79.4600195 C168.82316,79.4600195 168.142088,80.2489382 168.142088,81.2220634 L168.142088,82.4556511 C168.142088,91.1995001 174.261236,98.2876867 181.809791,98.2876867 L229.720208,98.2876867 C222.17181,98.2876867 217.971862,91.9968916 218.075026,82.4556511" id="Fill-168" fill="#9EC8FF"></path>
                    <path d="M216.921813,83.681472 L216.921813,82.6833988 C216.921813,81.8962061 216.284169,81.2579163 215.497424,81.2579163 L171.588936,81.2579163 C170.80219,81.2579163 170.164547,81.8962061 170.164547,82.6833988 L170.164547,83.681472 C170.164547,90.7552234 175.894556,96.4897899 182.963037,96.4897899 L229.720302,96.4897899 C222.651822,96.4897899 216.921813,93.0664351 216.921813,83.681472" id="Fill-169" fill="#FFFFFF"></path>
                    <path d="M199.009618,35.2601745 C198.2986,35.2601745 197.720065,35.8389973 197.720065,36.5507187 L197.720065,54.7094996 C197.720065,55.4210641 198.2986,56.0000438 199.009618,56.0000438 L232.407889,56.0000438 C233.118908,56.0000438 233.697286,55.4210641 233.697286,54.7094996 L233.697286,36.5507187 C233.697286,35.8389973 233.118908,35.2601745 232.407889,35.2601745 L199.009618,35.2601745 Z M232.407889,56.6276641 L199.009618,56.6276641 C197.95289,56.6276641 197.092926,55.7670398 197.092926,54.7094996 L197.092926,36.5507187 C197.092926,35.4930217 197.95289,34.6325542 199.009618,34.6325542 L232.407889,34.6325542 C233.464618,34.6325542 234.324425,35.4930217 234.324425,36.5507187 L234.324425,54.7094996 C234.324425,55.7670398 233.464618,56.6276641 232.407889,56.6276641 L232.407889,56.6276641 Z" id="Fill-170" fill="#9EC8FF"></path>
                    <path d="M221.306421,65.4419478 L184.594977,65.4419478 C184.073354,65.4419478 183.646586,65.0148522 183.646586,64.492829 C183.646586,63.9709627 184.073354,63.5438671 184.594977,63.5438671 L221.306421,63.5438671 C221.828044,63.5438671 222.254655,63.9709627 222.254655,64.492829 C222.254655,65.0148522 221.828044,65.4419478 221.306421,65.4419478" id="Fill-171" fill="#9EC8FF"></path>
                    <path d="M221.306421,68.9048113 L184.594977,68.9048113 C184.073354,68.9048113 183.646586,68.4777157 183.646586,67.9558494 C183.646586,67.4338263 184.073354,67.0067307 184.594977,67.0067307 L221.306421,67.0067307 C221.828044,67.0067307 222.254655,67.4338263 222.254655,67.9558494 C222.254655,68.4777157 221.828044,68.9048113 221.306421,68.9048113" id="Fill-172" fill="#9EC8FF"></path>
                    <path d="M221.306421,72.2471718 L184.594977,72.2471718 C184.073354,72.2471718 183.646586,71.8200762 183.646586,71.2982099 C183.646586,70.7761867 184.073354,70.3490911 184.594977,70.3490911 L221.306421,70.3490911 C221.828044,70.3490911 222.254655,70.7761867 222.254655,71.2982099 C222.254655,71.8200762 221.828044,72.2471718 221.306421,72.2471718" id="Fill-173" fill="#9EC8FF"></path>
                    <path d="M223.291409,39.4716322 L222.064569,39.4716322 C221.805404,39.4716322 221.59547,39.2615363 221.59547,39.0021722 L221.59547,37.990919 C221.59547,37.7317118 221.805404,37.521459 222.064569,37.521459 L223.291409,37.521459 C223.550574,37.521459 223.760509,37.7317118 223.760509,37.990919 L223.760509,39.0021722 C223.760509,39.2615363 223.550574,39.4716322 223.291409,39.4716322" id="Fill-174" fill="#9EC8FF"></path>
                    <path d="M227.2281,39.4716322 L226.001103,39.4716322 C225.742095,39.4716322 225.532003,39.2615363 225.532003,39.0021722 L225.532003,37.990919 C225.532003,37.7317118 225.742095,37.521459 226.001103,37.521459 L227.2281,37.521459 C227.487108,37.521459 227.6972,37.7317118 227.6972,37.990919 L227.6972,39.0021722 C227.6972,39.2615363 227.487108,39.4716322 227.2281,39.4716322" id="Fill-175" fill="#9EC8FF"></path>
                    <path d="M231.164712,39.4716322 L229.937872,39.4716322 C229.678707,39.4716322 229.468772,39.2615363 229.468772,39.0021722 L229.468772,37.990919 C229.468772,37.7317118 229.678707,37.521459 229.937872,37.521459 L231.164712,37.521459 C231.423877,37.521459 231.633812,37.7317118 231.633812,37.990919 L231.633812,39.0021722 C231.633812,39.2615363 231.423877,39.4716322 231.164712,39.4716322" id="Fill-176" fill="#9EC8FF"></path>
                    <polygon id="Fill-177" fill="#9EC8FF" points="200.746307 53.7973634 205.689257 53.7973634 205.689257 45.6301406 200.746307 45.6301406"></polygon>
                    <polygon id="Fill-178" fill="#9EC8FF" points="214.372933 53.7973634 219.315726 53.7973634 219.315726 46.310481 214.372933 46.310481"></polygon>
                    <polygon id="Fill-179" fill="#9EC8FF" points="222.254655 53.7973634 227.197605 53.7973634 227.197605 42.9680891 222.254655 42.9680891"></polygon>
                    <polygon id="Fill-180" fill="#9EC8FF" points="207.425961 53.7973634 212.368911 53.7973634 212.368911 48.8506172 207.425961 48.8506172"></polygon>
                    <path d="M496.316989,107.946747 L513.913716,107.946747 C513.913716,117.607549 505.970378,125.557145 496.316989,125.557145 C486.6636,125.557145 478.719948,117.607549 478.719948,107.946747 C478.719948,98.285945 486.6636,90.3363496 496.316989,90.3363496 L496.316989,107.946747 Z" id="Fill-181" fill="#9EC8FF"></path>
                    <path d="M516.860986,105.480937 C516.860986,95.7550192 508.982556,87.8705393 499.264102,87.8705393 L499.264102,105.480937 L516.860986,105.480937 Z" id="Fill-182" fill="#F39892"></path>
                    <path d="M481.667123,105.480937 C481.667123,115.206855 489.545553,123.091335 499.264008,123.091335 C489.610619,123.091335 481.667123,115.141739 481.667123,105.480937" id="Fill-183" fill="#F39892"></path>
                    <path d="M499.264055,87.8704922 C489.5456,87.8704922 481.66717,95.7549721 481.66717,105.48089 C481.66717,95.8202446 489.610666,87.8704922 499.264055,87.8704922" id="Fill-184" fill="#F39892"></path>
                    <path d="M499.264055,123.091382 C508.982509,123.091382 516.860939,115.206902 516.860939,105.480984 C516.860939,115.141629 508.917287,123.091382 499.264055,123.091382" id="Fill-185" fill="#F39892"></path>
                    <path d="M284.265721,72.2471718 C284.265721,71.3848215 283.567245,70.6858094 282.705556,70.6858094 C281.843868,70.6858094 281.145392,71.3848215 281.145392,72.2471718 C281.145392,73.1095221 281.843868,73.8085342 282.705556,73.8085342 C283.567245,73.8085342 284.265721,73.1095221 284.265721,72.2471718" id="Fill-186" fill="#F39892"></path>
                    <path d="M261.061589,93.5582226 C261.061589,92.6958724 260.363114,91.9968603 259.501425,91.9968603 C258.639736,91.9968603 257.941261,92.6958724 257.941261,93.5582226 C257.941261,94.4205729 258.639736,95.119585 259.501425,95.119585 C260.363114,95.119585 261.061589,94.4205729 261.061589,93.5582226" id="Fill-187" fill="#9EC8FF"></path>
                    <path d="M294.16904,82.7100099 C294.16904,81.8476597 293.470564,81.1486476 292.608876,81.1486476 C291.747187,81.1486476 291.048712,81.8476597 291.048712,82.7100099 C291.048712,83.5723602 291.747187,84.2713723 292.608876,84.2713723 C293.470564,84.2713723 294.16904,83.5723602 294.16904,82.7100099" id="Fill-188" fill="#9EC8FF"></path>
                    <path d="M315.806234,82.7100099 C315.806234,81.8476597 315.107758,81.1486476 314.24607,81.1486476 C313.384381,81.1486476 312.685906,81.8476597 312.685906,82.7100099 C312.685906,83.5723602 313.384381,84.2713723 314.24607,84.2713723 C315.107758,84.2713723 315.806234,83.5723602 315.806234,82.7100099" id="Fill-189" fill="#9EC8FF"></path>
                    <path d="M337.443444,82.7100099 C337.443444,81.8476597 336.744968,81.1486476 335.88328,81.1486476 C335.021591,81.1486476 334.323115,81.8476597 334.323115,82.7100099 C334.323115,83.5723602 335.021591,84.2713723 335.88328,84.2713723 C336.744968,84.2713723 337.443444,83.5723602 337.443444,82.7100099" id="Fill-190" fill="#F39892"></path>
                    <path d="M186.859496,98.287671 C186.859496,102.941319 183.089922,106.713787 178.439846,106.713787 C173.789769,106.713787 170.020195,102.941319 170.020195,98.287671 C170.020195,93.6340235 173.789769,89.8615548 178.439846,89.8615548 C183.089922,89.8615548 186.859496,93.6340235 186.859496,98.287671" id="Fill-191" fill="#9CD499"></path>
                    <path d="M177.604231,101.230473 C177.59843,101.230473 177.592629,101.230473 177.586827,101.230159 C177.457637,101.225295 177.336442,101.167711 177.251152,101.070743 L174.96429,98.4698849 C174.792611,98.274695 174.811582,97.9773598 175.006779,97.8055488 C175.201662,97.6338946 175.498926,97.6528802 175.670448,97.8479132 L177.62963,100.076279 L182.160863,95.6379052 C182.346497,95.4560522 182.644387,95.4591903 182.826101,95.6451228 C183.007814,95.8308985 183.004522,96.1288612 182.819046,96.3107142 L177.933322,101.096162 C177.845209,101.18246 177.726993,101.230473 177.604231,101.230473" id="Fill-192" fill="#FFFFFF"></path>
                    <polygon id="Fill-193" fill="#9EC8FF" points="59.4772029 78.1487167 65.0816278 78.1487167 65.0816278 47.5509725 59.4772029 47.5509725"></polygon>
                    <polygon id="Fill-194" fill="#9EC8FF" points="83.2288264 78.1487167 88.8334081 78.1487167 88.8334081 56.4523541 83.2288264 56.4523541"></polygon>
                    <polygon id="Fill-195" fill="#9EC8FF" points="95.1047949 78.1487167 100.70922 78.1487167 100.70922 47.5509725 95.1047949 47.5509725"></polygon>
                    <polygon id="Fill-196" fill="#9EC8FF" points="106.980607 78.1487167 112.585032 78.1487167 112.585032 67.3006139 106.980607 67.3006139"></polygon>
                    <polygon id="Fill-197" fill="#9EC8FF" points="71.3530147 78.1487167 76.9574395 78.1487167 76.9574395 38.2353614 71.3530147 38.2353614"></polygon>
                    <polygon id="Fill-198" fill="#9EC8FF" points="118.896242 78.1487167 124.500667 78.1487167 124.500667 56.4523541 118.896242 56.4523541"></polygon>
                    <polygon id="Fill-199" fill="#9EC8FF" points="404.320228 66.5491955 409.924653 66.5491955 409.924653 50.3201901 404.320228 50.3201901"></polygon>
                    <polygon id="Fill-200" fill="#9EC8FF" points="476.155672 66.5491955 481.760097 66.5491955 481.760097 55.5998888 476.155672 55.5998888"></polygon>
                    <polygon id="Fill-201" fill="#9EC8FF" points="428.072008 66.5491955 433.676276 66.5491955 433.676276 28.5776974 428.072008 28.5776974"></polygon>
                    <polygon id="Fill-202" fill="#9EC8FF" points="439.947663 66.5491955 445.552244 66.5491955 445.552244 49.4816894 439.947663 49.4816894"></polygon>
                    <polygon id="Fill-203" fill="#9EC8FF" points="451.823631 66.5491955 457.428056 66.5491955 457.428056 44.6505822 451.823631 44.6505822"></polygon>
                    <polygon id="Fill-204" fill="#9EC8FF" points="416.196039 66.5491955 421.800621 66.5491955 421.800621 39.6049858 416.196039 39.6049858"></polygon>
                    <polygon id="Fill-205" fill="#9EC8FF" points="463.739266 66.5491955 469.343691 66.5491955 469.343691 33.3631451 463.739266 33.3631451"></polygon>
                </g>
                <g id="Group-222" transform="translate(20.000000, 108.620753)">
                    <g id="Group-209">
                        <mask id="mask-2" fill="white">
                            <use xlink:href="#path-1"></use>
                        </mask>
                        <g id="Clip-208"></g>
                        <path d="M42.7329755,34.8767684 L22.5059476,22.4645053 L18.8471014,45.9723474 C28.3493392,47.4751895 37.7733776,43.0075579 42.7329755,34.8767684" id="Fill-207" fill="#A2DFF2" mask="url(#mask-2)"></path>
                    </g>
                    <g id="Group-212">
                        <mask id="mask-4" fill="white">
                            <use xlink:href="#path-3"></use>
                        </mask>
                        <g id="Clip-211"></g>
                        <path d="M42.754264,34.8488684 C42.8088619,34.7593421 42.8801381,34.6361842 42.8773059,34.6409211 C47.1493164,27.4597105 47.321764,18.5405526 43.4023584,11.2194474 C36.2443689,14.9828684 40.5069388,12.6965526 22.5059948,22.4643947 C42.7663794,34.8973421 39.6198409,32.9801842 42.754264,34.8488684" id="Fill-210" fill="#9CD499" mask="url(#mask-4)"></path>
                    </g>
                    <g id="Group-215">
                        <mask id="mask-6" fill="white">
                            <use xlink:href="#path-5"></use>
                        </mask>
                        <g id="Clip-214"></g>
                        <path d="M0.270975524,14.2426737 L22.5058531,22.4644105 L43.3641399,11.1460421 C33.607479,-6.96069474 7.3451014,-4.78916842 0.270975524,14.2426737" id="Fill-213" fill="#9EC8FF" mask="url(#mask-6)"></path>
                    </g>
                    <g id="Group-218">
                        <mask id="mask-8" fill="white">
                            <use xlink:href="#path-7"></use>
                        </mask>
                        <g id="Clip-217"></g>
                        <path d="M18.8471643,45.9723474 L22.5058531,22.4645053 L0.270975524,14.2426105 C-5.01652448,28.4676632 4.36817832,43.6817684 18.8471643,45.9723474" id="Fill-216" fill="#F39892" mask="url(#mask-8)"></path>
                    </g>
                    <g id="Group-221">
                        <mask id="mask-10" fill="white">
                            <use xlink:href="#path-9"></use>
                        </mask>
                        <g id="Clip-220"></g>
                        <path d="M19.7477308,45.3019895 L23.1011748,23.7553579 L31.8283427,29.1116211 C35.3469965,31.2714632 37.3597238,32.5068316 38.6269615,33.2825684 L41.6397587,35.1313579 C36.8338846,42.4458316 28.3896189,46.3684105 19.7477308,45.3019895 L19.7477308,45.3019895 Z M2.7028007,33.9755684 C-0.626884615,28.2558316 -1.32595804,21.4786737 0.746874126,15.2599895 L15.3934301,20.6757789 L21.6292343,22.9815158 L18.1935,45.0558316 C11.7050035,43.7993053 6.09054545,39.7949368 2.7028007,33.9755684 L2.7028007,33.9755684 Z M1.29631469,13.7803579 C4.64865734,5.59162105 12.1356503,0.163042105 21.017486,-0.456063158 C29.7931154,-1.06822105 37.8703007,3.24246316 42.2867517,10.8332526 L36.1263147,14.1760421 C34.854514,14.8627263 33.076542,15.8282526 30.0999336,17.4444632 C28.1929406,18.4799368 25.7933077,19.7828842 22.7200909,21.4507263 L22.530021,21.5538316 L21.9105629,21.1736211 L21.8767343,21.3904105 L12.1351783,17.7883579 L1.29631469,13.7803579 Z M41.4315944,13.1453053 C41.8976434,12.9007263 42.431507,12.6206211 43.0657552,12.2874632 C46.3998462,19.0660421 46.1816119,27.1767789 42.4754056,33.7641507 C42.4749336,33.7647789 42.325458,33.6757263 42.325458,33.6757263 C41.4989371,33.1845158 41.1398811,32.9710421 39.4929755,31.9632 L24.0823636,22.5064105 L36.8751084,15.5647263 C38.7536224,14.5504105 39.5238147,14.1463579 41.4315944,13.1453053 L41.4315944,13.1453053 Z M43.803535,34.6082526 C47.8231678,27.5183053 48.0521014,18.7635158 44.4173287,11.4720947 L44.4303881,11.4649895 L44.0562273,10.7705684 C44.0485175,10.7565158 44.0403357,10.7429368 44.0327832,10.7288842 L43.7267517,10.1574632 L43.7151084,10.1636211 C41.3548112,6.04841053 37.9895664,2.76656842 33.9419266,0.650463158 C29.9781503,-1.42190526 25.4718566,-2.34937895 20.9084476,-2.03106316 C11.4011748,-1.36853684 3.39101748,4.45588421 -0.179087413,13.2348316 L-0.192146853,13.2299368 L-0.46608042,13.9666737 L-0.742059441,14.7094105 L-0.729,14.7143053 C-2.96420979,21.3773053 -2.2235979,28.6433053 1.3443042,34.7719895 C4.97168182,41.0031474 10.993028,45.2850947 17.9507203,46.6158316 L17.9486748,46.6294105 L18.7237448,46.7520947 C18.7246888,46.7522526 19.5029056,46.8752526 19.5029056,46.8752526 L19.504951,46.8616737 C20.511472,46.9876737 21.5195664,47.0514632 22.525458,47.0514632 C26.0631503,47.0514632 29.5671713,46.2752526 32.8255804,44.7528316 C36.997049,42.8039368 40.501542,39.7567263 43.005021,35.9167263 L43.0209126,35.9260421 L43.174951,35.6729368 C43.1788846,35.6748316 43.4259126,35.2600421 43.4259126,35.2600421 C43.4643042,35.1968842 43.5104056,35.1182526 43.5366818,35.0734105 L43.5532028,35.0456211 C43.5572937,35.0385158 43.5612273,35.0312526 43.5654755,35.0241474 L43.8148636,34.6152 L43.803535,34.6082526 Z" id="Fill-219" fill="#E7F3FE" mask="url(#mask-10)"></path>
                    </g>
                </g>
                <g id="Group-277" transform="translate(13.000000, 66.620753)">
                    <path d="M14.216581,114.887169 C14.216581,118.760047 11.0628737,121.899639 7.17242743,121.899639 C3.28213818,121.899639 0.128273893,118.760047 0.128273893,114.887169 C0.128273893,111.014291 3.28213818,107.874543 7.17242743,107.874543 C11.0628737,107.874543 14.216581,111.014291 14.216581,114.887169" id="Fill-223" fill="#9EC8FF"></path>
                    <path d="M12.3563505,115.199128 C12.3563505,117.142052 10.7740808,118.717084 8.82242122,118.717084 C6.87076164,118.717084 5.28864894,117.142052 5.28864894,115.199128 C5.28864894,113.256047 6.87076164,111.681015 8.82242122,111.681015 C10.7740808,111.681015 12.3563505,113.256047 12.3563505,115.199128" id="Fill-225" fill="#FFFFFF"></path>
                    <path d="M489.744779,114.792695 L472.256609,114.792695 C469.698666,114.792695 467.605719,112.709115 467.605719,110.162465 L467.605719,92.7527225 C467.605719,90.2060722 469.698666,88.1224919 472.256609,88.1224919 L489.744779,88.1224919 C492.302721,88.1224919 494.395669,90.2060722 494.395669,92.7527225 L494.395669,110.162465 C494.395669,112.709115 492.302721,114.792695 489.744779,114.792695" id="Fill-227" fill="#9EC8FF"></path>
                    <path d="M480.403909,92.9864767 C478.272185,92.9864767 476.537952,94.7129478 476.537952,96.8351303 L476.537952,114.245029 C476.537952,116.367211 478.272185,118.093682 480.403909,118.093682 L497.892078,118.093682 C500.023959,118.093682 501.758034,116.367211 501.758034,114.245029 L501.758034,96.8351303 C501.758034,94.7129478 500.023959,92.9864767 497.892078,92.9864767 L480.403909,92.9864767 Z M497.892078,119.656524 L480.403909,119.656524 C477.40656,119.656524 474.968084,117.228962 474.968084,114.245029 L474.968084,96.8351303 C474.968084,93.8511969 477.40656,91.4236352 480.403909,91.4236352 L497.892078,91.4236352 C500.889427,91.4236352 503.327902,93.8511969 503.327902,96.8351303 L503.327902,114.245029 C503.327902,117.228962 500.889427,119.656524 497.892078,119.656524 L497.892078,119.656524 Z" id="Fill-229" fill="#FFFFFF"></path>
                    <path d="M181.775205,115.773894 L177.312228,110.649805 C176.633418,109.870573 176.718504,108.68 177.501397,108.004227 L182.648523,103.561225 C183.431259,102.885452 184.627184,102.970315 185.305995,103.749704 L189.768972,108.873792 C190.447783,109.653025 190.362539,110.843442 189.579803,111.519214 L184.432678,115.962216 C183.649784,116.637989 182.454016,116.553283 181.775205,115.773894" id="Fill-231" fill="#9EC8FF"></path>
                    <path d="M208.580085,120.060721 C208.580085,122.227914 206.815396,123.984704 204.638461,123.984704 C202.461368,123.984704 200.69668,122.227914 200.69668,120.060721 C200.69668,117.893529 202.461368,116.136739 204.638461,116.136739 C206.815396,116.136739 208.580085,117.893529 208.580085,120.060721" id="Fill-233" fill="#9EC8FF"></path>
                    <path d="M545.853437,107.906425 C545.853437,110.066584 544.0944,111.817904 541.924529,111.817904 C539.754501,111.817904 537.995464,110.066584 537.995464,107.906425 C537.995464,105.746265 539.754501,103.995101 541.924529,103.995101 C544.0944,103.995101 545.853437,105.746265 545.853437,107.906425" id="Fill-235" fill="#9EC8FF"></path>
                    <path d="M444.276856,28.1914263 C444.276856,30.3515859 442.517819,32.1027498 440.347791,32.1027498 C438.17792,32.1027498 436.418726,30.3515859 436.418726,28.1914263 C436.418726,26.0311105 438.17792,24.2799466 440.347791,24.2799466 C442.517819,24.2799466 444.276856,26.0311105 444.276856,28.1914263" id="Fill-237" fill="#9EC8FF"></path>
                    <path d="M519.133346,76.6202908 C519.133346,78.3036274 517.762695,79.6681444 516.07179,79.6681444 C514.381043,79.6681444 513.010234,78.3036274 513.010234,76.6202908 C513.010234,74.9369542 514.381043,73.5724373 516.07179,73.5724373 C517.762695,73.5724373 519.133346,74.9369542 519.133346,76.6202908" id="Fill-239" fill="#9EC8FF"></path>
                    <path d="M409.759389,38.9851132 L344.678638,38.9851132 C343.970157,38.9851132 343.396056,38.4134258 343.396056,37.708428 L343.396056,9.8281165 C343.396056,9.12280612 343.970157,8.55127497 344.678638,8.55127497 L409.759389,8.55127497 C410.467714,8.55127497 411.041971,9.12280612 411.041971,9.8281165 L411.041971,37.708428 C411.041971,38.4134258 410.467714,38.9851132 409.759389,38.9851132" id="Fill-241" fill="#9EC8FF"></path>
                    <path d="M408.156256,37.5568011 L346.281489,37.5568011 C345.709429,37.5568011 345.245533,37.0949814 345.245533,36.5253257 L345.245533,17.578529 C345.245533,17.0087169 345.709429,16.5470536 346.281489,16.5470536 L408.156256,16.5470536 C408.72863,16.5470536 409.192369,17.0087169 409.192369,17.578529 L409.192369,36.5253257 C409.192369,37.0949814 408.72863,37.5568011 408.156256,37.5568011" id="Fill-243" fill="#FFFFFF"></path>
                    <path d="M348.26059,13.1652677 L346.759011,13.1652677 C346.441741,13.1652677 346.184754,12.9094305 346.184754,12.5937365 L346.184754,11.3625299 C346.184754,11.046836 346.441741,10.7909988 346.759011,10.7909988 L348.26059,10.7909988 C348.57786,10.7909988 348.834847,11.046836 348.834847,11.3625299 L348.834847,12.5937365 C348.834847,12.9094305 348.57786,13.1652677 348.26059,13.1652677" id="Fill-245" fill="#FFFFFF"></path>
                    <path d="M353.078891,13.1652677 L351.577312,13.1652677 C351.260199,13.1652677 351.003055,12.9094305 351.003055,12.5937365 L351.003055,11.3625299 C351.003055,11.046836 351.260199,10.7909988 351.577312,10.7909988 L353.078891,10.7909988 C353.396161,10.7909988 353.653148,11.046836 353.653148,11.3625299 L353.653148,12.5937365 C353.653148,12.9094305 353.396161,13.1652677 353.078891,13.1652677" id="Fill-247" fill="#FFFFFF"></path>
                    <path d="M357.897348,13.1652677 L356.395613,13.1652677 C356.0785,13.1652677 355.821355,12.9094305 355.821355,12.5937365 L355.821355,11.3625299 C355.821355,11.046836 356.0785,10.7909988 356.395613,10.7909988 L357.897348,10.7909988 C358.214462,10.7909988 358.471449,11.046836 358.471449,11.3625299 L358.471449,12.5937365 C358.471449,12.9094305 358.214462,13.1652677 357.897348,13.1652677" id="Fill-249" fill="#FFFFFF"></path>
                    <path d="M406.590533,21.1519349 L372.765848,21.1519349 C372.20933,21.1519349 371.754069,20.6987108 371.754069,20.1445272 C371.754069,19.5904999 372.20933,19.1372758 372.765848,19.1372758 L406.590533,19.1372758 C407.147051,19.1372758 407.602312,19.5904999 407.602312,20.1445272 C407.602312,20.6987108 407.147051,21.1519349 406.590533,21.1519349" id="Fill-251" fill="#9EC8FF"></path>
                    <path d="M381.14979,36.6934249 L347.325106,36.6934249 C346.768587,36.6934249 346.313326,36.2402009 346.313326,35.6861736 C346.313326,35.1319899 346.768587,34.6787659 347.325106,34.6787659 L381.14979,34.6787659 C381.706308,34.6787659 382.16157,35.1319899 382.16157,35.6860173 C382.16157,36.2402009 381.706308,36.6934249 381.14979,36.6934249" id="Fill-253" fill="#9EC8FF"></path>
                    <path d="M387.380815,36.6934249 L383.880795,36.6934249 C383.690527,36.6934249 383.534796,36.538391 383.534796,36.3489746 L383.534796,35.0232162 C383.534796,34.8337998 383.690527,34.6787659 383.880795,34.6787659 L387.380815,34.6787659 C387.571083,34.6787659 387.726657,34.8337998 387.726657,35.0232162 L387.726657,36.3489746 C387.726657,36.538391 387.571083,36.6934249 387.380815,36.6934249" id="Fill-255" fill="#9EC8FF"></path>
                    <path d="M392.656732,36.6934249 L389.156869,36.6934249 C388.966601,36.6934249 388.81087,36.538391 388.81087,36.3489746 L388.81087,35.0232162 C388.81087,34.8337998 388.966601,34.6787659 389.156869,34.6787659 L392.656732,34.6787659 C392.847157,34.6787659 393.002888,34.8337998 393.002888,35.0232162 L393.002888,36.3489746 C393.002888,36.538391 392.847157,36.6934249 392.656732,36.6934249" id="Fill-257" fill="#9EC8FF"></path>
                    <path d="M406.915699,25.5409409 L350.902661,25.5409409 C350.525108,25.5409409 350.216001,25.2333737 350.216001,24.857354 C350.216001,24.4814906 350.525108,24.1737671 350.902661,24.1737671 L406.915699,24.1737671 C407.293253,24.1737671 407.60236,24.4814906 407.60236,24.857354 C407.60236,25.2333737 407.293253,25.5409409 406.915699,25.5409409" id="Fill-259" fill="#9EC8FF"></path>
                    <path d="M406.915699,28.4909449 L350.902661,28.4909449 C350.525108,28.4909449 350.216001,28.1833777 350.216001,27.807358 C350.216001,27.4314946 350.525108,27.1237711 350.902661,27.1237711 L406.915699,27.1237711 C407.293253,27.1237711 407.60236,27.4314946 407.60236,27.807358 C407.60236,28.1833777 407.293253,28.4909449 406.915699,28.4909449" id="Fill-261" fill="#9EC8FF"></path>
                    <path d="M16.5916967,7.77871552 C16.5916967,12.0504303 13.1133407,15.5132183 8.82242122,15.5132183 C4.53165871,15.5132183 1.05330276,12.0504303 1.05330276,7.77871552 C1.05330276,3.50715705 4.53165871,0.044369071 8.82242122,0.044369071 C13.1133407,0.044369071 16.5916967,3.50715705 16.5916967,7.77871552" id="Fill-263" fill="#9EC8FF"></path>
                    <path d="M117.21722,30.5553804 L61.386601,30.5553804 C60.8164251,30.5553804 60.3498604,30.0909039 60.3498604,29.5232799 C60.3498604,28.9554996 60.8164251,28.4910231 61.386601,28.4910231 L117.21722,28.4910231 C117.787553,28.4910231 118.254118,28.9554996 118.254118,29.5232799 C118.254118,30.0909039 117.787553,30.5553804 117.21722,30.5553804" id="Fill-265" fill="#9EC8FF"></path>
                    <path d="M117.21722,35.7110071 L61.386601,35.7110071 C60.8164251,35.7110071 60.3498604,35.2465306 60.3498604,34.6787503 C60.3498604,34.1111262 60.8164251,33.6466497 61.386601,33.6466497 L117.21722,33.6466497 C117.787553,33.6466497 118.254118,34.1111262 118.254118,34.6787503 C118.254118,35.2465306 117.787553,35.7110071 117.21722,35.7110071" id="Fill-267" fill="#9EC8FF"></path>
                    <path d="M288.279837,120.208004 C279.865346,120.208004 273.04427,113.417301 273.04427,105.040627 C273.04427,96.6639522 279.865346,89.8732495 288.279837,89.8732495 C296.694328,89.8732495 303.515403,96.6639522 303.515403,105.040627 C303.515403,113.417301 296.694328,120.208004 288.279837,120.208004 L288.279837,120.208004 Z M326.879117,109.382357 C327.039243,107.956733 327.124173,106.50876 327.124173,105.040627 C327.124173,104.265926 327.098584,103.497321 327.053529,102.733872 L319.847051,100.41274 C319.403407,97.3880167 318.53213,94.5019173 317.295388,91.8167992 L322.073909,85.96302 C320.968565,84.0268156 319.701367,82.1943839 318.288486,80.4852604 L311.081067,82.8265533 C308.98027,80.6898364 306.579628,78.8474025 303.946018,77.3666102 L304.35591,69.8280878 C302.344596,68.9164823 300.241601,68.1706943 298.064194,67.6082277 L293.613776,73.7223763 C291.879072,73.4316878 290.097587,73.2780604 288.279837,73.2780604 C287.040583,73.2780604 285.818755,73.3508889 284.616393,73.4876375 L280.496118,67.1471894 C278.288256,67.5941621 276.148841,68.227738 274.094512,69.0304134 L274.103774,76.5801883 C271.390258,77.9223566 268.895895,79.6369501 266.688504,81.658173 L259.617505,78.9421107 C258.114985,80.5765304 256.750927,82.3391031 255.545426,84.2127938 L260.007775,90.3111577 C258.626448,92.9331369 257.601795,95.7703195 256.999437,98.7600353 L249.680557,100.69874 C249.52043,102.124364 249.4355,103.572493 249.4355,105.040627 C249.4355,105.815171 249.461089,106.583776 249.506144,107.347224 L256.712622,109.668513 C257.156267,112.693236 258.027543,115.579336 259.264285,118.264298 L254.485922,124.118233 C255.591109,126.054281 256.858306,127.886869 258.271187,129.595993 L265.478764,127.254856 C267.579404,129.391417 269.980045,131.233851 272.613656,132.714487 L272.203763,140.253165 C274.215078,141.164771 276.318072,141.910559 278.495479,142.473025 L282.945897,136.358877 C284.680601,136.649565 286.462087,136.803193 288.279837,136.803193 C289.51909,136.803193 290.740918,136.730364 291.94328,136.593616 L296.063712,142.934064 C298.271417,142.487091 300.410833,141.853359 302.465162,141.050683 L302.455899,133.501065 C305.169416,132.158897 307.663936,130.444303 309.871327,128.422924 L316.942168,131.138986 C318.444688,129.504566 319.808746,127.74215 321.014248,125.868459 L316.551899,119.769939 C317.933225,117.14796 318.957878,114.310934 319.560236,111.321218 L326.879117,109.382357 Z" id="Fill-269" fill="#9EC8FF"></path>
                    <path d="M309.059579,122.553641 C308.882655,122.553641 308.704789,122.49441 308.558164,122.373133 C308.224881,122.097135 308.179355,121.604371 308.456436,121.27258 C312.253475,116.727212 314.344539,110.962671 314.344539,105.040595 C314.344539,102.204819 313.878602,99.4203046 312.959916,96.7640991 C312.818628,96.3561975 313.036525,95.9114128 313.446418,95.7709133 C313.856153,95.6304139 314.302938,95.84718 314.444226,96.2553942 C315.419742,99.0753855 315.914407,102.031344 315.914407,105.040595 C315.914407,111.326969 313.694457,117.446431 309.663665,122.271861 C309.508248,122.457683 309.284855,122.553641 309.059579,122.553641" id="Fill-271" fill="#FFFFFF"></path>
                    <path d="M306.853947,86.7548024 C306.66101,86.7548024 306.467602,86.6844745 306.315953,86.5424122 C303.764133,84.1506396 300.8087,82.3377434 297.531601,81.1540472 C297.124063,81.0069838 296.913701,80.5587609 297.061426,80.1530472 C297.20915,79.7471773 297.660016,79.5377565 298.066926,79.6849762 C301.546224,80.941657 304.683761,82.8659838 307.392254,85.404351 C307.707641,85.7001969 307.722711,86.1948363 307.425692,86.5091237 C307.27106,86.6724407 307.062739,86.7548024 306.853947,86.7548024" id="Fill-273" fill="#FFFFFF"></path>
                    <path d="M282.369991,80.4333741 C282.019126,80.4333741 281.699501,80.1972287 281.609547,79.8430889 C281.503424,79.4245599 281.758214,78.9997796 282.178467,78.8941315 C284.340489,78.3508878 286.577708,78.0753588 288.828113,78.0753588 C289.261553,78.0753588 289.613047,78.4251227 289.613047,78.8567796 C289.613047,79.2884364 289.261553,79.6382003 288.828113,79.6382003 C286.707065,79.6382003 284.599046,79.897632 282.562771,80.4094626 C282.498249,80.4255599 282.433571,80.4333741 282.369991,80.4333741" id="Fill-275" fill="#FFFFFF"></path>
                </g>
            </g>
        </g>
    </g>
</svg>