<svg xmlns="http://www.w3.org/2000/svg" width="496" height="521" fill="none"><g clip-path="url(#a)"><path fill="#fff" d="M0 0h495.197v521H0z"/><path stroke="#565c65" d="m138 209.738.003 279.315"/><path fill="#c3850c" d="m364.852 347.165-4.987 2.91-.027-5.773zm-4.5.021.002.5-208.352.965-.002-.5-.002-.5 208.351-.965z"/><path fill="#565c65" d="M138.004 489.553a.5.5 0 0 1-.005-1l.003.5zm226.848-1.55-4.987 2.91-.027-5.773zm-4.5.021.002.5-222.35 1.029-.002-.5-.003-.5 222.35-1.029z"/><rect width="125" height="66" x="221.543" y="27" fill="#e8f5ff" rx="4"/><path fill="#005ea2" d="M265.023 42.434q1.66 0 2.42.65.768.645.768 1.851 0 .546-.182 1.038a2.2 2.2 0 0 1-.574.861q-.399.369-1.049.586-.644.21-1.582.21h-1.043V51h-.996v-8.566zm-.093.85h-1.149v3.491h.932q.82 0 1.365-.175.551-.177.826-.569.276-.398.276-1.054 0-.856-.545-1.272-.546-.422-1.705-.422m7.33 1.189q1.148 0 1.705.515.556.516.556 1.647V51h-.709l-.187-.95h-.047q-.27.352-.562.593a2.1 2.1 0 0 1-.68.357 3.2 3.2 0 0 1-.938.117q-.585 0-1.043-.205a1.62 1.62 0 0 1-.714-.621q-.258-.416-.258-1.055 0-.96.762-1.476.761-.516 2.32-.563l1.107-.047v-.392q0-.833-.357-1.166-.357-.334-1.008-.334a3.1 3.1 0 0 0-.961.146 6.5 6.5 0 0 0-.867.346l-.299-.738a5.4 5.4 0 0 1 .996-.381q.563-.159 1.184-.158m1.301 3.363-.979.041q-1.201.047-1.693.392t-.493.979q0 .55.334.815.334.263.885.263.856 0 1.401-.474.545-.475.545-1.424zm5.882-3.375q.194 0 .405.023.21.018.375.053l-.123.903a3.033 3.033 0 0 0-.715-.088q-.387 0-.733.158a1.7 1.7 0 0 0-.597.445 2.1 2.1 0 0 0-.405.697 2.7 2.7 0 0 0-.146.903V51h-.979v-6.422h.809l.105 1.184h.041q.2-.358.481-.65.28-.3.65-.475.375-.176.832-.176m4.067 5.86a3 3 0 0 0 .902-.141v.755q-.17.076-.474.13-.3.052-.586.052-.51 0-.926-.176a1.43 1.43 0 0 1-.668-.609q-.246-.428-.246-1.184V45.34h-.914v-.475l.92-.38.386-1.395h.586v1.488h1.881v.762h-1.881v3.78q0 .603.276.902.28.298.744.298m3.176-5.743V51h-.973v-6.422zm-.475-2.402a.58.58 0 0 1 .41.158q.176.152.176.48 0 .323-.176.48a.58.58 0 0 1-.41.16.6.6 0 0 1-.422-.16q-.164-.157-.164-.48 0-.328.164-.48a.6.6 0 0 1 .422-.158m4.939 2.297q1.149 0 1.705.515.558.516.557 1.647V51h-.709l-.187-.95h-.047q-.27.352-.563.593a2.1 2.1 0 0 1-.679.357 3.2 3.2 0 0 1-.938.117q-.586 0-1.043-.205a1.62 1.62 0 0 1-.715-.621q-.258-.416-.258-1.055 0-.96.762-1.476t2.32-.563l1.108-.047v-.392q0-.833-.358-1.166-.357-.334-1.007-.334-.504 0-.961.146a6.5 6.5 0 0 0-.867.346l-.299-.738a5.4 5.4 0 0 1 .996-.381 4.4 4.4 0 0 1 1.183-.158m1.301 3.363-.978.041q-1.202.047-1.694.392t-.492.979q0 .55.334.815.334.263.885.263.855 0 1.4-.474.546-.475.545-1.424zM296.395 51h-.979v-9.117h.979zm3.035 0h-.979v-9.117h.979zm1.043-6.422h1.043l1.418 3.727a25 25 0 0 1 .416 1.207q.081.275.129.533h.041q.081-.292.234-.768.152-.48.328-.978l1.342-3.72h1.049l-2.795 7.364a5 5 0 0 1-.522 1.032 2.05 2.05 0 0 1-.715.673q-.422.24-1.019.24-.276 0-.486-.035a3 3 0 0 1-.364-.07v-.78a3.4 3.4 0 0 0 .698.077q.363 0 .626-.14.27-.135.463-.399.194-.264.334-.627l.352-.902zm-62.151 13.895q1.149 0 1.705.515.557.516.557 1.647V65h-.709l-.187-.95h-.047q-.27.352-.563.593a2.1 2.1 0 0 1-.68.357 3.2 3.2 0 0 1-.937.117q-.586 0-1.043-.205a1.62 1.62 0 0 1-.715-.621q-.258-.416-.258-1.055 0-.96.762-1.476t2.32-.563l1.108-.047v-.392q0-.833-.358-1.166-.357-.334-1.007-.334-.505 0-.961.146a7 7 0 0 0-.868.346l-.298-.738a5.4 5.4 0 0 1 .996-.381 4.4 4.4 0 0 1 1.183-.158m1.301 3.363-.978.041q-1.202.047-1.694.392t-.492.979q0 .55.334.815.334.263.885.263.855 0 1.4-.474.545-.475.545-1.424zm5.25 3.281q-1.218 0-1.934-.832-.709-.832-.709-2.472 0-1.659.727-2.503.726-.85 1.934-.85.509 0 .89.136.381.134.657.363.274.222.462.51h.071a9 9 0 0 1-.047-.498 7 7 0 0 1-.024-.516v-2.572h.973V65h-.785l-.147-.914h-.041a2.2 2.2 0 0 1-.462.521 2.1 2.1 0 0 1-.663.375q-.38.135-.902.135m.152-.808q1.032 0 1.459-.586t.428-1.74v-.176q0-1.225-.41-1.881-.405-.657-1.477-.657-.896 0-1.341.692-.446.685-.446 1.875 0 1.183.44 1.828.446.645 1.347.645m4.137 3.574q-.299 0-.521-.047a2.5 2.5 0 0 1-.387-.1v-.79q.181.058.369.087.188.035.422.035.399 0 .644-.222.247-.223.247-.809v-7.459h.972v7.436q0 .585-.187 1.002a1.36 1.36 0 0 1-.575.644q-.386.223-.984.223m.686-11.068q0-.33.164-.481a.6.6 0 0 1 .422-.158q.24 0 .41.158.176.152.176.48 0 .323-.176.48a.58.58 0 0 1-.41.16.6.6 0 0 1-.422-.16q-.165-.157-.164-.48m8.425 1.763V65h-.796l-.141-.902h-.053q-.199.333-.515.562-.317.23-.715.34a3 3 0 0 1-.838.117q-.762 0-1.277-.246a1.66 1.66 0 0 1-.78-.762q-.258-.515-.258-1.324v-4.207h.985v4.137q0 .802.363 1.201.363.393 1.107.393.716 0 1.137-.27a1.5 1.5 0 0 0 .615-.791q.188-.527.188-1.289v-3.38zm4.342 6.54q-1.219 0-1.933-.833-.71-.832-.709-2.472 0-1.659.726-2.503.727-.85 1.934-.85.51 0 .89.136.381.134.657.363.275.222.463.51h.07a10 10 0 0 1-.07-1.014v-2.572h.972V65h-.785l-.146-.914h-.041a2.3 2.3 0 0 1-.463.521 2.2 2.2 0 0 1-.662.375 2.7 2.7 0 0 1-.903.135m.153-.81q1.03 0 1.459-.585.427-.586.427-1.74v-.176q0-1.225-.41-1.881-.404-.657-1.476-.657-.897 0-1.342.692-.446.685-.446 1.875 0 1.183.44 1.828.445.645 1.348.645m5.882-5.73V65h-.972v-6.422zm-.474-2.402a.58.58 0 0 1 .41.158q.176.152.176.48 0 .323-.176.48a.58.58 0 0 1-.41.16.6.6 0 0 1-.422-.16q-.164-.157-.164-.48 0-.328.164-.48a.6.6 0 0 1 .422-.158m5.109 8.941q-.867 0-1.529-.357-.663-.358-1.031-1.09-.37-.732-.37-1.846 0-1.166.387-1.904.393-.744 1.078-1.102.686-.357 1.559-.357.48 0 .926.1.45.093.738.24l-.293.814a5 5 0 0 0-.68-.21 3 3 0 0 0-.715-.095q-.667 0-1.113.288-.439.287-.662.843-.216.556-.217 1.371 0 .78.211 1.33.217.552.639.844.428.287 1.066.287.51 0 .92-.105a5 5 0 0 0 .744-.258v.867q-.322.165-.72.252a4.4 4.4 0 0 1-.938.088m5.584-6.644q1.149 0 1.705.515.557.516.557 1.647V65h-.709l-.188-.95h-.046q-.27.352-.563.593a2.1 2.1 0 0 1-.68.357 3.2 3.2 0 0 1-.937.117q-.586 0-1.043-.205a1.62 1.62 0 0 1-.715-.621q-.258-.416-.258-1.055 0-.96.762-1.476t2.32-.563l1.108-.047v-.392q0-.833-.358-1.166-.357-.334-1.008-.334a3.1 3.1 0 0 0-.961.146 7 7 0 0 0-.867.346l-.299-.738q.435-.224.997-.381a4.4 4.4 0 0 1 1.183-.158m1.301 3.363-.979.041q-1.2.047-1.693.392-.492.346-.492.979 0 .55.334.815.333.263.885.263.855 0 1.4-.474.545-.475.545-1.424zm5.039 2.484a3 3 0 0 0 .902-.14v.755q-.17.076-.474.13a3.4 3.4 0 0 1-.586.052q-.51 0-.926-.176a1.44 1.44 0 0 1-.668-.609q-.246-.428-.246-1.184V59.34h-.914v-.475l.92-.38.387-1.395h.585v1.488h1.881v.762h-1.881v3.78q0 .603.276.902.28.298.744.298m4.676-5.86q.82 0 1.406.364.586.363.897 1.02.31.65.31 1.523v.604h-4.436q.018 1.131.563 1.722.545.592 1.535.592a4.7 4.7 0 0 0 1.078-.111q.47-.112.973-.328v.855a4.7 4.7 0 0 1-.967.317q-.474.1-1.125.1-.925 0-1.617-.376a2.6 2.6 0 0 1-1.066-1.113q-.381-.732-.381-1.793 0-1.038.345-1.793.352-.762.985-1.172.639-.41 1.5-.41m-.012.798q-.78 0-1.242.51-.463.51-.551 1.423h3.399a2.8 2.8 0 0 0-.182-1.007 1.4 1.4 0 0 0-.522-.68q-.351-.246-.902-.246m6.563 5.86q-1.219 0-1.934-.833-.71-.832-.709-2.472 0-1.659.727-2.503.726-.85 1.933-.85.51 0 .891.136.38.134.656.363.276.222.463.51h.07a11 11 0 0 1-.07-1.014v-2.572h.973V65h-.786l-.146-.914h-.041a2.22 2.22 0 0 1-1.125.896q-.381.135-.902.135m.152-.81q1.031 0 1.459-.585.428-.586.428-1.74v-.176q0-1.225-.411-1.881-.404-.657-1.476-.657-.897 0-1.342.692-.445.685-.445 1.875 0 1.183.439 1.828.445.645 1.348.645m10.6.81q-.868 0-1.53-.358t-1.031-1.09-.369-1.846q0-1.166.387-1.904a2.53 2.53 0 0 1 1.078-1.102q.685-.357 1.558-.357.481 0 .926.1.452.093.738.24l-.293.814a5 5 0 0 0-.679-.21 3 3 0 0 0-.715-.095q-.669 0-1.113.288-.44.287-.663.843-.216.556-.216 1.371 0 .78.211 1.33.216.552.638.844.428.287 1.067.287.509 0 .92-.105a5.4 5.4 0 0 0 .744-.258v.867a3 3 0 0 1-.721.252 4.3 4.3 0 0 1-.937.088m4.16-.118h-.979v-9.117h.979zm4.459-6.527q1.148 0 1.705.515.556.516.556 1.647V65h-.709l-.187-.95h-.047q-.27.352-.563.593a2.1 2.1 0 0 1-.679.357 3.2 3.2 0 0 1-.938.117q-.585 0-1.043-.205a1.62 1.62 0 0 1-.714-.621q-.258-.416-.258-1.055 0-.96.761-1.476.762-.516 2.321-.563l1.107-.047v-.392q0-.833-.357-1.166-.358-.334-1.008-.334a3.1 3.1 0 0 0-.961.146 6.5 6.5 0 0 0-.867.346l-.299-.738a5.4 5.4 0 0 1 .996-.381q.563-.159 1.184-.158m1.3 3.363-.978.041q-1.201.047-1.693.392-.493.346-.493.979 0 .55.334.815.334.263.885.263.855 0 1.4-.474.546-.475.545-1.424zm3.938-3.258V65h-.973v-6.422zm-.475-2.402a.58.58 0 0 1 .41.158q.177.152.176.48 0 .323-.176.48a.58.58 0 0 1-.41.16.6.6 0 0 1-.422-.16q-.164-.157-.164-.48 0-.328.164-.48a.6.6 0 0 1 .422-.158m9.51 2.285q1.06 0 1.6.557.539.55.539 1.775V65h-.961v-4.16q0-.78-.34-1.166-.335-.393-.996-.393-.931 0-1.354.54-.422.538-.422 1.587V65h-.966v-4.16q0-.522-.153-.867a1.03 1.03 0 0 0-.445-.516q-.292-.176-.744-.176-.639 0-1.026.264-.386.264-.562.785-.17.516-.17 1.272V65h-.973v-6.422h.786l.146.908h.053a1.9 1.9 0 0 1 .486-.562 2.1 2.1 0 0 1 .656-.346q.364-.117.774-.117.732 0 1.224.275.498.27.721.827h.053q.317-.557.867-.827.551-.275 1.207-.275m-67.207 14.012q1.149 0 1.705.515.557.516.557 1.647V79h-.709l-.188-.95h-.047a3.6 3.6 0 0 1-.562.593 2.1 2.1 0 0 1-.68.357 3.2 3.2 0 0 1-.937.117 2.5 2.5 0 0 1-1.043-.205 1.62 1.62 0 0 1-.715-.621q-.258-.416-.258-1.055 0-.96.762-1.476t2.32-.563l1.108-.047v-.392q0-.833-.358-1.166-.357-.334-1.008-.334a3.1 3.1 0 0 0-.961.146 7 7 0 0 0-.867.346l-.299-.738a5.4 5.4 0 0 1 .996-.381q.563-.158 1.184-.158m1.301 3.363-.979.041q-1.2.047-1.693.392-.492.346-.492.979 0 .551.334.814.333.264.885.264.855 0 1.4-.474.545-.475.545-1.424zM268.551 79l-2.438-6.422h1.043l1.412 3.885q.147.399.299.879.153.48.211.773h.041q.07-.293.235-.773l.298-.88 1.412-3.884h1.043L269.664 79zm6.99-6.527q1.149 0 1.705.515.557.516.557 1.647V79h-.709l-.188-.95h-.047a3.6 3.6 0 0 1-.562.593 2.1 2.1 0 0 1-.68.357 3.2 3.2 0 0 1-.937.117 2.5 2.5 0 0 1-1.043-.205 1.62 1.62 0 0 1-.715-.621q-.258-.416-.258-1.055 0-.96.762-1.476t2.32-.563l1.108-.047v-.392q0-.833-.358-1.166-.357-.334-1.008-.334a3.1 3.1 0 0 0-.961.146 7 7 0 0 0-.867.346l-.299-.738a5.4 5.4 0 0 1 .996-.381q.563-.158 1.184-.158m1.301 3.363-.979.041q-1.201.047-1.693.392t-.492.979q0 .551.334.814.333.264.884.264.857 0 1.401-.474.545-.475.545-1.424zm3.937-3.258V79h-.972v-6.422zm-.474-2.402a.58.58 0 0 1 .41.158q.176.153.176.48 0 .323-.176.48a.58.58 0 0 1-.41.16.6.6 0 0 1-.422-.16q-.165-.158-.164-.48 0-.327.164-.48a.6.6 0 0 1 .422-.158M283.82 79h-.978v-9.117h.978zm4.459-6.527q1.149 0 1.705.515.557.516.557 1.647V79h-.709l-.187-.95h-.047q-.27.352-.563.593a2.1 2.1 0 0 1-.68.357 3.2 3.2 0 0 1-.937.117q-.586 0-1.043-.205a1.62 1.62 0 0 1-.715-.621q-.258-.416-.258-1.055 0-.96.762-1.476t2.32-.563l1.108-.047v-.392q0-.833-.358-1.166-.357-.334-1.007-.334-.505 0-.961.146a7 7 0 0 0-.868.346l-.298-.738a5.4 5.4 0 0 1 .996-.381 4.4 4.4 0 0 1 1.183-.158m1.301 3.363-.978.041q-1.202.047-1.694.392t-.492.979q0 .551.334.814.334.264.885.264.855 0 1.4-.474.545-.475.545-1.424zm3.938-5.953v2.28q0 .391-.024.76-.017.37-.029.575h.053q.263-.433.761-.732.498-.3 1.272-.3 1.206 0 1.922.839.72.831.72 2.478 0 1.084-.328 1.828t-.926 1.125q-.597.381-1.412.381-.76 0-1.254-.281a2.2 2.2 0 0 1-.75-.697h-.076l-.199.861h-.703v-9.117zm1.875 3.398q-.697 0-1.108.276-.41.27-.592.82-.175.544-.175 1.383v.052q0 1.214.404 1.858.404.639 1.471.639.896 0 1.341-.657.452-.656.452-1.875 0-1.241-.446-1.869-.44-.627-1.347-.627M300.871 79h-.978v-9.117h.978zm4.529-6.54q.82 0 1.407.364.585.363.896 1.02.31.65.311 1.523v.604h-4.436q.018 1.131.563 1.722.545.592 1.535.592.609 0 1.078-.111.468-.112.973-.328v.855a4.8 4.8 0 0 1-.967.317q-.476.1-1.125.1-.926 0-1.617-.376a2.63 2.63 0 0 1-1.067-1.113q-.381-.732-.381-1.793 0-1.038.346-1.793.352-.762.984-1.172.639-.41 1.5-.41m-.011.798q-.78 0-1.243.51-.462.51-.55 1.423h3.398a2.7 2.7 0 0 0-.182-1.007 1.4 1.4 0 0 0-.521-.68q-.351-.246-.902-.246"/><rect width="125" height="66" x="370.197" y="315" fill="#fff6e4" rx="4"/><path fill="#946000" d="M387.697 339h-.996v-8.566h4.77v.878h-3.774v3.141h3.545v.873h-3.545zm10.36-6.422V339h-.797l-.141-.902h-.053q-.198.334-.515.562a2.2 2.2 0 0 1-.715.34 3 3 0 0 1-.838.117q-.762 0-1.277-.246a1.66 1.66 0 0 1-.78-.762q-.257-.515-.257-1.324v-4.207h.984v4.137q0 .802.363 1.201.363.393 1.108.393.714 0 1.136-.27.429-.27.616-.791.187-.527.187-1.289v-3.381zm3.035 6.422h-.979v-9.117h.979zm3.035 0h-.979v-9.117h.979zm1.043-6.422h1.043l1.418 3.727a23 23 0 0 1 .416 1.207q.082.275.129.533h.041q.082-.293.234-.768.153-.48.328-.978l1.342-3.721h1.049l-2.795 7.365a5 5 0 0 1-.521 1.032 2.06 2.06 0 0 1-.715.673q-.422.241-1.02.241-.275 0-.486-.035a3 3 0 0 1-.363-.071v-.779q.128.029.31.053.188.023.387.023.363 0 .627-.141.269-.134.463-.398.193-.264.334-.627l.351-.902zm12.545-.105q1.148 0 1.705.515.557.516.557 1.647V339h-.709l-.188-.949h-.047a3.6 3.6 0 0 1-.562.592 2.1 2.1 0 0 1-.68.357 3.2 3.2 0 0 1-.937.117q-.587 0-1.043-.205a1.62 1.62 0 0 1-.715-.621q-.258-.416-.258-1.055 0-.96.762-1.476.761-.515 2.32-.563l1.107-.047v-.392q0-.833-.357-1.166-.357-.334-1.008-.334a3.2 3.2 0 0 0-.961.146 6.6 6.6 0 0 0-.867.346l-.299-.738a5.3 5.3 0 0 1 .996-.381q.563-.159 1.184-.158m1.301 3.363-.979.041q-1.201.046-1.693.393-.492.345-.492.978 0 .551.334.814.333.264.884.264.856 0 1.401-.474.545-.475.545-1.424zm5.25 3.281q-1.219 0-1.934-.832-.71-.832-.709-2.473 0-1.658.727-2.501.726-.85 1.933-.85.51 0 .891.135.38.135.656.363.276.222.463.51h.07a11 11 0 0 1-.07-1.014v-2.572h.973V339h-.786l-.146-.914h-.041a2.22 2.22 0 0 1-1.125.896q-.381.135-.902.135m.152-.808q1.031 0 1.459-.586t.428-1.741v-.175q0-1.226-.41-1.881-.405-.656-1.477-.656-.897 0-1.342.691-.445.685-.445 1.875 0 1.183.439 1.828.445.645 1.348.645m4.137 3.574q-.3 0-.522-.047a2.5 2.5 0 0 1-.387-.1v-.791q.183.059.37.088.187.036.422.035.398 0 .644-.222.246-.223.246-.809v-7.459h.973v7.436q0 .585-.188 1.002a1.36 1.36 0 0 1-.574.644q-.387.223-.984.223m.685-11.069q0-.327.164-.48a.6.6 0 0 1 .422-.158q.24 0 .41.158.176.153.176.48 0 .322-.176.481a.58.58 0 0 1-.41.158.6.6 0 0 1-.422-.158q-.164-.159-.164-.481m8.426 1.764V339h-.797l-.14-.902h-.053q-.2.334-.516.562a2.2 2.2 0 0 1-.715.34 3 3 0 0 1-.838.117q-.76 0-1.277-.246a1.65 1.65 0 0 1-.779-.762q-.258-.515-.258-1.324v-4.207h.984v4.137q0 .802.364 1.201.363.393 1.107.393.715 0 1.137-.27a1.5 1.5 0 0 0 .615-.791q.188-.527.188-1.289v-3.381zm4.342 6.539q-1.219 0-1.934-.832-.709-.832-.709-2.473 0-1.658.727-2.501.726-.85 1.933-.85.51 0 .891.135t.656.363q.276.222.463.51h.07a10 10 0 0 1-.046-.498 7 7 0 0 1-.024-.516v-2.572h.973V339h-.785l-.147-.914h-.041a2.22 2.22 0 0 1-1.125.896q-.381.135-.902.135m.152-.808q1.032 0 1.459-.586t.428-1.741v-.175q0-1.226-.41-1.881-.405-.656-1.477-.656-.897 0-1.342.691-.445.685-.445 1.875 0 1.183.439 1.828.446.645 1.348.645m5.883-5.731V339h-.973v-6.422zm-.475-2.402q.24 0 .411.158.175.153.175.48 0 .322-.175.481a.58.58 0 0 1-.411.158.6.6 0 0 1-.422-.158q-.164-.159-.164-.481 0-.327.164-.48a.6.6 0 0 1 .422-.158m5.11 8.941q-.867 0-1.53-.357a2.46 2.46 0 0 1-1.031-1.09q-.369-.733-.369-1.846 0-1.166.387-1.904a2.54 2.54 0 0 1 1.078-1.102q.685-.357 1.558-.357.481 0 .926.1.451.093.739.24l-.293.814a5 5 0 0 0-.68-.211 3 3 0 0 0-.715-.093q-.667 0-1.113.287-.44.286-.662.843-.217.557-.217 1.371 0 .78.211 1.331.216.55.638.843.428.288 1.067.287.51 0 .92-.105.41-.111.744-.258v.867a3 3 0 0 1-.721.252 4.3 4.3 0 0 1-.937.088m5.584-6.644q1.148 0 1.705.515.556.516.556 1.647V339h-.709l-.187-.949h-.047q-.27.35-.562.592a2.1 2.1 0 0 1-.68.357 3.2 3.2 0 0 1-.938.117q-.585 0-1.043-.205a1.63 1.63 0 0 1-.714-.621q-.258-.416-.258-1.055 0-.96.761-1.476.762-.515 2.321-.563l1.107-.047v-.392q0-.833-.357-1.166-.357-.334-1.008-.334a3.2 3.2 0 0 0-.961.146 6.6 6.6 0 0 0-.867.346l-.299-.738a5.3 5.3 0 0 1 .996-.381q.563-.159 1.184-.158m1.3 3.363-.978.041q-1.201.046-1.693.393-.493.345-.493.978 0 .551.334.814.335.264.885.264.856 0 1.401-.474.544-.475.544-1.424zm5.04 2.484a3 3 0 0 0 .902-.14v.756q-.17.075-.475.128a3.3 3.3 0 0 1-.586.053 2.3 2.3 0 0 1-.925-.176 1.43 1.43 0 0 1-.668-.609q-.246-.428-.246-1.184v-3.808h-.915v-.475l.92-.381.387-1.394h.586v1.488h1.881v.762h-1.881v3.779q0 .603.275.902.282.3.745.299m4.675-5.859q.82 0 1.407.363.585.363.896 1.02.31.65.311 1.523v.604h-4.436q.017 1.131.563 1.722.545.592 1.535.592.609 0 1.078-.111.468-.112.973-.328v.855q-.487.217-.967.317a5.6 5.6 0 0 1-1.125.099q-.926 0-1.617-.375a2.63 2.63 0 0 1-1.067-1.113q-.381-.732-.381-1.793 0-1.037.346-1.793.351-.762.984-1.172.639-.41 1.5-.41m-.011.797q-.78 0-1.243.51-.462.509-.55 1.423h3.398a2.7 2.7 0 0 0-.182-1.007 1.4 1.4 0 0 0-.521-.68q-.351-.246-.902-.246m6.562 5.859q-1.219 0-1.933-.832-.71-.832-.709-2.473 0-1.658.726-2.501.726-.85 1.934-.85.51 0 .89.135.381.135.657.363.274.222.462.51h.071a10 10 0 0 1-.047-.498 7 7 0 0 1-.024-.516v-2.572h.973V339h-.785l-.147-.914h-.041a2.2 2.2 0 0 1-.462.521 2.1 2.1 0 0 1-.663.375q-.38.135-.902.135m.152-.808q1.032 0 1.459-.586.429-.586.428-1.741v-.175q0-1.226-.41-1.881-.404-.656-1.477-.656-.895 0-1.341.691-.446.685-.446 1.875 0 1.183.44 1.828.445.645 1.347.645m-90.052 14.808q-.867 0-1.53-.357a2.46 2.46 0 0 1-1.031-1.09q-.369-.733-.369-1.846 0-1.166.387-1.904a2.54 2.54 0 0 1 1.078-1.102q.685-.357 1.558-.357.481 0 .926.1.451.093.739.24l-.293.814a5 5 0 0 0-.68-.211 3 3 0 0 0-.715-.093q-.667 0-1.113.287-.44.286-.662.843-.217.557-.217 1.371 0 .78.211 1.331.216.55.638.843.428.288 1.067.287.51 0 .92-.105.41-.111.744-.258v.867a3 3 0 0 1-.721.252 4.3 4.3 0 0 1-.937.088m4.16-.117h-.979v-9.117h.979zm4.459-6.527q1.148 0 1.705.515.557.516.557 1.647V353h-.709l-.188-.949h-.047a3.6 3.6 0 0 1-.562.592 2.1 2.1 0 0 1-.68.357 3.2 3.2 0 0 1-.937.117q-.587 0-1.043-.205a1.63 1.63 0 0 1-.715-.621q-.258-.416-.258-1.055 0-.96.762-1.476.761-.515 2.32-.563l1.107-.047v-.392q0-.833-.357-1.166-.357-.334-1.008-.334a3.2 3.2 0 0 0-.961.146 7 7 0 0 0-.867.346l-.299-.738a5.3 5.3 0 0 1 .996-.381q.563-.159 1.184-.158m1.301 3.363-.979.041q-1.201.047-1.693.393-.492.345-.492.978 0 .551.334.814.333.264.884.264.856 0 1.401-.474.545-.475.545-1.424zm3.937-3.258V353h-.973v-6.422zm-.474-2.402q.24 0 .41.158.175.153.175.48 0 .322-.175.481a.58.58 0 0 1-.41.158.6.6 0 0 1-.422-.158q-.164-.159-.164-.481 0-.327.164-.48a.6.6 0 0 1 .422-.158m9.509 2.285q1.061 0 1.6.557.539.55.539 1.775V353h-.961v-4.16q0-.78-.34-1.166-.333-.393-.996-.393-.931 0-1.353.539-.422.54-.422 1.588V353h-.967v-4.16q0-.522-.152-.867a1.04 1.04 0 0 0-.446-.516q-.292-.176-.744-.176-.639 0-1.025.264-.387.263-.563.785-.17.516-.17 1.272V353h-.972v-6.422h.785l.146.908h.053a1.9 1.9 0 0 1 .486-.562q.293-.23.657-.346.363-.117.773-.117.733 0 1.225.275.498.27.72.826h.053q.317-.556.867-.826a2.7 2.7 0 0 1 1.207-.275m9.657.012q1.148 0 1.705.515.556.516.556 1.647V353h-.709l-.187-.949h-.047a3.6 3.6 0 0 1-.563.592 2.1 2.1 0 0 1-.679.357 3.2 3.2 0 0 1-.938.117q-.585 0-1.043-.205a1.63 1.63 0 0 1-.715-.621q-.257-.416-.257-1.055 0-.96.761-1.476.762-.515 2.321-.563l1.107-.047v-.392q0-.833-.357-1.166-.358-.334-1.008-.334a3.2 3.2 0 0 0-.961.146 6.6 6.6 0 0 0-.867.346l-.299-.738a5.3 5.3 0 0 1 .996-.381 4.3 4.3 0 0 1 1.184-.158m1.3 3.363-.978.041q-1.201.047-1.694.393-.492.345-.492.978 0 .551.334.814.334.264.885.264.855 0 1.4-.474.546-.475.545-1.424zm4.377 3.164-2.437-6.422h1.043l1.412 3.885q.147.398.299.879.152.48.211.773h.041q.07-.293.234-.773.164-.486.299-.879l1.412-3.885h1.043L425.268 353zm6.991-6.527q1.148 0 1.705.515.556.516.556 1.647V353h-.709l-.187-.949h-.047a3.6 3.6 0 0 1-.563.592 2.1 2.1 0 0 1-.679.357 3.2 3.2 0 0 1-.938.117q-.585 0-1.043-.205a1.63 1.63 0 0 1-.715-.621q-.257-.416-.257-1.055 0-.96.761-1.476.762-.515 2.321-.563l1.107-.047v-.392q0-.833-.357-1.166-.359-.334-1.008-.334a3.2 3.2 0 0 0-.961.146 6.6 6.6 0 0 0-.867.346l-.299-.738a5.3 5.3 0 0 1 .996-.381 4.3 4.3 0 0 1 1.184-.158m1.3 3.363-.978.041q-1.201.047-1.694.393-.492.345-.492.978 0 .551.334.814.334.264.885.264.855 0 1.4-.474.546-.475.545-1.424zm3.938-3.258V353h-.973v-6.422zm-.475-2.402q.24 0 .41.158.177.153.176.48 0 .322-.176.481a.58.58 0 0 1-.41.158.6.6 0 0 1-.422-.158q-.164-.159-.164-.481 0-.327.164-.48a.6.6 0 0 1 .422-.158m3.516 8.824h-.979v-9.117h.979zm4.459-6.527q1.148 0 1.705.515.557.516.557 1.647V353h-.709l-.188-.949h-.047q-.27.35-.562.592a2.1 2.1 0 0 1-.68.357 3.2 3.2 0 0 1-.938.117q-.585 0-1.042-.205a1.62 1.62 0 0 1-.715-.621q-.258-.416-.258-1.055 0-.96.762-1.476.761-.515 2.32-.563l1.107-.047v-.392q0-.833-.357-1.166-.357-.334-1.008-.334a3.2 3.2 0 0 0-.961.146 6.6 6.6 0 0 0-.867.346l-.299-.738a5.3 5.3 0 0 1 .996-.381q.563-.159 1.184-.158m1.301 3.363-.979.041q-1.201.047-1.693.393-.492.345-.492.978 0 .551.334.814.333.264.884.264.856 0 1.401-.474.545-.475.545-1.424zm3.937-5.953v2.279q0 .393-.023.762l-.03.574h.053q.264-.434.762-.732.498-.3 1.271-.299 1.208 0 1.922.838.721.832.721 2.478 0 1.084-.328 1.828-.329.744-.926 1.125t-1.412.381q-.762 0-1.254-.281a2.2 2.2 0 0 1-.75-.697h-.076l-.199.861h-.704v-9.117zm1.875 3.398q-.697 0-1.107.276-.41.269-.592.82-.176.545-.176 1.383v.052q0 1.213.404 1.858.405.639 1.471.639.897 0 1.342-.657.451-.656.451-1.875 0-1.242-.445-1.869-.44-.627-1.348-.627m5.479 5.719h-.979v-9.117h.979zm4.529-6.539q.82 0 1.406.363.587.363.897 1.02.31.65.31 1.523v.604h-4.435q.017 1.131.562 1.722.545.592 1.535.592.61 0 1.078-.111.47-.112.973-.328v.855q-.486.217-.967.317a5.6 5.6 0 0 1-1.125.099q-.925 0-1.617-.375a2.62 2.62 0 0 1-1.066-1.113q-.381-.732-.381-1.793 0-1.037.346-1.793.351-.762.984-1.172.639-.41 1.5-.41m-.012.797q-.778 0-1.242.51-.463.509-.551 1.423h3.399a2.8 2.8 0 0 0-.182-1.007 1.4 1.4 0 0 0-.521-.68q-.352-.246-.903-.246m8.807 5.742-2.438-6.422h1.043l1.412 3.885q.147.398.299.879.153.48.211.773h.041q.07-.293.235-.773l.298-.879 1.412-3.885h1.043L470.912 353zm5.56-6.422V353h-.972v-6.422zm-.474-2.402q.24 0 .41.158.176.153.176.48 0 .322-.176.481a.58.58 0 0 1-.41.158.6.6 0 0 1-.422-.158q-.164-.159-.164-.481 0-.327.164-.48a.6.6 0 0 1 .422-.158m4.939 2.297q1.149 0 1.705.515.557.516.557 1.647V353h-.709l-.188-.949h-.046q-.27.35-.563.592a2.1 2.1 0 0 1-.68.357 3.2 3.2 0 0 1-.937.117q-.586 0-1.043-.205a1.63 1.63 0 0 1-.715-.621q-.258-.416-.258-1.055 0-.96.762-1.476.762-.515 2.32-.563l1.108-.047v-.392q0-.833-.358-1.166-.357-.334-1.008-.334-.503 0-.96.146a7 7 0 0 0-.868.346l-.298-.738a5.3 5.3 0 0 1 .996-.381 4.3 4.3 0 0 1 1.183-.158m1.301 3.363-.979.041q-1.2.047-1.693.393-.492.345-.492.978 0 .551.334.814.334.264.885.264.855 0 1.4-.474.545-.475.545-1.424zm-90.961 9.353q-.709 0-1.277.247-.563.24-.961.703a3.2 3.2 0 0 0-.604 1.107q-.21.65-.211 1.465 0 1.078.334 1.875a2.7 2.7 0 0 0 1.008 1.225q.674.433 1.682.433.574 0 1.078-.094.51-.099.99-.246v.867a5 5 0 0 1-.984.258 7.4 7.4 0 0 1-1.225.088q-1.306 0-2.185-.539a3.37 3.37 0 0 1-1.313-1.535q-.434-.99-.434-2.338 0-.972.27-1.775a4 4 0 0 1 .797-1.395 3.5 3.5 0 0 1 1.289-.902q.768-.322 1.758-.322.65 0 1.254.128.603.129 1.09.37l-.399.843a6 6 0 0 0-.902-.322 3.8 3.8 0 0 0-1.055-.141m7.559 0a3.2 3.2 0 0 0-1.278.247q-.562.24-.961.703a3.2 3.2 0 0 0-.603 1.107 4.7 4.7 0 0 0-.211 1.465q0 1.078.334 1.875.339.79 1.008 1.225.673.433 1.681.433.575 0 1.078-.094.51-.099.991-.246v.867a5 5 0 0 1-.985.258 7.3 7.3 0 0 1-1.224.088q-1.307 0-2.186-.539a3.37 3.37 0 0 1-1.312-1.535q-.434-.99-.434-2.338 0-.972.27-1.775a4 4 0 0 1 .797-1.395 3.5 3.5 0 0 1 1.289-.902q.767-.322 1.757-.322.651 0 1.254.128.604.129 1.09.37l-.398.843a6 6 0 0 0-.903-.322 3.8 3.8 0 0 0-1.054-.141m3.896 7.811v-8.566h.996v7.675h3.803V367zm7.266 0h-.996v-8.566h4.769v.878h-3.773v3.141h3.545v.873h-3.545zm13.154-2.279q0 .762-.381 1.3-.375.534-1.054.815-.68.28-1.6.281-.486 0-.92-.047a6 6 0 0 1-.797-.134 3.4 3.4 0 0 1-.639-.217v-.955a8 8 0 0 0 1.073.34q.633.152 1.324.152.645 0 1.09-.17.445-.175.674-.498.234-.329.234-.785 0-.44-.193-.733-.194-.299-.645-.539a8.4 8.4 0 0 0-1.219-.521 6.6 6.6 0 0 1-.961-.422 3 3 0 0 1-.697-.527 2 2 0 0 1-.428-.68 2.6 2.6 0 0 1-.14-.885q0-.686.345-1.172.352-.492.967-.75.621-.264 1.424-.263.686 0 1.266.128.585.13 1.072.346l-.311.856a7 7 0 0 0-.984-.323 4.4 4.4 0 0 0-1.066-.129q-.551 0-.932.165a1.26 1.26 0 0 0-.574.451 1.2 1.2 0 0 0-.199.697q0 .452.187.75.194.299.609.533.423.23 1.114.481.755.275 1.283.586.527.305.803.75.275.44.275 1.119m4.078-4.26q.82 0 1.406.363.587.363.897 1.02.31.65.31 1.523v.604h-4.435q.018 1.131.562 1.722.545.592 1.536.592.609 0 1.078-.111.468-.112.972-.328v.855a4.7 4.7 0 0 1-.966.317 5.6 5.6 0 0 1-1.125.099q-.927 0-1.618-.375a2.62 2.62 0 0 1-1.066-1.113q-.381-.732-.381-1.793 0-1.037.346-1.793.351-.762.984-1.172.639-.41 1.5-.41m-.012.797q-.779 0-1.242.51-.462.509-.551 1.423h3.399a2.8 2.8 0 0 0-.182-1.007 1.4 1.4 0 0 0-.521-.68q-.352-.246-.903-.246m5.256 5.742h-.978v-9.117h.978zm4.916-5.66h-1.599V367h-.973v-5.66h-1.137v-.469l1.137-.322v-.428q0-.808.24-1.312.24-.51.698-.75.456-.241 1.113-.241.37 0 .674.065.31.065.545.146l-.252.768a4 4 0 0 0-.452-.117 2.2 2.2 0 0 0-.503-.059q-.558 0-.827.363-.263.358-.263 1.125v.469h1.599zm.639 2.871v-.867h2.906v.867zm9.393.51q0 .762-.381 1.3-.375.534-1.055.815t-1.6.281q-.486 0-.919-.047a6 6 0 0 1-.797-.134 3.4 3.4 0 0 1-.639-.217v-.955q.44.181 1.072.34.633.152 1.324.152.645 0 1.09-.17.446-.175.674-.498.234-.329.234-.785 0-.44-.193-.733-.194-.299-.644-.539a8.5 8.5 0 0 0-1.219-.521 6.6 6.6 0 0 1-.961-.422 3 3 0 0 1-.697-.527 2 2 0 0 1-.428-.68 2.6 2.6 0 0 1-.141-.885q0-.686.346-1.172.351-.492.967-.75.62-.264 1.424-.263.686 0 1.265.128.586.13 1.073.346l-.311.856a7 7 0 0 0-.984-.323 4.4 4.4 0 0 0-1.067-.129q-.551 0-.931.165-.375.157-.575.451a1.2 1.2 0 0 0-.199.697q0 .452.188.75.193.299.609.533.421.23 1.113.481.756.275 1.283.586.528.305.803.75.276.44.276 1.119m4.078-4.26q.82 0 1.406.363t.896 1.02q.31.65.311 1.523v.604h-4.436q.018 1.131.563 1.722.545.592 1.535.592.61 0 1.078-.111.47-.112.973-.328v.855q-.487.217-.967.317a5.6 5.6 0 0 1-1.125.099q-.925 0-1.617-.375a2.6 2.6 0 0 1-1.066-1.113q-.381-.732-.381-1.793 0-1.037.345-1.793.352-.762.985-1.172.638-.41 1.5-.41m-.012.797q-.78 0-1.242.51-.463.509-.551 1.423h3.398a2.7 2.7 0 0 0-.181-1.007 1.4 1.4 0 0 0-.522-.68q-.351-.246-.902-.246m7.195-.797q.194 0 .405.023.21.018.375.053l-.123.902a2.948 2.948 0 0 0-.715-.087q-.387 0-.733.158-.339.152-.597.445a2.1 2.1 0 0 0-.405.697q-.146.405-.146.903V367h-.979v-6.422h.809l.105 1.184h.041q.2-.358.481-.651.28-.298.65-.474.375-.176.832-.176m3.405 6.539-2.438-6.422h1.043l1.412 3.885q.147.398.299.879.153.48.211.773h.041q.07-.293.234-.773l.299-.879 1.412-3.885h1.043L462.088 367zm5.56-6.422V367h-.973v-6.422zm-.474-2.402q.24 0 .41.158.175.153.175.48 0 .322-.175.481a.58.58 0 0 1-.41.158.6.6 0 0 1-.422-.158q-.164-.159-.164-.481 0-.327.164-.48a.6.6 0 0 1 .422-.158m5.109 8.941q-.867 0-1.529-.357a2.45 2.45 0 0 1-1.032-1.09q-.369-.733-.369-1.846 0-1.166.387-1.904.393-.744 1.078-1.102.686-.357 1.559-.357.48 0 .925.1.451.093.739.24l-.293.814a5 5 0 0 0-.68-.211 3 3 0 0 0-.715-.093q-.667 0-1.113.287-.44.286-.662.843-.217.557-.217 1.371 0 .78.211 1.331.217.55.639.843.427.288 1.066.287.51 0 .92-.105.41-.111.744-.258v.867a3 3 0 0 1-.721.252 4.3 4.3 0 0 1-.937.088m5.654-6.656q.82 0 1.406.363.587.363.897 1.02.31.65.311 1.523v.604h-4.436q.018 1.131.562 1.722.545.592 1.536.592.609 0 1.078-.111.468-.112.972-.328v.855a4.7 4.7 0 0 1-.966.317 5.6 5.6 0 0 1-1.125.099q-.927 0-1.618-.375a2.62 2.62 0 0 1-1.066-1.113q-.381-.732-.381-1.793 0-1.037.346-1.793.351-.762.984-1.172.639-.41 1.5-.41m-.012.797q-.779 0-1.242.51-.462.509-.55 1.423h3.398a2.7 2.7 0 0 0-.182-1.007 1.4 1.4 0 0 0-.521-.68q-.352-.246-.903-.246"/><rect width="125" height="66" x="370.197" y="455" fill="#fff6e4" rx="4"/><path fill="#946000" d="M387.697 479h-.996v-8.566h4.77v.878h-3.774v3.141h3.545v.873h-3.545zm10.36-6.422V479h-.797l-.141-.902h-.053q-.198.334-.515.562a2.2 2.2 0 0 1-.715.34 3 3 0 0 1-.838.117q-.762 0-1.277-.246a1.66 1.66 0 0 1-.78-.762q-.257-.515-.257-1.324v-4.207h.984v4.137q0 .802.363 1.201.363.393 1.108.393.714 0 1.136-.27.429-.27.616-.791.187-.528.187-1.289v-3.381zm3.035 6.422h-.979v-9.117h.979zm3.035 0h-.979v-9.117h.979zm1.043-6.422h1.043l1.418 3.727a23 23 0 0 1 .416 1.207q.082.275.129.533h.041q.082-.293.234-.768.153-.48.328-.978l1.342-3.721h1.049l-2.795 7.365a5 5 0 0 1-.521 1.032 2.06 2.06 0 0 1-.715.673q-.422.241-1.02.241-.275 0-.486-.035a3 3 0 0 1-.363-.071v-.779q.128.029.31.053.188.023.387.023.363 0 .627-.141.269-.134.463-.398.193-.264.334-.627l.351-.902zm12.545-.105q1.148 0 1.705.515.557.516.557 1.647V479h-.709l-.188-.949h-.047a3.6 3.6 0 0 1-.562.592 2.1 2.1 0 0 1-.68.357 3.2 3.2 0 0 1-.937.117q-.587 0-1.043-.205a1.62 1.62 0 0 1-.715-.621q-.258-.416-.258-1.055 0-.96.762-1.476.761-.515 2.32-.563l1.107-.047v-.392q0-.833-.357-1.166-.357-.334-1.008-.334a3.2 3.2 0 0 0-.961.146 6.6 6.6 0 0 0-.867.346l-.299-.738a5.3 5.3 0 0 1 .996-.381q.563-.159 1.184-.158m1.301 3.363-.979.041q-1.201.047-1.693.393-.492.345-.492.978 0 .551.334.814.333.264.884.264.856 0 1.401-.474.545-.475.545-1.424zm5.25 3.281q-1.219 0-1.934-.832-.71-.832-.709-2.473 0-1.658.727-2.501.726-.85 1.933-.85.51 0 .891.135.38.135.656.363.276.222.463.51h.07a11 11 0 0 1-.07-1.014v-2.572h.973V479h-.786l-.146-.914h-.041a2.22 2.22 0 0 1-1.125.896q-.381.135-.902.135m.152-.808q1.031 0 1.459-.586t.428-1.741v-.175q0-1.226-.41-1.881-.405-.656-1.477-.656-.897 0-1.342.691-.445.685-.445 1.875 0 1.183.439 1.828.445.645 1.348.645m4.137 3.574q-.3 0-.522-.047a2.5 2.5 0 0 1-.387-.1v-.791q.183.059.37.088.187.036.422.035.398 0 .644-.222.246-.223.246-.809v-7.459h.973v7.436q0 .585-.188 1.002a1.36 1.36 0 0 1-.574.644q-.387.223-.984.223m.685-11.069q0-.327.164-.48a.6.6 0 0 1 .422-.158q.24 0 .41.158.176.153.176.48 0 .322-.176.481a.58.58 0 0 1-.41.158.6.6 0 0 1-.422-.158q-.164-.159-.164-.481m8.426 1.764V479h-.797l-.14-.902h-.053q-.2.334-.516.562a2.2 2.2 0 0 1-.715.34 3 3 0 0 1-.838.117q-.76 0-1.277-.246a1.65 1.65 0 0 1-.779-.762q-.258-.515-.258-1.324v-4.207h.984v4.137q0 .802.364 1.201.363.393 1.107.393.715 0 1.137-.27a1.5 1.5 0 0 0 .615-.791q.188-.528.188-1.289v-3.381zm4.342 6.539q-1.219 0-1.934-.832-.709-.832-.709-2.473 0-1.658.727-2.501.726-.85 1.933-.85.51 0 .891.135t.656.363q.276.222.463.51h.07a10 10 0 0 1-.046-.498 7 7 0 0 1-.024-.516v-2.572h.973V479h-.785l-.147-.914h-.041a2.22 2.22 0 0 1-1.125.896q-.381.135-.902.135m.152-.808q1.032 0 1.459-.586t.428-1.741v-.175q0-1.226-.41-1.881-.405-.656-1.477-.656-.897 0-1.342.691-.445.685-.445 1.875 0 1.183.439 1.828.446.645 1.348.645m5.883-5.731V479h-.973v-6.422zm-.475-2.402q.24 0 .411.158.175.153.175.48 0 .322-.175.481a.58.58 0 0 1-.411.158.6.6 0 0 1-.422-.158q-.164-.159-.164-.481 0-.327.164-.48a.6.6 0 0 1 .422-.158m5.11 8.941q-.867 0-1.53-.357a2.46 2.46 0 0 1-1.031-1.09q-.369-.733-.369-1.846 0-1.166.387-1.904a2.54 2.54 0 0 1 1.078-1.102q.685-.357 1.558-.357.481 0 .926.1.451.093.739.24l-.293.814a5 5 0 0 0-.68-.211 3 3 0 0 0-.715-.093q-.667 0-1.113.287-.44.286-.662.843-.217.557-.217 1.371 0 .78.211 1.331.216.55.638.843.428.288 1.067.287.51 0 .92-.105.41-.111.744-.258v.867a3 3 0 0 1-.721.252 4.3 4.3 0 0 1-.937.088m5.584-6.644q1.148 0 1.705.515.556.516.556 1.647V479h-.709l-.187-.949h-.047q-.27.35-.562.592a2.1 2.1 0 0 1-.68.357 3.2 3.2 0 0 1-.938.117q-.585 0-1.043-.205a1.63 1.63 0 0 1-.714-.621q-.258-.416-.258-1.055 0-.96.761-1.476.762-.515 2.321-.563l1.107-.047v-.392q0-.833-.357-1.166-.357-.334-1.008-.334a3.2 3.2 0 0 0-.961.146 6.6 6.6 0 0 0-.867.346l-.299-.738a5.3 5.3 0 0 1 .996-.381q.563-.159 1.184-.158m1.3 3.363-.978.041q-1.201.047-1.693.393-.493.345-.493.978 0 .551.334.814.335.264.885.264.856 0 1.401-.474.544-.475.544-1.424zm5.04 2.484a3 3 0 0 0 .902-.14v.756q-.17.075-.475.128a3.3 3.3 0 0 1-.586.053 2.3 2.3 0 0 1-.925-.176 1.43 1.43 0 0 1-.668-.609q-.246-.428-.246-1.184v-3.808h-.915v-.475l.92-.381.387-1.394h.586v1.488h1.881v.762h-1.881v3.779q0 .603.275.902.282.3.745.299m4.675-5.859q.82 0 1.407.363.585.363.896 1.02.31.65.311 1.523v.604h-4.436q.017 1.131.563 1.722.545.592 1.535.592.609 0 1.078-.111.468-.112.973-.328v.855q-.487.217-.967.317a5.6 5.6 0 0 1-1.125.099q-.926 0-1.617-.375a2.63 2.63 0 0 1-1.067-1.113q-.381-.732-.381-1.793 0-1.037.346-1.793.351-.762.984-1.172.639-.41 1.5-.41m-.011.797q-.78 0-1.243.51-.462.509-.55 1.423h3.398a2.7 2.7 0 0 0-.182-1.007 1.4 1.4 0 0 0-.521-.68q-.351-.246-.902-.246m6.562 5.859q-1.219 0-1.933-.832-.71-.832-.709-2.473 0-1.658.726-2.501.726-.85 1.934-.85.51 0 .89.135.381.135.657.363.274.222.462.51h.071a10 10 0 0 1-.047-.498 7 7 0 0 1-.024-.516v-2.572h.973V479h-.785l-.147-.914h-.041a2.2 2.2 0 0 1-.462.521 2.1 2.1 0 0 1-.663.375q-.38.135-.902.135m.152-.808q1.032 0 1.459-.586.429-.586.428-1.741v-.175q0-1.226-.41-1.881-.404-.656-1.477-.656-.895 0-1.341.691-.446.685-.446 1.875 0 1.183.44 1.828.445.645 1.347.645m-90.052 14.808q-.867 0-1.53-.357a2.46 2.46 0 0 1-1.031-1.09q-.369-.733-.369-1.846 0-1.166.387-1.904a2.54 2.54 0 0 1 1.078-1.102q.685-.357 1.558-.357.481 0 .926.1.451.093.739.24l-.293.814a5 5 0 0 0-.68-.211 3 3 0 0 0-.715-.093q-.667 0-1.113.287-.44.286-.662.843-.217.557-.217 1.371 0 .78.211 1.331.216.55.638.843.428.288 1.067.287.51 0 .92-.105.41-.111.744-.258v.867a3 3 0 0 1-.721.252 4.3 4.3 0 0 1-.937.088m4.16-.117h-.979v-9.117h.979zm4.459-6.527q1.148 0 1.705.515.557.516.557 1.647V493h-.709l-.188-.949h-.047a3.6 3.6 0 0 1-.562.592 2.1 2.1 0 0 1-.68.357 3.2 3.2 0 0 1-.937.117q-.587 0-1.043-.205a1.63 1.63 0 0 1-.715-.621q-.258-.416-.258-1.055 0-.96.762-1.476.761-.515 2.32-.563l1.107-.047v-.392q0-.833-.357-1.166-.357-.334-1.008-.334a3.2 3.2 0 0 0-.961.146 7 7 0 0 0-.867.346l-.299-.738a5.3 5.3 0 0 1 .996-.381q.563-.159 1.184-.158m1.301 3.363-.979.041q-1.201.047-1.693.393-.492.345-.492.978 0 .551.334.814.333.264.884.264.856 0 1.401-.474.545-.475.545-1.424zm3.937-3.258V493h-.973v-6.422zm-.474-2.402q.24 0 .41.158.175.153.175.48 0 .322-.175.481a.58.58 0 0 1-.41.158.6.6 0 0 1-.422-.158q-.164-.159-.164-.481 0-.327.164-.48a.6.6 0 0 1 .422-.158m9.509 2.285q1.061 0 1.6.557.539.55.539 1.775V493h-.961v-4.16q0-.78-.34-1.166-.333-.393-.996-.393-.931 0-1.353.539-.422.54-.422 1.588V493h-.967v-4.16q0-.522-.152-.867a1.04 1.04 0 0 0-.446-.516q-.292-.176-.744-.176-.639 0-1.025.264-.387.263-.563.785-.17.516-.17 1.272V493h-.972v-6.422h.785l.146.908h.053a1.9 1.9 0 0 1 .486-.562q.293-.23.657-.346.363-.117.773-.117.733 0 1.225.275.498.27.72.826h.053q.317-.556.867-.826a2.7 2.7 0 0 1 1.207-.275m9.657.012q1.148 0 1.705.515.556.516.556 1.647V493h-.709l-.187-.949h-.047a3.6 3.6 0 0 1-.563.592 2.1 2.1 0 0 1-.679.357 3.2 3.2 0 0 1-.938.117q-.585 0-1.043-.205a1.63 1.63 0 0 1-.715-.621q-.257-.416-.257-1.055 0-.96.761-1.476.762-.515 2.321-.563l1.107-.047v-.392q0-.833-.357-1.166-.358-.334-1.008-.334a3.2 3.2 0 0 0-.961.146 6.6 6.6 0 0 0-.867.346l-.299-.738a5.3 5.3 0 0 1 .996-.381 4.3 4.3 0 0 1 1.184-.158m1.3 3.363-.978.041q-1.201.047-1.694.393-.492.345-.492.978 0 .551.334.814.334.264.885.264.855 0 1.4-.474.546-.475.545-1.424zm4.377 3.164-2.437-6.422h1.043l1.412 3.885q.147.398.299.879.152.48.211.773h.041q.07-.293.234-.773.164-.486.299-.879l1.412-3.885h1.043L425.268 493zm6.991-6.527q1.148 0 1.705.515.556.516.556 1.647V493h-.709l-.187-.949h-.047a3.6 3.6 0 0 1-.563.592 2.1 2.1 0 0 1-.679.357 3.2 3.2 0 0 1-.938.117q-.585 0-1.043-.205a1.63 1.63 0 0 1-.715-.621q-.257-.416-.257-1.055 0-.96.761-1.476.762-.515 2.321-.563l1.107-.047v-.392q0-.833-.357-1.166-.359-.334-1.008-.334a3.2 3.2 0 0 0-.961.146 6.6 6.6 0 0 0-.867.346l-.299-.738a5.3 5.3 0 0 1 .996-.381 4.3 4.3 0 0 1 1.184-.158m1.3 3.363-.978.041q-1.201.047-1.694.393-.492.345-.492.978 0 .551.334.814.334.264.885.264.855 0 1.4-.474.546-.475.545-1.424zm3.938-3.258V493h-.973v-6.422zm-.475-2.402q.24 0 .41.158.177.153.176.48 0 .322-.176.481a.58.58 0 0 1-.41.158.6.6 0 0 1-.422-.158q-.164-.159-.164-.481 0-.327.164-.48a.6.6 0 0 1 .422-.158m3.516 8.824h-.979v-9.117h.979zm4.459-6.527q1.148 0 1.705.515.557.516.557 1.647V493h-.709l-.188-.949h-.047q-.27.35-.562.592a2.1 2.1 0 0 1-.68.357 3.2 3.2 0 0 1-.938.117q-.585 0-1.042-.205a1.62 1.62 0 0 1-.715-.621q-.258-.416-.258-1.055 0-.96.762-1.476.761-.515 2.32-.563l1.107-.047v-.392q0-.833-.357-1.166-.357-.334-1.008-.334a3.2 3.2 0 0 0-.961.146 6.6 6.6 0 0 0-.867.346l-.299-.738a5.3 5.3 0 0 1 .996-.381q.563-.159 1.184-.158m1.301 3.363-.979.041q-1.201.047-1.693.393-.492.345-.492.978 0 .551.334.814.333.264.884.264.856 0 1.401-.474.545-.475.545-1.424zm3.937-5.953v2.279q0 .393-.023.762l-.03.574h.053q.264-.434.762-.732.498-.3 1.271-.299 1.208 0 1.922.838.721.832.721 2.478 0 1.084-.328 1.828-.329.744-.926 1.125t-1.412.381q-.762 0-1.254-.281a2.2 2.2 0 0 1-.75-.697h-.076l-.199.861h-.704v-9.117zm1.875 3.398q-.697 0-1.107.276-.41.269-.592.82-.176.545-.176 1.383v.052q0 1.213.404 1.858.405.639 1.471.639.897 0 1.342-.657.451-.656.451-1.875 0-1.242-.445-1.869-.44-.627-1.348-.627m5.479 5.719h-.979v-9.117h.979zm4.529-6.539q.82 0 1.406.363.587.363.897 1.02.31.65.31 1.523v.604h-4.435q.017 1.131.562 1.722.545.592 1.535.592.61 0 1.078-.111.47-.112.973-.328v.855q-.486.217-.967.317a5.6 5.6 0 0 1-1.125.099q-.925 0-1.617-.375a2.62 2.62 0 0 1-1.066-1.113q-.381-.732-.381-1.793 0-1.037.346-1.793.351-.762.984-1.172.639-.41 1.5-.41m-.012.797q-.778 0-1.242.51-.463.509-.551 1.423h3.399a2.8 2.8 0 0 0-.182-1.007 1.4 1.4 0 0 0-.521-.68q-.352-.246-.903-.246m8.807 5.742-2.438-6.422h1.043l1.412 3.885q.147.398.299.879.153.48.211.773h.041q.07-.293.235-.773l.298-.879 1.412-3.885h1.043L470.912 493zm5.56-6.422V493h-.972v-6.422zm-.474-2.402q.24 0 .41.158.176.153.176.48 0 .322-.176.481a.58.58 0 0 1-.41.158.6.6 0 0 1-.422-.158q-.164-.159-.164-.481 0-.327.164-.48a.6.6 0 0 1 .422-.158m4.939 2.297q1.149 0 1.705.515.557.516.557 1.647V493h-.709l-.188-.949h-.046q-.27.35-.563.592a2.1 2.1 0 0 1-.68.357 3.2 3.2 0 0 1-.937.117q-.586 0-1.043-.205a1.63 1.63 0 0 1-.715-.621q-.258-.416-.258-1.055 0-.96.762-1.476.762-.515 2.32-.563l1.108-.047v-.392q0-.833-.358-1.166-.357-.334-1.008-.334-.503 0-.96.146a7 7 0 0 0-.868.346l-.298-.738a5.3 5.3 0 0 1 .996-.381 4.3 4.3 0 0 1 1.183-.158m1.301 3.363-.979.041q-1.2.047-1.693.393-.492.345-.492.978 0 .551.334.814.334.264.885.264.855 0 1.4-.474.545-.475.545-1.424zm-77.607 10.625q1.06 0 1.599.557.54.55.539 1.775V507h-.961v-4.16q0-.78-.34-1.166-.333-.393-.996-.393-.931 0-1.353.539-.422.54-.422 1.588V507h-.967v-4.16q0-.522-.152-.867a1.04 1.04 0 0 0-.445-.516q-.294-.176-.745-.176-.638 0-1.025.264-.387.263-.562.785-.17.516-.17 1.272V507h-.973v-6.422h.785l.147.908h.052q.193-.334.487-.562.293-.23.656-.346.363-.117.773-.117.733 0 1.225.275.498.27.721.826h.052q.316-.556.868-.826a2.7 2.7 0 0 1 1.207-.275m9.673 3.316q0 .791-.205 1.412a2.9 2.9 0 0 1-.591 1.049 2.6 2.6 0 0 1-.938.657 3.3 3.3 0 0 1-1.236.222q-.645 0-1.184-.222a2.7 2.7 0 0 1-.926-.657 3 3 0 0 1-.603-1.049 4.4 4.4 0 0 1-.211-1.412q0-1.054.357-1.793a2.54 2.54 0 0 1 1.02-1.13q.667-.393 1.588-.393.879 0 1.535.393.662.392 1.025 1.136.369.738.369 1.787m-4.886 0q0 .774.205 1.342.204.568.633.879.428.31 1.101.311.668 0 1.096-.311.433-.31.639-.879.204-.568.205-1.342 0-.767-.205-1.324-.206-.562-.633-.867t-1.108-.305q-1.002 0-1.47.662-.463.663-.463 1.834m9.609-3.316q1.143 0 1.729.562.585.558.586 1.793V507h-.961v-4.119q0-.803-.37-1.201-.363-.399-1.119-.399-1.067 0-1.5.604-.433.603-.433 1.752V507h-.973v-6.422h.785l.147.926h.052q.205-.34.522-.568.316-.235.709-.352.393-.123.826-.123m6.393 5.859a3 3 0 0 0 .902-.14v.756q-.17.075-.475.128a3.3 3.3 0 0 1-.586.053 2.3 2.3 0 0 1-.925-.176 1.43 1.43 0 0 1-.668-.609q-.246-.428-.246-1.184v-3.808h-.914v-.475l.919-.381.387-1.394h.586v1.488h1.881v.762h-1.881v3.779q0 .603.275.902.282.3.745.299m3.175-8.437v2.724q0 .235-.011.475a5 5 0 0 1-.041.434h.064q.2-.34.504-.569.31-.234.703-.351.393-.123.832-.123.774 0 1.289.246.522.246.78.761.263.517.263 1.336V507h-.961v-4.119q0-.803-.369-1.201-.363-.399-1.119-.399-.715 0-1.143.276-.421.269-.609.797-.182.527-.182 1.289V507h-.972v-9.117zm7.366 9.117h-.979v-9.117h.979zm1.043-6.422h1.043l1.418 3.727a23 23 0 0 1 .416 1.207q.081.275.128.533h.042q.081-.293.234-.768.152-.48.328-.978l1.342-3.721h1.049l-2.795 7.365a5 5 0 0 1-.522 1.032 2.05 2.05 0 0 1-.715.673q-.422.241-1.019.241-.276 0-.486-.035a3 3 0 0 1-.364-.071v-.779q.13.029.311.053.188.023.387.023.363 0 .626-.141a1.3 1.3 0 0 0 .463-.398q.194-.264.334-.627l.352-.902zm13.002.762h-1.6V507h-.973v-5.66h-1.136v-.469l1.136-.322v-.428q0-.808.241-1.312.24-.51.697-.75.457-.241 1.113-.241.37 0 .674.065.31.065.545.146l-.252.768a4 4 0 0 0-.451-.117 2.2 2.2 0 0 0-.504-.059q-.557 0-.826.363-.264.358-.264 1.125v.469h1.6zm3.656-.879q.82 0 1.406.363.587.363.897 1.02.31.65.31 1.523v.604h-4.435q.017 1.131.562 1.722.545.592 1.535.592.61 0 1.078-.111.47-.112.973-.328v.855q-.486.217-.967.317a5.6 5.6 0 0 1-1.125.099q-.925 0-1.617-.375a2.62 2.62 0 0 1-1.066-1.113q-.381-.732-.381-1.793 0-1.037.345-1.793.352-.762.985-1.172.639-.41 1.5-.41m-.012.797q-.779 0-1.242.51-.463.509-.551 1.423h3.399a2.8 2.8 0 0 0-.182-1.007 1.4 1.4 0 0 0-.522-.68q-.351-.246-.902-.246m6.75-.797q.82 0 1.406.363.587.363.897 1.02.31.65.31 1.523v.604h-4.435q.018 1.131.562 1.722.545.592 1.535.592.61 0 1.079-.111.468-.112.972-.328v.855q-.486.217-.967.317a5.6 5.6 0 0 1-1.125.099q-.925 0-1.617-.375a2.62 2.62 0 0 1-1.066-1.113q-.381-.732-.381-1.793 0-1.037.346-1.793.351-.762.984-1.172.639-.41 1.5-.41m-.012.797q-.779 0-1.242.51-.462.509-.551 1.423h3.399a2.8 2.8 0 0 0-.182-1.007 1.4 1.4 0 0 0-.521-.68q-.352-.246-.903-.246m6.563 5.859q-1.219 0-1.934-.832-.708-.832-.709-2.473 0-1.658.727-2.501.727-.85 1.933-.85.51 0 .891.135t.656.363q.276.222.463.51h.071a9 9 0 0 1-.047-.498 7 7 0 0 1-.024-.516v-2.572h.973V507h-.785l-.147-.914h-.041a2.22 2.22 0 0 1-1.125.896q-.38.135-.902.135m.152-.808q1.032 0 1.459-.586t.428-1.741v-.175q0-1.226-.41-1.881-.405-.656-1.477-.656-.896 0-1.342.691-.444.685-.445 1.875 0 1.183.44 1.828.445.645 1.347.645"/><rect width="125" height="74" x="221.543" y="167" fill="#e8f5ff" rx="4"/><path fill="#005ea2" d="M251.512 204.434v5.543q0 .907-.369 1.617-.364.708-1.102 1.119-.738.404-1.852.404-1.587 0-2.419-.861-.827-.861-.827-2.303v-5.519h1.002v5.548q0 1.09.575 1.682.579.592 1.728.592.785 0 1.283-.281.504-.288.744-.797.246-.516.246-1.19v-5.554zm5.144 2.027q1.202 0 1.916.826.715.826.715 2.484 0 1.096-.328 1.84t-.926 1.125q-.591.381-1.4.381a2.7 2.7 0 0 1-.897-.135 2.1 2.1 0 0 1-.662-.363 2.4 2.4 0 0 1-.457-.498h-.07l.041.551q.029.322.029.562v2.637h-.978v-9.293h.802l.129.949h.047q.188-.293.457-.533.27-.246.656-.387.393-.146.926-.146m-.17.82q-.667 0-1.078.258-.404.258-.592.773-.187.51-.199 1.284v.187q0 .815.176 1.377.181.562.592.856.416.293 1.113.293.598 0 .996-.323.399-.322.592-.896.2-.58.199-1.33 0-1.137-.445-1.805-.44-.674-1.354-.674m6.785 5.836q-1.219 0-1.933-.832-.71-.832-.709-2.473 0-1.658.726-2.501.727-.85 1.934-.85.51 0 .891.135.38.135.656.363.276.222.463.51h.07a11 11 0 0 1-.07-1.014v-2.572h.972V213h-.785l-.146-.914h-.041a2.24 2.24 0 0 1-1.125.896q-.381.135-.903.135m.153-.808q1.031 0 1.459-.586t.428-1.741v-.175q0-1.226-.411-1.881-.404-.656-1.476-.656-.897 0-1.342.691-.445.685-.445 1.875 0 1.183.439 1.828.445.645 1.348.645m7.312-5.836q1.149 0 1.705.515.557.516.557 1.647V213h-.709l-.187-.949h-.047a3.6 3.6 0 0 1-.563.592 2.1 2.1 0 0 1-.68.357 3.2 3.2 0 0 1-.937.117q-.586 0-1.043-.205a1.63 1.63 0 0 1-.715-.621q-.258-.416-.258-1.055 0-.96.762-1.476t2.32-.563l1.108-.047v-.392q0-.833-.358-1.166-.357-.334-1.007-.334-.504 0-.961.146a7 7 0 0 0-.868.346l-.298-.738a5.3 5.3 0 0 1 .996-.381 4.3 4.3 0 0 1 1.183-.158m1.301 3.363-.978.041q-1.202.047-1.694.393-.492.345-.492.978 0 .551.334.814.334.264.885.264.855 0 1.4-.474.545-.475.545-1.424zm5.039 2.484a3 3 0 0 0 .903-.14v.756q-.17.075-.475.128a3.3 3.3 0 0 1-.586.053q-.51 0-.926-.176a1.44 1.44 0 0 1-.668-.609q-.246-.428-.246-1.184v-3.808h-.914v-.475l.92-.381.387-1.394h.586v1.488h1.881v.762h-1.881v3.779q0 .603.275.902.282.3.744.299m4.676-5.859q.82 0 1.406.363.587.363.897 1.02.31.65.31 1.523v.604h-4.435q.017 1.131.562 1.722.545.592 1.535.592.61 0 1.078-.111.47-.112.973-.328v.855q-.486.217-.967.317a5.6 5.6 0 0 1-1.125.099q-.925 0-1.617-.375a2.62 2.62 0 0 1-1.066-1.113q-.381-.732-.381-1.793 0-1.037.346-1.793.351-.761.984-1.172.639-.41 1.5-.41m-.012.797q-.779 0-1.242.51-.463.509-.551 1.423h3.399a2.8 2.8 0 0 0-.182-1.007 1.4 1.4 0 0 0-.521-.68q-.353-.246-.903-.246m8.432 3.984q0 .615-.311 1.037-.304.417-.879.627-.568.211-1.359.211-.674 0-1.166-.105a3.4 3.4 0 0 1-.861-.299v-.897q.392.193.937.352t1.113.158q.833 0 1.208-.269a.86.86 0 0 0 .375-.733.74.74 0 0 0-.153-.463q-.146-.204-.498-.392a7 7 0 0 0-.973-.422q-.615-.234-1.066-.463a2 2 0 0 1-.691-.568q-.24-.334-.241-.868 0-.815.657-1.248.662-.44 1.734-.439.58 0 1.084.117.51.111.949.305l-.328.779a6 6 0 0 0-.849-.287 3.7 3.7 0 0 0-.92-.117q-.674 0-1.038.222-.357.223-.357.61 0 .299.164.492.17.193.539.363t.973.399q.603.222 1.043.463.439.234.674.574.24.335.24.861m7.154-4.781q.82 0 1.406.363.587.363.897 1.02.31.65.31 1.523v.604h-4.435q.018 1.131.562 1.722.545.592 1.536.592.609 0 1.078-.111.468-.112.972-.328v.855a4.7 4.7 0 0 1-.966.317 5.6 5.6 0 0 1-1.125.099q-.927 0-1.618-.375a2.62 2.62 0 0 1-1.066-1.113q-.381-.732-.381-1.793 0-1.037.346-1.793.351-.761.984-1.172.639-.41 1.5-.41m-.012.797q-.779 0-1.242.51-.462.509-.551 1.423h3.399a2.8 2.8 0 0 0-.182-1.007 1.4 1.4 0 0 0-.521-.68q-.352-.246-.903-.246m5.69 5.742-2.438-6.422h1.043l1.412 3.885q.147.398.299.879.153.48.211.773h.041q.07-.293.235-.773l.298-.879 1.413-3.885h1.043L304.117 213zm7.06-6.539q.82 0 1.407.363.585.363.896 1.02.31.65.311 1.523v.604h-4.436q.017 1.131.563 1.722.545.592 1.535.592.609 0 1.078-.111.468-.112.973-.328v.855q-.487.217-.967.317a5.6 5.6 0 0 1-1.125.099q-.926 0-1.617-.375a2.63 2.63 0 0 1-1.067-1.113q-.381-.732-.381-1.793 0-1.037.346-1.793.352-.761.984-1.172.639-.41 1.5-.41m-.011.797q-.78 0-1.242.51-.464.509-.551 1.423h3.398a2.8 2.8 0 0 0-.181-1.007 1.42 1.42 0 0 0-.522-.68q-.351-.246-.902-.246m7.195-.797q.194 0 .404.023.212.018.375.053l-.123.902a2.951 2.951 0 0 0-.715-.087q-.386 0-.732.158-.34.152-.598.445a2.1 2.1 0 0 0-.404.697q-.147.405-.146.903V213h-.979v-6.422h.809l.105 1.184h.041q.2-.358.481-.651.28-.299.65-.474.375-.176.832-.176m.979.117h1.043l1.418 3.727a23 23 0 0 1 .416 1.207q.081.275.128.533h.041q.082-.292.235-.768.152-.48.328-.978l1.342-3.721h1.049l-2.795 7.365a5 5 0 0 1-.522 1.032 2.05 2.05 0 0 1-.715.673q-.422.241-1.019.241-.276 0-.487-.035a3 3 0 0 1-.363-.071v-.779q.13.029.311.053.188.023.386.023.365 0 .627-.141a1.3 1.3 0 0 0 .463-.398q.194-.264.334-.627l.352-.902zM267.016 227h-5.614v-.814l2.291-2.327q.64-.644 1.073-1.148.439-.504.668-.99.228-.493.228-1.078 0-.727-.433-1.108-.429-.387-1.131-.387-.616 0-1.09.211t-.973.598l-.521-.656q.339-.288.738-.51.404-.222.861-.352.463-.128.985-.128.79 0 1.365.275.575.276.885.785.316.51.316 1.213 0 .68-.269 1.266a5.2 5.2 0 0 1-.756 1.154q-.487.568-1.137 1.207l-1.863 1.857v.041h4.377zm1.142-2.789v-.867h2.906v.867zm10.02.803h-1.283V227h-.95v-1.986h-4.142v-.821l4.078-5.806h1.014v5.748h1.283zm-2.233-.879v-2.801q0-.322.006-.58.006-.264.018-.486.012-.229.017-.434.012-.206.018-.404h-.047q-.111.234-.258.498a5 5 0 0 1-.287.463l-2.642 3.744zm8.895 2.982q-1.219 0-1.934-.832-.708-.832-.709-2.473 0-1.658.727-2.501.726-.85 1.933-.85.51 0 .891.135t.656.363q.276.222.463.51h.071a9 9 0 0 1-.047-.498 7 7 0 0 1-.024-.516v-2.572h.973V227h-.785l-.147-.914h-.041a2.22 2.22 0 0 1-1.125.896q-.38.135-.902.135m.152-.808q1.032 0 1.459-.586t.428-1.741v-.175q0-1.226-.41-1.881-.405-.656-1.477-.656-.896 0-1.342.691-.444.685-.445 1.875 0 1.183.44 1.828.445.645 1.347.645m7.313-5.836q1.148 0 1.705.515.556.516.556 1.647V227h-.709l-.187-.949h-.047q-.27.35-.562.592a2.1 2.1 0 0 1-.68.357 3.2 3.2 0 0 1-.938.117q-.585 0-1.043-.205a1.63 1.63 0 0 1-.714-.621q-.258-.416-.258-1.055 0-.96.761-1.476.762-.516 2.321-.563l1.107-.047v-.392q0-.833-.357-1.166-.358-.334-1.008-.334a3.2 3.2 0 0 0-.961.146 6.6 6.6 0 0 0-.867.346l-.299-.738a5.3 5.3 0 0 1 .996-.381q.563-.158 1.184-.158m1.3 3.363-.978.041q-1.201.047-1.693.393-.493.345-.493.978 0 .551.334.814.334.264.885.264.855 0 1.401-.474.544-.475.544-1.424zm1.952-3.258h1.043l1.418 3.727a23 23 0 0 1 .416 1.207q.081.275.128.533h.042q.081-.292.234-.768.152-.48.328-.978l1.342-3.721h1.049l-2.795 7.365a5 5 0 0 1-.522 1.032 2.05 2.05 0 0 1-.715.673q-.422.241-1.019.241-.276 0-.486-.035a3 3 0 0 1-.364-.071v-.779q.13.029.311.053.188.023.387.023.363 0 .626-.141a1.3 1.3 0 0 0 .463-.398q.194-.264.334-.627l.352-.902zm11.179 4.664q0 .615-.31 1.037-.304.417-.879.627-.568.211-1.359.211-.674 0-1.167-.105a3.4 3.4 0 0 1-.861-.299v-.897q.392.193.938.352t1.113.158q.832 0 1.207-.269a.86.86 0 0 0 .375-.733.74.74 0 0 0-.152-.463q-.147-.204-.498-.392a7.4 7.4 0 0 0-.973-.422q-.616-.234-1.066-.463a2 2 0 0 1-.692-.568q-.24-.334-.24-.868 0-.815.656-1.248.663-.44 1.734-.439.581 0 1.084.117.51.111.95.305l-.328.779a6 6 0 0 0-.85-.287 3.7 3.7 0 0 0-.92-.117q-.674 0-1.037.222-.357.223-.357.61 0 .299.164.492.17.193.539.363t.972.399q.604.222 1.043.463.44.234.674.574.24.335.24.861M276.043 195v-2h2.75l-.4-.35q-1.3-1.15-1.825-2.625a8.8 8.8 0 0 1-.525-2.975q0-2.775 1.662-4.938t4.338-2.862v2.1a5.92 5.92 0 0 0-2.9 2.213 5.92 5.92 0 0 0-1.1 3.487q0 1.125.425 2.188t1.325 1.962l.25.25V189h2v6zm10-.25v-2.1a5.93 5.93 0 0 0 2.9-2.212 5.92 5.92 0 0 0 1.1-3.488q0-1.125-.425-2.187t-1.325-1.963l-.25-.25V185h-2v-6h6v2h-2.75l.4.35q1.226 1.225 1.788 2.663a8 8 0 0 1 .562 2.937q0 2.775-1.662 4.938t-4.338 2.862"/><rect width="125" height="66" x="221.543" y="315" fill="#e3f4e0" rx="4"/><path fill="#206f1f" d="M272.588 339h-1.787v-8.566h4.91v1.488h-3.123v2.209h2.906v1.482h-2.906zm10.67-6.551V339h-1.371l-.241-.838h-.093a1.8 1.8 0 0 1-.528.545 2.3 2.3 0 0 1-.697.311 3.1 3.1 0 0 1-.791.099q-.703 0-1.225-.246a1.83 1.83 0 0 1-.814-.779q-.287-.528-.287-1.371v-4.272h1.787v3.826q0 .704.252 1.061t.803.357q.545 0 .855-.246.31-.252.434-.732a4.7 4.7 0 0 0 .129-1.184v-3.082zM286.92 339h-1.787v-9.117h1.787zm3.668 0h-1.787v-9.117h1.787zm.943-6.551h1.957l1.237 3.686q.058.175.099.357a5 5 0 0 1 .117.779h.036q.034-.316.093-.591a5 5 0 0 1 .159-.545l1.212-3.686h1.916l-2.771 7.389q-.252.68-.656 1.131-.404.457-.932.685-.522.23-1.148.229-.305 0-.528-.035a5 5 0 0 1-.381-.065v-1.418q.123.03.311.053a3 3 0 0 0 .393.023q.375 0 .644-.158.27-.158.451-.428.182-.263.287-.58l.106-.322zm-39.363 13.865q1.319 0 2.021.575.704.574.704 1.746V353h-1.248l-.346-.891h-.047a3.4 3.4 0 0 1-.574.575q-.293.222-.674.328a3.5 3.5 0 0 1-.926.105q-.58 0-1.043-.222a1.66 1.66 0 0 1-.721-.68q-.263-.463-.263-1.172 0-1.043.732-1.535.732-.498 2.197-.551l1.137-.035v-.287q0-.516-.269-.756-.27-.24-.75-.24-.475 0-.932.134a7 7 0 0 0-.914.34l-.592-1.207a5 5 0 0 1 1.166-.433 5.6 5.6 0 0 1 1.342-.159m.949 3.651-.691.023q-.867.024-1.207.311a.95.95 0 0 0-.334.756q0 .41.24.586.24.17.627.17.574 0 .967-.34.398-.34.398-.967zm5.695 3.152q-1.095 0-1.787-.855-.685-.861-.685-2.526 0-1.681.697-2.543.697-.867 1.822-.867.469 0 .827.129.357.129.615.346.264.216.445.486h.059a13 13 0 0 1-.088-.551 6 6 0 0 1-.047-.756v-2.097h1.793V353h-1.371l-.346-.85h-.076q-.17.27-.428.493a2 2 0 0 1-.603.345q-.352.129-.827.129m.627-1.424q.733 0 1.032-.433.304-.44.322-1.319v-.193q0-.955-.293-1.459-.293-.51-1.09-.51-.591 0-.926.51-.333.51-.334 1.471 0 .96.334 1.447.34.486.955.486m4.366 4.19a4.5 4.5 0 0 1-.633-.047 4 4 0 0 1-.545-.1v-1.406q.216.058.41.082.188.03.428.029a.94.94 0 0 0 .615-.205q.252-.198.252-.791v-6.996h1.787v7.26q0 .598-.228 1.09a1.74 1.74 0 0 1-.739.791q-.51.293-1.347.293m.451-11.127q0-.504.281-.686.287-.187.692-.187.398 0 .685.187.287.182.287.686 0 .498-.287.691-.287.188-.685.188-.405 0-.692-.188-.28-.193-.281-.691m9.756 1.693V353h-1.371l-.241-.838h-.093a1.8 1.8 0 0 1-.528.545 2.3 2.3 0 0 1-.697.311 3.1 3.1 0 0 1-.791.099q-.703 0-1.225-.246a1.83 1.83 0 0 1-.814-.779q-.287-.528-.287-1.371v-4.272h1.787v3.826q0 .704.252 1.061.251.357.803.357.544 0 .855-.246.31-.252.434-.732a4.7 4.7 0 0 0 .129-1.184v-3.082zm3.949 6.668q-1.096 0-1.787-.855-.686-.861-.686-2.526 0-1.681.698-2.543.696-.867 1.822-.867.469 0 .826.129t.615.346q.263.216.446.486h.058a15 15 0 0 1-.088-.551 6 6 0 0 1-.047-.756v-2.097h1.793V353h-1.371l-.345-.85h-.077q-.17.27-.427.493-.252.216-.604.345-.351.129-.826.129m.627-1.424q.732 0 1.031-.433.305-.44.322-1.319v-.193q0-.955-.293-1.459-.293-.51-1.089-.51-.593 0-.926.51t-.334 1.471q0 .96.334 1.447.34.486.955.486m6.68-5.244V353h-1.788v-6.551zm-.891-2.566q.399 0 .685.187.288.182.288.686 0 .498-.288.691a1.22 1.22 0 0 1-.685.188q-.405 0-.691-.188-.282-.193-.282-.691 0-.504.282-.686.286-.187.691-.187m5.432 9.234q-.974 0-1.659-.351a2.35 2.35 0 0 1-1.043-1.102q-.357-.744-.357-1.904 0-1.201.404-1.957a2.57 2.57 0 0 1 1.131-1.119q.727-.358 1.682-.358.68 0 1.172.135.498.129.867.31l-.527 1.383a8 8 0 0 0-.786-.275 2.5 2.5 0 0 0-.726-.111q-.469 0-.779.222-.312.218-.463.656-.153.44-.153 1.102 0 .65.164 1.078.165.428.475.639.31.205.756.205.557 0 .99-.147a4 4 0 0 0 .844-.421v1.529a3 3 0 0 1-.862.369q-.444.117-1.13.117m6.199-6.803q1.319 0 2.021.575.703.574.703 1.746V353h-1.248l-.345-.891h-.047a3.4 3.4 0 0 1-.574.575q-.294.222-.674.328a3.5 3.5 0 0 1-.926.105q-.58 0-1.043-.222a1.66 1.66 0 0 1-.721-.68q-.263-.463-.263-1.172 0-1.043.732-1.535.733-.498 2.197-.551l1.137-.035v-.287q0-.516-.269-.756-.27-.24-.75-.24-.475 0-.932.134a7 7 0 0 0-.914.34l-.592-1.207a5 5 0 0 1 1.166-.433 5.6 5.6 0 0 1 1.342-.159m.949 3.651-.691.023q-.868.024-1.207.311a.95.95 0 0 0-.334.756q0 .41.24.586.24.17.627.17.574 0 .967-.34.398-.34.398-.967zm6.381 1.728q.293 0 .568-.058.281-.059.557-.147v1.33q-.288.13-.715.211-.422.088-.926.088-.586 0-1.054-.187a1.5 1.5 0 0 1-.733-.662q-.264-.475-.264-1.319v-3.158h-.855v-.756l.984-.597.516-1.383h1.143v1.394h1.834v1.342h-1.834v3.158q0 .375.211.563.216.181.568.181m5.156-5.367q.909 0 1.565.352.656.345 1.013 1.008.358.661.358 1.617v.867h-4.225q.03.756.451 1.189.428.428 1.184.428.627 0 1.148-.129a6 6 0 0 0 1.073-.387v1.383q-.488.24-1.02.352a6.3 6.3 0 0 1-1.283.111q-.984 0-1.746-.363a2.7 2.7 0 0 1-1.19-1.108q-.427-.744-.427-1.875 0-1.148.386-1.91.393-.767 1.09-1.148.697-.387 1.623-.387m.012 1.272q-.522 0-.867.334-.34.334-.393 1.048h2.508a1.8 1.8 0 0 0-.147-.709 1.1 1.1 0 0 0-.41-.492q-.269-.181-.691-.181m6.451 5.519q-1.095 0-1.787-.855-.686-.861-.686-2.526 0-1.681.698-2.543.697-.867 1.822-.867.469 0 .826.129t.615.346q.264.216.446.486h.058a15 15 0 0 1-.088-.551 6 6 0 0 1-.047-.756v-2.097h1.793V353h-1.371l-.345-.85h-.077q-.17.27-.427.493a2 2 0 0 1-.604.345q-.351.129-.826.129m.627-1.424q.732 0 1.031-.433.305-.44.323-1.319v-.193q0-.955-.293-1.459-.294-.51-1.09-.51-.592 0-.926.51t-.334 1.471q0 .96.334 1.447.34.486.955.486m-72.92 15.424q-.972 0-1.658-.351a2.35 2.35 0 0 1-1.043-1.102q-.358-.744-.358-1.904 0-1.201.405-1.957.41-.762 1.131-1.119.727-.358 1.681-.358.68 0 1.172.135.498.129.867.31l-.527 1.383a8 8 0 0 0-.785-.275 2.5 2.5 0 0 0-.727-.111q-.468 0-.779.222-.31.218-.463.656-.152.44-.152 1.102 0 .65.164 1.078.163.428.474.639.31.205.756.205.556 0 .99-.147.435-.152.844-.421v1.529q-.41.258-.861.369-.446.117-1.131.117m5.303-.117h-1.787v-9.117h1.787zm4.564-6.686q1.318 0 2.022.575.703.574.703 1.746V367h-1.248l-.346-.891h-.047a3.3 3.3 0 0 1-.574.575q-.293.222-.674.328-.38.105-.926.105-.58 0-1.043-.222a1.66 1.66 0 0 1-.72-.68q-.264-.463-.264-1.172 0-1.043.732-1.535.733-.498 2.198-.551l1.136-.035v-.287q0-.516-.269-.756-.27-.24-.75-.24-.474 0-.932.134a7 7 0 0 0-.914.34l-.592-1.207a5 5 0 0 1 1.166-.433 5.6 5.6 0 0 1 1.342-.159m.949 3.651-.691.023q-.867.024-1.207.311a.95.95 0 0 0-.334.756q0 .41.24.586.24.17.627.17.574 0 .967-.34.398-.34.398-.967zm5.409-3.516V367h-1.787v-6.551zm-.891-2.566q.399 0 .686.187.287.182.287.686 0 .498-.287.691-.287.188-.686.188-.404 0-.691-.188-.282-.193-.282-.691 0-.504.282-.686.287-.187.691-.187m10.465 2.443q1.113 0 1.682.574.573.569.574 1.829V367h-1.793v-3.826q0-.703-.24-1.061-.241-.357-.745-.357-.708 0-1.007.51-.3.504-.299 1.447V367h-1.787v-3.826q0-.469-.106-.785a.93.93 0 0 0-.322-.475.93.93 0 0 0-.557-.158q-.498 0-.785.252-.28.246-.404.732a5 5 0 0 0-.117 1.178V367h-1.787v-6.551h1.365l.24.838h.1a1.7 1.7 0 0 1 .498-.551q.304-.21.668-.31.363-.1.738-.1.72 0 1.219.235.504.234.773.726h.158q.294-.504.826-.732.54-.23 1.108-.229m9.896-.012q1.319 0 2.022.575.703.574.703 1.746V367h-1.248l-.346-.891h-.047a3.3 3.3 0 0 1-.574.575q-.293.222-.674.328-.38.105-.925.105a2.4 2.4 0 0 1-1.043-.222 1.66 1.66 0 0 1-.721-.68q-.264-.463-.264-1.172 0-1.043.733-1.535.732-.498 2.197-.551l1.137-.035v-.287q0-.516-.27-.756t-.75-.24q-.474 0-.932.134a7 7 0 0 0-.914.34l-.591-1.207a5 5 0 0 1 1.166-.433 5.6 5.6 0 0 1 1.341-.159m.95 3.651-.692.023q-.867.024-1.207.311a.95.95 0 0 0-.334.756q0 .41.24.586.242.17.627.17.574 0 .967-.34.399-.34.399-.967zm5.179 3.035-2.496-6.551h1.869l1.266 3.733q.105.327.164.691.064.363.088.65h.047q.018-.31.082-.662.07-.351.181-.679l1.26-3.733h1.869L286.322 367zm7.957-6.686q1.319 0 2.022.575.703.574.703 1.746V367h-1.248l-.346-.891h-.047a3.3 3.3 0 0 1-.574.575q-.293.222-.674.328-.38.105-.926.105-.58 0-1.043-.222a1.66 1.66 0 0 1-.72-.68q-.264-.463-.264-1.172 0-1.043.733-1.535.732-.498 2.197-.551l1.137-.035v-.287q0-.516-.27-.756t-.75-.24q-.474 0-.932.134a7 7 0 0 0-.914.34l-.591-1.207a5 5 0 0 1 1.166-.433 5.6 5.6 0 0 1 1.341-.159m.95 3.651-.692.023q-.867.024-1.207.311a.95.95 0 0 0-.334.756q0 .41.24.586.24.17.627.17.574 0 .967-.34.399-.34.399-.967zm5.408-3.516V367h-1.787v-6.551zm-.891-2.566q.399 0 .686.187.287.182.287.686 0 .498-.287.691-.287.188-.686.188-.404 0-.691-.188-.282-.193-.282-.691 0-.504.282-.686.287-.187.691-.187m4.559 9.117h-1.787v-9.117h1.787zm4.564-6.686q1.319 0 2.022.575.702.574.703 1.746V367h-1.248l-.346-.891h-.047a3.3 3.3 0 0 1-.574.575q-.293.222-.674.328-.38.105-.926.105-.58 0-1.043-.222a1.66 1.66 0 0 1-.72-.68q-.264-.463-.264-1.172 0-1.043.732-1.535.733-.498 2.198-.551l1.136-.035v-.287q0-.516-.269-.756-.27-.24-.75-.24-.475 0-.932.134a7 7 0 0 0-.914.34l-.592-1.207a5 5 0 0 1 1.166-.433 5.6 5.6 0 0 1 1.342-.159m.949 3.651-.691.023q-.867.024-1.207.311a.95.95 0 0 0-.334.756q0 .41.24.586.24.17.627.17.574 0 .967-.34.399-.34.398-.967zm5.409-6.082v2.121q0 .369-.024.732-.017.364-.047.563h.071q.257-.404.703-.686.445-.287 1.154-.287 1.101 0 1.787.862.686.861.686 2.525 0 1.119-.317 1.881-.316.756-.885 1.142a2.3 2.3 0 0 1-1.318.381q-.72 0-1.137-.258a2.6 2.6 0 0 1-.673-.58h-.123l-.299.721h-1.366v-9.117zm1.283 3.873q-.47 0-.744.193-.276.193-.405.58-.123.387-.134.979v.193q0 .955.281 1.465.28.504 1.025.504.55 0 .873-.51.328-.51.328-1.471 0-.96-.328-1.447-.327-.486-.896-.486m6.31 5.244h-1.787v-9.117h1.787zm4.582-6.674q.909 0 1.565.352.656.345 1.013 1.008.358.661.358 1.617v.867h-4.225q.03.756.451 1.189.428.428 1.184.428.627 0 1.148-.129a6 6 0 0 0 1.073-.387v1.383q-.486.24-1.02.352a6.3 6.3 0 0 1-1.283.111q-.984 0-1.746-.363a2.7 2.7 0 0 1-1.19-1.108q-.427-.744-.427-1.875 0-1.148.386-1.91.393-.767 1.09-1.148.697-.387 1.623-.387m.012 1.272q-.522 0-.867.334-.34.334-.393 1.048h2.508a1.8 1.8 0 0 0-.146-.709 1.1 1.1 0 0 0-.411-.492q-.269-.181-.691-.181"/><path fill="#565c65" d="m284.043 155 2.887-5h-5.774zm0-50h-.5v45.5h1V105zM284.043 303l2.887-5h-5.774zm0-50h-.5v45.5h1V253zM432.697 443l2.887-5h-5.773zm0-50h-.5v45.5h1V393z"/><path fill="#0076d6" d="m213.506 57.5-5-2.887v5.774zM152 57.5v.5h57.006v-1H152zM213.506 343.156l-5-2.886v5.773zm-61.506 0v.5h57.006v-1H152z"/><path fill="#565c65" d="M35.327 205.888q-.827 0-1.49.287-.657.28-1.121.82a3.7 3.7 0 0 0-.704 1.292 5.5 5.5 0 0 0-.246 1.709q0 1.258.39 2.188.396.923 1.175 1.428.786.506 1.962.506.67 0 1.258-.109.594-.117 1.155-.287v1.011a6 6 0 0 1-1.148.301 8.6 8.6 0 0 1-1.43.103q-1.523 0-2.549-.629-1.019-.636-1.531-1.791-.506-1.156-.506-2.728 0-1.135.314-2.071a4.7 4.7 0 0 1 .93-1.627q.616-.684 1.504-1.053.895-.375 2.05-.376.76 0 1.464.151.705.15 1.271.43l-.465.985a7 7 0 0 0-1.052-.376 4.4 4.4 0 0 0-1.23-.164M39.873 215v-9.994h1.162v8.955h4.437V215zm13.583 0-1.23-3.172H48.22L46.996 215H45.82l3.91-10.035h1.046L54.66 215zm-1.579-4.204-1.169-3.151-.137-.404-.184-.581-.157-.485q-.069.28-.15.56a14 14 0 0 1-.281.91l-1.19 3.151zm4.17 4.204v-9.994h1.162V215zm8.306 0-3.357-8.846h-.055q.028.28.048.684a40 40 0 0 1 .048 1.846V215h-1.08v-9.994h1.723l3.165 8.312h.048l3.213-8.312h1.709V215h-1.149v-6.398q0-.445.014-.889a40 40 0 0 1 .075-1.545H68.7L65.303 215zm11.833 0v-9.994h1.162V215zm11.723 0h-1.34l-5.448-8.395h-.055l.048.766q.027.425.041.909.02.479.02.978V215h-1.08v-9.994h1.334l5.427 8.367h.048q-.013-.239-.034-.677l-.04-.95a36 36 0 0 1-.015-.95v-5.79h1.094zm10.637-9.112q-.828 0-1.49.287-.657.28-1.121.82-.459.534-.704 1.292a5.5 5.5 0 0 0-.247 1.709q0 1.258.39 2.188.396.923 1.176 1.428.786.506 1.962.506.67 0 1.257-.109.595-.117 1.156-.287v1.011a6 6 0 0 1-1.149.301 8.6 8.6 0 0 1-1.428.103q-1.525 0-2.55-.629-1.02-.636-1.531-1.791-.507-1.156-.506-2.728 0-1.135.314-2.071a4.7 4.7 0 0 1 .93-1.627q.615-.684 1.504-1.053.895-.375 2.05-.376.76 0 1.463.151.705.15 1.272.43l-.465.985a7 7 0 0 0-1.053-.376 4.4 4.4 0 0 0-1.23-.164m8.941 9.112-3.356-8.846h-.055q.027.28.048.684a38 38 0 0 1 .048 1.846V215h-1.08v-9.994h1.722l3.165 8.312h.048l3.213-8.312h1.709V215h-1.148v-6.398q0-.445.013-.889a44 44 0 0 1 .076-1.545h-.055L108.438 215zm13.836-2.659q0 .888-.444 1.517-.438.623-1.231.951-.792.328-1.866.328-.567 0-1.073-.055a7 7 0 0 1-.93-.157 4 4 0 0 1-.745-.253v-1.114q.513.212 1.251.396a6.6 6.6 0 0 0 1.545.178q.752 0 1.272-.198.519-.206.786-.581.273-.384.273-.916 0-.513-.225-.855-.226-.348-.752-.629-.52-.287-1.422-.608a8 8 0 0 1-1.121-.492 3.5 3.5 0 0 1-.814-.616 2.3 2.3 0 0 1-.499-.793 3 3 0 0 1-.164-1.032q0-.8.403-1.367.411-.575 1.128-.875.725-.308 1.661-.308.8 0 1.477.151.684.15 1.251.403l-.362.998a8 8 0 0 0-1.149-.376q-.602-.15-1.244-.15t-1.087.191a1.5 1.5 0 0 0-.67.526 1.4 1.4 0 0 0-.232.814q0 .527.219.875.225.348.711.622a10 10 0 0 0 1.298.561 9 9 0 0 1 1.497.683q.616.356.937.875.321.513.321 1.306m-79.905 9.665q1.934 0 2.823.759.896.752.896 2.16 0 .636-.212 1.21a2.6 2.6 0 0 1-.67 1.005q-.465.43-1.224.683-.751.246-1.846.246H39.97V232h-1.162v-9.994zm-.11.991h-1.34v4.074h1.088q.957 0 1.592-.205.643-.206.964-.663.322-.465.322-1.23 0-.998-.636-1.484-.636-.492-1.99-.492m8.62-.991q1.232 0 2.031.307.807.302 1.203.923.396.623.397 1.586 0 .793-.287 1.326a2.5 2.5 0 0 1-.752.855q-.465.328-.992.506L54.27 232h-1.354l-2.447-4.17H48.39V232h-1.163v-9.994zm-.068 1.005h-1.47v3.835h1.587q1.223 0 1.797-.499.582-.5.581-1.47 0-1.019-.615-1.442-.608-.424-1.88-.424m14.677 3.978q0 1.155-.294 2.106a4.6 4.6 0 0 1-.875 1.627q-.575.676-1.428 1.046-.855.369-1.983.369-1.163 0-2.03-.369a3.8 3.8 0 0 1-1.436-1.053q-.567-.684-.854-1.634a7.4 7.4 0 0 1-.28-2.105q0-1.532.505-2.687a3.93 3.93 0 0 1 1.532-1.798q1.032-.642 2.584-.642 1.483 0 2.495.635 1.018.636 1.538 1.791.525 1.15.526 2.714m-7.957 0q0 1.272.362 2.201.363.93 1.108 1.436.752.506 1.907.506 1.162 0 1.9-.506.745-.506 1.101-1.436.355-.929.355-2.201 0-1.934-.813-3.021-.807-1.094-2.523-1.094-1.161 0-1.913.499-.753.5-1.122 1.422-.362.916-.362 2.194m14.458-4.101q-.827 0-1.49.287-.656.28-1.121.82-.459.534-.704 1.292a5.5 5.5 0 0 0-.246 1.709q0 1.258.39 2.188.395.923 1.175 1.428.786.506 1.962.506.67 0 1.258-.109.594-.117 1.155-.287v1.011a6 6 0 0 1-1.148.301 8.6 8.6 0 0 1-1.43.103q-1.523 0-2.549-.629-1.019-.636-1.531-1.791-.506-1.156-.506-2.728 0-1.135.314-2.071a4.7 4.7 0 0 1 .93-1.627q.615-.684 1.504-1.053.895-.375 2.05-.376.76 0 1.464.151.704.15 1.271.43l-.465.985a7 7 0 0 0-1.052-.376 4.4 4.4 0 0 0-1.23-.164M81.148 232h-5.564v-9.994h5.564v1.025h-4.402v3.234h4.15v1.011h-4.15v3.699h4.402zm7.855-2.659q0 .888-.444 1.517-.438.623-1.23.951-.795.328-1.867.328-.567 0-1.073-.055a7 7 0 0 1-.93-.157 4 4 0 0 1-.745-.253v-1.114q.513.212 1.25.396a6.6 6.6 0 0 0 1.546.178q.752 0 1.271-.198.52-.206.786-.581.274-.384.274-.916 0-.513-.226-.855-.225-.348-.752-.629-.519-.287-1.422-.608a8 8 0 0 1-1.12-.492 3.5 3.5 0 0 1-.814-.616 2.3 2.3 0 0 1-.5-.793q-.163-.45-.163-1.032 0-.8.403-1.367.41-.575 1.128-.875.725-.308 1.661-.308.8 0 1.477.151.683.15 1.25.403l-.362.998a8 8 0 0 0-1.148-.376q-.602-.15-1.244-.15t-1.087.191a1.5 1.5 0 0 0-.67.526 1.4 1.4 0 0 0-.233.814q0 .527.22.875.225.348.71.622a10 10 0 0 0 1.299.561 9 9 0 0 1 1.497.683q.615.356.937.875.32.513.32 1.306m7.683 0q0 .888-.444 1.517-.437.623-1.23.951t-1.867.328q-.567 0-1.073-.055a7 7 0 0 1-.93-.157 4 4 0 0 1-.745-.253v-1.114q.514.212 1.251.396a6.6 6.6 0 0 0 1.545.178q.752 0 1.272-.198.519-.206.786-.581.273-.384.273-.916 0-.513-.225-.855-.225-.348-.752-.629-.519-.287-1.422-.608a8 8 0 0 1-1.121-.492 3.5 3.5 0 0 1-.814-.616 2.3 2.3 0 0 1-.499-.793q-.164-.45-.164-1.032 0-.8.404-1.367.41-.575 1.128-.875.724-.308 1.66-.308.8 0 1.477.151.684.15 1.251.403l-.362.998a8 8 0 0 0-1.148-.376q-.602-.15-1.245-.15-.642 0-1.086.191a1.5 1.5 0 0 0-.67.526 1.4 1.4 0 0 0-.233.814q0 .527.219.875.225.348.71.622a10 10 0 0 0 1.3.561 9 9 0 0 1 1.497.683q.615.356.936.875.321.513.322 1.306M98.73 232v-9.994h1.163V232zm11.724 0h-1.34l-5.448-8.395h-.055l.048.766q.027.425.041.909.021.479.021.978V232h-1.08v-9.994h1.333l5.427 8.367h.048q-.013-.239-.034-.677-.02-.444-.041-.95a36 36 0 0 1-.014-.95v-5.79h1.094zm7-5.236h3.493v4.846a9.7 9.7 0 0 1-1.62.397q-.827.13-1.852.13-1.559 0-2.632-.622a4 4 0 0 1-1.62-1.771q-.554-1.155-.554-2.741 0-1.552.608-2.707a4.34 4.34 0 0 1 1.771-1.791q1.162-.643 2.789-.643.834 0 1.579.158.751.15 1.395.43l-.445 1.012a8 8 0 0 0-1.223-.41 5.5 5.5 0 0 0-1.374-.171q-1.224 0-2.099.506a3.37 3.37 0 0 0-1.333 1.428q-.458.924-.458 2.188 0 1.251.403 2.181a3.06 3.06 0 0 0 1.258 1.435q.854.513 2.201.513.677 0 1.162-.075.486-.083.882-.192v-3.062h-2.331zM5.7 51.388q-.827 0-1.49.287-.657.28-1.121.82-.458.533-.704 1.292a5.5 5.5 0 0 0-.246 1.71q0 1.257.39 2.187.396.923 1.175 1.428.786.506 1.962.506.67 0 1.258-.11.594-.115 1.155-.286v1.011a6 6 0 0 1-1.148.301 8.6 8.6 0 0 1-1.43.103q-1.523 0-2.549-.63-1.019-.635-1.531-1.79-.506-1.156-.506-2.728 0-1.135.314-2.071a4.7 4.7 0 0 1 .93-1.627q.615-.684 1.504-1.053.895-.376 2.05-.376.76 0 1.464.15.704.152 1.271.431l-.465.985a7 7 0 0 0-1.052-.376 4.4 4.4 0 0 0-1.23-.164m4.546 9.112v-9.994h1.162v8.955h4.437V60.5zm13.583 0-1.23-3.172h-4.006L17.369 60.5h-1.176l3.91-10.035h1.046L25.032 60.5zm-1.579-4.204-1.169-3.151-.137-.404-.341-1.066a13 13 0 0 1-.15.56 15 15 0 0 1-.281.91l-1.19 3.15zm4.17 4.204v-9.994h1.162V60.5zm8.306 0-3.357-8.846h-.055q.028.28.048.684a40 40 0 0 1 .048 1.846V60.5h-1.08v-9.994h1.723l3.165 8.312h.048l3.212-8.312h1.71V60.5h-1.149v-6.398q0-.445.014-.89a40 40 0 0 1 .075-1.544h-.055L35.676 60.5zm17.472-2.66q0 .89-.444 1.518-.438.623-1.23.95-.794.33-1.867.329-.567 0-1.073-.055a7 7 0 0 1-.93-.157 4 4 0 0 1-.745-.253v-1.114q.513.21 1.251.396a6.6 6.6 0 0 0 1.545.178q.751 0 1.272-.198.519-.205.786-.581.273-.384.273-.916 0-.513-.226-.855-.225-.348-.751-.629-.52-.287-1.422-.608a7.6 7.6 0 0 1-1.121-.492 3.5 3.5 0 0 1-.814-.616 2.3 2.3 0 0 1-.499-.793q-.164-.45-.164-1.032 0-.8.403-1.367.411-.575 1.128-.875.725-.308 1.661-.308.8 0 1.477.15a6.5 6.5 0 0 1 1.251.404l-.362.998a8 8 0 0 0-1.149-.376q-.601-.15-1.244-.15-.642 0-1.087.191a1.5 1.5 0 0 0-.67.526 1.4 1.4 0 0 0-.232.814q0 .526.219.875.225.348.71.622.493.267 1.3.56a9 9 0 0 1 1.496.684q.615.356.937.875.321.513.321 1.306m9.605-7.334v6.467q0 1.06-.43 1.886a3.1 3.1 0 0 1-1.286 1.306q-.861.472-2.16.472-1.852 0-2.824-1.005-.963-1.005-.963-2.687v-6.44h1.169v6.474q0 1.272.67 1.962.676.69 2.016.69.916 0 1.497-.327.588-.336.868-.93.288-.602.288-1.388v-6.48zm2.652 0h2.83q1.873 0 2.817.56.943.561.943 1.908 0 .58-.226 1.046-.218.458-.642.758t-1.046.417v.069q.656.102 1.162.376.505.273.793.765.287.492.287 1.251 0 .923-.43 1.559-.424.636-1.204.964-.78.321-1.845.321h-3.439zm1.162 4.286h1.914q1.305 0 1.805-.43.506-.431.506-1.259 0-.855-.602-1.23-.594-.375-1.9-.376h-1.723zm0 .977v3.74h2.078q1.334 0 1.887-.52.555-.525.554-1.415 0-.567-.253-.97-.246-.404-.807-.616-.553-.218-1.483-.218zM77.901 60.5l-3.356-8.846h-.055q.028.28.048.684a40 40 0 0 1 .048 1.846V60.5h-1.08v-9.994h1.722l3.166 8.312h.047l3.213-8.312h1.71V60.5h-1.15v-6.398q0-.445.014-.89a40 40 0 0 1 .076-1.544h-.055L78.852 60.5zm8.197 0v-9.994h1.162V60.5zm6.98 0h-1.17v-8.969h-3.144v-1.025h7.444v1.025h-3.13zm7.71 0h-1.169v-8.969h-3.144v-1.025h7.444v1.025h-3.131zm10.206 0h-5.564v-9.994h5.564v1.025h-4.402v3.234h4.149v1.011h-4.149v3.699h4.402zm10.152-5.093q0 1.689-.616 2.824a4 4 0 0 1-1.784 1.702q-1.162.567-2.823.567h-2.714v-9.994h3.015q1.524 0 2.625.56 1.1.555 1.695 1.648.602 1.086.602 2.693m-1.224.041q0-1.347-.451-2.221a2.84 2.84 0 0 0-1.313-1.3q-.861-.43-2.112-.43h-1.675v8.005h1.415q2.065 0 3.097-1.019 1.04-1.018 1.039-3.035M36.045 67.506h2.83q1.874 0 2.816.56.945.561.944 1.908 0 .581-.226 1.045-.219.459-.642.76-.425.3-1.046.416v.069q.656.102 1.162.376.505.273.793.765.287.492.287 1.251 0 .923-.43 1.559-.424.636-1.204.964-.78.321-1.846.321h-3.438zm1.162 4.286h1.914q1.305 0 1.805-.43.506-.432.506-1.258 0-.855-.602-1.231-.594-.376-1.9-.376h-1.723zm0 .977v3.74h2.078q1.334 0 1.887-.52.554-.525.554-1.415 0-.567-.253-.97-.246-.404-.807-.616-.555-.219-1.483-.219zm10.438-.252 2.66-5.011h1.25l-3.328 6.118V77.5h-1.162v-3.821l-3.337-6.173H45zm11.533-5.011q1.934 0 2.823.759.896.752.896 2.16 0 .636-.212 1.21-.205.567-.67 1.005-.465.43-1.224.683-.751.246-1.846.246h-1.217V77.5h-1.162v-9.994zm-.11.991h-1.34v4.074h1.087q.959 0 1.593-.205.643-.205.964-.663.321-.465.321-1.23 0-.998-.635-1.484-.636-.492-1.99-.492m8.62-.991q1.231 0 2.03.308.808.3 1.204.922t.396 1.586q0 .794-.287 1.326-.287.526-.752.855t-.99.506l2.74 4.491h-1.353l-2.448-4.17H66.15v4.17h-1.162v-9.994zm-.068 1.005h-1.47v3.835h1.586q1.224 0 1.798-.5.58-.498.581-1.469 0-1.02-.615-1.442-.609-.424-1.88-.424m14.677 3.978q0 1.155-.294 2.106a4.6 4.6 0 0 1-.875 1.627q-.575.676-1.429 1.046-.855.369-1.982.369-1.163 0-2.03-.37a3.8 3.8 0 0 1-1.436-1.052q-.567-.684-.855-1.634a7.4 7.4 0 0 1-.28-2.105q0-1.532.506-2.687a3.9 3.9 0 0 1 1.531-1.798q1.032-.642 2.584-.642 1.484 0 2.495.635 1.02.636 1.538 1.791.527 1.149.527 2.714m-7.957 0q0 1.272.362 2.201.362.93 1.108 1.436.751.506 1.907.506 1.162 0 1.9-.506.746-.506 1.1-1.436.356-.93.356-2.2 0-1.936-.813-3.022-.807-1.095-2.523-1.094-1.161 0-1.914.499-.752.5-1.12 1.422-.363.915-.363 2.194m17.165-4.983L87.916 77.5h-1.169l-3.589-9.994h1.217l2.338 6.583q.144.396.253.759a14 14 0 0 1 .362 1.346 15 15 0 0 1 .362-1.353q.117-.37.26-.773l2.324-6.562zm1.374 9.994v-9.994h1.162V77.5zm11.847-5.093q0 1.689-.616 2.824a4 4 0 0 1-1.784 1.702q-1.162.567-2.823.567h-2.714v-9.994h3.015q1.524 0 2.625.56a3.87 3.87 0 0 1 1.695 1.648q.602 1.087.602 2.693m-1.224.041q0-1.346-.451-2.221a2.83 2.83 0 0 0-1.313-1.3q-.861-.43-2.112-.43h-1.675v8.005h1.415q2.065 0 3.097-1.019 1.04-1.018 1.039-3.035m9.01 5.052h-5.565v-9.994h5.565v1.025h-4.403v3.234h4.15v1.011h-4.15v3.699h4.403zm4.915-9.994q1.23 0 2.03.308.807.3 1.203.922.397.623.397 1.586 0 .794-.287 1.326-.288.526-.752.855-.465.328-.992.506l2.742 4.491h-1.354l-2.447-4.17h-2.078v4.17h-1.162v-9.994zm-.069 1.005h-1.469v3.835h1.586q1.223 0 1.797-.5.582-.498.582-1.469 0-1.02-.616-1.442-.608-.424-1.88-.424"/><path fill="#565c65" fill-rule="evenodd" d="M140.5 47.333h-5V49h5zm-3.333 10.834h1.666v-5h-1.666zm6.691-5.509 1.184-1.183a9.3 9.3 0 0 0-1.175-1.175l-1.184 1.183a7.47 7.47 0 0 0-4.683-1.65 7.5 7.5 0 0 0-7.5 7.5c0 4.142 3.35 7.5 7.5 7.5a7.495 7.495 0 0 0 5.858-12.175M138 63.167a5.83 5.83 0 0 1-5.833-5.834A5.83 5.83 0 0 1 138 51.5a5.83 5.83 0 0 1 5.833 5.833A5.83 5.83 0 0 1 138 63.167" clip-rule="evenodd"/><path fill="#565c65" d="M138.002 215.071a5.333 5.333 0 1 1 0-10.666 5.333 5.333 0 0 1 0 10.666m0-5.333h-1l-.003-142.252h2l.003 142.252zM42.6 341.044q-.826 0-1.49.287-.655.28-1.12.82-.458.534-.705 1.292a5.5 5.5 0 0 0-.246 1.709q0 1.258.39 2.188.396.922 1.175 1.429.787.506 1.962.506.67 0 1.258-.11.595-.116 1.156-.287v1.012a6 6 0 0 1-1.149.301 8.7 8.7 0 0 1-1.429.102q-1.524 0-2.55-.629-1.018-.636-1.53-1.791-.507-1.155-.507-2.727 0-1.135.315-2.072a4.7 4.7 0 0 1 .93-1.627q.615-.683 1.503-1.052.896-.376 2.051-.376.76 0 1.463.15t1.272.431l-.465.984a7 7 0 0 0-1.053-.376 4.4 4.4 0 0 0-1.23-.164m4.547 9.112v-9.994h1.162v8.955h4.436v1.039zm13.583 0-1.231-3.172h-4.006l-1.224 3.172h-1.175l3.91-10.035h1.046l3.883 10.035zm-1.58-4.204-1.169-3.151-.136-.403-.342-1.067q-.069.28-.15.561a14 14 0 0 1-.28.909l-1.19 3.151zm4.17 4.204v-9.994h1.162v9.994zm8.306 0-3.357-8.845h-.054q.027.28.048.683a40 40 0 0 1 .047 1.846v6.316h-1.08v-9.994h1.723l3.165 8.313h.048l3.213-8.313h1.709v9.994H75.94v-6.398q0-.445.013-.889a39 39 0 0 1 .075-1.545h-.054l-3.398 8.832zm12.995 0H83.46v-9.994h5.564v1.026h-4.402v3.664h4.136v1.018H84.62zm13.631-9.994v6.467q0 1.059-.43 1.887-.425.826-1.286 1.305-.861.472-2.16.472-1.852 0-2.823-1.005-.964-1.005-.964-2.686v-6.44h1.169v6.474q0 1.271.67 1.962.676.69 2.016.69.916 0 1.497-.328a2.06 2.06 0 0 0 .869-.93q.287-.601.287-1.387v-6.481zm2.652 9.994v-9.994h1.162v8.955h4.437v1.039zm7.315 0v-9.994h1.162v8.955h4.436v1.039zm9.864-4.983 2.659-5.011h1.251l-3.329 6.118v3.876h-1.162v-3.821l-3.336-6.173h1.272zm-78.832 21.983-1.23-3.172h-4.006l-1.224 3.172h-1.176l3.91-10.035h1.046l3.883 10.035zm-1.58-4.204-1.168-3.151-.137-.403-.342-1.067q-.067.28-.15.561a14 14 0 0 1-.28.909l-1.19 3.151zm12.107-.888q0 1.687-.615 2.823a4 4 0 0 1-1.784 1.702q-1.163.567-2.823.567h-2.714v-9.994h3.014q1.526 0 2.625.561a3.87 3.87 0 0 1 1.696 1.647q.6 1.087.601 2.694m-1.223.041q0-1.347-.452-2.222a2.84 2.84 0 0 0-1.312-1.299q-.861-.43-2.112-.431h-1.675v8.005h1.415q2.065 0 3.097-1.018 1.038-1.019 1.039-3.035m2.003 7.683q-.342 0-.602-.048a2 2 0 0 1-.444-.13v-.991q.219.069.471.103.253.04.547.041.383 0 .704-.151.323-.15.513-.512.191-.363.191-.998v-9.94h1.17v9.851q0 .936-.315 1.552-.308.615-.882.916-.568.307-1.353.307m12.762-12.626v6.467q0 1.059-.43 1.887-.424.826-1.285 1.305-.863.472-2.16.472-1.854 0-2.824-1.005-.964-1.005-.964-2.686v-6.44h1.17v6.474q0 1.271.67 1.962.676.69 2.016.69.916 0 1.497-.328.588-.335.868-.93.287-.601.287-1.387v-6.481zm10.59 4.902q0 1.687-.616 2.823a4 4 0 0 1-1.784 1.702q-1.162.567-2.824.567h-2.713v-9.994h3.014q1.525 0 2.625.561a3.87 3.87 0 0 1 1.696 1.647q.6 1.087.601 2.694m-1.224.041q0-1.347-.452-2.222a2.84 2.84 0 0 0-1.312-1.299q-.861-.43-2.112-.431h-1.675v8.005h1.415q2.064 0 3.097-1.018 1.038-1.019 1.038-3.035m3.445 5.051v-9.994h1.162v9.994zm8.183-9.112q-.828 0-1.49.287-.657.28-1.122.82-.458.534-.704 1.292a5.5 5.5 0 0 0-.246 1.709q0 1.258.39 2.188.396.922 1.175 1.429.787.506 1.962.506.67 0 1.258-.11.596-.116 1.155-.287v1.012a6 6 0 0 1-1.148.301 8.7 8.7 0 0 1-1.429.102q-1.524 0-2.55-.629-1.019-.636-1.53-1.791-.507-1.155-.507-2.727 0-1.135.315-2.072a4.7 4.7 0 0 1 .93-1.627q.614-.683 1.503-1.052.896-.376 2.051-.376.76 0 1.463.15.705.15 1.271.431l-.464.984a7 7 0 0 0-1.053-.376 4.4 4.4 0 0 0-1.23-.164m10.814 9.112-1.23-3.172h-4.006l-1.224 3.172h-1.176l3.91-10.035h1.046l3.883 10.035zm-1.58-4.204-1.168-3.151-.137-.403-.184-.581-.158-.486q-.067.28-.15.561a15 15 0 0 1-.28.909l-1.19 3.151zm7.24 4.204h-1.169v-8.968h-3.144v-1.026h7.444v1.026h-3.131zm10.206 0h-5.564v-9.994h5.564v1.026h-4.402v3.233h4.149v1.012h-4.149v3.698h4.402zm10.152-5.092q0 1.687-.616 2.823a4 4 0 0 1-1.784 1.702q-1.162.567-2.823.567h-2.714v-9.994h3.015q1.524 0 2.625.561a3.87 3.87 0 0 1 1.695 1.647q.602 1.087.602 2.694m-1.224.041q0-1.347-.451-2.222a2.84 2.84 0 0 0-1.313-1.299q-.861-.43-2.112-.431h-1.675v8.005h1.415q2.065 0 3.097-1.018 1.04-1.019 1.039-3.035"/><path fill="#fff" d="M160.672 48.5h39v18h-39z"/><path fill="#565c65" d="M168.363 60.5h-3.992v-.84l1.434-1.45q.434-.444.695-.741.266-.3.383-.547.121-.246.121-.527 0-.34-.192-.508-.186-.172-.503-.172-.333 0-.645.152a3.3 3.3 0 0 0-.652.434l-.657-.778a6 6 0 0 1 .52-.398q.277-.187.641-.3.366-.118.879-.118.562 0 .964.203.407.203.625.555.219.348.219.789 0 .473-.187.863-.188.39-.547.774-.356.382-.86.847l-.734.692v.054h2.488zm.504-1.656v-.977h2.098v.977zm6.781.472h-.687V60.5h-1.18v-1.184h-2.437v-.84l2.504-3.687h1.113v3.59h.687zm-1.867-.937v-.969q0-.137.004-.324l.016-.375.015-.332.016-.207h-.031q-.075.16-.156.312a5 5 0 0 1-.192.313l-1.047 1.582zm6.09 2.2a1.46 1.46 0 0 1-1.191-.571q-.457-.574-.457-1.684 0-1.12.465-1.695a1.48 1.48 0 0 1 1.214-.578q.313 0 .551.086t.41.23q.175.145.297.324h.039a11 11 0 0 1-.058-.367 4 4 0 0 1-.032-.504v-1.398h1.196V60.5h-.914l-.231-.566h-.051q-.112.18-.285.328a1.3 1.3 0 0 1-.402.23q-.234.087-.551.086m.418-.95q.489 0 .688-.29.203-.291.214-.878v-.129q0-.637-.195-.973-.195-.34-.726-.34a.7.7 0 0 0-.618.34q-.222.34-.222.98 0 .642.222.966a.73.73 0 0 0 .637.324m5.051-3.586q.879 0 1.348.383.468.383.468 1.164v2.91h-.832l-.23-.594h-.032a2.2 2.2 0 0 1-.382.383 1.3 1.3 0 0 1-.45.219q-.254.07-.617.07-.387 0-.695-.148a1.1 1.1 0 0 1-.48-.453q-.176-.31-.176-.782 0-.695.488-1.023.489-.332 1.465-.367l.758-.024v-.191q0-.344-.18-.504t-.5-.16q-.317 0-.621.09t-.61.226l-.394-.804a3.4 3.4 0 0 1 .777-.29q.434-.105.895-.105m.633 2.434-.461.015q-.579.016-.805.207a.63.63 0 0 0-.223.504q0 .274.161.39a.7.7 0 0 0 .417.114.95.95 0 0 0 .645-.227q.266-.225.266-.644zm1.789-2.344h1.304l.825 2.457q.039.117.066.238a4 4 0 0 1 .078.52h.024q.023-.212.062-.395.043-.183.106-.363l.808-2.457h1.277l-1.847 4.926a2.3 2.3 0 0 1-.438.754 1.74 1.74 0 0 1-.621.456 1.9 1.9 0 0 1-.765.153q-.204 0-.352-.024a3 3 0 0 1-.254-.043v-.945a2 2 0 0 0 .469.05q.25 0 .43-.105a.9.9 0 0 0 .3-.285q.121-.176.192-.386l.07-.215zm8.226 3.07q0 .445-.211.754-.207.305-.621.465-.414.156-1.031.156a4.5 4.5 0 0 1-.785-.059 3.2 3.2 0 0 1-.656-.195v-.984q.355.16.761.265.41.102.719.102.348 0 .496-.102a.32.32 0 0 0 .152-.273.32.32 0 0 0-.062-.195q-.058-.09-.258-.2a6 6 0 0 0-.625-.292 4 4 0 0 1-.676-.348 1.2 1.2 0 0 1-.39-.414 1.3 1.3 0 0 1-.125-.614q0-.604.469-.91.472-.308 1.261-.308.406 0 .774.082.37.082.761.261l-.359.86a6 6 0 0 0-.613-.23q-.285-.09-.582-.09-.262 0-.395.07a.23.23 0 0 0-.133.215q0 .106.067.187a.9.9 0 0 0 .265.184q.2.098.582.254.372.152.645.32.273.165.422.41.148.242.148.63"/><path fill="#fff" d="M160.672 336.156h39v18h-39z"/><path fill="#565c65" d="M167.355 348.156h-1.207v-3.304q0-.136.004-.336a30 30 0 0 1 .028-.801 3 3 0 0 1-.176.176q-.13.12-.242.218l-.657.528-.582-.727 1.84-1.465h.992zm1.512-1.656v-.976h2.098v.976zm3.227 1.656 2.144-4.695h-2.816v-1.016h4.098v.758l-2.161 4.953zm7.777.078a1.46 1.46 0 0 1-1.191-.57q-.457-.575-.457-1.683 0-1.122.465-1.696a1.48 1.48 0 0 1 1.214-.578q.313 0 .551.086t.41.231q.175.144.297.324h.039a11 11 0 0 1-.058-.367 4 4 0 0 1-.032-.504v-1.399h1.196v6.078h-.914l-.231-.566h-.051a1.4 1.4 0 0 1-.285.328 1.3 1.3 0 0 1-.402.231q-.234.085-.551.085m.418-.949q.489 0 .688-.289.203-.293.214-.879v-.129q0-.636-.195-.972-.195-.34-.726-.34a.7.7 0 0 0-.618.34q-.222.34-.222.98t.222.965a.73.73 0 0 0 .637.324m5.051-3.586q.879 0 1.348.383.468.382.468 1.164v2.91h-.832l-.23-.593h-.032a2.2 2.2 0 0 1-.382.382 1.3 1.3 0 0 1-.45.219q-.254.07-.617.07-.387 0-.695-.148a1.1 1.1 0 0 1-.48-.453q-.176-.309-.176-.781 0-.696.488-1.024.489-.332 1.465-.367l.758-.023v-.192q0-.343-.18-.504t-.5-.16q-.317 0-.621.09t-.61.227l-.394-.805q.348-.184.777-.289.434-.106.895-.106m.633 2.434-.461.016q-.579.015-.805.207a.63.63 0 0 0-.223.503q0 .274.161.391a.7.7 0 0 0 .417.113.95.95 0 0 0 .645-.226q.266-.226.266-.645zm1.789-2.344h1.304l.825 2.457q.039.117.066.238a4 4 0 0 1 .078.52h.024a4 4 0 0 1 .062-.395q.043-.183.106-.363l.808-2.457h1.277l-1.847 4.926a2.3 2.3 0 0 1-.438.754 1.75 1.75 0 0 1-.621.457 1.9 1.9 0 0 1-.765.152q-.204 0-.352-.023a3 3 0 0 1-.254-.043v-.945a2.2 2.2 0 0 0 .469.05q.25 0 .43-.105a.9.9 0 0 0 .3-.285q.121-.176.192-.387l.07-.215zm8.226 3.07a1.3 1.3 0 0 1-.211.754q-.207.305-.621.465-.414.156-1.031.156-.457 0-.785-.058a3.2 3.2 0 0 1-.656-.195v-.985q.355.16.761.266.41.101.719.101.348 0 .496-.101a.32.32 0 0 0 .152-.274.32.32 0 0 0-.062-.195q-.058-.09-.258-.199a6 6 0 0 0-.625-.293 4 4 0 0 1-.676-.348 1.2 1.2 0 0 1-.39-.414 1.3 1.3 0 0 1-.125-.613q0-.606.469-.91.472-.309 1.261-.309a3.5 3.5 0 0 1 1.535.344l-.359.859a6 6 0 0 0-.613-.23q-.285-.09-.582-.09-.262 0-.395.07a.23.23 0 0 0-.133.215q0 .105.067.188a.9.9 0 0 0 .265.183q.2.098.582.254.372.153.645.32.273.165.422.411.148.242.148.628"/><path fill="#fff" d="M160.672 479h46v18h-46z"/><path fill="#565c65" d="M168.457 491h-3.992v-.84l1.433-1.449q.434-.445.696-.742.265-.301.383-.547.12-.246.121-.527 0-.34-.192-.508-.187-.172-.504-.172a1.46 1.46 0 0 0-.644.152 3.3 3.3 0 0 0-.653.434l-.656-.778q.246-.21.52-.398a2.4 2.4 0 0 1 .64-.301q.367-.117.879-.117.563 0 .965.203.406.203.625.555.219.348.219.789 0 .473-.188.863a3.1 3.1 0 0 1-.547.774q-.354.382-.859.847l-.734.692v.054h2.488zm.504-1.656v-.977h2.098v.977zm2.621-.77q0-.492.07-.972a3.8 3.8 0 0 1 .254-.911q.18-.43.504-.757.324-.333.824-.52.5-.191 1.211-.191.168 0 .391.015a2.5 2.5 0 0 1 .375.043v.965a3 3 0 0 0-.336-.055 3 3 0 0 0-.352-.023q-.711 0-1.101.227-.387.226-.547.628a3 3 0 0 0-.184.93h.051a1.233 1.233 0 0 1 .68-.574q.238-.09.558-.09.5 0 .868.215.366.211.566.613t.199.981q0 .616-.238 1.062a1.65 1.65 0 0 1-.676.684q-.434.234-1.031.234-.438 0-.816-.148a1.8 1.8 0 0 1-.664-.461 2.15 2.15 0 0 1-.446-.778 3.5 3.5 0 0 1-.16-1.117m2.063 1.539q.355 0 .578-.242t.222-.758q0-.417-.195-.656-.192-.242-.582-.242a.9.9 0 0 0-.469.121.85.85 0 0 0-.308.301.7.7 0 0 0-.11.371q0 .2.055.394.054.196.164.356a.9.9 0 0 0 .27.258.7.7 0 0 0 .375.097m8.527.887-.336-1.527a12 12 0 0 0-.09-.403q-.062-.269-.137-.574l-.132-.57-.086-.383h-.036l-.085.383-.133.57-.133.582-.094.41-.351 1.512h-1.282l-1.242-4.367h1.188l.504 1.933q.05.204.097.485.047.277.082.539.04.258.059.41h.031a6 6 0 0 1 .031-.301l.059-.387.062-.363q.032-.164.047-.222l.539-2.094h1.313l.512 2.094q.027.113.07.359.047.246.082.508.034.258.039.406h.031a17 17 0 0 1 .145-.941 7 7 0 0 1 .109-.493l.524-1.933h1.168L183.469 491zm5.062-4.449q.606 0 1.043.234.438.231.676.672t.238 1.078v.578h-2.816q.02.505.301.793.285.285.789.285.418 0 .765-.086t.715-.257v.922a3 3 0 0 1-.679.234q-.352.074-.856.074-.655 0-1.164-.242a1.8 1.8 0 0 1-.793-.738q-.285-.497-.285-1.25 0-.766.258-1.274.261-.512.726-.765.465-.258 1.082-.258m.008.847a.8.8 0 0 0-.578.223q-.226.224-.262.699h1.672a1.2 1.2 0 0 0-.097-.472.73.73 0 0 0-.274-.328.8.8 0 0 0-.461-.122m4.719-.847q.606 0 1.043.234.438.231.676.672t.238 1.078v.578h-2.816q.02.505.3.793.285.285.789.285.418 0 .766-.086t.715-.257v.922a3 3 0 0 1-.68.234 4.2 4.2 0 0 1-.855.074q-.657 0-1.164-.242a1.8 1.8 0 0 1-.793-.738q-.285-.497-.285-1.25 0-.766.257-1.274.262-.512.727-.765.464-.258 1.082-.258m.008.847a.8.8 0 0 0-.578.223q-.227.224-.262.699h1.672a1.2 1.2 0 0 0-.098-.472.73.73 0 0 0-.273-.328.8.8 0 0 0-.461-.122m4.109-2.476v2.719q0 .246-.019.492-.02.246-.043.492h.015q.122-.172.246-.34.129-.168.274-.324l1.222-1.328h1.344l-1.734 1.894 1.84 2.473h-1.375l-1.258-1.77-.512.411V491h-1.191v-6.078zm6.817 4.781q0 .445-.211.754-.207.304-.622.465-.413.156-1.031.156-.456 0-.785-.058a3.3 3.3 0 0 1-.656-.196v-.984q.356.16.762.265.41.102.718.102.348 0 .496-.102a.32.32 0 0 0 .153-.273.32.32 0 0 0-.063-.195q-.058-.09-.258-.199a6 6 0 0 0-.625-.293 4 4 0 0 1-.675-.348 1.2 1.2 0 0 1-.391-.414 1.34 1.34 0 0 1-.125-.613q0-.606.469-.911.472-.308 1.261-.308a3.5 3.5 0 0 1 1.536.344l-.36.859a6 6 0 0 0-.613-.231 2 2 0 0 0-.582-.089q-.262 0-.395.07a.23.23 0 0 0-.132.215q0 .106.066.187a.9.9 0 0 0 .266.184q.198.098.582.254.37.152.644.32.274.164.422.41.149.243.149.629"/><path fill="#946000" d="M419.869 294.43q-.695 0-1.234.273a2.46 2.46 0 0 0-.899.774 3.7 3.7 0 0 0-.547 1.226 6.4 6.4 0 0 0-.187 1.617q0 1.212.297 2.071.304.85.937 1.304.633.446 1.633.446a6.3 6.3 0 0 0 1.391-.157q.703-.156 1.523-.445v2.031a7.3 7.3 0 0 1-1.492.446q-.735.14-1.648.14-1.766 0-2.907-.726-1.133-.735-1.679-2.047-.547-1.32-.547-3.078 0-1.298.351-2.375a5.4 5.4 0 0 1 1.032-1.868 4.55 4.55 0 0 1 1.679-1.218q1-.43 2.297-.43.852 0 1.703.219.86.21 1.641.586l-.781 1.969a13 13 0 0 0-1.289-.532 3.9 3.9 0 0 0-1.274-.226m10.203 0q-.695 0-1.234.273a2.46 2.46 0 0 0-.899.774 3.7 3.7 0 0 0-.546 1.226 6.4 6.4 0 0 0-.188 1.617q0 1.212.297 2.071.305.85.937 1.304.633.446 1.633.446a6.3 6.3 0 0 0 1.391-.157q.703-.156 1.523-.445v2.031a7.3 7.3 0 0 1-1.492.446 9 9 0 0 1-1.648.14q-1.766 0-2.907-.726-1.133-.735-1.679-2.047-.547-1.32-.547-3.078 0-1.298.351-2.375a5.4 5.4 0 0 1 1.032-1.868 4.55 4.55 0 0 1 1.679-1.218q1-.43 2.297-.43.852 0 1.703.219.86.21 1.641.586l-.781 1.969a13 13 0 0 0-1.289-.532 3.9 3.9 0 0 0-1.274-.226m5.352 9.57v-11.422h2.422V302h4.633v2zm11.43 0h-2.383v-11.422h6.547v1.984h-4.164v2.946h3.875v1.976h-3.875z"/><path fill="#005ea2" d="M263.56 4.578h3.554q2.281 0 3.453.64 1.173.642 1.172 2.25 0 .65-.211 1.173a2.1 2.1 0 0 1-.593.859q-.392.336-.954.438v.078a3.1 3.1 0 0 1 1.032.406q.46.28.734.828.281.539.281 1.438 0 1.038-.508 1.78-.507.743-1.453 1.141-.937.39-2.234.391h-4.273zm2.421 4.524h1.407q1.055 0 1.461-.329.406-.336.406-.984 0-.656-.485-.937-.476-.29-1.515-.29h-1.274zm0 1.921V14h1.579q1.094 0 1.523-.422.43-.422.43-1.133 0-.42-.188-.742-.188-.32-.633-.5-.437-.18-1.211-.18zm13.18-4.593a2.7 2.7 0 0 0-1.234.273 2.46 2.46 0 0 0-.899.774 3.8 3.8 0 0 0-.547 1.226 6.4 6.4 0 0 0-.187 1.617q0 1.212.297 2.07.304.852.937 1.305.633.446 1.633.446.695 0 1.391-.157.702-.156 1.523-.445v2.031a7.3 7.3 0 0 1-1.492.446q-.735.14-1.648.14-1.766 0-2.907-.726-1.133-.735-1.679-2.047-.547-1.32-.547-3.078 0-1.298.351-2.375a5.4 5.4 0 0 1 1.032-1.867 4.56 4.56 0 0 1 1.679-1.22q1-.429 2.297-.429.852 0 1.703.219.86.21 1.641.586l-.781 1.968q-.64-.305-1.289-.53a3.9 3.9 0 0 0-1.274-.227m14.828 3.75q0 1.93-.742 3.226-.734 1.29-2.133 1.946-1.398.648-3.367.648h-3.234V4.578h3.586q1.797 0 3.117.64a4.63 4.63 0 0 1 2.047 1.884q.726 1.242.726 3.078m-2.515.062q0-1.265-.375-2.078-.368-.82-1.094-1.21-.719-.391-1.781-.391h-1.289V14h1.039q1.773 0 2.632-.945.868-.945.868-2.813M303.349 16l-.829-2.719h-4.164L297.528 16h-2.609l4.031-11.469h2.961L305.958 16zm-1.407-4.75-.828-2.656a28 28 0 0 0-.211-.68 62 62 0 0 0-.258-.851 21 21 0 0 1-.203-.758q-.078.32-.218.797-.133.468-.258.89t-.18.602l-.82 2.656z"/><circle cx="138.166" cy="345.156" r="8.332" fill="#fff"/><path fill="#216e1f" fill-rule="evenodd" d="M138.165 336.823a8.336 8.336 0 0 0-8.333 8.333c0 4.6 3.733 8.334 8.333 8.334s8.334-3.734 8.334-8.334-3.734-8.333-8.334-8.333m-1.666 12.5-4.167-4.167 1.175-1.175 2.992 2.984 6.325-6.325 1.175 1.183z" clip-rule="evenodd"/></g><defs><clipPath id="a"><path fill="#fff" d="M0 0h495.197v521H0z"/></clipPath></defs></svg>