<svg xmlns="http://www.w3.org/2000/svg" width="80" height="96" viewBox="0 0 80 96">
    <g fill="none">
        <path fill="#2488FF" d="M10 69.517c-5.52.008-9.992 4.45-10 9.931 0 5.485 4.477 9.931 10 9.931h70V69.517H10z"/>
        <path fill="#D1E7F8" d="M80 0v69.517H10c-5.52.008-9.992 4.45-10 9.931V9.931C0 4.446 4.477 0 10 0h70z"/>
        <path fill="#ED1C24" d="M53.333 79.448L53.333 89.379 53.333 96 58.333 92.69 63.333 96 63.333 89.379 63.333 79.448z"/>
        <path fill="#FF5023" d="M23.333 13.241L66.667 13.241 66.667 28.138 23.333 28.138z"/>
        <path fill="#9BC9FF" d="M0 9.931v69.517c.008-5.481 4.48-9.923 10-9.93V0C4.477 0 0 4.446 0 9.931z"/>
        <path fill="#BDDBFF" d="M16.667 69.517H80V16.552c0 29.276-28.333 52.965-63.333 52.965z"/>
        <rect width="70" height="3.31" x="5" y="77.793" fill="#F1F2F2" rx="1.655"/>
    </g>
</svg>
