<svg width="296" height="543" viewBox="0 0 296 543" fill="none" xmlns="http://www.w3.org/2000/svg">
<rect width="296" height="543" fill="white"/>
<rect y="190" width="153" height="159" fill="#F1F1F1"/>
<rect x="161" y="190" width="135" height="159" fill="#DAFFC3"/>
<rect x="79" width="138" height="53" fill="#F7F7F7"/>
<rect x="79.5" y="0.5" width="137" height="52" stroke="black" stroke-opacity="0.8"/>
<path d="M139.093 22.8877C138.541 22.8877 138.045 22.9834 137.603 23.1748C137.165 23.3617 136.791 23.6351 136.481 23.9951C136.176 24.3506 135.941 24.7812 135.777 25.2871C135.613 25.793 135.531 26.3626 135.531 26.9961C135.531 27.8346 135.661 28.5638 135.921 29.1836C136.185 29.7988 136.577 30.2751 137.097 30.6123C137.621 30.9495 138.275 31.1182 139.059 31.1182C139.505 31.1182 139.924 31.0817 140.316 31.0088C140.713 30.9313 141.098 30.8356 141.472 30.7217V31.7334C141.107 31.8701 140.724 31.9704 140.323 32.0342C139.922 32.1025 139.446 32.1367 138.895 32.1367C137.878 32.1367 137.028 31.9271 136.345 31.5078C135.666 31.084 135.155 30.487 134.813 29.7168C134.476 28.9466 134.308 28.0374 134.308 26.9893C134.308 26.2327 134.412 25.5423 134.622 24.918C134.836 24.2891 135.146 23.7467 135.552 23.291C135.962 22.8353 136.463 22.4844 137.056 22.2383C137.653 21.9876 138.336 21.8623 139.106 21.8623C139.612 21.8623 140.1 21.9124 140.569 22.0127C141.039 22.113 141.463 22.2565 141.841 22.4434L141.376 23.4277C141.057 23.2819 140.706 23.1566 140.323 23.0518C139.945 22.9424 139.535 22.8877 139.093 22.8877ZM148.034 32L144.678 23.1543H144.623C144.641 23.3411 144.657 23.569 144.671 23.8379C144.685 24.1068 144.696 24.4007 144.705 24.7197C144.714 25.0342 144.719 25.3555 144.719 25.6836V32H143.639V22.0059H145.361L148.526 30.3184H148.574L151.787 22.0059H153.496V32H152.348V25.6016C152.348 25.3053 152.352 25.0091 152.361 24.7129C152.37 24.4121 152.382 24.1296 152.396 23.8652C152.409 23.5964 152.423 23.3639 152.437 23.168H152.382L148.984 32H148.034ZM161.87 29.3408C161.87 29.9333 161.722 30.4391 161.426 30.8584C161.134 31.2731 160.724 31.5898 160.195 31.8086C159.667 32.0273 159.045 32.1367 158.329 32.1367C157.951 32.1367 157.593 32.1185 157.256 32.082C156.919 32.0456 156.609 31.9932 156.326 31.9248C156.044 31.8564 155.795 31.7721 155.581 31.6719V30.5576C155.923 30.6989 156.34 30.8311 156.832 30.9541C157.324 31.0726 157.839 31.1318 158.377 31.1318C158.878 31.1318 159.302 31.0658 159.648 30.9336C159.995 30.7969 160.257 30.6032 160.435 30.3525C160.617 30.0973 160.708 29.792 160.708 29.4365C160.708 29.0947 160.633 28.8099 160.482 28.582C160.332 28.3496 160.081 28.14 159.73 27.9531C159.384 27.7617 158.91 27.5589 158.309 27.3447C157.885 27.1943 157.511 27.0303 157.188 26.8525C156.864 26.6702 156.593 26.4652 156.374 26.2373C156.155 26.0094 155.989 25.7451 155.875 25.4443C155.766 25.1436 155.711 24.7995 155.711 24.4121C155.711 23.8789 155.845 23.4232 156.114 23.0449C156.388 22.6621 156.764 22.3704 157.242 22.1699C157.725 21.9648 158.279 21.8623 158.903 21.8623C159.437 21.8623 159.929 21.9124 160.38 22.0127C160.836 22.113 161.253 22.2474 161.631 22.416L161.269 23.4141C160.909 23.2637 160.526 23.1383 160.12 23.0381C159.719 22.9378 159.304 22.8877 158.876 22.8877C158.448 22.8877 158.085 22.9515 157.789 23.0791C157.497 23.2021 157.274 23.3776 157.119 23.6055C156.964 23.8333 156.887 24.1045 156.887 24.4189C156.887 24.7699 156.96 25.0615 157.105 25.2939C157.256 25.5264 157.493 25.7337 157.816 25.916C158.145 26.0938 158.577 26.2806 159.115 26.4766C159.703 26.6908 160.202 26.9186 160.612 27.1602C161.022 27.3971 161.335 27.6888 161.549 28.0352C161.763 28.377 161.87 28.8122 161.87 29.3408Z" fill="black"/>
<path d="M181 241L189.66 226L172.34 226L181 241ZM181 54L179.5 54L179.5 56.9219L181 56.9219L182.5 56.9219L182.5 54L181 54ZM181 62.7656L179.5 62.7656L179.5 68.6094L181 68.6094L182.5 68.6094L182.5 62.7656L181 62.7656ZM181 74.4531L179.5 74.4531L179.5 80.2969L181 80.2969L182.5 80.2969L182.5 74.4531L181 74.4531ZM181 86.1406L179.5 86.1406L179.5 91.9844L181 91.9844L182.5 91.9844L182.5 86.1406L181 86.1406ZM181 97.8281L179.5 97.8281L179.5 103.672L181 103.672L182.5 103.672L182.5 97.8281L181 97.8281ZM181 109.516L179.5 109.516L179.5 115.359L181 115.359L182.5 115.359L182.5 109.516L181 109.516ZM181 121.203L179.5 121.203L179.5 127.047L181 127.047L182.5 127.047L182.5 121.203L181 121.203ZM181 132.891L179.5 132.891L179.5 138.734L181 138.734L182.5 138.734L182.5 132.891L181 132.891ZM181 144.578L179.5 144.578L179.5 150.422L181 150.422L182.5 150.422L182.5 144.578L181 144.578ZM181 156.266L179.5 156.266L179.5 162.109L181 162.109L182.5 162.109L182.5 156.266L181 156.266ZM181 167.953L179.5 167.953L179.5 173.797L181 173.797L182.5 173.797L182.5 167.953L181 167.953ZM181 179.641L179.5 179.641L179.5 185.484L181 185.484L182.5 185.484L182.5 179.641L181 179.641ZM181 191.328L179.5 191.328L179.5 197.172L181 197.172L182.5 197.172L182.5 191.328L181 191.328ZM181 203.016L179.5 203.016L179.5 208.859L181 208.859L182.5 208.859L182.5 203.016L181 203.016ZM181 214.703L179.5 214.703L179.5 220.547L181 220.547L182.5 220.547L182.5 214.703L181 214.703ZM181 226.391L179.5 226.391L179.5 232.234L181 232.234L182.5 232.234L182.5 226.391L181 226.391ZM181 241L189.66 226L172.34 226L181 241ZM181 54L179.5 54L179.5 56.9219L181 56.9219L182.5 56.9219L182.5 54L181 54ZM181 62.7656L179.5 62.7656L179.5 68.6094L181 68.6094L182.5 68.6094L182.5 62.7656L181 62.7656ZM181 74.4531L179.5 74.4531L179.5 80.2969L181 80.2969L182.5 80.2969L182.5 74.4531L181 74.4531ZM181 86.1406L179.5 86.1406L179.5 91.9844L181 91.9844L182.5 91.9844L182.5 86.1406L181 86.1406ZM181 97.8281L179.5 97.8281L179.5 103.672L181 103.672L182.5 103.672L182.5 97.8281L181 97.8281ZM181 109.516L179.5 109.516L179.5 115.359L181 115.359L182.5 115.359L182.5 109.516L181 109.516ZM181 121.203L179.5 121.203L179.5 127.047L181 127.047L182.5 127.047L182.5 121.203L181 121.203ZM181 132.891L179.5 132.891L179.5 138.734L181 138.734L182.5 138.734L182.5 132.891L181 132.891ZM181 144.578L179.5 144.578L179.5 150.422L181 150.422L182.5 150.422L182.5 144.578L181 144.578ZM181 156.266L179.5 156.266L179.5 162.109L181 162.109L182.5 162.109L182.5 156.266L181 156.266ZM181 167.953L179.5 167.953L179.5 173.797L181 173.797L182.5 173.797L182.5 167.953L181 167.953ZM181 179.641L179.5 179.641L179.5 185.484L181 185.484L182.5 185.484L182.5 179.641L181 179.641ZM181 191.328L179.5 191.328L179.5 197.172L181 197.172L182.5 197.172L182.5 191.328L181 191.328ZM181 203.016L179.5 203.016L179.5 208.859L181 208.859L182.5 208.859L182.5 203.016L181 203.016ZM181 214.703L179.5 214.703L179.5 220.547L181 220.547L182.5 220.547L182.5 214.703L181 214.703ZM181 226.391L179.5 226.391L179.5 232.234L181 232.234L182.5 232.234L182.5 226.391L181 226.391Z" fill="#54AECF"/>
<path d="M181 392L189.66 377L172.34 377L181 392ZM181 313L179.5 313L179.5 315.821L181 315.821L182.5 315.821L182.5 313L181 313ZM181 321.464L179.5 321.464L179.5 327.107L181 327.107L182.5 327.107L182.5 321.464L181 321.464ZM181 332.75L179.5 332.75L179.5 338.393L181 338.393L182.5 338.393L182.5 332.75L181 332.75ZM181 344.036L179.5 344.036L179.5 349.679L181 349.679L182.5 349.679L182.5 344.036L181 344.036ZM181 355.321L179.5 355.321L179.5 360.964L181 360.964L182.5 360.964L182.5 355.321L181 355.321ZM181 366.607L179.5 366.607L179.5 372.25L181 372.25L182.5 372.25L182.5 366.607L181 366.607ZM181 377.893L179.5 377.893L179.5 383.536L181 383.536L182.5 383.536L182.5 377.893L181 377.893ZM181 392L189.66 377L172.34 377L181 392ZM181 313L179.5 313L179.5 315.821L181 315.821L182.5 315.821L182.5 313L181 313ZM181 321.464L179.5 321.464L179.5 327.107L181 327.107L182.5 327.107L182.5 321.464L181 321.464ZM181 332.75L179.5 332.75L179.5 338.393L181 338.393L182.5 338.393L182.5 332.75L181 332.75ZM181 344.036L179.5 344.036L179.5 349.679L181 349.679L182.5 349.679L182.5 344.036L181 344.036ZM181 355.321L179.5 355.321L179.5 360.964L181 360.964L182.5 360.964L182.5 355.321L181 355.321ZM181 366.607L179.5 366.607L179.5 372.25L181 372.25L182.5 372.25L182.5 366.607L181 366.607ZM181 377.893L179.5 377.893L179.5 383.536L181 383.536L182.5 383.536L182.5 377.893L181 377.893Z" fill="#54AECF"/>
<path d="M181 490L189.66 475H172.34L181 490ZM181 444H179.5V446.875H181H182.5V444H181ZM181 452.625H179.5V458.375H181H182.5V452.625H181ZM181 464.125H179.5V469.875H181H182.5V464.125H181ZM181 475.625H179.5V481.375H181H182.5V475.625H181ZM181 490L189.66 475H172.34L181 490ZM181 444H179.5V446.875H181H182.5V444H181ZM181 452.625H179.5V458.375H181H182.5V452.625H181ZM181 464.125H179.5V469.875H181H182.5V464.125H181ZM181 475.625H179.5V481.375H181H182.5V475.625H181Z" fill="#54AECF"/>
<path d="M109.87 241L118.529 225.886L101.211 226.113L109.87 241ZM109.87 54L108.37 54.0197L108.37 56.9415L109.87 56.9219L111.369 56.9022L111.369 53.9803L109.87 54ZM109.87 62.7656L108.37 62.7853L108.37 68.629L109.87 68.6094L111.369 68.5897L111.369 62.746L109.87 62.7656ZM109.87 74.4531L108.37 74.4728L108.37 80.3165L109.87 80.2969L111.369 80.2772L111.369 74.4335L109.87 74.4531ZM109.87 86.1406L108.37 86.1603L108.37 92.004L109.87 91.9844L111.369 91.9647L111.369 86.1209L109.87 86.1406ZM109.87 97.8281L108.37 97.8478L108.37 103.692L109.87 103.672L111.369 103.652L111.369 97.8085L109.87 97.8281ZM109.87 109.516L108.37 109.535L108.37 115.379L109.87 115.359L111.369 115.34L111.369 109.496L109.87 109.516ZM109.87 121.203L108.37 121.223L108.37 127.067L109.87 127.047L111.369 127.027L111.369 121.183L109.87 121.203ZM109.87 132.891L108.37 132.91L108.37 138.754L109.87 138.734L111.369 138.715L111.369 132.871L109.87 132.891ZM109.87 144.578L108.37 144.598L108.37 150.442L109.87 150.422L111.369 150.402L111.369 144.558L109.87 144.578ZM109.87 156.266L108.37 156.285L108.37 162.129L109.87 162.109L111.369 162.09L111.369 156.246L109.87 156.266ZM109.87 167.953L108.37 167.973L108.37 173.817L109.87 173.797L111.369 173.777L111.369 167.933L109.87 167.953ZM109.87 179.641L108.37 179.66L108.37 185.504L109.87 185.484L111.369 185.465L111.369 179.621L109.87 179.641ZM109.87 191.328L108.37 191.348L108.37 197.192L109.87 197.172L111.369 197.152L111.369 191.308L109.87 191.328ZM109.87 203.016L108.37 203.035L108.37 208.879L109.87 208.859L111.369 208.84L111.369 202.996L109.87 203.016ZM109.87 214.703L108.37 214.723L108.37 220.567L109.87 220.547L111.369 220.527L111.369 214.683L109.87 214.703ZM109.87 226.391L108.37 226.41L108.37 232.254L109.87 232.234L111.369 232.215L111.369 226.371L109.87 226.391ZM109.87 241L118.529 225.886L101.211 226.113L109.87 241ZM109.87 54L108.37 54.0197L108.37 56.9415L109.87 56.9219L111.369 56.9022L111.369 53.9803L109.87 54ZM109.87 62.7656L108.37 62.7853L108.37 68.629L109.87 68.6094L111.369 68.5897L111.369 62.746L109.87 62.7656ZM109.87 74.4531L108.37 74.4728L108.37 80.3165L109.87 80.2969L111.369 80.2772L111.369 74.4335L109.87 74.4531ZM109.87 86.1406L108.37 86.1603L108.37 92.004L109.87 91.9844L111.369 91.9647L111.369 86.1209L109.87 86.1406ZM109.87 97.8281L108.37 97.8478L108.37 103.692L109.87 103.672L111.369 103.652L111.369 97.8085L109.87 97.8281ZM109.87 109.516L108.37 109.535L108.37 115.379L109.87 115.359L111.369 115.34L111.369 109.496L109.87 109.516ZM109.87 121.203L108.37 121.223L108.37 127.067L109.87 127.047L111.369 127.027L111.369 121.183L109.87 121.203ZM109.87 132.891L108.37 132.91L108.37 138.754L109.87 138.734L111.369 138.715L111.369 132.871L109.87 132.891ZM109.87 144.578L108.37 144.598L108.37 150.442L109.87 150.422L111.369 150.402L111.369 144.558L109.87 144.578ZM109.87 156.266L108.37 156.285L108.37 162.129L109.87 162.109L111.369 162.09L111.369 156.246L109.87 156.266ZM109.87 167.953L108.37 167.973L108.37 173.817L109.87 173.797L111.369 173.777L111.369 167.933L109.87 167.953ZM109.87 179.641L108.37 179.66L108.37 185.504L109.87 185.484L111.369 185.465L111.369 179.621L109.87 179.641ZM109.87 191.328L108.37 191.348L108.37 197.192L109.87 197.172L111.369 197.152L111.369 191.308L109.87 191.328ZM109.87 203.016L108.37 203.035L108.37 208.879L109.87 208.859L111.369 208.84L111.369 202.996L109.87 203.016ZM109.87 214.703L108.37 214.723L108.37 220.567L109.87 220.547L111.369 220.527L111.369 214.683L109.87 214.703ZM109.87 226.391L108.37 226.41L108.37 232.254L109.87 232.234L111.369 232.215L111.369 226.371L109.87 226.391Z" fill="#54AECF"/>
<path d="M110.87 392L119.53 377H102.209L110.87 392ZM110.87 313H109.37V315.821H110.87H112.37V313H110.87ZM110.87 321.464H109.37V327.107H110.87H112.37V321.464H110.87ZM110.87 332.75H109.37V338.393H110.87H112.37V332.75H110.87ZM110.87 344.036H109.37V349.679H110.87H112.37V344.036H110.87ZM110.87 355.321H109.37V360.964H110.87H112.37V355.321H110.87ZM110.87 366.607H109.37V372.25H110.87H112.37V366.607H110.87ZM110.87 377.893H109.37V383.536H110.87H112.37V377.893H110.87ZM110.87 392L119.53 377H102.209L110.87 392ZM110.87 313H109.37V315.821H110.87H112.37V313H110.87ZM110.87 321.464H109.37V327.107H110.87H112.37V321.464H110.87ZM110.87 332.75H109.37V338.393H110.87H112.37V332.75H110.87ZM110.87 344.036H109.37V349.679H110.87H112.37V344.036H110.87ZM110.87 355.321H109.37V360.964H110.87H112.37V355.321H110.87ZM110.87 366.607H109.37V372.25H110.87H112.37V366.607H110.87ZM110.87 377.893H109.37V383.536H110.87H112.37V377.893H110.87Z" fill="#54AECF"/>
<path d="M110.87 490L119.53 475L102.209 475L110.87 490ZM110.87 444L109.37 444L109.37 446.875L110.87 446.875L112.37 446.875L112.37 444L110.87 444ZM110.87 452.625L109.37 452.625L109.37 458.375L110.87 458.375L112.37 458.375L112.37 452.625L110.87 452.625ZM110.87 464.125L109.37 464.125L109.37 469.875L110.87 469.875L112.37 469.875L112.37 464.125L110.87 464.125ZM110.87 475.625L109.37 475.625L109.37 481.375L110.87 481.375L112.37 481.375L112.37 475.625L110.87 475.625ZM110.87 490L119.53 475L102.209 475L110.87 490ZM110.87 444L109.37 444L109.37 446.875L110.87 446.875L112.37 446.875L112.37 444L110.87 444ZM110.87 452.625L109.37 452.625L109.37 458.375L110.87 458.375L112.37 458.375L112.37 452.625L110.87 452.625ZM110.87 464.125L109.37 464.125L109.37 469.875L110.87 469.875L112.37 469.875L112.37 464.125L110.87 464.125ZM110.87 475.625L109.37 475.625L109.37 481.375L110.87 481.375L112.37 481.375L112.37 475.625L110.87 475.625Z" fill="#54AECF"/>
<path d="M201 241L209.66 226H192.34L201 241ZM201 54H199.5V227.5H201H202.5V54H201Z" fill="#1C4E9D"/>
<path d="M201 392L209.66 377L192.34 377L201 392ZM201 313L199.5 313L199.5 378.5L201 378.5L202.5 378.5L202.5 313L201 313Z" fill="#1C4E9D"/>
<path d="M201 490L209.66 475H192.34L201 490ZM201 444H199.5V476.5H201H202.5V444H201Z" fill="#1C4E9D"/>
<path d="M91 490L99.6603 475L82.3397 475L91 490ZM91 444L89.5 444L89.5 476.5L91 476.5L92.5 476.5L92.5 444L91 444Z" fill="#1C4E9D"/>
<path d="M91 344.159L92.5 344.159L92.5 342.659L91 342.659L91 344.159ZM91 392L99.6602 377L82.3397 377L91 392ZM71 344.159L69.5 344.159L69.5 345.659L71 345.659L71 344.159ZM91 344.159L89.5 344.159L89.5 378.5L91 378.5L92.5 378.5L92.5 344.159L91 344.159ZM71 313L69.5 313L69.5 344.159L71 344.159L72.5 344.159L72.5 313L71 313ZM71 344.159L71 345.659L91 345.659L91 344.159L91 342.659L71 342.659L71 344.159Z" fill="#1C4E9D"/>
<path d="M95 186.299L95 187.799L96.5 187.799L96.5 186.299L95 186.299ZM71 186.299L71 184.799L69.5 184.799L69.5 186.299L71 186.299ZM71 241L79.6603 226L62.3398 226L71 241ZM95 53L93.5 53L93.5 186.299L95 186.299L96.5 186.299L96.5 53L95 53ZM95 186.299L95 184.799L71 184.799L71 186.299L71 187.799L95 187.799L95 186.299ZM71 186.299L69.5 186.299L69.5 227.5L71 227.5L72.5 227.5L72.5 186.299L71 186.299Z" fill="#1C4E9D"/>
<rect x="42.5" y="132.5" width="210" height="27" rx="7.5" fill="white"/>
<rect x="42.5" y="132.5" width="210" height="27" rx="7.5" stroke="#1C4E9D"/>
<path d="M66.6172 151.5H64.5322V141.506H70.2607V143.242H66.6172V145.819H70.0078V147.549H66.6172V151.5ZM79.0654 143.857V151.5H77.4658L77.1855 150.522H77.0762C76.9121 150.782 76.707 150.994 76.4609 151.158C76.2148 151.322 75.9437 151.443 75.6475 151.521C75.3512 151.598 75.0436 151.637 74.7246 151.637C74.1777 151.637 73.7015 151.541 73.2959 151.35C72.8903 151.154 72.5736 150.851 72.3457 150.44C72.1224 150.03 72.0107 149.497 72.0107 148.841V143.857H74.0957V148.321C74.0957 148.868 74.1937 149.281 74.3896 149.559C74.5856 149.837 74.8978 149.976 75.3262 149.976C75.75 149.976 76.0827 149.88 76.3242 149.688C76.5658 149.493 76.7344 149.208 76.8301 148.834C76.9303 148.456 76.9805 147.995 76.9805 147.453V143.857H79.0654ZM83.3379 151.5H81.2529V140.863H83.3379V151.5ZM87.6172 151.5H85.5322V140.863H87.6172V151.5ZM88.7178 143.857H91.001L92.4434 148.157C92.4889 148.294 92.5277 148.433 92.5596 148.574C92.5915 148.715 92.6188 148.861 92.6416 149.012C92.6644 149.162 92.6826 149.319 92.6963 149.483H92.7373C92.7646 149.237 92.8011 149.007 92.8467 148.793C92.8968 148.579 92.9583 148.367 93.0312 148.157L94.4463 143.857H96.6816L93.4482 152.478C93.2523 153.006 92.9971 153.446 92.6826 153.797C92.3682 154.152 92.0059 154.419 91.5957 154.597C91.1901 154.774 90.7435 154.863 90.2559 154.863C90.0189 154.863 89.8138 154.85 89.6406 154.822C89.4674 154.799 89.3193 154.774 89.1963 154.747V153.093C89.292 153.116 89.4128 153.136 89.5586 153.154C89.7044 153.173 89.8571 153.182 90.0166 153.182C90.3083 153.182 90.5589 153.12 90.7686 152.997C90.9782 152.874 91.1536 152.708 91.2949 152.498C91.4362 152.293 91.5479 152.067 91.6299 151.821L91.7529 151.445L88.7178 143.857ZM104.55 143.7C105.575 143.7 106.361 143.924 106.908 144.37C107.455 144.817 107.729 145.496 107.729 146.407V151.5H106.272L105.869 150.461H105.814C105.596 150.734 105.372 150.958 105.145 151.131C104.917 151.304 104.655 151.432 104.358 151.514C104.062 151.596 103.702 151.637 103.278 151.637C102.827 151.637 102.422 151.55 102.062 151.377C101.706 151.204 101.426 150.939 101.221 150.584C101.016 150.224 100.913 149.768 100.913 149.217C100.913 148.406 101.198 147.809 101.768 147.426C102.337 147.038 103.192 146.824 104.331 146.783L105.657 146.742V146.407C105.657 146.006 105.552 145.712 105.343 145.525C105.133 145.339 104.841 145.245 104.468 145.245C104.099 145.245 103.736 145.298 103.381 145.402C103.025 145.507 102.67 145.639 102.314 145.799L101.624 144.391C102.03 144.176 102.483 144.008 102.984 143.885C103.49 143.762 104.012 143.7 104.55 143.7ZM105.657 147.959L104.851 147.986C104.176 148.005 103.707 148.125 103.442 148.349C103.183 148.572 103.053 148.866 103.053 149.23C103.053 149.549 103.146 149.777 103.333 149.914C103.52 150.046 103.764 150.112 104.064 150.112C104.511 150.112 104.887 149.98 105.192 149.716C105.502 149.451 105.657 149.076 105.657 148.588V147.959ZM112.302 151.637C111.45 151.637 110.755 151.304 110.217 150.639C109.684 149.969 109.417 148.987 109.417 147.692C109.417 146.384 109.688 145.396 110.23 144.726C110.773 144.051 111.481 143.714 112.356 143.714C112.721 143.714 113.042 143.764 113.32 143.864C113.598 143.965 113.838 144.099 114.038 144.268C114.243 144.436 114.416 144.625 114.558 144.835H114.626C114.599 144.689 114.564 144.475 114.523 144.192C114.487 143.905 114.469 143.611 114.469 143.311V140.863H116.561V151.5H114.961L114.558 150.509H114.469C114.337 150.718 114.17 150.91 113.97 151.083C113.774 151.252 113.539 151.386 113.266 151.486C112.992 151.587 112.671 151.637 112.302 151.637ZM113.033 149.976C113.603 149.976 114.004 149.807 114.236 149.47C114.473 149.128 114.599 148.615 114.612 147.932V147.706C114.612 146.963 114.498 146.396 114.271 146.004C114.043 145.607 113.619 145.409 112.999 145.409C112.539 145.409 112.179 145.607 111.919 146.004C111.659 146.4 111.529 146.972 111.529 147.72C111.529 148.467 111.659 149.03 111.919 149.408C112.183 149.786 112.555 149.976 113.033 149.976ZM118.126 154.863C117.889 154.863 117.643 154.845 117.388 154.809C117.132 154.777 116.921 154.738 116.752 154.692V153.052C116.921 153.097 117.08 153.129 117.23 153.147C117.376 153.17 117.543 153.182 117.729 153.182C118.012 153.182 118.251 153.102 118.447 152.942C118.643 152.787 118.741 152.48 118.741 152.02V143.857H120.826V152.327C120.826 152.792 120.737 153.216 120.56 153.599C120.382 153.986 120.095 154.294 119.698 154.521C119.302 154.749 118.778 154.863 118.126 154.863ZM118.652 141.882C118.652 141.49 118.762 141.223 118.98 141.082C119.204 140.936 119.473 140.863 119.787 140.863C120.097 140.863 120.364 140.936 120.587 141.082C120.81 141.223 120.922 141.49 120.922 141.882C120.922 142.269 120.81 142.538 120.587 142.688C120.364 142.834 120.097 142.907 119.787 142.907C119.473 142.907 119.204 142.834 118.98 142.688C118.762 142.538 118.652 142.269 118.652 141.882ZM130.034 143.857V151.5H128.435L128.154 150.522H128.045C127.881 150.782 127.676 150.994 127.43 151.158C127.184 151.322 126.912 151.443 126.616 151.521C126.32 151.598 126.012 151.637 125.693 151.637C125.146 151.637 124.67 151.541 124.265 151.35C123.859 151.154 123.542 150.851 123.314 150.44C123.091 150.03 122.979 149.497 122.979 148.841V143.857H125.064V148.321C125.064 148.868 125.162 149.281 125.358 149.559C125.554 149.837 125.867 149.976 126.295 149.976C126.719 149.976 127.051 149.88 127.293 149.688C127.535 149.493 127.703 149.208 127.799 148.834C127.899 148.456 127.949 147.995 127.949 147.453V143.857H130.034ZM134.642 151.637C133.789 151.637 133.094 151.304 132.557 150.639C132.023 149.969 131.757 148.987 131.757 147.692C131.757 146.384 132.028 145.396 132.57 144.726C133.113 144.051 133.821 143.714 134.696 143.714C135.061 143.714 135.382 143.764 135.66 143.864C135.938 143.965 136.177 144.099 136.378 144.268C136.583 144.436 136.756 144.625 136.897 144.835H136.966C136.938 144.689 136.904 144.475 136.863 144.192C136.827 143.905 136.809 143.611 136.809 143.311V140.863H138.9V151.5H137.301L136.897 150.509H136.809C136.676 150.718 136.51 150.91 136.31 151.083C136.114 151.252 135.879 151.386 135.605 151.486C135.332 151.587 135.011 151.637 134.642 151.637ZM135.373 149.976C135.943 149.976 136.344 149.807 136.576 149.47C136.813 149.128 136.938 148.615 136.952 147.932V147.706C136.952 146.963 136.838 146.396 136.61 146.004C136.382 145.607 135.959 145.409 135.339 145.409C134.879 145.409 134.519 145.607 134.259 146.004C133.999 146.4 133.869 146.972 133.869 147.72C133.869 148.467 133.999 149.03 134.259 149.408C134.523 149.786 134.895 149.976 135.373 149.976ZM143.166 143.857V151.5H141.081V143.857H143.166ZM142.127 140.863C142.437 140.863 142.703 140.936 142.927 141.082C143.15 141.223 143.262 141.49 143.262 141.882C143.262 142.269 143.15 142.538 142.927 142.688C142.703 142.834 142.437 142.907 142.127 142.907C141.812 142.907 141.544 142.834 141.32 142.688C141.102 142.538 140.992 142.269 140.992 141.882C140.992 141.49 141.102 141.223 141.32 141.082C141.544 140.936 141.812 140.863 142.127 140.863ZM148.464 151.637C147.707 151.637 147.062 151.5 146.529 151.227C145.996 150.949 145.59 150.52 145.312 149.941C145.035 149.363 144.896 148.622 144.896 147.72C144.896 146.785 145.053 146.024 145.367 145.437C145.686 144.844 146.126 144.409 146.687 144.131C147.252 143.853 147.906 143.714 148.648 143.714C149.177 143.714 149.633 143.766 150.016 143.871C150.403 143.971 150.74 144.092 151.027 144.233L150.412 145.847C150.084 145.715 149.779 145.607 149.496 145.525C149.214 145.439 148.931 145.396 148.648 145.396C148.284 145.396 147.981 145.482 147.739 145.655C147.498 145.824 147.318 146.079 147.199 146.421C147.081 146.763 147.021 147.191 147.021 147.706C147.021 148.212 147.085 148.631 147.213 148.964C147.34 149.297 147.525 149.545 147.767 149.709C148.008 149.868 148.302 149.948 148.648 149.948C149.081 149.948 149.466 149.891 149.804 149.777C150.141 149.659 150.469 149.495 150.788 149.285V151.069C150.469 151.27 150.134 151.413 149.783 151.5C149.437 151.591 148.997 151.637 148.464 151.637ZM155.696 143.7C156.722 143.7 157.508 143.924 158.055 144.37C158.602 144.817 158.875 145.496 158.875 146.407V151.5H157.419L157.016 150.461H156.961C156.742 150.734 156.519 150.958 156.291 151.131C156.063 151.304 155.801 151.432 155.505 151.514C155.209 151.596 154.849 151.637 154.425 151.637C153.974 151.637 153.568 151.55 153.208 151.377C152.853 151.204 152.572 150.939 152.367 150.584C152.162 150.224 152.06 149.768 152.06 149.217C152.06 148.406 152.344 147.809 152.914 147.426C153.484 147.038 154.338 146.824 155.478 146.783L156.804 146.742V146.407C156.804 146.006 156.699 145.712 156.489 145.525C156.28 145.339 155.988 145.245 155.614 145.245C155.245 145.245 154.883 145.298 154.527 145.402C154.172 145.507 153.816 145.639 153.461 145.799L152.771 144.391C153.176 144.176 153.63 144.008 154.131 143.885C154.637 143.762 155.159 143.7 155.696 143.7ZM156.804 147.959L155.997 147.986C155.323 148.005 154.853 148.125 154.589 148.349C154.329 148.572 154.199 148.866 154.199 149.23C154.199 149.549 154.293 149.777 154.479 149.914C154.666 150.046 154.91 150.112 155.211 150.112C155.658 150.112 156.034 149.98 156.339 149.716C156.649 149.451 156.804 149.076 156.804 148.588V147.959ZM164.248 149.976C164.476 149.976 164.697 149.953 164.911 149.907C165.13 149.862 165.346 149.805 165.561 149.736V151.288C165.337 151.388 165.059 151.47 164.727 151.534C164.398 151.603 164.038 151.637 163.646 151.637C163.191 151.637 162.781 151.564 162.416 151.418C162.056 151.268 161.771 151.01 161.562 150.646C161.356 150.276 161.254 149.764 161.254 149.107V145.423H160.256V144.541L161.404 143.844L162.006 142.23H163.339V143.857H165.479V145.423H163.339V149.107C163.339 149.399 163.421 149.618 163.585 149.764C163.754 149.905 163.975 149.976 164.248 149.976ZM170.264 143.714C170.97 143.714 171.578 143.851 172.089 144.124C172.599 144.393 172.993 144.785 173.271 145.3C173.549 145.815 173.688 146.444 173.688 147.187V148.198H168.76C168.783 148.786 168.958 149.249 169.286 149.586C169.619 149.919 170.079 150.085 170.667 150.085C171.155 150.085 171.601 150.035 172.007 149.935C172.412 149.834 172.829 149.684 173.258 149.483V151.097C172.88 151.284 172.483 151.42 172.068 151.507C171.658 151.593 171.159 151.637 170.571 151.637C169.806 151.637 169.127 151.495 168.534 151.213C167.946 150.93 167.484 150.5 167.146 149.921C166.814 149.342 166.647 148.613 166.647 147.733C166.647 146.84 166.798 146.097 167.099 145.505C167.404 144.908 167.828 144.461 168.37 144.165C168.912 143.864 169.544 143.714 170.264 143.714ZM170.277 145.197C169.872 145.197 169.535 145.327 169.266 145.587C169.001 145.847 168.849 146.255 168.808 146.811H171.733C171.729 146.501 171.672 146.225 171.562 145.983C171.458 145.742 171.298 145.55 171.084 145.409C170.874 145.268 170.605 145.197 170.277 145.197ZM177.804 151.637C176.951 151.637 176.257 151.304 175.719 150.639C175.186 149.969 174.919 148.987 174.919 147.692C174.919 146.384 175.19 145.396 175.732 144.726C176.275 144.051 176.983 143.714 177.858 143.714C178.223 143.714 178.544 143.764 178.822 143.864C179.1 143.965 179.34 144.099 179.54 144.268C179.745 144.436 179.918 144.625 180.06 144.835H180.128C180.101 144.689 180.066 144.475 180.025 144.192C179.989 143.905 179.971 143.611 179.971 143.311V140.863H182.062V151.5H180.463L180.06 150.509H179.971C179.839 150.718 179.672 150.91 179.472 151.083C179.276 151.252 179.041 151.386 178.768 151.486C178.494 151.587 178.173 151.637 177.804 151.637ZM178.535 149.976C179.105 149.976 179.506 149.807 179.738 149.47C179.975 149.128 180.101 148.615 180.114 147.932V147.706C180.114 146.963 180 146.396 179.772 146.004C179.545 145.607 179.121 145.409 178.501 145.409C178.041 145.409 177.681 145.607 177.421 146.004C177.161 146.4 177.031 146.972 177.031 147.72C177.031 148.467 177.161 149.03 177.421 149.408C177.685 149.786 178.057 149.976 178.535 149.976ZM190.983 151.637C190.227 151.637 189.582 151.5 189.049 151.227C188.516 150.949 188.11 150.52 187.832 149.941C187.554 149.363 187.415 148.622 187.415 147.72C187.415 146.785 187.572 146.024 187.887 145.437C188.206 144.844 188.646 144.409 189.206 144.131C189.771 143.853 190.425 143.714 191.168 143.714C191.697 143.714 192.152 143.766 192.535 143.871C192.923 143.971 193.26 144.092 193.547 144.233L192.932 145.847C192.604 145.715 192.298 145.607 192.016 145.525C191.733 145.439 191.451 145.396 191.168 145.396C190.803 145.396 190.5 145.482 190.259 145.655C190.017 145.824 189.837 146.079 189.719 146.421C189.6 146.763 189.541 147.191 189.541 147.706C189.541 148.212 189.605 148.631 189.732 148.964C189.86 149.297 190.045 149.545 190.286 149.709C190.528 149.868 190.822 149.948 191.168 149.948C191.601 149.948 191.986 149.891 192.323 149.777C192.66 149.659 192.989 149.495 193.308 149.285V151.069C192.989 151.27 192.654 151.413 192.303 151.5C191.956 151.591 191.517 151.637 190.983 151.637ZM197.17 151.5H195.085V140.863H197.17V151.5ZM202.495 143.7C203.521 143.7 204.307 143.924 204.854 144.37C205.4 144.817 205.674 145.496 205.674 146.407V151.5H204.218L203.814 150.461H203.76C203.541 150.734 203.318 150.958 203.09 151.131C202.862 151.304 202.6 151.432 202.304 151.514C202.007 151.596 201.647 151.637 201.224 151.637C200.772 151.637 200.367 151.55 200.007 151.377C199.651 151.204 199.371 150.939 199.166 150.584C198.961 150.224 198.858 149.768 198.858 149.217C198.858 148.406 199.143 147.809 199.713 147.426C200.283 147.038 201.137 146.824 202.276 146.783L203.603 146.742V146.407C203.603 146.006 203.498 145.712 203.288 145.525C203.078 145.339 202.787 145.245 202.413 145.245C202.044 145.245 201.682 145.298 201.326 145.402C200.971 145.507 200.615 145.639 200.26 145.799L199.569 144.391C199.975 144.176 200.428 144.008 200.93 143.885C201.436 143.762 201.957 143.7 202.495 143.7ZM203.603 147.959L202.796 147.986C202.121 148.005 201.652 148.125 201.388 148.349C201.128 148.572 200.998 148.866 200.998 149.23C200.998 149.549 201.091 149.777 201.278 149.914C201.465 150.046 201.709 150.112 202.01 150.112C202.456 150.112 202.832 149.98 203.138 149.716C203.448 149.451 203.603 149.076 203.603 148.588V147.959ZM209.912 143.857V151.5H207.827V143.857H209.912ZM208.873 140.863C209.183 140.863 209.45 140.936 209.673 141.082C209.896 141.223 210.008 141.49 210.008 141.882C210.008 142.269 209.896 142.538 209.673 142.688C209.45 142.834 209.183 142.907 208.873 142.907C208.559 142.907 208.29 142.834 208.066 142.688C207.848 142.538 207.738 142.269 207.738 141.882C207.738 141.49 207.848 141.223 208.066 141.082C208.29 140.936 208.559 140.863 208.873 140.863ZM221.082 143.714C221.948 143.714 222.602 143.937 223.044 144.384C223.491 144.826 223.714 145.537 223.714 146.517V151.5H221.622V147.036C221.622 146.489 221.529 146.077 221.342 145.799C221.155 145.521 220.866 145.382 220.474 145.382C219.922 145.382 219.53 145.58 219.298 145.977C219.065 146.368 218.949 146.931 218.949 147.665V151.5H216.864V147.036C216.864 146.672 216.823 146.366 216.741 146.12C216.659 145.874 216.534 145.689 216.365 145.566C216.197 145.443 215.98 145.382 215.716 145.382C215.328 145.382 215.023 145.48 214.8 145.676C214.581 145.867 214.424 146.152 214.328 146.53C214.237 146.904 214.191 147.362 214.191 147.904V151.5H212.106V143.857H213.699L213.979 144.835H214.096C214.251 144.571 214.444 144.356 214.677 144.192C214.914 144.028 215.174 143.908 215.456 143.83C215.739 143.753 216.026 143.714 216.317 143.714C216.878 143.714 217.352 143.805 217.739 143.987C218.131 144.17 218.432 144.452 218.642 144.835H218.826C219.054 144.443 219.375 144.158 219.79 143.98C220.209 143.803 220.64 143.714 221.082 143.714ZM231.192 149.23C231.192 149.75 231.069 150.19 230.823 150.55C230.582 150.905 230.219 151.176 229.736 151.363C229.253 151.546 228.652 151.637 227.932 151.637C227.398 151.637 226.94 151.603 226.558 151.534C226.179 151.466 225.797 151.352 225.409 151.192V149.47C225.824 149.657 226.268 149.812 226.742 149.935C227.221 150.053 227.64 150.112 228 150.112C228.406 150.112 228.695 150.053 228.868 149.935C229.046 149.812 229.135 149.652 229.135 149.456C229.135 149.328 229.098 149.215 229.025 149.114C228.957 149.009 228.807 148.893 228.574 148.766C228.342 148.633 227.977 148.463 227.48 148.253C227.002 148.052 226.608 147.85 226.298 147.645C225.993 147.439 225.765 147.198 225.614 146.92C225.468 146.637 225.396 146.28 225.396 145.847C225.396 145.14 225.669 144.609 226.216 144.254C226.767 143.894 227.503 143.714 228.424 143.714C228.898 143.714 229.349 143.762 229.777 143.857C230.21 143.953 230.655 144.106 231.11 144.315L230.481 145.819C230.103 145.655 229.745 145.521 229.408 145.416C229.076 145.311 228.736 145.259 228.39 145.259C228.084 145.259 227.854 145.3 227.699 145.382C227.544 145.464 227.467 145.589 227.467 145.758C227.467 145.881 227.506 145.99 227.583 146.086C227.665 146.182 227.82 146.289 228.048 146.407C228.28 146.521 228.62 146.669 229.066 146.852C229.499 147.029 229.875 147.216 230.194 147.412C230.513 147.604 230.759 147.843 230.933 148.13C231.106 148.412 231.192 148.779 231.192 149.23Z" fill="#1C4E9D"/>
<rect x="30.5" y="240.5" width="50" height="72" stroke="black"/>
<path d="M45.8545 272.888C45.3031 272.888 44.8063 272.983 44.3643 273.175C43.9268 273.362 43.5531 273.635 43.2432 273.995C42.9378 274.351 42.7031 274.781 42.5391 275.287C42.375 275.793 42.293 276.363 42.293 276.996C42.293 277.835 42.4229 278.564 42.6826 279.184C42.9469 279.799 43.3389 280.275 43.8584 280.612C44.3825 280.95 45.0365 281.118 45.8203 281.118C46.2669 281.118 46.6862 281.082 47.0781 281.009C47.4746 280.931 47.8597 280.836 48.2334 280.722V281.733C47.8688 281.87 47.486 281.97 47.085 282.034C46.6839 282.103 46.2077 282.137 45.6562 282.137C44.64 282.137 43.79 281.927 43.1064 281.508C42.4274 281.084 41.917 280.487 41.5752 279.717C41.238 278.947 41.0693 278.037 41.0693 276.989C41.0693 276.233 41.1742 275.542 41.3838 274.918C41.598 274.289 41.9079 273.747 42.3135 273.291C42.7236 272.835 43.2249 272.484 43.8174 272.238C44.4144 271.988 45.098 271.862 45.8682 271.862C46.374 271.862 46.8617 271.912 47.3311 272.013C47.8005 272.113 48.2243 272.257 48.6025 272.443L48.1377 273.428C47.8187 273.282 47.4678 273.157 47.085 273.052C46.7067 272.942 46.2965 272.888 45.8545 272.888ZM54.6729 272.888C54.1214 272.888 53.6247 272.983 53.1826 273.175C52.7451 273.362 52.3714 273.635 52.0615 273.995C51.7562 274.351 51.5215 274.781 51.3574 275.287C51.1934 275.793 51.1113 276.363 51.1113 276.996C51.1113 277.835 51.2412 278.564 51.501 279.184C51.7653 279.799 52.1572 280.275 52.6768 280.612C53.2008 280.95 53.8548 281.118 54.6387 281.118C55.0853 281.118 55.5046 281.082 55.8965 281.009C56.293 280.931 56.6781 280.836 57.0518 280.722V281.733C56.6872 281.87 56.3044 281.97 55.9033 282.034C55.5023 282.103 55.026 282.137 54.4746 282.137C53.4583 282.137 52.6084 281.927 51.9248 281.508C51.2458 281.084 50.7354 280.487 50.3936 279.717C50.0563 278.947 49.8877 278.037 49.8877 276.989C49.8877 276.233 49.9925 275.542 50.2021 274.918C50.4163 274.289 50.7262 273.747 51.1318 273.291C51.542 272.835 52.0433 272.484 52.6357 272.238C53.2327 271.988 53.9163 271.862 54.6865 271.862C55.1924 271.862 55.68 271.912 56.1494 272.013C56.6188 272.113 57.0426 272.257 57.4209 272.443L56.9561 273.428C56.637 273.282 56.2861 273.157 55.9033 273.052C55.5251 272.942 55.1149 272.888 54.6729 272.888ZM70.5732 272.006L67.9004 282H66.7314L64.749 275.273C64.6898 275.082 64.6328 274.891 64.5781 274.699C64.528 274.503 64.4801 274.319 64.4346 274.146C64.389 273.968 64.3503 273.813 64.3184 273.681C64.291 273.544 64.2705 273.441 64.2568 273.373C64.2477 273.441 64.2295 273.542 64.2021 273.674C64.1794 273.806 64.1475 273.959 64.1064 274.132C64.07 274.305 64.0244 274.49 63.9697 274.686C63.9196 274.882 63.8649 275.08 63.8057 275.28L61.8779 282H60.709L58.0566 272.006H59.2666L60.873 278.274C60.9277 278.484 60.9779 278.691 61.0234 278.896C61.0736 279.097 61.1169 279.293 61.1533 279.484C61.1943 279.676 61.2308 279.863 61.2627 280.045C61.2946 280.227 61.3242 280.405 61.3516 280.578C61.3743 280.4 61.404 280.216 61.4404 280.024C61.4769 279.828 61.5156 279.63 61.5566 279.43C61.6022 279.229 61.6501 279.026 61.7002 278.821C61.7549 278.616 61.8118 278.411 61.8711 278.206L63.6689 272.006H64.8652L66.7383 278.254C66.8021 278.468 66.8613 278.68 66.916 278.89C66.9707 279.099 67.0186 279.304 67.0596 279.505C67.1051 279.701 67.1439 279.89 67.1758 280.072C67.2122 280.25 67.2441 280.419 67.2715 280.578C67.3034 280.355 67.3421 280.12 67.3877 279.874C67.4333 279.628 67.4857 279.37 67.5449 279.102C67.6087 278.833 67.6771 278.555 67.75 278.268L69.3564 272.006H70.5732Z" fill="black"/>
<rect x="91.5" y="240.5" width="50" height="72" stroke="black"/>
<path d="M106.738 272.506C107.559 272.506 108.235 272.608 108.769 272.813C109.306 273.014 109.707 273.322 109.972 273.736C110.236 274.151 110.368 274.68 110.368 275.322C110.368 275.851 110.272 276.293 110.081 276.648C109.89 276.999 109.639 277.284 109.329 277.503C109.019 277.722 108.689 277.89 108.338 278.009L111.079 282.5H109.726L107.278 278.33H105.2V282.5H104.038V272.506H106.738ZM106.67 273.511H105.2V277.346H106.786C107.602 277.346 108.201 277.179 108.584 276.847C108.971 276.514 109.165 276.024 109.165 275.377C109.165 274.698 108.96 274.217 108.55 273.935C108.144 273.652 107.518 273.511 106.67 273.511ZM120.615 277.407C120.615 278.533 120.41 279.474 120 280.23C119.59 280.982 118.995 281.55 118.216 281.933C117.441 282.311 116.5 282.5 115.393 282.5H112.679V272.506H115.693C116.71 272.506 117.585 272.693 118.318 273.066C119.052 273.436 119.617 273.985 120.014 274.714C120.415 275.438 120.615 276.336 120.615 277.407ZM119.392 277.448C119.392 276.55 119.241 275.81 118.94 275.227C118.644 274.643 118.207 274.21 117.628 273.928C117.054 273.641 116.35 273.497 115.516 273.497H113.841V281.502H115.256C116.632 281.502 117.664 281.162 118.353 280.483C119.045 279.804 119.392 278.793 119.392 277.448ZM129.105 282.5L127.875 279.328H123.869L122.646 282.5H121.47L125.38 272.465H126.426L130.309 282.5H129.105ZM127.526 278.296L126.357 275.145C126.33 275.062 126.285 274.928 126.221 274.741C126.161 274.554 126.1 274.361 126.036 274.16C125.972 273.96 125.92 273.798 125.879 273.675C125.833 273.862 125.783 274.049 125.729 274.235C125.678 274.418 125.628 274.589 125.578 274.748C125.528 274.903 125.485 275.035 125.448 275.145L124.259 278.296H127.526Z" fill="black"/>
<path d="M238.862 219H235.321L231.671 211.959H231.609C231.632 212.173 231.653 212.431 231.671 212.731C231.689 213.032 231.705 213.34 231.719 213.654C231.732 213.964 231.739 214.244 231.739 214.495V219H229.347V209.006H232.874L236.511 215.951H236.552C236.538 215.732 236.524 215.479 236.511 215.192C236.497 214.901 236.483 214.607 236.47 214.311C236.461 214.014 236.456 213.752 236.456 213.524V209.006H238.862V219ZM246.956 219H241.022V209.006H246.956V211.173H243.723V212.745H246.717V214.912H243.723V216.799H246.956V219ZM261.961 209.006L259.5 219H256.308L255.351 214.646C255.332 214.563 255.303 214.424 255.262 214.229C255.225 214.033 255.182 213.809 255.132 213.559C255.086 213.308 255.043 213.062 255.002 212.82C254.965 212.574 254.938 212.367 254.92 212.198C254.902 212.367 254.872 212.574 254.831 212.82C254.79 213.062 254.744 213.308 254.694 213.559C254.649 213.809 254.603 214.033 254.558 214.229C254.517 214.424 254.487 214.563 254.469 214.646L253.505 219H250.312L247.838 209.006H250.442L251.529 214.017C251.557 214.14 251.593 214.315 251.639 214.543C251.689 214.766 251.739 215.012 251.789 215.281C251.844 215.546 251.894 215.801 251.939 216.047C251.985 216.293 252.017 216.498 252.035 216.662C252.072 216.38 252.119 216.058 252.179 215.698C252.243 215.338 252.311 214.974 252.384 214.604C252.461 214.231 252.534 213.884 252.603 213.565C252.671 213.246 252.73 212.987 252.78 212.786L253.662 209.006H256.164L257.019 212.786C257.064 212.982 257.121 213.242 257.189 213.565C257.262 213.884 257.335 214.231 257.408 214.604C257.486 214.978 257.556 215.347 257.62 215.712C257.684 216.072 257.732 216.389 257.764 216.662C257.791 216.434 257.837 216.147 257.9 215.801C257.964 215.45 258.028 215.11 258.092 214.782C258.16 214.45 258.213 214.199 258.249 214.03L259.356 209.006H261.961ZM275.523 209.006L272.249 219H269.07L265.81 209.006H268.845L270.205 214.071C270.255 214.263 270.312 214.509 270.376 214.81C270.444 215.106 270.506 215.402 270.561 215.698C270.62 215.994 270.656 216.236 270.67 216.423C270.688 216.236 270.722 215.997 270.772 215.705C270.823 215.413 270.877 215.122 270.937 214.83C271 214.534 271.06 214.29 271.114 214.099L272.502 209.006H275.523ZM282.865 211.173C282.865 211.647 282.763 212.057 282.558 212.403C282.357 212.745 282.088 213.025 281.751 213.244C281.418 213.463 281.054 213.627 280.657 213.736V213.777C281.455 213.878 282.07 214.121 282.503 214.509C282.94 214.892 283.159 215.436 283.159 216.143C283.159 216.689 283.013 217.191 282.722 217.646C282.43 218.098 281.977 218.46 281.361 218.733C280.746 219.002 279.955 219.137 278.989 219.137C278.342 219.137 277.791 219.089 277.335 218.993C276.879 218.897 276.437 218.765 276.009 218.597V216.354C276.442 216.578 276.886 216.744 277.342 216.854C277.802 216.958 278.221 217.011 278.6 217.011C279.256 217.011 279.702 216.917 279.939 216.73C280.181 216.544 280.302 216.293 280.302 215.979C280.302 215.751 280.245 215.557 280.131 215.397C280.017 215.238 279.805 215.115 279.495 215.028C279.19 214.942 278.75 214.898 278.176 214.898H277.561V212.868H278.189C278.7 212.868 279.103 212.823 279.399 212.731C279.7 212.64 279.917 212.517 280.049 212.362C280.181 212.203 280.247 212.021 280.247 211.815C280.247 211.551 280.145 211.355 279.939 211.228C279.734 211.1 279.463 211.036 279.126 211.036C278.825 211.036 278.543 211.077 278.278 211.159C278.014 211.241 277.784 211.332 277.588 211.433C277.392 211.533 277.244 211.615 277.144 211.679L276.022 209.874C276.437 209.591 276.911 209.352 277.444 209.156C277.982 208.96 278.684 208.862 279.55 208.862C280.58 208.862 281.389 209.067 281.977 209.478C282.569 209.888 282.865 210.453 282.865 211.173Z" fill="black"/>
<path d="M20.8389 209.006L17.25 219H16.0811L12.4922 209.006H13.709L16.0469 215.589C16.1426 215.853 16.2269 216.106 16.2998 216.348C16.3773 216.589 16.4456 216.822 16.5049 217.045C16.5641 217.268 16.6165 217.485 16.6621 217.694C16.7077 217.485 16.7601 217.268 16.8193 217.045C16.8786 216.817 16.9469 216.582 17.0244 216.341C17.1019 216.095 17.1885 215.837 17.2842 215.568L19.6084 209.006H20.8389ZM25.7607 219H24.6533L24.6533 211.918C24.6533 211.649 24.6533 211.419 24.6533 211.228C24.6579 211.032 24.6624 210.854 24.667 210.694C24.6761 210.53 24.6875 210.364 24.7012 210.195C24.5599 210.341 24.4277 210.466 24.3047 210.571C24.1816 210.672 24.029 210.797 23.8467 210.947L22.7051 211.863L22.1104 211.091L24.8174 209.006H25.7607L25.7607 219ZM36.9512 213.6H39.7676V214.529H36.9512V217.428H36.0146V214.529H33.1982V213.6H36.0146V210.688H36.9512V213.6ZM52.4893 209.006L48.9004 219H47.7314L44.1426 209.006H45.3594L47.6973 215.589C47.793 215.853 47.8773 216.106 47.9502 216.348C48.0277 216.589 48.096 216.822 48.1553 217.045C48.2145 217.268 48.2669 217.485 48.3125 217.694C48.3581 217.485 48.4105 217.268 48.4697 217.045C48.529 216.817 48.5973 216.582 48.6748 216.341C48.7523 216.095 48.8389 215.837 48.9346 215.568L51.2588 209.006H52.4893ZM59.7354 219H53.1865V218.05L55.8594 215.336C56.3561 214.835 56.7731 214.388 57.1104 213.996C57.4521 213.604 57.7119 213.219 57.8896 212.841C58.0674 212.458 58.1562 212.039 58.1562 211.583C58.1562 211.018 57.9876 210.587 57.6504 210.291C57.3177 209.99 56.8779 209.84 56.3311 209.84C55.8525 209.84 55.4287 209.922 55.0596 210.086C54.6904 210.25 54.3122 210.482 53.9248 210.783L53.3164 210.018C53.5807 209.794 53.8678 209.596 54.1777 209.423C54.4922 209.25 54.8271 209.113 55.1826 209.013C55.5426 208.912 55.9255 208.862 56.3311 208.862C56.9463 208.862 57.4772 208.969 57.9238 209.184C58.3704 209.398 58.7145 209.703 58.9561 210.1C59.2021 210.496 59.3252 210.968 59.3252 211.515C59.3252 212.043 59.2204 212.535 59.0107 212.991C58.8011 213.442 58.5072 213.891 58.1289 214.338C57.7507 214.78 57.3086 215.249 56.8027 215.746L54.6289 217.913V217.961H59.7354V219Z" fill="black"/>
<rect x="42.5" y="83.5" width="209" height="27" rx="7.5" fill="white"/>
<rect x="42.5" y="83.5" width="209" height="27" rx="7.5" stroke="#54AECF" stroke-dasharray="6 6"/>
<path d="M54.4482 92.5059C55.738 92.5059 56.679 92.7839 57.2715 93.3398C57.8639 93.8913 58.1602 94.6523 58.1602 95.623C58.1602 96.0605 58.0941 96.4798 57.9619 96.8809C57.8298 97.2773 57.6133 97.6305 57.3125 97.9404C57.0163 98.2503 56.6198 98.4964 56.123 98.6787C55.6263 98.8564 55.0133 98.9453 54.2842 98.9453H53.375V102.5H51.2559V92.5059H54.4482ZM54.3389 94.2422H53.375V97.209H54.0723C54.4688 97.209 54.8128 97.1566 55.1045 97.0518C55.3962 96.9469 55.6217 96.7829 55.7812 96.5596C55.9408 96.3363 56.0205 96.0492 56.0205 95.6982C56.0205 95.2061 55.8838 94.8415 55.6104 94.6045C55.3369 94.363 54.9131 94.2422 54.3389 94.2422ZM63.0137 94.7002C64.0391 94.7002 64.8252 94.9235 65.3721 95.3701C65.9189 95.8167 66.1924 96.4958 66.1924 97.4072V102.5H64.7363L64.333 101.461H64.2783C64.0596 101.734 63.8363 101.958 63.6084 102.131C63.3805 102.304 63.1185 102.432 62.8223 102.514C62.526 102.596 62.166 102.637 61.7422 102.637C61.291 102.637 60.8854 102.55 60.5254 102.377C60.1699 102.204 59.8896 101.939 59.6846 101.584C59.4795 101.224 59.377 100.768 59.377 100.217C59.377 99.4056 59.6618 98.8086 60.2314 98.4258C60.8011 98.0384 61.6556 97.8242 62.7949 97.7832L64.1211 97.7422V97.4072C64.1211 97.0062 64.0163 96.7122 63.8066 96.5254C63.597 96.3385 63.3053 96.2451 62.9316 96.2451C62.5625 96.2451 62.2002 96.2975 61.8447 96.4023C61.4893 96.5072 61.1338 96.6393 60.7783 96.7988L60.0879 95.3906C60.4935 95.1764 60.9469 95.0078 61.4482 94.8848C61.9541 94.7617 62.4759 94.7002 63.0137 94.7002ZM64.1211 98.959L63.3145 98.9863C62.64 99.0046 62.1706 99.1253 61.9062 99.3486C61.6465 99.5719 61.5166 99.8659 61.5166 100.23C61.5166 100.549 61.61 100.777 61.7969 100.914C61.9837 101.046 62.2275 101.112 62.5283 101.112C62.9749 101.112 63.3509 100.98 63.6562 100.716C63.9661 100.451 64.1211 100.076 64.1211 99.5879V98.959ZM72.6113 94.7139C72.7161 94.7139 72.8369 94.7207 72.9736 94.7344C73.1149 94.7435 73.2288 94.7572 73.3154 94.7754L73.1582 96.7305C73.0898 96.7077 72.9919 96.6917 72.8643 96.6826C72.7412 96.6689 72.6341 96.6621 72.543 96.6621C72.2741 96.6621 72.012 96.6963 71.7568 96.7646C71.5062 96.833 71.2806 96.9447 71.0801 97.0996C70.8796 97.25 70.7201 97.4505 70.6016 97.7012C70.4876 97.9473 70.4307 98.2503 70.4307 98.6104V102.5H68.3457V94.8574H69.9248L70.2324 96.1426H70.335C70.4854 95.8828 70.6722 95.6458 70.8955 95.4316C71.1234 95.2129 71.3809 95.0397 71.668 94.9121C71.9596 94.7799 72.2741 94.7139 72.6113 94.7139ZM77.9229 100.976C78.1507 100.976 78.3717 100.953 78.5859 100.907C78.8047 100.862 79.0212 100.805 79.2354 100.736V102.288C79.012 102.388 78.734 102.47 78.4014 102.534C78.0732 102.603 77.7132 102.637 77.3213 102.637C76.8656 102.637 76.4554 102.564 76.0908 102.418C75.7308 102.268 75.446 102.01 75.2363 101.646C75.0312 101.276 74.9287 100.764 74.9287 100.107V96.4229H73.9307V95.541L75.0791 94.8438L75.6807 93.2305H77.0137V94.8574H79.1533V96.4229H77.0137V100.107C77.0137 100.399 77.0957 100.618 77.2598 100.764C77.4284 100.905 77.6494 100.976 77.9229 100.976ZM82.8721 94.8574V102.5H80.7871V94.8574H82.8721ZM81.833 91.8633C82.1429 91.8633 82.4095 91.9362 82.6328 92.082C82.8561 92.2233 82.9678 92.4899 82.9678 92.8818C82.9678 93.2692 82.8561 93.5381 82.6328 93.6885C82.4095 93.8343 82.1429 93.9072 81.833 93.9072C81.5186 93.9072 81.2497 93.8343 81.0264 93.6885C80.8076 93.5381 80.6982 93.2692 80.6982 92.8818C80.6982 92.4899 80.8076 92.2233 81.0264 92.082C81.2497 91.9362 81.5186 91.8633 81.833 91.8633ZM88.1973 94.7002C89.2227 94.7002 90.0088 94.9235 90.5557 95.3701C91.1025 95.8167 91.376 96.4958 91.376 97.4072V102.5H89.9199L89.5166 101.461H89.4619C89.2432 101.734 89.0199 101.958 88.792 102.131C88.5641 102.304 88.3021 102.432 88.0059 102.514C87.7096 102.596 87.3496 102.637 86.9258 102.637C86.4746 102.637 86.069 102.55 85.709 102.377C85.3535 102.204 85.0732 101.939 84.8682 101.584C84.6631 101.224 84.5605 100.768 84.5605 100.217C84.5605 99.4056 84.8454 98.8086 85.415 98.4258C85.9847 98.0384 86.8392 97.8242 87.9785 97.7832L89.3047 97.7422V97.4072C89.3047 97.0062 89.1999 96.7122 88.9902 96.5254C88.7806 96.3385 88.4889 96.2451 88.1152 96.2451C87.7461 96.2451 87.3838 96.2975 87.0283 96.4023C86.6729 96.5072 86.3174 96.6393 85.9619 96.7988L85.2715 95.3906C85.6771 95.1764 86.1305 95.0078 86.6318 94.8848C87.1377 94.7617 87.6595 94.7002 88.1973 94.7002ZM89.3047 98.959L88.498 98.9863C87.8236 99.0046 87.3542 99.1253 87.0898 99.3486C86.8301 99.5719 86.7002 99.8659 86.7002 100.23C86.7002 100.549 86.7936 100.777 86.9805 100.914C87.1673 101.046 87.4111 101.112 87.7119 101.112C88.1585 101.112 88.5345 100.98 88.8398 100.716C89.1497 100.451 89.3047 100.076 89.3047 99.5879V98.959ZM95.6143 102.5H93.5293V91.8633H95.6143V102.5ZM99.8936 102.5H97.8086V91.8633H99.8936V102.5ZM100.994 94.8574H103.277L104.72 99.1572C104.765 99.2939 104.804 99.4329 104.836 99.5742C104.868 99.7155 104.895 99.8613 104.918 100.012C104.941 100.162 104.959 100.319 104.973 100.483H105.014C105.041 100.237 105.077 100.007 105.123 99.793C105.173 99.5788 105.235 99.3669 105.308 99.1572L106.723 94.8574H108.958L105.725 103.478C105.529 104.006 105.273 104.446 104.959 104.797C104.645 105.152 104.282 105.419 103.872 105.597C103.466 105.774 103.02 105.863 102.532 105.863C102.295 105.863 102.09 105.85 101.917 105.822C101.744 105.799 101.596 105.774 101.473 105.747V104.093C101.568 104.116 101.689 104.136 101.835 104.154C101.981 104.173 102.133 104.182 102.293 104.182C102.585 104.182 102.835 104.12 103.045 103.997C103.255 103.874 103.43 103.708 103.571 103.498C103.713 103.293 103.824 103.067 103.906 102.821L104.029 102.445L100.994 94.8574ZM116.826 94.7002C117.852 94.7002 118.638 94.9235 119.185 95.3701C119.731 95.8167 120.005 96.4958 120.005 97.4072V102.5H118.549L118.146 101.461H118.091C117.872 101.734 117.649 101.958 117.421 102.131C117.193 102.304 116.931 102.432 116.635 102.514C116.339 102.596 115.979 102.637 115.555 102.637C115.104 102.637 114.698 102.55 114.338 102.377C113.982 102.204 113.702 101.939 113.497 101.584C113.292 101.224 113.189 100.768 113.189 100.217C113.189 99.4056 113.474 98.8086 114.044 98.4258C114.614 98.0384 115.468 97.8242 116.607 97.7832L117.934 97.7422V97.4072C117.934 97.0062 117.829 96.7122 117.619 96.5254C117.41 96.3385 117.118 96.2451 116.744 96.2451C116.375 96.2451 116.013 96.2975 115.657 96.4023C115.302 96.5072 114.946 96.6393 114.591 96.7988L113.9 95.3906C114.306 95.1764 114.759 95.0078 115.261 94.8848C115.767 94.7617 116.288 94.7002 116.826 94.7002ZM117.934 98.959L117.127 98.9863C116.452 99.0046 115.983 99.1253 115.719 99.3486C115.459 99.5719 115.329 99.8659 115.329 100.23C115.329 100.549 115.423 100.777 115.609 100.914C115.796 101.046 116.04 101.112 116.341 101.112C116.787 101.112 117.163 100.98 117.469 100.716C117.779 100.451 117.934 100.076 117.934 99.5879V98.959ZM124.578 102.637C123.726 102.637 123.031 102.304 122.493 101.639C121.96 100.969 121.693 99.9867 121.693 98.6924C121.693 97.3844 121.965 96.3955 122.507 95.7256C123.049 95.0511 123.758 94.7139 124.633 94.7139C124.997 94.7139 125.319 94.764 125.597 94.8643C125.875 94.9645 126.114 95.099 126.314 95.2676C126.52 95.4362 126.693 95.6253 126.834 95.835H126.902C126.875 95.6891 126.841 95.4749 126.8 95.1924C126.763 94.9053 126.745 94.6113 126.745 94.3105V91.8633H128.837V102.5H127.237L126.834 101.509H126.745C126.613 101.718 126.447 101.91 126.246 102.083C126.05 102.252 125.815 102.386 125.542 102.486C125.269 102.587 124.947 102.637 124.578 102.637ZM125.31 100.976C125.879 100.976 126.28 100.807 126.513 100.47C126.75 100.128 126.875 99.6152 126.889 98.9316V98.7061C126.889 97.9632 126.775 97.3958 126.547 97.0039C126.319 96.6074 125.895 96.4092 125.275 96.4092C124.815 96.4092 124.455 96.6074 124.195 97.0039C123.936 97.4004 123.806 97.9723 123.806 98.7197C123.806 99.4671 123.936 100.03 124.195 100.408C124.46 100.786 124.831 100.976 125.31 100.976ZM130.402 105.863C130.165 105.863 129.919 105.845 129.664 105.809C129.409 105.777 129.197 105.738 129.028 105.692V104.052C129.197 104.097 129.356 104.129 129.507 104.147C129.653 104.17 129.819 104.182 130.006 104.182C130.288 104.182 130.528 104.102 130.724 103.942C130.92 103.787 131.018 103.48 131.018 103.02V94.8574H133.103V103.327C133.103 103.792 133.014 104.216 132.836 104.599C132.658 104.986 132.371 105.294 131.975 105.521C131.578 105.749 131.054 105.863 130.402 105.863ZM130.929 92.8818C130.929 92.4899 131.038 92.2233 131.257 92.082C131.48 91.9362 131.749 91.8633 132.063 91.8633C132.373 91.8633 132.64 91.9362 132.863 92.082C133.087 92.2233 133.198 92.4899 133.198 92.8818C133.198 93.2692 133.087 93.5381 132.863 93.6885C132.64 93.8343 132.373 93.9072 132.063 93.9072C131.749 93.9072 131.48 93.8343 131.257 93.6885C131.038 93.5381 130.929 93.2692 130.929 92.8818ZM142.311 94.8574V102.5H140.711L140.431 101.522H140.321C140.157 101.782 139.952 101.994 139.706 102.158C139.46 102.322 139.189 102.443 138.893 102.521C138.596 102.598 138.289 102.637 137.97 102.637C137.423 102.637 136.947 102.541 136.541 102.35C136.135 102.154 135.819 101.851 135.591 101.44C135.368 101.03 135.256 100.497 135.256 99.8408V94.8574H137.341V99.3213C137.341 99.8682 137.439 100.281 137.635 100.559C137.831 100.837 138.143 100.976 138.571 100.976C138.995 100.976 139.328 100.88 139.569 100.688C139.811 100.493 139.979 100.208 140.075 99.834C140.175 99.4557 140.226 98.9954 140.226 98.4531V94.8574H142.311ZM146.918 102.637C146.066 102.637 145.371 102.304 144.833 101.639C144.3 100.969 144.033 99.9867 144.033 98.6924C144.033 97.3844 144.304 96.3955 144.847 95.7256C145.389 95.0511 146.098 94.7139 146.973 94.7139C147.337 94.7139 147.659 94.764 147.937 94.8643C148.215 94.9645 148.454 95.099 148.654 95.2676C148.859 95.4362 149.033 95.6253 149.174 95.835H149.242C149.215 95.6891 149.181 95.4749 149.14 95.1924C149.103 94.9053 149.085 94.6113 149.085 94.3105V91.8633H151.177V102.5H149.577L149.174 101.509H149.085C148.953 101.718 148.786 101.91 148.586 102.083C148.39 102.252 148.155 102.386 147.882 102.486C147.608 102.587 147.287 102.637 146.918 102.637ZM147.649 100.976C148.219 100.976 148.62 100.807 148.853 100.47C149.09 100.128 149.215 99.6152 149.229 98.9316V98.7061C149.229 97.9632 149.115 97.3958 148.887 97.0039C148.659 96.6074 148.235 96.4092 147.615 96.4092C147.155 96.4092 146.795 96.6074 146.535 97.0039C146.275 97.4004 146.146 97.9723 146.146 98.7197C146.146 99.4671 146.275 100.03 146.535 100.408C146.799 100.786 147.171 100.976 147.649 100.976ZM155.442 94.8574V102.5H153.357V94.8574H155.442ZM154.403 91.8633C154.713 91.8633 154.98 91.9362 155.203 92.082C155.426 92.2233 155.538 92.4899 155.538 92.8818C155.538 93.2692 155.426 93.5381 155.203 93.6885C154.98 93.8343 154.713 93.9072 154.403 93.9072C154.089 93.9072 153.82 93.8343 153.597 93.6885C153.378 93.5381 153.269 93.2692 153.269 92.8818C153.269 92.4899 153.378 92.2233 153.597 92.082C153.82 91.9362 154.089 91.8633 154.403 91.8633ZM160.74 102.637C159.984 102.637 159.339 102.5 158.806 102.227C158.272 101.949 157.867 101.52 157.589 100.941C157.311 100.363 157.172 99.6221 157.172 98.7197C157.172 97.7855 157.329 97.0244 157.644 96.4365C157.963 95.8441 158.402 95.4089 158.963 95.1309C159.528 94.8529 160.182 94.7139 160.925 94.7139C161.453 94.7139 161.909 94.7663 162.292 94.8711C162.679 94.9714 163.017 95.0921 163.304 95.2334L162.688 96.8467C162.36 96.7145 162.055 96.6074 161.772 96.5254C161.49 96.4388 161.207 96.3955 160.925 96.3955C160.56 96.3955 160.257 96.4821 160.016 96.6553C159.774 96.8239 159.594 97.0791 159.476 97.4209C159.357 97.7627 159.298 98.1911 159.298 98.7061C159.298 99.2119 159.362 99.6312 159.489 99.9639C159.617 100.297 159.801 100.545 160.043 100.709C160.285 100.868 160.578 100.948 160.925 100.948C161.358 100.948 161.743 100.891 162.08 100.777C162.417 100.659 162.745 100.495 163.064 100.285V102.069C162.745 102.27 162.41 102.413 162.06 102.5C161.713 102.591 161.273 102.637 160.74 102.637ZM167.973 94.7002C168.998 94.7002 169.784 94.9235 170.331 95.3701C170.878 95.8167 171.151 96.4958 171.151 97.4072V102.5L169.695 102.5L169.292 101.461H169.237C169.019 101.734 168.795 101.958 168.567 102.131C168.34 102.304 168.077 102.432 167.781 102.514C167.485 102.596 167.125 102.637 166.701 102.637C166.25 102.637 165.844 102.55 165.484 102.377C165.129 102.204 164.849 101.939 164.644 101.584C164.438 101.224 164.336 100.768 164.336 100.217C164.336 99.4056 164.621 98.8086 165.19 98.4258C165.76 98.0384 166.615 97.8242 167.754 97.7832L169.08 97.7422V97.4072C169.08 97.0062 168.975 96.7122 168.766 96.5254C168.556 96.3385 168.264 96.2451 167.891 96.2451C167.521 96.2451 167.159 96.2975 166.804 96.4023C166.448 96.5072 166.093 96.6393 165.737 96.7988L165.047 95.3906C165.452 95.1764 165.906 95.0078 166.407 94.8848C166.913 94.7617 167.435 94.7002 167.973 94.7002ZM169.08 98.959L168.273 98.9863C167.599 99.0046 167.13 99.1253 166.865 99.3486C166.605 99.5719 166.476 99.8659 166.476 100.23C166.476 100.549 166.569 100.777 166.756 100.914C166.943 101.046 167.187 101.112 167.487 101.112C167.934 101.112 168.31 100.98 168.615 100.716C168.925 100.451 169.08 100.076 169.08 99.5879V98.959ZM176.524 100.976C176.752 100.976 176.973 100.953 177.188 100.907C177.406 100.862 177.623 100.805 177.837 100.736V102.288C177.614 102.388 177.336 102.47 177.003 102.534C176.675 102.603 176.315 102.637 175.923 102.637C175.467 102.637 175.057 102.564 174.692 102.418C174.332 102.268 174.048 102.01 173.838 101.646C173.633 101.276 173.53 100.764 173.53 100.107V96.4229H172.532V95.541L173.681 94.8438L174.282 93.2305H175.615V94.8574L177.755 94.8574V96.4229L175.615 96.4229V100.107C175.615 100.399 175.697 100.618 175.861 100.764C176.03 100.905 176.251 100.976 176.524 100.976ZM182.54 94.7139C183.246 94.7139 183.855 94.8506 184.365 95.124C184.876 95.3929 185.27 95.7848 185.548 96.2998C185.826 96.8148 185.965 97.4437 185.965 98.1865V99.1982H181.036C181.059 99.7861 181.234 100.249 181.562 100.586C181.895 100.919 182.355 101.085 182.943 101.085C183.431 101.085 183.878 101.035 184.283 100.935C184.689 100.834 185.106 100.684 185.534 100.483V102.097C185.156 102.284 184.759 102.42 184.345 102.507C183.935 102.593 183.436 102.637 182.848 102.637C182.082 102.637 181.403 102.495 180.811 102.213C180.223 101.93 179.76 101.5 179.423 100.921C179.09 100.342 178.924 99.613 178.924 98.7334C178.924 97.8402 179.074 97.0973 179.375 96.5049C179.68 95.9079 180.104 95.4613 180.646 95.165C181.189 94.8643 181.82 94.7139 182.54 94.7139ZM182.554 96.1973C182.148 96.1973 181.811 96.3271 181.542 96.5869C181.278 96.8467 181.125 97.2546 181.084 97.8105H184.01C184.005 97.5007 183.948 97.2249 183.839 96.9834C183.734 96.7419 183.575 96.5505 183.36 96.4092C183.151 96.2679 182.882 96.1973 182.554 96.1973ZM190.08 102.637C189.228 102.637 188.533 102.304 187.995 101.639C187.462 100.969 187.195 99.9867 187.195 98.6924C187.195 97.3844 187.466 96.3955 188.009 95.7256C188.551 95.0511 189.26 94.7139 190.135 94.7139C190.499 94.7139 190.821 94.764 191.099 94.8643C191.377 94.9645 191.616 95.099 191.816 95.2676C192.021 95.4362 192.195 95.6253 192.336 95.835H192.404C192.377 95.6891 192.343 95.4749 192.302 95.1924C192.265 94.9053 192.247 94.6113 192.247 94.3105V91.8633H194.339V102.5H192.739L192.336 101.509H192.247C192.115 101.718 191.949 101.91 191.748 102.083C191.552 102.252 191.317 102.386 191.044 102.486C190.771 102.587 190.449 102.637 190.08 102.637ZM190.812 100.976C191.381 100.976 191.782 100.807 192.015 100.47C192.252 100.128 192.377 99.6152 192.391 98.9316V98.7061C192.391 97.9632 192.277 97.3958 192.049 97.0039C191.821 96.6074 191.397 96.4092 190.777 96.4092C190.317 96.4092 189.957 96.6074 189.697 97.0039C189.438 97.4004 189.308 97.9723 189.308 98.7197C189.308 99.4671 189.438 100.03 189.697 100.408C189.962 100.786 190.333 100.976 190.812 100.976ZM203.26 102.637C202.503 102.637 201.858 102.5 201.325 102.227C200.792 101.949 200.386 101.52 200.108 100.941C199.83 100.363 199.691 99.6221 199.691 98.7197C199.691 97.7855 199.849 97.0244 200.163 96.4365C200.482 95.8441 200.922 95.4089 201.482 95.1309C202.048 94.8529 202.701 94.7139 203.444 94.7139C203.973 94.7139 204.429 94.7663 204.812 94.8711C205.199 94.9714 205.536 95.0921 205.823 95.2334L205.208 96.8467C204.88 96.7145 204.575 96.6074 204.292 96.5254C204.009 96.4388 203.727 96.3955 203.444 96.3955C203.08 96.3955 202.777 96.4821 202.535 96.6553C202.294 96.8239 202.114 97.0791 201.995 97.4209C201.877 97.7627 201.817 98.1911 201.817 98.7061C201.817 99.2119 201.881 99.6312 202.009 99.9639C202.136 100.297 202.321 100.545 202.562 100.709C202.804 100.868 203.098 100.948 203.444 100.948C203.877 100.948 204.262 100.891 204.6 100.777C204.937 100.659 205.265 100.495 205.584 100.285V102.069C205.265 102.27 204.93 102.413 204.579 102.5C204.233 102.591 203.793 102.637 203.26 102.637ZM209.446 102.5H207.361V91.8633H209.446V102.5ZM214.771 94.7002C215.797 94.7002 216.583 94.9235 217.13 95.3701C217.677 95.8167 217.95 96.4958 217.95 97.4072V102.5H216.494L216.091 101.461H216.036C215.817 101.734 215.594 101.958 215.366 102.131C215.138 102.304 214.876 102.432 214.58 102.514C214.284 102.596 213.924 102.637 213.5 102.637C213.049 102.637 212.643 102.55 212.283 102.377C211.928 102.204 211.647 101.939 211.442 101.584C211.237 101.224 211.135 100.768 211.135 100.217C211.135 99.4056 211.42 98.8086 211.989 98.4258C212.559 98.0384 213.413 97.8242 214.553 97.7832L215.879 97.7422V97.4072C215.879 97.0062 215.774 96.7122 215.564 96.5254C215.355 96.3385 215.063 96.2451 214.689 96.2451C214.32 96.2451 213.958 96.2975 213.603 96.4023C213.247 96.5072 212.892 96.6393 212.536 96.7988L211.846 95.3906C212.251 95.1764 212.705 95.0078 213.206 94.8848C213.712 94.7617 214.234 94.7002 214.771 94.7002ZM215.879 98.959L215.072 98.9863C214.398 99.0046 213.928 99.1253 213.664 99.3486C213.404 99.5719 213.274 99.8659 213.274 100.23C213.274 100.549 213.368 100.777 213.555 100.914C213.742 101.046 213.985 101.112 214.286 101.112C214.733 101.112 215.109 100.98 215.414 100.716C215.724 100.451 215.879 100.076 215.879 99.5879V98.959ZM222.188 94.8574V102.5H220.104V94.8574H222.188ZM221.149 91.8633C221.459 91.8633 221.726 91.9362 221.949 92.082C222.173 92.2233 222.284 92.4899 222.284 92.8818C222.284 93.2692 222.173 93.5381 221.949 93.6885C221.726 93.8343 221.459 93.9072 221.149 93.9072C220.835 93.9072 220.566 93.8343 220.343 93.6885C220.124 93.5381 220.015 93.2692 220.015 92.8818C220.015 92.4899 220.124 92.2233 220.343 92.082C220.566 91.9362 220.835 91.8633 221.149 91.8633ZM233.358 94.7139C234.224 94.7139 234.878 94.9372 235.32 95.3838C235.767 95.8258 235.99 96.5368 235.99 97.5166V102.5H233.898V98.0361C233.898 97.4893 233.805 97.0768 233.618 96.7988C233.431 96.5208 233.142 96.3818 232.75 96.3818C232.199 96.3818 231.807 96.5801 231.574 96.9766C231.342 97.3685 231.226 97.9313 231.226 98.665V102.5H229.141V98.0361C229.141 97.6715 229.1 97.3662 229.018 97.1201C228.936 96.874 228.81 96.6895 228.642 96.5664C228.473 96.4434 228.257 96.3818 227.992 96.3818C227.605 96.3818 227.299 96.4798 227.076 96.6758C226.857 96.8672 226.7 97.152 226.604 97.5303C226.513 97.904 226.468 98.362 226.468 98.9043V102.5H224.383V94.8574H225.976L226.256 95.835H226.372C226.527 95.5706 226.721 95.3564 226.953 95.1924C227.19 95.0283 227.45 94.9076 227.732 94.8301C228.015 94.7526 228.302 94.7139 228.594 94.7139C229.154 94.7139 229.628 94.805 230.016 94.9873C230.408 95.1696 230.708 95.4521 230.918 95.835H231.103C231.33 95.443 231.652 95.1582 232.066 94.9805C232.486 94.8027 232.916 94.7139 233.358 94.7139ZM243.469 100.23C243.469 100.75 243.346 101.19 243.1 101.55C242.858 101.905 242.496 102.176 242.013 102.363C241.53 102.546 240.928 102.637 240.208 102.637C239.675 102.637 239.217 102.603 238.834 102.534C238.456 102.466 238.073 102.352 237.686 102.192V100.47C238.1 100.657 238.545 100.812 239.019 100.935C239.497 101.053 239.916 101.112 240.276 101.112C240.682 101.112 240.971 101.053 241.145 100.935C241.322 100.812 241.411 100.652 241.411 100.456C241.411 100.328 241.375 100.215 241.302 100.114C241.233 100.009 241.083 99.8932 240.851 99.7656C240.618 99.6335 240.254 99.4626 239.757 99.2529C239.278 99.0524 238.884 98.8496 238.574 98.6445C238.269 98.4395 238.041 98.1979 237.891 97.9199C237.745 97.6374 237.672 97.2796 237.672 96.8467C237.672 96.1403 237.945 95.6094 238.492 95.2539C239.044 94.8939 239.78 94.7139 240.7 94.7139C241.174 94.7139 241.625 94.7617 242.054 94.8574C242.487 94.9531 242.931 95.1058 243.387 95.3154L242.758 96.8193C242.38 96.6553 242.022 96.5208 241.685 96.416C241.352 96.3112 241.012 96.2588 240.666 96.2588C240.361 96.2588 240.131 96.2998 239.976 96.3818C239.821 96.4639 239.743 96.5892 239.743 96.7578C239.743 96.8809 239.782 96.9902 239.859 97.0859C239.941 97.1816 240.096 97.2887 240.324 97.4072C240.557 97.5212 240.896 97.6693 241.343 97.8516C241.776 98.0293 242.152 98.2161 242.471 98.4121C242.79 98.6035 243.036 98.8428 243.209 99.1299C243.382 99.4124 243.469 99.7793 243.469 100.23Z" fill="#54AECF"/>
<rect x="79" y="392" width="138" height="53" fill="#F7F7F7"/>
<rect x="79.5" y="392.5" width="137" height="52" stroke="black" stroke-opacity="0.8"/>
<path d="M135.646 414.006H138.477C139.725 414.006 140.664 414.193 141.293 414.566C141.922 414.94 142.236 415.576 142.236 416.474C142.236 416.861 142.161 417.21 142.011 417.52C141.865 417.825 141.651 418.078 141.368 418.278C141.086 418.479 140.737 418.618 140.322 418.695V418.764C140.76 418.832 141.147 418.957 141.484 419.14C141.822 419.322 142.086 419.577 142.277 419.905C142.469 420.233 142.564 420.65 142.564 421.156C142.564 421.771 142.421 422.291 142.134 422.715C141.851 423.139 141.45 423.46 140.931 423.679C140.411 423.893 139.796 424 139.085 424H135.646V414.006ZM136.809 418.292H138.723C139.593 418.292 140.195 418.148 140.527 417.861C140.865 417.574 141.033 417.155 141.033 416.604C141.033 416.034 140.833 415.624 140.432 415.373C140.035 415.122 139.402 414.997 138.531 414.997H136.809V418.292ZM136.809 419.27V423.009H138.887C139.775 423.009 140.404 422.836 140.773 422.489C141.143 422.138 141.327 421.667 141.327 421.074C141.327 420.696 141.243 420.372 141.074 420.104C140.91 419.835 140.641 419.63 140.268 419.488C139.898 419.342 139.404 419.27 138.784 419.27H136.809ZM145.859 424H144.697V414.006H150.262V415.031H145.859V418.695H149.995V419.714H145.859V424ZM159.866 418.907C159.866 420.033 159.661 420.974 159.251 421.73C158.841 422.482 158.246 423.05 157.467 423.433C156.692 423.811 155.751 424 154.644 424H151.93V414.006H154.944C155.961 414.006 156.836 414.193 157.569 414.566C158.303 414.936 158.868 415.485 159.265 416.214C159.666 416.938 159.866 417.836 159.866 418.907ZM158.643 418.948C158.643 418.05 158.492 417.31 158.191 416.727C157.895 416.143 157.458 415.71 156.879 415.428C156.305 415.141 155.601 414.997 154.767 414.997H153.092V423.002H154.507C155.883 423.002 156.915 422.662 157.604 421.983C158.296 421.304 158.643 420.293 158.643 418.948Z" fill="black"/>
<rect x="79" y="490" width="138" height="53" fill="#F7F7F7"/>
<rect x="79.5" y="490.5" width="137" height="52" stroke="black" stroke-opacity="0.8"/>
<path d="M130.424 512.006H133.254C134.503 512.006 135.441 512.193 136.07 512.566C136.699 512.94 137.014 513.576 137.014 514.474C137.014 514.861 136.938 515.21 136.788 515.52C136.642 515.825 136.428 516.078 136.146 516.278C135.863 516.479 135.514 516.618 135.1 516.695V516.764C135.537 516.832 135.924 516.957 136.262 517.14C136.599 517.322 136.863 517.577 137.055 517.905C137.246 518.233 137.342 518.65 137.342 519.156C137.342 519.771 137.198 520.291 136.911 520.715C136.629 521.139 136.228 521.46 135.708 521.679C135.188 521.893 134.573 522 133.862 522H130.424V512.006ZM131.586 516.292H133.5C134.37 516.292 134.972 516.148 135.305 515.861C135.642 515.574 135.811 515.155 135.811 514.604C135.811 514.034 135.61 513.624 135.209 513.373C134.812 513.122 134.179 512.997 133.309 512.997H131.586V516.292ZM131.586 517.27V521.009H133.664C134.553 521.009 135.182 520.836 135.551 520.489C135.92 520.138 136.104 519.667 136.104 519.074C136.104 518.696 136.02 518.372 135.852 518.104C135.688 517.835 135.419 517.63 135.045 517.488C134.676 517.342 134.181 517.27 133.562 517.27H131.586ZM143.747 512.888C143.196 512.888 142.699 512.983 142.257 513.175C141.819 513.362 141.446 513.635 141.136 513.995C140.83 514.351 140.596 514.781 140.432 515.287C140.268 515.793 140.186 516.363 140.186 516.996C140.186 517.835 140.315 518.564 140.575 519.184C140.84 519.799 141.231 520.275 141.751 520.612C142.275 520.95 142.929 521.118 143.713 521.118C144.16 521.118 144.579 521.082 144.971 521.009C145.367 520.931 145.752 520.836 146.126 520.722V521.733C145.761 521.87 145.379 521.97 144.978 522.034C144.576 522.103 144.1 522.137 143.549 522.137C142.533 522.137 141.683 521.927 140.999 521.508C140.32 521.084 139.81 520.487 139.468 519.717C139.131 518.947 138.962 518.037 138.962 516.989C138.962 516.233 139.067 515.542 139.276 514.918C139.491 514.289 139.8 513.747 140.206 513.291C140.616 512.835 141.118 512.484 141.71 512.238C142.307 511.988 142.991 511.862 143.761 511.862C144.267 511.862 144.754 511.912 145.224 512.013C145.693 512.113 146.117 512.257 146.495 512.443L146.03 513.428C145.711 513.282 145.36 513.157 144.978 513.052C144.599 512.942 144.189 512.888 143.747 512.888ZM156.229 516.907C156.229 518.033 156.024 518.974 155.614 519.73C155.204 520.482 154.609 521.05 153.83 521.433C153.055 521.811 152.114 522 151.007 522H148.293V512.006H151.308C152.324 512.006 153.199 512.193 153.933 512.566C154.666 512.936 155.231 513.485 155.628 514.214C156.029 514.938 156.229 515.836 156.229 516.907ZM155.006 516.948C155.006 516.05 154.855 515.31 154.555 514.727C154.258 514.143 153.821 513.71 153.242 513.428C152.668 513.141 151.964 512.997 151.13 512.997H149.455V521.002H150.87C152.246 521.002 153.279 520.662 153.967 519.983C154.66 519.304 155.006 518.293 155.006 516.948ZM164.72 522L163.489 518.828H159.483L158.26 522H157.084L160.994 511.965H162.04L165.923 522H164.72ZM163.141 517.796L161.972 514.645C161.944 514.562 161.899 514.428 161.835 514.241C161.776 514.054 161.714 513.861 161.65 513.66C161.587 513.46 161.534 513.298 161.493 513.175C161.448 513.362 161.397 513.549 161.343 513.735C161.293 513.918 161.243 514.089 161.192 514.248C161.142 514.403 161.099 514.535 161.062 514.645L159.873 517.796H163.141Z" fill="black"/>
<rect x="168.5" y="240.5" width="89" height="72" stroke="black"/>
<path d="M202.513 282V272.006H203.675V282H202.513ZM214.359 276.907C214.359 278.033 214.154 278.974 213.744 279.73C213.334 280.482 212.739 281.05 211.96 281.433C211.185 281.811 210.244 282 209.137 282H206.423V272.006H209.438C210.454 272.006 211.329 272.193 212.062 272.566C212.796 272.936 213.361 273.485 213.758 274.214C214.159 274.938 214.359 275.836 214.359 276.907ZM213.136 276.948C213.136 276.05 212.985 275.31 212.685 274.727C212.388 274.143 211.951 273.71 211.372 273.428C210.798 273.141 210.094 272.997 209.26 272.997H207.585V281.002H209C210.376 281.002 211.409 280.662 212.097 279.983C212.789 279.304 213.136 278.293 213.136 276.948ZM219.281 272.006C220.102 272.006 220.778 272.108 221.312 272.313C221.849 272.514 222.25 272.822 222.515 273.236C222.779 273.651 222.911 274.18 222.911 274.822C222.911 275.351 222.815 275.793 222.624 276.148C222.433 276.499 222.182 276.784 221.872 277.003C221.562 277.222 221.232 277.39 220.881 277.509L223.622 282H222.269L219.821 277.83H217.743V282H216.581V272.006H219.281ZM219.213 273.011H217.743V276.846H219.329C220.145 276.846 220.744 276.679 221.127 276.347C221.514 276.014 221.708 275.524 221.708 274.877C221.708 274.198 221.503 273.717 221.093 273.435C220.687 273.152 220.061 273.011 219.213 273.011Z" fill="black"/>
</svg>
