<svg xmlns="http://www.w3.org/2000/svg" width="102" height="106" viewBox="0 0 102 106">
    <g fill="none">
        <path fill="#5B7FA0" d="M40.372 98.933c0 3.903 3.156 7.067 7.048 7.067h7.048c3.892 0 7.047-3.164 7.047-7.067v-1.066H40.372v1.066z"/>
        <path fill="#4A6F99" d="M56.623 97.867v1.066c0 3.903-3.155 7.067-7.047 7.067h4.892c3.892 0 7.048-3.164 7.048-7.067v-1.066h-4.893z"/>
        <path fill="#BEC8F7" d="M68.563 76.667H33.325v15.441c0 3.77 3.047 6.825 6.806 6.825h21.626c3.759 0 6.806-3.055 6.806-6.825V76.667z"/>
        <path fill="#A2B6F4" d="M63.671 76.667v15.441c0 3.77-3.048 6.825-6.807 6.825h4.893c3.759 0 6.806-3.055 6.806-6.825V76.667h-4.892z"/>
        <path fill="#E9EFFF" d="M68.563 86.4H33.325c-.882 0-1.596-.717-1.596-1.6 0-.883.714-1.6 1.596-1.6h35.238c.882 0 1.596.717 1.596 1.6 0 .884-.714 1.6-1.596 1.6zM68.563 93.466H33.325c-.882 0-1.596-.716-1.596-1.6 0-.883.714-1.599 1.596-1.599h35.238c.882 0 1.596.716 1.596 1.6 0 .883-.714 1.6-1.596 1.6z"/>
        <path fill="#FFC55E" d="M84.42 33.567C84.42 15.419 70.059.635 52.109.02 33.243-.626 17.674 14.268 17.47 33.194c-.119 10.985 5.026 20.769 13.062 26.976 1.748 1.35 2.794 3.42 2.794 5.634v5.93h35.238v-5.93c0-2.212 1.043-4.281 2.79-5.63 7.947-6.137 13.068-15.772 13.068-26.607z"/>
        <path fill="#FFA438" d="M52.108.02c-1.226-.042-2.438-.017-3.634.07 17.358 1.245 31.054 15.756 31.054 33.477 0 10.835-5.121 20.47-13.068 26.607-1.747 1.349-2.79 3.419-2.79 5.63v5.93h4.893v-5.93c0-2.211 1.043-4.281 2.79-5.63C79.3 54.037 84.42 44.402 84.42 33.567 84.42 15.419 70.058.635 52.108.02zM8.657 35.167H1.61c-.882 0-1.596-.717-1.596-1.6 0-.883.714-1.6 1.596-1.6h7.047c.882 0 1.596.717 1.596 1.6 0 .883-.714 1.6-1.596 1.6zM8.22 59.9c-.55 0-1.087-.287-1.382-.8-.44-.765-.18-1.743.584-2.185l6.103-3.533c.763-.442 1.739-.18 2.18.585.44.765.178 1.743-.585 2.185l-6.103 3.533c-.251.146-.526.215-.796.215zM93.667 59.9c-.27 0-.545-.07-.796-.215l-6.103-3.533c-.763-.442-1.025-1.42-.584-2.185.44-.765 1.415-1.028 2.179-.585l6.103 3.533c.763.442 1.025 1.42.584 2.185-.295.513-.832.8-1.383.8zM100.278 35.167h-7.047c-.882 0-1.596-.717-1.596-1.6 0-.883.714-1.6 1.596-1.6h7.047c.882 0 1.596.717 1.596 1.6 0 .883-.715 1.6-1.596 1.6zM87.567 13.967c-.552 0-1.088-.287-1.384-.8-.44-.765-.179-1.744.584-2.185l6.104-3.533c.763-.442 1.739-.18 2.18.585.44.765.178 1.743-.585 2.185l-6.103 3.533c-.252.146-.526.215-.796.215zM14.321 13.967c-.27 0-.545-.07-.796-.215L7.422 10.22c-.763-.442-1.025-1.42-.584-2.185.44-.765 1.415-1.028 2.179-.586l6.103 3.534c.763.441 1.025 1.42.584 2.185-.295.513-.831.8-1.383.8z"/>
        <g>
            <path fill="#E9EFFF" d="M48.281 20.224l-2.903-.582c-.608-.122-1.096-.57-1.289-1.161-.323-.99-.719-1.946-1.183-2.863-.28-.555-.252-1.218.093-1.736l1.642-2.47c.384-.577.308-1.345-.181-1.836L39.986 5.09c-.49-.49-1.256-.566-1.831-.181L35.69 6.555c-.517.346-1.177.374-1.732.093-.913-.465-1.867-.862-2.854-1.186-.59-.194-1.036-.682-1.158-1.293l-.58-2.91c-.136-.68-.731-1.17-1.423-1.17h-6.327c-.692 0-1.287.49-1.423 1.17l-.58 2.91c-.122.61-.568 1.1-1.158 1.293-.987.324-1.941.721-2.855 1.186-.554.282-1.215.253-1.732-.093l-2.463-1.647c-.576-.384-1.342-.308-1.831.182L5.1 9.576c-.489.49-.565 1.259-.18 1.836l1.642 2.47c.344.518.373 1.18.092 1.736-.464.917-.86 1.873-1.183 2.863-.193.591-.68 1.039-1.29 1.16l-2.902.583c-.678.136-1.166.733-1.166 1.426v6.344c0 .694.488 1.291 1.166 1.427l2.903.582c.609.122 1.096.57 1.29 1.161.322.99.718 1.946 1.182 2.862.281.556.252 1.218-.092 1.737l-1.643 2.47c-.384.577-.308 1.345.181 1.835l4.474 4.486c.49.49 1.256.567 1.831.182l2.464-1.647c.517-.345 1.177-.374 1.732-.092.913.464 1.867.862 2.854 1.186.59.193 1.036.682 1.158 1.292l.58 2.91c.136.681.732 1.17 1.423 1.17h6.327c.692 0 1.288-.489 1.423-1.17l.581-2.91c.122-.61.568-1.099 1.158-1.292.987-.324 1.94-.722 2.854-1.186.555-.282 1.215-.253 1.732.092l2.464 1.647c.575.385 1.341.309 1.83-.182l4.474-4.486c.49-.49.565-1.258.182-1.835l-1.643-2.47c-.344-.519-.373-1.181-.092-1.737.464-.916.86-1.872 1.183-2.862.193-.592.68-1.039 1.289-1.16l2.903-.583c.678-.136 1.166-.733 1.166-1.427v-6.343c0-.694-.488-1.291-1.167-1.427zm-23.5 8.132c-1.946 0-3.524-1.582-3.524-3.533 0-1.952 1.577-3.534 3.524-3.534 1.946 0 3.524 1.582 3.524 3.534 0 1.95-1.578 3.533-3.524 3.533z" transform="translate(26.163 8.744)"/>
            <path fill="#D3DCFB" d="M24.78 37.022c-6.708 0-12.166-5.473-12.166-12.2 0-6.726 5.458-12.2 12.167-12.2s12.167 5.474 12.167 12.2c0 6.727-5.458 12.2-12.167 12.2zm0-21.2c-4.95 0-8.976 4.038-8.976 9 0 4.963 4.027 9 8.977 9s8.976-4.037 8.976-9c0-4.962-4.027-9-8.976-9z" transform="translate(26.163 8.744)"/>
            <path fill="#D3DCFB" d="M48.281 20.224l-2.903-.582c-.608-.122-1.096-.57-1.289-1.161-.323-.99-.719-1.946-1.183-2.863-.28-.555-.252-1.218.093-1.736l1.642-2.47c.384-.577.308-1.345-.181-1.836L39.986 5.09c-.489-.49-1.255-.566-1.83-.181l-1.946 1.3 3.358 3.367c.489.49.565 1.259.18 1.836l-1.642 2.47c-.344.518-.373 1.18-.092 1.736.464.917.86 1.873 1.183 2.863.193.591.68 1.039 1.29 1.16l2.902.583c.678.136 1.166.733 1.166 1.426v6.344c0 .694-.488 1.29-1.166 1.427l-2.903.582c-.609.122-1.096.57-1.29 1.161-.322.99-.718 1.946-1.182 2.862-.281.556-.252 1.218.092 1.737l1.643 2.47c.384.577.308 1.345-.181 1.835l-3.358 3.367 1.945 1.301c.576.385 1.342.309 1.831-.182l4.474-4.486c.489-.49.565-1.258.181-1.835L43 35.763c-.345-.519-.374-1.181-.093-1.737.464-.916.86-1.872 1.183-2.862.193-.592.68-1.039 1.29-1.161l2.902-.582c.679-.136 1.167-.733 1.167-1.427V21.65c0-.693-.488-1.29-1.167-1.426z" transform="translate(26.163 8.744)"/>
        </g>
        <path fill="#E9EFFF" d="M68.563 77.733c1.946 0 3.524-1.581 3.524-3.533s-1.577-3.533-3.524-3.533H33.325c-1.947 0-3.524 1.581-3.524 3.533s1.577 3.533 3.524 3.533h35.238z"/>
        <path fill="#D3DCFB" d="M68.563 70.667h-4.892c1.946 0 3.524 1.582 3.524 3.533 0 1.952-1.578 3.534-3.524 3.534h4.892c1.946 0 3.524-1.582 3.524-3.534 0-1.951-1.578-3.533-3.524-3.533z"/>
    </g>
</svg>
