<svg xmlns="http://www.w3.org/2000/svg" width="437" height="410" viewBox="0 0 437 410">
    <g fill="none" fill-rule="evenodd">
        <ellipse cx="218.5" cy="126.228" fill="#E8F2F7" fill-rule="nonzero" rx="218.137" ry="125.956" transform="translate(0 156.947)"/>
        <g fill="#E0E0E0" fill-rule="nonzero" transform="translate(16 181.947)">
            <ellipse cx="321.518" cy="157.452" rx="43.666" ry="25.185"/>
            <path d="M37.597 146.128L1.812 125.473c-1.993-1.178-1.993-3.08 0-4.258L210.088.905c1.993-1.177 5.254-1.177 7.338 0l35.784 20.656c1.993 1.178 1.993 3.08 0 4.258L44.844 146.13c-1.993 1.177-5.254 1.177-7.247 0z"/>
        </g>
        <g fill="#EBEBEB" fill-rule="nonzero">
            <path d="M47.854 5.191l-8.036 4.736c0-.364.09-.729.09-1.093V6.466c0-4.19-2.889-5.92-6.5-3.825-1.445.82-2.8 2.186-3.883 3.734-.632-5.282-4.695-7.286-9.66-4.371-5.418 3.096-9.752 10.746-9.752 17.03v3.552c0 1.639.27 3.005.812 4.098L4.244 30.6C2.257 31.784.632 34.607.632 36.884c0 2.368 1.625 3.279 3.612 2.095l43.61-25.318c1.987-1.184 3.612-4.007 3.612-6.284 0-2.368-1.625-3.279-3.612-2.186zM89.66 24.771l-6.05 3.552c0-.273.09-.546.09-.82v-1.82c0-3.188-2.167-4.463-4.966-2.824-1.084.637-2.077 1.64-2.98 2.823-.451-4.007-3.521-5.464-7.313-3.278-4.063 2.367-7.404 8.105-7.404 12.84v2.642c0 1.184.18 2.276.632 3.096l-5.056 2.914c-1.535.911-2.71 3.006-2.71 4.736s1.265 2.46 2.71 1.548l33.046-19.216c1.535-.91 2.709-3.005 2.709-4.735 0-1.64-1.174-2.368-2.709-1.458z" transform="translate(30 15.947)"/>
        </g>
        <g fill-rule="nonzero">
            <g>
                <path fill="#263238" d="M54.05 90.253l30.834-17.76c3.174-1.813 4.807-4.26 4.807-6.615v-4.26L57.678 43.587c-1.723-.997-3.084-3.353-3.084-5.346V.272L.726 31.353v37.968c0 1.994 1.36 4.35 3.083 5.346l27.206 15.677c6.349 3.625 16.687 3.625 23.035-.09z" transform="translate(43 .947) translate(86.154 199.355)"/>
                <path fill="#000" d="M13.694 76.027v4.259l-9.885-5.71C2.086 73.58.726 71.225.726 69.23V31.262l10.247-5.89c.182 2.628.454 5.256.635 7.884l-7.164 4.168v29.632c0 1.993 1.36 4.35 3.083 5.346l6.167 3.625z" transform="translate(43 .947) translate(86.154 199.355)"/>
                <path fill="#37474F" d="M4.444 67.146c0 1.994 1.36 4.35 3.083 5.347l23.488 13.501c6.349 3.625 16.687 3.625 23.035 0l30.834-17.76c6.348-3.625 6.348-9.606 0-13.23L61.396 41.502c-1.723-.997-3.083-3.353-3.083-5.346V6.524L4.443 37.606v29.54z" transform="translate(43 .947) translate(86.154 199.355)"/>
                <path fill="#263238" d="M67.563 45.036l-6.258-3.625c-1.723-.996-3.083-3.352-3.083-5.346V6.434L4.353 37.515v29.631c0 1.994 1.36 4.35 3.083 5.347l6.167 3.534 53.96-30.99z" transform="translate(43 .947) translate(86.154 199.355)"/>
                <path fill="#455A64" d="M89.6 61.528v4.26c0 2.446-1.632 4.802-4.806 6.614L53.96 90.162c-3.084 1.813-6.983 2.629-10.974 2.72v-4.26c3.99-.09 7.98-.996 10.974-2.718l30.834-17.852c3.174-1.63 4.806-4.077 4.806-6.524z" transform="translate(43 .947) translate(86.154 199.355)"/>
            </g>
            <path fill="#455A64" d="M4.172 303.382c1.995 1.178 5.35 1.087 7.436-.181 26.481-15.224 181.74-104.752 208.22-119.976 2.086-1.178 3.81-4.168 3.81-6.615V7.702c0-2.446-1.633-5.346-3.628-6.524s-5.35-1.087-7.437.181L4.443 121.425c-2.085 1.178-3.808 4.169-3.808 6.615v168.817c-.09 2.538 1.542 5.437 3.537 6.525z" transform="translate(43 .947)"/>
            <path fill="#27DEBF" d="M11.608 303.291l208.22-120.066c2.086-1.178 3.81-4.168 3.81-6.615V7.702c0-2.446-1.724-3.443-3.81-2.174L11.608 125.594c-2.086 1.178-3.809 4.168-3.809 6.615v168.817c0 2.446 1.723 3.443 3.81 2.265z" transform="translate(43 .947)"/>
            <path fill="#37474F" d="M11.608 303.291l208.22-120.066c2.086-1.178 3.81-4.168 3.81-6.615V7.702c0-2.446-1.724-3.443-3.81-2.174L11.608 125.594c-2.086 1.178-3.809 4.168-3.809 6.615v168.817c0 2.446 1.723 3.443 3.81 2.265z" transform="translate(43 .947)"/>
            <path fill="#263238" d="M11.064 307.64c-2.086.907-5.079.907-6.892-.18-1.995-1.178-3.628-4.078-3.628-6.525v-15.314l7.165 4.168v15.315c.09 2.265 1.45 3.262 3.355 2.537z" transform="translate(43 .947)"/>
            <path fill="#37474F" d="M7.8 289.79v15.314c0 2.446 1.722 3.443 3.808 2.174l208.22-120.066c2.086-1.178 3.81-4.168 3.81-6.615v-15.314L7.798 289.79z" transform="translate(43 .947)"/>
            <path fill="#000" d="M7.8 289.79v15.314c0 2.446 1.722 3.443 3.808 2.174l208.22-120.066c2.086-1.178 3.81-4.168 3.81-6.615v-15.314L7.798 289.79z" opacity=".2" transform="translate(43 .947)"/>
            <path fill="#27DEBF" d="M14.964 270.579V134.565c0-1.45.997-3.263 2.267-3.988L214.115 17.036c1.27-.725 2.267-.181 2.267 1.359v136.014c0 1.45-.997 3.263-2.267 3.987L17.231 271.938c-1.27.725-2.267.181-2.267-1.36z" transform="translate(43 .947)"/>
            <path fill="#000" d="M14.964 270.579V134.565c0-1.45.997-3.263 2.267-3.988L214.115 17.036c1.27-.725 2.267-.181 2.267 1.359v136.014c0 1.45-.997 3.263-2.267 3.987L17.231 271.938c-1.27.725-2.267.181-2.267-1.36z" opacity=".3" transform="translate(43 .947)"/>
            <path fill="#455A64" d="M115.718 232.43c-1.995 1.178-3.627 3.896-3.627 6.252 0 2.266 1.632 3.262 3.627 2.084 1.995-1.178 3.628-3.896 3.628-6.252-.09-2.266-1.633-3.262-3.628-2.084z" transform="translate(43 .947)"/>
            <path fill="#263238" d="M8.887 128.493C8.162 129.671 7.8 131.03 7.8 132.3V289.88l-7.164-4.168V128.13c0-1.178.453-2.628 1.088-3.806l7.164 4.168z" transform="translate(43 .947)"/>
        </g>
        <g>
            <g fill-rule="nonzero">
                <path fill="#27DEBF" d="M213.004.544c-.545-.272-1.18-.272-1.998.18L3.27 120.414c-1.453.815-2.725 2.9-2.725 4.62v139.712c0 1.087.454 1.993 1.09 2.356.454.271 2.725 1.54 3.452 1.902.454.272.999.272 1.544-.09l207.827-119.779c1.453-.815 2.725-2.9 2.725-4.62V4.076c0-.906-.364-1.54-.818-1.721-.454-.182-2.816-1.45-3.36-1.812z" transform="translate(82 6.947)"/>
                <g>
                    <g>
                        <path fill="#FAFAFA" d="M2.18 267.01c-.727 0-1.363-.906-1.363-2.084V125.215c0-1.54 1.09-3.534 2.453-4.259L211.097 1.268c.363-.18.726-.271.999-.271.636 0 .999.543.999 1.45v140.436c0 1.54-1.09 3.443-2.452 4.258L2.816 266.829c-.182.181-.454.181-.636.181z" transform="translate(82 6.947) translate(0 1.812) translate(3.633)"/>
                        <path fill="#E0E0E0" d="M212.096 1.36c.545 0 .545.633.545.996v140.436c0 1.359-1 3.171-2.271 3.896L2.634 266.466c-.181.091-.272.182-.454.182-.454 0-.908-.725-.908-1.631V125.215c0-1.36.999-3.171 2.27-3.896L211.37 1.63c.363-.181.545-.272.727-.272m0-.906c-.364 0-.727.09-1.181.362L3.088 120.594c-1.453.815-2.725 2.9-2.725 4.62v139.712c0 1.36.727 2.537 1.817 2.537.272 0 .545-.09.908-.272l207.827-119.778c1.453-.816 2.725-2.9 2.725-4.621V2.356c-.09-1.178-.636-1.903-1.544-1.903z" transform="translate(82 6.947) translate(0 1.812) translate(3.633)"/>
                    </g>
                    <path fill="#F0F0F0" d="M1.726 265.38c.272.18 2.362 1.358 3.27 1.902-.636-.453-.909-1.178-1-2.265V134.003L.546 132.01v131.013c0 1.088.454 1.994 1.18 2.356z" transform="translate(82 6.947) translate(0 1.812)"/>
                </g>
                <path fill="#27DEBF" d="M217.183 4.168c0-1.722-1.181-2.356-2.725-1.54L6.722 122.406c-1.454.815-2.725 2.9-2.725 4.62v8.79L217.183 13.046v-8.88z" transform="translate(82 6.947)"/>
                <path fill="#FFF" d="M214.548 2.718L6.722 122.406c-.727.453-1.454 1.178-1.908 1.993l-3.452-1.993c.455-.815 1.181-1.54 1.908-1.993L211.097.725c.726-.453 1.453-.453 1.998-.181.454.271 2.725 1.54 3.27 1.902-.545-.272-1.18-.18-1.817.272z" opacity=".4" transform="translate(82 6.947)"/>
                <path fill="#000" d="M.545 133.822v-8.698c0-.906.363-1.812.818-2.718l3.451 1.993c-.454.816-.817 1.812-.817 2.628v8.788l-3.452-1.993z" opacity=".15" transform="translate(82 6.947)"/>
                <g>
                    <path fill="#EBEBEB" d="M3.997 123.131L3.997 138.987 217.183 16.218 217.183 0.362z" transform="translate(82 6.947) translate(0 12.685)"/>
                    <g fill="#E0E0E0">
                        <path d="M0.182 112.893L13.988 105.01 13.988 112.893 0.182 120.866z" transform="translate(82 6.947) translate(0 12.685) translate(12.717 9.06)"/>
                        <g>
                            <path d="M.091 16.037L.091 19.117 6.994 15.221 6.994 12.05zM.091 20.839L.091 23.919 6.994 20.023 6.994 16.852zM10.446 10.057L10.446 13.228 17.349 9.242 17.349 6.161zM10.446 14.859L10.446 18.03 17.349 14.044 17.349 10.963zM20.71 4.168L20.71 7.248 27.613 3.262 27.613.181zM20.71 8.97L20.71 12.05 27.613 8.064 27.613 4.983z" transform="translate(82 6.947) translate(0 12.685) translate(12.717 9.06) translate(17.258 86.98)"/>
                        </g>
                        <g>
                            <path d="M.818 16.218L.818 19.299 7.721 15.403 7.721 12.232zM.818 21.02L.818 24.191 7.721 20.205 7.721 17.034zM11.172 10.238L11.172 13.409 17.985 9.423 17.985 6.342zM11.172 15.131L11.172 18.211 17.985 14.225 17.985 11.144zM21.437 4.349L21.437 7.43 28.34 3.534 28.34.362zM21.437 9.151L21.437 12.232 28.34 8.336 28.34 5.164z" transform="translate(82 6.947) translate(0 12.685) translate(12.717 9.06) translate(68.125 57.08)"/>
                        </g>
                        <path d="M48.323 85.168L65.491 75.292 65.491 83.174 48.323 93.141zM99.917 55.45L113.723 47.567 113.723 55.45 99.917 63.423z" transform="translate(82 6.947) translate(0 12.685) translate(12.717 9.06)"/>
                        <g>
                            <path d="M.818 16.581L.818 19.661 7.721 15.765 7.721 12.594zM.818 21.383L.818 24.554 7.721 20.567 7.721 17.396zM11.172 10.601L11.172 13.772 17.985 9.785 17.985 6.705zM11.172 15.493L11.172 18.574 17.985 14.587 17.985 11.507zM21.437 4.711L21.437 7.792 28.34 3.896 28.34.725zM21.437 9.513L21.437 12.594 28.34 8.698 28.34 5.527z" transform="translate(82 6.947) translate(0 12.685) translate(12.717 9.06) translate(116.267 28.993)"/>
                        </g>
                        <g>
                            <path d="M.636 15.856L.636 19.027 7.539 15.04 7.539 11.869zM.636 20.658L.636 23.829 7.539 19.842 7.539 16.762zM10.991 9.966L10.991 13.047 17.803 9.06 17.803 5.98zM10.991 14.768L10.991 17.849 17.803 13.862 17.803 10.782zM21.255 3.987L21.255 7.067 28.158 3.171 28.158 0zM21.255 8.789L21.255 11.869 28.158 7.973 28.158 4.802z" transform="translate(82 6.947) translate(0 12.685) translate(12.717 9.06) translate(168.042)"/>
                        </g>
                        <path d="M148.058 27.725L165.226 17.849 165.226 25.732 148.058 35.698z" transform="translate(82 6.947) translate(0 12.685) translate(12.717 9.06)"/>
                    </g>
                    <path fill="#E0E0E0" d="M3.997 123.131L0.545 121.138 0.545 136.993 3.997 138.987z" transform="translate(82 6.947) translate(0 12.685)"/>
                </g>
                <g>
                    <path fill="#F5F5F5" d="M.545 27.634v.544c0 .906.636 1.268 1.453.815l41.784-24.01c.817-.453 1.453-1.63 1.453-2.537v-.543c0-.906-.636-1.269-1.453-.816l-41.784 24.1c-.817.363-1.453 1.45-1.453 2.447z" transform="translate(82 6.947) translate(161.683 10.872)"/>
                    <path fill="#455A64" d="M45.235 2.446v-.543c0-.906-.636-1.269-1.453-.816l-5.45 3.08v3.987l5.45-3.08c.817-.544 1.453-1.722 1.453-2.628z" transform="translate(82 6.947) translate(161.683 10.872)"/>
                </g>
            </g>
            <g>
                <path fill="#F0F0F0" fill-rule="nonzero" d="M1.09 120.05L207.463 1.268 207.463 9.151 18.258 118.148 18.258 221.074 1.09 230.95z" transform="translate(82 6.947) translate(6.358 33.523)"/>
                <path fill="#27DEBF" fill-rule="nonzero" d="M18.258 118.148L35.425 108.181 35.425 116.154 18.258 126.03zM18.258 181.48L35.425 171.604 35.425 179.487 18.258 189.362z" transform="translate(82 6.947) translate(6.358 33.523)"/>
                <g fill-rule="nonzero">
                    <path fill="#27DEBF" d="M0.091 9.966L17.258 0.091 17.258 7.973 0.091 17.94z" transform="translate(82 6.947) translate(6.358 33.523) translate(18.167 179.396)"/>
                    <path fill="#FFF" d="M0.091 9.966L17.258 0.091 17.258 7.973 0.091 17.94z" opacity=".8" transform="translate(82 6.947) translate(6.358 33.523) translate(18.167 179.396)"/>
                </g>
                <g fill-rule="nonzero">
                    <path fill="#27DEBF" d="M0.636 10.601L17.803 0.725 17.803 8.607 0.636 18.574z" transform="translate(82 6.947) translate(6.358 33.523) translate(120.808 111.443)"/>
                    <path fill="#000" d="M0.636 10.601L17.803 0.725 17.803 8.607 0.636 18.574z" opacity=".3" transform="translate(82 6.947) translate(6.358 33.523) translate(120.808 111.443)"/>
                </g>
                <g fill-rule="nonzero">
                    <path fill="#27DEBF" d="M0.636 10.419L17.803 0.544 17.803 8.426 0.636 18.302z" transform="translate(82 6.947) translate(6.358 33.523) translate(120.808 119.597)"/>
                    <path fill="#000" d="M0.636 10.419L17.803 0.544 17.803 8.426 0.636 18.302z" opacity=".4" transform="translate(82 6.947) translate(6.358 33.523) translate(120.808 119.597)"/>
                </g>
                <g fill-rule="nonzero">
                    <path fill="#27DEBF" d="M0.636 10.148L17.803 0.272 17.803 8.154 0.636 18.121z" transform="translate(82 6.947) translate(6.358 33.523) translate(120.808 127.752)"/>
                    <path fill="#000" d="M0.636 10.148L17.803 0.272 17.803 8.154 0.636 18.121z" opacity=".5" transform="translate(82 6.947) translate(6.358 33.523) translate(120.808 127.752)"/>
                </g>
                <g fill-rule="nonzero">
                    <path fill="#27DEBF" d="M0.636 9.966L17.803 0 17.803 7.973 0.636 17.849z" transform="translate(82 6.947) translate(6.358 33.523) translate(120.808 135.906)"/>
                    <path fill="#000" d="M0.636 9.966L17.803 0 17.803 7.973 0.636 17.849z" opacity=".3" transform="translate(82 6.947) translate(6.358 33.523) translate(120.808 135.906)"/>
                </g>
                <path fill="#27DEBF" fill-rule="nonzero" d="M104.277 68.587L121.444 58.711 121.444 98.305 104.277 108.181zM104.277 116.154L121.444 106.279 121.444 161.728 104.277 171.604z" transform="translate(82 6.947) translate(6.358 33.523)"/>
                <g fill-rule="nonzero">
                    <path fill="#27DEBF" d="M0 9.876L17.258 0 17.258 7.883 0 17.758z" transform="translate(82 6.947) translate(6.358 33.523) translate(35.425 145.872)"/>
                    <path fill="#000" d="M0 9.876L17.258 0 17.258 7.883 0 17.758z" opacity=".3" transform="translate(82 6.947) translate(6.358 33.523) translate(35.425 145.872)"/>
                </g>
                <g fill-rule="nonzero">
                    <path fill="#27DEBF" d="M0.818 10.238L17.985 0.362 17.985 8.245 0.818 18.211z" transform="translate(82 6.947) translate(6.358 33.523) translate(69.033 86.074)"/>
                    <path fill="#FFF" d="M0.818 10.238L17.985 0.362 17.985 8.245 0.818 18.211z" opacity=".6" transform="translate(82 6.947) translate(6.358 33.523) translate(69.033 86.074)"/>
                </g>
                <g fill-rule="nonzero">
                    <path fill="#27DEBF" d="M0.545 10.057L17.712 0.181 17.712 8.064 0.545 18.03z" transform="translate(82 6.947) translate(6.358 33.523) translate(155.325 84.262)"/>
                    <path fill="#FFF" d="M0.545 10.057L17.712 0.181 17.712 8.064 0.545 18.03z" opacity=".8" transform="translate(82 6.947) translate(6.358 33.523) translate(155.325 84.262)"/>
                </g>
                <path fill="#27DEBF" fill-rule="nonzero" d="M155.87 110.174L173.037 100.299 173.037 108.181 155.87 118.148z" transform="translate(82 6.947) translate(6.358 33.523)"/>
                <path fill="#E0E0E0" fill-rule="nonzero" d="M.908 119.688l-.181.09v111.896L207.645 112.53l.182-.09V.544L.908 119.688zm206.101-15.675l-16.35 9.423v-6.976l16.35-9.423v6.976zM1.544 128.295l16.35-9.423v6.977l-16.35 9.423v-6.977zm102.279-11.416v6.977l-16.35 9.423v-6.977l16.35-9.423zm-16.35 8.426v-6.976l16.35-9.423v6.977l-16.35 9.422zm17.167-8.879l16.35-9.423v6.977l-16.35 9.423v-6.977zm0-.996v-6.977l16.35-9.423v6.977l-16.35 9.423zm0-7.974v-6.886l16.35-9.422v6.976l-16.35 9.332zm0-7.882v-6.977l16.35-9.423v6.977l-16.35 9.423zm-.817.453l-16.35 9.423v-6.977l16.35-9.423v6.977zm0 .996V108l-16.35 9.423v-6.977l16.35-9.423zm-17.168 16.853l-16.35 9.423v-6.977l16.35-9.423v6.977zm0 .996v6.977l-16.35 9.423v-6.977l16.35-9.423zm0 7.883v6.977l-16.35 9.422v-6.976l16.35-9.423zm0 7.973v6.977l-16.35 9.423v-6.977l16.35-9.423zm.817-.543l16.35-9.423v6.976l-16.35 9.423v-6.976zm16.35-1.45v6.976l-16.35 9.423v-6.976l16.35-9.423zm.818-.453l16.35-9.423v6.977l-16.35 9.422v-6.976zm0-.997v-6.976l16.35-9.423v6.976l-16.35 9.423zm17.258-16.852l16.35-9.423v6.977l-16.35 9.422v-6.976zm0-.997v-6.976l16.35-9.423v6.976l-16.35 9.423zm0-7.882v-6.977l16.35-9.423v6.977l-16.35 9.423zm0-7.973v-6.977l16.35-9.423v6.977l-16.35 9.423zm0-7.883v-6.977l16.35-9.422v6.976l-16.35 9.423zm0-7.973v-6.977l16.35-9.422v6.976l-16.35 9.423zm-.908.543l-16.35 9.423v-6.976l16.35-9.423v6.976zm-17.167 9.876l-16.35 9.423v-6.976l16.35-9.423v6.976zm-17.168 9.876l-16.35 9.423v-6.977l16.35-9.422v6.976zm0 .997v6.976l-16.35 9.423v-6.976l16.35-9.423zm-17.168 16.852l-16.35 9.423v-6.977l16.35-9.422v6.976zm0 .997v6.976l-16.35 9.423v-6.976l16.35-9.423zm0 7.882v6.977l-16.35 9.423v-6.977l16.35-9.423zm0 7.973v6.977l-16.35 9.423v-6.977l16.35-9.423zm0 7.883v6.977l-16.35 9.422v-6.976l16.35-9.423zm0 7.883v6.976l-16.35 9.423v-6.977l16.35-9.422zm.818-.453l16.35-9.423v6.976l-16.35 9.423v-6.976zm16.35-1.45v6.976l-16.35 9.423v-6.976l16.35-9.423zm.817-.544l16.35-9.423v6.977l-16.35 9.423v-6.977zm17.168-9.876l16.35-9.422v6.976l-16.35 9.423v-6.977zm17.258-9.875l16.35-9.423v6.976l-16.35 9.423v-6.976zm0-.997v-6.977l16.35-9.422v6.976l-16.35 9.423zm17.168-16.852l16.35-9.423v6.976l-16.35 9.423v-6.976zm0-.997v-6.977l16.35-9.422v6.976l-16.35 9.423zm0-7.883v-6.976l16.35-9.423v6.977l-16.35 9.422zm0-7.973v-6.976l16.35-9.423v6.976l-16.35 9.423zm0-7.882v-6.977l16.35-9.423v6.977l-16.35 9.423zm0-7.973v-6.977l16.35-9.423v6.977l-16.35 9.423zm0-7.883v-6.977l16.35-9.422v6.976l-16.35 9.423zm0-7.973v-6.977l16.35-9.422v6.976l-16.35 9.423zm-.818.543l-16.35 9.423v-6.976l16.35-9.423v6.976zm-17.258 9.876l-16.35 9.423v-6.976l16.35-9.423v6.976zm-17.167 9.876l-16.35 9.423v-6.977l16.35-9.422v6.976zm-17.168 9.967l-16.35 9.422v-6.976l16.35-9.423v6.977zm-17.168 9.875l-16.35 9.423v-6.976l16.35-9.423v6.976zm0 .997v6.977l-16.35 9.422v-6.976l16.35-9.423zM52.23 121.862l-16.35 9.423v-6.976l16.35-9.423v6.976zm0 .906v6.977l-16.35 9.423v-6.977l16.35-9.423zm0 7.974v6.976l-16.35 9.423v-6.977l16.35-9.422zm0 7.882v6.977l-16.35 9.422v-6.976l16.35-9.423zm0 7.973v6.977l-16.35 9.423v-6.977l16.35-9.423zm0 7.883v6.976l-16.35 9.423v-6.976l16.35-9.423zm0 7.973v6.977l-16.35 9.422v-6.976l16.35-9.423zm0 7.883v6.976l-16.35 9.423v-6.977l16.35-9.422zm.909-.453l16.35-9.423v6.976l-16.35 9.423v-6.976zm16.35-1.54v6.976l-16.35 9.423v-6.977l16.35-9.423zm.817-.454l16.35-9.423v6.977l-16.35 9.423v-6.977zm17.167-9.876l16.35-9.422v6.976l-16.35 9.423v-6.977zm17.168-9.966l16.35-9.423v6.977l-16.35 9.422v-6.976zm17.258-9.876l16.35-9.423v6.977l-16.35 9.423v-6.977zm17.168-9.876l16.35-9.423v6.977l-16.35 9.423v-6.977zm0-.996v-6.977l16.35-9.423v6.977l-16.35 9.423zm17.167-16.853l16.35-9.423V108l-16.35 9.423v-6.977zm0-.996v-6.977l16.35-9.423v6.977l-16.35 9.423zm0-7.883v-6.976l16.35-9.423v6.976l-16.35 9.423zm0-7.973v-6.977l16.35-9.422v6.976l-16.35 9.423zm0-7.883v-6.976l16.35-9.423v6.977l-16.35 9.422zm0-7.882v-6.977l16.35-9.422v6.976l-16.35 9.423zm0-7.973v-6.977l16.35-9.423v6.977l-16.35 9.423zm0-7.883v-6.976l16.35-9.423v6.976l-16.35 9.423zm0-7.973v-6.977l16.35-9.422v6.976L156.233 54zm0-7.883v-6.976l16.35-9.423v6.977l-16.35 9.422zm-.817.453l-16.35 9.423v-6.976l16.35-9.423v6.976zm-17.168 9.876l-16.35 9.423v-6.976l16.35-9.423v6.976zm-17.258 9.967l-16.35 9.423v-6.977l16.35-9.423v6.977zm-17.167 9.876l-16.35 9.422v-6.976l16.35-9.423v6.977zm-17.168 9.875l-16.35 9.423v-6.976l16.35-9.423v6.976zm-17.168 9.967l-16.35 9.423v-6.977l16.35-9.423v6.977zm-17.258 9.876l-16.35 9.423v-6.977l16.35-9.423v6.977zm0 .996v6.977l-16.35 9.423v-6.977l16.35-9.423zm-17.167 16.853l-16.35 9.423v-6.977l16.35-9.423v6.977zm0 .906v6.976l-16.35 9.423v-6.976l16.35-9.423zm0 7.973v6.976l-16.35 9.423v-6.976l16.35-9.423zm0 7.882v6.977l-16.35 9.423v-6.977l16.35-9.423zm0 7.974v6.976l-16.35 9.423v-6.977l16.35-9.422zm0 7.882v6.977l-16.35 9.422v-6.976l16.35-9.423zm0 7.973v6.977l-16.35 9.423v-6.977l16.35-9.423zm0 7.883v6.976l-16.35 9.423v-6.976l16.35-9.423zm0 7.882v6.977l-16.35 9.423v-6.977l16.35-9.423zm0 7.974v6.976l-16.35 9.423v-6.977l16.35-9.422zm.817-.453l16.35-9.423v6.976l-16.35 9.423v-6.976zm16.35-1.54v6.976l-16.35 9.423v-6.977l16.35-9.423zm.909-.454l16.35-9.423v6.977l-16.35 9.423v-6.977zm17.167-9.966l16.35-9.423v6.977l-16.35 9.422v-6.976zm17.167-9.876l16.35-9.423v6.977l-16.35 9.422v-6.976zm17.168-9.876l16.35-9.423v6.977l-16.35 9.423v-6.977zm17.258-9.876l16.35-9.423v6.977l-16.35 9.423v-6.977zm17.168-9.966l16.35-9.423v6.977l-16.35 9.422v-6.976zm17.167-9.876l16.35-9.423v6.977l-16.35 9.423v-6.977zm0-.997v-6.976l16.35-9.423v6.977l-16.35 9.422zm17.259-16.852l16.35-9.423v6.977l-16.35 9.423v-6.977zm0-.997v-6.886l16.35-9.422v6.976l-16.35 9.332zm0-7.882v-6.977l16.35-9.423v6.977l-16.35 9.423zm0-7.883v-6.976l16.35-9.423v6.976l-16.35 9.423zm0-7.973v-6.976l16.35-9.423v6.976l-16.35 9.423zm0-7.882v-6.977l16.35-9.423v6.977l-16.35 9.423zm0-7.974v-6.976l16.35-9.423v6.977l-16.35 9.422zm0-7.882v-6.977l16.35-9.422v6.976l-16.35 9.423zm0-7.973V45.03l16.35-9.423v6.977l-16.35 9.423zm0-7.883v-6.976l16.35-9.423V34.7l-16.35 9.423zm0-7.973v-6.977l16.35-9.422v6.976l-16.35 9.423zm0-7.883v-6.976l16.35-9.423v6.977l-16.35 9.422zm-.909.453l-16.35 9.423v-6.976l16.35-9.423v6.976zm-17.167 9.967l-16.35 9.423v-6.977l16.35-9.423v6.977zm-17.168 9.876l-16.35 9.423V51.01l16.35-9.423v6.977zM120.99 58.44l-16.35 9.422v-6.976l16.35-9.423v6.977zm-17.167 9.966l-16.35 9.423v-6.977l16.35-9.422v6.976zm-17.168 9.876l-16.35 9.423v-6.977l16.35-9.423v6.977zm-17.168 9.876l-16.35 9.423v-6.977l16.35-9.423v6.977zM52.23 98.034l-16.35 9.422v-6.886l16.35-9.422v6.886zM35.062 108l-16.35 9.423v-6.977l16.35-9.423V108zm0 .906v6.977l-16.35 9.422v-6.976l16.35-9.423zM1.544 136.178l16.35-9.423v6.977l-16.35 9.422v-6.976zm0 7.973l16.35-9.423v6.977l-16.35 9.423v-6.977zm0 7.883l16.35-9.423v6.976l-16.35 9.423v-6.976zm0 7.882l16.35-9.423v6.977l-16.35 9.423v-6.977zm0 7.973l16.35-9.423v6.977l-16.35 9.423v-6.977zm0 7.883l16.35-9.423v6.977l-16.35 9.422v-6.976zm0 7.973l16.35-9.423v6.977l-16.35 9.422v-6.976zm0 7.883l16.35-9.423v6.976l-16.35 9.423v-6.976zm0 7.973l16.35-9.423v6.976l-16.35 9.423v-6.976zm0 7.882l16.35-9.423v6.977l-16.35 9.423v-6.977zm0 7.973l16.35-9.422v6.976l-16.35 9.423v-6.977zm17.168-9.966l16.35-9.423v6.977l-16.35 9.422v-6.976zm16.35-1.45v6.886l-16.35 9.423v-6.886l16.35-9.423zm.817-.543l16.35-9.423v6.886l-16.35 9.423v-6.886zm17.259-9.876l16.35-9.423v6.886l-16.35 9.423v-6.886zm17.167-9.876l16.35-9.423v6.886l-16.35 9.423v-6.886zm17.167-9.876l16.35-9.423v6.886l-16.35 9.423v-6.886zm17.168-9.966l16.35-9.423v6.886l-16.35 9.423v-6.886zm17.258-9.876l16.35-9.423v6.886l-16.35 9.423v-6.886zm17.168-9.876l16.35-9.423v6.886l-16.35 9.423v-6.886zm17.167-9.966l16.35-9.423v6.886l-16.35 9.422v-6.885zm17.259-9.876l16.35-9.423v6.886l-16.35 9.423v-6.886zm0-.997v-6.976l16.35-9.423v6.976l-16.35 9.423zm33.517-27.181l-16.35 9.423v-6.977l16.35-9.423v6.977zm0-7.973l-16.35 9.423v-6.977l16.35-9.423v6.977zm0-7.883l-16.35 9.423v-6.977l16.35-9.422v6.976zm0-7.973l-16.35 9.423v-6.977l16.35-9.422v6.976zm0-7.883l-16.35 9.423v-6.976l16.35-9.423v6.976zm0-7.882l-16.35 9.423v-6.977l16.35-9.423v6.977zm0-7.973l-16.35 9.423V51.01l16.35-9.423v6.977zm0-7.883l-16.35 9.423v-6.976l16.35-9.423v6.976zm0-7.973l-16.35 9.423v-6.977l16.35-9.422v6.976zm0-7.882l-16.35 9.422v-6.976l16.35-9.423v6.977zm0-7.974l-16.35 9.423V19.3l16.35-9.423v6.976zm0-7.882l-16.35 9.423v-6.977l16.35-9.423V8.97zM17.894 110.9v6.976l-16.35 9.423v-6.977l16.35-9.423zM1.544 223.338l16.35-9.423v6.886l-16.35 9.423v-6.886zm189.115-102.02v-6.886l16.35-9.423v6.886l-16.35 9.423z" transform="translate(82 6.947) translate(6.358 33.523)"/>
                <g>
                    <path fill="#FAFAFA" fill-rule="nonzero" stroke="#E0E0E0" d="M0.545 39.775L69.397 0.181 69.397 39.775 0.545 79.369z" transform="translate(82 6.947) translate(6.358 33.523) translate(138.067 9.06)"/>
                    <g>
                        <path stroke="#455A64" stroke-linecap="round" stroke-linejoin="round" stroke-width=".75" d="M0.363 50.466L9.719 25.097 19.983 31.258 30.338 20.748 40.602 27.544 50.958 2.174 61.222 7.43" transform="translate(82 6.947) translate(6.358 33.523) translate(138.067 9.06) translate(3.633 19.027)"/>
                        <path fill="#27DEBF" fill-rule="nonzero" d="M9.72 23.92c-.546.362-1 1.177-1 1.812 0 .634.454.906 1 .634.544-.363.998-1.178.998-1.812 0-.725-.454-.997-.999-.635zM19.983 29.99c-.545.362-.999 1.178-.999 1.812 0 .634.454.906 1 .634.544-.362.998-1.178.998-1.812.091-.634-.363-.906-.999-.634zM30.338 19.57c-.545.363-.999 1.178-.999 1.813 0 .634.454.906 1 .634.544-.363.998-1.178.998-1.812 0-.725-.454-.997-.999-.635zM40.602 26.275c-.544.363-.999 1.178-.999 1.812 0 .634.454.906 1 .634.544-.362.999-1.177.999-1.812.09-.634-.364-.906-1-.634zM50.958.997c-.545.362-1 1.177-1 1.812 0 .634.455.906 1 .634.544-.362.999-1.178.999-1.812 0-.725-.455-.997-1-.634zM61.222 6.252c-.545.362-1 1.178-1 1.812 0 .634.455.906 1 .634.545-.362.999-1.178.999-1.812.09-.725-.363-.997-1-.634z" transform="translate(82 6.947) translate(6.358 33.523) translate(138.067 9.06) translate(3.633 19.027)"/>
                    </g>
                </g>
            </g>
        </g>
        <g fill-rule="nonzero">
            <g>
                <g>
                    <path fill="#455A64" d="M18.977 0.181L0.636 10.699 18.977 21.308 37.228 10.699z" transform="translate(116 195.947) translate(118.04) translate(71.732)"/>
                    <path fill="#37474F" d="M37.228 10.699L37.228 52.681 18.977 63.199 18.977 21.308z" transform="translate(116 195.947) translate(118.04) translate(71.732)"/>
                    <path fill="#263238" d="M18.977 21.308L18.977 63.199 0.636 52.681 0.636 10.699z" transform="translate(116 195.947) translate(118.04) translate(71.732)"/>
                </g>
                <g>
                    <path fill="#27DEBF" d="M18.523 0.544L0.182 11.062 18.523 21.58 36.774 11.062z" transform="translate(116 195.947) translate(118.04) translate(48.124 31.736)"/>
                    <path fill="#FFF" d="M18.523 0.544L0.182 11.062 18.523 21.58 36.774 11.062z" opacity=".3" transform="translate(116 195.947) translate(118.04) translate(48.124 31.736)"/>
                    <path fill="#27DEBF" d="M36.774 11.062L36.774 34.819 18.523 45.337 18.523 21.58zM18.523 21.58L18.523 45.337.182 34.819.182 11.062z" transform="translate(116 195.947) translate(118.04) translate(48.124 31.736)"/>
                    <path fill="#000" d="M18.523 21.58L18.523 45.337 0.182 34.819 0.182 11.062z" opacity=".1" transform="translate(116 195.947) translate(118.04) translate(48.124 31.736)"/>
                </g>
                <g>
                    <path fill="#27DEBF" d="M18.977 0L0.636 10.518 18.977 21.036 37.228 10.518z" transform="translate(116 195.947) translate(118.04) translate(23.608 36.27)"/>
                    <path fill="#FFF" d="M18.977 0L0.636 10.518 18.977 21.036 37.228 10.518z" opacity=".88" transform="translate(116 195.947) translate(118.04) translate(23.608 36.27)"/>
                    <path fill="#27DEBF" d="M37.228 10.518L37.228 44.158 18.977 54.676 18.977 21.036z" transform="translate(116 195.947) translate(118.04) translate(23.608 36.27)"/>
                    <path fill="#FFF" d="M37.228 10.518L37.228 44.158 18.977 54.676 18.977 21.036z" opacity=".75" transform="translate(116 195.947) translate(118.04) translate(23.608 36.27)"/>
                    <path fill="#27DEBF" d="M18.977 21.036L18.977 54.676 0.636 44.158 0.636 10.518z" transform="translate(116 195.947) translate(118.04) translate(23.608 36.27)"/>
                    <path fill="#FFF" d="M18.977 21.036L18.977 54.676 0.636 44.158 0.636 10.518z" opacity=".6" transform="translate(116 195.947) translate(118.04) translate(23.608 36.27)"/>
                </g>
                <g>
                    <path fill="#27DEBF" d="M18.523 0.181L0.182 10.79 18.523 21.308 36.774 10.79z" transform="translate(116 195.947) translate(118.04) translate(0 71.632)"/>
                    <path fill="#000" d="M18.523 0.181L0.182 10.79 18.523 21.308 36.774 10.79z" opacity=".3" transform="translate(116 195.947) translate(118.04) translate(0 71.632)"/>
                    <path fill="#27DEBF" d="M36.774 10.79L36.774 22.668 18.523 33.187 18.523 21.308z" transform="translate(116 195.947) translate(118.04) translate(0 71.632)"/>
                    <path fill="#000" d="M36.774 10.79L36.774 22.668 18.523 33.187 18.523 21.308z" opacity=".4" transform="translate(116 195.947) translate(118.04) translate(0 71.632)"/>
                    <path fill="#27DEBF" d="M18.523 21.308L18.523 33.187 0.182 22.578 0.182 10.79z" transform="translate(116 195.947) translate(118.04) translate(0 71.632)"/>
                    <path fill="#000" d="M18.523 21.308L18.523 33.187 0.182 22.578 0.182 10.79z" opacity=".55" transform="translate(116 195.947) translate(118.04) translate(0 71.632)"/>
                </g>
            </g>
            <g>
                <g>
                    <path fill="#263238" d="M36.956 19.585v6.892l-6.81-18.588V.997l6.81 18.588z" transform="translate(116 195.947) translate(0 104.275) translate(0 21.762)"/>
                    <path fill="#37474F" d="M36.956 19.585L36.956 26.477 65.104 16.775 65.104 9.793z" transform="translate(116 195.947) translate(0 104.275) translate(0 21.762)"/>
                    <path fill="#455A64" d="M30.055.997l6.81 18.588 28.239-9.792C57.386 3.083 43.947-.272 30.054.997z" transform="translate(116 195.947) translate(0 104.275) translate(0 21.762)"/>
                    <path fill="#27DEBF" d="M.636 20.855v.181-.181zM34.14 28.29l-4.176 19.676C12.894 46.334.544 37.63.636 27.836v-6.71c0 9.794 12.348 18.317 29.328 20.04l2.906-13.51 1.27.634z" transform="translate(116 195.947) translate(0 104.275) translate(0 21.762)"/>
                    <path fill="#000" d="M34.14 28.29l-4.176 19.676C12.894 46.334.544 37.63.636 27.836v-6.71c0 9.794 12.348 18.317 29.328 20.04l2.906-13.51 1.27.634z" opacity=".4" transform="translate(116 195.947) translate(0 104.275) translate(0 21.762)"/>
                    <g>
                        <path fill="#27DEBF" d="M21.338 35.907v6.89c7.446.364 14.256-.543 20.793-2.81 8.081-2.81 13.711-7.254 16.072-12.513.726-1.632.999-3.173 1.09-4.806v-7.163s-1.998-.181-4.268-2.63l-5.267 1.814-24.152 8.342-4.268 12.876z" transform="translate(116 195.947) translate(0 104.275) translate(0 21.762) translate(11.804 5.44)"/>
                        <path fill="#FFF" d="M21.338 35.907v6.89c7.446.364 14.256-.543 20.793-2.81 8.081-2.81 13.711-7.254 16.072-12.513.726-1.632.999-3.173 1.09-4.806v-7.163s-1.998-.181-4.268-2.63l-5.267 1.814-24.152 8.342-4.268 12.876z" opacity=".6" transform="translate(116 195.947) translate(0 104.275) translate(0 21.762) translate(11.804 5.44)"/>
                        <path fill="#27DEBF" d="M0.272 7.526L21.247 19.676 21.247 12.694 0.272 0.635z" transform="translate(116 195.947) translate(0 104.275) translate(0 21.762) translate(11.804 5.44)"/>
                        <path fill="#000" d="M0.272 7.526L21.247 19.676 21.247 12.694 0.272 0.635z" opacity=".1" transform="translate(116 195.947) translate(0 104.275) translate(0 21.762) translate(11.804 5.44)"/>
                    </g>
                    <g>
                        <path fill="#27DEBF" d="M.908 17.681c-2.27 10.79 10.624 20.674 29.056 22.487l4.177-19.676L9.806 6.438C4.722 9.61 1.816 13.329.908 17.68z" transform="translate(116 195.947) translate(0 104.275) translate(0 21.762) translate(0 .907)"/>
                        <path fill="#000" d="M.908 17.681c-2.27 10.79 10.624 20.674 29.056 22.487l4.177-19.676L9.806 6.438C4.722 9.61 1.816 13.329.908 17.68z" opacity=".3" transform="translate(116 195.947) translate(0 104.275) translate(0 21.762) translate(0 .907)"/>
                        <path fill="#27DEBF" d="M33.233 39.806l-.091.544c7.446.362 14.256-.544 20.793-2.811 8.081-2.811 13.711-7.254 16.072-12.513 2.179-4.987.999-10.065-3.178-14.599l-5.267 1.814-24.152 8.342-4.177 19.223z" transform="translate(116 195.947) translate(0 104.275) translate(0 21.762) translate(0 .907)"/>
                        <path fill="#FFF" d="M33.233 39.806l-.091.544c7.446.362 14.256-.544 20.793-2.811 8.081-2.811 13.711-7.254 16.072-12.513 2.179-4.987.999-10.065-3.178-14.599l-5.267 1.814-24.152 8.342-4.177 19.223z" opacity=".75" transform="translate(116 195.947) translate(0 104.275) translate(0 21.762) translate(0 .907)"/>
                        <path fill="#27DEBF" d="M12.076 5.168l20.975 12.15L26.877.545c-5.811.816-10.351 2.267-14.8 4.624z" transform="translate(116 195.947) translate(0 104.275) translate(0 21.762) translate(0 .907)"/>
                    </g>
                    <path fill="#27DEBF" d="M34.141 28.29L34.141 21.399 29.873 41.075 29.873 47.966z" transform="translate(116 195.947) translate(0 104.275) translate(0 21.762)"/>
                    <path fill="#000" d="M34.141 28.29L34.141 21.399 29.873 41.075 29.873 47.966z" opacity=".55" transform="translate(116 195.947) translate(0 104.275) translate(0 21.762)"/>
                </g>
                <g>
                    <g>
                        <path fill="#27DEBF" d="M4.631 0.635L0 3.264 4.631 5.894 9.171 3.264z" transform="translate(116 195.947) translate(0 104.275) translate(56.296) translate(0 11.788)"/>
                        <path fill="#000" d="M4.631 0.635L0 3.264 4.631 5.894 9.171 3.264z" opacity=".3" transform="translate(116 195.947) translate(0 104.275) translate(56.296) translate(0 11.788)"/>
                        <path fill="#27DEBF" d="M9.171 3.264L9.171 5.894 4.631 8.523 4.631 5.894z" transform="translate(116 195.947) translate(0 104.275) translate(56.296) translate(0 11.788)"/>
                        <path fill="#000" d="M9.171 3.264L9.171 5.894 4.631 8.523 4.631 5.894z" opacity=".4" transform="translate(116 195.947) translate(0 104.275) translate(56.296) translate(0 11.788)"/>
                        <path fill="#27DEBF" d="M4.631 5.894L4.631 8.523 0 5.894 0 3.264z" transform="translate(116 195.947) translate(0 104.275) translate(56.296) translate(0 11.788)"/>
                        <path fill="#000" d="M4.631 5.894L4.631 8.523 0 5.894 0 3.264z" opacity=".55" transform="translate(116 195.947) translate(0 104.275) translate(56.296) translate(0 11.788)"/>
                    </g>
                    <path fill="#E0E0E0" d="M11.622 10.427L28.602.635C29.601.09 31.235 0 32.143.544c.908.544.908 1.45-.09 2.086l-16.98 9.792c-.999.544-2.633.635-3.541.091-1-.635-.908-1.541.09-2.086z" transform="translate(116 195.947) translate(0 104.275) translate(56.296)"/>
                </g>
                <g>
                    <g>
                        <path fill="#27DEBF" d="M4.903 0.272L0.363 2.902 4.903 5.531 9.534 2.902z" transform="translate(116 195.947) translate(0 104.275) translate(66.284 5.44) translate(0 12.694)"/>
                        <path fill="#FFF" d="M4.903 0.272L0.363 2.902 4.903 5.531 9.534 2.902z" opacity=".88" transform="translate(116 195.947) translate(0 104.275) translate(66.284 5.44) translate(0 12.694)"/>
                        <path fill="#27DEBF" d="M9.534 2.902L9.534 5.531 4.903 8.161 4.903 5.531z" transform="translate(116 195.947) translate(0 104.275) translate(66.284 5.44) translate(0 12.694)"/>
                        <path fill="#FFF" d="M9.534 2.902L9.534 5.531 4.903 8.161 4.903 5.531z" opacity=".75" transform="translate(116 195.947) translate(0 104.275) translate(66.284 5.44) translate(0 12.694)"/>
                        <path fill="#27DEBF" d="M4.903 5.531L4.903 8.161 0.363 5.531 0.363 2.902z" transform="translate(116 195.947) translate(0 104.275) translate(66.284 5.44) translate(0 12.694)"/>
                        <path fill="#FFF" d="M4.903 5.531L4.903 8.161 0.363 5.531 0.363 2.902z" opacity=".6" transform="translate(116 195.947) translate(0 104.275) translate(66.284 5.44) translate(0 12.694)"/>
                    </g>
                    <path fill="#E0E0E0" d="M11.895 10.88l16.98-9.792c.998-.544 2.633-.635 3.54-.09.909.543.909 1.45-.09 2.085l-16.98 9.793c-.999.544-2.633.634-3.541.09-.908-.544-.908-1.45.09-2.085z" transform="translate(116 195.947) translate(0 104.275) translate(66.284 5.44)"/>
                </g>
                <g>
                    <g>
                        <path fill="#27DEBF" d="M5.266 0.725L0.726 3.355 5.266 5.984 9.806 3.355z" transform="translate(116 195.947) translate(0 104.275) translate(76.272 11.788) translate(0 11.788)"/>
                        <path fill="#FFF" d="M5.266 0.725L0.726 3.355 5.266 5.984 9.806 3.355z" opacity=".3" transform="translate(116 195.947) translate(0 104.275) translate(76.272 11.788) translate(0 11.788)"/>
                        <path fill="#27DEBF" d="M9.806 3.355L9.806 6.075 5.266 8.705 5.266 5.984zM5.266 5.984L5.266 8.705.726 6.075.726 3.355z" transform="translate(116 195.947) translate(0 104.275) translate(76.272 11.788) translate(0 11.788)"/>
                        <path fill="#000" d="M5.266 5.984L5.266 8.705 0.726 6.075 0.726 3.355z" opacity=".1" transform="translate(116 195.947) translate(0 104.275) translate(76.272 11.788) translate(0 11.788)"/>
                    </g>
                    <path fill="#E0E0E0" d="M12.258 10.518L29.238.725c.998-.544 2.633-.634 3.54-.09.909.544.909 1.45-.09 2.085l-16.98 9.793c-.998.544-2.633.635-3.54.09-1-.634-.909-1.54.09-2.085z" transform="translate(116 195.947) translate(0 104.275) translate(76.272 11.788)"/>
                </g>
                <g>
                    <g>
                        <path fill="#455A64" d="M4.722 0.363L0.091 2.992 4.722 5.622 9.262 2.992z" transform="translate(116 195.947) translate(0 104.275) translate(87.168 17.228) translate(0 12.694)"/>
                        <path fill="#37474F" d="M9.262 2.992L9.262 5.622 4.722 8.251 4.722 5.622z" transform="translate(116 195.947) translate(0 104.275) translate(87.168 17.228) translate(0 12.694)"/>
                        <path fill="#263238" d="M4.722 5.622L4.722 8.251 0.091 5.622 0.091 2.992z" transform="translate(116 195.947) translate(0 104.275) translate(87.168 17.228) translate(0 12.694)"/>
                    </g>
                    <path fill="#E0E0E0" d="M11.713 10.972l16.98-9.793c.999-.544 2.633-.635 3.541-.09.908.543.908 1.45-.09 2.085l-16.98 9.792c-1 .544-2.634.635-3.542.091-.998-.544-.998-1.45.091-2.085z" transform="translate(116 195.947) translate(0 104.275) translate(87.168 17.228)"/>
                </g>
            </g>
        </g>
        <g fill-rule="nonzero">
            <path fill="#FFA8A7" d="M67.315 33.016c6.26 0 9.254 1.719 11.522 7.779 2.268 5.97 8.256 19.72 8.347 23.88.09 4.251-13.609 17.096-13.064 16.915.181-.09-4.174-7.78-4.174-7.78l7.712-9.406-4.446-12.754-5.897-18.634z" transform="translate(284 154.947)"/>
            <g>
                <path fill="#263238" d="M48.808 103.028c.363.362.454.723.454 2.08 0 1.357.544 2.804-.09 4.07-.545.905-3.176 1.538-4.446.905-1.089-.543-2.178-1.9-3.085-2.804-.816-.904-1.723-1.809-2.721-2.623-1.09-.814-2.45-1.357-3.63-2.171-1.814-1.176-3.084-3.256-3.265-5.427-.091-.633.09-1.538.453-2.08.454-.724 1.543-.905 2.36-.815 1.27.181 5.624 2.623 6.622 3.347 1.18.905 6.985 5.065 7.348 5.518z" transform="translate(284 154.947) translate(26.31 70.555)"/>
                <path fill="#FFA8A7" d="M42.458 97.42c0 .995-4.083-1.267-5.806-1.086h-.091c-1.542.724-.272 2.895 1.18 3.98 1.45 1.086 6.168 4.523 6.168 4.523l.998-5.518-2.45-1.9z" transform="translate(284 154.947) translate(26.31 70.555)"/>
                <path fill="#263238" d="M24.858 113.068c.726 0 1.088 2.442 1.27 4.342.09 1.447.635 3.89.181 4.975-.544 1.085-2.54 1.719-5.534 1.719-1.996 0-5.08 1.266-7.257 2.442-2.178 1.176-4.537 1.176-6.895.904-2.722-.361-5.534-1.99-5.897-3.075-.363-1.085.181-1.628 6.622-4.342.091 0 6.805-2.985 9.98-6.332l7.53-.633z" transform="translate(284 154.947) translate(26.31 70.555)"/>
                <path fill="#FFA8A7" d="M7.258 119.943c-.907.362-1.633.723-2.359.995-.181.633.09 1.537 2.903 2.08 4.355.724 17.056-8.864 17.056-8.864s-1.815.542-2.178-.543h-5.534c-3.084 3.347-9.888 6.241-9.888 6.332z" transform="translate(284 154.947) translate(26.31 70.555)"/>
                <path fill="#FFA8A7" d="M51.44 71.55c0-7.78-1.27-12.574-1.27-12.574s.725-16.191.816-26.322c.181-20.08-.182-23.066-4.627-31.659 0 0-26.037-3.075-27.126 9.588-1.36 15.74-2.994 42.062-2.903 49.57 0 5.607.635 11.668.998 24.241.181 8.141 1.088 19.538-.09 29.126 1.45 2.443 5.442 2.443 7.71.543.636-9.407 5.353-27.408 6.079-33.649.726-6.513-.545-13.568-.545-13.568S33.93 40.07 34.565 36c0 0 1.542 7.508 1.542 13.116 0 1.809.635 7.779 1.633 17.82.635 6.15 4.99 30.03 5.897 37.719 2.177 2.08 4.99.633 5.08-.271.636-9.408 2.722-27.046 2.722-32.835z" transform="translate(284 154.947) translate(26.31 70.555)"/>
                <path fill="#000" d="M34.474 36l2.268-13.025s5.353-.452 10.252-5.336c0 0-1.361 5.246-8.165 6.965l-2.722 11.759-.453 10.764L34.474 36z" opacity=".15" transform="translate(284 154.947) translate(26.31 70.555)"/>
            </g>
            <path fill="#FFA8A7" d="M0.726 2.352L1.814 14.201 12.157 13.568 11.431 0.452z" transform="translate(284 154.947) translate(53.526 26.232)"/>
            <path fill="#27DEBF" d="M75.118 74.715c-.998-2.532-1.543-4.16-4.537-8.955 4.446-14.291 5.897-19.085 4.99-25.146-.544-3.89-3.629-7.779-7.439-7.598h-2.903c-.182 2.714-7.711 2.804-10.524.995l-2.63.09c-1.906.634-8.166 9.95-8.891 16.01-.545 4.976 3.356 9.318 3.356 9.318.182 1.99-.363 6.331-.363 6.331v18.091s1.452 4.614 16.693 3.166c13.608-1.266 13.88-5.88 13.88-5.88s-.362-3.165-1.632-6.422z" transform="translate(284 154.947)"/>
            <path fill="#000" d="M75.118 74.715c-.998-2.532-1.543-4.16-4.537-8.955 4.446-14.291 5.897-19.085 4.99-25.146-.544-3.89-3.629-7.779-7.439-7.598h-2.903c-.182 2.714-7.711 2.804-10.524.995l-2.63.09c-1.906.634-8.166 9.95-8.891 16.01-.545 4.976 3.356 9.318 3.356 9.318.182 1.99-.363 6.331-.363 6.331v18.091s1.452 4.614 16.693 3.166c13.608-1.266 13.88-5.88 13.88-5.88s-.362-3.165-1.632-6.422z" opacity=".3" transform="translate(284 154.947)"/>
            <g>
                <path fill="#263238" d="M11.34.995S6.441.181 2.994 3.98c-5.353 5.97.544 10.402.544 10.402L11.34.995" transform="translate(284 154.947) translate(44.454)"/>
                <path fill="#F28F8F" d="M2.087 15.649S-.181 19.086.09 19.448c.272.362 1.723.723 1.723.723l.273-4.522z" transform="translate(284 154.947) translate(44.454)"/>
                <path fill="#FFA8A7" d="M9.163 4.704C6.895 5.88 3.085 7.96 1.996 16.19c-.998 8.413.816 11.398 1.996 12.483.816.724 4.808.995 6.895.362 2.63-.814 8.346-3.618 10.977-7.96 3.175-5.156 3.81-11.94.181-14.654-4.99-3.708-10.977-2.713-12.882-1.718z" transform="translate(284 154.947) translate(44.454)"/>
                <path fill="#263238" d="M8.074 14.382C3.357 12.03 4.627 5.79 4.627 5.79s6.713-9.498 19.051-3.347c4.264 2.171 6.804 6.965 6.714 12.664 0 7.417-5.988 13.387-13.427 13.387-4.355 0-7.802-3.528-7.802-7.779v-.543l.363.09c.635.182 2.177.363 3.629-.994 2.086-1.81 2.268-5.247-.273-6.06-2.63-.905-3.991 2.17-3.991 2.17l-.998 2.714c-.998-.362-1.542-1.538-1.18-2.533.182-.633.726-.995 1.361-1.176z" transform="translate(284 154.947) translate(44.454)"/>
            </g>
            <g>
                <path fill="#27DEBF" d="M22.318 0L0 11.126 10.524 41.247 31.39 30.121z" transform="translate(284 154.947) translate(1.814 16.282)"/>
                <path fill="#F5F5F5" d="M21.32 2.895L2.54 12.302 11.885 38.172 29.303 28.765z" transform="translate(284 154.947) translate(1.814 16.282)"/>
                <path fill="#000" d="M17.328 5.608l-.363-.904c-.181-.543-1.724-.272-3.447.633l-3.266 1.628c-1.724.814-2.994 1.99-2.813 2.442l.363.905 9.526-4.704z" opacity=".15" transform="translate(284 154.947) translate(1.814 16.282)"/>
                <g>
                    <path fill="#37474F" d="M11.612 1.085c-.09-.361-.816-.27-1.542.09L8.8 1.81s-.726-1.99-3.72-.633C2.087 2.533 2.722 4.794 2.722 4.794s-.635.362-1.361.724S.09 6.513.18 6.784l.182.543 11.522-5.699c-.091 0-.182-.271-.273-.543z" transform="translate(284 154.947) translate(1.814 16.282) translate(5.443 .905)"/>
                    <path fill="#263238" d="M10.342 2.352c-1.088.543-1.451.723-1.18 1.538.364.904.636 1.537.636 1.537L4.718 7.96s-.363-1.176-.545-1.538c-.181-.452-.544-.633-1.36-.271l-.273-.362 7.984-3.89-.182.453z" transform="translate(284 154.947) translate(1.814 16.282) translate(5.443 .905)"/>
                    <path fill="#37474F" d="M12.066 4.794l-.363-.904c-.181-.543-1.724-.272-3.447.633L4.99 6.15c-1.724.814-2.994 1.99-2.813 2.442l.363.905 9.526-4.704z" transform="translate(284 154.947) translate(1.814 16.282) translate(5.443 .905)"/>
                </g>
            </g>
            <path fill="#FFA8A7" d="M52.074 34.01c-3.538-.09-5.625.272-10.433 7.328-4.808 7.055-13.699 20.171-14.697 21.8-1.451 2.351-1.814 5.97-.635 8.14 1.089 2.08 3.085 2.804 8.528-3.075 4.083-4.342 12.701-15.83 12.701-15.83s6.714-12.302 4.536-18.362z" transform="translate(284 154.947)"/>
            <path fill="#FFA8A7" d="M28.487 72.906c-2.903.905-13.518-11.668-16.421-15.467-3.266-4.161-5.897-6.604-8.256-8.413-4.082-3.075-3.447-7.779-1.542-12.03.635-1.447 2.722-.452 2.722-.452l.725 2.08 1.27 3.528c.908.814 1.361 1.085 1.452.814.09-.452-.635-2.352-.544-4.342.09-2.352 1.723-.814 2.177.09.454.815 1.089 2.171 1.724 3.98.816 2.171.453 4.252 1.451 5.79.998 1.447 15.423 13.387 15.423 13.387v11.035h-.181z" transform="translate(284 154.947)"/>
            <path fill="#27DEBF" d="M70.581 65.76s-10.16 5.97-24.404 0c0 0-1.996 11.126-2.54 22.524-.544 9.588-1.633 30.211-1.633 30.211s4.173 4.885 19.233 3.89c14.425-.995 16.965-4.704 16.965-4.704s0-18.543.09-26.593c.092-10.403-1.36-16.01-7.71-25.328z" transform="translate(284 154.947)"/>
            <path fill="#000" d="M70.581 65.76s-10.16 5.97-24.404 0c0 0-1.996 11.126-2.54 22.524-.544 9.588-1.633 30.211-1.633 30.211s4.173 4.885 19.233 3.89c14.425-.995 16.965-4.704 16.965-4.704s0-18.543.09-26.593c.092-10.403-1.36-16.01-7.71-25.328z" opacity=".5" transform="translate(284 154.947)"/>
            <path fill="#263238" d="M75.299 11.126l2.359-2.171c-.817-.814-2.087-.905-2.903-.09-.635.542-.817 1.356-.545 2.17h-.907v19.086c0 5.428 4.445 9.95 9.98 9.95V20.805c-.091-4.795-3.448-8.775-7.984-9.68z" transform="translate(284 154.947)"/>
        </g>
    </g>
</svg>
