<svg width="150" height="36" viewBox="0 0 150 36" fill="none" xmlns="http://www.w3.org/2000/svg">
<mask id="mask0_3259_17886" style="mask-type:luminance" maskUnits="userSpaceOnUse" x="0" y="0" width="36" height="36">
<path d="M0 0.337891H35.4212V35.6973H0V0.337891Z" fill="white"/>
</mask>
<g mask="url(#mask0_3259_17886)">
<path fill-rule="evenodd" clip-rule="evenodd" d="M13.5884 22.4123H21.8332L17.7108 10.2892L13.5884 22.4123ZM21.8332 0.337891C22.5114 0.337891 23.0286 0.523808 23.3854 0.893671C23.7416 1.26452 23.9871 1.63488 24.1232 2.00523L35.2175 33.8282C35.3531 34.1656 35.4212 34.4181 35.4212 34.5862C35.4212 34.889 35.3109 35.1504 35.0903 35.3688C34.8692 35.5883 34.6068 35.6973 34.3013 35.6973H27.8889C27.2102 35.6973 26.7262 35.5543 26.4385 35.2678C26.1499 34.9822 25.972 34.7046 25.9044 34.4343L24.4794 30.2416H10.9421L9.51714 34.4343C9.44858 34.7046 9.2707 34.9822 8.98203 35.2678C8.69385 35.5543 8.21041 35.6973 7.53221 35.6973H1.11929C0.814224 35.6973 0.551387 35.5883 0.330784 35.3688C0.109683 35.1504 -0.00012207 34.889 -0.00012207 34.5862C-0.00012207 34.4181 0.0674503 34.1656 0.203589 33.8282L11.2984 2.00523C11.433 1.63488 11.6795 1.26452 12.0362 0.893671C12.3924 0.523808 12.9092 0.337891 13.5884 0.337891H21.8332Z" fill="#2AC4F3"/>
</g>
<path fill-rule="evenodd" clip-rule="evenodd" d="M47.8164 28.0288H56.1646C57.1767 28.0288 57.9863 27.729 58.5929 27.129C59.2005 26.5295 59.5037 25.7834 59.5037 24.8917C59.5037 24.0005 59.2005 23.2549 58.5929 22.6544C57.9863 22.0549 57.1767 21.7541 56.1646 21.7541H47.8164V28.0288ZM58.745 10.9029C58.745 10.0117 58.4837 9.30075 57.9606 8.76854C57.4375 8.23732 56.6709 7.97121 55.6588 7.97121H47.8164V13.8341H55.6588C56.6709 13.8341 57.4375 13.569 57.9606 13.0373C58.4837 12.5061 58.745 11.7946 58.745 10.9029ZM39.8223 36C39.4509 36 39.1308 35.8634 38.8611 35.5888C38.5909 35.3146 38.4565 34.9893 38.4565 34.6117V1.38828C38.4565 1.01172 38.5909 0.685858 38.8611 0.411213C39.1308 0.137573 39.4509 0 39.8223 0H56.1143C58.3736 0 60.2792 0.317322 61.8312 0.951464C63.3827 1.58611 64.6216 2.40904 65.5497 3.41975C66.4773 4.43146 67.1437 5.58025 67.5487 6.86561C67.9537 8.15146 68.1558 9.42929 68.1558 10.6971C68.1558 11.6917 68.0456 12.5573 67.8268 13.2944C67.607 14.032 67.3462 14.6661 67.0429 15.1973C66.7391 15.729 66.4269 16.1573 66.1064 16.4827C65.7858 16.809 65.525 17.0576 65.3225 17.2288C66.6379 18.1541 67.5566 19.2261 68.0797 20.4432C68.6023 21.6602 68.8641 23.1259 68.8641 24.84C68.8641 26.2464 68.6616 27.6176 68.257 28.9546C67.8525 30.2917 67.1857 31.4832 66.2585 32.5285C65.3304 33.5749 64.1251 34.4149 62.6408 35.0485C61.1565 35.6837 59.3348 36 57.1767 36H39.8223Z" fill="#2AC4F3"/>
<path fill-rule="evenodd" clip-rule="evenodd" d="M139.795 14.1427C139.589 10.2004 137.258 8.22867 132.804 8.22867H127.561V27.7713H133.061C137.379 27.7713 139.622 25.8001 139.795 21.8573C139.828 21.1373 139.846 20.4605 139.846 19.8258V17.9741V16.1486C139.846 15.5315 139.828 14.8627 139.795 14.1427ZM133.061 0C135.425 0 137.584 0.351962 139.537 1.05438C141.491 1.7578 143.178 2.74339 144.6 4.01166C146.021 5.28043 147.136 6.79773 147.941 8.56306C148.746 10.3289 149.2 12.2579 149.303 14.3486C149.337 15.0686 149.355 15.7293 149.355 16.3288V18.0515V19.7485C149.355 20.3319 149.337 20.9661 149.303 21.6514C149.2 23.7777 148.755 25.7143 147.967 27.4625C147.178 29.2113 146.091 30.7206 144.703 31.9883C143.315 33.2571 141.662 34.2432 139.743 34.9456C137.824 35.6485 135.683 36 133.318 36H119.44C119.063 36 118.738 35.8634 118.464 35.5883C118.189 35.3142 118.053 34.9893 118.053 34.6112V1.38877C118.053 1.0117 118.189 0.68635 118.464 0.411208C118.738 0.137571 119.063 0 119.44 0H133.061Z" fill="#2AC4F3"/>
<path fill-rule="evenodd" clip-rule="evenodd" d="M91.1509 36L75.3525 20.8898C74.4956 20.113 73.7696 19.3524 73.1758 18.6083C72.5826 17.8652 72.0956 17.096 71.7164 16.3012C71.3377 15.5074 71.0653 14.6709 70.8997 13.7913C70.7356 12.9131 70.6528 11.9326 70.6528 10.8506C70.6528 9.36338 70.8919 7.96056 71.3701 6.64208C71.8487 5.32361 72.5493 4.17534 73.4727 3.19426C74.3967 2.21419 75.5504 1.43747 76.9363 0.86208C78.3218 0.287695 79.9213 0 81.7345 0C83.5829 0 85.2221 0.338405 86.658 1.01421C88.0925 1.69052 89.304 2.5521 90.2941 3.59995C91.2832 4.6483 92.0426 5.81414 92.5697 7.09848C93.0978 8.38382 93.3785 9.65108 93.4104 10.9013C93.4104 11.2055 93.3041 11.4676 93.0895 11.687C92.8754 11.9074 92.6192 12.0169 92.3228 12.0169H90.0467C89.7831 12.0169 89.5269 11.9155 89.2795 11.7121C89.0331 11.5098 88.8592 11.2231 88.7607 10.8506C88.5628 10.0392 88.3075 9.25343 87.9935 8.49277C87.6804 7.73211 87.2508 7.0563 86.7075 6.46434C86.1627 5.87389 85.4871 5.40846 84.6788 5.07056C83.8705 4.73265 82.8897 4.56345 81.7345 4.56345C79.526 4.56345 77.9093 5.16394 76.8869 6.36292C75.8649 7.56341 75.3525 9.05962 75.3525 10.8506C75.3525 12.3719 75.5999 13.606 76.0952 14.5524C76.5895 15.4984 77.3317 16.4282 78.3218 17.3405L92.8171 30.8787C93.2134 31.2513 93.4937 31.5721 93.6578 31.8422C93.8238 32.1129 93.9057 32.4337 93.9057 32.8057V34.6308C93.9057 35.0034 93.7739 35.3242 93.5093 35.5943C93.2463 35.8654 92.9332 36 92.5697 36H91.1509Z" fill="black"/>
<path fill-rule="evenodd" clip-rule="evenodd" d="M104.223 17.3405C105.219 16.4282 105.966 15.4984 106.464 14.5519C106.962 13.606 107.211 12.3719 107.211 10.8506C107.211 9.05912 106.695 7.56341 105.667 6.36292C104.638 5.16394 103.011 4.56295 100.788 4.56295C99.626 4.56295 98.639 4.73265 97.825 5.07056C97.0116 5.40846 96.3317 5.87339 95.784 6.46434C95.2367 7.0563 94.8044 7.73211 94.4898 8.49227C94.1733 9.25343 93.9169 10.0392 93.7173 10.8506C93.6182 11.2226 93.4437 11.5093 93.1957 11.7121C92.9467 11.915 92.6884 12.0164 92.4231 12.0164H90.1331C89.8343 12.0164 89.577 11.9069 89.361 11.687C89.1456 11.4676 89.0381 11.2055 89.0381 10.9013C89.0706 9.65108 89.3531 8.38331 89.8841 7.09848C90.4146 5.81414 91.1793 4.6478 92.1746 3.59945C93.1705 2.5521 94.3902 1.69052 95.8333 1.01371C97.2783 0.337903 98.9284 0 100.788 0C102.613 0 104.223 0.287193 105.617 0.861578C107.011 1.43697 108.173 2.21419 109.102 3.19376C110.031 4.17484 110.737 5.32361 111.218 6.64158C111.699 7.96006 111.94 9.36338 111.94 10.8506C111.94 11.9326 111.857 12.9126 111.691 13.7913C111.525 14.6709 111.251 15.5074 110.87 16.3012C110.488 17.096 109.998 17.8652 109.401 18.6083C108.804 19.3524 108.073 20.1125 107.211 20.8898L96.1074 31.436H111.343C111.708 31.436 112.023 31.5716 112.288 31.8417C112.554 32.1129 112.687 32.4337 112.687 32.8052V34.6308C112.687 35.0029 112.554 35.3237 112.288 35.5938C112.023 35.8654 111.708 36 111.343 36H89.8841C89.5188 36 89.2033 35.8654 88.9385 35.5938C88.6723 35.3237 88.5397 35.0029 88.5397 34.6308V32.8052C88.5397 32.4337 88.622 32.1129 88.7891 31.8417C88.9543 31.5716 89.2368 31.2513 89.6351 30.8787L104.223 17.3405Z" fill="#2AC4F3"/>
</svg>
