<svg width="364" height="188" viewBox="0 0 364 188" fill="none" xmlns="http://www.w3.org/2000/svg">
<g clip-path="url(#clip0_372_2632)">
<path fill-rule="evenodd" clip-rule="evenodd" d="M18.0071 187.76C18.0071 187.76 -21.0902 104.296 55.9658 104.296C96.6796 104.296 79.9076 81.3965 107.588 54.8948C135.267 28.393 232.07 7.21933 252.674 58.3952C273.278 109.571 222.359 148.427 271.561 141.761C330.687 133.752 354.044 187.76 354.044 187.76L18.0071 187.76Z" fill="#FEF0C8"/>
<path fill-rule="evenodd" clip-rule="evenodd" d="M334.883 176.589C331.225 173.929 323.752 175.725 318.234 177.647C317.41 176.494 316.411 175.306 315.202 174.144C327.087 166.524 343.5 150.273 334.8 148.898C327.238 147.702 317.032 162.33 311.578 171.234C305.914 167.442 297.235 164.653 283.984 165.62C249.595 168.13 222.729 146.049 202.926 153.413C187.181 159.269 172.751 162.549 158.835 161.429C159.434 151.309 159.564 131.441 151.581 129.379C143.476 127.287 151.425 149.851 155.844 161.118C154.808 160.986 153.774 160.829 152.741 160.644C149.88 155.029 145.166 147.681 139.989 147.43C135.114 147.193 141.131 153.8 147.052 159.397C130.034 155.841 109.846 169.611 109.511 185.892H321.975C321.975 185.892 321.599 183.516 319.932 180.382C328.143 180.222 338.857 179.479 334.884 176.59" fill="#94D29A"/>
<mask id="mask0_372_2632" style="mask-type:luminance" maskUnits="userSpaceOnUse" x="0" y="0" width="364" height="188">
<path d="M0 187.138H364V0.382812H0V187.138Z" fill="white"/>
</mask>
<g mask="url(#mask0_372_2632)">
<path fill-rule="evenodd" clip-rule="evenodd" d="M100.178 185.893H156.178V173.442H100.178V185.893Z" fill="#2776CF"/>
</g>
<mask id="mask1_372_2632" style="mask-type:luminance" maskUnits="userSpaceOnUse" x="0" y="0" width="364" height="188">
<path d="M0 187.138H364V0.382812H0V187.138Z" fill="white"/>
</mask>
<g mask="url(#mask1_372_2632)">
<path fill-rule="evenodd" clip-rule="evenodd" d="M82.7556 185.893H138.756V173.442H82.7556V185.893Z" fill="#469FF1"/>
</g>
<mask id="mask2_372_2632" style="mask-type:luminance" maskUnits="userSpaceOnUse" x="0" y="0" width="364" height="188">
<path d="M0 187.138H364V0.382812H0V187.138Z" fill="white"/>
</mask>
<g mask="url(#mask2_372_2632)">
<path fill-rule="evenodd" clip-rule="evenodd" d="M177.956 185.893H219.644V127.376H177.956V185.893Z" fill="#E5A000"/>
</g>
<mask id="mask3_372_2632" style="mask-type:luminance" maskUnits="userSpaceOnUse" x="0" y="0" width="364" height="188">
<path d="M0 187.138H364V0.382812H0V187.138Z" fill="white"/>
</mask>
<g mask="url(#mask3_372_2632)">
<path fill-rule="evenodd" clip-rule="evenodd" d="M165.511 185.893H207.2V127.376H165.511V185.893Z" fill="#FFBE2E"/>
</g>
<g opacity="0.4">
<mask id="mask4_372_2632" style="mask-type:luminance" maskUnits="userSpaceOnUse" x="0" y="0" width="364" height="188">
<path d="M0 187.138H364V0.382812H0V187.138Z" fill="white"/>
</mask>
<g mask="url(#mask4_372_2632)">
<path fill-rule="evenodd" clip-rule="evenodd" d="M207.2 127.999L219.644 136.714V127.999H207.2Z" fill="#C2850C"/>
</g>
</g>
<mask id="mask5_372_2632" style="mask-type:luminance" maskUnits="userSpaceOnUse" x="0" y="0" width="364" height="188">
<path d="M0 187.138H364V0.382812H0V187.138Z" fill="white"/>
</mask>
<g mask="url(#mask5_372_2632)">
<path fill-rule="evenodd" clip-rule="evenodd" d="M78.3888 140.76C78.3888 140.76 70.5693 146.57 69.0448 146.217C67.5204 145.865 74.7593 139.946 74.7593 139.946C72.0353 138.638 63.5668 139.458 63.5668 139.458C63.5668 139.458 60.7463 148.546 59.355 147.83C57.9643 147.113 62.2639 139.909 62.2639 139.909C59.2299 139.727 55.5084 141.978 55.5084 141.978C50.4143 145.998 55.8432 152.326 55.8432 152.326C55.8432 152.326 54.7978 155.455 51.5809 158.304C51.5809 158.304 46.9858 161.699 46.6666 167.766L47.5004 167.84C47.5004 167.84 48.8226 162.19 51.225 159.517C51.3184 159.421 51.454 159.281 51.622 159.113C52.0134 158.751 52.2878 158.478 52.4713 158.277C53.6672 157.129 55.3199 155.667 56.1157 155.525C56.1157 155.525 56.0759 155.379 56.0815 155.125L56.1157 155.525C56.3882 158.724 62.5993 161.517 66.4197 162.092C70.2408 162.665 69.0598 161.097 67.7432 158.77C66.4265 156.443 62.2608 155.402 61.31 154.331C60.3592 153.259 62.3242 153.256 64.6264 154.307C66.9287 155.357 67.2441 158.158 70.937 159.926C74.6299 161.692 80.187 155.569 80.187 155.569C77.2439 155.42 73.0408 152.226 73.1932 151.25C73.345 150.272 80.327 152.936 81.521 153.063C82.7145 153.191 85.4304 151.708 85.8504 146.904C86.2704 142.1 78.3888 140.76 78.3888 140.76Z" fill="#6DB078"/>
</g>
<mask id="mask6_372_2632" style="mask-type:luminance" maskUnits="userSpaceOnUse" x="0" y="0" width="364" height="188">
<path d="M0 187.138H364V0.382812H0V187.138Z" fill="white"/>
</mask>
<g mask="url(#mask6_372_2632)">
<path fill-rule="evenodd" clip-rule="evenodd" d="M37.2586 144.713C37.2586 144.713 45.8901 139.887 41.8625 133.337C41.8625 133.337 38.64 129.316 35.1879 128.281C35.1879 128.281 37.029 138.048 35.1879 138.279C33.3461 138.508 33.9217 127.247 33.9217 127.247C33.9217 127.247 24.8304 122.88 21.2625 123.226C21.2625 123.226 26.9017 132.763 25.0606 132.532C23.2188 132.303 16.8896 122.65 16.8896 122.65C16.8896 122.65 7.56806 120.927 6.07223 126.443C4.57579 131.958 6.99312 134.716 8.37383 135.061C9.75455 135.406 18.6156 135.291 18.3854 136.44C18.1552 137.589 12.1713 139.428 8.83428 138.393C8.83428 138.393 12.5166 147.471 17.35 147.011C22.1834 146.552 23.6793 143.564 26.6715 143.334C29.6638 143.105 31.8503 143.909 30.3545 144.713C28.858 145.517 23.7944 144.977 21.3777 147.029C18.9609 149.08 17.0047 150.344 21.4928 151.263C25.9815 152.183 34.0368 151.607 35.6483 148.161L37.2586 144.713Z" fill="#94D29A"/>
</g>
<mask id="mask7_372_2632" style="mask-type:luminance" maskUnits="userSpaceOnUse" x="0" y="0" width="364" height="188">
<path d="M0 187.138H364V0.382812H0V187.138Z" fill="white"/>
</mask>
<g mask="url(#mask7_372_2632)">
<path fill-rule="evenodd" clip-rule="evenodd" d="M39.4588 152.858C37.0714 148.39 37.1846 144.495 37.1846 144.495C34.4562 135.788 10.5778 127.998 10.5778 127.998C40.9372 140.371 35.593 147.931 35.593 147.931C36.4112 148.412 37.6376 150.705 38.4894 152.464C38.6101 152.763 38.8024 153.178 39.0874 153.74C39.2031 153.994 39.2958 154.202 39.3593 154.348C40.9229 158.288 40.0947 165.093 40.0947 165.093L41.0418 165.35C43.1411 158.491 39.4588 152.858 39.4588 152.858Z" fill="#6DB078"/>
</g>
<mask id="mask8_372_2632" style="mask-type:luminance" maskUnits="userSpaceOnUse" x="0" y="0" width="364" height="188">
<path d="M0 187.138H364V0.382812H0V187.138Z" fill="white"/>
</mask>
<g mask="url(#mask8_372_2632)">
<path fill-rule="evenodd" clip-rule="evenodd" d="M50.4044 137.518C50.4044 137.518 39.0401 131.152 44.3439 122.511C44.3439 122.511 48.5862 117.206 53.1316 115.842C53.1316 115.842 50.7074 128.727 53.1316 129.03C55.5564 129.333 54.7991 114.478 54.7991 114.478C54.7991 114.478 66.7688 108.718 71.466 109.172C71.466 109.172 64.0416 121.754 66.4658 121.451C68.8906 121.148 77.224 108.415 77.224 108.415C77.224 108.415 89.4973 106.141 91.4673 113.417C93.4372 120.693 90.2552 124.33 88.4371 124.786C86.6189 125.24 74.951 125.089 75.254 126.605C75.5571 128.12 83.4363 130.545 87.831 129.182C87.831 129.182 82.982 141.156 76.6186 140.55C70.2539 139.944 68.2839 136.003 64.3446 135.699C60.4047 135.396 57.5257 136.457 59.4956 137.518C61.4656 138.579 68.1327 137.866 71.3148 140.573C74.4968 143.279 77.0728 144.946 71.1629 146.158C65.2537 147.371 54.6473 146.613 52.5255 142.066L50.4044 137.518Z" fill="#94D29A"/>
</g>
<mask id="mask9_372_2632" style="mask-type:luminance" maskUnits="userSpaceOnUse" x="0" y="0" width="364" height="188">
<path d="M0 187.138H364V0.382812H0V187.138Z" fill="white"/>
</mask>
<g mask="url(#mask9_372_2632)">
<path fill-rule="evenodd" clip-rule="evenodd" d="M85.8667 116.171C85.8667 116.171 54.3474 126.427 50.7454 137.891C50.7454 137.891 50.8953 143.019 47.7438 148.902C47.7438 148.902 42.883 156.319 45.6537 165.35L46.9044 165.012C46.9044 165.012 45.8111 156.052 47.875 150.864C47.959 150.673 48.081 150.399 48.2334 150.064C48.6099 149.324 48.8638 148.778 49.0237 148.384C50.1474 146.068 51.767 143.049 52.8466 142.416C52.8466 142.416 45.7925 132.461 85.8667 116.171Z" fill="#6DB078"/>
</g>
<mask id="mask10_372_2632" style="mask-type:luminance" maskUnits="userSpaceOnUse" x="0" y="0" width="364" height="188">
<path d="M0 187.138H364V0.382812H0V187.138Z" fill="white"/>
</mask>
<g mask="url(#mask10_372_2632)">
<path fill-rule="evenodd" clip-rule="evenodd" d="M50.7111 185.27C62.9104 185.27 72.8 175.236 72.8 162.859H28.6222C28.6222 175.236 38.5118 185.27 50.7111 185.27Z" fill="#E5A000"/>
</g>
<mask id="mask11_372_2632" style="mask-type:luminance" maskUnits="userSpaceOnUse" x="0" y="0" width="364" height="188">
<path d="M0 187.138H364V0.382812H0V187.138Z" fill="white"/>
</mask>
<g mask="url(#mask11_372_2632)">
<path fill-rule="evenodd" clip-rule="evenodd" d="M56 185.099C55.0996 185.212 54.1812 185.27 53.2498 185.27C41.0231 185.27 31.1111 175.236 31.1111 162.859H36.6115C36.6115 174.294 45.0706 183.727 56 185.098" fill="#FFE396"/>
</g>
<mask id="mask12_372_2632" style="mask-type:luminance" maskUnits="userSpaceOnUse" x="0" y="0" width="364" height="188">
<path d="M0 187.138H364V0.382812H0V187.138Z" fill="white"/>
</mask>
<g mask="url(#mask12_372_2632)">
<path fill-rule="evenodd" clip-rule="evenodd" d="M70.0747 183.402H30.7253C29.2196 183.402 27.9994 184.517 27.9994 185.892H72.7994C72.7994 184.517 71.5798 183.402 70.0747 183.402Z" fill="#C2850C"/>
</g>
<mask id="mask13_372_2632" style="mask-type:luminance" maskUnits="userSpaceOnUse" x="0" y="0" width="364" height="188">
<path d="M0 187.138H364V0.382812H0V187.138Z" fill="white"/>
</mask>
<g mask="url(#mask13_372_2632)">
<path fill-rule="evenodd" clip-rule="evenodd" d="M73.0831 162.859H28.3391C28.1518 162.859 28 162.998 28 163.171C28 163.342 28.1518 163.482 28.3391 163.482H73.0831C73.2704 163.482 73.4222 163.342 73.4222 163.171C73.4222 162.998 73.2704 162.859 73.0831 162.859Z" fill="#C2850C"/>
</g>
<mask id="mask14_372_2632" style="mask-type:luminance" maskUnits="userSpaceOnUse" x="0" y="0" width="364" height="188">
<path d="M0 187.138H364V0.382812H0V187.138Z" fill="white"/>
</mask>
<g mask="url(#mask14_372_2632)">
<path fill-rule="evenodd" clip-rule="evenodd" d="M244.192 45.3942C243.547 45.2946 241.604 47.1317 241.604 47.1317C237.455 47.6222 231.388 48.7496 229.205 49.1798C227.656 49.4848 223.493 48.0325 219.427 46.3654C214.59 44.382 209.89 42.0937 209.89 42.0937C207.206 41.9542 204.159 46.963 209.601 50.1472C210.432 50.6334 213.554 51.4632 217.149 52.2201C222.108 53.266 227.966 54.173 229.96 53.8543C232.277 53.4832 238.834 51.0299 242.734 49.1505L242.744 49.1455L242.788 49.125C243.021 49.0129 243.976 48.5778 244.614 48.6164C245.344 48.6606 246.972 47.2929 247.022 46.9275C247.071 46.5627 244.838 45.4945 244.192 45.3942Z" fill="#FF9859"/>
</g>
<mask id="mask15_372_2632" style="mask-type:luminance" maskUnits="userSpaceOnUse" x="0" y="0" width="364" height="188">
<path d="M0 187.138H364V0.382812H0V187.138Z" fill="white"/>
</mask>
<g mask="url(#mask15_372_2632)">
<path fill-rule="evenodd" clip-rule="evenodd" d="M238.933 106.994L236.677 107.456C236.677 107.456 226.353 95.7528 224.76 90.8287C223.908 88.1967 218.457 87.0594 212.762 85.5741C207.804 84.2811 202.66 82.7229 200.204 79.6826C194.924 73.1511 203.52 65.125 203.52 65.125C203.52 65.125 212.66 70.605 220.544 76.2668C226.056 80.2235 230.954 84.2686 231.692 86.5931C233.484 92.2468 237.286 102.993 238.933 106.994Z" fill="#0D458E"/>
</g>
<mask id="mask16_372_2632" style="mask-type:luminance" maskUnits="userSpaceOnUse" x="0" y="0" width="364" height="188">
<path d="M0 187.138H364V0.382812H0V187.138Z" fill="white"/>
</mask>
<g mask="url(#mask16_372_2632)">
<path fill-rule="evenodd" clip-rule="evenodd" d="M236.231 111.177H237.499C237.923 111.105 238.238 110.972 238.673 110.91C239.335 110.817 239.639 111.11 239.7 111.177L239.712 111.191H245.098C245.233 110.982 245.103 110.498 244.976 110.141C244.89 109.899 244.703 109.715 244.472 109.643C243.901 109.464 242.774 109.305 241.743 108.296C241.163 107.73 238.941 106.213 238.941 106.213L238.93 106.211C238.881 106.212 238.648 106.289 237.638 107.211C237.116 107.686 236.226 106.538 236.226 106.538C236.226 106.538 236.058 106.688 235.934 106.967C235.833 107.186 235.76 107.488 235.818 107.86C235.899 108.384 235.639 109.359 235.432 110.018C235.306 110.417 235.201 110.701 235.201 110.701C235.201 110.701 235.14 111.03 236.231 111.177Z" fill="#0B3563"/>
</g>
<mask id="mask17_372_2632" style="mask-type:luminance" maskUnits="userSpaceOnUse" x="0" y="0" width="364" height="188">
<path d="M0 187.138H364V0.382812H0V187.138Z" fill="white"/>
</mask>
<g mask="url(#mask17_372_2632)">
<path fill-rule="evenodd" clip-rule="evenodd" d="M220.267 76.3179L212.363 85.6681C207.328 84.3689 202.103 82.8032 199.609 79.7492C194.246 73.1878 202.976 65.125 202.976 65.125C202.976 65.125 212.259 70.6305 220.267 76.3179Z" fill="#003A72"/>
</g>
<mask id="mask18_372_2632" style="mask-type:luminance" maskUnits="userSpaceOnUse" x="0" y="0" width="364" height="188">
<path d="M0 187.138H364V0.382812H0V187.138Z" fill="white"/>
</mask>
<g mask="url(#mask18_372_2632)">
<path fill-rule="evenodd" clip-rule="evenodd" d="M213.422 71.7726C213.422 71.7726 212.784 73.7684 211.745 76.7714C210.431 80.5687 208.474 85.9747 206.35 90.9884C205.884 92.0903 205.409 93.1735 204.931 94.2162C203.166 98.0745 201.359 101.381 199.767 103.062C196.908 106.084 189.958 125.509 189.958 125.509L188.225 125.033C188.225 125.033 185.811 108.446 194.365 99.0077C194.456 98.9075 194.528 98.791 194.538 98.6553C194.539 98.6547 194.539 98.6535 194.539 98.6522C194.653 97.2547 195.06 90.9984 195.946 84.658C196.164 83.103 196.41 81.5436 196.687 80.0496L196.74 79.7651C198.041 72.8558 199.287 69.783 200.896 68.2373L212.722 71.5752L213.422 71.7726Z" fill="#0D458E"/>
</g>
<mask id="mask19_372_2632" style="mask-type:luminance" maskUnits="userSpaceOnUse" x="0" y="0" width="364" height="188">
<path d="M0 187.138H364V0.382812H0V187.138Z" fill="white"/>
</mask>
<g mask="url(#mask19_372_2632)">
<path fill-rule="evenodd" clip-rule="evenodd" d="M188.32 128.607H189.588C190.013 128.535 190.327 128.402 190.762 128.341C191.424 128.247 191.728 128.54 191.789 128.607L191.801 128.621H197.187C197.323 128.412 197.193 127.927 197.065 127.571C196.979 127.328 196.792 127.145 196.561 127.073C195.989 126.894 194.863 126.735 193.832 125.726C193.252 125.16 191.03 123.643 191.03 123.643L191.018 123.641C190.97 123.641 190.738 123.718 189.727 124.64C189.205 125.116 188.315 123.968 188.315 123.968C188.315 123.968 188.147 124.117 188.022 124.396C187.922 124.615 187.849 124.917 187.907 125.29C187.988 125.814 187.728 126.789 187.521 127.448C187.395 127.847 187.289 128.13 187.289 128.13C187.289 128.13 187.229 128.46 188.32 128.607Z" fill="#0B3563"/>
</g>
<mask id="mask20_372_2632" style="mask-type:luminance" maskUnits="userSpaceOnUse" x="0" y="0" width="364" height="188">
<path d="M0 187.138H364V0.382812H0V187.138Z" fill="white"/>
</mask>
<g mask="url(#mask20_372_2632)">
<path fill-rule="evenodd" clip-rule="evenodd" d="M190.78 49.0803C190.78 49.0803 188.835 53.8799 186.592 58.5507C184.705 62.4788 182.609 66.3147 181.28 67.1339C179.406 68.2887 174.243 71.5451 170.894 73.9741C170.894 73.9741 168.281 73.9542 167.874 74.4591C167.468 74.9633 166.531 77.2305 166.805 77.4596C167.078 77.6899 169.157 77.5829 169.661 77.0612C170.101 76.6061 171.082 76.2787 171.325 76.2021L171.371 76.1884L171.381 76.1859C175.45 74.9229 181.834 72.2927 183.766 71.0066C185.43 69.8985 189.119 65.3168 192.061 61.2393L192.062 61.2387C194.195 58.283 195.935 55.5919 196.226 54.6848C198.13 48.7429 192.649 47.1804 190.78 49.0803" fill="#FFB37B"/>
</g>
<mask id="mask21_372_2632" style="mask-type:luminance" maskUnits="userSpaceOnUse" x="0" y="0" width="364" height="188">
<path d="M0 187.138H364V0.382812H0V187.138Z" fill="white"/>
</mask>
<g mask="url(#mask21_372_2632)">
<path fill-rule="evenodd" clip-rule="evenodd" d="M201.045 30.1804C200.81 29.8343 200.574 29.528 200.338 29.2528C200.631 29.2597 200.947 29.2304 201.209 29.1202C201.901 28.8301 202.217 26.5978 202.113 25.9361C202.009 25.2737 201.047 23.3588 199.861 23.1683C198.676 22.9772 197.45 24.315 197.45 24.315C197.669 23.3495 199.675 22.793 199.675 22.793C195.543 23.5668 195.754 26.3662 195.782 26.6246C191.998 25.2556 189.778 32.4912 189.778 32.4912L199.578 38.3553C199.578 38.3553 199.603 36.7573 200.538 36.8606C201.996 37.0212 203.21 33.3851 201.045 30.181" fill="#203765"/>
</g>
<mask id="mask22_372_2632" style="mask-type:luminance" maskUnits="userSpaceOnUse" x="0" y="0" width="364" height="188">
<path d="M0 187.138H364V0.382812H0V187.138Z" fill="white"/>
</mask>
<g mask="url(#mask22_372_2632)">
<path fill-rule="evenodd" clip-rule="evenodd" d="M201.826 45.457C199.602 46.5015 196.65 44.9975 196.666 44.9814C196.857 44.7915 196.79 44.2219 196.615 43.4786C196.441 42.7029 196.027 41.6422 195.265 40.3766C195.105 40.1071 194.947 39.8381 194.756 39.553L195.01 39.4584L199.331 37.7334C199.331 37.7334 200.031 38.9834 200.762 40.1232C201.381 41.0726 202.032 41.9273 202.319 41.8962C202.335 41.88 205.195 43.8428 201.826 45.457Z" fill="#FFB37B"/>
</g>
<mask id="mask23_372_2632" style="mask-type:luminance" maskUnits="userSpaceOnUse" x="0" y="0" width="364" height="188">
<path d="M0 187.138H364V0.382812H0V187.138Z" fill="white"/>
</mask>
<g mask="url(#mask23_372_2632)">
<path fill-rule="evenodd" clip-rule="evenodd" d="M199.111 37.7334C198.992 39.3507 198.43 42.2684 196.202 43.336C196.015 42.5187 195.572 41.4013 194.756 40.0678L199.111 37.7334Z" fill="#FF9859"/>
</g>
<mask id="mask24_372_2632" style="mask-type:luminance" maskUnits="userSpaceOnUse" x="0" y="0" width="364" height="188">
<path d="M0 187.138H364V0.382812H0V187.138Z" fill="white"/>
</mask>
<g mask="url(#mask24_372_2632)">
<path fill-rule="evenodd" clip-rule="evenodd" d="M194.631 42.06C194.631 42.06 200.326 39.7803 198.874 36.2002C197.421 32.6201 197.178 29.9147 193.48 31.2189C189.783 32.523 189.635 34.1827 189.834 35.4974C190.032 36.8122 193.112 42.5611 194.631 42.06Z" fill="#FFB37B"/>
</g>
<mask id="mask25_372_2632" style="mask-type:luminance" maskUnits="userSpaceOnUse" x="0" y="0" width="364" height="188">
<path d="M0 187.138H364V0.382812H0V187.138Z" fill="white"/>
</mask>
<g mask="url(#mask25_372_2632)">
<path fill-rule="evenodd" clip-rule="evenodd" d="M196.921 35.1464C199.58 34.7686 200.356 33.6866 200.356 33.6866C200.356 33.6866 197.906 32.9795 196.468 30.5647C196.468 30.5647 193.479 29.55 191.264 31.2464C191.13 31.4226 191.033 31.6305 190.984 31.8751C190.477 31.7077 189.713 31.7506 189.273 33.1949C188.611 35.365 190.966 37.7343 190.966 37.7343C191.536 37.5718 190.892 35.6382 190.802 34.6061C190.736 33.8466 191.143 32.8749 191.363 32.4136C191.644 32.7815 194.449 36.3305 197.874 36.4724C197.874 36.4724 196.065 35.8406 194.418 34.6042C195.237 35.0089 196.108 35.2616 196.92 35.1458" fill="#203765"/>
</g>
<mask id="mask26_372_2632" style="mask-type:luminance" maskUnits="userSpaceOnUse" x="0" y="0" width="364" height="188">
<path d="M0 187.138H364V0.382812H0V187.138Z" fill="white"/>
</mask>
<g mask="url(#mask26_372_2632)">
<path fill-rule="evenodd" clip-rule="evenodd" d="M212.434 52.4037C212.386 52.2325 212.334 52.0551 212.28 51.8721C213.119 50.2436 213.531 48.7751 213.705 47.5331C214.089 44.9067 213.435 43.2863 213.435 43.2863C213.435 43.2863 209.517 41.176 207.787 40.9071C207.78 40.904 207.773 40.9008 207.766 40.9008C207.746 40.8971 207.723 40.8952 207.697 40.894C205.951 40.6493 202.17 41.4331 202.17 41.4331C202.17 41.4331 202.899 43.4058 200.842 44.7206C198.785 46.0354 196.587 44.3844 196.587 44.3844C196.521 44.4293 196.451 44.4791 196.378 44.5314C196.378 44.5314 190.965 48.1606 190.479 48.9892C189.993 49.819 187.911 53.9251 187.911 53.9251C187.911 53.9251 188.571 57.3726 195.884 57.6602C196.485 59.1418 196.945 60.5873 197.095 61.7925C197.676 66.472 197.002 70.1635 197.678 72.8945C198.355 75.6261 210.556 74.0685 212.766 73.5431C214.975 73.0171 214.478 70.6198 214.648 68.2909C214.862 65.3651 213.153 54.9847 212.434 52.4037Z" fill="#469FF1"/>
</g>
<mask id="mask27_372_2632" style="mask-type:luminance" maskUnits="userSpaceOnUse" x="0" y="0" width="364" height="188">
<path d="M0 187.138H364V0.382812H0V187.138Z" fill="white"/>
</mask>
<g mask="url(#mask27_372_2632)">
<path fill-rule="evenodd" clip-rule="evenodd" d="M213.422 47.5529C213.244 48.8409 212.822 50.363 211.961 52.0519C211.767 51.1654 210.971 47.9208 209.689 46.4492C209.689 46.4492 211.848 46.6503 213.422 47.5529Z" fill="#0483D7"/>
</g>
<mask id="mask28_372_2632" style="mask-type:luminance" maskUnits="userSpaceOnUse" x="0" y="0" width="364" height="188">
<path d="M0 187.138H364V0.382812H0V187.138Z" fill="white"/>
</mask>
<g mask="url(#mask28_372_2632)">
<path fill-rule="evenodd" clip-rule="evenodd" d="M163.668 78.084C163.668 78.084 165.951 75.5105 166.442 75.2061C166.934 74.9023 169.09 74.3688 169.213 74.4759C169.336 74.5836 169.342 74.7392 169.075 74.9583C168.807 75.1781 167.788 75.7315 167.933 75.7944C168.079 75.8566 171.155 74.4311 171.598 74.9104C172.042 75.3897 171.348 77.3681 170.162 78.3168C168.976 79.2649 165.438 79.6695 165.216 79.8021C163.328 80.9245 163.668 78.084 163.668 78.084Z" fill="#FF9859"/>
</g>
<mask id="mask29_372_2632" style="mask-type:luminance" maskUnits="userSpaceOnUse" x="0" y="0" width="364" height="188">
<path d="M0 187.138H364V0.382812H0V187.138Z" fill="white"/>
</mask>
<g mask="url(#mask29_372_2632)">
<path fill-rule="evenodd" clip-rule="evenodd" d="M123.2 71.8072C123.2 71.8072 126.578 75.6886 130.88 74.0651C130.88 74.0651 131.805 71.8968 131.818 70.2988C131.82 70.1021 131.822 69.9116 131.825 69.7299C131.848 67.9308 131.911 66.9204 131.911 66.9204H131.907C131.711 66.8408 125.33 64.3034 125.336 64.5144C125.446 69.3819 123.2 71.8072 123.2 71.8072Z" fill="#FFB37B"/>
</g>
<mask id="mask30_372_2632" style="mask-type:luminance" maskUnits="userSpaceOnUse" x="0" y="0" width="364" height="188">
<path d="M0 187.138H364V0.382812H0V187.138Z" fill="white"/>
</mask>
<g mask="url(#mask30_372_2632)">
<path fill-rule="evenodd" clip-rule="evenodd" d="M126.315 65.1725C126.895 66.3465 128.886 68.643 131.83 69.4821C131.852 67.5698 131.911 66.4966 131.911 66.4966L131.907 66.4959C131.741 66.4468 126.142 64.8263 126.315 65.1725Z" fill="#FF9859"/>
</g>
<mask id="mask31_372_2632" style="mask-type:luminance" maskUnits="userSpaceOnUse" x="0" y="0" width="364" height="188">
<path d="M0 187.138H364V0.382812H0V187.138Z" fill="white"/>
</mask>
<g mask="url(#mask31_372_2632)">
<path fill-rule="evenodd" clip-rule="evenodd" d="M133.327 66.6888C133.327 66.6888 126.433 68.3323 125.49 63.9622C124.547 59.5921 123.021 56.8605 127.383 55.6267C131.745 54.3916 132.963 55.8695 133.628 57.2502C134.293 58.6316 135.096 66.1485 133.327 66.6888Z" fill="#FFB37B"/>
</g>
<mask id="mask32_372_2632" style="mask-type:luminance" maskUnits="userSpaceOnUse" x="0" y="0" width="364" height="188">
<path d="M0 187.138H364V0.382812H0V187.138Z" fill="white"/>
</mask>
<g mask="url(#mask32_372_2632)">
<path fill-rule="evenodd" clip-rule="evenodd" d="M125.628 64.4686C125.531 64.5278 124.01 64.9772 121.129 59.4599C120.677 58.5933 120.369 56.7202 121.423 55.0649C122.477 53.409 126.215 52.1073 129.321 51.5408C132.427 50.9744 133.172 52.6539 133.904 54.3422C134.671 56.1151 136.889 57.5743 136.889 57.5743C134.211 59.0123 130.985 56.9555 129.868 57.2941C128.75 57.6322 128.356 59.3248 128.271 59.8682C128.188 60.4105 128.058 60.8612 126.653 60.3768C125.248 59.8919 126.019 62.2911 126.243 62.7499C126.243 62.7499 126.434 63.9725 125.628 64.4686Z" fill="#C2850C"/>
</g>
<mask id="mask33_372_2632" style="mask-type:luminance" maskUnits="userSpaceOnUse" x="0" y="0" width="364" height="188">
<path d="M0 187.138H364V0.382812H0V187.138Z" fill="white"/>
</mask>
<g mask="url(#mask33_372_2632)">
<path fill-rule="evenodd" clip-rule="evenodd" d="M107.515 173.442H103.42C102.561 173.442 101.607 172.543 101.368 170.896C101.13 169.248 99.3646 168.35 98.9825 167.003C98.6011 165.655 100.558 163.757 100.558 163.757L100.885 163.318L101.225 162.859L104.469 163.657C104.469 163.657 104.549 164.465 104.599 165.495C104.634 166.238 104.653 167.097 104.612 167.851C104.517 169.648 105.093 171.583 106.62 171.933C108.147 172.282 107.515 173.442 107.515 173.442ZM137.511 173.442H125.866C125.754 173.42 125.669 173.397 125.618 173.371C124.84 172.989 125.084 170.066 125.177 169.163C125.196 168.996 125.209 168.898 125.209 168.898C125.209 168.898 129.303 165.682 129.867 168.145C129.885 168.222 129.905 168.297 129.927 168.371V168.372C130.638 170.676 133.816 171.723 135.651 172.014C137.054 172.238 137.418 173.041 137.511 173.442Z" fill="#203765"/>
</g>
<mask id="mask34_372_2632" style="mask-type:luminance" maskUnits="userSpaceOnUse" x="0" y="0" width="364" height="188">
<path d="M0 187.138H364V0.382812H0V187.138Z" fill="white"/>
</mask>
<g mask="url(#mask34_372_2632)">
<path fill-rule="evenodd" clip-rule="evenodd" d="M135.022 109.113C135.022 109.113 134.421 116.588 133.714 125.573C132.754 137.777 131.599 152.769 131.484 155.609C131.287 160.539 130.494 168.429 130.494 168.429C130.494 168.429 128.615 170.302 124.853 169.512C124.853 169.512 121.5 158.252 120.542 146.337L120.498 145.748C119.608 133.619 118.222 108.078 118.222 108.078L135.022 109.113Z" fill="#FFBE2E"/>
</g>
<mask id="mask35_372_2632" style="mask-type:luminance" maskUnits="userSpaceOnUse" x="0" y="0" width="364" height="188">
<path d="M0 187.138H364V0.382812H0V187.138Z" fill="white"/>
</mask>
<g mask="url(#mask35_372_2632)">
<path fill-rule="evenodd" clip-rule="evenodd" d="M135.022 109.106C135.022 109.106 134.421 116.524 133.714 125.441L120.542 146.052L120.498 145.466C119.608 133.428 118.222 108.078 118.222 108.078L135.022 109.105V109.106Z" fill="#E5A000"/>
</g>
<mask id="mask36_372_2632" style="mask-type:luminance" maskUnits="userSpaceOnUse" x="0" y="0" width="364" height="188">
<path d="M0 187.138H364V0.382812H0V187.138Z" fill="white"/>
</mask>
<g mask="url(#mask36_372_2632)">
<path fill-rule="evenodd" clip-rule="evenodd" d="M131.911 109.852C131.911 109.852 121.086 136.95 113.969 149.684C106.85 162.418 104.627 165.972 104.627 165.972C104.627 165.972 100.549 164.343 100.178 163.233C100.178 163.233 102.9 138.648 107.666 132.655C110.36 129.269 113.524 119.107 113.672 115.553C113.82 111.999 114.636 104.966 114.636 104.966L131.911 109.852Z" fill="#FFBE2E"/>
</g>
<mask id="mask37_372_2632" style="mask-type:luminance" maskUnits="userSpaceOnUse" x="0" y="0" width="364" height="188">
<path d="M0 187.138H364V0.382812H0V187.138Z" fill="white"/>
</mask>
<g mask="url(#mask37_372_2632)">
<path fill-rule="evenodd" clip-rule="evenodd" d="M107.644 105.128C107.644 105.128 107.348 108.689 107.132 109.236C106.915 109.783 105.47 111.478 105.302 111.454C105.135 111.429 105.035 111.296 105.12 110.951C105.205 110.606 105.702 109.54 105.545 109.567C105.387 109.595 103.733 112.598 103.075 112.429C102.415 112.26 101.772 110.124 102.164 108.617C102.556 107.108 105.216 104.74 105.317 104.498C106.179 102.437 107.644 105.128 107.644 105.128Z" fill="#FF9859"/>
</g>
<mask id="mask38_372_2632" style="mask-type:luminance" maskUnits="userSpaceOnUse" x="0" y="0" width="364" height="188">
<path d="M0 187.138H364V0.382812H0V187.138Z" fill="white"/>
</mask>
<g mask="url(#mask38_372_2632)">
<path fill-rule="evenodd" clip-rule="evenodd" d="M106.653 105.909C107.856 106.288 108.048 106.202 108.048 106.202C108.048 106.202 113.905 95.7574 114.498 94.8012C115.092 93.8444 126.933 83.0873 126.933 83.0873L123.891 71.9717C123.891 71.9717 110.421 89.056 108.967 91.5075C106.564 95.5595 105.156 104.969 105.156 104.969C105.156 104.969 105.707 105.612 106.653 105.91" fill="#003A72"/>
</g>
<mask id="mask39_372_2632" style="mask-type:luminance" maskUnits="userSpaceOnUse" x="0" y="0" width="364" height="188">
<path d="M0 187.138H364V0.382812H0V187.138Z" fill="white"/>
</mask>
<g mask="url(#mask39_372_2632)">
<path fill-rule="evenodd" clip-rule="evenodd" d="M137.497 87.4744C137.456 89.7609 137.322 92.3306 137.141 94.9415L137.108 95.4052C136.993 97.0225 136.867 98.6436 136.723 100.224C136.666 100.858 136.605 101.484 136.541 102.1L136.531 102.183C136.526 102.413 136.497 102.663 136.472 102.891C135.885 108.811 135.27 113.488 135.156 113.56C135.019 113.65 134.866 113.695 134.697 113.675C133.133 113.481 128.466 113.833 124.645 113.008C121.42 112.333 118.643 111.053 115.702 109.327C115.311 109.099 114.42 108.492 114.493 108.039C114.564 107.54 114.695 106.82 114.863 105.914C115.442 102.765 116.443 97.3481 116.784 91.009C116.851 89.8275 116.948 88.6621 117.073 87.5148C117.401 84.528 117.926 81.6906 118.631 79.1706C119.941 74.4887 121.867 70.9036 124.282 69.5005C124.598 69.3249 126.296 70.3969 127.855 71.3904C129.296 72.3068 130.812 72.5608 132.287 72.4325L133.585 73.8575C135.157 75.6708 136.83 78.0843 137.287 81.5163C137.322 81.7696 137.351 82.0392 137.375 82.3255C137.502 83.7237 137.533 85.4929 137.497 87.4744Z" fill="#004D9A"/>
</g>
<mask id="mask40_372_2632" style="mask-type:luminance" maskUnits="userSpaceOnUse" x="0" y="0" width="364" height="188">
<path d="M0 187.138H364V0.382812H0V187.138Z" fill="white"/>
</mask>
<g mask="url(#mask40_372_2632)">
<path fill-rule="evenodd" clip-rule="evenodd" d="M137.497 87.4554C137.456 89.8116 137.324 92.4598 137.146 95.1497L137.114 95.6278C128.292 89.9081 126.933 79.4424 126.933 79.4424C131.273 79.6391 134.72 80.6731 137.377 82.1503C137.502 83.5908 137.533 85.4142 137.497 87.4554Z" fill="#003A72"/>
</g>
<mask id="mask41_372_2632" style="mask-type:luminance" maskUnits="userSpaceOnUse" x="0" y="0" width="364" height="188">
<path d="M0 187.138H364V0.382812H0V187.138Z" fill="white"/>
</mask>
<g mask="url(#mask41_372_2632)">
<path fill-rule="evenodd" clip-rule="evenodd" d="M165.263 78.3877C164.801 77.1414 164.084 77.2223 164.084 77.2223C164.084 77.2223 150.771 80.5341 149.576 80.6767C148.381 80.8186 135.239 75.554 135.239 75.554C135.239 75.554 130.067 73.237 127.644 75.3529C125.538 77.1912 125.442 79.5206 125.935 81.4766C126.522 83.8079 128.498 85.5298 130.886 85.8336C136.248 86.5152 146.945 87.7982 149.187 87.487C154.177 86.7935 165.483 80.2782 165.483 80.2782C165.483 80.2782 165.626 79.3669 165.263 78.3877Z" fill="#004D9A"/>
</g>
<mask id="mask42_372_2632" style="mask-type:luminance" maskUnits="userSpaceOnUse" x="0" y="0" width="364" height="188">
<path d="M0 187.138H364V0.382812H0V187.138Z" fill="white"/>
</mask>
<g mask="url(#mask42_372_2632)">
<path fill-rule="evenodd" clip-rule="evenodd" d="M296.42 102.645C296.42 102.645 298.377 104.319 297.995 105.509C297.613 106.698 295.848 107.49 295.609 108.944C295.371 110.397 294.416 111.19 293.558 111.19H289.463C289.463 111.19 288.831 110.167 290.357 109.859C291.884 109.551 292.461 107.842 292.365 106.257C292.27 104.671 292.508 102.557 292.508 102.557L295.752 101.853L296.42 102.645ZM273.283 110.992C273.092 111.084 272.42 111.147 271.498 111.19H262.578C262.608 110.935 262.815 110.027 264.274 109.801C265.922 109.544 268.777 108.625 269.413 106.601C269.435 106.536 269.453 106.469 269.468 106.403C269.973 104.241 273.65 107.064 273.65 107.064C273.65 107.064 273.661 107.15 273.677 107.298C273.763 108.093 273.981 110.657 273.283 110.992Z" fill="#203765"/>
</g>
<mask id="mask43_372_2632" style="mask-type:luminance" maskUnits="userSpaceOnUse" x="0" y="0" width="364" height="188">
<path d="M0 187.138H364V0.382812H0V187.138Z" fill="white"/>
</mask>
<g mask="url(#mask43_372_2632)">
<path fill-rule="evenodd" clip-rule="evenodd" d="M265.067 51.7482C265.067 51.7482 265.624 58.543 266.278 66.7104C267.167 77.8055 268.237 91.4343 268.343 94.0165C268.526 98.4999 269.259 105.671 269.259 105.671C269.259 105.671 271 107.375 274.483 106.657C274.483 106.657 277.587 96.4194 278.474 85.5876L278.515 85.0523C279.34 74.0262 280.622 50.8076 280.622 50.8076L265.067 51.7482Z" fill="#26468E"/>
</g>
<mask id="mask44_372_2632" style="mask-type:luminance" maskUnits="userSpaceOnUse" x="0" y="0" width="364" height="188">
<path d="M0 187.138H364V0.382812H0V187.138Z" fill="white"/>
</mask>
<g mask="url(#mask44_372_2632)">
<path fill-rule="evenodd" clip-rule="evenodd" d="M265.067 51.7498C265.067 51.7498 265.624 58.5601 266.278 66.7468L278.473 85.6676L278.515 85.131C279.34 74.0794 280.622 50.8066 280.622 50.8066L265.067 51.7498Z" fill="#203765"/>
</g>
<mask id="mask45_372_2632" style="mask-type:luminance" maskUnits="userSpaceOnUse" x="0" y="0" width="364" height="188">
<path d="M0 187.138H364V0.382812H0V187.138Z" fill="white"/>
</mask>
<g mask="url(#mask45_372_2632)">
<path fill-rule="evenodd" clip-rule="evenodd" d="M267.556 52.7543C267.556 52.7543 277.531 77.363 284.091 88.9275C290.651 100.493 292.7 103.72 292.7 103.72C292.7 103.72 296.458 102.241 296.8 101.232C296.8 101.232 294.292 78.9056 289.899 73.4636C287.416 70.3884 284.501 61.1589 284.364 57.9312C284.227 54.704 283.476 48.3164 283.476 48.3164L267.556 52.7543Z" fill="#26468E"/>
</g>
<mask id="mask46_372_2632" style="mask-type:luminance" maskUnits="userSpaceOnUse" x="0" y="0" width="364" height="188">
<path d="M0 187.138H364V0.382812H0V187.138Z" fill="white"/>
</mask>
<g mask="url(#mask46_372_2632)">
<path fill-rule="evenodd" clip-rule="evenodd" d="M237.012 39.5561C237.012 39.5561 234.434 38.9491 234 38.9796C233.566 39.0108 232.048 39.6644 232.029 39.7908C232.009 39.9171 232.08 40.0199 232.342 40.0385C232.605 40.0566 233.468 39.942 233.413 40.0497C233.358 40.1574 230.872 40.6604 230.845 41.1759C230.817 41.6907 232.18 42.6475 233.33 42.7116C234.481 42.7757 236.744 41.4 236.938 41.3825C238.583 41.2344 237.012 39.5561 237.012 39.5561Z" fill="#FFB37B"/>
</g>
<mask id="mask47_372_2632" style="mask-type:luminance" maskUnits="userSpaceOnUse" x="0" y="0" width="364" height="188">
<path d="M0 187.138H364V0.382812H0V187.138Z" fill="white"/>
</mask>
<g mask="url(#mask47_372_2632)">
<path fill-rule="evenodd" clip-rule="evenodd" d="M236.125 39.9548C235.742 38.7396 235.832 38.546 235.832 38.546C235.832 38.546 246.658 32.7174 247.649 32.1266C248.641 31.5352 259.829 19.6807 259.829 19.6807L271.289 22.8213C271.289 22.8213 253.554 36.272 251.013 37.7206C246.813 40.1135 237.087 41.4681 237.087 41.4681C237.087 41.4681 236.425 40.9085 236.125 39.9548Z" fill="#E5A000"/>
</g>
<mask id="mask48_372_2632" style="mask-type:luminance" maskUnits="userSpaceOnUse" x="0" y="0" width="364" height="188">
<path d="M0 187.138H364V0.382812H0V187.138Z" fill="white"/>
</mask>
<g mask="url(#mask48_372_2632)">
<path fill-rule="evenodd" clip-rule="evenodd" d="M263.2 13.7053C263.2 13.7053 259.175 20.6427 255.241 21.5484C255.241 21.5484 255.405 19.2184 256.363 17.6235C255.97 17.1703 255.626 16.7544 255.328 16.3815C254.338 15.1384 253.867 14.377 253.867 14.377L255.202 10.8611L256.108 8.47559C256.543 9.24937 257.023 9.90924 257.524 10.4739C260.102 13.3773 263.2 13.7047 263.2 13.7047" fill="#FFB37B"/>
</g>
<mask id="mask49_372_2632" style="mask-type:luminance" maskUnits="userSpaceOnUse" x="0" y="0" width="364" height="188">
<path d="M0 187.138H364V0.382812H0V187.138Z" fill="white"/>
</mask>
<g mask="url(#mask49_372_2632)">
<path fill-rule="evenodd" clip-rule="evenodd" d="M257.566 10.9658C257.566 10.9658 258.052 14.262 255.345 16.5678C254.343 15.3887 253.867 14.6672 253.867 14.6672L255.217 11.333C256.665 10.9284 257.566 10.9658 257.566 10.9658Z" fill="#FF9859"/>
</g>
<mask id="mask50_372_2632" style="mask-type:luminance" maskUnits="userSpaceOnUse" x="0" y="0" width="364" height="188">
<path d="M0 187.138H364V0.382812H0V187.138Z" fill="white"/>
</mask>
<g mask="url(#mask50_372_2632)">
<path fill-rule="evenodd" clip-rule="evenodd" d="M252.798 14.6693C252.798 14.6693 258.889 12.2851 257.351 8.49896C255.814 4.71344 255.565 1.85609 251.612 3.21815C247.659 4.58022 247.495 6.3326 247.701 7.72144C247.908 9.11027 251.174 15.1923 252.798 14.6693Z" fill="#FFB37B"/>
</g>
<mask id="mask51_372_2632" style="mask-type:luminance" maskUnits="userSpaceOnUse" x="0" y="0" width="364" height="188">
<path d="M0 187.138H364V0.382812H0V187.138Z" fill="white"/>
</mask>
<g mask="url(#mask51_372_2632)">
<path fill-rule="evenodd" clip-rule="evenodd" d="M283.862 50.5625C281.406 54.0878 263.054 58.7984 263.272 56.3581C263.356 55.4243 263.468 53.7772 263.27 51.5448C263.224 51.0219 263.159 50.4679 263.074 49.8821C262.608 46.6761 261.5 42.5532 259.03 37.781C258.845 37.423 258.653 37.0632 258.452 36.6978C257.436 34.8508 256.569 32.8973 255.908 30.9875C254.636 27.3171 254.124 23.8049 254.766 21.509C254.768 21.4978 254.772 21.4879 254.776 21.4767C258.612 19.705 260.098 12.833 260.098 12.833C260.098 12.833 273.187 15.1799 280.518 32.6066C280.518 32.6066 285.997 47.4941 283.862 50.5625Z" fill="#FFBE2E"/>
</g>
<mask id="mask52_372_2632" style="mask-type:luminance" maskUnits="userSpaceOnUse" x="0" y="0" width="364" height="188">
<path d="M0 187.138H364V0.382812H0V187.138Z" fill="white"/>
</mask>
<g mask="url(#mask52_372_2632)">
<path fill-rule="evenodd" clip-rule="evenodd" d="M262.907 51.4291C262.863 50.9124 262.801 50.3652 262.72 49.7862C262.273 46.6195 261.211 42.5464 258.844 37.8327C259.251 35.2959 259.812 33.1862 260.428 32.2369C262.929 28.3767 264.387 27.7734 264.387 27.7734C264.387 27.7734 268.139 44.0628 262.907 51.4291Z" fill="#E5A000"/>
</g>
<mask id="mask53_372_2632" style="mask-type:luminance" maskUnits="userSpaceOnUse" x="0" y="0" width="364" height="188">
<path d="M0 187.138H364V0.382812H0V187.138Z" fill="white"/>
</mask>
<g mask="url(#mask53_372_2632)">
<path fill-rule="evenodd" clip-rule="evenodd" d="M242.563 47.0713C242.563 47.0713 239.032 47.2643 238.484 47.4697C237.937 47.6751 236.217 49.1032 236.235 49.2756C236.255 49.4481 236.384 49.5545 236.728 49.4786C237.071 49.402 238.141 48.9245 238.109 49.0858C238.077 49.2464 235.058 50.8481 235.205 51.5285C235.353 52.2095 237.446 52.9354 238.95 52.5806C240.453 52.2257 242.875 49.5726 243.118 49.4754C245.182 48.6562 242.563 47.0713 242.563 47.0713Z" fill="#FFB37B"/>
</g>
<mask id="mask54_372_2632" style="mask-type:luminance" maskUnits="userSpaceOnUse" x="0" y="0" width="364" height="188">
<path d="M0 187.138H364V0.382812H0V187.138Z" fill="white"/>
</mask>
<g mask="url(#mask54_372_2632)">
<path fill-rule="evenodd" clip-rule="evenodd" d="M241.807 48.1975C241.081 47.044 241.605 46.518 241.605 46.518C241.605 46.518 252.8 37.8992 253.678 37.0283C254.555 36.1581 258.62 22.2934 258.62 22.2934C258.62 22.2934 260.019 16.682 263.295 16.0632C266.142 15.5254 268.11 16.9105 269.397 18.5346C270.932 20.4694 271.082 23.1381 269.809 25.2478C266.951 29.9839 261.185 39.3852 259.5 40.9913C255.753 44.5658 243.214 49.5615 243.214 49.5615C243.214 49.5615 242.378 49.1027 241.807 48.1975Z" fill="#FFBE2E"/>
</g>
<mask id="mask55_372_2632" style="mask-type:luminance" maskUnits="userSpaceOnUse" x="0" y="0" width="364" height="188">
<path d="M0 187.138H364V0.382812H0V187.138Z" fill="white"/>
</mask>
<g mask="url(#mask55_372_2632)">
<path fill-rule="evenodd" clip-rule="evenodd" d="M258.013 1.76293C258.056 1.68138 258.18 1.59423 258.482 1.50396C258.482 1.50396 258.199 1.41183 257.869 1.48218C257.698 1.07754 257.282 0.387793 256.502 0.382812C256.502 0.382812 256.95 0.495488 257.115 0.930004C256.046 0.272627 254.065 0.082137 249.119 1.67951C242.601 3.78487 245.857 7.4546 246.845 7.74905C247.833 8.04288 249.651 6.15479 251.288 5.89706C252.923 5.63934 253.808 7.84865 254.432 8.0323C255.055 8.21532 254.7 7.71294 255.354 7.20933C256.007 6.70509 256.381 7.89036 256.367 8.72204C256.353 9.55435 257.626 10.3431 257.626 10.3431L258.373 9.01463C259.119 7.68618 258.917 2.86416 258.203 1.99575L258.013 1.76293Z" fill="#0D458E"/>
</g>
<mask id="mask56_372_2632" style="mask-type:luminance" maskUnits="userSpaceOnUse" x="0" y="0" width="364" height="188">
<path d="M0 187.138H364V0.382812H0V187.138Z" fill="white"/>
</mask>
<g mask="url(#mask56_372_2632)">
<path fill-rule="evenodd" clip-rule="evenodd" d="M363.616 187.761H0.383911C0.172356 187.761 0 187.594 0 187.392V186.884C0 186.681 0.172978 186.516 0.383911 186.516H363.615C363.827 186.516 364 186.681 364 186.884V187.392C364 187.594 363.827 187.761 363.616 187.761Z" fill="#263252"/>
</g>
<mask id="mask57_372_2632" style="mask-type:luminance" maskUnits="userSpaceOnUse" x="0" y="0" width="364" height="188">
<path d="M0 187.138H364V0.382812H0V187.138Z" fill="white"/>
</mask>
<g mask="url(#mask57_372_2632)">
<path fill-rule="evenodd" clip-rule="evenodd" d="M156.178 173.442V180.913L138.756 173.442H156.178Z" fill="#1072C0"/>
</g>
<mask id="mask58_372_2632" style="mask-type:luminance" maskUnits="userSpaceOnUse" x="0" y="0" width="364" height="188">
<path d="M0 187.138H364V0.382812H0V187.138Z" fill="white"/>
</mask>
<g mask="url(#mask58_372_2632)">
<path fill-rule="evenodd" clip-rule="evenodd" d="M247.022 185.892H304.267V111.19H247.022V185.892Z" fill="#2776CF"/>
</g>
<mask id="mask59_372_2632" style="mask-type:luminance" maskUnits="userSpaceOnUse" x="0" y="0" width="364" height="188">
<path d="M0 187.138H364V0.382812H0V187.138Z" fill="white"/>
</mask>
<g mask="url(#mask59_372_2632)">
<path fill-rule="evenodd" clip-rule="evenodd" d="M228.978 185.892H286.222V111.19H228.978V185.892Z" fill="#469FF1"/>
</g>
<path fill-rule="evenodd" clip-rule="evenodd" d="M303.644 111.19V122.396L286.222 111.19H303.644Z" fill="#1072C0"/>
</g>
<defs>
<clipPath id="clip0_372_2632">
<rect width="364" height="188" fill="white"/>
</clipPath>
</defs>
</svg>
