<svg width="377" height="299" viewBox="0 0 377 299" fill="none" xmlns="http://www.w3.org/2000/svg">
<path d="M326.318 50.8696C328.87 60.3968 329.101 69.1813 327.01 77.2232C324.918 85.2651 321.071 92.4127 315.467 98.666C309.957 104.894 303.283 110.17 295.444 114.495L295.671 115.344C312.829 112.971 326.787 114.69 337.545 120.503C348.397 126.289 355.642 135.975 359.282 149.558C362.517 161.632 362.44 173.229 359.05 184.348C355.754 195.443 348.708 205.368 337.912 214.125C327.115 222.882 312.048 229.851 292.71 235.032C281.297 238.091 270.385 240.004 259.975 240.771C249.684 241.607 239.694 241.302 230.005 239.854L220.034 202.641C230.114 204.793 240.328 205.746 250.676 205.501C260.998 205.162 270.357 203.867 278.752 201.618C294.411 197.422 304.633 191.802 309.418 184.757C314.272 177.592 315.384 169.105 312.756 159.295C311.214 153.541 308.45 149.075 304.465 145.896C300.479 142.718 294.576 141.064 286.757 140.935C279.032 140.781 268.708 142.435 255.785 145.898L240.079 150.106L231.094 116.572L247.082 112.288C259.817 108.876 269.169 105.106 275.141 100.979C281.181 96.7318 284.824 92.217 286.07 87.4347C287.385 82.5327 287.322 77.3934 285.882 72.0167C283.91 64.659 280.105 59.5116 274.465 56.5743C268.825 53.6371 260.722 53.5839 250.158 56.4147C243.555 58.184 237.745 60.6506 232.729 63.8145C227.782 66.8587 223.455 70.1413 219.748 73.6622C216.015 77.0887 212.789 80.3291 210.069 83.3833L181.76 58.6668C188.305 50.6448 196.483 43.2467 206.295 36.4726C216.2 29.6732 228.7 24.2514 243.792 20.2074C265.111 14.4952 283.145 14.2628 297.897 19.5104C312.648 24.758 322.122 35.211 326.318 50.8696Z" fill="#F6F6F6"/>
<path d="M116.501 279.215L13.8384 137.176L58.9747 125.082L113.688 207.024C116.801 211.851 119.613 217.063 122.123 222.659C124.728 228.229 126.838 233.275 128.454 237.796L129.586 237.492C128.529 232.417 127.762 226.911 127.283 220.973C126.898 215.01 126.894 209.147 127.271 203.384L133.541 105.102L178.678 93.0077L160.788 267.348L116.501 279.215Z" fill="#F6F6F6"/>
</svg>
