<?xml version="1.0" encoding="utf-8"?>
<!-- Generator: Adobe Illustrator 24.0.3, SVG Export Plug-In . SVG Version: 6.00 Build 0)  -->
<svg version="1.1" id="Layer_1" xmlns="http://www.w3.org/2000/svg" xmlns:xlink="http://www.w3.org/1999/xlink" x="0px" y="0px"
	 viewBox="0 0 500 500" style="enable-background:new 0 0 500 500;" xml:space="preserve">
<style type="text/css">
	.st0{fill:#FAD980;}
	.st1{fill:#112E50;}
	.st2{fill:#FAD97F;}
</style>
<g>
	<path class="st0" d="M249.36,436.27c0,0,207.38-109.53,207.38-243.49c0-71.54-46.52-129.05-111.89-129.05
		c-39.09,0-73.7,20.34-94.85,52.6c-21.79-31.56-55.75-52.6-94.85-52.6c-65.37,0-111.89,57.51-111.89,129.05
		C41.99,326.74,249.36,436.27,249.36,436.27"/>
	<path class="st1" d="M249.36,443.05c-1.09,0-2.18-0.26-3.17-0.79c-0.53-0.28-53.11-28.24-104.76-72.35
		c-30.49-26.03-54.77-52.56-72.16-78.83c-22.06-33.34-33.09-66.43-32.79-98.37c0-36.58,11.74-70.58,33.04-95.68
		c21.95-25.85,52.36-40.09,85.63-40.09c36.49,0,70.55,17.31,94.73,47.83c10.32-13.46,23.14-24.68,37.48-32.76
		c17.5-9.86,37.38-15.08,57.48-15.08c33.27,0,63.68,14.24,85.63,40.09c21.31,25.1,33.04,59.1,33.04,95.74
		c0,31.92-11.29,65-33.54,98.33c-17.55,26.27-41.95,52.79-72.53,78.82c-51.81,44.1-104.39,72.06-104.92,72.34
		C251.54,442.79,250.45,443.05,249.36,443.05z M155.16,70.51c-59.92,0-105.1,52.56-105.1,122.27c-0.28,29.24,9.99,59.78,30.53,90.82
		c16.69,25.22,40.13,50.79,69.65,76c43.32,36.98,87.17,62.3,99.12,68.94c11.98-6.66,56.01-32.07,99.48-69.11
		c29.58-25.2,53.1-50.76,69.92-75.97c20.7-31.02,31.19-61.53,31.19-90.69c0-69.7-45.19-122.27-105.11-122.27
		c-18.03,0-35.13,4.48-50.82,13.33c-15.16,8.54-28.42,21.06-38.35,36.21c-1.24,1.89-3.33,3.04-5.59,3.06c-0.03,0-0.06,0-0.08,0
		c-2.23,0-4.31-1.09-5.58-2.93C222.63,88.62,190.09,70.51,155.16,70.51z"/>
	<g>
		<g>
			<path class="st1" d="M197.27,174.27c0,4.54-0.5,8.66-1.49,12.35c-0.99,3.69-2.51,6.84-4.56,9.45c-2.04,2.61-4.64,4.63-7.79,6.05
				c-3.15,1.42-6.88,2.13-11.2,2.13h-16.94v-60.28h16.94c4.31,0,8.05,0.71,11.2,2.13c3.15,1.42,5.75,3.45,7.79,6.09
				c2.04,2.64,3.56,5.82,4.56,9.54C196.77,165.43,197.27,169.62,197.27,174.27z M183.56,174.27c0-6.07-1.04-10.66-3.11-13.75
				c-2.07-3.09-4.76-4.64-8.05-4.64h-3.32v36.44h3.32c3.29,0,5.97-1.55,8.05-4.64C182.52,184.59,183.56,180.12,183.56,174.27z"/>
			<path class="st1" d="M231.24,204.25l-2.47-10.98h-13.54l-2.47,10.98h-13.62l14.64-60.28h17.11l14.56,60.28H231.24z
				 M222.21,157.08h-0.34l-5.11,25.63h10.3L222.21,157.08z"/>
			<path class="st1" d="M267.19,155.54v48.7h-13.37v-48.7h-11.07v-11.58h35.5v11.58H267.19z"/>
			<path class="st1" d="M307.69,204.25l-2.47-10.98h-13.54l-2.47,10.98h-13.62l14.64-60.28h17.11l14.56,60.28H307.69z
				 M298.66,157.08h-0.34l-5.11,25.63h10.3L298.66,157.08z"/>
		</g>
		<g>
			<path class="st1" d="M193.26,233.15c0,3.41-0.52,6.36-1.56,8.84c-1.04,2.48-2.43,4.54-4.16,6.15c-1.73,1.62-3.7,2.82-5.89,3.6
				c-2.2,0.78-4.42,1.17-6.67,1.17H169v22.36h-13.61v-61.36h19.07c2.19,0,4.41,0.32,6.63,0.95s4.25,1.69,6.07,3.16
				c1.82,1.47,3.29,3.45,4.42,5.94C192.7,226.45,193.26,229.51,193.26,233.15z M180.26,233.41c0-2.77-0.67-4.77-1.99-5.98
				c-1.33-1.21-2.95-1.82-4.85-1.82H169v16.03h4.42c1.91,0,3.52-0.71,4.85-2.12C179.6,238.11,180.26,236.07,180.26,233.41z"/>
			<path class="st1" d="M245.4,244.42c0,4.85-0.55,9.29-1.65,13.3c-1.1,4.02-2.66,7.44-4.68,10.27c-2.02,2.83-4.49,5.03-7.41,6.59
				c-2.92,1.56-6.2,2.34-9.84,2.34c-3.64,0-6.92-0.78-9.84-2.34c-2.92-1.56-5.39-3.76-7.41-6.59c-2.02-2.83-3.58-6.25-4.68-10.27
				c-1.1-4.02-1.65-8.45-1.65-13.3c0-4.85,0.53-9.26,1.6-13.22c1.07-3.96,2.61-7.34,4.64-10.14c2.02-2.8,4.49-4.97,7.41-6.5
				c2.92-1.53,6.23-2.3,9.92-2.3c3.64,0,6.92,0.77,9.84,2.3c2.92,1.53,5.39,3.7,7.41,6.5c2.02,2.8,3.58,6.18,4.68,10.14
				C244.85,235.16,245.4,239.57,245.4,244.42z M231.19,244.42c0-2.66-0.2-5.13-0.61-7.41c-0.4-2.28-1-4.26-1.78-5.94
				c-0.78-1.68-1.75-2.99-2.9-3.94c-1.16-0.95-2.51-1.43-4.07-1.43c-1.56,0-2.93,0.48-4.12,1.43c-1.18,0.95-2.17,2.27-2.95,3.94
				c-0.78,1.68-1.36,3.66-1.73,5.94c-0.38,2.28-0.56,4.75-0.56,7.41c0,2.66,0.19,5.14,0.56,7.45c0.38,2.31,0.95,4.3,1.73,5.98
				c0.78,1.68,1.76,3.01,2.95,3.99c1.18,0.98,2.56,1.47,4.12,1.47c1.56,0,2.92-0.49,4.07-1.47c1.15-0.98,2.12-2.31,2.9-3.99
				c0.78-1.68,1.37-3.67,1.78-5.98C230.99,249.56,231.19,247.08,231.19,244.42z"/>
			<path class="st1" d="M253.59,275.28v-61.36h13.95v61.36H253.59z"/>
			<path class="st1" d="M302.73,275.28l-14.21-37.36h-0.26l0.35,37.36h-12.39v-61.36h15.25l14.13,37.88h0.26l-0.26-37.88h11.96
				v61.36H302.73z"/>
			<path class="st1" d="M347.84,225.7v49.58h-13.61V225.7h-11.27v-11.79h36.14v11.79H347.84z"/>
		</g>
		<path class="st1" d="M164.62,303.97c-0.45,0-0.72,0.21-1.12,0.65c-0.74,0.82-1.92,1.3-3.16,1.3c-1.33,0-2.17-0.78-2.39-1.02
			c0.14-1.51,0.4-2.81,0.77-3.88c4.47-3.61,10.82-13.74,10.82-17.28c0-1.6-2.01-3.83-3.99-3.83c-5.19,0-10.68,11.79-12.66,23.14
			c-0.73,0.78-2.28,2.14-4.15,2.14c-0.08,0-0.15,0-0.22-0.01c1.47-2.01,2.33-4.44,2.33-6.58c0-3.69-2.56-6.27-6.23-6.27
			c-4.66,0-9.69,4.14-9.69,10.83c0,3.24,3.02,5.98,6.59,5.98c1.69,0,3.32-0.56,4.71-1.62c0.54,0.07,1.05,0.11,1.52,0.11
			c1.95,0,3.49-0.56,4.65-1.25c-0.19,1.67-0.29,3.31-0.29,4.87c0,5.67,4.1,7.16,6.27,7.16c2.83,0,4.4-2.96,4.4-5.01
			c0-2.71-1.3-4.49-1.99-5.24c1.47-0.14,2.85-0.81,4-1.96c0.36-0.36,0.76-0.82,0.76-1.27C165.56,304.45,165.09,303.97,164.62,303.97
			z M166.37,283.12c0.39,0,0.61,0.21,0.61,0.57c0,2.2-4.2,10.32-6.94,13.1C162.3,289.15,165.3,283.12,166.37,283.12z M157.44,307.74
			c0.72,0.91,2.26,3.17,2.26,5.8c0,1.26-0.36,2.61-1.14,2.61c-0.56,0-1.39-1.07-1.39-4.03
			C157.17,310.54,157.34,308.66,157.44,307.74z M144.55,303.24c-0.77,0-2.28,1.21-2.28,2.24c0,0.36,0.17,0.68,0.52,0.97
			c-0.28,0.17-0.55,0.25-0.85,0.25c-1.04,0-1.71-0.99-1.71-2.53c0-5.3,2.69-9.28,4.44-9.28c0.89,0,1.35,0.78,1.35,2.32
			c0,1.82-0.47,4.22-1.17,6.06C144.75,303.25,144.65,303.24,144.55,303.24z"/>
		<g>
			<path class="st1" d="M351.27,156.37c0.67,0,1.4-1.12,1.4-1.6c0-0.35-0.21-0.58-0.54-0.58h-2.31c0.18-0.49,0.35-0.94,0.51-1.34
				c0.47-1.22,0.69-1.81,0.69-2.08c0-0.87-2-2.58-3.29-2.58c-0.54,0-1.02,0.34-1.26,0.86c-0.64,1.13-1.37,2.82-2.24,5.15h-0.63
				c-0.7,0-1.4,1.1-1.4,1.6c0,0.35,0.21,0.58,0.54,0.58h0.75c-1.28,3.84-2.16,7.42-2.37,9.58c-0.67,0.93-2.17,2.73-3.64,2.73
				c-0.52,0-0.87-0.35-0.87-0.87c0-1.56,0.81-3.79,1.47-5.58c0.45-1.25,0.81-2.23,0.81-2.74c0-1.39-1.43-2.04-2.89-2.07
				c-0.3-0.42-1.54-1.85-4.4-1.85c-4.5,0-9.26,6.11-9.26,11.89c0,2.42,1.82,4.31,4.15,4.31c2.48,0,4.65-2.16,5.44-3.05
				c0.45,1.89,2.04,3.05,4.26,3.05c2.28,0,4.18-1.55,5.42-2.92c1,1.76,3.22,2.92,5.26,2.92c2.4,0,4.56-2.72,4.65-2.83
				c0.05-0.06,0.48-0.59,0.48-1.01c0-0.56-0.53-1.09-1.09-1.09c-0.47,0-0.81,0.41-0.99,0.63c-0.3,0.34-1.21,1.22-1.87,1.22
				c-0.96,0-1.74-0.81-1.74-1.82c0-2.18,0.88-5.61,2.68-10.49H351.27z M328.5,168.33c-0.45,0-0.91-0.18-0.91-1.54
				c0-3.23,2.7-8.49,4.84-8.49c0.74,0,1.19,0.55,1.19,1.46C333.61,162.64,330.22,168.33,328.5,168.33z"/>
			<path class="st1" d="M372.47,198.75c-0.48,0-0.96,0.55-1,0.6l-0.18,0.18c-0.6,0.59-1.72,1.68-3.74,1.68
				c-1.41,0-3.06-0.77-3.19-2.91c0.35,0.07,0.92,0.18,1.23,0.18c4.73,0,6.49-3.63,6.49-5.91c0-2.27-2.08-4.26-4.45-4.26
				c-3.45,0-8.45,3.89-8.45,9.99c0,0.05,0.01,0.09,0.01,0.14c-0.64,0.89-2.13,2.71-3.59,2.71c-0.63,0-1-0.46-1-1.23
				c0-1.54,0.67-3.18,1.32-4.77c0.59-1.44,1.14-2.79,1.14-3.96c0-1.4-1.38-2.88-2.69-2.88c-0.89,0-1.72,0.24-2.33,0.49
				c1.42-1.79,4.51-6,4.51-8.6c0-1.51-1.86-3.61-3.68-3.61c-6.32,0-11.08,13.83-12.37,21.75c-0.6,0.85-2.14,2.81-3.66,2.81
				c-1.02,0-1.81-0.78-1.81-1.77c0-2.13,0.86-5.49,2.62-10.27h2.22c0.66,0,1.38-1.1,1.38-1.57c0-0.35-0.21-0.57-0.53-0.57h-2.25
				c0.18-0.48,0.35-0.93,0.5-1.32c0.45-1.18,0.67-1.76,0.67-2.03c0-0.85-1.96-2.53-3.22-2.53c-0.53,0-1,0.33-1.23,0.85
				c-0.62,1.1-1.35,2.79-2.19,5.04h-0.61c-0.69,0-1.38,1.08-1.38,1.57c0,0.35,0.21,0.57,0.53,0.57h0.72
				c-1.44,4.35-2.37,8.35-2.37,10.27c0,2.75,3,4.8,5.68,4.8c1.83,0,3.41-1.03,4.59-2.14c0.16,1.55,2.49,2.14,3.98,2.14
				c0.61,0,0.92-0.33,0.92-0.99c0-6.68,2.92-11.34,5.54-11.34c0.29,0,0.62,0.1,0.62,0.89c0,0.55-0.34,1.37-0.74,2.31
				c-0.56,1.35-1.26,3.02-1.26,4.68c0,2.62,2.1,4.45,5.11,4.45c2.39,0,4.37-1.75,5.57-3.15c1.1,1.92,3.37,3.15,6.2,3.15
				c4.21,0,6.76-3.22,6.86-3.34c0.09-0.11,0.55-0.66,0.55-1.07C373.51,199.19,373.05,198.75,372.47,198.75z M369.1,191.25
				c0,1.4-1.95,4.76-4.54,4.95c0.15-2.04,2.22-5.5,4.07-5.5C368.94,190.71,369.1,190.89,369.1,191.25z M354.22,180.15
				c0,2-3.84,7.77-6.54,10.4c2.81-7.51,5.09-10.94,6.04-10.94C354.15,179.6,354.22,179.94,354.22,180.15z"/>
		</g>
		<g>
			<path class="st1" d="M203.97,342.39c-2.69,1.58-6.13,2.36-10.31,2.36c-3.55,0-6.77-0.79-9.67-2.36
				c-2.89-1.58-5.37-3.78-7.43-6.62c-2.06-2.84-3.67-6.21-4.81-10.14c-1.15-3.92-1.72-8.23-1.72-12.93c0-4.75,0.57-9.11,1.72-13.06
				c1.15-3.95,2.75-7.33,4.81-10.14c2.06-2.81,4.54-4.98,7.43-6.53c2.89-1.55,6.11-2.32,9.67-2.32c4.07,0,7.46,0.73,10.18,2.19
				c2.72,1.46,4.91,3.28,6.57,5.46l-7.39,9.97c-1.03-1.37-2.19-2.46-3.48-3.26c-1.29-0.8-2.91-1.2-4.85-1.2
				c-1.83,0-3.42,0.49-4.77,1.46c-1.35,0.97-2.49,2.31-3.44,4c-0.95,1.69-1.65,3.69-2.1,6.01c-0.46,2.32-0.69,4.8-0.69,7.43
				c0,2.63,0.23,5.1,0.69,7.39c0.46,2.29,1.16,4.3,2.1,6.01c0.95,1.72,2.1,3.06,3.48,4.04c1.37,0.97,2.98,1.46,4.81,1.46
				c1.83,0,3.44-0.46,4.81-1.37c1.37-0.92,2.46-2,3.26-3.26l7.65,9.54C208.84,338.86,206.67,340.82,203.97,342.39z"/>
			<path class="st1" d="M245.14,343.12l-2.49-11.08h-13.66l-2.49,11.08h-13.75l14.78-60.83h17.27l14.69,60.83H245.14z
				 M236.03,295.53h-0.34l-5.15,25.86h10.4L236.03,295.53z"/>
			<path class="st1" d="M290.8,343.12l-8.13-24.23h-4.03v24.23h-13.23v-60.83h19.46c5.89,0,10.46,1.53,13.72,4.6
				c3.26,3.06,4.89,7.63,4.89,13.7c0,2.23-0.26,4.24-0.77,6.01c-0.51,1.78-1.18,3.3-2.01,4.55c-0.83,1.26-1.76,2.29-2.78,3.09
				c-1.03,0.8-2.03,1.37-3,1.72l10.37,27.15H290.8z M289.98,301.37c0-1.55-0.21-2.81-0.64-3.78c-0.43-0.97-0.99-1.75-1.68-2.32
				c-0.69-0.57-1.45-0.96-2.28-1.16c-0.83-0.2-1.65-0.3-2.45-0.3h-4.3v15.38h4.04c1.95,0,3.65-0.62,5.11-1.85
				C289.25,306.11,289.98,304.12,289.98,301.37z"/>
			<path class="st1" d="M311.3,343.12v-60.83h29.38v12.11h-16.24v11.94h14.95v11.34h-14.95v13.06h17.27v12.37H311.3z"/>
		</g>
	</g>
	<g>
		<circle class="st1" cx="396.09" cy="317.83" r="39.57"/>
		<g>
			<path class="st2" d="M386.42,329.51l-1.15-4.95h-6.14l-1.19,4.95h-3.96l5.81-23.36h5.05l5.71,23.36H386.42z M382.3,309.88h-0.13
				l-2.54,11.58h5.15L382.3,309.88z"/>
			<path class="st2" d="M407.48,313.05c0,1.19-0.18,2.23-0.54,3.12s-0.84,1.63-1.43,2.23c-0.59,0.59-1.27,1.03-2.04,1.32
				c-0.77,0.29-1.56,0.43-2.37,0.43h-2.76v9.37h-3.89v-23.36h6.45c0.75,0,1.51,0.11,2.3,0.33c0.79,0.22,1.5,0.6,2.12,1.14
				c0.62,0.54,1.14,1.25,1.55,2.13C407.28,310.63,407.48,311.73,407.48,313.05z M403.75,313.1c0-1.25-0.3-2.16-0.89-2.73
				c-0.59-0.57-1.35-0.85-2.28-0.85h-2.24v7.39h2.24c0.92,0,1.68-0.32,2.28-0.97C403.45,315.29,403.75,314.34,403.75,313.1z"/>
			<path class="st2" d="M411.78,329.51v-23.36h3.96v23.36H411.78z"/>
		</g>
	</g>
</g>
</svg>
