<?xml version="1.0" encoding="utf-8"?>
<!-- Generator: Adobe Illustrator 24.0.3, SVG Export Plug-In . SVG Version: 6.00 Build 0)  -->
<svg version="1.1" id="Layer_1" xmlns="http://www.w3.org/2000/svg" xmlns:xlink="http://www.w3.org/1999/xlink" x="0px" y="0px"
	 viewBox="0 0 792 737.39" style="enable-background:new 0 0 792 737.39;" xml:space="preserve">
<style type="text/css">
	.st0{fill:#F7D996;}
	.st1{fill:none;stroke:#040504;stroke-miterlimit:10;}
	.st2{opacity:0.5;fill:#DC4826;}
	.st3{fill:#282F37;}
	.st4{fill:#F3AE91;}
	.st5{fill:#C4CED7;}
	.st6{fill:#FFFFFF;}
	.st7{fill:#C1CFDA;}
	.st8{fill:#19878C;}
	.st9{fill:#263034;}
	.st10{fill:none;stroke:#CFCFCE;stroke-miterlimit:10;}
	.st11{fill:#F4AD95;}
	.st12{fill:#F3AE94;}
	.st13{fill:#4E3628;}
	.st14{fill:#92A0D1;}
	.st15{fill:#3B3136;}
	.st16{fill:#65C4EB;}
	.st17{fill:#D0E8F0;}
	.st18{fill:#252D3C;}
	.st19{fill:url(#SVGID_1_);}
	.st20{fill:#FEFFFF;}
	.st21{fill:none;stroke:#070707;stroke-width:0.5;stroke-miterlimit:10;}
	.st22{fill:#D13843;}
	.st23{fill:#55BDE4;}
	.st24{fill:none;stroke:#55BDE4;stroke-miterlimit:10;}
	.st25{fill:#63A36A;}
	.st26{fill:none;stroke:#63A36A;stroke-miterlimit:10;}
	.st27{fill:none;stroke:#D13843;stroke-miterlimit:10;}
	.st28{fill:none;}
	.st29{fill:#010101;}
	.st30{font-family:'ArialMT';}
	.st31{font-size:2.6823px;}
	.st32{fill:#41C6EE;}
	.st33{fill:#B2E1ED;}
	.st34{fill:#F3BA47;}
	.st35{fill:#F15F64;}
	.st36{fill:none;stroke:#252D3C;stroke-width:4;stroke-miterlimit:10;}
	.st37{fill:#666766;}
</style>
<g>
	<path class="st0" d="M211.46,59.57c-24.3-1.15-71.74,12.8-91.57,22.04c-24.76,11.54-62.83,49.08-77.27,72.27
		c-12.45,19.99-20.11,78.44-18.77,101.95c1.33,23.21,8.3,64.57,15.12,85.07c16.82,50.51,65.23,144.65,100.24,187.88
		c20.5,25.32,77.18,72.24,106.33,86.8c33.29,16.62,110.75,34.24,145.2,32.64c32.16-1.49,103.6-9.65,155.17-30.12
		c36.93-14.66,64.24-19.95,96.1-34.85c48.58-22.71,73.16-60.79,73.16-60.79s21.41-28.4,21.41-66.24c0-37.69-33.33-82.6-49.93-96.71
		c-22.9-19.46-86.44-49.53-86.44-49.53l-125.75-54.84c0,0-55.34-24.44-67.97-35.64c-13.58-12.04-41.15-50.18-41.15-50.18
		s-52.01-66.72-75-82.47C273.49,75.31,231.86,60.54,211.46,59.57z"/>
	<path class="st1" d="M582.24,366.26c0,0-0.77,12.61-0.17,18.28c0.5,4.68,0,15.97,0,15.97"/>
	<path class="st2" d="M529.35,392.1c0,1.5-4.26,5.3-4.26,5.3s-11.48,0-17.27,0c-5.94,0-18.39-0.58-18.39-0.58s-3.14-3.26-3.14-4.72
		c0-2.93,9.64-5.3,21.53-5.3S529.35,389.17,529.35,392.1z"/>
	<path class="st2" d="M580.47,390.44c0,1.5-4.26,5.3-4.26,5.3s-11.48,0-17.27,0c-5.94,0-18.39-0.58-18.39-0.58s-3.14-3.26-3.14-4.72
		c0-2.93,9.64-5.3,21.53-5.3S580.47,387.52,580.47,390.44z"/>
	<rect x="725.98" y="484.47" class="st3" width="19.35" height="214.51"/>
	<g>
		<path class="st4" d="M498.52,245.69l2.96-16.1c0,0,10.9-9.98,16.57-11.83c2.08-0.68,22.21-9.48,35.21,2.37
			c2.82,2.57,13.4,8.73,15.81,10.96c6.15,5.68,7.57,19.05,7.57,19.05s8.59,1.04,4.74,10.22c-2.69,6.41-3.91,10.36-6.22,12.07
			c-1.9,1.41-7.47-0.08-7.47-0.08s-0.93,16.42-4.15,20.76c-4.48,6.04-25.92,12.6-25.92,12.6s-7.18,8.66-10.61,9.75
			c-9.78,3.11-13.77-0.77-17.18-3.26c-4.35-3.17-6.08-13.56-8.59-18.37c-3.5-6.71-2.21-19.23-2.21-19.23L498.52,245.69z"/>
		<path class="st5" d="M565.04,223.41c-4.39-4.95-9.59-8.11-12.55-9.55c-6.03-2.95-41.09-4.12-50.91,10.14
			c-0.95,1.38-1.78,5.13-2.05,6.38c-1.22,5.54-0.49,7.48-0.09,8.23c0.82,1.52,2.91-0.97,5.42-4.08c2.4-2.98,10.16-6.34,14.37-5.32
			c17.25,4.16,24.94,7.57,24.94,7.57l11.26,5.41l-0.23,15.43l2.82,7.21l6.31,1.24c0,0,0.95-5.16,1.3-6.9
			c0.42-2.09,1.88-5.39,3.45-6.84c3.93-3.63,11.55-0.85,11.55-0.85s1.35-4.74,0-8.39c-0.94-2.54-5.5-6.65-6.59-8.26
			C571.17,230.62,566.9,225.51,565.04,223.41z"/>
		<path class="st4" d="M544.47,340.16c0.19-0.13-10.95-11.69-10.95-11.69l4.02-25l26.91-19.04l3.94,38.77
			c-1.81,0.42-2.46,0.64-3.29,1.25C556.75,332.05,554.41,340.39,544.47,340.16z"/>
		<path class="st6" d="M528.64,397.34l-48.89-2.85c0,0,13.18-44.74,15.24-47.26c4.86-5.93,36.18-21.21,39.25-23.26
			c11.77,1.88,22.44,8.14,30.8,0.54c0.87-0.87,3.35-6.44,3.35-6.44s21.78,13.05,33.82,20.62c5.45,3.43,11.17,17.35,13.6,26.38
			c1.73,6.43,2.93,27.65,1.49,34.19C616.26,404.03,528.64,397.34,528.64,397.34z"/>
		<path class="st6" d="M527.15,269.51c10.82,6.49,17.31,15.14,30.29,15.14c6.45,1.61,3.09,9.06,2.92,10.74
			c-0.01,0.01-0.01,0.02-0.02,0.03c-4.32,5.83-22.85,11.8-22.85,11.8s-6.92,8.35-10.23,9.4c-9.42,3-14.37-2.34-17.67-4.73
			c-4.2-3.05-5.87-13.08-8.28-17.71c-3.38-6.47-3.16-16.61-3.16-16.61l-0.01-0.64C506.78,270.47,518.56,263.07,527.15,269.51z"/>
	</g>
	<path class="st7" d="M364.81,290.59L353,291.17l-29.98,10.24c0,0-33.36,13.37-44.15,16.72c-9.58,2.97-39.97,9-39.97,9l-1.49-147.76
		c0,0,10.64,7.63,12.72,11.34c5.28,9.44,7.68,42.6,7.68,42.6l1.46,39.64v8.43c10.78-0.77,25.9-1.84,32.77-2.46
		c10.24-0.92,41.13-4.25,41.13-4.25l24.94-1.56L364.81,290.59z"/>
	<path class="st8" d="M124.52,425.46l3.48,212.84c0,0,12.76,2.91,17.53,3.05c4.32,0.12,18.78-2.03,18.78-2.03l19.07-235.27l0.8,4.98
		l47.93,227.51c0,0,16.58,0.13,21.88-1.28c4.25-1.14,15.72-7.87,15.72-7.87s-18.13-120.71-23.17-161.63
		c-2.73-22.16-7.89-91.87-7.89-91.87l-59.4-2.72h-51.22L124.52,425.46z"/>
	<path class="st9" d="M130,636.99c0,0-2.53,10.97-2.74,14.94c-0.27,5,0.83,20.95,0.83,20.95h18.68l0.13-4.51
		c0,0,2.96-1.25,3.87-1.12c1.2,0.17,4.08,3.16,4.08,3.16l8.43,6.68l35.68-0.32c0,0,0.69-4.72,0-6.07c-1.07-2.08-5.96-3.81-8.01-4.97
		c-4.87-2.76-13.43-9.94-17.58-13.83c-4.24-3.98-15.61-18.15-15.61-18.15l-23.74-2.86L130,636.99z"/>
	<path class="st9" d="M236.45,631.78c0,0-2.53,10.97-2.74,14.94c-0.27,5,0.83,20.95,0.83,20.95h18.68l0.13-4.51
		c0,0,2.96-1.25,3.87-1.12c1.2,0.17,4.08,3.16,4.08,3.16l8.43,6.68l35.68-0.32c0,0,0.69-4.72,0-6.07c-1.07-2.08-5.96-3.81-8.01-4.97
		c-4.87-2.76-13.43-9.94-17.58-13.83c-4.24-3.98-15.61-18.15-15.61-18.15l-23.74-2.86L236.45,631.78z"/>
	<path class="st10" d="M232.61,240.03c0,0,7.63,1.75,9.9,5.87c2.44,4.43,1.69,12.96,1.69,12.96"/>
	<path class="st11" d="M203.02,153.61c-0.19-0.13-0.3-1.55-0.3-1.55l-4.02-25l-26.91-19.04l-3.94,38.77
		c1.81,0.42,2.46,0.64,3.29,1.25C179.48,155.63,191.25,155.48,203.02,153.61z"/>
	<path class="st12" d="M236.17,57.67c0,0-15.66-20.87-20.89-22.58c-1.92-0.63-20.5-0.39-32.49,10.53c-2.6,2.37-10,15.94-12.23,18
		c-5.67,5.24-6.98,17.57-6.98,17.57s-7.92,0.96-4.37,9.43c2.48,5.92,3.6,9.56,5.74,11.14c1.75,1.3,6.89-0.08,6.89-0.08
		s0.85,15.08,3.81,19.12c-0.49-4.87-0.23-9.51,2.8-10.27c12.42,0,18.63-8.28,28.98-14.49c8.22-6.16,19.49,0.93,27.75,7.1l0.46-26.05
		L236.17,57.67z"/>
	<path class="st13" d="M155.93,49.33c4.08-4.95,21.62-13.79,21.62-13.79s18.43-2.98,24.67-8.12c9.73-8,22-1.53,22-1.53l3.43,4.86
		c0,0,4.78,0.18,6.11,1.13c1.51,1.07,2.2,3.91,2.41,6c0.34,3.34-3.09,12.01-3.09,12.01s3.68,2.17,4.68,3.17
		c0.76,0.76,1.75,2.57,2,3.82c1.13,5.54,0.63,16.1-1.18,21.45c-0.63,1.86-3.11,7.84-3.11,7.84l-5.43-25.75
		c0,0-11.22,5.03-15.24,5.18c-6.04,0.23-23.42-6-23.42-6l-13.46,19.54l0.32,15.6l-10.4-14.28l-4.26,0.74l-4.06-7.48
		c0,0-4.39-9.37-5.08-13.57C153.63,55.14,154.2,51.43,155.93,49.33z"/>
	<path class="st6" d="M207.42,96.04c-10.35,6.21-16.56,14.49-28.98,14.49c-3.03,0.76-3.28,5.4-2.8,10.27
		c0.01,0.01,0.01,0.02,0.02,0.02c4.14,5.57,23.9,11.62,23.9,11.62s6.62,7.99,9.79,9c9.02,2.87,12.7-0.71,15.85-3.01
		c4.02-2.92,5.61-12.51,7.92-16.94c3.23-6.19,2.04-17.74,2.04-17.74l0.01-0.61C226.91,96.97,215.63,89.88,207.42,96.04z"/>
	<g>
		<g>
			<g>
				
					<ellipse transform="matrix(0.7236 -0.6902 0.6902 0.7236 -97.3775 242.5713)" class="st4" cx="254.18" cy="242.87" rx="5.36" ry="14.52"/>
				
					<ellipse transform="matrix(0.7236 -0.6902 0.6902 0.7236 -93.1125 246.2908)" class="st4" cx="260.95" cy="239.4" rx="5.36" ry="16.69"/>
				<path class="st4" d="M254.27,222.71c2.14-2.04,7.47,0.06,13.01,5.87s8.29,12.17,6.14,14.21c-2.14,2.04-8.37-1-13.9-6.81
					C253.97,230.18,252.12,224.76,254.27,222.71z"/>
				
					<ellipse transform="matrix(0.7236 -0.6902 0.6902 0.7236 -83.2811 246.3134)" class="st4" cx="265.9" cy="227.14" rx="3.24" ry="8.78"/>
				<path class="st4" d="M255.76,221.62c0.84-0.49,4.8-1.17,4.8-1.17l-4.63,11.12l-11.16,5.92l-0.63-5.13
					C244.15,232.36,251.59,224.07,255.76,221.62z"/>
			</g>
			<polygon class="st4" points="248.8,228.97 222.96,248.89 233.07,265.7 255.61,248.89 			"/>
		</g>
		<polygon class="st6" points="232.54,246.81 236.26,247.97 239.32,253.53 240.28,261.91 233.07,268.86 218.85,259.48 		"/>
	</g>
	<g>
		<path class="st6" d="M240.4,262.57l3.91-4.31l-0.72-8.81l-2.26-5.08l-4.87-3.56l3.83-5.06l-0.85-42.11c0,0,0.04-11.75-2.03-14.26
			c-4.86-5.93-31.33-23.72-34.4-25.77c-11.77,1.88-23.47,2.09-31.82-5.51c-0.87-0.87-3.35-1.31-3.35-1.31s-34.31,12.91-46.35,20.48
			c-5.45,3.43-19.57,15.75-22.01,24.79c-1.73,6.43-1.67,17.09-0.23,23.63c1.05,4.76,7.3,21.89,7.3,21.89s6.16,21.2,8.57,28.15
			c2.33,6.71,10.38,26.47,10.38,26.47l-0.98,133.26l56.86,3.09l8.71-25.84l5.65,27.01l47.92-2.3L240.4,262.57z"/>
		<polygon class="st14" points="168.4,146.79 198.7,233.31 203.65,153.5 		"/>
		<polygon class="st15" points="192.69,159.32 185.43,172.86 192.69,177.31 191.05,211.48 198.7,233.31 201.42,189.43 
			197.15,175.89 201.42,168.4 		"/>
		<path class="st10" d="M123.97,165.81c0,0,26.33,6.61,30.86,41c1.85,14.01,10.98,66.14,10.98,66.14"/>
		<line class="st10" x1="233.16" y1="239.76" x2="165.82" y2="272.95"/>
		<path class="st10" d="M244.62,258.62c0,0-59.61,48.89-71.87,57.07c-12.27,8.18-26.27,8.36-26.27,8.36"/>
		<path class="st10" d="M122.57,284.93c0,0,13.91,31.06,17.25,36.28c2.86,4.48,6.66,2.84,6.66,2.84"/>
	</g>
	<path class="st10" d="M244.31,258.26c0,0,0.31-9.91-2.58-13.28c-2.74-3.19-8.57-5.21-8.57-5.21"/>
	
		<rect x="131" y="348.08" transform="matrix(0.914 -0.4058 0.4058 0.914 -129.9041 89.3358)" class="st7" width="29.47" height="5.9"/>
	<rect x="359.97" y="400.98" class="st3" width="9.67" height="126.43"/>
	<path class="st16" d="M372.84,440.39c0,0,70.82-37.01,96.21-44.65c17.02-5.12,52.53-10.24,70.31-10.6
		c24.15-0.48,72.84,3.85,96.04,10.6c25.21,7.33,91,44.65,95.05,44.65C734.51,440.39,372.84,440.39,372.84,440.39z"/>
	<rect x="375.07" y="439.23" class="st17" width="350.91" height="57.72"/>
	<g>
		<rect x="355.72" y="484.47" class="st3" width="389.61" height="37.86"/>
		<rect x="355.72" y="580.84" class="st3" width="387.35" height="37.86"/>
		<rect x="355.72" y="630.8" class="st3" width="387.35" height="14.06"/>
		<rect x="360.29" y="400.98" class="st3" width="381.01" height="14.06"/>
		<rect x="355.72" y="484.47" class="st3" width="19.35" height="214.51"/>
		<rect x="731.63" y="400.98" class="st3" width="9.67" height="110"/>
	</g>
	<g>
		<path class="st18" d="M512.83,166.19H295.37V32.67c0-5.91,4.79-10.69,10.69-10.69h196.07c5.91,0,10.69,4.79,10.69,10.69V166.19z"
			/>
		<linearGradient id="SVGID_1_" gradientUnits="userSpaceOnUse" x1="306.5188" y1="94.5299" x2="501.8411" y2="94.5299">
			<stop  offset="0" style="stop-color:#95D7E5"/>
			<stop  offset="8.368902e-03" style="stop-color:#8DCDE1"/>
			<stop  offset="0.0405" style="stop-color:#71B2D6"/>
			<stop  offset="0.0769" style="stop-color:#5B9DCD"/>
			<stop  offset="0.1181" style="stop-color:#478DC6"/>
			<stop  offset="0.1661" style="stop-color:#3782C1"/>
			<stop  offset="0.2255" style="stop-color:#297ABE"/>
			<stop  offset="0.3089" style="stop-color:#1F76BC"/>
			<stop  offset="0.5404" style="stop-color:#1B75BC"/>
			<stop  offset="1" style="stop-color:#2B3990"/>
		</linearGradient>
		<rect x="306.52" y="33.57" class="st19" width="195.32" height="121.91"/>
		<rect x="320.34" y="48.04" class="st20" width="81.36" height="43.12"/>
		<line class="st21" x1="320.53" y1="69.74" x2="401.51" y2="69.74"/>
		<line class="st21" x1="320.53" y1="80.72" x2="401.51" y2="80.72"/>
		<line class="st21" x1="320.53" y1="58.76" x2="401.51" y2="58.76"/>
		<g>
			<circle class="st22" cx="382.76" cy="65.71" r="0.8"/>
			<circle class="st22" cx="327.24" cy="83.07" r="0.8"/>
			<circle class="st22" cx="338.34" cy="76.7" r="0.8"/>
			<circle class="st22" cx="360.55" cy="70.48" r="0.8"/>
			<circle class="st22" cx="371.65" cy="70.93" r="0.8"/>
			<circle class="st22" cx="393.86" cy="68.21" r="0.8"/>
			<circle class="st22" cx="349.45" cy="69.74" r="0.8"/>
		</g>
		<g>
			<circle class="st23" cx="327.24" cy="61.81" r="0.8"/>
			<circle class="st23" cx="337.88" cy="56.42" r="0.8"/>
			<circle class="st23" cx="361.02" cy="64.22" r="0.8"/>
			<circle class="st23" cx="371.65" cy="65.71" r="0.8"/>
			<circle class="st23" cx="393.86" cy="58.01" r="0.8"/>
			<circle class="st23" cx="349.45" cy="62.61" r="0.8"/>
			<circle class="st23" cx="382.76" cy="61.02" r="0.8"/>
		</g>
		<g>
			<line class="st24" x1="327.24" y1="61.81" x2="337.88" y2="56.42"/>
			<line class="st24" x1="349.45" y1="62.61" x2="337.88" y2="56.42"/>
			<line class="st24" x1="361.02" y1="64.22" x2="349.45" y2="62.61"/>
			<line class="st24" x1="371.65" y1="65.71" x2="361.02" y2="64.22"/>
			<line class="st24" x1="382.76" y1="61.02" x2="371.65" y2="65.71"/>
			<line class="st24" x1="393.86" y1="58.01" x2="382.76" y2="61.02"/>
		</g>
		<g>
			<g>
				<circle class="st25" cx="327.24" cy="79.13" r="0.8"/>
				<circle class="st25" cx="338.34" cy="84.52" r="0.8"/>
				<circle class="st25" cx="360.55" cy="78.29" r="0.8"/>
				<circle class="st25" cx="371.65" cy="75.23" r="0.8"/>
				<circle class="st25" cx="382.76" cy="74.43" r="0.8"/>
				<circle class="st25" cx="393.86" cy="76.03" r="0.8"/>
				<circle class="st25" cx="349.45" cy="82.93" r="0.8"/>
			</g>
			<g>
				<line class="st26" x1="327.24" y1="79.13" x2="338.34" y2="84.52"/>
				<line class="st26" x1="349.45" y1="82.93" x2="338.34" y2="84.52"/>
				<line class="st26" x1="360.55" y1="78.29" x2="349.45" y2="82.93"/>
				<line class="st26" x1="371.65" y1="75.23" x2="360.55" y2="78.29"/>
				<line class="st26" x1="382.76" y1="74.43" x2="371.65" y2="75.23"/>
				<line class="st26" x1="393.86" y1="76.03" x2="382.76" y2="74.43"/>
			</g>
		</g>
		<line class="st27" x1="327.24" y1="83.07" x2="338.34" y2="76.7"/>
		<line class="st27" x1="349.45" y1="69.74" x2="338.34" y2="76.7"/>
		<line class="st27" x1="360.55" y1="70.48" x2="349.45" y2="69.74"/>
		<line class="st27" x1="371.65" y1="70.93" x2="360.55" y2="70.48"/>
		<line class="st27" x1="382.76" y1="65.71" x2="371.65" y2="70.93"/>
		<line class="st27" x1="393.86" y1="68.21" x2="382.76" y2="65.71"/>
		<rect x="324.72" y="94.02" class="st28" width="7.25" height="2.53"/>
		<text transform="matrix(0.97 0 0 1 324.7178 95.9349)" class="st29 st30 st31">2018</text>
		<rect x="341.51" y="94.02" class="st28" width="7.25" height="2.53"/>
		<text transform="matrix(0.97 0 0 1 341.5137 95.9349)" class="st29 st30 st31">2019</text>
		<rect x="358.31" y="94.02" class="st28" width="7.25" height="2.53"/>
		<text transform="matrix(0.97 0 0 1 358.3096 95.9349)" class="st29 st30 st31">2020</text>
		<rect x="375.11" y="94.02" class="st28" width="7.25" height="2.53"/>
		<text transform="matrix(0.97 0 0 1 375.106 95.9349)" class="st29 st30 st31">2021</text>
		<rect x="391.9" y="94.02" class="st28" width="7.25" height="2.53"/>
		<text transform="matrix(0.97 0 0 1 391.9019 95.9349)" class="st29 st30 st31">2022</text>
		<rect x="410.63" y="47.25" class="st32" width="79.65" height="108.24"/>
		<path class="st33" d="M428.16,58.84h-9.69c-0.43,0-0.78-0.35-0.78-0.78v-1.69c0-0.43,0.35-0.78,0.78-0.78h9.69
			c0.43,0,0.78,0.35,0.78,0.78v1.69C428.94,58.49,428.59,58.84,428.16,58.84z"/>
		<path class="st33" d="M481.07,65.26h-62.61c-0.43,0-0.78-0.35-0.78-0.78V62.8c0-0.43,0.35-0.78,0.78-0.78h62.61
			c0.43,0,0.78,0.35,0.78,0.78v1.69C481.85,64.91,481.5,65.26,481.07,65.26z"/>
		<path class="st33" d="M481.07,70h-62.61c-0.43,0-0.78-0.35-0.78-0.78v-1.69c0-0.43,0.35-0.78,0.78-0.78h62.61
			c0.43,0,0.78,0.35,0.78,0.78v1.69C481.85,69.65,481.5,70,481.07,70z"/>
		<path class="st33" d="M481.07,74.74h-62.61c-0.43,0-0.78-0.35-0.78-0.78v-1.69c0-0.43,0.35-0.78,0.78-0.78h62.61
			c0.43,0,0.78,0.35,0.78,0.78v1.69C481.85,74.39,481.5,74.74,481.07,74.74z"/>
		<path class="st33" d="M428.84,89.72h-9.69c-0.43,0-0.78-0.35-0.78-0.78v-1.69c0-0.43,0.35-0.78,0.78-0.78h9.69
			c0.43,0,0.78,0.35,0.78,0.78v1.69C429.62,89.37,429.27,89.72,428.84,89.72z"/>
		<path class="st33" d="M481.76,96.15h-62.61c-0.43,0-0.78-0.35-0.78-0.78v-1.69c0-0.43,0.35-0.78,0.78-0.78h62.61
			c0.43,0,0.78,0.35,0.78,0.78v1.69C482.54,95.8,482.19,96.15,481.76,96.15z"/>
		<path class="st33" d="M481.76,100.89h-62.61c-0.43,0-0.78-0.35-0.78-0.78v-1.69c0-0.43,0.35-0.78,0.78-0.78h62.61
			c0.43,0,0.78,0.35,0.78,0.78v1.69C482.54,100.54,482.19,100.89,481.76,100.89z"/>
		<path class="st33" d="M481.76,105.63h-62.61c-0.43,0-0.78-0.35-0.78-0.78v-1.69c0-0.43,0.35-0.78,0.78-0.78h62.61
			c0.43,0,0.78,0.35,0.78,0.78v1.69C482.54,105.28,482.19,105.63,481.76,105.63z"/>
		<path class="st33" d="M428.84,116.63h-9.69c-0.43,0-0.78-0.35-0.78-0.78v-1.69c0-0.43,0.35-0.78,0.78-0.78h9.69
			c0.43,0,0.78,0.35,0.78,0.78v1.69C429.62,116.28,429.27,116.63,428.84,116.63z"/>
		<path class="st33" d="M481.76,123.05h-62.61c-0.43,0-0.78-0.35-0.78-0.78v-1.69c0-0.43,0.35-0.78,0.78-0.78h62.61
			c0.43,0,0.78,0.35,0.78,0.78v1.69C482.54,122.7,482.19,123.05,481.76,123.05z"/>
		<path class="st33" d="M481.76,127.79h-62.61c-0.43,0-0.78-0.35-0.78-0.78v-1.69c0-0.43,0.35-0.78,0.78-0.78h62.61
			c0.43,0,0.78,0.35,0.78,0.78v1.69C482.54,127.44,482.19,127.79,481.76,127.79z"/>
		<path class="st33" d="M481.76,132.53h-62.61c-0.43,0-0.78-0.35-0.78-0.78v-1.69c0-0.43,0.35-0.78,0.78-0.78h62.61
			c0.43,0,0.78,0.35,0.78,0.78v1.69C482.54,132.18,482.19,132.53,481.76,132.53z"/>
		<g>
			<rect x="327.52" y="127.98" class="st34" width="4.97" height="21.46"/>
			<rect x="322.55" y="122.43" class="st35" width="4.97" height="27.01"/>
			<rect x="341.08" y="106.7" class="st34" width="4.97" height="42.57"/>
			<rect x="336.1" y="111.73" class="st35" width="4.97" height="37.53"/>
			<rect x="355.5" y="118.63" class="st34" width="4.97" height="30.63"/>
			<rect x="350.53" y="122.25" class="st35" width="4.97" height="27.01"/>
		</g>
		<path class="st33" d="M428.84,144.3h-9.69c-0.43,0-0.78-0.35-0.78-0.78v-1.69c0-0.43,0.35-0.78,0.78-0.78h9.69
			c0.43,0,0.78,0.35,0.78,0.78v1.69C429.62,143.95,429.27,144.3,428.84,144.3z"/>
		<path class="st33" d="M481.76,150.73h-62.61c-0.43,0-0.78-0.35-0.78-0.78v-1.69c0-0.43,0.35-0.78,0.78-0.78h62.61
			c0.43,0,0.78,0.35,0.78,0.78v1.69C482.54,150.38,482.19,150.73,481.76,150.73z"/>
		<path class="st33" d="M481.76,155.47h-62.61c-0.43,0-0.78-0.35-0.78-0.78V153c0-0.43,0.35-0.78,0.78-0.78h62.61
			c0.43,0,0.78,0.35,0.78,0.78v1.69C482.54,155.12,482.19,155.47,481.76,155.47z"/>
	</g>
	<path class="st36" d="M373.74,244.12c16.6,1.09,44.73-39.03,35.43-78.12"/>
	<g>
		<path class="st37" d="M353.86,332l-45.56-8.36c-2.88-0.53-4.81-3.32-4.28-6.21l18.7-101.93c0.53-2.88,3.32-4.81,6.21-4.28
			l45.56,8.36c2.88,0.53,4.81,3.32,4.28,6.21l-18.7,101.93C359.53,330.6,356.74,332.52,353.86,332z"/>
		<g>
			<ellipse class="st4" cx="360.45" cy="269.88" rx="14.52" ry="5.36"/>
			<ellipse class="st4" cx="358.28" cy="277.17" rx="16.69" ry="5.36"/>
			<path class="st4" d="M374.98,283.85c0,2.96-5.2,5.36-13.22,5.36s-14.52-2.4-14.52-5.36c0-2.96,6.5-5.36,14.52-5.36
				S374.98,280.89,374.98,283.85z"/>
			<ellipse class="st4" cx="363.75" cy="289.22" rx="8.78" ry="3.24"/>
			<path class="st4" d="M374.74,285.7c-0.22,0.95-2.47,4.28-2.47,4.28l-4.85-11.03l3.42-12.16l4.14,3.09
				C374.98,269.88,375.84,280.99,374.74,285.7z"/>
		</g>
	</g>
</g>
</svg>
