<svg width="276" height="257" viewBox="0 0 276 257" fill="none" xmlns="http://www.w3.org/2000/svg">
<g clip-path="url(#clip0_280_7487)">
<path d="M79.2141 25.9129C70.7459 25.5121 54.2138 30.3741 47.3034 33.5945C38.6749 37.6165 25.4081 50.7001 20.3759 58.7825C16.0373 65.7495 13.3679 86.1209 13.8349 94.3148C14.2984 102.404 16.7273 116.819 19.104 123.964C24.9655 141.568 41.8356 174.378 54.0361 189.445C61.18 198.27 80.9321 214.623 91.0905 219.697C102.692 225.49 129.685 231.631 141.69 231.073C152.898 230.554 177.794 227.71 195.765 220.575C208.634 215.466 218.152 213.622 229.254 208.429C246.184 200.514 254.749 187.242 254.749 187.242C254.749 187.242 262.21 177.344 262.21 164.156C262.21 151.02 250.595 135.368 244.811 130.45C236.83 123.668 214.688 113.187 214.688 113.187L170.866 94.0743C170.866 94.0743 151.58 85.5563 147.179 81.6528C142.447 77.4565 132.839 64.1637 132.839 64.1637C132.839 64.1637 114.714 40.91 106.703 35.4207C100.834 31.3987 86.3232 26.251 79.2141 25.9129Z" fill="#F5E6AF"/>
<path d="M79.4093 196.663H262.096" stroke="#FEFFFF" stroke-width="0.5" stroke-miterlimit="10"/>
<path d="M57.1725 208.405H242.563" stroke="#FEFFFF" stroke-width="0.5" stroke-miterlimit="10"/>
<path d="M221.595 197.001C222.599 197.001 223.414 196.299 223.414 195.433C223.414 194.567 222.599 193.864 221.595 193.864C220.59 193.864 219.776 194.567 219.776 195.433C219.776 196.299 220.59 197.001 221.595 197.001Z" fill="#FEFFFF"/>
<path d="M48.1851 232.826C49.1897 232.826 50.0041 232.124 50.0041 231.258C50.0041 230.392 49.1897 229.689 48.1851 229.689C47.1804 229.689 46.366 230.392 46.366 231.258C46.366 232.124 47.1804 232.826 48.1851 232.826Z" fill="#FEFFFF"/>
<path d="M119.91 200.211C120.915 200.211 121.729 199.509 121.729 198.643C121.729 197.777 120.915 197.074 119.91 197.074C118.905 197.074 118.091 197.777 118.091 198.643C118.091 199.509 118.905 200.211 119.91 200.211Z" fill="#FEFFFF"/>
<path d="M170.754 206.415C171.759 206.415 172.573 205.713 172.573 204.846C172.573 203.98 171.759 203.278 170.754 203.278C169.749 203.278 168.935 203.98 168.935 204.846C168.935 205.713 169.749 206.415 170.754 206.415Z" fill="#FEFFFF"/>
<path d="M196.173 207.297C197.177 207.297 197.992 206.594 197.992 205.728C197.992 204.862 197.177 204.16 196.173 204.16C195.168 204.16 194.354 204.862 194.354 205.728C194.354 206.594 195.168 207.297 196.173 207.297Z" fill="#FEFFFF"/>
<path d="M247.017 201.94C248.021 201.94 248.836 201.238 248.836 200.371C248.836 199.505 248.021 198.803 247.017 198.803C246.012 198.803 245.198 199.505 245.198 200.371C245.198 201.238 246.012 201.94 247.017 201.94Z" fill="#FEFFFF"/>
<path d="M145.332 204.958C146.337 204.958 147.151 204.256 147.151 203.39C147.151 202.523 146.337 201.821 145.332 201.821C144.327 201.821 143.513 202.523 143.513 203.39C143.513 204.256 144.327 204.958 145.332 204.958Z" fill="#FEFFFF"/>
<path d="M94.4882 189.306C95.4928 189.306 96.3072 188.603 96.3072 187.737C96.3072 186.871 95.4928 186.169 94.4882 186.169C93.4835 186.169 92.6691 186.871 92.6691 187.737C92.6691 188.603 93.4835 189.306 94.4882 189.306Z" fill="#FEFFFF"/>
<path d="M118.858 178.669C119.862 178.669 120.677 177.966 120.677 177.1C120.677 176.234 119.862 175.532 118.858 175.532C117.853 175.532 117.039 176.234 117.039 177.1C117.039 177.966 117.853 178.669 118.858 178.669Z" fill="#FEFFFF"/>
<path d="M171.831 194.07C172.836 194.07 173.65 193.368 173.65 192.502C173.65 191.635 172.836 190.933 171.831 190.933C170.826 190.933 170.012 191.635 170.012 192.502C170.012 193.368 170.826 194.07 171.831 194.07Z" fill="#FEFFFF"/>
<path d="M196.173 197.001C197.177 197.001 197.992 196.299 197.992 195.433C197.992 194.567 197.177 193.864 196.173 193.864C195.168 193.864 194.354 194.567 194.354 195.433C194.354 196.299 195.168 197.001 196.173 197.001Z" fill="#FEFFFF"/>
<path d="M247.016 181.809C248.021 181.809 248.836 181.107 248.836 180.241C248.836 179.374 248.021 178.672 247.016 178.672C246.012 178.672 245.197 179.374 245.197 180.241C245.197 181.107 246.012 181.809 247.016 181.809Z" fill="#FEFFFF"/>
<path d="M145.332 190.878C146.337 190.878 147.151 190.175 147.151 189.309C147.151 188.443 146.337 187.741 145.332 187.741C144.327 187.741 143.513 188.443 143.513 189.309C143.513 190.175 144.327 190.878 145.332 190.878Z" fill="#FEFFFF"/>
<path d="M221.594 187.737C222.599 187.737 223.414 187.035 223.414 186.169C223.414 185.303 222.599 184.601 221.594 184.601C220.59 184.601 219.775 185.303 219.775 186.169C219.775 187.035 220.59 187.737 221.594 187.737Z" fill="#FEFFFF"/>
<path d="M94.4882 187.737L118.858 177.1" stroke="#FEFFFF" stroke-miterlimit="10"/>
<path d="M145.332 189.309L118.858 177.1" stroke="#FEFFFF" stroke-miterlimit="10"/>
<path d="M171.831 192.502L145.332 189.309" stroke="#FEFFFF" stroke-miterlimit="10"/>
<path d="M196.173 195.433L171.831 192.502" stroke="#FEFFFF" stroke-miterlimit="10"/>
<path d="M221.595 186.169L196.173 195.433" stroke="#FEFFFF" stroke-miterlimit="10"/>
<path d="M247.016 180.24L221.594 186.169" stroke="#FEFFFF" stroke-miterlimit="10"/>
<path d="M48.1851 225.054C49.1897 225.054 50.0041 224.352 50.0041 223.486C50.0041 222.619 49.1897 221.917 48.1851 221.917C47.1804 221.917 46.366 222.619 46.366 223.486C46.366 224.352 47.1804 225.054 48.1851 225.054Z" fill="#FEFFFF"/>
<path d="M73.6035 235.695C74.6082 235.695 75.4226 234.992 75.4226 234.126C75.4226 233.26 74.6082 232.558 73.6035 232.558C72.5989 232.558 71.7844 233.26 71.7844 234.126C71.7844 234.992 72.5989 235.695 73.6035 235.695Z" fill="#FEFFFF"/>
<path d="M124.447 223.406C125.452 223.406 126.267 222.703 126.267 221.837C126.267 220.971 125.452 220.269 124.447 220.269C123.443 220.269 122.628 220.971 122.628 221.837C122.628 222.703 123.443 223.406 124.447 223.406Z" fill="#FEFFFF"/>
<path d="M149.866 217.362C150.871 217.362 151.685 216.66 151.685 215.794C151.685 214.927 150.871 214.225 149.866 214.225C148.861 214.225 148.047 214.927 148.047 215.794C148.047 216.66 148.861 217.362 149.866 217.362Z" fill="#FEFFFF"/>
<path d="M175.288 215.79C176.293 215.79 177.107 215.088 177.107 214.222C177.107 213.356 176.293 212.653 175.288 212.653C174.283 212.653 173.469 213.356 173.469 214.222C173.469 215.088 174.283 215.79 175.288 215.79Z" fill="#FEFFFF"/>
<path d="M200.71 218.93C201.715 218.93 202.529 218.228 202.529 217.362C202.529 216.496 201.715 215.794 200.71 215.794C199.705 215.794 198.891 216.496 198.891 217.362C198.891 218.228 199.705 218.93 200.71 218.93Z" fill="#FEFFFF"/>
<path d="M99.0255 232.554C100.03 232.554 100.845 231.852 100.845 230.986C100.845 230.12 100.03 229.418 99.0255 229.418C98.0209 229.418 97.2064 230.12 97.2064 230.986C97.2064 231.852 98.0209 232.554 99.0255 232.554Z" fill="#FEFFFF"/>
<path d="M48.1851 223.486L73.6035 234.126" stroke="#FEFFFF" stroke-miterlimit="10"/>
<path d="M99.0255 230.986L73.6035 234.126" stroke="#FEFFFF" stroke-miterlimit="10"/>
<path d="M124.447 221.837L99.0255 230.986" stroke="#FEFFFF" stroke-miterlimit="10"/>
<path d="M149.866 215.794L124.448 221.837" stroke="#FEFFFF" stroke-miterlimit="10"/>
<path d="M175.288 214.222L149.866 215.794" stroke="#FEFFFF" stroke-miterlimit="10"/>
<path d="M200.71 217.362L175.288 214.222" stroke="#FEFFFF" stroke-miterlimit="10"/>
<path d="M91.7039 207.297L119.91 198.643" stroke="#FEFFFF" stroke-miterlimit="10"/>
<path d="M145.332 203.39L119.91 198.643" stroke="#FEFFFF" stroke-miterlimit="10"/>
<path d="M170.754 204.846L145.332 203.39" stroke="#FEFFFF" stroke-miterlimit="10"/>
<path d="M196.173 205.728L170.754 204.846" stroke="#FEFFFF" stroke-miterlimit="10"/>
<path d="M221.595 195.433L196.173 205.728" stroke="#FEFFFF" stroke-miterlimit="10"/>
<path d="M247.017 200.371L221.595 195.433" stroke="#FEFFFF" stroke-miterlimit="10"/>
<path opacity="0.4" d="M100.259 67.886C106.909 67.886 112.299 62.4948 112.299 55.8444C112.299 49.194 106.909 43.8028 100.259 43.8028C93.6096 43.8028 88.219 49.194 88.219 55.8444C88.219 62.4948 93.6096 67.886 100.259 67.886Z" stroke="white" stroke-miterlimit="10"/>
<path opacity="0.4" d="M88.4037 47.8213L90.1496 48.9715" stroke="#FDFEFE" stroke-width="5" stroke-miterlimit="10"/>
<g opacity="0.4">
<path d="M98.447 40.1851H102.068" stroke="#FDFEFE" stroke-width="5" stroke-miterlimit="10"/>
<path d="M100.235 43.639V40.3907" stroke="#FDFEFE" stroke-width="5" stroke-miterlimit="10"/>
</g>
<path opacity="0.4" d="M100.677 58.9079C101.572 58.9079 102.298 58.1823 102.298 57.2873C102.298 56.3922 101.572 55.6666 100.677 55.6666C99.7824 55.6666 99.0569 56.3922 99.0569 57.2873C99.0569 58.1823 99.7824 58.9079 100.677 58.9079Z" fill="#FCFAFB"/>
<path opacity="0.4" d="M105.466 52.5055L101.799 56.2103" stroke="#FDFEFE" stroke-width="5" stroke-miterlimit="10"/>
<path opacity="0.4" d="M100.259 65.7948C105.754 65.7948 110.208 61.3399 110.208 55.8444C110.208 50.3489 105.754 45.894 100.259 45.894C94.7644 45.894 90.3099 50.3489 90.3099 55.8444C90.3099 61.3399 94.7644 65.7948 100.259 65.7948Z" stroke="white" stroke-miterlimit="10"/>
<path opacity="0.3" d="M9.1947 24.957L9.1947 32.3179L123.191 32.3179L123.191 24.957L9.1947 24.957Z" fill="#FCFAFB"/>
<path opacity="0.65" d="M9.83691 75.7505V83.1114H111.117V75.7505H9.83691Z" fill="#FCFAFB"/>
<path opacity="0.9" d="M9.83728 63.0537V70.4146H83.3293V63.0537L9.83728 63.0537Z" fill="#FCFAFB"/>
<path opacity="0.3" d="M9.83899 50.3546L9.83899 57.7155L79.8357 57.7155L79.8357 50.3546L9.83899 50.3546Z" fill="#FCFAFB"/>
<path opacity="0.6" d="M30.2374 37.6554L30.2374 45.0163L86.225 45.0163L86.225 37.6554L30.2374 37.6554Z" fill="#FCFAFB"/>
<path opacity="0.3" d="M2.8479 87.5866L2.8479 94.9475L116.844 94.9475L116.844 87.5866L2.8479 87.5866Z" fill="#FCFAFB"/>
<path opacity="0.25" d="M75.1507 158.499L66.2226 161.051L59.5491 154.596L61.8038 145.586L70.732 143.035L77.4054 149.49L75.1507 158.499Z" stroke="#FDFEFE" stroke-miterlimit="10"/>
<path opacity="0.5" d="M79.6218 174.148L70.6936 176.699L64.0201 170.241L66.2748 161.232L75.203 158.681L81.8765 165.139L79.6218 174.148Z" fill="#FCFAFC" stroke="#FDFEFE" stroke-miterlimit="10"/>
<path opacity="0.45" d="M68.3623 185.73L59.4341 188.281L52.7606 181.826L55.0153 172.817L63.94 170.266L70.617 176.72L68.3623 185.73Z" stroke="#FDFEFE" stroke-miterlimit="10"/>
<path opacity="0.5" d="M90.9371 162.424L82.0089 164.979L75.3354 158.52L77.5901 149.511L86.5183 146.96L93.1918 153.418L90.9371 162.424Z" stroke="#FDFEFE" stroke-miterlimit="10"/>
<path opacity="0.9" d="M48.3418 166.359L39.4136 168.913L32.7401 162.455L34.9948 153.446L43.923 150.895L50.5965 157.353L48.3418 166.359Z" stroke="#FDFEFE" stroke-miterlimit="10"/>
<path opacity="0.3" d="M32.9736 161.765L24.0454 164.32L17.3719 157.862L19.6232 148.852L28.5513 146.301L35.2248 152.759L32.9736 161.765Z" stroke="#FDFEFE" stroke-miterlimit="10"/>
<path opacity="0.85" d="M63.94 170.266L55.0153 172.817L48.3384 166.359L50.5931 157.353L59.5213 154.798L66.1947 161.256L63.94 170.266Z" stroke="#FDFEFE" stroke-miterlimit="10"/>
<path opacity="0.25" d="M257.189 136.337L251.927 137.842L247.996 134.036L249.323 128.728L254.582 127.226L258.516 131.029L257.189 136.337Z" stroke="#FDFEFE" stroke-miterlimit="10"/>
<path opacity="0.5" d="M259.792 146.144L254.53 147.65L250.599 143.844L251.927 138.539L257.189 137.034L261.12 140.84L259.792 146.144Z" stroke="#FDFEFE" stroke-miterlimit="10"/>
<path opacity="0.45" d="M253.157 152.968L247.898 154.474L243.964 150.668L245.292 145.363L250.554 143.858L254.485 147.664L253.157 152.968Z" stroke="#FDFEFE" stroke-miterlimit="10"/>
<path opacity="0.5" d="M266.357 138.992L261.095 140.495L257.164 136.692L258.492 131.384L263.751 129.882L267.685 133.684L266.357 138.992Z" stroke="#FDFEFE" stroke-miterlimit="10"/>
<path opacity="0.9" d="M241.012 141.209L235.754 142.711L231.823 138.909L233.15 133.601L238.409 132.099L242.34 135.901L241.012 141.209Z" stroke="#FDFEFE" stroke-miterlimit="10"/>
<path opacity="0.3" d="M232.307 138.504L227.048 140.007L223.117 136.204L224.445 130.896L229.704 129.39L233.635 133.196L232.307 138.504Z" stroke="#FDFEFE" stroke-miterlimit="10"/>
<path opacity="0.5" d="M250.554 143.509L245.292 145.015L241.361 141.209L242.688 135.901L247.95 134.399L251.881 138.201L250.554 143.509Z" fill="#FCFAFC" stroke="#FDFEFE" stroke-miterlimit="10"/>
<path opacity="0.25" d="M68.181 185.434L59.2528 187.985L52.5793 181.527L54.834 172.521L63.7622 169.966L70.4357 176.424L68.181 185.434Z" stroke="#FDFEFE" stroke-miterlimit="10"/>
<path opacity="0.5" d="M72.5998 200.898L63.6717 203.449L56.9982 196.994L59.2529 187.985L68.181 185.434L74.8545 191.888L72.5998 200.898Z" stroke="#FDFEFE" stroke-miterlimit="10"/>
<path opacity="0.45" d="M61.3403 212.483L52.4121 215.034L45.7386 208.576L47.9899 199.566L56.918 197.015L63.5915 203.473L61.3403 212.483Z" stroke="#FDFEFE" stroke-miterlimit="10"/>
<path opacity="0.5" d="M84.0581 189.661L75.1299 192.212L68.4564 185.758L70.7076 176.748L79.6358 174.197L86.3093 180.652L84.0581 189.661Z" stroke="#FDFEFE" stroke-miterlimit="10"/>
<path opacity="0.9" d="M41.3198 193.112L32.3916 195.663L25.7181 189.205L27.9728 180.199L36.901 177.644L43.5745 184.102L41.3198 193.112Z" stroke="#FDFEFE" stroke-miterlimit="10"/>
<path opacity="0.3" d="M25.9482 188.518L17.0235 191.069L10.3466 184.611L12.6013 175.605L21.5294 173.05L28.2029 179.509L25.9482 188.518Z" stroke="#FDFEFE" stroke-miterlimit="10"/>
<path opacity="0.3" d="M56.9181 197.015L47.9899 199.566L41.3164 193.112L43.5711 184.102L52.4993 181.551L59.1728 188.006L56.9181 197.015Z" fill="#FCFAFC" stroke="#FDFEFE" stroke-miterlimit="10"/>
<path opacity="0.25" d="M79.6776 165.505C81.658 165.505 83.2635 163.899 83.2635 161.918C83.2635 159.938 81.658 158.332 79.6776 158.332C77.6971 158.332 76.0917 159.938 76.0917 161.918C76.0917 163.899 77.6971 165.505 79.6776 165.505Z" stroke="#FDFEFE" stroke-miterlimit="10"/>
<path opacity="0.25" d="M96.3526 169.481C101.934 169.481 106.459 164.956 106.459 159.374C106.459 153.792 101.934 149.267 96.3526 149.267C90.7712 149.267 86.2466 153.792 86.2466 159.374C86.2466 164.956 90.7712 169.481 96.3526 169.481Z" stroke="#FDFEFE" stroke-miterlimit="10"/>
<path opacity="0.25" d="M130.476 171.834C135.536 171.834 139.638 167.732 139.638 162.671C139.638 157.611 135.536 153.508 130.476 153.508C125.416 153.508 121.315 157.611 121.315 162.671C121.315 167.732 125.416 171.834 130.476 171.834Z" stroke="#FDFEFE" stroke-miterlimit="10"/>
<path opacity="0.25" d="M121.255 155.774C123.016 155.774 124.444 154.346 124.444 152.585C124.444 150.824 123.016 149.396 121.255 149.396C119.494 149.396 118.067 150.824 118.067 152.585C118.067 154.346 119.494 155.774 121.255 155.774Z" stroke="#FDFEFE" stroke-miterlimit="10"/>
<path opacity="0.25" d="M127.591 151.999C128.311 151.999 128.894 151.416 128.894 150.696C128.894 149.976 128.311 149.392 127.591 149.392C126.871 149.392 126.287 149.976 126.287 150.696C126.287 151.416 126.871 151.999 127.591 151.999Z" stroke="#FDFEFE" stroke-miterlimit="10"/>
<path opacity="0.25" d="M104.615 179.481C107.556 179.481 109.94 177.096 109.94 174.155C109.94 171.214 107.556 168.83 104.615 168.83C101.674 168.83 99.2903 171.214 99.2903 174.155C99.2903 177.096 101.674 179.481 104.615 179.481Z" stroke="#FDFEFE" stroke-miterlimit="10"/>
<path opacity="0.25" d="M139.833 176.504C141.594 176.504 143.022 175.077 143.022 173.315C143.022 171.554 141.594 170.126 139.833 170.126C138.072 170.126 136.644 171.554 136.644 173.315C136.644 175.077 138.072 176.504 139.833 176.504Z" stroke="#FDFEFE" stroke-miterlimit="10"/>
<path opacity="0.25" d="M114.868 172.695C115.587 172.695 116.171 172.111 116.171 171.391C116.171 170.672 115.587 170.088 114.868 170.088C114.148 170.088 113.564 170.672 113.564 171.391C113.564 172.111 114.148 172.695 114.868 172.695Z" stroke="#FDFEFE" stroke-miterlimit="10"/>
<path opacity="0.25" d="M263.866 171.081C268.926 171.081 273.027 166.979 273.027 161.918C273.027 156.858 268.926 152.756 263.866 152.756C258.806 152.756 254.704 156.858 254.704 161.918C254.704 166.979 258.806 171.081 263.866 171.081Z" stroke="#FDFEFE" stroke-miterlimit="10"/>
<path opacity="0.25" d="M250.205 165.331C251.966 165.331 253.394 163.903 253.394 162.142C253.394 160.38 251.966 158.953 250.205 158.953C248.444 158.953 247.017 160.38 247.017 162.142C247.017 163.903 248.444 165.331 250.205 165.331Z" stroke="#FDFEFE" stroke-miterlimit="10"/>
<path opacity="0.25" d="M252.99 157.447C253.709 157.447 254.293 156.863 254.293 156.143C254.293 155.423 253.709 154.84 252.99 154.84C252.27 154.84 251.686 155.423 251.686 156.143C251.686 156.863 252.27 157.447 252.99 157.447Z" stroke="#FDFEFE" stroke-miterlimit="10"/>
<path d="M91.1671 209.029C92.1718 209.029 92.9862 208.327 92.9862 207.46C92.9862 206.594 92.1718 205.892 91.1671 205.892C90.1624 205.892 89.348 206.594 89.348 207.46C89.348 208.327 90.1624 209.029 91.1671 209.029Z" fill="#FEFFFF"/>
<path d="M84.0581 189.661L93.7808 188.173" stroke="#FEFFFF" stroke-miterlimit="10"/>
<path d="M90.5852 207.46L74.8546 191.888" stroke="#FEFFFF" stroke-miterlimit="10"/>
<path d="M58.995 221.837H244.382" stroke="#FEFFFF" stroke-width="0.5" stroke-miterlimit="10"/>
<path d="M76.7329 98.3507C77.4473 99.3684 78.0676 100.431 78.6531 101.508C79.2455 102.582 79.7926 103.68 80.3119 104.788C80.8276 105.896 81.319 107.022 81.7615 108.165C82.2111 109.308 82.6223 110.465 82.9429 111.668C82.2285 110.65 81.6082 109.587 81.0228 108.51C80.4303 107.437 79.8832 106.339 79.3675 105.231C78.8517 104.119 78.3638 102.997 77.9212 101.853C77.4682 100.707 77.0535 99.5496 76.7329 98.3507Z" fill="#5A74B8"/>
<path d="M165.405 208.077L164.941 232.889L161.481 233.122L159.055 208.422L165.52 207.499L165.405 208.077Z" fill="#ED9E7D"/>
<path d="M152.825 208.077L153.173 232.774L149.594 232.544L147.172 206.575L152.825 208.077Z" fill="#ED9E7D"/>
<path d="M165.192 232.749C165.192 232.749 166.001 233.987 166.185 234.464C166.395 235.011 166.374 236.416 166.293 236.998C166.161 237.981 165.565 240.563 165.565 240.563L164.502 240.511L164.45 236.789C164.45 236.789 162.478 239.34 161.578 239.967C160.84 240.487 159.125 240.912 158.237 241.083C157.045 241.313 154.793 241.999 153.849 241.365C153.63 241.219 153.393 240.563 153.393 240.563C153.393 240.563 155.853 238.992 156.62 238.375C157.655 237.545 159.582 235.593 160.408 234.558C160.721 234.161 161.418 232.805 161.418 232.805L165.192 232.749Z" fill="#111010"/>
<path d="M153.114 231.948C153.114 231.948 153.922 233.185 154.107 233.663C154.316 234.21 154.295 235.614 154.215 236.196C154.083 237.179 153.487 239.762 153.487 239.762L152.424 239.71L152.372 235.987C152.372 235.987 150.399 238.539 149.5 239.166C148.761 239.685 147.047 240.11 146.158 240.281C144.966 240.511 142.715 241.198 141.771 240.563C141.551 240.417 141.314 239.762 141.314 239.762C141.314 239.762 143.774 238.19 144.541 237.573C145.576 236.744 147.503 234.792 148.329 233.757C148.643 233.359 149.34 232.004 149.34 232.004L153.114 231.948Z" fill="#111010"/>
<path d="M177.389 188.703C178.103 188.703 178.682 187.855 178.682 186.81C178.682 185.765 178.103 184.918 177.389 184.918C176.675 184.918 176.096 185.765 176.096 186.81C176.096 187.855 176.675 188.703 177.389 188.703Z" fill="#F3BB4C"/>
<path d="M141.537 137.375L140.948 169.53L144.266 169.75L146.036 160.901L145.005 138.626L141.537 137.375Z" fill="#243240"/>
<path d="M142.589 178.121C143.134 178.105 143.53 176.52 143.475 174.581C143.42 172.641 142.933 171.082 142.389 171.097C141.844 171.113 141.448 172.697 141.503 174.637C141.558 176.576 142.045 178.136 142.589 178.121Z" fill="#F3AE91"/>
<path d="M143.96 179.135C144.504 179.119 144.894 177.299 144.83 175.069C144.767 172.839 144.274 171.043 143.729 171.059C143.185 171.075 142.795 172.895 142.859 175.125C142.922 177.355 143.415 179.15 143.96 179.135Z" fill="#F3AE91"/>
<path d="M144.963 171.015C145.506 171.001 145.984 172.245 146.04 174.183C146.095 176.124 145.698 177.707 145.155 177.724C144.611 177.741 144.123 176.18 144.067 174.239C144.011 172.297 144.419 171.032 144.963 171.015Z" fill="#F3AE91"/>
<path d="M146.083 175.835C146.412 175.826 146.652 174.868 146.618 173.696C146.585 172.524 146.291 171.582 145.962 171.592C145.633 171.601 145.394 172.558 145.427 173.73C145.46 174.902 145.754 175.844 146.083 175.835Z" fill="#F3AE91"/>
<path d="M145.304 171.064C145.482 171.113 146.109 171.639 146.109 171.639L144.116 172.869L141.858 172.106L142.398 171.088C142.394 171.088 144.43 170.82 145.304 171.064Z" fill="#F3AE91"/>
<path d="M145.252 171.116H141.61C141.244 171.116 140.948 170.816 140.948 170.454V168.823C140.948 168.457 141.248 168.161 141.61 168.161H145.252C145.618 168.161 145.914 168.46 145.914 168.823V170.454C145.914 170.816 145.614 171.116 145.252 171.116Z" fill="#FCFCFB"/>
<path d="M143.004 95.9424C143.004 96.6359 143.712 96.9252 143.771 98.5494C143.809 99.5705 142.928 101.379 143.339 102.902C144.893 108.643 148.148 111.438 151.256 112.368C152.459 112.731 155.226 110.431 155.226 110.431L161.568 105.82L162.035 102.889C162.035 102.889 164.203 103 165.234 102.289C166.088 101.697 167.559 99.9539 166.977 97.3922C166.914 97.1204 166.409 96.2491 165.84 95.9947C165.377 95.7855 164.83 95.8518 164.83 95.6531C164.83 86.9434 160.084 81.3182 153.957 81.3182C147.831 81.3182 143.004 87.2292 143.004 95.9424Z" fill="#EFAA80"/>
<path d="M161.509 105.509L162.129 116.227L152.671 129.889L147.608 126.926L149.232 120.095L153.992 115.035C153.992 115.035 154.87 113.937 155.01 113.411C155.177 112.787 155.226 110.438 155.226 110.438L161.509 105.509Z" fill="#EFAA80"/>
<path d="M151.807 209.681L160.972 209.635C164.192 209.635 166.426 208.161 166.426 204.941L170.855 172.064C170.855 170.551 169.636 165.254 169.636 165.254C169.636 165.254 165.764 164.891 164.056 164.891H150.173C148.225 164.891 145.109 164.484 145.109 164.484C145.109 164.484 143.994 169.781 144.008 171.05C144.112 179.589 145.141 204.895 145.141 204.895C145.147 208.116 148.591 209.681 151.807 209.681Z" fill="#2F4053"/>
<path d="M164.366 201.598L178.536 201.006C181.756 201.006 186.405 198.59 186.405 195.37L185.537 180.369C185.537 177.149 182.205 174.845 178.985 174.845L164.69 175.009C161.47 175.009 158.303 177.257 158.303 180.477L156.679 195.638C156.675 198.859 161.146 201.598 164.366 201.598Z" fill="#B22C25"/>
<path d="M168.81 181.063H174.974C176.793 181.063 178.281 179.575 178.281 177.756V171.384C178.281 169.565 176.793 168.077 174.974 168.077H168.81C166.99 168.077 165.502 169.565 165.502 171.384V177.756C165.502 179.575 166.99 181.063 168.81 181.063Z" stroke="#652621" stroke-width="3" stroke-miterlimit="10"/>
<path d="M160.136 200.483C161.631 201.487 162.3 199.765 162.3 198.803L161.889 179.401C161.889 178.435 161.136 176.469 160.171 176.469C160.171 176.469 158.383 178.435 158.383 179.401L156.571 197.513C156.571 198.479 159.174 200.483 160.136 200.483Z" fill="#875852"/>
<path d="M185.063 184.942C184.899 185.454 184.599 185.911 184.296 186.35C184.146 186.573 183.976 186.782 183.815 186.998C183.641 187.201 183.474 187.413 183.286 187.612C182.543 188.396 181.704 189.104 180.759 189.651C179.818 190.208 178.79 190.606 177.731 190.884C177.462 190.94 177.191 190.986 176.922 191.034C176.786 191.055 176.654 191.087 176.518 191.104L176.11 191.135L175.291 191.195C175.013 191.181 174.727 191.191 174.455 191.153C172.263 190.871 170.238 190.093 168.297 189.18C167.329 188.717 166.381 188.208 165.478 187.629C164.586 187.037 163.697 186.416 162.962 185.639C163.802 186.298 164.708 186.849 165.649 187.333C166.583 187.831 167.548 188.271 168.517 188.682C169.493 189.079 170.475 189.469 171.482 189.773C172.483 190.083 173.504 190.351 174.521 190.459C174.776 190.501 175.023 190.487 175.277 190.508L176.051 190.459L176.438 190.435C176.567 190.421 176.692 190.393 176.821 190.376L177.584 190.25C178.592 190.024 179.567 189.661 180.494 189.187C181.418 188.706 182.268 188.086 183.045 187.382C183.244 187.208 183.425 187.019 183.617 186.838C183.794 186.643 183.979 186.455 184.15 186.253C184.321 186.05 184.484 185.845 184.641 185.629C184.795 185.402 184.958 185.186 185.063 184.942Z" fill="#112216"/>
<path d="M148.263 84.9603C148.263 84.9603 149.849 88.3898 150.654 89.1252C152.128 90.474 157.533 91.2826 157.533 91.2826C157.533 91.2826 158.111 93.0217 158.853 94.0882C159.265 94.6772 161.073 96.0853 161.073 96.0853V105.102L161.328 108.134C161.328 108.134 161.202 101.432 161.749 99.2847C161.941 98.5354 163.098 96.5035 163.098 96.5035C163.098 96.5035 164.136 95.7368 164.952 95.8378C166.004 95.9703 166.788 97.096 166.788 97.096C166.788 97.096 168.228 97.4759 168.405 97.7652C170.583 101.376 168.994 114.62 168.994 114.62C168.994 114.62 170.047 118.75 171.085 119.681C172.204 120.677 173.507 121.678 176.748 121.28C177.417 121.197 179.62 120.259 179.62 120.259C179.62 120.259 177.156 120.026 176.145 118.604C175.448 117.621 174.298 114.557 174.051 113.107C173.479 109.716 173.685 102.258 172.584 99.4276C171.883 97.6258 168.489 94.9909 168.489 94.9909C168.489 94.9909 168.088 90.5681 168.151 89.0903C168.252 86.7413 166.586 83.5035 165.06 81.956C163.432 80.304 160.031 78.3174 156.759 78.2337C151.64 78.1048 149.399 81.015 149.399 81.015C149.399 81.015 145.949 81.1753 145.2 81.5064C143.956 82.0606 142.551 84.0263 142.119 85.1311C141.781 86.0024 141.663 88.4003 141.663 88.4003C141.663 88.4003 139.544 92.0145 139.31 93.5062C138.934 95.8762 140.039 103.683 140.039 103.683C140.039 103.683 139.934 96.2456 140.502 93.9349C140.76 92.8858 141.962 90.9828 141.962 90.9828L142.956 95.2941C142.956 95.2941 143.259 89.2786 145.367 86.4381C145.754 85.9222 148.263 84.9603 148.263 84.9603Z" fill="#E95624"/>
<path d="M160.505 118.133L152.291 122.242L150.953 117.656L145.938 126.829L147.716 140.289L151.173 139.536L160.505 118.133Z" fill="#FEFFFF"/>
<path d="M173.017 166.725C173.034 165.048 172.646 163.685 172.149 163.68C171.653 163.675 171.236 165.03 171.219 166.706C171.202 168.383 171.59 169.746 172.087 169.751C172.583 169.756 173 168.401 173.017 166.725Z" fill="#F3AE91"/>
<path d="M174.234 167.188C174.254 165.261 173.868 163.695 173.371 163.69C172.875 163.685 172.456 165.243 172.436 167.169C172.416 169.096 172.803 170.662 173.299 170.667C173.796 170.672 174.214 169.115 174.234 167.188Z" fill="#F3AE91"/>
<path d="M174.504 163.699C174.999 163.703 175.389 164.797 175.371 166.474C175.354 168.15 174.939 169.506 174.441 169.502C173.946 169.499 173.556 168.133 173.573 166.456C173.594 164.776 174.009 163.692 174.504 163.699Z" fill="#F3AE91"/>
<path d="M175.905 166.066C175.916 165.054 175.681 164.231 175.381 164.228C175.08 164.225 174.829 165.043 174.818 166.055C174.808 167.068 175.043 167.891 175.343 167.894C175.643 167.897 175.895 167.079 175.905 166.066Z" fill="#F3AE91"/>
<path d="M174.81 163.752C174.967 163.801 175.521 164.274 175.521 164.274L173.664 165.271L171.636 164.536L172.162 163.675C172.162 163.675 174.026 163.515 174.81 163.752Z" fill="#F3AE91"/>
<path d="M172.085 164.724H175.549C175.877 164.724 176.142 164.456 176.142 164.132V163.142C176.142 162.814 175.873 162.549 175.549 162.549H172.085C171.758 162.549 171.493 162.818 171.493 163.142V164.132C171.493 164.459 171.758 164.724 172.085 164.724Z" fill="#FCFCFB"/>
<path d="M162.446 115.913C162.446 115.913 165.482 115.725 166.356 116.164C167.754 116.871 170.395 120.96 170.395 120.96C170.395 120.96 173.615 127.725 174.594 130.122C175.507 132.363 177.522 137.055 177.968 139.508C178.369 141.714 178.219 148.469 178.219 148.469L176.201 163.232L171.531 163.107L171.681 140.156L168.196 133.803C168.196 133.803 166.248 138.581 165.983 140.268C165.419 143.851 166.064 151.163 166.764 154.725C167.297 157.426 169.642 165.254 169.642 165.254C169.642 165.254 157.379 168.777 153.239 168.283C150.322 167.934 142.516 163.487 142.516 163.487C142.516 163.487 144.548 155.492 144.789 152.763C145.026 150.058 145.395 144.44 144.409 141.91C143.649 139.965 140.164 137.218 139.237 135.347C138.829 134.524 138.795 132.583 138.986 131.687C139.492 129.314 143.527 123.107 143.527 123.107L150.971 116.167L153.999 115.031C153.999 115.031 149.814 119.559 149.047 121.43C148.165 123.591 147.855 128.366 147.949 130.697C148.04 133.001 149.002 139.724 149.002 139.724C149.002 139.724 150.66 131.698 152.201 129.551C153.075 128.331 154.476 125.299 155.497 124.201C157.421 122.124 162.446 115.913 162.446 115.913Z" fill="#2F4053"/>
<path d="M162.896 116.708L157.822 131.182L153.309 130.994L154.999 133.813L148.608 147.538L143.534 132.499L145.224 129.68L142.827 126.874L153.344 115.083C153.344 115.083 148.221 123.169 147.625 126.31C146.879 130.248 148.416 142.087 148.416 142.087C148.416 142.087 150.458 131.206 152.176 127.986C154.055 124.459 162.704 115.955 162.704 115.955L162.896 116.708Z" fill="#253441"/>
<path d="M167.367 97.5351L167.538 97.6223C167.656 97.6815 167.799 97.6362 167.862 97.5212L168.959 95.4091C169.019 95.2906 168.973 95.1477 168.858 95.085L168.688 94.9979C168.569 94.9386 168.426 94.9839 168.364 95.0989L167.266 97.211C167.203 97.3295 167.248 97.4759 167.367 97.5351Z" fill="#3590CE"/>
<path d="M150.263 99.1558C153.63 100.135 155.989 102 159.477 101.083C161.324 101.059 160.951 103.3 161.024 103.763C161.024 103.767 161.021 103.77 161.021 103.77C160.272 105.642 155.714 108.563 155.714 108.563C155.714 108.563 154.445 111.298 153.63 111.814C151.309 113.289 149.601 112.205 148.545 111.793C147.2 111.271 146.043 108.691 145.064 107.618C143.698 106.119 143.039 103.376 143.039 103.376L142.99 103.206C144.855 100.86 147.496 98.0336 150.263 99.1558Z" fill="white" stroke="#A7A7A8" stroke-width="0.5" stroke-miterlimit="10"/>
<path d="M54.8097 176.755C54.8097 176.755 57.1097 176.773 57.838 176.766C58.7336 176.755 60.0021 175.884 60.0021 175.884" stroke="#D0D0CE" stroke-width="0.5" stroke-miterlimit="10"/>
<path d="M39.0791 229.658C39.0791 229.658 38.3264 232.934 38.2602 234.119C38.18 235.611 38.5076 240.372 38.5076 240.372H44.0834L44.1217 239.026C44.1217 239.026 45.0069 238.654 45.2752 238.692C45.6341 238.741 46.4914 239.636 46.4914 239.636L49.0075 241.63L59.6572 241.536C59.6572 241.536 59.8628 240.128 59.6572 239.724C59.3366 239.1 57.8799 238.587 57.2666 238.239C55.8134 237.416 53.259 235.273 52.0184 234.112C50.7534 232.924 47.3591 228.696 47.3591 228.696L40.2744 227.842L39.0791 229.658Z" fill="#263034"/>
<path d="M70.8539 228.104C70.8539 228.104 70.1012 231.38 70.035 232.565C69.9548 234.057 70.2824 238.817 70.2824 238.817H75.8581L75.8965 237.472C75.8965 237.472 76.7816 237.099 77.05 237.137C77.4089 237.186 78.2662 238.082 78.2662 238.082L80.7822 240.076L91.4319 239.981C91.4319 239.981 91.6375 238.573 91.4319 238.169C91.1113 237.545 89.6547 237.033 89.0413 236.684C87.5881 235.862 85.0338 233.718 83.7931 232.558C82.5281 231.369 79.1339 227.142 79.1339 227.142L72.0492 226.288L70.8539 228.104Z" fill="#263034"/>
<path d="M109.163 126.254L105.64 126.428L96.6906 129.485C96.6906 129.485 86.7343 133.475 83.5143 134.475C80.6533 135.361 71.5857 137.163 71.5857 137.163L71.1396 93.0531C71.1396 93.0531 74.3143 95.329 74.9346 96.4408C76.5098 99.2569 77.2277 109.159 77.2277 109.159L77.6633 120.991V123.507C80.8833 123.277 85.3962 122.957 87.4418 122.772C90.498 122.497 99.7189 121.503 99.7189 121.503L107.163 121.036L109.163 126.254Z" fill="#C1CFDA"/>
<path d="M79.3253 114.841C79.9645 114.231 79.1431 112.332 77.4906 110.599C75.8381 108.867 73.9803 107.956 73.341 108.566C72.7018 109.176 73.5232 111.075 75.1757 112.808C76.8282 114.54 78.686 115.451 79.3253 114.841Z" fill="#F3AE91"/>
<path d="M81.7963 114.274C82.4355 113.664 81.4138 111.555 79.5142 109.563C77.6147 107.571 75.5565 106.451 74.9173 107.061C74.2781 107.671 75.2998 109.78 77.1994 111.771C79.099 113.763 81.1571 114.883 81.7963 114.274Z" fill="#F3AE91"/>
<path d="M76.3635 105.684C77.0047 105.074 78.5938 105.701 80.2457 107.433C81.8975 109.166 82.7199 111.065 82.0787 111.675C81.4375 112.285 79.58 111.375 77.9282 109.643C76.2764 107.911 75.7223 106.294 76.3635 105.684Z" fill="#F3AE91"/>
<path d="M81.6413 108.905C82.0284 108.536 81.5325 107.387 80.5335 106.34C79.5346 105.292 78.4109 104.743 78.0238 105.112C77.6366 105.481 78.1326 106.63 79.1315 107.677C80.1304 108.725 81.2541 109.274 81.6413 108.905Z" fill="#F3AE91"/>
<path d="M76.8096 105.356C77.0605 105.21 78.2453 105.008 78.2453 105.008L76.8619 108.329L73.5303 110.096L73.3422 108.566C73.3456 108.563 75.5655 106.088 76.8096 105.356Z" fill="#F3AE91"/>
<path d="M74.7325 107.552L67.0171 113.498L70.035 118.516L76.7642 113.498L74.7325 107.552Z" fill="#F3AE91"/>
<path d="M60.8734 85.3611C60.8176 85.3228 60.7828 84.8976 60.7828 84.8976L59.5805 77.4356L51.5479 71.7512L50.3735 83.3257C50.9137 83.4512 51.1088 83.5174 51.3563 83.6987C53.8479 85.9641 57.3607 85.9188 60.8734 85.3611Z" fill="#F4AD95"/>
<path d="M70.7703 56.7227C70.7703 56.7227 66.0971 50.4911 64.5359 49.9822C63.9609 49.794 58.4165 49.8672 54.8376 53.1259C54.0605 53.8334 51.8511 57.8833 51.1855 58.4967C49.4918 60.0581 49.1015 63.742 49.1015 63.742C49.1015 63.742 46.7353 64.0278 47.7982 66.5546C48.5405 68.3217 48.875 69.4091 49.5128 69.8796C50.0355 70.2665 51.5688 69.8552 51.5688 69.8552C51.5688 69.8552 51.8232 74.3582 52.7049 75.5641C52.5585 74.1107 52.6352 72.7236 53.5412 72.497C57.2491 72.497 59.1031 70.026 62.1906 68.1718C64.644 66.3316 68.0068 68.4471 70.4741 70.2908L70.6135 62.5117L70.7703 56.7227Z" fill="#F3AE94"/>
<path d="M46.8189 54.2307C48.0351 52.753 53.2728 50.1146 53.2728 50.1146C53.2728 50.1146 58.7719 49.2224 60.6363 47.6924C63.5392 45.305 67.2053 47.2358 67.2053 47.2358L68.2298 48.6857C68.2298 48.6857 69.6551 48.7414 70.0524 49.0203C70.5019 49.3374 70.7075 50.1878 70.7703 50.8117C70.8713 51.8085 69.8468 54.398 69.8468 54.398C69.8468 54.398 70.9445 55.0463 71.2442 55.3425C71.4707 55.5691 71.7634 56.1093 71.8401 56.4822C72.1781 58.1342 72.0283 61.2884 71.4881 62.8846C71.3 63.4388 70.5577 65.2267 70.5577 65.2267L68.9372 57.5417C68.9372 57.5417 65.5883 59.0404 64.3895 59.0892C62.5878 59.1589 57.3989 57.2978 57.3989 57.2978L53.3809 63.1286L53.4784 67.7849L50.3734 63.5225L49.1015 63.742L47.8888 61.508C47.8888 61.508 46.5785 58.7128 46.3728 57.4581C46.1324 55.9664 46.2997 54.8581 46.8189 54.2307Z" fill="#4E3628"/>
<path d="M62.1871 68.1753C59.0995 70.0294 57.2456 72.5005 53.5377 72.5005C52.6316 72.727 52.5584 74.1142 52.7013 75.5675C52.7013 75.571 52.7048 75.571 52.7048 75.5745C53.9384 77.237 59.8383 79.0423 59.8383 79.0423C59.8383 79.0423 61.8142 81.4263 62.7586 81.7295C65.4489 82.5869 66.5501 81.5169 67.4875 80.8338C68.6863 79.9624 69.1637 77.0976 69.8537 75.7766C70.8191 73.9294 70.4601 70.4825 70.4601 70.4825L70.4636 70.2978C68.0033 68.4506 64.6369 66.3351 62.1871 68.1753Z" fill="white" stroke="#CFCECC" stroke-width="0.5" stroke-miterlimit="10"/>
<path d="M105.633 138.564L92.5576 136.166C91.5539 135.981 90.8814 135.009 91.0661 134.002L96.5512 104.098C96.7359 103.094 97.7082 102.422 98.7153 102.606L111.79 105.004C112.794 105.189 113.467 106.161 113.282 107.168L107.797 137.072C107.612 138.076 106.64 138.748 105.633 138.564Z" fill="#666766"/>
<path d="M107.867 121.671C110.261 121.671 112.202 120.954 112.202 120.071C112.202 119.187 110.261 118.471 107.867 118.471C105.472 118.471 103.531 119.187 103.531 120.071C103.531 120.954 105.472 121.671 107.867 121.671Z" fill="#F3AE91"/>
<path d="M107.218 123.845C109.971 123.845 112.202 123.129 112.202 122.246C112.202 121.362 109.971 120.646 107.218 120.646C104.466 120.646 102.235 121.362 102.235 122.246C102.235 123.129 104.466 123.845 107.218 123.845Z" fill="#F3AE91"/>
<path d="M112.202 124.243C112.202 125.128 110.651 125.842 108.257 125.842C105.863 125.842 103.922 125.125 103.922 124.243C103.922 123.357 105.863 122.643 108.257 122.643C110.647 122.64 112.202 123.357 112.202 124.243Z" fill="#F3AE91"/>
<path d="M108.846 126.811C110.293 126.811 111.466 126.378 111.466 125.842C111.466 125.307 110.293 124.874 108.846 124.874C107.398 124.874 106.225 125.307 106.225 125.842C106.225 126.378 107.398 126.811 108.846 126.811Z" fill="#F3AE91"/>
<path d="M112.128 124.79C112.062 125.072 111.39 126.069 111.39 126.069L109.94 122.775L110.961 119.147L112.198 120.067C112.202 120.071 112.459 123.385 112.128 124.79Z" fill="#F3AE91"/>
<path d="M37.4413 166.512L38.4798 230.048C38.4798 230.048 42.2887 230.92 43.7105 230.958C44.9999 230.993 49.3142 230.352 49.3142 230.352L53.1231 193.634L53.4437 190.843L53.9002 187.141L55.0049 160.117L55.2454 161.605L69.5507 229.519C69.5507 229.519 74.4992 229.561 76.0813 229.135C77.3498 228.797 80.7754 226.786 80.7754 226.786C80.7754 226.786 75.3634 190.752 73.858 178.536C73.0425 171.921 71.5022 151.111 71.5022 151.111L53.7748 150.299H38.4867L37.4413 166.512Z" fill="#19878C"/>
<path d="M72.0318 117.886L73.2027 116.708C73.2027 116.708 73.1783 114.526 73.0076 113.885C72.8787 113.397 71.997 112.18 71.997 112.18L72.0005 109.883L71.7461 97.3121C71.7461 97.3121 71.7565 93.8059 71.1397 93.0531C69.69 91.2826 61.7899 85.9745 60.8733 85.3611C57.3606 85.9223 53.8688 85.985 51.3736 83.7161C51.1123 83.4547 50.3735 83.3257 50.3735 83.3257C50.3735 83.3257 40.1315 87.177 36.5387 89.4424C34.9112 90.4671 30.6946 94.144 29.9697 96.8416C29.454 98.762 29.4714 101.944 29.9 103.896C30.2137 105.318 32.078 110.431 32.078 110.431C32.078 110.431 32.4858 114.449 32.9179 116.603C34.5244 124.605 33.3918 135.187 33.3918 135.187L32.2383 176.145L54.8062 176.759L58.8277 169.886L59.9986 175.887L74.304 175.201L72.0318 117.886Z" fill="white" stroke="#D0D0CE" stroke-width="0.5" stroke-miterlimit="10"/>
<path d="M69.6865 113.184L70.7947 113.529L71.7077 115.188L71.9934 117.69L69.8433 119.764L65.5988 116.966L69.6865 113.184Z" fill="white"/>
<path d="M69.7074 111.159C69.7074 111.159 71.983 111.682 72.6625 112.912C73.3909 114.233 73.1679 116.781 73.1679 116.781" stroke="#CFCFCE" stroke-miterlimit="10"/>
<path d="M50.5408 83.3257L59.584 109.152L61.0615 85.3263L50.5408 83.3257Z" fill="#92A0D1"/>
<path d="M57.7928 87.0654L55.6217 91.1083L57.7928 92.4362L57.3014 102.638L59.584 109.152L60.3959 96.0539L59.1205 92.011L60.3959 89.777L57.7928 87.0654Z" fill="#3B3136"/>
<path d="M37.2809 89.0032C37.2809 89.0032 45.1392 90.9759 46.4948 101.24C47.0454 105.422 49.7741 120.984 49.7741 120.984" stroke="#D8D8D8" stroke-width="0.75" stroke-miterlimit="10"/>
<path d="M69.8678 111.079L49.7706 120.984" stroke="#D8D8D8" stroke-width="0.75" stroke-miterlimit="10"/>
<path d="M73.2899 116.708C73.2899 116.708 55.4997 131.304 51.8371 133.744C48.1745 136.183 43.9962 136.239 43.9962 136.239" stroke="#D8D8D8" stroke-width="0.75" stroke-miterlimit="10"/>
<path d="M32.078 110.427C32.078 110.427 41.0097 133.834 42.0063 135.392C42.8601 136.727 43.9927 136.239 43.9927 136.239" stroke="#D8D8D8" stroke-width="0.75" stroke-miterlimit="10"/>
<path d="M47.4385 141.707L39.3992 145.277L40.1133 146.886L48.1526 143.316L47.4385 141.707Z" fill="#C1CFDA"/>
<path d="M73.1679 116.812C73.1679 116.812 73.2933 113.644 72.4291 112.637C71.6136 111.682 69.7632 111.135 69.7632 111.135" stroke="#CFCFCE" stroke-miterlimit="10"/>
<path d="M72.7253 109.152L70.1779 111.117C70.1779 111.117 71.2512 111.515 71.6032 111.703C71.868 111.846 72.6451 112.435 72.6451 112.435L73.2898 110.852L72.7253 109.152Z" fill="#F3AE91"/>
<path d="M207.227 81.4994C207.227 81.4994 208.889 84.4445 209.875 84.9847C210.666 85.4204 212.764 85.4308 213.593 85.0718C215.562 84.2214 218.699 78.7008 218.699 78.7008L219.8 79.5965L220.225 85.4099L209.997 123.068L204.669 123.127L200.372 104.966L204.125 85.4726L207.227 81.4994Z" fill="white"/>
<path d="M211.436 85.8003L213.604 90.0314L211.332 91.3662L213.071 104.032L206.439 124.114C206.439 124.114 205.62 111.17 205.718 106.911C205.777 104.255 207.69 95.9006 207.69 95.9006L209.962 90.8992L208.687 88.5606L211.436 85.8003Z" fill="#99C454"/>
<path d="M221.922 239.135C223.232 237.904 229.042 227.717 229.042 227.717L236.381 226.832L237.625 228.714C237.625 228.714 238.405 232.105 238.472 233.335C238.555 234.882 238.217 239.814 238.217 239.814H232.439L232.401 238.42C232.401 238.42 231.485 238.033 231.206 238.072C230.833 238.124 229.944 239.051 229.944 239.051L228.508 240.187C228.508 240.187 222.602 241.477 222.602 240.166" fill="#1F1D1F"/>
<path d="M195.287 229.226C195.287 229.226 196.068 232.617 196.134 233.847C196.218 235.395 195.88 240.326 195.88 240.326H190.102L190.064 238.932C190.064 238.932 189.147 238.545 188.868 238.584C188.495 238.636 187.607 239.563 187.607 239.563L185 241.626L173.967 241.529C173.967 241.529 173.751 240.069 173.967 239.654C174.298 239.009 175.811 238.476 176.445 238.117C177.95 237.263 180.599 235.043 181.881 233.84C183.192 232.61 186.708 228.229 186.708 228.229L194.047 227.344L195.287 229.226Z" fill="#1F1D1F"/>
<path d="M194.786 138.26C194.786 138.26 190.374 137.863 189.433 136.981C188.07 135.706 186.509 132.203 186.29 130.345C185.997 127.853 185.774 123.626 186.175 121.148C186.453 119.419 188.154 113.815 188.154 113.815L190.133 109.626L191.297 99.4974C191.297 99.4974 191.928 88.9997 192.646 88.219C194.333 86.3858 205.603 82.7402 206.665 82.1059C208.004 82.2976 206.439 124.114 206.439 124.114L219.49 83.8973C219.49 83.8973 219.35 79.6104 219.389 79.1957C219.692 78.9273 224.71 83.8625 224.71 83.8625C224.71 83.8625 231.241 85.1903 235.415 87.5324C237.304 88.592 240.287 91.0386 241.131 93.8338C241.73 95.8239 241.66 103.112 242.594 105.555C243.134 106.973 246.403 114.784 246.403 114.784C246.403 114.784 246.696 134.416 245.086 140.132C244.48 142.276 234.718 155.725 234.718 155.725L234.603 167.714L216.207 168.596L217.259 164.337L213.698 169.558L197.472 165.735L188.976 162.591C188.976 162.591 190.475 151.863 191.304 148.389C191.918 145.778 194.786 138.26 194.786 138.26Z" fill="#112E4F" stroke="#122530" stroke-miterlimit="10"/>
<path d="M196.085 56.423L197.002 51.446C197.002 51.446 200.372 48.3616 202.125 47.7865C202.769 47.5739 208.99 44.8554 213.011 48.5184C213.883 49.313 217.155 51.2195 217.901 51.9061C219.803 53.6626 220.242 57.7997 220.242 57.7997C220.242 57.7997 222.898 58.1203 221.71 60.9608C220.877 62.9439 220.5 64.1672 219.786 64.6935C219.197 65.1292 217.475 64.6691 217.475 64.6691C217.475 64.6691 217.19 69.7471 216.193 71.089C214.806 72.9571 208.178 74.9855 208.178 74.9855C208.178 74.9855 205.958 77.6657 204.895 78.0037C201.874 78.9657 200.637 77.7633 199.581 76.9965C198.236 76.0171 197.699 72.8002 196.925 71.3155C195.842 69.2418 196.242 65.3662 196.242 65.3662L196.085 56.423Z" fill="#6D5120"/>
<path d="M216.653 49.5326C215.294 48.0026 213.687 47.0267 212.771 46.5771C210.907 45.664 200.065 45.3015 197.026 49.7138C196.734 50.139 196.476 51.3031 196.392 51.6865C196.016 53.3978 196.239 54.0007 196.364 54.2307C196.615 54.6978 197.267 53.931 198.04 52.9691C198.783 52.0455 201.184 51.0103 202.484 51.324C207.819 52.6136 210.196 53.6661 210.196 53.6661L213.677 55.339L213.607 60.1104L214.479 62.3409L216.43 62.7243C216.43 62.7243 216.726 61.1281 216.831 60.5913C216.96 59.9466 217.413 58.9254 217.897 58.4758C219.113 57.3535 221.469 58.2144 221.469 58.2144C221.469 58.2144 221.887 56.7471 221.469 55.6179C221.176 54.8302 219.769 53.5616 219.43 53.0632C218.552 51.7632 217.232 50.1843 216.653 49.5326Z" fill="#C4CED7"/>
<path d="M210.711 86.8215C210.753 86.7936 209.23 85.267 208.098 84.1413C207.436 83.4826 207.132 83.0748 207.153 82.6566C207.22 81.2729 208.307 74.6997 208.307 74.6997L216.542 68.245L219.019 81.2172C218.392 81.3566 218.165 81.4263 217.88 81.6284C214.977 84.1413 214.161 86.8981 210.711 86.8215Z" fill="#6D5120"/>
<path d="M204.937 63.7873C208.282 65.7948 210.29 68.4715 214.301 68.4715C216.294 68.9699 215.256 71.2737 215.203 71.793C215.2 71.7965 215.2 71.8 215.196 71.8C213.858 73.6018 208.129 75.449 208.129 75.449C208.129 75.449 205.989 78.0316 204.965 78.3557C202.051 79.2828 200.522 77.6343 199.501 76.8919C198.204 75.9474 197.688 72.849 196.939 71.4166C195.897 69.416 195.963 66.2793 195.963 66.2793L195.96 66.0806C198.64 64.0871 202.281 61.7972 204.937 63.7873Z" fill="white" stroke="#AAAAAB" stroke-width="0.5" stroke-miterlimit="10"/>
<path d="M198.848 107.929L190.87 109.88L197.242 135.949L205.221 133.998L198.848 107.929Z" fill="#878A8C"/>
<path d="M194.7 129.046C197.099 128.133 198.771 126.674 198.434 125.787C198.097 124.9 195.878 124.921 193.478 125.834C191.078 126.747 189.406 128.206 189.744 129.093C190.081 129.98 192.3 129.959 194.7 129.046Z" fill="#6D5120"/>
<path d="M196.177 130.981C198.935 129.932 200.897 128.363 200.56 127.476C200.222 126.589 197.713 126.72 194.955 127.769C192.198 128.818 190.235 130.388 190.573 131.275C190.91 132.162 193.419 132.03 196.177 130.981Z" fill="#6D5120"/>
<path d="M191.329 133.266C191.667 134.151 193.496 134.28 195.894 133.367C198.291 132.454 199.968 130.997 199.629 130.108C199.291 129.223 197.075 129.244 194.674 130.157C192.273 131.07 190.994 132.377 191.329 133.266Z" fill="#6D5120"/>
<path d="M195.673 134.57C197.123 134.018 198.133 133.137 197.929 132.6C197.726 132.064 196.385 132.077 194.935 132.628C193.485 133.18 192.475 134.061 192.679 134.598C192.883 135.134 194.223 135.121 195.673 134.57Z" fill="#6D5120"/>
<path d="M191.611 133.789C191.785 134.047 192.838 134.789 192.838 134.789L193.033 130.938L190.625 127.69L189.736 129.084C189.74 129.084 190.743 132.506 191.611 133.789Z" fill="#6D5120"/>
<path d="M234.136 165.418L238.325 230.975C238.325 230.975 234.377 231.878 232.906 231.917C231.572 231.955 227.101 231.289 227.101 231.289L226.466 226.114L223.243 202.7C223.243 202.7 224.553 199.312 224.459 198.563C224.393 198.029 220.263 196.175 220.263 196.175L217.977 163.64L214.423 168.126C214.423 168.126 211.6 179.313 210.126 183.44C208.624 187.64 206 197.252 204.944 201.584C204.62 202.909 204.515 205.655 204.25 206.993C203.069 212.998 197.044 230.387 197.044 230.387C197.044 230.387 193.51 231.195 191.876 230.756C190.562 230.404 185.579 229.592 185.579 229.592C185.579 229.592 190.973 189.682 192.531 177.031C193.374 170.179 190.353 160.821 190.353 160.821L214.987 149.082H230.826L234.136 165.418Z" fill="#112E4F"/>
</g>
<defs>
<clipPath id="clip0_280_7487">
<rect width="276" height="257" fill="white"/>
</clipPath>
</defs>
</svg>
