<svg xmlns="http://www.w3.org/2000/svg" width="481" height="337" viewBox="0 0 481 337">
    <defs>
        <linearGradient id="prefix__a" x1="50.568%" x2="47.331%" y1="52.549%" y2="37.914%">
            <stop offset="10.89%" stop-color="#E03171"/>
            <stop offset="100%" stop-color="#D02577"/>
        </linearGradient>
        <linearGradient id="prefix__b" x1="53.319%" x2="42.319%" y1="58.803%" y2="29.578%">
            <stop offset="13.95%" stop-color="#546FB5"/>
            <stop offset="78.83%" stop-color="#5360AC"/>
        </linearGradient>
        <linearGradient id="prefix__c" x1="48.373%" x2="50.616%" y1="99.45%" y2="38.655%">
            <stop offset=".559%" stop-color="#EEF5FB"/>
            <stop offset="38.18%" stop-color="#EAF0F9"/>
            <stop offset="75.98%" stop-color="#DDE2F3"/>
            <stop offset="100%" stop-color="#D1D6ED"/>
        </linearGradient>
        <linearGradient id="prefix__d" x1="36.341%" x2="129.181%" y1="35.326%" y2="135.059%">
            <stop offset="12.29%" stop-color="#637FBF"/>
            <stop offset="54.1%" stop-color="#546FB5"/>
        </linearGradient>
        <linearGradient id="prefix__e" x1="-.01%" x2="99.984%" y1="49.964%" y2="49.964%">
            <stop offset="0%" stop-color="#5672B7"/>
            <stop offset="45.25%" stop-color="#5670B6"/>
            <stop offset="71.23%" stop-color="#556CB3"/>
            <stop offset="92.27%" stop-color="#5464AE"/>
            <stop offset="100%" stop-color="#5360AC"/>
        </linearGradient>
    </defs>
    <g fill="none" fill-rule="evenodd">
        <g fill-rule="nonzero">
            <g>
                <path fill="#DFE4F3" d="M0.401 155.86L47.297 147.558 131.47 110.267 87.513 96.408 42.421 115.087z" transform="translate(0 1) translate(2 158.098) translate(27.39)"/>
                <path fill="#C5C2E1" d="M69.743 33.341L96.532 22.027 69.81 10.712 42.955 22.027z" transform="translate(0 1) translate(2 158.098) translate(27.39)"/>
                <path fill="#7F7CB5" d="M69.677 124.46L96.532 113.146 96.532 22.027 69.677 33.341z" transform="translate(0 1) translate(2 158.098) translate(27.39)"/>
                <path fill="#9C9BC6" d="M69.81 124.46L42.421 113.146 42.421 22.027 69.81 33.341z" transform="translate(0 1) translate(2 158.098) translate(27.39)"/>
                <path fill="#F05D96" d="M33.87 23.232L60.992 11.917 34.07 0.603 7.215 11.984z" transform="translate(0 1) translate(2 158.098) translate(27.39)"/>
                <path fill="url(#prefix__a)" d="M60.792 11.917L60.792 86.165 60.792 127.875 33.936 139.189 33.87 22.897z" transform="translate(0 1) translate(2 158.098) translate(27.39)"/>
                <path fill="#EE3E7E" d="M33.87 23.232L33.87 139.189 6.948 127.875 7.215 11.984z" transform="translate(0 1) translate(2 158.098) translate(27.39)"/>
            </g>
            <g>
                <path fill="#7B92CA" d="M27.724 23.232L54.512 11.917 27.79 0.603 0.935 11.917z" transform="translate(0 1) translate(2 158.098) translate(0 76.993)"/>
                <path fill="url(#prefix__b)" d="M27.724 78.867L54.512 67.486 54.512 11.917 27.724 23.232z" transform="translate(0 1) translate(2 158.098) translate(0 76.993)"/>
                <path fill="#637FBF" d="M27.79 78.867L0.401 67.486 0.401 11.917 27.79 23.232z" transform="translate(0 1) translate(2 158.098) translate(0 76.993)"/>
            </g>
        </g>
        <g stroke="#CACFE9" stroke-width="1.774">
            <path d="M214.597 68.048L161.452 51.086M54.825 73.814L1.68 56.919 2.217.335 55.295 17.297zM107.903 90.775L54.825 73.814 55.295 17.297 108.373 34.192zM214.059 124.632L160.981 107.67 161.452 51.086 214.597 68.048zM1.68 56.919L1.209 113.435" transform="translate(0 1) translate(265 .098)"/>
            <path d="M107.366 147.292L54.288 130.397 54.825 73.814 107.903 90.775zM160.511 164.254L107.366 147.292 107.903 90.775 160.981 107.67zM213.589 181.148L160.511 164.254 160.981 107.67 214.059 124.632zM1.209 113.435L.739 170.019M53.817 186.914L.739 170.019 1.209 113.435 54.288 130.397z" transform="translate(0 1) translate(265 .098)"/>
            <path d="M106.895 203.875L53.817 186.914 54.288 130.397 107.366 147.292zM159.973 220.77L106.895 203.875 107.366 147.292 160.511 164.254zM213.119 237.732L159.973 220.77 160.511 164.254 213.589 181.148z" transform="translate(0 1) translate(265 .098)"/>
        </g>
        <path stroke="#CACFE9" stroke-width="1.774" d="M427 52.098L374 34.098" transform="translate(0 1)"/>
        <path fill="url(#prefix__c)" fill-rule="nonzero" d="M235.067 149.253s12.73-19.572 36.033-12.558c17.847 5.344 8.418 6.947 29.836 8.617 12.594 1.002 32.328-26.318 63.443-19.238C420.751 138.9 440.552 81.454 465 104.7l-.337 135.399L235 169.56l.067-20.307z" transform="translate(0 1)"/>
        <path fill="#A9B2DA" fill-rule="nonzero" d="M234.828 170.088c-.414.066-.828-.201-.828-.602l.345-135.375c0-.468.345-.87.827-1.003.414-.067.828.2.828.602l-.345 135.375c0 .468-.345.936-.827 1.003zM291.828 187.088c-.414.066-.828-.201-.828-.602l.345-135.375c0-.468.345-.87.827-1.003.414-.067.828.2.828.602l-.345 135.375c-.069.468-.414.936-.827 1.003zM348.828 205.088c-.414.066-.828-.201-.828-.602l.345-135.375c0-.468.345-.87.827-1.003.414-.067.828.2.828.602l-.345 135.375c0 .468-.414.936-.827 1.003zM405.828 223.088c-.414.066-.828-.201-.828-.602l.345-135.375c0-.468.345-.87.827-1.003.414-.067.828.2.828.602l-.345 135.375c-.069.468-.414.869-.827 1.003zM463.828 240.088c-.414.066-.828-.201-.828-.602l.345-135.375c0-.468.345-.87.827-1.003.414-.067.828.2.828.602l-.345 135.375c-.069.468-.414.869-.827 1.003zM462.535 92.014l-7.134-2.744c-.764-.326-1.401-1.437-1.401-2.612 0-1.11.637-1.764 1.465-1.503l7.134 2.744c.764.326 1.401 1.437 1.401 2.612-.064 1.176-.7 1.83-1.465 1.503zM404.535 78.014l-7.134-2.744c-.764-.326-1.401-1.437-1.401-2.612 0-1.11.637-1.764 1.465-1.503l7.134 2.744c.764.326 1.401 1.437 1.401 2.612 0 1.176-.637 1.83-1.465 1.503zM348.535 62.04l-7.134-2.754c-.764-.328-1.401-1.442-1.401-2.623 0-1.114.637-1.77 1.465-1.508l7.134 2.754c.764.328 1.401 1.443 1.401 2.623 0 1.115-.637 1.77-1.465 1.508zM289.535 45.018l-7.134-2.745c-.764-.327-1.401-1.438-1.401-2.614 0-1.112.637-1.765 1.465-1.504l7.134 2.746c.764.326 1.401 1.438 1.401 2.614-.064 1.111-.7 1.83-1.465 1.503zM233.535 29.04l-7.134-2.754c-.764-.328-1.401-1.442-1.401-2.623 0-1.114.637-1.77 1.465-1.508l7.134 2.754c.764.328 1.401 1.443 1.401 2.623 0 1.115-.637 1.77-1.465 1.508z" transform="translate(0 1)"/>
        <path fill="#AFCCEB" fill-rule="nonzero" d="M462.535 249.923l-7.433-2.73h-.067l-5.508-2.016c-.797-.325-1.527.39-1.527 1.495s.664 2.276 1.46 2.6l7.434 2.731h.066l5.509 2.016c.796.325 1.526-.39 1.526-1.495.067-1.106-.597-2.276-1.46-2.601zM403.54 227.923l-7.436-2.73h-.067l-5.51-2.016c-.797-.325-1.527.39-1.527 1.495s.664 2.276 1.46 2.6l7.436 2.731h.067l5.51 2.016c.797.325 1.527-.39 1.527-1.495 0-1.106-.664-2.276-1.46-2.601zM226.535 172.923l-7.433-2.73h-.067l-5.508-2.016c-.797-.325-1.527.39-1.527 1.495s.664 2.276 1.46 2.6l7.434 2.731h.066l5.509 2.016c.796.325 1.526-.39 1.526-1.495.067-1.17-.597-2.276-1.46-2.601z" transform="translate(0 1)"/>
        <g>
            <path stroke="#3B4258" stroke-linecap="round" stroke-linejoin="round" stroke-width="1.845" d="M68.82 68.531L5.584 48.166c-2.759-.87-5.046-4.22-5.046-7.369V4.555C.538 1.407 2.825-.469 5.584.47L68.82 20.834c2.758.87 5.045 4.22 5.045 7.369v36.242c0 3.148-2.287 4.957-5.045 4.086z" transform="translate(0 1) translate(217 104.098)"/>
            <path fill="#788FC8" fill-rule="nonzero" d="M13.387 45.084L4.238 42.137 4.238 29.878 13.387 32.825zM26.573 49.372L17.424 46.424 17.424 26.863 26.573 29.811zM39.758 53.592L30.609 50.645 30.609 25.054 39.758 28.002zM52.944 57.88L43.795 54.932 43.795 26.863 52.944 29.811zM66.196 62.1L57.047 59.152 57.047 24.451 66.196 27.399z" transform="translate(0 1) translate(217 104.098)"/>
        </g>
        <path fill="url(#prefix__d)" fill-rule="nonzero" d="M257.786 105.499l-30.572-10.595C221.599 92.934 217 86.754 217 81.118V50.42c0-5.637 4.6-8.693 10.214-6.724l30.572 10.595c5.615 1.97 10.214 8.15 10.214 13.787v30.697c0 5.637-4.6 8.694-10.214 6.724z" transform="translate(0 1)"/>
        <path stroke="#FFF" stroke-linecap="round" stroke-linejoin="round" stroke-width="2.135" d="M232 70.779L238.362 86.098 253 64.098" transform="translate(0 1)"/>
        <path stroke="#3B4258" stroke-linecap="round" stroke-linejoin="round" stroke-width="1.845" d="M325 133.098c10.092-5.822 22.473-10.64 38.351-7.294 51.068 10.64 66.88-28.64 92.649-26.632" transform="translate(0 1)"/>
        <path stroke="#3B4258" stroke-linecap="round" stroke-linejoin="round" stroke-width="1.845" d="M449 97.098c4.016.652 8.448 2.022 7.963 1.956l-5.47 4.044" transform="translate(0 1)"/>
        <path fill="#DFE4F3" fill-rule="nonzero" d="M351.12 294.727c27.964-13.125 27.828-34.436-.338-47.63l-13.172 6.225c-27.491-7.51-63.29-5.818-86.73 5.21-27.964 13.125-27.828 34.436.338 47.629 28.167 13.193 73.558 13.26 101.522.135l-50.93-23.882L313.294 277l37.826 17.726z" transform="translate(0 1)"/>
        <g fill-rule="nonzero" transform="translate(0 1) translate(146 158.098)">
            <path fill="#F4908F" d="M17.275 27.391L2.308 45.966C.593 48.052.132 50.946.989 53.504L9.89 79.28l5.736-5.384V50.744l1.649-23.353z"/>
            <path fill="#8D8AC2" d="M18.264 25.91l-15.1 16.893c-1.054 1.144-1.186 2.827-.46 4.173 2.439 4.374 8.11 12.921 12.527 8.076 5.868-6.26 3.033-29.141 3.033-29.141z"/>
            <ellipse cx="29.802" cy="168.386" fill="#8488C2" opacity=".21" rx="21.429" ry="7.941"/>
            <path fill="#27437B" d="M14.44 157.954l4.879.606c3.23-1.144 4.681-2.221 6.197-.606l.396.471c.66 1.144.528 3.23-.527 4.105l-7.847 6.73c-1.648.875-4.747.202-5.34-2.22 0 0-.528-6.865.198-7.202 1.45-.807.725-1.211 2.044-1.884z"/>
            <path fill="#FFFCFA" d="M19.12 162.194c0 2.625-6.263 2.557-6.263-.067l.132-8.548 6.264.068-.132 8.547z"/>
            <path fill="#27437B" d="M21.297 154.387c-2.374 2.961-7.78 2.894-8.77.942.132-11.845-2.967-24.497 2.638-40.784L13.253 65.08l21.626 4.375-8.374 52.225-5.208 32.708zM35.077 166.03l6.264 1.077c4.615-.606 6.923-1.48 8.44.134l.395.472c.527 1.144-.33 2.96-2.044 3.634l-12.528 5.115c-2.44.605-5.01-.27-5.01-2.49 0 0 0-6.26 1.12-6.529 2.242-.47 1.385-.942 3.363-1.413z"/>
            <path fill="#FFFCFA" d="M38.308 169.126c0 2.625-6.264 2.557-6.264-.067l.132-8.548 6.264.068-.132 8.547z"/>
            <path fill="#27437B" d="M39.758 161.52c-2.176 3.03-7.582 2.962-8.769.943-.66-12.047-4.681-24.901-.132-41.457l-5.275-50.273 22.022 4.509-4.879 53.033-2.967 33.246z"/>
            <path fill="#F4908F" d="M41.67 14.94c0 5.183-4.483 8.346-8.307 6.125-3.825-2.22-6.923-8.21-6.923-13.393 0-5.182 3.098-7.537 6.923-5.316 3.758 2.22 8.307 7.403 8.307 12.585z"/>
            <path fill="#F4908F" d="M30.066 31.16l-.528-.135c-1.78-.403-2.9-2.22-2.44-3.97l2.243-10.095c.395-1.817 2.175-2.962 3.89-2.49l.527.134c1.78.404 2.901 2.221 2.44 3.97l-.791 10.029c-.33 1.75-3.627 2.96-5.341 2.557z"/>
            <path fill="#27437B" d="M24.593 19.988s1.055 3.433 7.253 2.558c4.681-.673 1.055-8.75 5.275-10.97 5.736-2.894 3.23-8.615.66-10.432-2.638-1.817-5.869-.606-9.825.875-4.22 1.615-9.89 5.115-3.363 17.97z"/>
            <path fill="#F4908F" d="M36.857 14.268c0 1.278-.989 2.288-2.242 2.288-1.252 0-2.241-1.01-2.241-2.288 0-1.279.989-2.289 2.241-2.289 1.253.068 2.242 1.077 2.242 2.289z"/>
            <path fill="#BC4242" d="M35.736 22.142l-.857-1.077s1.187.673 2.835-.067c0 0-.857.875-1.978 1.144z"/>
            <path fill="#27437B" d="M35.538 15.816c-.395.067-.79-.202-.857-.606l-1.45-4.778c-.066-.404.989-.202 1.384-.27.396-.067 1.517-.47 1.649-.067l-.066 4.846c0 .403-.264.807-.66.875z"/>
            <path fill="#F4908F" d="M46.484 26.718l.461-.538c1.253-1.413 1.187-3.567-.198-4.846l-2.373-2.22c-1.385-1.28-3.495-1.212-4.748.201l-.461.539c-1.253 1.413-1.187 3.567.198 4.845l2.373 2.221c1.319 1.279 3.429 1.212 4.748-.202z"/>
            <path fill="#F4908F" d="M47.802 24.16s10.154 17.97 9.824 28.603c-.197 6.394-7.978 2.289-7.978 2.289l-7.055-27.324 5.21-3.567z"/>
            <path fill="#AEABD0" d="M35.34 43.61l10.946 16.153c2.307 5.451 17.538.336 11.802-9.692-.198-.403-12.066-18.44-12.066-18.44S35.67 35.67 35.341 43.611z"/>
            <path fill="#AEABD0" d="M13.978 42.063L9.824 84.597s2.11 4.576 15.165 5.99c13.055 1.413 24.462-1.75 24.462-1.75l.725-39.64-4.088-17.633s.66-.539-9.429-4.577l-11.802-2.96s-6.395-.068-7.582 3.297c-1.253 3.432-3.297 14.739-3.297 14.739z"/>
            <path fill="#FFF" d="M24.857 24.026s-.989 3.096 2.506 4.106c3.56 1.01 9.23-1.145 9.23-1.145s-3.956-3.97-11.736-2.96z"/>
            <path fill="#8D8AC2" d="M49.45 88.837l.264-28.065-9.956-10.768-.791 40.582c0 .068 8.044.74 10.484-1.75z"/>
        </g>
        <g fill-rule="nonzero" transform="translate(0 1) translate(316 88.098)">
            <path fill="#27437B" d="M88.225 90.719s-1.893 20.59 9.33 19.253c11.222-1.337 8.721-16.379 8.721-16.379l-18.05-2.874z"/>
            <path fill="#5C6CB3" d="M80.18 99.744L90.254 106.162 97.825 107.699 95.054 114.652 88.09 112.446 78.152 104.357z"/>
            <path fill="#F4908F" d="M72.879 96.334c1.15-1.337 3.177-1.537 4.53-.4l1.757 1.47c1.352 1.136 1.555 3.142.406 4.546-1.15 1.337-3.178 1.537-4.53.401l-1.757-1.47c-1.42-1.137-1.555-3.21-.406-4.547z"/>
            <path fill="#637B94" d="M64.969 42.184c5.07 23.732-10.75 37.437-27.921 37.972-17.172.535-32.45-15.577-34.209-36.033C1.082 23.666 13.59 6.685 30.761 6.15c17.171-.534 29.881 15.978 34.208 36.034z" opacity=".4"/>
            <path fill="#2A357B" d="M70.58 98.34L64.361 106.63 49.69 78.284 57.262 72.535z"/>
            <path fill="#37469D" d="M93.904 128.758l-18.186-33.56c-.54-1.404-2.163-2.206-4.8-2.006-4.53.334-10.073 3.61-12.44 7.287-1.216 1.939-1.351 3.543-.54 4.68l4.26 7.822 18.05 33.359 17.915-9.694-4.259-7.888z"/>
            <ellipse cx="89.381" cy="141.876" fill="#2A357B" rx="10.112" ry="3.688" transform="rotate(-30.152 89.381 141.876)"/>
            <path fill="#2A357B" d="M44.755 7.955C27.583-1.136 9.532 7.621 4.462 27.543S9.194 70.997 26.366 80.09c17.172 9.092 35.223.334 40.293-19.588S61.927 17.047 44.755 7.955zM64.563 58.43c-4.326 16.914-22.242 23.933-36.845 16.178C13.115 66.852 4.8 46.93 9.127 29.95c4.327-16.914 20.89-26.674 35.493-18.986 14.603 7.822 24.27 30.551 19.943 47.465z"/>
            <path fill="#2A357B" d="M75.177 48.535c0-.468.068-.87.068-1.337v-.268-.601-.736-.4-.67-.534-.602-.668-.335c0-.267-.068-.601-.068-.869 0-.2 0-.4-.067-.601v-.134l-.203-1.605v-.133l-.203-1.404c0-.067 0-.134-.067-.2 0-.201-.068-.335-.068-.535-.068-.268-.068-.535-.135-.736 0-.134-.068-.334-.068-.468-.067-.2-.067-.4-.135-.602 0-.133-.068-.267-.068-.4-.067-.268-.135-.535-.202-.87-.068-.133-.068-.334-.136-.468 0-.067 0-.133-.067-.133-.135-.468-.27-1.003-.406-1.471v-.067c-.067-.134-.067-.267-.135-.401-.135-.401-.203-.735-.338-1.137 0-.066-.068-.133-.068-.2-.067-.334-.203-.602-.338-.936-.067-.267-.135-.468-.27-.735 0-.067-.068-.067-.068-.134-.27-.802-.608-1.605-.946-2.34 0-.067-.068-.134-.068-.2-.067-.201-.203-.402-.27-.602-.136-.334-.27-.602-.406-.936l-.406-.802c-.135-.335-.338-.602-.473-.936-.067-.134-.067-.2-.135-.335-.135-.267-.27-.468-.406-.735-.067-.134-.202-.334-.27-.468-.27-.535-.609-1.003-.879-1.538-.338-.534-.676-1.136-1.082-1.67 0 0 0-.068-.067-.068l-.812-1.203c-.067-.067-.135-.134-.135-.267-.338-.468-.676-.936-1.014-1.337l-.067-.067c-.136-.134-.203-.268-.338-.401-.203-.268-.474-.535-.676-.803l-.136-.133c-.135-.2-.338-.335-.473-.535-.203-.2-.338-.401-.54-.602l-.204-.2c-.202-.201-.338-.402-.54-.535-.136-.134-.27-.335-.474-.468-.067-.067-.203-.2-.27-.268-.203-.2-.406-.4-.609-.534l-.405-.402c-.135-.066-.203-.2-.338-.267-.203-.2-.406-.334-.609-.535-.135-.133-.27-.2-.338-.334-.135-.134-.27-.2-.405-.334-.203-.134-.406-.335-.609-.468-.135-.067-.203-.2-.338-.268-.135-.133-.338-.267-.54-.4-.203-.135-.406-.268-.542-.402l-.202-.2c-.203-.134-.474-.335-.676-.468-.136-.134-.338-.201-.474-.335-.067 0-.067-.067-.135-.067-.405-.267-.879-.534-1.284-.802l-.068-.067c-.406-.267-.811-.468-1.217-.668-.135-.067-.203-.134-.338-.134-.338-.2-.676-.334-1.014-.535l-.406-.2c-.202-.067-.338-.134-.54-.268l-.406-.2c-.203-.067-.406-.2-.676-.268-.135-.066-.338-.133-.473-.2-.068 0-.136-.067-.203-.067-.406-.134-.88-.334-1.285-.468-.405-.134-.879-.267-1.284-.401-.068 0-.135 0-.203-.067-.135-.067-.338-.067-.473-.134-.203-.067-.473-.133-.676-.2-.136 0-.203-.067-.338-.067-.203-.067-.406-.067-.609-.134-.135 0-.27-.067-.473-.067-.135 0-.338-.066-.473-.066-.203 0-.406-.067-.609-.067-.135 0-.203-.067-.338-.067-.203 0-.405-.067-.54-.067-.203 0-.474-.067-.677-.067H36.71c-.338 0-.676.067-1.014.067h-.135c-.27 0-.474.067-.744.067-.135 0-.338.067-.473.067-.136 0-.27 0-.338.067-.406.066-.88.133-1.285.267h-.067c-.136 0-.203.067-.339.067-.338.067-.743.2-1.081.267-.203.067-.338.134-.541.134-.203.067-.473.134-.676.2-.068 0-.135.067-.135.067l-1.014.401c-.136.067-.338.134-.474.201-.473.2-1.014.401-1.487.669L18.93 6.886c.473-.268 1.014-.468 1.487-.669.135-.067.338-.133.473-.2l1.014-.401c.27-.067.541-.201.88-.268.202-.067.337-.134.54-.134.338-.066.676-.2 1.082-.267.135 0 .202-.067.338-.067.473-.067.879-.2 1.352-.267.135 0 .27-.067.338-.067.405-.067.811-.134 1.217-.134h.135c.406-.067.811-.067 1.217-.067H31.369c.27 0 .54 0 .811.067.203 0 .474.067.676.067.27 0 .609.067.88.134.202 0 .405.067.608.067.338.067.608.133.946.2.203.067.406.067.609.134.338.067.676.134 1.014.267.135.067.338.067.473.134.473.134 1.014.267 1.487.468.473.134 1.014.334 1.488.535.135.067.338.134.473.2.338.134.676.268 1.014.468.203.067.338.134.54.268.474.2.947.468 1.353.668.54.268 1.014.535 1.487.87l.068.066c.473.268.946.602 1.42.936.135.134.338.2.473.334.338.201.608.402.946.669.203.134.406.267.541.401.27.2.54.401.811.669.203.133.406.334.609.468.27.2.54.4.743.668.203.2.406.334.609.535.27.2.473.468.744.668.202.201.405.402.608.535l.744.736.54.534c.27.268.474.535.744.803.135.2.338.334.473.534l.812 1.003c.135.134.202.268.338.401.338.468.743.936 1.081 1.404.068.067.136.134.136.2.27.402.608.803.878 1.271.339.535.744 1.07 1.082 1.671.27.468.609 1.003.879 1.538.068.134.203.334.27.468.203.334.338.668.541 1.003.136.334.338.601.474.936l.405.802c.135.334.27.602.406.936.135.267.203.535.338.802.338.802.608 1.538.946 2.34.136.267.203.602.338.869.136.334.203.602.338.936.136.401.27.869.406 1.27.068.134.068.267.135.401.135.535.338 1.137.473 1.671.068.134.068.335.136.468.135.402.202.87.27 1.27.068.201.068.402.135.602l.203 1.204c0 .2.068.334.068.534.067.535.203 1.07.27 1.605v.134l.203 1.805c0 .2 0 .4.068.601 0 .401.067.803.067 1.204v.668c0 .401 0 .736.068 1.137v2.473c0 .535-.068 1.003-.068 1.538v.2c-.067.602-.067 1.204-.135 1.739 0 .133-.068.334-.068.467-.067.402-.135.87-.202 1.27 0 .201-.068.402-.068.602l-.203 1.204c-.067.2-.067.4-.135.601-.135.535-.27 1.137-.406 1.672-.135.601-.338 1.136-.473 1.738-.068.134-.135.334-.135.468-.135.4-.27.802-.406 1.136-.067.2-.135.468-.27.669-.135.334-.27.668-.338.936-.068.2-.203.468-.27.668-.136.268-.271.602-.406.87-.136.267-.27.534-.338.735-.136.267-.27.535-.406.735-.135.268-.338.602-.473.87-.135.2-.27.467-.406.668l-.608 1.003-.406.601c-.068.134-.135.2-.203.334-.27.335-.473.669-.743 1.003-.068.067-.068.134-.136.2-.338.402-.608.803-.946 1.204-.338.401-.676.736-1.014 1.137l-.203.2-.811.802-.338.335c-.27.267-.541.468-.812.668l-.27.268c-.338.267-.744.601-1.082.869-.067.067-.135.067-.135.133-.338.268-.676.468-1.014.669-.135.067-.27.134-.338.267-.27.2-.54.335-.879.535-.135.067-.27.134-.338.2-.406.201-.811.469-1.217.67l7.978-3.945c.405-.2.81-.401 1.217-.669.135-.066.27-.133.338-.2.27-.2.54-.334.878-.535.136-.067.27-.134.338-.267.339-.2.677-.468 1.015-.669.067-.067.135-.067.135-.134.338-.267.743-.534 1.081-.869.136-.067.203-.2.27-.267.271-.2.542-.468.812-.669l.338-.334.811-.802.203-.2.068-.068c.338-.334.676-.735.946-1.07.338-.333.609-.735.947-1.136l.067-.067c.068-.066.068-.133.136-.2.27-.334.473-.669.743-1.003.068-.134.136-.2.203-.334.068-.067.135-.134.135-.2.068-.134.136-.268.27-.402l.61-1.003c.067-.066.134-.2.134-.267l.203-.401c.135-.267.338-.602.473-.87.068-.133.136-.267.203-.333l.203-.402c.135-.267.27-.534.338-.735l.203-.401c.068-.134.135-.334.203-.468.067-.2.203-.468.27-.669.068-.133.068-.2.135-.334l.203-.601c.068-.201.135-.402.27-.669 0-.067.068-.2.068-.267.068-.268.203-.602.27-.87.068-.133.136-.334.136-.467 0-.067 0-.067.068-.134.135-.468.27-1.003.405-1.538v-.067c.135-.468.203-.936.338-1.404 0-.066.068-.2.068-.267.067-.2.067-.401.135-.602.068-.2.068-.468.135-.668 0-.2.068-.334.068-.535 0-.2.067-.401.067-.602 0-.133.068-.267.068-.4.068-.268.068-.602.135-.87 0-.133.068-.334.068-.468v-.133c.067-.535.135-1.07.135-1.538v-.067c.27-.2.27-.267.27-.334z"/>
            <path fill="#5C6CB3" d="M44.146 6.552C35.763 2.139 26.84 1.604 18.997 5.08c-8.45 3.744-14.603 11.565-17.24 21.994-5.205 20.323 4.868 44.457 22.446 53.75 5.138 2.74 10.479 3.944 15.617 3.743 3.245-.133 6.49-.869 9.532-2.273 8.45-3.743 14.603-11.565 17.24-21.994 5.205-20.323-4.868-44.457-22.446-53.75zm18.457 52.412c-2.366 9.159-7.707 16.044-15.211 19.387-2.705 1.203-5.477 1.872-8.384 2.006-4.53.2-9.262-.87-13.723-3.276C9.803 68.925.946 47.666 5.544 29.749c2.366-9.158 7.707-16.044 15.21-19.387 6.897-3.075 14.739-2.607 22.108 1.27 15.414 8.223 24.27 29.415 19.74 47.332z"/>
            <path fill="#DFE4F3" d="M88.834 227.833c7.64-2.942 20.687-3.276 29.205-.669 4.124 1.27 6.355 2.942 6.761 4.68.338-.134.744-.334 1.15-.468 4.19-1.47 10.816-1.538 14.67-.134 3.853 1.337 3.65 3.61-.609 5.081-4.191 1.47-10.817 1.538-14.67.134-1.014-.334-1.758-.736-2.164-1.204-.878.669-2.028 1.338-3.583 1.94-7.64 2.94-20.687 3.275-29.205.668-8.519-2.54-9.195-7.02-1.555-10.028z"/>
            <path fill="#F4908F" d="M130.75 220.68c.473 3.275 4.732.133 4.664-2.407-5.679-16.98-11.628-30.752-18.389-36.3l-2.23-36.235-20.553-5.348 10.885 46.997 25.622 33.293z"/>
            <path fill="#27437B" d="M97.42 228.568l-4.868 1.738c-3.718.201-5.679-.133-6.625 1.337l-.27.402c-.947 1.47-.203 2.206 1.96 2.807l9.803 2.006c2.84.602 3.583-.334 4.259-2.072 0 0 .406-2.14-1.623-4.68-1.081-1.337-1.014-1.47-2.636-1.538z"/>
            <path fill="#F4908F" d="M94.445 230.841c1.082 2.674 5.814 2.006 5.679-.2 4.327-33.828.946-35.766.946-43.187 0-8.223 1.488-17.114 7.099-32.824l-5.273.935c-8.45 1.471-14.535 8.758-14.468 17.248.135 20.992 1.42 37.571 6.017 58.028z"/>
            <path fill="#27437B" d="M89.78 141.928l-2.366 44.256s16.023 13.103 35.155-3.878c-4.327-5.95-5.003-13.57-4.597-21.727 1.622-7.688-.473-13.972-2.772-19.454l-25.42.803z"/>
            <path fill="#F4908F" d="M102.355 112.111l.54-.133c1.759-.401 2.84-2.206 2.435-3.945l-2.367-9.827c-.405-1.738-2.23-2.808-3.988-2.407l-.541.134c-1.758.401-2.84 2.206-2.434 3.944l.879 9.76c.406 1.739 3.718 2.876 5.476 2.474z"/>
            <path fill="#5C6CB3" d="M115.132 141.125c-.135-7.755-.405-9.426.744-18.25.406-2.942.135-3.81.406-6.82.405-5.214-2.096-14.707-10.75-12.1l-.81.535c-1.285.335-2.502.87-3.72 1.471-12.641 6.752-17.441 7.554-15.346 15.51.676 6.016 5.612 7.62 3.99 20.39 2.906 8.557 22.715 5.415 25.486-.736z"/>
            <path fill="#FFFCFA" d="M104.856 103.22c1.082-.267 2.029.602 1.893 1.671-.203 1.204-.879 2.608-3.042 3.343-2.975 1.07-6.287.602-7.91.2-.405-.066-.473-.601-.135-.802 1.758-1.002 6.017-3.543 9.194-4.412z"/>
            <path fill="#27437B" d="M130.75 220.947l1.216 5.014c-.27 3.744-.811 5.616.541 6.752l.406.334c1.352 1.137 2.772.401 3.11-1.604l2.974-9.092c.338-2.006-.811-3.677-2.434-4.546 0 0-1.42-.802-3.786.735-1.554 1.003-1.757.803-2.028 2.407z"/>
            <path fill="#F4908F" d="M97.285 232.58l-6.22-.268c-.744-.067-.947-1.003-.27-1.404l3.853-2.34 2.637 4.011zM134.197 217.738s-1.42 7.22-2.23 8.223l-1.623-6.15 1.014-3.61 2.84 1.537z"/>
            <path fill="#223B6C" d="M118.31 158.574s-2.164 3.944-3.786 4.145c0 0 2.163.133 3.38-.736l.406-3.41zM87.346 186.117l2.367-44.256 5.814 3.275s-4.057 39.243-.338 44.858c0 0-3.854-.802-7.843-3.877z"/>
            <path fill="#F4908F" d="M62.265 117.994c1.081-1.403 3.11-1.738 4.53-.668l1.892 1.404c1.42 1.07 1.758 3.075.676 4.479-1.081 1.404-3.11 1.738-4.53.668l-1.892-1.403c-1.42-1.07-1.758-3.076-.676-4.48z"/>
            <path fill="#5565AE" d="M89.78 141.928s.541-7.755-.54-10.028c-1.082-2.273-5.409-11.833-5.409-11.833l2.434-3.009c2.772 4.613 8.45 4.88 9.465 29.55-.068-.068-5.274-1.07-5.95-4.68z"/>
            <path fill="#5C6CB3" d="M93.363 122.674l-8.383 15.577c-1.284 2.473-4.732 2.807-6.49.668l-12.44-14.507 3.99-4.947 8.045 8.29c.81.802 2.163.602 2.636-.468l4.868-11.298 7.774 6.685z"/>
            <path fill="#27437B" d="M88.09 92.056s-.203 8.557 5.003 9.56c5.138 1.002 3.515-16.179 3.515-16.179l-8.518 6.619z"/>
            <path fill="#F4908F" d="M101.746 85.437c-1.42-2.005-3.38-2.273-5.07-.936-1.825-.601-4.732.803-6.355 3.477-1.352 2.206-.811 9.092.473 12.434.609 1.471 2.164 1.872 3.38 1.805 2.637-.2 3.313-.2 4.327-.668 3.786-1.738 3.922-1.137 5.138-3.744 1.826-4.011.203-9.426-1.893-12.368z"/>
            <path fill="#27437B" d="M95.121 86.64c-1.352 1.471 3.516 10.697 8.383 14.44 0 0 7.775-1.537 5.206-10.094-3.178-10.63-8.045-5.616-8.045-5.616l-5.544 1.27z"/>
            <path fill="#27437B" d="M102.287 87.844c-4.53-1.003-8.924-2.674-13.926 4.813-.676-.869-.27-3.676 1.284-5.415 2.434-2.674 3.786-3.944 6.76-5.147l.744-.2c4.462-1.271 7.166.066 8.924 4.21.135.335 1.217 2.006 1.285 2.274l-1.555-.268c.743 2.608-.947-1.07-3.516-.267z"/>
            <path fill="#F4908F" d="M101.95 95.666c.27 1.203-.474 2.406-1.69 2.674-1.218.267-2.435-.468-2.705-1.671-.27-1.204.473-2.407 1.69-2.675 1.217-.267 2.434.468 2.704 1.672z"/>
        </g>
        <g fill-rule="nonzero">
            <path fill="url(#prefix__e)" d="M116.303 104.853c-26.396 12.196-69.272 12.13-95.87-.132-26.53-12.328-26.664-32.212-.267-44.407 26.396-12.195 19.16-14.316 45.69-2.055l31.823 8.153 18.356 2.65.268 35.791z" transform="translate(0 1) translate(220 197.098)"/>
            <path fill="#425EAB" d="M.603 44.672L.469 81.126s-2.68 13.388 19.964 23.595V76.884L7.034 64.092l-4.622-7.954L.603 44.672z" transform="translate(0 1) translate(220 197.098)"/>
            <path fill="#DC2D6E" d="M116.102 60.115s20.836-5.899 19.697-29.693c-.067-1.922 0-8.351 0-8.351-7.101-8.55-19.697 21.607-19.697 21.607v16.437z" transform="translate(0 1) translate(220 197.098)"/>
            <path fill="#425EAB" d="M20.433 76.884c-26.53-12.328-26.664-32.212-.267-44.407l48.102 22.27L20.5 69.195v7.689h-.067z" transform="translate(0 1) translate(220 197.098)"/>
            <path fill="#8CB1DD" d="M94.865 31.35c-26.53-12.328-48.37-11.135-74.7 1.127l48.103 22.27 26.664 14.448V31.35h-.067z" transform="translate(0 1) translate(220 197.098)"/>
            <path fill="#637FBF" d="M116.303 69.328c-26.396 12.195-69.272 12.129-95.87-.133-26.53-12.328-26.664-32.211-.267-44.407 26.396-12.195 69.272-12.129 95.87.133L68.2 47.058l48.102 22.27z" transform="translate(0 1) translate(220 197.098)"/>
            <path fill="#4A68B1" d="M20.433 69.195c-26.53-12.328-26.664-32.211-.267-44.407l48.102 22.27-47.835 22.137z" transform="translate(0 1) translate(220 197.098)"/>
            <path fill="#AFCCEB" d="M115.968 24.92c-26.53-12.327-69.473-12.393-95.87-.132l48.103 22.27 47.767-22.137z" transform="translate(0 1) translate(220 197.098)"/>
            <path fill="#F05D96" d="M115.834.331c26.53 12.328 26.665 32.212.268 44.407L68 22.468 115.834.332z" transform="translate(0 1) translate(220 197.098)"/>
            <path fill="#2D4583" d="M68.134 47.124l.067-.066-48.102-22.27C8.173 30.29 1.675 37.381.603 44.606c21.907.861 51.921 1.922 67.531 2.518z" transform="translate(0 1) translate(220 197.098)"/>
            <path fill="#FFF" d="M68.134 47.124l.067-.066 48.102 22.27c-11.925 5.501-27.2 8.55-42.81 9.08-1.808-10.14-4.153-24.06-5.359-31.284z" transform="translate(0 1) translate(220 197.098)"/>
            <path fill="#EE3E7E" d="M68.067 22.469L68.067 36.851 116.102 60.115 116.102 44.738z" transform="translate(0 1) translate(220 197.098)"/>
            <path fill="#AFCCEB" d="M73.427 78.408v35.46s24.05.397 42.81-9.08v-35.46c.066 0-18.558 8.948-42.81 9.08z" transform="translate(0 1) translate(220 197.098)"/>
        </g>
        <path stroke="#FFF" stroke-linecap="round" stroke-linejoin="round" stroke-width=".798" d="M335 265.688c-26.297 12.603-69.013 12.535-95.51-.137-11.347-5.48-17.888-12.33-19.49-19.453" transform="translate(0 1)"/>
        <g>
            <path fill="#DFE4F3" fill-rule="nonzero" d="M23.563 104.612l28.302-10.36c3.859-1.404 7.041-6.752 7.041-11.832v-1.47c0-5.081-3.182-8.089-7.041-6.685l-28.303 10.36c-3.859 1.404-7.041 6.752-7.041 11.832v1.47c0 5.081 3.182 8.089 7.041 6.685z" transform="translate(0 1) translate(131 40.098)"/>
            <path stroke="#A9B2DA" stroke-linecap="round" stroke-linejoin="round" stroke-width="1.774" d="M53.896 0.201L53.896 105.08 0.068 124.799 0.068 17.513z" transform="translate(0 1) translate(131 40.098)"/>
            <path fill="#A9B2DA" fill-rule="nonzero" d="M24.917 35.294l19.432-7.085c.812-.335 1.49-1.137 1.557-2.073.203-1.403-.948-2.406-2.234-1.938L24.24 31.283c-.813.335-1.49 1.137-1.558 2.073-.135 1.403.948 2.406 2.235 1.938zM24.917 55.147l19.432-7.086c.812-.334 1.49-1.136 1.557-2.072.203-1.403-.948-2.406-2.234-1.938L24.24 51.136c-.813.335-1.49 1.137-1.558 2.073-.135 1.403.948 2.406 2.235 1.938zM24.917 75l19.432-7.086c.812-.334 1.49-1.136 1.557-2.072.203-1.403-.948-2.406-2.234-1.938L24.24 70.989c-.813.335-1.49 1.137-1.558 2.072-.135 1.404.948 2.407 2.235 1.939z" transform="translate(0 1) translate(131 40.098)"/>
            <path fill="#788FC8" fill-rule="nonzero" d="M7.177 41.711l4.875-1.805c.745-.267 1.287-1.27 1.287-2.205v-5.08c0-.937-.61-1.538-1.287-1.27l-4.875 1.804c-.745.267-1.286 1.27-1.286 2.206v5.08c0 1.003.609 1.538 1.286 1.27zM7.177 62.3l4.875-1.805c.745-.268 1.287-1.27 1.287-2.206v-5.08c0-.936-.61-1.538-1.287-1.27l-4.875 1.804c-.745.268-1.286 1.27-1.286 2.206v5.08c0 1.003.609 1.538 1.286 1.27zM7.177 82.955l4.875-1.805c.745-.268 1.287-1.27 1.287-2.206v-5.08c0-.936-.61-1.538-1.287-1.27l-4.875 1.804c-.745.268-1.286 1.27-1.286 2.206v5.08c0 .936.609 1.538 1.286 1.27z" transform="translate(0 1) translate(131 40.098)"/>
            <path fill="#F05D96" fill-rule="nonzero" d="M29.047 106.684l28.302-10.36c3.86-1.404 7.042-6.752 7.042-11.832v-1.47c0-5.08-3.183-8.089-7.042-6.685l-28.302 10.36c-3.86 1.405-7.042 6.752-7.042 11.832V100c0 5.147 3.183 8.088 7.042 6.684z" transform="translate(0 1) translate(131 40.098)"/>
            <path fill="#FFF" fill-rule="nonzero" d="M31.688 96.59l24.578-9.023c.474-.2.88-.87.88-1.538s-.406-1.07-.88-.869l-24.578 9.024c-.474.201-.88.87-.88 1.538-.068.668.338 1.003.88.869z" transform="translate(0 1) translate(131 40.098)"/>
        </g>
        <path fill="#27437B" fill-rule="nonzero" d="M417 186.66s2.717 3.398 1.811 6.048c-.905 2.65-3.065 7.68 1.184 11.077 4.25 3.398 10.45 3.33 10.658 12.368.21 9.039 14.002 8.087 15.256 3.738 1.254-4.35-10.867-10.465-8.22-17.737 2.647-7.271-10.17-12.164-11.703-21.542-1.532-9.446-6.478-9.514-6.478-9.514l2.786 16.513-5.294-.951z" transform="translate(0 1)"/>
        <path stroke="#A9B2DA" stroke-linecap="round" stroke-linejoin="round" stroke-width="1.774" d="M97.5 162.098L97.5 110.098M49.5 108.098L49.5 154.098M19.5 231.098L19.5 179.098" transform="translate(0 1)"/>
        <path fill="#DFE4F3" fill-rule="nonzero" d="M34.158 83.368l-.134.87c-.2 1.604.87 2.808 2.407 2.607 1.404-.133 1.806 1.471.736 2.608-1.27 1.27-1.538 3.143-.602 4.146l.468.535c.936 1.003 2.741.802 4.012-.468 1.136-1.137 2.674-.602 2.474.802-.2 1.605.869 2.808 2.407 2.608l.802-.067c1.538-.2 3.009-1.672 3.276-3.276.201-1.472 2.006-2.34 2.809-1.472.936 1.003 2.741.803 4.011-.468l.67-.668c1.27-1.27 1.537-3.143.6-4.146-.802-.87.135-2.742 1.472-2.875 1.538-.2 3.009-1.672 3.276-3.277l.134-.869c.2-1.605-.87-2.808-2.407-2.608-1.404.134-1.806-1.47-.736-2.608 1.27-1.27 1.538-3.142.602-4.145l-.468-.535c-.936-1.003-2.741-.803-4.012.468-1.136 1.137-2.674.602-2.474-.803.2-1.604-.869-2.808-2.407-2.607l-.802.067c-1.538.2-3.009 1.671-3.276 3.276-.201 1.471-2.006 2.34-2.809 1.471-.936-1.003-2.741-.802-4.011.468l-.67.669c-1.27 1.27-1.537 3.143-.6 4.146.802.869-.135 2.741-1.472 2.875-1.605.2-3.076 1.671-3.276 3.276zm7.288-.468c.602-4.012 4.212-7.69 8.09-8.158 3.878-.468 6.553 2.408 6.018 6.486-.535 4.08-4.212 7.69-8.09 8.158-3.878.468-6.553-2.407-6.018-6.486zM93.857 108.236l-13.714 4.739C79 113.37 78 112.777 78 111.725c0-1.12.929-2.37 2.143-2.765l13.714-4.74c1.143-.394 2.143.198 2.143 1.251 0 1.12-1 2.37-2.143 2.765zM15.857 177.236l-13.714 4.739C1 182.37 0 181.777 0 180.725c0-1.12.929-2.37 2.143-2.765l13.714-4.74c1.143-.394 2.143.198 2.143 1.251 0 1.12-1 2.37-2.143 2.765z" transform="translate(0 1)"/>
    </g>
</svg>
