<svg width="422" height="235" viewBox="0 0 422 235" fill="none" xmlns="http://www.w3.org/2000/svg">
<path d="M118.03 11.2985C119.768 10.579 120.972 8.87679 120.972 6.84794C120.972 4.1637 118.899 2.00391 116.357 2.00391C113.817 2.00391 111.743 4.1637 111.743 6.78247C111.743 8.81133 112.947 10.579 114.686 11.2985C107.597 12.346 107.865 19.939 107.865 19.939L124.717 20.0045C124.717 20.0045 125.118 12.346 118.03 11.2985Z" fill="#E0E0E0"/>
<path d="M391.27 51.162L383.446 42.9143L385.987 40.6229L391.337 46.318L402.705 35.3867L405.112 37.8084L391.27 51.162Z" fill="#F5F5F5"/>
<path d="M278.055 96.0656C278.055 90.4352 272.036 86.9013 265.884 89.7158C264.48 90.3705 263.343 91.418 262.674 92.7273C261.136 95.6721 261.805 99.0103 263.21 101.76L268.024 113.607C268.694 115.309 271.167 115.309 271.836 113.607L276.517 101.695C278.122 98.0944 278.055 96.0649 278.055 96.0649V96.0656ZM272.304 100.974C268.158 103.331 264.012 99.0103 266.219 94.6907C266.553 94.1015 266.954 93.6432 267.556 93.3159C271.703 90.959 275.848 95.2799 273.641 99.5995C273.307 100.189 272.839 100.647 272.304 100.974Z" fill="#EBEBEB"/>
<path d="M349.14 177.624C336.233 166.105 335.498 147.843 338.307 131.871C338.774 129.188 338.842 126.373 340.513 124.147C342.185 121.987 345.462 120.809 347.802 122.249C349.742 123.493 350.276 125.915 351.213 127.944C352.417 130.693 354.356 133.115 356.897 134.817C358.569 135.93 360.642 136.781 362.514 136.061C365.055 135.078 365.791 131.937 366.192 129.319C366.861 124.344 367.53 119.369 368.198 114.46C368.533 111.776 368.934 109.093 370.138 106.67C371.341 104.249 373.548 102.154 376.29 101.827C379.031 101.5 382.041 103.398 382.242 106.016C382.308 107.129 381.907 108.242 381.84 109.354C381.773 110.467 382.108 111.776 383.177 112.235C384.248 112.693 385.452 112.104 386.388 111.449C389.598 109.157 392.005 105.95 394.278 102.743C396.553 99.5356 398.826 96.2628 401.768 93.6447C404.778 91.0907 408.657 89.1928 412.602 89.5202C416.547 89.8475 420.426 92.7275 420.894 96.6549C421.362 100.517 418.553 104.052 415.678 106.735C411.398 110.728 406.516 114.132 401.233 116.815C400.297 117.274 399.227 117.797 398.759 118.779C397.89 120.482 399.428 122.445 401.166 123.296C403.106 124.213 405.379 124.344 407.52 124.867C409.659 125.391 411.799 126.634 412.401 128.729C413.137 131.609 410.395 134.162 407.787 135.667C402.637 138.81 396.887 141.035 391.002 142.278C388.862 142.736 386.655 143.064 384.849 144.242C383.044 145.421 381.707 147.646 382.442 149.675C383.177 151.704 385.585 152.621 387.792 152.555C389.999 152.49 392.005 151.573 394.145 151.115C398.09 150.264 402.972 151.18 404.978 154.65C406.249 156.94 406.048 159.821 404.845 162.243C403.708 164.6 401.768 166.497 399.762 168.264C392.74 174.352 384.181 178.803 375.02 180.571C365.724 182.207 357.432 181.88 349.14 177.625" fill="#EBEBEB"/>
<path d="M350.21 184.106C351.681 177.822 351.346 175.923 354.891 168.134C358.435 160.41 363.116 152.163 368.265 143.784C369.536 141.689 370.873 139.595 372.144 137.566C373.414 135.536 374.685 133.507 376.023 131.609C378.698 127.812 381.573 124.343 384.448 121.136C387.324 117.929 390.132 114.983 392.807 112.234C395.482 109.484 398.024 106.997 400.431 104.837C405.245 100.452 409.526 97.3754 412.602 95.3458C414.14 94.3645 415.343 93.5788 416.146 93.1199C416.547 92.8587 416.881 92.7277 417.083 92.5968C417.283 92.4659 417.417 92.4004 417.417 92.4004C417.417 92.4004 417.35 92.4659 417.083 92.5968C416.882 92.7277 416.547 92.9241 416.146 93.186C415.343 93.7098 414.14 94.4954 412.668 95.4768C409.659 97.5063 405.379 100.648 400.632 105.034C398.224 107.194 395.683 109.746 393.075 112.496C390.4 115.245 387.591 118.19 384.783 121.398C381.974 124.605 379.098 128.074 376.423 131.871C375.086 133.769 373.816 135.733 372.545 137.828C371.275 139.857 370.004 141.952 368.734 144.046C363.584 152.425 358.903 160.606 355.359 168.33C351.748 176.054 352.149 177.953 350.611 184.171" fill="#E0E0E0"/>
<path d="M376.089 131.674C376.089 131.674 376.022 131.281 376.022 130.495C375.956 129.71 375.956 128.663 375.956 127.289C375.956 124.604 376.022 120.873 376.156 116.749C376.29 112.626 376.357 108.895 376.29 106.211C376.29 104.837 376.223 103.789 376.156 103.004C376.089 102.218 376.089 101.825 376.156 101.825L376.357 103.004C376.423 103.724 376.557 104.837 376.625 106.211C376.759 108.895 376.759 112.626 376.625 116.749C376.491 120.809 376.357 124.539 376.29 127.289C376.29 128.598 376.223 129.645 376.223 130.496C376.156 131.215 376.156 131.674 376.089 131.674Z" fill="#E0E0E0"/>
<path d="M412.401 130.038H412C411.732 130.038 411.331 130.038 410.93 129.972C409.993 129.907 408.656 129.841 407.051 129.776C403.774 129.645 399.227 129.711 394.211 129.907C389.196 130.169 384.649 130.562 381.372 130.954C379.767 131.15 378.43 131.347 377.493 131.478C377.092 131.543 376.758 131.609 376.423 131.609C376.156 131.609 376.022 131.674 376.022 131.609C376.022 131.609 376.156 131.543 376.357 131.478C376.625 131.412 376.959 131.347 377.427 131.281C378.364 131.085 379.634 130.888 381.306 130.626C384.582 130.169 389.129 129.71 394.145 129.448C399.161 129.187 403.707 129.252 407.051 129.448C408.723 129.514 410.061 129.645 410.93 129.776C411.331 129.841 411.666 129.841 412 129.907C412.267 129.972 412.401 130.038 412.401 130.038ZM355.359 167.61C355.359 167.61 355.292 167.479 355.158 167.152C355.025 166.825 354.891 166.366 354.757 165.843C354.423 164.664 353.888 163.028 353.353 160.933C352.216 156.809 350.812 150.984 349.341 144.635C347.869 138.22 346.532 132.46 345.395 128.27C344.86 126.241 344.391 124.539 344.124 123.361C343.991 122.838 343.857 122.379 343.79 122.052C343.723 121.725 343.656 121.594 343.723 121.594C343.723 121.594 343.79 121.725 343.924 122.052C344.058 122.379 344.191 122.838 344.325 123.361C344.659 124.54 345.195 126.176 345.729 128.27C346.866 132.394 348.271 138.22 349.742 144.569C351.213 150.984 352.55 156.744 353.687 160.933C354.222 162.963 354.69 164.664 354.958 165.843C355.092 166.366 355.225 166.825 355.292 167.152C355.359 167.414 355.359 167.61 355.359 167.61ZM404.444 159.297C404.444 159.297 404.242 159.363 403.975 159.428C403.574 159.494 403.106 159.559 402.57 159.69C401.3 159.886 399.495 160.214 397.288 160.607C392.874 161.326 386.722 162.439 379.968 163.748C373.214 164.992 367.061 166.039 362.58 166.759C360.375 167.087 358.569 167.348 357.298 167.545C356.696 167.61 356.228 167.676 355.827 167.741C355.492 167.806 355.292 167.806 355.292 167.806C355.292 167.806 355.492 167.741 355.76 167.675C356.162 167.61 356.629 167.544 357.164 167.413C358.435 167.218 360.241 166.889 362.447 166.497C366.861 165.777 373.014 164.599 379.767 163.356C386.521 162.112 392.674 161.064 397.087 160.344C399.294 160.017 401.099 159.755 402.37 159.558C402.972 159.494 403.44 159.427 403.841 159.363C404.309 159.297 404.444 159.297 404.444 159.297Z" fill="#E0E0E0"/>
<path d="M2.00648 97.3096C2.00648 97.3096 6.01865 92.8577 15.0469 102.677C24.1407 112.496 28.2205 118.451 28.2205 118.451C28.2205 118.451 30.427 120.415 31.6972 118.387C32.9682 116.357 33.9714 111.383 37.0473 111.383C40.257 111.448 42.0634 114.394 42.8651 119.238C43.6006 124.146 45.674 134.75 45.8748 135.732C46.0748 136.649 47.0111 137.893 48.0143 136.649C49.0845 135.405 54.3669 125.194 59.1822 127.877C63.9968 130.627 63.7967 144.569 63.7967 146.074C63.7967 147.58 64.2645 148.104 65.0669 148.3C65.8694 148.497 67.2735 144.831 68.8783 142.016C70.4832 139.136 72.8905 136.125 75.4986 137.958C78.1736 139.792 81.4503 149.282 76.4356 167.544L73.5598 175.857L64.7323 177.691C45.607 180.505 36.3118 176.185 34.7738 173.37C33.2359 170.621 36.5795 168.592 39.6554 167.349C42.7312 166.105 46.5433 165.123 46.4764 164.337C46.4095 163.551 45.941 163.028 44.3361 162.897C42.7982 162.701 28.6214 161.261 26.4148 156.286C24.2076 151.311 35.1747 147.318 36.5795 146.467C37.9836 145.551 36.8472 144.569 35.9102 144.241C34.9739 143.979 24.4084 140.707 19.5269 139.463C14.6446 138.154 11.8365 135.994 12.1711 132.918C12.5051 129.906 17.7212 129.449 19.8608 128.532C22.068 127.55 20.3293 125.194 20.3293 125.194C20.3293 125.194 14.7785 120.546 5.81787 110.598C-3.07584 100.647 2.00648 97.2434 2.00648 97.2434" fill="#EBEBEB"/>
<path d="M10.1647 106.08L10.3655 106.276C10.4993 106.407 10.6332 106.604 10.8333 106.8C11.3017 107.259 11.9034 107.979 12.7058 108.83C14.3107 110.597 16.6511 113.149 19.5269 116.292C25.2778 122.576 33.2359 131.281 42.0627 140.903C50.8901 150.525 58.8475 159.231 64.5315 165.581C67.3404 168.788 69.6138 171.34 71.2187 173.108C72.0218 174.025 72.6235 174.679 73.0244 175.203C73.2251 175.399 73.359 175.596 73.4928 175.727C73.6267 175.858 73.6267 175.923 73.6267 175.923L73.4259 175.726C73.2921 175.595 73.1582 175.399 72.9574 175.202C72.4896 174.745 71.888 174.024 71.0855 173.174C69.4807 171.406 67.1403 168.853 64.2645 165.711C58.5136 159.362 50.5555 150.722 41.728 141.1C32.9012 131.477 25.0101 122.772 19.2592 116.422C16.4503 113.215 14.1768 110.662 12.572 108.895C11.7695 107.979 11.1679 107.324 10.7663 106.8C10.5655 106.604 10.4324 106.407 10.2985 106.276C10.2316 106.146 10.1647 106.08 10.1647 106.08Z" fill="#E0E0E0"/>
<path d="M35.9102 118.517C35.9772 118.517 35.9772 119.434 36.0441 120.874C36.111 122.445 36.1779 124.408 36.2449 126.569C36.3118 128.795 36.3787 130.823 36.3787 132.263C36.3787 132.983 36.3787 133.572 36.3118 133.965C36.3118 134.358 36.2449 134.62 36.2449 134.62C36.1779 134.62 36.1779 133.703 36.111 132.263C36.0441 130.692 35.9772 128.728 35.9102 126.569C35.8433 124.343 35.7764 122.314 35.8433 120.873C35.8433 120.153 35.8433 119.564 35.9102 119.171C35.8433 118.714 35.8433 118.517 35.9102 118.517ZM35.4424 134.947C35.4424 135.012 31.1625 135.078 25.9464 135.012C20.7302 134.947 16.4503 134.816 16.4503 134.685C16.4503 134.619 20.7302 134.554 25.9471 134.619C31.1625 134.75 35.4424 134.881 35.4424 134.947ZM51.8258 151.18C51.8258 151.18 51.6257 151.311 51.2241 151.442C50.8225 151.573 50.2209 151.769 49.4854 152.031C48.0144 152.49 46.0079 153.079 43.7345 153.536C41.461 154.06 39.3877 154.388 37.9167 154.649C37.1812 154.78 36.5795 154.846 36.111 154.911C35.7094 154.977 35.4417 154.977 35.4417 154.977C35.4417 154.911 36.3787 154.78 37.8497 154.453C39.3207 154.191 41.3934 153.798 43.6676 153.275C45.941 152.751 47.9474 152.227 49.4185 151.834C50.8902 151.377 51.7595 151.115 51.8258 151.18ZM55.5709 136.387C55.6378 136.387 55.4371 137.238 55.1031 138.547C54.7685 139.856 54.3 141.755 53.7653 143.784C53.2298 145.812 52.6951 147.646 52.2943 148.955C51.8927 150.264 51.625 151.115 51.625 151.049C51.5587 151.049 51.7588 150.198 52.0935 148.889C52.4281 147.58 52.8966 145.681 53.4313 143.653C53.9661 141.624 54.5008 139.791 54.9023 138.481C55.2363 137.172 55.504 136.321 55.5709 136.387ZM71.888 148.889C71.888 148.889 71.888 149.151 71.7542 149.675C71.6203 150.199 71.4195 150.918 71.2187 151.704C70.7509 153.406 70.1493 155.762 69.4138 158.38C68.6776 160.999 68.009 163.355 67.5412 164.991C67.2735 165.777 67.0727 166.432 66.9396 167.021C66.8057 167.479 66.6718 167.74 66.6718 167.74C66.6718 167.74 66.6718 167.479 66.8057 166.955C66.9396 166.431 67.1396 165.712 67.3411 164.926C67.8089 163.224 68.4106 160.868 69.1461 158.25C69.8816 155.631 70.5502 153.275 71.0187 151.639C71.2864 150.853 71.4864 150.198 71.6203 149.609C71.7542 149.151 71.8211 148.889 71.888 148.889ZM66.6049 167.217C66.6049 167.217 66.3372 167.348 65.8018 167.479C65.2678 167.61 64.5315 167.871 63.596 168.068C61.7234 168.526 59.1153 169.181 56.2395 169.77C53.3644 170.359 50.6894 170.752 48.8168 171.014C47.8805 171.145 47.0781 171.21 46.5434 171.276C46.0079 171.341 45.674 171.341 45.674 171.341L46.4764 171.144C47.0781 171.013 47.8136 170.882 48.7499 170.751C50.6225 170.425 53.2975 169.966 56.1726 169.377C59.0484 168.788 61.6565 168.199 63.529 167.806C64.3984 167.61 65.1339 167.413 65.7356 167.282C66.3372 167.217 66.6049 167.217 66.6049 167.217Z" fill="#E0E0E0"/>
<path d="M34.1369 112.138C34.1369 112.138 34.5378 112.202 35.0725 111.811C35.3402 111.615 35.6072 111.289 35.7411 110.832C35.8073 110.636 35.8073 110.375 35.8073 110.049V109.135C35.8073 106.59 35.8743 103 35.8743 98.562C35.8743 97.4525 35.8743 96.2782 35.9412 95.0377V93.1453V92.2315C35.8743 91.9703 35.7411 91.6443 35.5403 91.4486C35.3395 91.2529 35.0725 91.0572 34.7386 91.0572C34.4709 90.9917 34.07 91.0572 33.7361 91.0572H7.47133C6.66889 91.0572 6.00102 91.7098 5.93409 92.4927C5.93409 93.341 5.93409 94.1894 5.86716 94.9729C5.86716 96.6041 5.80024 98.3015 5.80024 99.8673C5.73331 103.065 5.73331 106.198 5.66638 109.135V110.244C5.66638 110.57 5.73331 110.897 5.93409 111.223C6.13488 111.485 6.40189 111.745 6.66889 111.811C7.00354 111.942 7.33747 111.876 7.67141 111.942H19.3C23.8448 111.942 27.5871 112.007 30.1269 112.007H33.803C34.0031 112.138 34.1369 112.138 34.1369 112.138H30.1938C27.5871 112.138 23.9117 112.138 19.3669 112.202H7.73834C7.4044 112.202 7.00354 112.268 6.60267 112.071C6.2011 111.941 5.93339 111.68 5.66638 111.354C5.4663 111.027 5.33244 110.636 5.39937 110.244V109.135C5.4663 106.198 5.4663 103.066 5.53323 99.8673C5.53323 98.236 5.60016 96.6041 5.60016 94.9729C5.60016 94.1246 5.60016 93.2755 5.66638 92.4272C5.73331 91.5134 6.60267 90.665 7.53826 90.665H33.8023C34.1362 90.665 34.4702 90.665 34.871 90.7305C35.2057 90.796 35.6065 90.9917 35.8066 91.2529C36.0743 91.5134 36.2082 91.84 36.2744 92.166C36.3413 92.4927 36.2744 92.8186 36.2744 93.1453V95.0377C36.2744 96.2782 36.2082 97.4525 36.2082 98.562C36.1413 103 36.0743 106.655 36.0074 109.135V110.049C36.0074 110.31 36.0074 110.57 35.9405 110.832C35.8066 111.289 35.4727 111.615 35.2057 111.81C34.938 112.007 34.6703 112.072 34.4702 112.072C34.2025 112.137 34.1362 112.137 34.1362 112.137L34.1369 112.138Z" fill="#455A64"/>
<path d="M21.9067 99.7366L25.5821 101.89L21.8398 104.044L18.0974 106.133L18.2313 101.89L18.2975 97.583L21.9067 99.7366Z" fill="#455A64"/>
<path d="M360.006 37.3447C362.345 36.3661 364.016 34.0161 364.016 31.2753C364.016 27.6207 361.209 24.6836 357.734 24.6836C354.259 24.6836 351.385 27.6207 351.385 31.2098C351.385 34.0161 353.056 36.3661 355.395 37.3447C345.637 38.7808 346.105 49.0919 346.105 49.0919L369.095 49.2228C369.095 49.2228 369.63 38.7808 360.006 37.3447Z" fill="#E5A000"/>
<path d="M186.265 17.5283L223.589 14.0711L225.974 38.6293L188.651 42.0872L186.265 17.5283Z" fill="white"/>
<path d="M226.01 38.6502C226.01 38.6502 226.01 38.5193 225.943 38.1933C225.876 37.8674 225.876 37.4759 225.809 36.8881C225.675 35.7138 225.541 34.0819 225.274 31.9283C224.873 27.6859 224.205 21.5511 223.47 14.111L223.604 14.2419C213.311 15.2205 200.346 16.3955 186.311 17.7008C186.245 17.7663 186.579 17.3741 186.445 17.5051V17.8958L186.512 18.2873L186.579 19.1356C186.646 19.658 186.713 20.2451 186.713 20.7675C186.847 21.877 186.913 22.9211 187.047 23.9652C187.248 26.1187 187.448 28.2076 187.648 30.2309C188.049 34.3424 188.45 38.3236 188.784 42.0429L188.584 41.9127C199.544 40.9341 208.834 40.0857 215.45 39.4979C218.725 39.2367 221.331 38.9762 223.136 38.8453C224.005 38.7805 224.739 38.7143 225.207 38.6496C225.408 38.6496 225.609 38.6496 225.743 38.5841C225.943 38.6496 226.01 38.6502 226.01 38.6502L225.809 38.6496C225.675 38.6496 225.541 38.715 225.274 38.715C224.806 38.7805 224.138 38.846 223.269 38.9107C221.465 39.1065 218.859 39.3676 215.65 39.6936C209.034 40.3462 199.678 41.1953 188.717 42.2393H188.583V42.1084C188.249 38.3884 187.848 34.4078 187.448 30.2964C187.248 28.273 187.046 26.1187 186.846 24.0306C186.712 22.9866 186.646 21.877 186.512 20.833C186.445 20.3106 186.378 19.7234 186.378 19.2011L186.312 18.3534L186.246 17.962V17.5698C186.112 17.7008 186.446 17.3093 186.38 17.3741C200.412 16.0696 213.378 14.8946 223.67 13.9814H223.804V14.1124C224.472 21.6172 225.073 27.752 225.473 32.0592C225.674 34.1473 225.808 35.8447 225.942 36.9542C226.009 37.4766 226.009 37.9328 226.076 38.2595C226.009 38.5207 226.009 38.6509 226.009 38.6509L226.01 38.6502Z" fill="#455A64"/>
<path d="M223.604 14.1109C223.604 14.1109 223.537 14.2418 223.336 14.5023C223.136 14.7642 222.801 15.0901 222.467 15.4816C221.666 16.3954 220.529 17.6352 219.193 19.1361C216.386 22.2035 212.51 26.4459 208.165 31.21L208.099 31.341L207.965 31.2755L206.962 30.6884C201.282 27.0979 196.136 23.9002 192.326 21.5509C190.522 20.3766 188.985 19.398 187.916 18.7447C187.447 18.4194 187.046 18.1575 186.712 17.9618C186.444 17.7661 186.311 17.6999 186.311 17.6999C186.311 17.6999 186.444 17.7661 186.778 17.9618C187.113 18.1575 187.514 18.3533 187.982 18.6792C189.051 19.3319 190.588 20.2457 192.459 21.4207C196.269 23.7707 201.414 26.9683 207.096 30.4919L208.098 31.0798H207.897C212.241 26.3805 216.184 22.1388 218.991 19.0714C220.395 17.5697 221.531 16.3954 222.333 15.4816C222.734 15.0901 223.001 14.7635 223.268 14.503C223.469 14.1763 223.604 14.0461 223.604 14.1109Z" fill="#455A64"/>
<path d="M140.666 43.414C140.599 43.414 140.666 42.5656 140.265 41.064C140.065 40.3466 139.731 39.4328 139.129 38.5189C138.527 37.6051 137.726 36.6265 136.589 35.7789C135.453 34.9953 134.049 34.2779 132.446 34.0167C130.842 33.7548 129.038 33.821 127.3 34.4736C126.431 34.7996 125.562 35.191 124.827 35.7789C124.025 36.3006 123.356 37.0187 122.755 37.8015C121.551 39.3673 120.883 41.3906 120.883 43.4794C120.883 45.5676 121.551 47.5909 122.754 49.1573C123.356 49.9402 124.024 50.6583 124.826 51.18C125.628 51.7678 126.43 52.1586 127.299 52.4852C129.037 53.1379 130.841 53.2033 132.445 52.9421C134.049 52.681 135.452 51.9636 136.589 51.18C137.725 50.3323 138.527 49.4178 139.128 48.4392C139.73 47.5254 140.064 46.6116 140.264 45.8935C140.665 44.2623 140.599 43.414 140.665 43.414V44.0004C140.665 44.1962 140.665 44.4573 140.599 44.784C140.532 45.11 140.532 45.4366 140.398 45.8281C140.264 46.6109 139.863 47.5247 139.328 48.4386C138.727 49.4171 137.925 50.3957 136.789 51.2448C135.653 52.0931 134.25 52.8112 132.578 53.1372C130.908 53.3991 129.037 53.3991 127.232 52.7457C126.363 52.4198 125.495 51.9629 124.692 51.375C123.89 50.7879 123.156 50.0698 122.554 49.2869C121.284 47.6557 120.617 45.5676 120.55 43.414C120.55 41.2604 121.284 39.1716 122.555 37.5403C123.156 36.692 123.891 36.0387 124.693 35.4522C125.495 34.8644 126.364 34.4075 127.233 34.0808C129.038 33.4289 130.909 33.3634 132.58 33.6894C134.25 34.016 135.654 34.7334 136.79 35.5825C137.926 36.4301 138.727 37.4094 139.329 38.3887C139.864 39.3673 140.265 40.2811 140.398 40.9992C140.532 41.3906 140.532 41.7173 140.599 42.0432C140.666 42.3699 140.666 42.5656 140.666 42.8261V43.414Z" fill="#263238"/>
<path d="M154.032 59.6644C153.965 59.7291 150.423 57.5101 146.146 54.7039C141.87 51.8976 138.393 49.5483 138.46 49.4829C138.527 49.4174 142.07 51.6365 146.347 54.4427C150.624 57.1841 154.098 59.5334 154.032 59.6644Z" fill="#263238"/>
<path d="M183.571 77.5475L175.752 69.3893L178.292 67.1048L183.705 72.7179L195 61.8838L197.406 64.2986L183.571 77.5475Z" fill="#E5A000"/>
<path d="M402.768 69.6313H403.638C403.839 69.6313 404.039 69.6968 404.307 69.6968C405.244 69.8277 406.716 70.2185 408.189 71.3921C409.661 72.5016 411.133 74.4581 411.468 77.0665C411.535 77.7192 411.535 78.3711 411.535 79.0885V93.8942C411.535 94.8073 411.535 95.8514 411.267 96.7645C410.731 98.6555 409.527 100.482 407.72 101.721C406.85 102.308 405.779 102.765 404.709 102.961C403.638 103.221 402.433 103.156 401.295 103.156H371.448L371.582 103.091L364.823 109.678L364.555 109.939V109.548V106.548V102.961L364.756 103.156C364.02 103.156 363.284 103.156 362.547 103.091C361.811 103.025 361.075 102.83 360.406 102.569C359.001 102.048 357.796 101.134 356.859 100.09C355.922 98.9815 355.32 97.6776 354.985 96.3076C354.851 95.5902 354.784 94.9389 354.784 94.2202V92.1989V84.3067V80.4585C354.784 79.2194 354.717 77.9797 354.918 76.6751C355.119 75.436 355.588 74.2624 356.324 73.219C356.993 72.175 357.93 71.3273 359.001 70.7401C360.003 70.0882 361.208 69.6968 362.346 69.5011C363.551 69.3053 364.688 69.4356 365.759 69.3701H378.206C385.836 69.3701 391.992 69.4356 396.209 69.4356H402.365C402.633 69.6313 402.768 69.6313 402.768 69.6313H396.209C391.926 69.6313 385.836 69.6313 378.207 69.6968H365.76C364.622 69.6968 363.484 69.6313 362.347 69.8277C361.209 70.0227 360.138 70.4135 359.134 71.0013C358.131 71.5878 357.26 72.4361 356.591 73.414C355.921 74.3926 355.454 75.5669 355.252 76.7406C355.052 77.9149 355.186 79.2194 355.118 80.4585V92.1989C355.118 93.5682 355.052 94.9383 355.32 96.2421C355.588 97.5467 356.19 98.7858 357.127 99.8946C358.064 100.939 359.201 101.786 360.54 102.308C361.209 102.569 361.878 102.765 362.614 102.83C363.35 102.895 364.02 102.895 364.756 102.895H364.957V109.678L364.689 109.548L371.448 102.961L371.515 102.895H401.429C402.567 102.895 403.705 102.961 404.776 102.699C405.846 102.504 406.85 102.048 407.72 101.46C409.46 100.286 410.665 98.5246 411.2 96.6983C411.468 95.7859 411.535 94.8073 411.468 93.8942V91.1555V85.938V81.2421V79.0892C411.468 78.3725 411.468 77.7199 411.401 77.0672C411.133 74.4588 409.661 72.5671 408.188 71.4582C406.716 70.3494 405.31 69.958 404.374 69.7629C404.106 69.6975 403.905 69.6975 403.705 69.632L402.768 69.6313Z" fill="#263238"/>
<path d="M376.199 87.5025C376.199 87.5025 376.132 87.3068 376.065 87.0456C375.999 86.7844 375.798 86.3936 375.33 86.067C374.928 85.741 374.259 85.6108 373.657 85.8719C373.054 86.067 372.519 86.7196 372.519 87.5025C372.519 88.2847 373.054 88.8718 373.657 89.133C374.259 89.3935 374.928 89.1978 375.33 88.9373C375.732 88.6113 375.932 88.2847 376.065 87.9587C376.199 87.6327 376.199 87.5025 376.199 87.5025C376.199 87.5025 376.266 87.6982 376.199 87.9587C376.132 88.2847 375.999 88.7416 375.53 89.0675C375.062 89.459 374.325 89.6547 373.59 89.3935C372.854 89.133 372.184 88.4149 372.184 87.5032C372.184 86.59 372.854 85.8072 373.59 85.6114C374.326 85.3496 375.129 85.5453 375.531 85.9367C375.999 86.3282 376.2 86.7196 376.2 87.0463C376.266 87.3068 376.199 87.5025 376.199 87.5025ZM385.1 87.437C385.1 87.437 385.033 87.2413 384.966 86.9801C384.899 86.7196 384.698 86.3282 384.23 86.0015C383.828 85.6762 383.159 85.5453 382.557 85.8065C381.955 86.0022 381.42 86.6541 381.42 87.437C381.42 88.2199 381.955 88.8063 382.557 89.0675C383.16 89.3287 383.828 89.133 384.23 88.8718C384.632 88.5458 384.832 88.2199 384.966 87.8932C385.033 87.5673 385.033 87.437 385.1 87.437C385.1 87.437 385.167 87.6327 385.1 87.8932C385.033 88.2199 384.899 88.6761 384.431 89.0028C383.962 89.3935 383.226 89.5892 382.491 89.3287C381.754 89.0675 381.085 88.3501 381.085 87.437C381.085 86.5239 381.754 85.7417 382.491 85.5453C383.227 85.2848 384.029 85.4805 384.431 85.8713C384.899 86.2627 385.1 86.6541 385.1 86.9808C385.167 87.2413 385.1 87.437 385.1 87.437ZM393.934 87.437C393.934 87.437 393.867 87.2413 393.8 86.9801C393.733 86.7196 393.532 86.3282 393.064 86.0015C392.662 85.6762 391.993 85.5453 391.391 85.8065C390.789 86.0022 390.254 86.6541 390.254 87.437C390.254 88.2199 390.789 88.8063 391.391 89.0675C391.993 89.3287 392.662 89.133 393.064 88.8718C393.465 88.5458 393.666 88.2199 393.8 87.8932C393.934 87.5673 393.934 87.437 393.934 87.437C393.934 87.437 394.001 87.6327 393.934 87.8932C393.867 88.2199 393.733 88.6761 393.265 89.0028C392.796 89.3935 392.06 89.5892 391.324 89.3287C390.588 89.0675 389.919 88.3501 389.919 87.437C389.919 86.5239 390.588 85.7417 391.324 85.5453C392.06 85.2848 392.863 85.4805 393.265 85.8713C393.733 86.2627 393.934 86.6541 393.934 86.9808C394.001 87.2413 394.001 87.437 393.934 87.437Z" fill="#263238"/>
<path d="M66.9529 42.6287C66.9529 37.019 60.9294 33.4974 54.7727 36.3023C53.3672 36.9542 52.2294 37.9976 51.5602 39.3021C50.0215 42.2372 50.6908 45.5638 52.0956 48.3024L56.9144 60.1083C57.5837 61.8036 60.0593 61.8036 60.7286 60.1083L65.4136 48.2377C67.0199 44.6506 66.9529 42.6287 66.9529 42.6287ZM61.1971 47.5203C57.0476 49.8682 52.8987 45.5631 55.1073 41.2586C55.442 40.6722 55.8436 40.2153 56.4459 39.8893C60.5955 37.5414 64.7443 41.8465 62.5357 46.1509C62.201 46.7374 61.7325 47.1943 61.1971 47.5203Z" fill="#E5A000"/>
<path d="M88.234 61.9347C88.234 61.9347 88.3009 62.0002 88.3009 62.1305C88.3678 62.2614 88.4347 62.4564 88.5017 62.7831C88.7025 63.3695 88.9702 64.1524 89.3048 65.2613C90.041 67.4135 91.1112 70.6091 92.4497 74.7185L92.5167 74.8494H92.3828C88.6348 74.1968 84.0844 73.3491 78.8647 72.436H78.7978V72.3705L78.9986 72.436C74.9829 75.4359 69.6293 77.8493 63.4057 78.6969C61.8664 78.8926 60.2601 79.0236 58.6545 79.0236C57.0482 78.9581 55.375 78.9581 53.7018 78.6321C52.0286 78.4364 50.3554 77.9795 48.6829 77.5226C47.8798 77.2621 47.0097 76.9361 46.2066 76.6102C45.805 76.4792 45.4034 76.2842 45.0019 76.0885L43.7971 75.5013C40.5846 73.9356 37.5066 71.7834 34.7632 69.1095C32.0861 66.5004 29.8106 63.2393 28.1381 59.7171C24.7916 52.6078 24.0554 43.9982 26.6656 36.042C29.0074 28.8025 34.027 22.6711 40.1168 18.6272C46.2742 14.7135 53.4341 12.8218 60.1931 13.1485C66.9529 13.3442 73.1765 15.6273 78.1285 18.9539C83.0136 22.3445 86.7615 26.6496 88.9702 31.085C91.2457 35.5203 92.3166 40.0205 92.5167 43.9341C92.8513 47.8471 92.2489 51.3039 91.5797 53.9785C90.9104 56.6524 89.9734 58.6744 89.3717 59.9789C89.0371 60.6309 88.7694 61.1526 88.5686 61.4137C88.3678 61.7397 88.3009 61.87 88.234 61.9347C88.3009 61.87 88.3678 61.7397 88.5017 61.4137C88.7025 61.0878 88.9032 60.5661 89.2379 59.9135C89.8402 58.6089 90.7103 56.5869 91.3796 53.913C92.0489 51.2391 92.5843 47.8471 92.2489 43.9341C91.9812 40.0205 90.9773 35.5851 88.6348 31.2152C86.36 26.7805 82.6796 22.5409 77.8608 19.2144C72.9757 15.9533 66.7521 13.6695 60.0593 13.4737C53.3672 13.1485 46.2735 15.0395 40.1837 18.9532C34.1602 22.9323 29.2751 28.9975 26.8664 36.1723C24.3231 44.0637 25.0594 52.6078 28.3388 59.5868C30.0113 63.1084 32.22 66.3046 34.8971 68.9138C37.5742 71.5229 40.5853 73.6751 43.7978 75.2401L45.0026 75.8273C45.4041 76.023 45.8057 76.2187 46.2073 76.349C47.0104 76.675 47.8798 76.9361 48.6829 77.2621C50.3561 77.719 52.0293 78.1752 53.7018 78.3716C55.375 78.6969 56.9813 78.6969 58.6545 78.7624C60.2608 78.7624 61.8671 78.6969 63.4057 78.4364C69.5631 77.6536 74.9167 75.1754 78.9316 72.2403L79.1324 72.1093V72.3051L79.0655 72.1748C84.2859 73.1534 88.8363 73.9356 92.5167 74.6537L92.4497 74.7839C91.1112 70.6745 90.1079 67.4789 89.371 65.3267C89.0371 64.2172 88.7694 63.435 88.5679 62.8479C88.5017 62.5874 88.434 62.3916 88.3678 62.1959C88.234 62.065 88.234 61.9347 88.234 61.9347Z" fill="#263238"/>
<path d="M305.195 34.607C305.128 34.607 305.128 34.2155 305.061 33.4327C305.061 33.0412 304.994 32.585 304.927 32.0626C304.86 31.5409 304.793 30.889 304.525 30.1716C304.191 28.8016 303.588 27.1063 302.518 25.3448C301.514 23.584 299.974 21.7578 297.9 20.192C295.825 18.627 293.283 17.3224 290.271 16.7353C287.259 16.1488 283.914 16.2136 280.701 17.3224C279.095 17.8441 277.489 18.627 276.016 19.6703C275.281 20.1272 274.611 20.7799 273.942 21.3663C273.34 22.0183 272.67 22.6709 272.135 23.3883C269.793 26.2579 268.455 29.9104 268.321 33.7586C268.254 37.6068 269.459 41.3896 271.6 44.3254C272.135 45.1082 272.737 45.7602 273.34 46.4128C274.009 46.9999 274.611 47.6519 275.348 48.1736C276.753 49.2831 278.292 50.1308 279.899 50.7172C283.111 52.0218 286.456 52.152 289.468 51.7613C292.48 51.3044 295.156 50.1308 297.298 48.6305C299.44 47.1302 301.046 45.3694 302.117 43.6734C303.254 41.9781 303.991 40.3469 304.325 38.9776C304.592 38.3249 304.659 37.673 304.793 37.1513C304.927 36.6289 304.994 36.1727 304.994 35.7813L305.195 34.607C305.262 34.607 305.262 34.9984 305.195 35.7813C305.195 36.1727 305.195 36.6289 305.061 37.2161C304.994 37.8032 304.927 38.3904 304.659 39.1078C304.325 40.5426 303.655 42.2386 302.518 43.9994C301.381 45.7602 299.774 47.6519 297.633 49.2176C295.424 50.782 292.68 52.0872 289.535 52.5435C286.389 53.0004 282.842 52.8694 279.496 51.5649C277.824 50.9784 276.15 50.0653 274.678 48.891C273.942 48.3693 273.273 47.7173 272.537 47.0647C271.934 46.348 271.265 45.6299 270.73 44.847C268.455 41.7162 267.183 37.7371 267.25 33.6938C267.384 29.6499 268.856 25.7362 271.266 22.7364C271.867 21.9535 272.537 21.3009 273.206 20.6482C273.942 20.0625 274.611 19.4098 275.414 18.8882C276.954 17.8441 278.627 16.9964 280.367 16.4748C283.779 15.3004 287.326 15.3004 290.471 15.9531C293.617 16.605 296.293 18.0398 298.368 19.6703C300.443 21.3663 301.982 23.2581 302.985 25.0843C303.989 26.9105 304.592 28.6713 304.859 30.1061C305.06 30.8235 305.06 31.4762 305.127 31.9978C305.194 32.585 305.194 33.0412 305.194 33.4327C305.261 34.2155 305.262 34.607 305.195 34.607Z" fill="#455A64"/>
<path d="M301.447 23.1922C301.514 23.2577 301.18 23.5182 300.51 23.9751C300.176 24.2356 299.774 24.4968 299.306 24.8227C299.038 24.9537 298.837 25.1487 298.57 25.3444C298.302 25.4754 297.967 25.6704 297.633 25.8013C295.156 27.2361 291.141 28.6709 286.657 28.4752C286.122 28.4752 285.52 28.4098 284.985 28.4098C284.449 28.345 283.914 28.214 283.378 28.1493C283.111 28.0838 282.843 28.0838 282.575 28.0183C282.307 27.9535 282.107 27.8881 281.839 27.8233C281.37 27.6923 280.835 27.5621 280.433 27.4318C278.626 26.7792 277.021 26.0618 275.748 25.3444C273.273 23.8441 272.001 22.5396 272.135 22.4093C272.269 22.2791 273.607 23.4534 276.151 24.6925C277.422 25.3444 278.962 25.997 280.768 26.5187C281.237 26.6497 281.705 26.7144 282.174 26.8447C282.441 26.9102 282.642 26.9756 282.91 27.0404C283.177 27.1059 283.378 27.1059 283.646 27.1714C284.114 27.2361 284.65 27.3009 285.185 27.3664C285.721 27.3664 286.256 27.4318 286.792 27.4318C291.074 27.5628 294.889 26.3223 297.432 25.0839C297.766 24.953 298.034 24.8227 298.369 24.6925C298.636 24.5615 298.904 24.3665 299.172 24.2356C299.64 23.9751 300.042 23.7794 300.444 23.5189C300.979 23.3225 301.447 23.1267 301.447 23.1922ZM271.533 45.3683C271.466 45.3029 271.8 45.0417 272.47 44.5855C272.804 44.3243 273.206 44.0638 273.674 43.7378C273.942 43.6069 274.143 43.4112 274.411 43.2154C274.678 43.0852 275.013 42.8895 275.348 42.7592C277.824 41.3244 281.839 39.8896 286.322 40.0853C286.858 40.0853 287.46 40.1501 287.996 40.1501C288.531 40.2156 289.066 40.3458 289.602 40.4113C289.87 40.4761 290.137 40.4761 290.405 40.5415C290.673 40.607 290.874 40.6725 291.141 40.7373C291.61 40.8682 292.145 40.9984 292.547 41.1287C294.353 41.7806 295.959 42.498 297.232 43.2154C299.707 44.7157 300.979 46.0203 300.845 46.1512C300.711 46.2815 299.373 45.1072 296.829 43.8681C295.558 43.2154 294.018 42.5635 292.212 42.0418C291.744 41.9109 291.275 41.8461 290.807 41.7159C290.539 41.6504 290.338 41.5849 290.07 41.5201C289.803 41.4547 289.602 41.4547 289.334 41.3892C288.866 41.3244 288.33 41.2589 287.795 41.1935C287.259 41.1935 286.724 41.1287 286.189 41.1287C281.906 40.9978 278.092 42.2375 275.548 43.4766C275.214 43.6076 274.946 43.7371 274.611 43.8681C274.344 43.999 274.076 44.194 273.808 44.3243C273.34 44.5855 272.938 44.7812 272.537 45.0417C272.001 45.2374 271.6 45.4331 271.533 45.3683ZM305.195 34.9973C305.195 35.2585 296.829 35.324 286.456 35.0628C276.151 34.8016 267.785 34.4109 267.785 34.1497C267.785 33.8885 276.151 33.8237 286.523 34.0842C296.83 34.2799 305.195 34.7368 305.195 34.9973Z" fill="#455A64"/>
<path d="M285.654 52.3472C285.386 52.3472 285.319 44.1945 285.587 34.0847C285.855 24.0403 286.256 15.8877 286.524 15.8877C286.792 15.8877 286.858 24.0403 286.59 34.1502C286.322 44.1945 285.922 52.3472 285.654 52.3472Z" fill="#455A64"/>
<path d="M285.654 52.3469C285.587 52.4778 283.512 51.1078 281.17 47.9777C279.965 46.412 278.76 44.4555 277.823 42.0421C276.886 39.6287 276.285 36.8238 276.351 33.8894C276.418 30.8889 277.154 28.1488 278.225 25.8016C279.296 23.4536 280.634 21.5619 281.906 20.0616C284.449 17.1265 286.523 15.7572 286.591 15.8875C286.725 16.0184 284.784 17.518 282.508 20.5185C281.37 22.0181 280.099 23.9098 279.162 26.193C278.159 28.4755 277.489 31.0846 277.422 33.9542C277.355 36.759 277.891 39.4984 278.76 41.7809C279.63 44.1288 280.768 46.0205 281.839 47.5856C283.914 50.6516 285.721 52.216 285.654 52.3469ZM286.992 15.8875C287.059 15.7565 289.133 17.1265 291.476 20.2573C292.681 21.8224 293.885 23.7789 294.822 26.193C295.759 28.6057 296.361 31.4105 296.295 34.3456C296.227 37.3455 295.492 40.0849 294.421 42.4335C293.35 44.7814 292.011 46.6724 290.74 48.1727C288.196 51.1085 286.122 52.4778 286.055 52.3469C285.921 52.2167 287.862 50.7164 290.137 47.7158C291.275 46.2162 292.547 44.3252 293.484 42.0421C294.487 39.7589 295.156 37.1505 295.224 34.2802C295.29 31.4753 294.755 28.7366 293.885 26.4535C293.015 24.1056 291.877 22.2138 290.807 20.6488C288.732 17.5834 286.858 16.0177 286.992 15.8875Z" fill="#455A64"/>
<path d="M267.585 61.3479C267.451 61.4133 267.183 61.4133 266.915 61.4788C266.313 61.6097 265.443 61.8048 264.305 62.066C262.03 62.5876 258.684 63.305 254.334 64.2829H254.2L254.267 64.1527C255.271 60.5657 256.543 56.2606 257.948 51.3035V51.2387H258.015L257.881 51.4344C255.204 47.2603 253.13 41.8463 252.862 35.7149C252.795 34.2153 252.795 32.6503 252.996 31.0198C253.263 29.454 253.397 27.8235 253.866 26.2577C254.2 24.6279 254.87 23.0622 255.405 21.4316C255.807 20.6488 256.141 19.8666 256.542 19.0837C256.743 18.6923 256.944 18.3008 257.211 17.9094C257.412 17.5186 257.68 17.1272 257.881 16.8005C259.755 13.8007 262.231 10.9958 265.175 8.6479C268.12 6.2345 271.6 4.34347 275.348 3.03822C282.91 0.429793 291.744 0.495263 299.707 3.69085C306.935 6.62663 312.757 12.0392 316.304 18.3008C319.784 24.6272 321.055 31.7372 320.118 38.2586C319.315 44.7814 316.438 50.6516 312.623 55.1517C308.741 59.5871 303.99 62.8481 299.239 64.6096C294.488 66.4358 289.803 67.0223 285.788 66.9575C281.705 66.8921 278.292 66.0444 275.615 65.1961C272.938 64.2829 270.998 63.2396 269.659 62.5222C268.99 62.1307 268.522 61.8702 268.254 61.609C268.053 61.4133 267.919 61.3479 267.785 61.2831C267.852 61.3479 267.986 61.414 268.254 61.5436C268.589 61.7393 269.057 62.066 269.726 62.3912C270.998 63.1093 273.005 64.0879 275.682 65.0004C278.359 65.848 281.772 66.6963 285.788 66.6963C289.803 66.7618 294.421 66.1747 299.105 64.3484C303.856 62.5876 308.474 59.3266 312.355 54.9567C316.103 50.5213 318.981 44.7159 319.784 38.1938C320.721 31.7365 319.449 24.6934 315.969 18.4311C312.422 12.2356 306.667 6.9519 299.573 4.01682C291.744 0.821231 282.977 0.75645 275.481 3.36488C271.733 4.66944 268.321 6.49569 265.376 8.90909C262.431 11.257 260.022 14.0612 258.148 16.9963C257.948 17.3877 257.68 17.7137 257.479 18.1058C257.278 18.4965 257.011 18.8225 256.81 19.2139C256.408 19.9968 256.074 20.7797 255.673 21.5619C255.07 23.1276 254.468 24.6927 254.133 26.3239C253.665 27.8883 253.531 29.5195 253.263 31.0845C253.13 32.6503 253.063 34.2153 253.13 35.7156C253.397 41.7815 255.405 47.1293 258.082 51.3042L258.216 51.4992H258.015L258.148 51.4344C256.744 56.3915 255.471 60.7607 254.4 64.2823L254.334 64.152C258.618 63.2389 262.03 62.5215 264.305 61.9998C265.443 61.7386 266.313 61.5436 266.915 61.4788C267.183 61.4133 267.451 61.3479 267.585 61.3479Z" fill="#263238"/>
<path d="M295.908 77.5567C292.626 78.2748 290.549 81.5393 289.812 84.7376C289.143 87.9373 289.477 91.2666 289.143 94.5311C288.807 97.7956 287.668 101.256 284.854 103.019L287.668 103.802C287.133 105.5 285.926 107.001 284.385 107.915C285.457 108.764 286.864 109.221 288.203 109.156C286.53 109.612 286.127 111.898 286.999 113.269C287.936 114.705 289.611 115.358 291.286 115.75C293.229 116.207 295.306 116.468 297.248 115.946C299.995 115.162 302.005 112.811 303.009 110.266C304.082 107.719 304.215 104.912 304.349 102.105C304.55 95.1844 304.149 88.1978 302.339 81.5393C301.871 79.9067 301.268 78.2093 299.861 77.23C298.454 76.2507 296.042 76.6422 295.641 78.2748" fill="#E5A000"/>
<path d="M369.936 177.381C369.132 174.509 364.643 158.252 360.556 147.61C356.069 135.793 346.823 133.378 346.823 133.378C325.988 126.457 307.23 126.392 287.2 133.181C286.53 133.378 285.927 133.574 285.323 133.835H285.257C270.384 139.515 268.843 154.792 268.843 154.792L262.613 191.875C262.546 192.202 262.479 192.463 262.479 192.789L262.411 193.116C262.144 196.576 264.221 200.037 267.503 201.473C276.212 205.39 284.52 204.476 291.688 201.604L286.462 208.981H348.364L344.21 199.253L345.617 193.377L355.197 204.606C356.336 205.978 357.877 206.957 359.619 207.414C370.672 208.654 372.482 192.594 370.405 183.258" fill="#455A64"/>
<path d="M330.745 129.395C330.745 129.395 320.762 178.36 317.212 177.969C313.661 177.577 297.181 130.309 297.181 130.309C297.181 130.309 318.285 124.824 330.745 129.395Z" fill="#FFBE9D"/>
<path d="M302.407 132.986C302.34 127.371 302.206 121.43 302.206 121.43C302.206 121.43 294.769 120.255 293.161 110.788C291.62 101.778 293.027 80.8855 293.027 80.8855C303.747 76.5776 316.475 79.3197 324.113 87.6116L323.777 133.378C323.711 138.667 319.021 142.91 313.193 142.779C307.298 142.779 302.474 138.339 302.407 132.986Z" fill="#FFBE9D"/>
<path d="M302.206 121.429C302.206 121.429 308.771 121.821 315.203 117.97C315.203 117.97 312.054 124.498 302.34 123.649L302.206 121.429Z" fill="#EB996E"/>
<path d="M318.887 80.0374C315.404 85.064 306.092 90.2871 299.392 91.593C300.129 90.5483 304.282 88.0026 305.019 86.9578C302.005 89.2423 297.718 92.3111 293.632 92.5716C293.162 92.5716 292.626 92.6371 292.225 92.3759C291.689 92.0492 291.555 91.4621 291.488 90.8736C291.152 88.589 291.287 84.6064 291.622 82.2564C291.956 79.9712 293.029 77.6205 295.039 76.0541C297.583 74.0307 301.335 73.5084 304.819 73.3774C307.766 73.2465 310.781 73.3774 313.461 74.3567C316.141 75.3367 318.485 77.36 318.954 79.7762" fill="#E5A000"/>
<path d="M330.344 102.953C330.812 100.472 331.147 98.1866 331.214 96.6195C331.415 91.7231 332.889 74.096 315.672 75.7934L316.676 80.5589C316.676 80.5589 313.461 91.5274 320.897 98.9702C320.897 98.9702 318.753 114.444 323.912 119.471C323.845 119.406 329.406 108.241 330.344 102.953Z" fill="#E5A000"/>
<path d="M320.628 98.1222C321.634 97.9258 322.773 97.9258 323.778 98.3179C324.783 98.6446 325.654 99.3627 326.055 100.342C326.457 101.256 326.457 102.366 326.122 103.345C325.788 104.324 325.118 105.173 324.381 105.891C323.845 106.413 323.241 106.87 322.505 107.131C321.768 107.328 320.897 107.262 320.361 106.806" fill="#FFBE9D"/>
<path d="M321.232 104.259C321.098 104.325 321.567 104.912 322.504 104.651C322.974 104.52 323.376 104.128 323.644 103.672C323.911 103.149 324.113 102.627 324.179 101.974C324.247 101.322 324.113 100.668 323.711 100.211C323.376 99.7544 322.84 99.4277 322.371 99.4277C321.366 99.4277 321.098 100.081 321.232 100.081C321.299 100.147 321.701 99.8192 322.304 99.9501C322.907 100.081 323.51 100.865 323.376 101.909C323.242 102.953 322.84 103.933 322.304 104.128C321.701 104.455 321.299 104.194 321.232 104.259Z" fill="#EB996E"/>
<path d="M286.53 178.557C286.462 178.557 286.328 174.704 286.328 169.938C286.328 165.172 286.395 161.32 286.53 161.32C286.663 161.32 286.73 165.173 286.73 169.938C286.73 174.704 286.663 178.556 286.53 178.556V178.557Z" fill="#263238"/>
<path d="M311.719 161.06C311.719 161.06 303.009 161.125 302.473 163.018C301.536 166.152 303.21 183.192 303.21 183.192L311.182 185.804C311.182 185.804 315.068 184.955 313.259 177.708C311.451 170.461 307.967 164.716 307.967 164.716C307.967 164.716 318.619 164.977 318.284 162.692C318.016 160.276 311.718 161.06 311.718 161.06H311.719Z" fill="#FFBE9D"/>
<path d="M308.235 166.087C308.704 166.022 319.355 165.108 318.685 166.805C318.016 168.437 308.235 168.894 308.235 168.894V166.087Z" fill="#FFBE9D"/>
<path d="M342.401 141.016L341.061 173.333L336.238 185.803L306.426 186.391L305.22 146.304L342.401 141.016Z" fill="#263238"/>
<path d="M301.804 172.484C301.804 172.484 301.67 172.55 301.469 172.68C301.201 172.811 300.866 172.942 300.397 173.137C299.392 173.529 298.052 174.116 296.445 174.77C293.028 176.141 288.405 178.034 283.313 180.123C280.768 181.168 278.289 182.147 276.078 182.996C273.867 183.844 271.858 184.693 270.317 185.608C268.776 186.521 267.704 187.5 267.101 188.284C266.498 189.067 266.298 189.59 266.231 189.59C266.231 189.59 266.298 189.459 266.364 189.198C266.498 188.936 266.699 188.61 266.968 188.219C267.571 187.37 268.642 186.325 270.183 185.411C271.724 184.432 273.734 183.649 276.011 182.735C278.222 181.82 280.701 180.841 283.247 179.796C288.405 177.773 293.028 175.879 296.444 174.574L300.464 173.007C300.933 172.811 301.267 172.68 301.536 172.615C301.603 172.484 301.736 172.419 301.803 172.484L301.804 172.484ZM311.652 185.15C311.652 185.15 311.451 185.411 310.982 185.934C310.513 186.391 309.91 187.109 309.039 187.892C307.364 189.524 304.952 191.679 302.206 193.964C299.459 196.249 296.846 198.143 294.903 199.513C293.966 200.166 293.162 200.754 292.626 201.081C292.09 201.472 291.755 201.603 291.755 201.603C291.755 201.603 292.023 201.341 292.558 200.95C293.162 200.493 293.899 199.971 294.769 199.318C296.645 197.882 299.191 195.922 302.005 193.703C304.752 191.418 307.23 189.329 308.905 187.697C309.776 186.913 310.445 186.26 310.915 185.803C311.316 185.346 311.585 185.085 311.652 185.15ZM356.537 205.847C356.47 205.912 352.116 201.015 346.756 194.943C341.464 188.872 337.176 183.91 337.243 183.844C337.31 183.779 341.664 188.675 347.024 194.747C352.316 200.819 356.604 205.781 356.537 205.847ZM364.911 182.343C364.911 182.343 364.576 182.212 363.973 182.017C363.37 181.755 362.499 181.429 361.427 180.972C359.284 180.057 356.336 178.622 353.187 176.858C350.038 175.096 347.359 173.333 345.417 171.962C344.478 171.309 343.674 170.722 343.205 170.33C342.67 169.938 342.402 169.677 342.402 169.677C342.402 169.677 342.737 169.872 343.273 170.199C343.875 170.591 344.612 171.113 345.55 171.766C347.493 173.072 350.24 174.77 353.321 176.532C356.47 178.295 359.351 179.731 361.495 180.711C362.499 181.168 363.37 181.559 364.04 181.886C364.643 182.147 364.911 182.277 364.911 182.343Z" fill="#263238"/>
<path d="M349.503 175.227C349.436 175.227 348.9 171.767 348.364 167.522C347.828 163.279 347.426 159.753 347.56 159.753C347.627 159.753 348.163 163.214 348.699 167.458C349.234 171.767 349.57 175.227 349.503 175.227ZM324.313 104.193C324.313 104.193 324.246 104.324 324.045 104.585C323.845 104.911 323.51 105.238 323.175 105.695C322.371 106.674 321.365 108.045 320.093 109.612V109.416C321.567 110.526 323.308 111.897 325.118 113.269C325.251 113.4 325.452 113.53 325.586 113.595H325.318C326.926 111.636 328.4 109.809 329.672 108.307V108.503C328.333 107.458 327.261 106.544 326.39 105.891C326.055 105.565 325.721 105.368 325.519 105.173C325.318 104.977 325.185 104.911 325.251 104.911C325.251 104.911 325.385 104.977 325.586 105.108C325.854 105.304 326.189 105.499 326.524 105.76C327.395 106.413 328.534 107.262 329.874 108.241L330.008 108.307L329.941 108.438C328.668 110.004 327.194 111.832 325.653 113.791L325.519 113.921L325.385 113.79C325.251 113.66 325.051 113.53 324.916 113.464C323.108 112.028 321.365 110.722 319.892 109.612L319.758 109.547L319.825 109.416C321.098 107.849 322.17 106.544 323.041 105.564C323.375 105.173 323.71 104.781 323.978 104.52L324.313 104.193Z" fill="#263238"/>
<path d="M337.109 183.322C332.218 183.257 325.72 182.277 322.705 181.82C317.078 180.972 317.145 180.449 317.346 179.796C317.882 178.099 327.328 180.972 325.653 179.209C323.978 177.446 313.729 177.055 314.398 175.292C315.202 173.007 325.051 176.206 325.921 176.401C326.725 176.597 327.06 175.423 326.323 175.292C325.185 175.095 313.528 172.549 314.332 170.33C314.8 169.09 316.944 170.134 316.944 170.134C316.944 170.134 327.73 173.268 328.065 172.223C328.4 171.114 322.17 169.09 319.959 168.567C317.815 168.045 317.212 166.804 318.217 166.086C318.887 165.564 325.519 167.131 327.663 167.718C329.807 168.306 335.568 170.003 333.358 166.935C333.291 166.87 333.291 166.804 333.291 166.804C331.013 163.801 330.343 160.732 330.744 159.688C331.146 158.708 332.554 158.774 333.157 159.688C333.224 159.818 333.358 160.014 333.358 160.21C333.358 160.275 333.424 160.406 333.424 160.472C333.826 161.45 334.697 162.822 335.367 163.8C336.037 164.78 336.841 165.564 337.779 166.281C338.851 167.066 341.664 169.938 342.468 170.46" fill="#FFBE9D"/>
<path d="M138.312 144.868C132.024 144.737 127.006 139.842 126.806 133.774C126.672 128.684 126.538 123.79 126.538 123.79C126.538 123.79 116.972 122.942 116.237 113.676C115.567 104.41 115.835 83.0722 115.835 83.0722C126.539 77.7864 139.316 78.57 149.217 85.1603L150.689 86.1389L150.287 133.512C150.153 139.842 144.801 144.932 138.312 144.868Z" fill="#B78876"/>
<path d="M126.471 123.594C126.471 123.594 132.492 123.725 138.646 119.418C138.646 119.418 136.171 126.269 126.605 126.008L126.471 123.594Z" fill="#A36957"/>
<path d="M150.152 97.5581C150.152 96.84 150.755 96.1874 151.49 96.1874C153.23 96.1226 156.173 96.84 156.441 101.604C156.842 108.39 150.152 106.693 150.085 106.497C150.085 106.302 150.085 100.169 150.152 97.5588V97.5581Z" fill="#B78876"/>
<path d="M151.624 103.757C151.624 103.757 151.758 103.822 151.959 103.888C152.16 103.953 152.494 104.018 152.896 103.888C153.631 103.561 154.166 102.387 154.166 101.212C154.166 100.559 153.965 100.038 153.698 99.5151C153.431 99.0589 153.096 98.7323 152.761 98.6675C152.36 98.602 152.16 98.8632 152.092 99.0589C152.026 99.2546 152.092 99.3849 152.026 99.3849C152.026 99.3849 151.892 99.2539 151.892 98.9934C151.892 98.8625 151.959 98.6668 152.16 98.5365C152.293 98.4056 152.561 98.3408 152.829 98.3408C153.364 98.3408 153.898 98.7977 154.166 99.3194C154.501 99.8418 154.701 100.494 154.701 101.212C154.768 102.583 154.099 103.887 153.095 104.214C152.627 104.345 152.226 104.214 151.959 104.083C151.624 103.953 151.624 103.757 151.624 103.757Z" fill="#A36957"/>
<path d="M139.784 79.8746C138.513 82.7456 139.115 86.3347 141.39 88.5531C142.326 89.4669 143.53 90.185 144.333 91.2938C146.005 93.4474 145.738 96.4486 146.005 99.1894C146.139 100.43 146.407 101.8 147.344 102.648C148.28 103.496 150.086 103.561 150.688 102.453C150.889 102.126 150.956 101.734 151.023 101.343C151.625 98.341 152.16 95.3398 152.762 92.2731C153.23 89.9886 153.631 87.7047 153.23 85.4209C152.762 82.7456 151.089 80.3315 148.815 78.896C146.474 77.4605 143.53 77.0036 140.854 77.7217" fill="#263238"/>
<path d="M141.189 77.9826C137.978 77.3947 136.171 76.3507 133.897 75.3721C131.622 74.3935 129.081 73.9366 126.673 74.5892C125.066 75.0454 123.528 75.9592 121.856 75.9592C120.183 75.9592 118.712 74.9806 117.106 74.5237C114.966 73.8711 112.557 74.1323 110.551 75.1764C109.012 76.024 107.607 77.525 107.473 79.3526C107.339 81.1789 109.012 83.072 110.684 82.5503C108.944 83.1367 108.209 85.6818 109.078 87.313C109.948 89.0097 111.955 89.7278 113.762 89.4666C115.567 89.2054 117.173 88.0311 118.511 86.661C118.578 88.6837 120.652 90.1192 122.591 90.0537C124.532 89.9883 126.271 88.8794 127.877 87.7044C129.482 86.5301 131.088 85.2903 133.027 84.8334C134.366 84.5729 135.704 84.7025 137.042 84.5729C138.379 84.442 139.784 83.8548 140.453 82.615C141.122 81.3746 143.664 79.9398 142.326 79.8743" fill="#263238"/>
<path d="M122.191 87.9655C122.191 87.9655 122.391 88.1612 122.926 88.3569C123.395 88.5526 124.197 88.6188 125.067 88.3569C125.535 88.2267 126.004 88.0309 126.472 87.7698C126.94 87.5086 127.409 87.1171 127.944 86.7912C128.479 86.3997 129.014 86.0731 129.616 85.7471C130.218 85.4205 130.954 85.2247 131.689 85.2247C133.162 85.2247 134.499 85.6169 135.77 85.4866C136.975 85.4204 137.978 84.7685 138.513 84.0504C139.049 83.333 139.249 82.6149 139.316 82.0932C139.383 81.5709 139.316 81.3097 139.383 81.3097C139.383 81.3097 139.383 81.3751 139.45 81.5054C139.45 81.6363 139.516 81.832 139.516 82.0925C139.516 82.6149 139.316 83.3978 138.78 84.1807C138.513 84.5728 138.111 84.9642 137.643 85.2247C137.175 85.5514 136.572 85.7471 135.904 85.7471C134.633 85.878 133.228 85.4859 131.823 85.4859C130.418 85.4859 129.214 86.2688 128.211 86.9869C127.676 87.3129 127.207 87.7043 126.739 87.9655C126.271 88.2267 125.736 88.4224 125.268 88.5526C124.331 88.8145 123.528 88.6836 122.993 88.4224C122.725 88.2914 122.591 88.1612 122.458 88.0964C122.19 88.0309 122.191 87.9655 122.191 87.9655ZM140.252 74.7193C140.386 74.7193 140.118 75.6979 140.453 76.8729C140.72 78.0472 141.39 78.8301 141.323 78.8956C141.256 78.9611 140.453 78.243 140.118 77.0032C139.784 75.7634 140.185 74.7193 140.252 74.7193ZM143.798 74.5891C143.865 74.6539 142.995 75.4367 142.393 76.6772C141.724 77.917 141.59 79.0913 141.456 79.0258C141.39 79.0258 141.39 77.7861 142.058 76.4808C142.728 75.241 143.731 74.5236 143.798 74.5891Z" fill="#263238"/>
<path d="M188.551 171.359L203.067 207.901H180.792L170.423 181.865L188.551 171.359ZM109.614 141.669C109.614 141.669 90.4145 160.984 82.1189 160.984C79.3762 160.984 77.3029 128.879 77.2359 119.614C77.9714 117.917 78.3061 117.265 79.1085 116.286C79.8447 115.372 80.5809 114.394 81.5172 113.676C82.6543 112.762 84.2599 111.653 85.2631 111.326C86.534 110.87 86.6679 109.173 85.4639 108.782C84.2592 108.456 80.6472 109.565 77.4367 112.567C74.2256 115.568 75.1619 108.847 75.4965 106.433C75.8312 104.018 76.3659 96.384 75.6973 95.7307C74.6934 94.7521 73.3555 95.6659 73.1547 98.0807C72.887 100.56 71.6168 107.803 70.3452 107.607C69.0742 107.412 70.8137 95.0133 70.8137 95.0133C70.8137 95.0133 71.6168 92.4035 70.1444 92.1423C67.3348 91.7509 66.4654 104.997 66.4654 106.302C66.4654 107.15 64.9937 107.02 65.0606 106.107C65.1276 105.128 67.0678 93.7735 64.3251 93.2518C62.1841 92.8604 63.522 104.149 61.7826 106.368C60.0431 108.521 61.6487 97.6886 59.6423 97.3626C58.9061 97.2317 58.3037 97.2971 58.3037 103.627C58.3037 107.02 59.6423 112.175 59.1068 118.766C59.9762 138.211 59.0399 192.697 81.1826 186.237C105.532 179.125 122.19 163.594 122.19 163.594L109.614 141.669Z" fill="#B78876"/>
<path d="M163.399 158.961L163.599 159.744C163.733 160.265 163.866 160.984 164.067 161.897C164.402 163.724 164.803 166.204 165.138 168.945C165.472 171.75 165.606 174.23 165.673 176.057C165.673 176.97 165.74 177.688 165.74 178.21C165.74 178.732 165.74 178.993 165.673 178.993C165.673 178.993 165.606 178.732 165.606 178.21C165.539 177.623 165.539 176.905 165.472 176.057C165.338 174.23 165.137 171.75 164.803 168.945C164.469 166.204 164.134 163.659 163.866 161.897C163.733 161.049 163.599 160.331 163.532 159.744C163.398 159.221 163.332 158.961 163.399 158.961Z" fill="#263238"/>
<path d="M106.336 207.901L167.679 208.227L165.606 195.567C166.543 186.89 165.539 177.558 165.539 177.558L168.616 185.78L193.969 173.382C193.969 173.382 184.738 149.434 177.045 141.278C167.278 131.033 149.752 132.013 149.752 132.013L137.911 139.841L127.007 132.403C127.007 132.403 118.31 133.186 110.149 137.167L109.614 137.298V137.428C103.192 140.69 94.0272 148.716 85.2638 156.482L95.365 166.074L106.536 176.253C106.536 176.253 108.41 176.058 108.477 176.188C108.61 177.232 106.336 207.901 106.336 207.901Z" fill="#455A64"/>
<path opacity="0.2" d="M163.666 155.111L172.028 184.149L168.683 185.78L165.606 177.558C165.539 177.558 162.529 160.331 163.666 155.111Z" fill="black"/>
<path d="M126.338 132.273V129.141C126.338 129.141 135.904 128.423 137.844 139.45C137.844 139.45 140.988 129.141 150.286 128.097L151.625 132.926C151.625 132.926 147.208 146.367 146.607 146.498C145.937 146.629 137.91 148.912 137.91 148.912L133.227 147.868L128.01 142.126L126.338 132.273Z" fill="#455A64"/>
<path d="M151.825 132.599L151.29 133.122L149.819 134.557C148.614 135.797 147.076 137.624 145.671 139.908L144.868 141.278L144.734 141.54L144.6 141.278C143.53 139.321 142.594 137.624 141.858 136.319C141.657 135.993 141.456 135.797 141.256 135.666C141.055 135.535 140.787 135.47 140.587 135.406C140.185 135.406 139.984 135.536 139.984 135.536C139.984 135.536 140.118 135.34 140.587 135.34C140.787 135.34 141.055 135.406 141.323 135.536C141.591 135.667 141.791 135.927 142.058 136.253C142.795 137.494 143.798 139.19 144.868 141.213H144.533L145.336 139.842C146.741 137.558 148.347 135.732 149.618 134.492C150.219 133.905 150.755 133.448 151.156 133.122C151.624 132.73 151.825 132.534 151.825 132.599ZM125.736 133.122C125.736 133.122 125.936 133.252 126.204 133.578C126.472 133.905 126.873 134.362 127.341 134.949C128.278 136.123 129.616 137.689 131.021 139.516C131.088 139.647 131.155 139.712 131.221 139.778H130.953C131.489 138.864 131.489 137.82 131.756 136.841C131.957 135.927 132.426 135.079 133.095 134.687C133.763 134.296 134.432 134.296 134.834 134.492C135.034 134.557 135.168 134.687 135.235 134.753C135.302 134.818 135.369 134.884 135.302 134.884C135.302 134.884 135.101 134.753 134.767 134.622C134.432 134.492 133.763 134.557 133.228 134.884C132.693 135.275 132.291 136.058 132.091 136.906C131.89 137.82 131.823 138.863 131.288 139.908L131.154 140.169L131.02 139.973C130.954 139.908 130.886 139.778 130.82 139.711C129.415 137.885 128.144 136.253 127.207 135.079C126.74 134.492 126.404 133.969 126.136 133.643C125.803 133.317 125.736 133.122 125.736 133.122ZM132.559 207.901V207.706V207.183C132.559 206.726 132.626 206.009 132.693 205.161C132.827 203.398 132.961 200.919 133.161 197.852C133.63 191.653 134.232 183.105 134.834 173.709C135.569 164.246 136.171 155.764 136.64 149.565C136.908 146.498 137.108 144.019 137.242 142.257C137.309 141.409 137.375 140.756 137.442 140.299C137.442 140.104 137.509 139.908 137.509 139.778V139.581V140.299C137.509 140.756 137.442 141.474 137.375 142.322C137.242 144.084 137.108 146.564 136.908 149.63C136.439 155.829 135.837 164.378 135.235 173.839C134.499 183.235 133.897 191.784 133.429 197.982C133.161 201.049 132.96 203.529 132.826 205.291C132.76 206.139 132.693 206.792 132.626 207.314C132.626 207.51 132.559 207.706 132.559 207.836V207.901ZM110.484 149.827C110.484 149.827 110.484 150.217 110.417 150.87C110.35 151.588 110.283 152.567 110.216 153.676C110.015 156.025 109.814 159.353 109.614 163.007C109.413 166.661 109.212 169.924 108.944 172.338C108.811 173.513 108.677 174.491 108.61 175.144C108.477 175.797 108.41 176.188 108.41 176.188C108.41 176.188 108.41 175.797 108.477 175.144C108.544 174.427 108.61 173.448 108.677 172.338C108.878 169.989 109.079 166.661 109.279 163.007C109.48 159.353 109.681 156.09 109.948 153.676C110.082 152.501 110.216 151.523 110.283 150.87C110.417 150.217 110.484 149.827 110.484 149.827Z" fill="#263238"/>
<path d="M137.175 137.884C137.175 137.884 133.897 142.06 134.365 142.713C134.834 143.365 137.175 146.367 137.175 146.367H139.182C139.182 146.367 141.054 141.212 140.587 140.559C140.118 139.906 137.175 137.884 137.175 137.884Z" fill="#E5A000"/>
<path d="M142.259 136.775L138.579 139.515L139.984 142.126L143.731 139.45L142.259 136.775ZM131.556 138.536L134.901 141.212L136.706 138.536L132.559 135.404L131.556 138.536ZM137.175 146.367L132.157 190.543L137.108 205.877L143.731 190.673L139.382 145.845L137.175 146.367Z" fill="#E5A000"/>
<path d="M172.496 138.145C172.496 138.145 172.295 137.949 171.827 137.689C171.359 137.493 170.623 137.297 169.753 137.558C168.884 137.819 168.014 138.472 167.144 139.32C166.274 140.168 165.472 141.213 164.803 142.387C163.398 144.801 162.863 147.281 162.796 149.108C162.662 150.934 162.93 152.044 162.863 152.044L162.662 151.261C162.595 150.739 162.529 150.021 162.529 149.108C162.529 147.281 163.064 144.736 164.469 142.257C165.204 141.016 166.007 139.973 166.944 139.124C167.813 138.276 168.75 137.558 169.686 137.362C170.623 137.101 171.426 137.297 171.894 137.623C172.094 137.754 172.296 137.885 172.362 138.015C172.496 138.08 172.563 138.146 172.496 138.146V138.145Z" fill="#263238"/>
<path d="M220.234 83.249C215.967 85.7996 212.966 90.1171 211.232 94.6958C209.499 99.2745 208.832 104.245 208.299 109.086C206.899 121.972 206.432 134.988 206.899 147.94C223.034 149.968 239.37 151.93 255.573 150.883C252.772 132.699 250.972 114.515 253.239 96.2002" fill="#263238"/>
<path d="M256.506 234.543L244.771 211.191L249.238 194.119L250.238 200.857L275.509 199.548C276.442 199.483 277.11 198.698 277.043 197.783L272.108 163.638C272.108 163.638 270.508 147.808 255.24 141.921H255.173C254.572 141.66 253.906 141.464 253.239 141.267C232.636 134.269 213.3 134.269 191.83 141.465C191.83 141.465 182.296 144.015 177.695 156.182C173.095 168.414 168.36 186.336 168.36 186.336L189.763 193.728L189.897 190.195L194.631 207.987L184.229 233.889L220.434 234.74L256.506 234.543Z" fill="#E5A000"/>
<path d="M168.36 186.14L165.959 197.259C163.892 206.875 171.093 216.686 181.029 217.798L233.77 223.097C245.505 224.405 255.973 215.967 256.973 204.454L190.496 198.24L190.896 191.961L168.36 186.14Z" fill="#E5A000"/>
<path d="M234.303 197.521L238.37 196.802C238.37 196.802 248.105 186.401 249.905 186.205C251.372 186.075 259.64 186.14 262.573 186.205C263.107 186.205 263.574 186.663 263.574 187.186C263.574 187.71 263.174 188.167 262.64 188.167L252.906 188.56L252.839 189.345L262.64 189.476C263.641 189.541 264.24 191.111 261.107 191.373L252.906 191.635V192.158L261.174 193.269C261.574 193.335 262.707 193.531 262.707 193.924C262.707 193.924 263.241 194.97 260.84 195.232C260.04 195.363 252.839 195.101 252.839 195.101L253.106 195.756L260.574 197.325C261.107 197.456 261.507 197.913 261.374 198.503C261.307 199.026 260.773 199.419 260.239 199.419L252.305 198.698L244.504 204.847H234.036L234.303 197.521Z" fill="#FFBE9D"/>
<path d="M208.365 136.493C208.365 136.493 218.634 188.036 222.234 187.644C225.835 187.251 242.837 138.259 242.837 138.259C242.837 138.259 221.167 131.717 208.366 136.493H208.365Z" fill="#FAFAFA"/>
<path d="M253.839 186.335C253.773 186.335 253.639 182.803 253.639 178.421C253.639 174.038 253.706 170.506 253.839 170.506C253.906 170.506 254.039 174.038 254.039 178.421C254.039 182.803 253.972 186.335 253.839 186.335ZM190.763 186.662C190.696 186.662 190.83 185.812 190.963 184.373C191.163 182.934 191.43 181.037 191.697 178.878C192.03 176.72 192.297 174.823 192.563 173.384C192.83 172.01 192.963 171.094 193.03 171.16C193.096 171.16 192.963 172.01 192.83 173.449C192.63 174.888 192.363 176.785 192.097 178.944C191.763 181.102 191.496 182.999 191.23 184.438C191.03 185.812 190.83 186.662 190.763 186.662ZM220.501 234.739V234.281V232.908C220.501 231.731 220.501 230.03 220.567 227.871C220.634 223.619 220.901 217.733 221.167 211.257C221.434 204.781 221.768 198.894 221.901 194.643C221.968 192.549 222.035 190.849 222.035 189.606C222.035 189.017 222.035 188.56 222.101 188.232C222.101 187.905 222.101 187.775 222.168 187.775V189.606C222.168 190.783 222.168 192.484 222.101 194.643C222.034 198.895 221.768 204.781 221.501 211.257C221.234 217.733 220.901 223.62 220.768 227.871C220.701 229.964 220.634 231.665 220.634 232.908C220.634 233.496 220.634 233.954 220.567 234.281C220.501 234.608 220.501 234.739 220.501 234.739Z" fill="#263238"/>
<path d="M242.837 138.128C242.837 138.128 242.904 138.325 242.971 138.783C243.037 139.175 243.171 139.829 243.505 140.548C243.771 141.333 244.237 142.184 244.837 143.164C245.438 144.146 246.105 145.258 246.704 146.631C247.305 147.94 247.839 149.575 247.505 151.341C247.371 152.192 246.971 153.042 246.438 153.827C245.905 154.612 245.238 155.266 244.571 155.985C243.237 157.359 241.771 158.798 240.57 160.499C239.37 162.199 238.503 164.227 238.503 166.451C238.503 167.563 238.77 168.609 239.237 169.525C239.637 170.507 240.237 171.422 240.504 172.469C240.637 172.992 240.77 173.516 240.703 174.038C240.637 174.562 240.504 175.085 240.17 175.543C239.571 176.459 238.703 177.047 237.97 177.571C234.836 179.86 231.969 181.888 229.636 183.589C227.235 185.289 225.368 186.663 223.968 187.644C223.301 188.102 222.768 188.495 222.434 188.756C222.301 188.887 222.168 188.952 222.034 189.018C221.968 189.083 221.901 189.083 221.901 189.083L222.035 188.952C222.168 188.887 222.234 188.756 222.434 188.625C222.834 188.363 223.301 187.971 223.968 187.513C225.301 186.532 227.235 185.093 229.569 183.392C231.969 181.627 234.769 179.598 237.903 177.309C238.703 176.721 239.504 176.132 240.038 175.347C240.304 174.954 240.437 174.497 240.504 173.973C240.57 173.515 240.437 172.992 240.304 172.534C239.97 171.553 239.437 170.637 239.037 169.656C238.57 168.675 238.304 167.563 238.304 166.385C238.304 164.096 239.237 162.003 240.437 160.302C241.637 158.536 243.104 157.098 244.504 155.789C245.838 154.481 247.105 153.042 247.372 151.341C247.705 149.706 247.171 148.136 246.638 146.827C246.038 145.519 245.371 144.408 244.771 143.361C244.171 142.38 243.771 141.464 243.504 140.679C243.238 139.894 243.104 139.305 243.037 138.848C242.97 138.651 242.97 138.455 242.97 138.39C242.837 138.194 242.837 138.128 242.837 138.128ZM222.234 187.121H222.101C221.967 187.121 221.835 187.056 221.634 187.056C221.234 186.99 220.634 186.794 219.834 186.597C218.3 186.074 216.167 185.159 213.967 183.327C212.899 182.412 211.766 181.234 210.833 179.86C209.899 178.487 209.099 176.852 208.566 175.085C208.032 173.319 207.766 171.291 207.899 169.264C207.966 168.216 208.099 167.236 208.299 166.19C208.499 165.208 208.632 164.096 208.366 163.115C208.232 162.657 207.966 162.199 207.565 161.872C207.165 161.545 206.699 161.348 206.166 161.218C205.699 161.022 205.165 160.891 204.632 160.694C204.165 160.499 203.698 160.171 203.298 159.845C202.565 159.125 202.098 158.078 201.898 157.162C201.698 156.182 201.698 155.2 201.765 154.285C202.098 150.556 202.965 147.286 203.965 144.669C204.965 142.053 205.966 139.96 206.765 138.651C207.165 137.997 207.499 137.474 207.699 137.081C207.832 136.95 207.899 136.819 207.966 136.689L207.766 137.081C207.565 137.409 207.232 137.998 206.899 138.651C206.166 140.025 205.165 142.053 204.232 144.734C203.298 147.351 202.431 150.622 202.165 154.285C202.098 155.2 202.165 156.116 202.365 157.097C202.565 158.014 202.965 158.929 203.631 159.648C203.965 159.976 204.432 160.237 204.898 160.433C205.365 160.63 205.899 160.761 206.365 160.891C206.899 161.087 207.365 161.284 207.832 161.61C208.299 162.003 208.632 162.461 208.766 162.984C209.099 164.096 208.899 165.208 208.699 166.189C208.499 167.236 208.299 168.217 208.299 169.198C208.165 171.161 208.433 173.123 208.966 174.889C209.966 178.421 212.1 181.234 214.167 183C216.3 184.831 218.434 185.813 219.901 186.336C220.634 186.597 221.234 186.794 221.634 186.859C221.835 186.925 221.968 186.925 222.101 186.99C222.235 187.056 222.235 187.121 222.235 187.121L222.234 187.121Z" fill="#263238"/>
<path d="M249.972 197.586L205.766 196.213L205.832 210.603L235.103 216.883L255.706 220.087C268.508 220.087 278.71 208.576 276.776 196.147H276.709L249.972 197.586Z" fill="#E5A000"/>
<path d="M262.173 197.324C262.173 197.324 261.974 197.324 261.574 197.39C261.174 197.39 260.64 197.39 259.907 197.455C258.44 197.455 256.373 197.521 253.839 197.586C248.705 197.652 241.704 197.717 233.903 197.652C226.102 197.586 219.034 197.324 213.967 196.932C211.433 196.736 209.366 196.605 207.966 196.474C207.299 196.409 206.765 196.343 206.299 196.278C205.899 196.213 205.699 196.213 205.699 196.213H206.299C206.699 196.213 207.232 196.278 207.966 196.344C209.366 196.475 211.433 196.54 213.967 196.736C219.034 196.998 226.102 197.26 233.903 197.324C241.704 197.39 248.705 197.324 253.839 197.324H262.173Z" fill="#263238"/>
<path d="M205.432 197.521L201.364 196.802C201.364 196.802 191.63 186.401 189.829 186.205C188.363 186.075 180.095 186.14 177.161 186.205C176.628 186.205 176.161 186.663 176.161 187.186C176.161 187.71 176.561 188.167 177.094 188.167L186.829 188.56L186.896 189.345L177.094 189.476C176.094 189.541 175.494 191.111 178.628 191.373L186.829 191.635V192.158L178.561 193.269C178.161 193.335 177.028 193.531 177.028 193.924C177.028 193.924 176.494 194.97 178.895 195.232C179.694 195.363 186.896 195.101 186.896 195.101L186.629 195.756L179.161 197.325C178.628 197.456 178.228 197.913 178.361 198.503C178.428 199.026 178.961 199.419 179.495 199.419L187.429 198.698L195.23 204.847H205.699L205.432 197.521Z" fill="#FFBE9D"/>
<path d="M254.972 219.892H254.439C254.106 219.826 253.573 219.826 253.039 219.761C251.772 219.63 249.972 219.434 247.772 219.107C243.371 218.518 237.236 217.537 230.569 216.295C223.901 214.986 217.901 213.612 213.566 212.566C211.432 212.042 209.632 211.585 208.432 211.258C207.832 211.127 207.365 210.996 207.032 210.865C206.699 210.8 206.565 210.734 206.565 210.734C206.565 210.734 206.765 210.734 207.032 210.8C207.365 210.865 207.832 210.996 208.432 211.127C209.699 211.454 211.433 211.846 213.566 212.37C217.901 213.416 223.902 214.725 230.569 216.033C237.236 217.341 243.304 218.322 247.772 218.976C249.972 219.303 251.706 219.565 252.972 219.762C253.573 219.826 254.039 219.892 254.372 219.957C254.772 219.826 254.972 219.892 254.972 219.892ZM206.299 210.669C206.232 210.669 206.099 209.883 205.899 208.642C205.699 207.398 205.565 205.567 205.432 203.67C205.298 201.708 205.298 199.942 205.365 198.634C205.432 197.325 205.499 196.54 205.499 196.54C205.565 196.54 205.565 197.326 205.565 198.634C205.565 199.942 205.632 201.707 205.699 203.67C205.832 205.632 205.966 207.398 206.032 208.642C206.232 209.884 206.365 210.669 206.299 210.669ZM211.099 211.192C211.099 211.192 211.032 210.996 210.899 210.668C210.765 210.342 210.699 209.819 210.499 209.165C210.233 207.857 209.966 206.025 209.833 203.997C209.699 201.969 209.766 200.138 209.899 198.829C209.966 198.175 210.033 197.652 210.099 197.26C210.166 196.867 210.233 196.671 210.233 196.671C210.299 196.671 210.233 197.521 210.166 198.829C210.099 200.138 210.099 201.969 210.233 203.997C210.366 206.025 210.633 207.791 210.833 209.099C211.032 210.407 211.166 211.192 211.099 211.192ZM207.032 198.829C207.098 198.895 206.832 199.026 206.832 199.484C206.832 199.68 206.899 199.942 207.098 200.073C207.298 200.204 207.565 200.204 207.832 200.073C208.099 199.942 208.232 199.68 208.166 199.418C208.099 199.156 207.966 199.026 207.766 198.895C207.432 198.698 207.098 198.829 207.098 198.764C207.032 198.764 207.366 198.502 207.899 198.698C208.099 198.829 208.432 199.026 208.499 199.353C208.566 199.746 208.365 200.138 208.032 200.334C207.699 200.53 207.165 200.53 206.899 200.268C206.632 200.006 206.565 199.68 206.565 199.419C206.632 198.895 207.032 198.764 207.032 198.829ZM215.1 213.35H213.366C212.233 213.35 210.633 213.481 208.632 213.809C206.632 214.135 204.298 214.659 201.698 215.313C199.098 215.968 196.297 216.818 193.296 217.406C190.296 218.061 187.362 218.387 184.629 218.322C181.962 218.257 179.561 217.733 177.627 217.014C175.76 216.295 174.361 215.379 173.427 214.725C172.96 214.397 172.694 214.07 172.427 213.874L172.094 213.547C172.094 213.547 172.56 213.94 173.427 214.594C174.294 215.248 175.694 216.098 177.627 216.752C179.494 217.407 181.895 217.93 184.496 217.995C187.162 218.06 190.096 217.668 193.096 217.079C196.097 216.425 198.897 215.64 201.498 214.986C204.099 214.332 206.432 213.809 208.432 213.547C210.433 213.285 212.1 213.22 213.233 213.22C213.767 213.22 214.234 213.22 214.566 213.286C214.9 213.286 215.1 213.35 215.1 213.35Z" fill="#263238"/>
<path d="M234.502 142.51C235.569 136.754 236.769 130.736 236.769 130.736C236.769 130.736 244.57 130.802 247.837 121.448C250.971 112.486 253.238 90.9008 253.238 90.9008C243.171 84.6868 229.768 85.3408 220.5 92.5362L212.766 139.371C211.9 144.799 215.9 149.901 221.835 150.818C227.835 151.733 233.503 148.004 234.503 142.51H234.502Z" fill="#FFBE9D"/>
<path d="M236.769 130.736C236.769 130.736 230.034 130.016 224.167 124.979C224.167 124.979 226.168 132.174 236.169 132.96L236.769 130.736Z" fill="#EB996E"/>
<path d="M227.168 85.6683C229.767 91.3593 238.302 98.2928 244.904 100.779C244.303 99.6009 240.57 96.2647 239.969 95.1531C242.637 97.9655 246.437 101.825 250.505 102.806C250.971 102.937 251.505 103.002 251.971 102.872C252.572 102.675 252.838 102.021 252.972 101.498C253.704 99.2087 254.305 95.0876 254.372 92.7328C254.439 90.3125 253.771 87.762 252.038 85.8647C249.771 83.379 246.103 82.2019 242.57 81.4817C239.636 80.8946 236.502 80.5018 233.57 81.0248C230.635 81.5486 227.902 83.2494 227.035 85.6697" fill="#263238"/>
<path d="M211.432 107.123C211.432 104.507 211.499 102.086 211.699 100.517C212.365 95.4803 213.966 77.1648 231.167 81.8758L229.367 86.5847C229.367 86.5847 230.701 98.3589 221.833 104.704C221.833 104.704 221.899 116.477 215.765 120.665C215.765 120.598 211.498 112.684 211.431 107.124" fill="#263238"/>
<path d="M222.167 103.853C221.167 103.46 220.033 103.329 218.967 103.526C217.9 103.722 216.9 104.311 216.299 105.161C215.699 106.077 215.499 107.189 215.699 108.235C215.899 109.282 216.366 110.264 217.033 111.113C217.5 111.768 218.033 112.357 218.7 112.683C219.367 113.011 220.3 113.141 220.967 112.749" fill="#FFBE9D"/>
<path d="M220.5 110.001C220.633 110.067 220.033 110.59 219.1 110.197C218.633 110.001 218.299 109.543 218.099 108.954C217.899 108.431 217.833 107.843 217.899 107.123C217.966 106.468 218.233 105.814 218.7 105.357C219.167 104.899 219.766 104.702 220.233 104.768C221.234 104.899 221.434 105.619 221.3 105.619C221.234 105.684 220.9 105.291 220.233 105.291C219.567 105.291 218.833 106.011 218.766 107.123C218.7 108.235 218.967 109.282 219.499 109.608C219.966 110.132 220.434 109.936 220.5 110.001Z" fill="#EB996E"/>
<path d="M220.501 112.748C217.834 128.381 220.034 144.408 220.501 160.237C220.567 161.741 220.567 163.376 219.834 164.684C218.767 166.712 216.3 167.759 213.966 167.889C211.633 168.02 209.299 167.497 206.965 167.301C206.698 165.797 206.432 164.292 206.232 162.722C205.432 164.488 204.698 166.254 203.898 167.955C204.898 156.834 206.032 145.716 207.298 134.595" fill="#263238"/>
</svg>
