<?xml version="1.0" encoding="utf-8"?>
<!-- Generator: Adobe Illustrator 24.0.3, SVG Export Plug-In . SVG Version: 6.00 Build 0)  -->
<svg version="1.1" id="Layer_1" xmlns="http://www.w3.org/2000/svg" xmlns:xlink="http://www.w3.org/1999/xlink" x="0px" y="0px"
	 viewBox="0 0 500 500" style="enable-background:new 0 0 500 500;" xml:space="preserve">
<style type="text/css">
	.st0{fill:none;stroke:#010101;stroke-width:5;stroke-miterlimit:10;}
	.st1{fill:#FFFFFF;stroke:#010101;stroke-width:5;stroke-miterlimit:10;}
	.st2{fill:#49A464;}
	.st3{fill:#9CDBF2;}
	.st4{fill:#06A6D2;}
	.st5{fill:#102F51;}
	.st6{fill:#205594;}
	.st7{fill:#F9C643;}
	.st8{fill:none;stroke:#070707;stroke-miterlimit:10;}
</style>
<g>
	<g>
		<circle class="st0" cx="251.76" cy="264.69" r="154.07"/>
		<circle class="st1" cx="170.98" cy="131.99" r="12.22"/>
		<circle class="st1" cx="354.16" cy="149.59" r="12.22"/>
		<circle class="st1" cx="101.45" cy="295.76" r="12.22"/>
		<circle class="st1" cx="232.89" cy="416.67" r="12.22"/>
		<circle class="st1" cx="396.02" cy="321.08" r="12.22"/>
	</g>
	<circle class="st2" cx="250.8" cy="114.54" r="60.15"/>
	<circle class="st3" cx="94.07" cy="213.32" r="60.15"/>
	<circle class="st4" cx="405.5" cy="213.32" r="60.15"/>
	<circle class="st5" cx="157.57" cy="385.49" r="60.15"/>
	<circle class="st6" cx="345.61" cy="385.49" r="60.15"/>
	<path class="st7" d="M323.65,287.01l-2.49,2.17l-70.11,61.25c-0.13-0.11-0.26-0.22-0.38-0.33l-69.88-61.03l-2.84-2.49
		c-19.58-17.1-21.58-46.82-4.49-66.39c9.3-10.65,22.35-16.09,35.45-16.09c10.97,0,22,3.82,30.92,11.61l11.22,9.79l10.71-9.36
		c8.92-7.79,19.95-11.61,30.93-11.61c13.11,0,26.15,5.44,35.45,16.09C345.23,240.21,343.22,269.93,323.65,287.01z"/>
	<path class="st8" d="M234.5,428.83"/>
</g>
</svg>
