<svg width="86" height="100" viewBox="0 0 86 100" fill="none" xmlns="http://www.w3.org/2000/svg">
<g clip-path="url(#clip0_372_3810)">
<path d="M80.0781 100H65.8203V11.7188H82.0312V98.0469C82.0312 99.1256 81.1568 100 80.0781 100Z" fill="#D39F66"/>
<path d="M82.0312 11.7188V27.3438V98.0469C82.0312 99.1256 81.1568 100 80.0781 100H78.125V33.6641C78.125 31.6576 76.0135 30.3525 74.2188 31.25H70.3125V11.7188H78.125H82.0312Z" fill="#AA7F59"/>
<path d="M85.9375 20.2773C85.9375 21.0172 85.5195 21.6934 84.8578 22.0242L74.2188 27.3438H70.3125V1.95312H74.2188H83.9844C85.0631 1.95312 85.9375 2.82754 85.9375 3.90625V20.2773Z" fill="#73B3E7"/>
<path d="M74.2188 3.90625V98.0469C74.2188 99.1256 73.3443 100 72.2656 100H1.95312C0.874414 100 0 99.1256 0 98.0469V48.8281C0 47.7494 0.874414 46.875 1.95312 46.875H39.8438V3.125C39.8438 2.47773 40.3684 1.95312 41.0156 1.95312H72.2656C73.3443 1.95312 74.2188 2.82754 74.2188 3.90625Z" fill="#F9C27A"/>
<path d="M46.3227 50.6314C46.41 51.7658 45.5131 52.7344 44.3752 52.7344H41.0156H40.625H1.95312C0.874414 52.7344 0 51.86 0 50.7812V46.875H40.625L37.941 2.78184C37.9137 2.33262 38.2707 1.95312 38.7209 1.95312H40.7695C41.79 1.95312 42.6387 2.73887 42.717 3.75645L46.3227 50.6314Z" fill="#F2B770"/>
<path d="M37.1094 48.8281H3.90625C1.74883 48.8281 0 47.0793 0 44.9219V3.90625C0 2.82754 0.874414 1.95312 1.95312 1.95312H39.0625C40.1412 1.95312 41.0156 2.82754 41.0156 3.90625V44.9219C41.0156 47.0793 39.2668 48.8281 37.1094 48.8281Z" fill="#D9E8F6"/>
<path d="M6.34766 85.9375C6.34766 85.1285 7.00352 84.4727 7.8125 84.4727H25.3906C26.1996 84.4727 26.8555 85.1285 26.8555 85.9375C26.8555 86.7465 26.1996 87.4023 25.3906 87.4023H7.8125C7.00352 87.4023 6.34766 86.7465 6.34766 85.9375ZM7.8125 77.6367H17.5781C18.3871 77.6367 19.043 76.9809 19.043 76.1719C19.043 75.3629 18.3871 74.707 17.5781 74.707H7.8125C7.00352 74.707 6.34766 75.3629 6.34766 76.1719C6.34766 76.9809 7.00352 77.6367 7.8125 77.6367ZM31.25 90.332H7.8125C7.00352 90.332 6.34766 90.9879 6.34766 91.7969C6.34766 92.6059 7.00352 93.2617 7.8125 93.2617H31.25C32.059 93.2617 32.7148 92.6059 32.7148 91.7969C32.7148 90.9879 32.059 90.332 31.25 90.332Z" fill="#D39F66"/>
<path d="M64.4531 81.3408V85.523C64.4531 85.985 64.0787 86.3596 63.6166 86.3596H59.0162V90.96C59.0162 91.4219 58.6418 91.7965 58.1797 91.7965H53.9974C53.5355 91.7965 53.1609 91.4221 53.1609 90.96V86.3596H48.5605C48.0986 86.3596 47.724 85.9852 47.724 85.523V81.3408C47.724 80.8789 48.0984 80.5043 48.5605 80.5043H53.1609V75.9039C53.1609 75.442 53.5353 75.0674 53.9974 75.0674H58.1797C58.6416 75.0674 59.0162 75.4418 59.0162 75.9039V80.5043H63.6166C64.0787 80.5045 64.4531 80.8789 64.4531 81.3408Z" fill="#FC7F59"/>
<path d="M17.5781 34.7379V29.2041H23.4375V34.7379H17.5781Z" fill="#FFF8B3"/>
<path d="M20.4834 34.7379V29.2041H23.4375V34.7379H20.4834Z" fill="#FFDB93"/>
<path d="M26.559 23.927V25.2717C26.559 28.6137 23.8498 31.3229 20.5078 31.3229C17.1658 31.3229 14.4567 28.6137 14.4567 25.2717V23.927C14.4567 20.585 17.1658 18.0713 20.5078 18.0713C23.8498 18.0715 26.559 20.5852 26.559 23.927Z" fill="#FFF8B3"/>
<path d="M26.5589 23.9275V25.2723C26.5589 28.6142 23.8498 31.3234 20.5078 31.3234C19.897 31.3234 19.3076 31.232 18.7517 31.0637C21.2371 30.3111 23.0468 28.0035 23.0468 25.2723V23.9275C23.0468 21.1965 21.2371 18.8889 18.7517 18.1361C19.3076 17.9678 19.8968 18.0719 20.5078 18.0719C23.8498 18.0721 26.5589 20.5857 26.5589 23.9275Z" fill="#FFDB93"/>
<path d="M26.7759 20.6237L26.5767 23.1159C26.5666 23.244 26.4375 23.3274 26.3164 23.2842L23.673 22.3415C23.0482 22.1186 22.3771 22.0587 21.7226 22.1671L14.6687 23.3352C14.5558 23.354 14.4511 23.2721 14.4422 23.1581L14.2394 20.6237C14.1437 19.4272 14.648 18.2452 15.616 17.5356C15.6424 17.5163 15.6689 17.4971 15.6955 17.478C17.1797 16.4184 19.2181 16.6053 20.5076 17.895C21.797 16.6055 23.8355 16.4184 25.3197 17.478C25.3463 17.4969 25.3728 17.5163 25.3992 17.5356C26.3674 18.245 26.8717 19.4272 26.7759 20.6237Z" fill="#D6AA76"/>
<path d="M26.776 20.6233L26.5765 23.1155C26.5664 23.2436 26.4373 23.327 26.3162 23.2838L23.6728 22.3411C23.4088 22.2469 23.0529 22.1717 22.7771 22.1362C22.4359 20.4522 21.6414 19.0233 20.5062 17.8922C21.8019 16.5958 23.8574 16.4336 25.3199 17.4776C25.3465 17.4965 25.373 17.5159 25.3994 17.535C26.3674 18.2446 26.8717 19.4268 26.776 20.6233Z" fill="#AA7F59"/>
<path d="M25.3256 34.4443V37.0484C25.3256 37.8035 24.7135 38.4156 23.9584 38.4156H16.8945C16.1395 38.4156 15.5273 37.8035 15.5273 37.0484V34.4443C15.5273 33.6893 16.1395 33.0771 16.8945 33.0771H23.9584C24.7135 33.0771 25.3256 33.6893 25.3256 34.4443Z" fill="white"/>
<path d="M33.1719 46.7445V38.182C33.1719 36.2445 32.1377 34.4641 30.4807 33.549L30.474 33.5453C29.9174 33.2379 29.2955 33.0771 28.6641 33.0771H23.8502L23.3786 33.5631C21.8073 35.1826 19.2083 35.1825 17.6371 33.5631L17.1656 33.0771H12.3438C11.7105 33.0771 11.0873 33.2389 10.5295 33.5477C8.87559 34.4637 7.84375 36.2424 7.84375 38.1775V46.7445H33.1719Z" fill="#73B3E7"/>
<path d="M33.1718 38.182V46.7445H30.4689V38.182C30.4689 36.2445 29.4347 34.4641 27.7777 33.549L27.771 33.5453C27.2144 33.2379 26.5925 33.0771 25.9611 33.0771H28.664C29.2956 33.0771 29.9173 33.2379 30.474 33.5453L30.4806 33.549C32.1374 34.4641 33.1718 36.2445 33.1718 38.182Z" fill="#4F97D1"/>
<path d="M28.7916 39.7305V46.9729H25.8619V39.7305C25.8619 38.9215 26.5177 38.2656 27.3267 38.2656C28.1357 38.2656 28.7916 38.9215 28.7916 39.7305ZM13.6888 38.2656C12.8799 38.2656 12.224 38.9215 12.224 39.7305V46.9729H15.1537V39.7305C15.1537 38.9215 14.4978 38.2656 13.6888 38.2656Z" fill="#4F97D1"/>
<path d="M0 3.90625V46.875C0 47.9537 0.874414 48.8281 1.95312 48.8281H39.0625C40.1412 48.8281 41.0156 47.9537 41.0156 46.875V3.90625C41.0156 2.82754 40.1412 1.95312 39.0625 1.95312H1.95312C0.874414 1.95312 0 2.82754 0 3.90625ZM37.1094 44.9219H3.90625V5.85938H37.1094V44.9219Z" fill="#FCFCFC"/>
<path d="M13.1348 0H5.32227C4.51328 0 3.85742 0.655859 3.85742 1.46484V9.27734C3.85742 12.2391 6.2668 14.6484 9.22852 14.6484C12.1902 14.6484 14.5996 12.2391 14.5996 9.27734V1.46484C14.5996 0.655859 13.9438 0 13.1348 0ZM11.6699 9.27734C11.6699 10.6236 10.5748 11.7188 9.22852 11.7188C7.88223 11.7188 6.78711 10.6236 6.78711 9.27734V2.92969H11.6699V9.27734Z" fill="#FC7F59"/>
</g>
<defs>
<clipPath id="clip0_372_3810">
<rect width="86" height="100" fill="white"/>
</clipPath>
</defs>
</svg>
