<?xml version="1.0" encoding="UTF-8"?>
<svg width="86px" height="100px" viewBox="0 0 86 100" version="1.1" xmlns="http://www.w3.org/2000/svg" xmlns:xlink="http://www.w3.org/1999/xlink">
    <!-- Generator: Sketch 64 (93537) - https://sketch.com -->
    <title>medical-history</title>
    <desc>Created with Sketch.</desc>
    <g id="Page-1" stroke="none" stroke-width="1" fill="none" fill-rule="evenodd">
        <g id="AB2D-homepage-v2---middle" transform="translate(-1040.000000, -303.000000)" fill-rule="nonzero">
            <g id="medical-history" transform="translate(1040.000000, 303.000000)">
                <path d="M80.078125,100 L65.8203125,100 L65.8203125,11.71875 L82.03125,11.71875 L82.03125,98.046875 C82.03125,99.1255859 81.1568359,100 80.078125,100 Z" id="Path" fill="#D39F66"></path>
                <path d="M82.03125,11.71875 L82.03125,27.34375 L82.03125,98.046875 C82.03125,99.1255859 81.1568359,100 80.078125,100 L78.125,100 L78.125,33.6640625 C78.125,31.6576172 76.0134766,30.3525391 74.21875,31.25 L74.21875,31.25 L70.3125,31.25 L70.3125,11.71875 L78.125,11.71875 L82.03125,11.71875 Z" id="Path" fill="#AA7F59"></path>
                <path d="M85.9375,20.2773438 C85.9375,21.0171875 85.5195312,21.6933594 84.8578125,22.0242187 L74.21875,27.34375 L74.21875,27.34375 L70.3125,27.34375 L70.3125,1.953125 L74.21875,1.953125 L74.21875,1.953125 L83.984375,1.953125 C85.0630859,1.953125 85.9375,2.82753906 85.9375,3.90625 L85.9375,20.2773438 Z" id="Path" fill="#9CDBD8"></path>
                <path d="M74.21875,3.90625 L74.21875,98.046875 C74.21875,99.1255859 73.3443359,100 72.265625,100 L1.953125,100 C0.874414063,100 0,99.1255859 0,98.046875 L0,48.828125 C0,47.7494141 0.874414063,46.875 1.953125,46.875 L39.84375,46.875 L39.84375,3.125 C39.84375,2.47773437 40.3683594,1.953125 41.015625,1.953125 L72.265625,1.953125 C73.3443359,1.953125 74.21875,2.82753906 74.21875,3.90625 Z" id="Path" fill="#F9C27A"></path>
                <path d="M46.3226563,50.6314453 C46.4099609,51.7658203 45.5130859,52.734375 44.3751953,52.734375 L41.015625,52.734375 L40.625,52.734375 L1.953125,52.734375 C0.874414063,52.734375 0,51.8599609 0,50.78125 L0,46.875 L40.625,46.875 L37.9410156,2.78183594 C37.9136719,2.33261719 38.2707031,1.953125 38.7208984,1.953125 L40.7695312,1.953125 C41.7900391,1.953125 42.6386719,2.73886719 42.7169922,3.75644531 L46.3226563,50.6314453 Z" id="Path" fill="#F2B770"></path>
                <path d="M37.109375,48.828125 L3.90625,48.828125 C1.74882812,48.828125 0,47.0792969 0,44.921875 L0,3.90625 C0,2.82753906 0.874414063,1.953125 1.953125,1.953125 L39.0625,1.953125 C40.1412109,1.953125 41.015625,2.82753906 41.015625,3.90625 L41.015625,44.921875 C41.015625,47.0792969 39.2667969,48.828125 37.109375,48.828125 Z" id="Path" fill="#D5F7F4"></path>
                <path d="M6.34765625,85.9375 C6.34765625,85.1285156 7.00351563,84.4726562 7.8125,84.4726562 L25.390625,84.4726562 C26.1996094,84.4726562 26.8554688,85.1285156 26.8554688,85.9375 C26.8554688,86.7464844 26.1996094,87.4023438 25.390625,87.4023438 L7.8125,87.4023438 C7.00351563,87.4023438 6.34765625,86.7464844 6.34765625,85.9375 Z M7.8125,77.6367188 L17.578125,77.6367188 C18.3871094,77.6367188 19.0429688,76.9808594 19.0429688,76.171875 C19.0429688,75.3628906 18.3871094,74.7070312 17.578125,74.7070312 L7.8125,74.7070312 C7.00351563,74.7070312 6.34765625,75.3628906 6.34765625,76.171875 C6.34765625,76.9808594 7.00351563,77.6367188 7.8125,77.6367188 Z M31.25,90.3320312 L7.8125,90.3320312 C7.00351563,90.3320312 6.34765625,90.9878906 6.34765625,91.796875 C6.34765625,92.6058594 7.00351563,93.2617188 7.8125,93.2617188 L31.25,93.2617188 C32.0589844,93.2617188 32.7148438,92.6058594 32.7148438,91.796875 C32.7148438,90.9878906 32.0589844,90.3320312 31.25,90.3320312 Z"  fill="#D39F66"></path>
                <path d="M64.453125,81.3412109 L64.453125,85.5234375 C64.453125,85.9853516 64.0787109,86.3599609 63.6166016,86.3599609 L59.0162109,86.3599609 L59.0162109,90.9603516 C59.0162109,91.4222656 58.6417969,91.796875 58.1796875,91.796875 L53.9974609,91.796875 C53.5355469,91.796875 53.1609375,91.4224609 53.1609375,90.9603516 L53.1609375,86.3599609 L48.5605469,86.3599609 C48.0986328,86.3599609 47.7240234,85.9855469 47.7240234,85.5234375 L47.7240234,81.3412109 C47.7240234,80.8792969 48.0984375,80.5046875 48.5605469,80.5046875 L53.1609375,80.5046875 L53.1609375,75.9042969 C53.1609375,75.4423828 53.5353516,75.0677734 53.9974609,75.0677734 L58.1796875,75.0677734 C58.6416016,75.0677734 59.0162109,75.4421875 59.0162109,75.9042969 L59.0162109,80.5046875 L63.6166016,80.5046875 C64.0787109,80.5048828 64.453125,80.8792969 64.453125,81.3412109 Z" id="Path" fill="#FC7F59"></path>
                <polygon id="Path" fill="#FFF8B3" points="17.578125 34.7380859 17.578125 29.2042969 23.4375 29.2042969 23.4375 34.7380859"></polygon>
                <polygon id="Path" fill="#FFDB93" points="20.4833984 34.7380859 20.4833984 29.2042969 23.4375 29.2042969 23.4375 34.7380859"></polygon>
                <path d="M26.5589844,23.9271484 L26.5589844,25.271875 C26.5589844,28.6138672 23.8498047,31.3230469 20.5078125,31.3230469 L20.5078125,31.3230469 C17.1658203,31.3230469 14.4566406,28.6138672 14.4566406,25.271875 L14.4566406,23.9271484 C14.4566406,20.5851563 17.1658203,18.0714844 20.5078125,18.0714844 L20.5078125,18.0714844 C23.8498047,18.0716797 26.5589844,20.5853516 26.5589844,23.9271484 Z" id="Path" fill="#FFF8B3"></path>
                <path d="M26.5589844,23.9271484 L26.5589844,25.271875 C26.5589844,28.6138672 23.8498047,31.3230469 20.5078125,31.3230469 L20.5078125,31.3230469 C19.8970703,31.3230469 19.3076172,31.2316406 18.7517578,31.0632812 C21.2371094,30.3107422 23.046875,28.003125 23.046875,25.271875 L23.046875,23.9271484 C23.046875,21.1960937 21.2371094,18.8884766 18.7517578,18.1357422 C19.3076172,17.9673828 19.896875,18.0714844 20.5078125,18.0714844 L20.5078125,18.0714844 C23.8498047,18.0716797 26.5589844,20.5853516 26.5589844,23.9271484 Z" id="Path" fill="#FFDB93"></path>
                <path d="M26.7759766,20.6232422 L26.5767578,23.1154297 C26.5666016,23.2435547 26.4375,23.3269531 26.3164062,23.2837891 L23.6730469,22.3410156 C23.0482422,22.1181641 22.3771484,22.0582031 21.7226563,22.1666016 L14.66875,23.3347656 C14.5558594,23.3535156 14.4511719,23.2716797 14.4421875,23.1576172 L14.2394531,20.6232422 C14.14375,19.4267578 14.6480469,18.2447266 15.6160156,17.5351562 C15.6423828,17.5158203 15.6689453,17.4966797 15.6955078,17.4775391 C17.1796875,16.4179688 19.2181641,16.6048828 20.5076172,17.8945313 L20.5076172,17.8945313 L20.5076172,17.8945313 C21.7970703,16.6050781 23.8355469,16.4179688 25.3197266,17.4775391 C25.3462891,17.4964844 25.3728516,17.5158203 25.3992188,17.5351562 C26.3673828,18.2445313 26.8716797,19.4267578 26.7759766,20.6232422 Z" id="Path" fill="#D6AA76"></path>
                <path d="M26.7759766,20.6232422 L26.5765625,23.1154297 C26.5664063,23.2435547 26.4373047,23.3269531 26.3162109,23.2837891 L23.6728516,22.3410156 C23.4087891,22.246875 23.0529297,22.1716797 22.7771484,22.1361328 C22.4359375,20.4521484 21.6414063,19.0232422 20.50625,17.8921875 C21.8019531,16.5957031 23.8574219,16.4335937 25.3199219,17.4775391 C25.3464844,17.4964844 25.3730469,17.5158203 25.3994141,17.5349609 C26.3673828,18.2445312 26.8716797,19.4267578 26.7759766,20.6232422 Z" id="Path" fill="#AA7F59"></path>
                <path d="M25.3255859,34.4445312 L25.3255859,37.0486328 C25.3255859,37.8037109 24.7134766,38.4158203 23.9583984,38.4158203 L16.8945312,38.4158203 C16.1394531,38.4158203 15.5273438,37.8037109 15.5273438,37.0486328 L15.5273438,34.4445312 C15.5273438,33.6894531 16.1394531,33.0773437 16.8945312,33.0773437 L23.9583984,33.0773437 C24.7134766,33.0773437 25.3255859,33.6894531 25.3255859,34.4445312 Z" id="Path" fill="#FFFFFF"></path>
                <path d="M33.171875,46.7447266 L33.171875,38.1822266 C33.171875,36.2447266 32.1376953,34.4642578 30.4806641,33.5492187 L30.4740234,33.5455078 C29.9173828,33.2380859 29.2955078,33.0773437 28.6640625,33.0773437 L23.8501953,33.0773437 L20.5078125,36.5220703 L17.165625,33.0773437 L12.34375,33.0773437 C11.7105469,33.0773437 11.0873047,33.2390625 10.5294922,33.5478516 L10.5294922,33.5478516 C8.87558594,34.4638672 7.84375,36.2425781 7.84375,38.1777344 L7.84375,46.7447266 L33.171875,46.7447266 L33.171875,46.7447266 Z" id="Path" fill="#9CDBD8"></path>
                <g id="Group" transform="translate(12.109375, 33.007812)" fill="#81D3D1">
                    <path d="M21.0625,5.17441406 L21.0625,13.7369141 L18.3595703,13.7369141 L18.3595703,5.17441406 C18.3595703,3.23691406 17.3253906,1.45644531 15.6683594,0.54140625 L15.6617188,0.537695312 C15.1050781,0.230273437 14.4832031,0.06953125 13.8517578,0.06953125 L16.5546875,0.06953125 C17.1863281,0.06953125 17.8080078,0.230273438 18.3646484,0.537695312 L18.3712891,0.54140625 C20.028125,1.45644531 21.0625,3.23691406 21.0625,5.17441406 Z" id="Path"></path>
                    <path d="M16.6822266,6.72246094 L16.6822266,13.9648438 L13.7525391,13.9648438 L13.7525391,6.72246094 C13.7525391,5.91347656 14.4083984,5.25761719 15.2173828,5.25761719 C16.0263672,5.25761719 16.6822266,5.91347656 16.6822266,6.72246094 Z M1.57949219,5.25761719 C0.770507813,5.25761719 0.114648438,5.91347656 0.114648438,6.72246094 L0.114648438,13.9648438 L3.04433594,13.9648438 L3.04433594,6.72246094 C3.04433594,5.91347656 2.38847656,5.25761719 1.57949219,5.25761719 Z" ></path>
                </g>
                <path d="M0,3.90625 L0,46.875 C0,47.9537109 0.874414063,48.828125 1.953125,48.828125 L39.0625,48.828125 C40.1412109,48.828125 41.015625,47.9537109 41.015625,46.875 L41.015625,3.90625 C41.015625,2.82753906 40.1412109,1.953125 39.0625,1.953125 L1.953125,1.953125 C0.874414062,1.953125 0,2.82753906 0,3.90625 Z M37.109375,44.921875 L3.90625,44.921875 L3.90625,5.859375 L37.109375,5.859375 L37.109375,44.921875 Z"  fill="#FCFCFC"></path>
                <path d="M13.1347656,0 L5.32226562,0 C4.51328125,0 3.85742188,0.655859375 3.85742188,1.46484375 L3.85742188,9.27734375 C3.85742188,12.2390625 6.26679687,14.6484375 9.22851562,14.6484375 C12.1902344,14.6484375 14.5996094,12.2390625 14.5996094,9.27734375 L14.5996094,1.46484375 C14.5996094,0.655859375 13.94375,0 13.1347656,0 Z M11.6699219,9.27734375 C11.6699219,10.6236328 10.5748047,11.71875 9.22851562,11.71875 C7.88222656,11.71875 6.78710938,10.6236328 6.78710938,9.27734375 L6.78710938,2.9296875 L11.6699219,2.9296875 L11.6699219,9.27734375 Z"  fill="#FC7F59"></path>
            </g>
        </g>
    </g>
</svg>