<svg xmlns="http://www.w3.org/2000/svg" width="106" height="105" viewBox="0 0 106 105">
    <g fill="none" fill-rule="evenodd">
        <path fill="#FFF" d="M14.015 68.996L.063 30.26c-.2-.564.097-1.189.662-1.395C19.069 22.28 39.74 16.153 57.41 8.626c.79-.498 1.41-.006 1.75.934l21.922 56.415 5.953 16.529c.2.564-.091 1.195-.656 1.395l-41.95 15.06-16.352 5.872c-.565.206-1.191-.09-1.397-.655l-12.666-35.18z"/>
        <path fill="#FFF" d="M25.648 56.143L18.68 15.577c-.104-.595.297-1.159.887-1.262l47.981-8.213 10.989-1.807c.601-.261 1.58.042 1.81 1.383l11.87 59.175 2.97 17.311c.103.589-.298 1.159-.887 1.262l-43.937 7.521-17.13 2.936c-.588.097-1.16-.303-1.263-.892l-6.323-36.848z"/>
        <path fill="#FFF" d="M39.09 44.182v39.001c0 .625.51 1.14 1.137 1.14h64.637c.626 0 1.136-.515 1.136-1.14V13.714H94.46c-1.112 0-3.42.158-3.42-2.359L91.014.103H40.226c-.625 0-1.136.51-1.136 1.135V44.18z"/>
        <path fill="#B5C4CF" d="M19.835 22.303c-6.5 2.184-12.939 4.35-19.11 6.563-.565.206-.863.831-.662 1.395l13.952 38.735 12.666 35.18c.206.564.832.861 1.397.655l16.352-5.872 37.26-13.374-61.855-63.282z"/>
        <path fill="#D7E7EC" d="M39.09 10.973l-19.522 3.342c-.59.103-.99.667-.887 1.262l1.154 6.726 5.813 33.84 6.323 36.848c.104.589.675.989 1.264.892l17.13-2.936 31.325-5.362 7.369-1.262H85.2l-46.11-73.35z"/>
        <path fill="#EDF3F4" d="M106 64.86V13.538c0-.328-.14-.383-.644-.874L92.898.801c-.59-.558-.687-.698-1.033-.698H40.226c-.625 0-1.136.51-1.136 1.135v81.945c0 .625.51 1.14 1.136 1.14h64.638c.626 0 1.136-.515 1.136-1.14V64.86z"/>
        <path fill="#B5C4CF" d="M39.09 10.973l-4.573.782v75.62c0 .63.51 1.14 1.136 1.14h28.92l17.117-2.93 7.369-1.261H40.227c-.626 0-1.136-.516-1.136-1.14V10.972z"/>
        <path fill="#9AAFB7" d="M25.648 56.143l-5.813-33.84c-1.574.528-3.14 1.056-4.702 1.583l.723 4.204 5.813 33.84L28 98.778c.097.588.668.988 1.257.891l17.13-2.935 8.127-1.39 24.48-8.794-.291-.455-14.13 2.42-14.207 2.432-17.13 2.936c-.59.097-1.16-.303-1.264-.892l-6.323-36.848z"/>
        <path fill="#D7E7EC" d="M106 64.86V13.713c0-.612-.2-.618-.644-1.049L92.898.801c-.59-.558-.687-.698-1.033-.698H78.374C93.82 20.751 94.7 57.97 83.239 81.2c-.528 1.08-1.081 2.117-1.658 3.123h23.283c.626 0 1.136-.515 1.136-1.14V64.86z"/>
        <path fill="#FFF" d="M91.039 11.355c0 2.517 2.308 2.36 3.42 2.36H106v-.177c0-.327-.14-.382-.644-.873L92.898.8c-.59-.558-.687-.698-1.033-.698h-.85l.024 11.252z"/>
        <path fill="#B5C4CF" d="M105.356 12.665L92.898.801c-.59-.558-.687-.698-1.033-.698h-.85l.024 11.252c0 2.517 2.308 2.36 3.42 2.36H106v-.177c0-.327-.14-.382-.644-.873z"/>
        <path fill="#9AAFB7" fill-rule="nonzero" d="M95.734 24.908H50c-.883 0-1.6-.715-1.6-1.598 0-.882.717-1.597 1.6-1.597h45.734c.884 0 1.6.715 1.6 1.597 0 .883-.716 1.598-1.6 1.598zM95.734 36.256H50c-.883 0-1.6-.715-1.6-1.597 0-.883.717-1.598 1.6-1.598h45.734c.884 0 1.6.715 1.6 1.598 0 .882-.716 1.597-1.6 1.597zM95.734 47.605H50c-.883 0-1.6-.715-1.6-1.598 0-.882.717-1.597 1.6-1.597h45.734c.884 0 1.6.715 1.6 1.597 0 .883-.716 1.598-1.6 1.598zM95.734 58.954H50c-.883 0-1.6-.716-1.6-1.598 0-.882.717-1.597 1.6-1.597h45.734c.884 0 1.6.715 1.6 1.597s-.716 1.598-1.6 1.598zM95.734 70.302H50c-.883 0-1.6-.715-1.6-1.597 0-.883.717-1.598 1.6-1.598h45.734c.884 0 1.6.715 1.6 1.598 0 .882-.716 1.597-1.6 1.597z"/>
    </g>
</svg>
