<?xml version="1.0" encoding="UTF-8"?>
<svg width="99px" height="100px" viewBox="0 0 99 100" version="1.1" xmlns="http://www.w3.org/2000/svg" xmlns:xlink="http://www.w3.org/1999/xlink">
    <!-- Generator: Sketch 64 (93537) - https://sketch.com -->
    <title>Group 26</title>
    <desc>Created with Sketch.</desc>
    <defs>
        <polygon id="path-1" points="0.0868723404 0.0450075047 91.5646809 0.0450075047 91.5646809 27.8723404 0.0868723404 27.8723404"></polygon>
        <polygon id="path-3" points="0.122748124 0.0780851064 29.9353404 0.0780851064 29.9353404 18.5612062 0.122748124 18.5612062"></polygon>
        <polygon id="path-5" points="0.169148936 0.0780851064 15.4674468 0.0780851064 15.4674468 18.4745122 0.169148936 18.4745122"></polygon>
    </defs>
    <g id="Page-1" stroke="none" stroke-width="1" fill="none" fill-rule="evenodd">
        <g id="AB2D-homepage-v2---middle" transform="translate(-308.000000, -303.000000)">
            <g id="Group-26" transform="translate(308.000000, 303.000000)">
                <path d="M35.977234,87.0780638 L52.7919149,87.0780638 C55.5738298,87.0780638 58.346383,86.7512553 61.0521277,86.1040213 L62.4808511,85.7623191 C62.6931915,85.7114681 62.8429787,85.5218936 62.8429787,85.303383 L62.8704255,83.0963617 C62.8751064,82.7195532 62.8531915,82.3412553 62.786383,81.9699787 C62.1642553,78.5138085 59.3902128,75.8065745 55.8653191,75.3078511 L38.6689362,73.3278511 C34.7021277,72.7665745 32.7197872,71.4372128 29.2617021,69.414234 C24.5404255,66.6523191 19.1691489,65.1967872 13.6993617,65.1967872 L7.53361702,65.1967872 L7.53361702,77.6372128 L30.0108511,86.0035957 C31.9195745,86.714234 33.9402128,87.0780638 35.977234,87.0780638" id="Fill-1" fill="#FFECE3"></path>
                <g id="Group-5" transform="translate(7.446809, 72.049574)">
                    <mask id="mask-2" fill="white">
                        <use xlink:href="#path-1"></use>
                    </mask>
                    <g id="Clip-4"></g>
                    <path d="M83.6343191,0.820319149 L55.3958085,13.2539362 L53.6049574,13.682234 C50.8994255,14.3292553 48.1268723,14.6562766 45.3449574,14.6562766 L28.5304894,14.6562766 C26.4934681,14.6562766 24.4730426,14.2924468 22.5641064,13.5818085 L0.0868723404,5.21542553 L0.0868723404,18.431383 L22.5641064,26.7979787 C24.4730426,27.508617 26.4934681,27.8724468 28.5304894,27.8724468 L51.6949574,27.8724468 C54.9366596,27.8724468 58.1115532,26.9509574 60.8498511,25.2158511 L89.8536809,8.85265957 C91.7675106,7.15351064 92.1221915,4.29797872 90.682617,2.18202128 C89.1075106,-0.13287234 86.501766,-0.535212766 83.6343191,0.820319149" id="Fill-3" fill="#FFDDCE" mask="url(#mask-2)"></path>
                </g>
                <path d="M10.9491915,93.8928085 C10.9491915,95.5277021 9.62387234,96.853234 7.98876596,96.853234 L2.96046809,96.853234 C1.32557447,96.853234 4.25531915e-05,95.5279149 4.25531915e-05,93.8928085 L4.25531915e-05,61.7804681 C4.25531915e-05,60.1455745 1.3253617,58.8200426 2.96046809,58.8200426 L7.98876596,58.8200426 C9.62365957,58.8200426 10.9491915,60.1453617 10.9491915,61.7804681 L10.9491915,93.8928085 Z" id="Fill-6" fill="#7C8B96"></path>
                <path d="M58.2977234,41.9300213 C57.2572979,41.7995957 56.475383,40.9183191 56.4711277,39.8700213 L56.4309149,30.3338511 L41.8602766,30.3953404 L41.9004894,39.9315106 C41.9049574,40.9798085 41.1300638,41.8674681 40.0913404,42.0068298 C40.0913404,42.0068298 37.4009149,51.2021489 49.2330426,51.1525632 C61.0655957,51.1025745 58.2977234,41.9300213 58.2977234,41.9300213" id="Fill-8" fill="#FFECE3"></path>
                <path d="M58.2977234,41.9300213 C57.2572979,41.7995957 56.475383,40.9183191 56.4711277,39.8700213 L56.4309149,30.3338511 L47.0575106,30.3734255 L47.0958085,48.3349149 C47.1002766,49.3832128 47.8821915,50.2642766 48.9224043,50.3949149 C48.9224043,50.3949149 49.0083617,50.6810851 49.085383,51.1510851 C49.1351702,51.1512979 49.1830426,51.1523855 49.2332553,51.1523855 C61.0655957,51.1025745 58.2977234,41.9300213 58.2977234,41.9300213" id="Fill-10" fill="#FFDDCE"></path>
                <path d="M62.8979574,17.0014894 L62.0164681,17.0051064 L62.0122128,15.9702128 L62.0017872,13.4961702 C61.9871064,10.0029787 60.5388085,6.62425532 57.882,4.35617021 C55.799234,2.57787234 52.8754043,1.03042553 49.0215745,1.00382979 C45.1679574,1.06297872 42.2575319,2.63510638 40.1896596,4.43085106 C37.5522128,6.7212766 36.1324255,10.1121277 36.1471064,13.6053191 L36.1575319,16.0793617 L36.162,17.1144681 L35.2807234,17.1180851 C33.988383,17.123617 32.9454043,18.1755319 32.9509143,19.4676596 L32.9617872,22.0604255 C32.9673191,23.3525532 34.019234,24.3957447 35.3113617,24.3902128 L36.1960426,24.386383 C36.2834894,27.7817021 37.7241277,31.0438298 40.3113617,33.252766 C42.3943404,35.0310638 45.3179574,36.5785106 49.1717872,36.6051064 C53.0251915,36.5459574 55.935617,34.9738298 58.0037021,33.1780851 C60.572,30.9476596 61.9851915,27.6731915 62.0437021,24.2774468 L62.9288085,24.273617 C64.2209362,24.2680851 65.2641277,23.2161702 65.2586176,21.9240426 L65.2477447,19.3312766 C65.242,18.0391489 64.1898723,16.9961702 62.8979574,17.0014894" id="Fill-12" fill="#FFECE3"></path>
                <path d="M65.2475106,19.3313191 C65.2419787,18.0391915 64.1898511,16.996 62.8979362,17.0015319 L62.016234,17.0051489 L62.0121915,15.9700426 L62.001766,13.496 C61.9870851,10.0028085 60.5383617,6.62408511 57.8819787,4.356 C55.7992128,2.57770213 52.875383,1.03025532 49.0215532,1.00365957 C48.906234,1.0053617 48.7941064,1.01280851 48.6807021,1.0172766 L48.7115532,24.2770638 C48.6530426,27.6730213 47.2398511,30.9472766 44.6713404,33.1777021 C44.0166596,33.7462128 43.2768723,34.2917447 42.4502766,34.7745106 C44.2611277,35.8306809 46.4907021,36.586 49.1715532,36.6047234 C53.0249574,36.5455745 55.935383,34.9734468 58.0034681,33.1777021 C60.571766,30.9472766 61.9851702,27.6728085 62.0434681,24.2770638 L62.9285745,24.2734468 C64.2207021,24.2679149 65.2638936,23.216 65.2583836,21.9238723 L65.2475106,19.3313191 Z" id="Fill-14" fill="#FFDDCE"></path>
                <path d="M44.5572766,62.3024681 C49.2881277,62.3411915 65.6594043,52.9618298 68.0902553,43.7211915 C64.7619574,42.8197021 60.6274894,42.2226809 58.2977021,41.9303404 L49.2185532,47.6620426 L40.0913191,42.0067234 C36.9921702,42.4222553 30.6977021,43.4054468 27.3717447,44.9028936 C25.0406809,45.9524681 23.2466383,47.8165106 22.2553617,50.068 C22.2553617,50.068 20.3781277,54.7856596 20.373445,59.711617 C20.3713191,62.0262979 22.2430213,62.3101277 22.2430213,62.3101277 L44.5572766,62.3024681" id="Fill-16" fill="#DDEAFB"></path>
                <path d="M78.706,59.8041277 C78.1674894,55.2300851 76.4474894,50.4362553 76.4474894,50.4362553 C75.5042979,47.9268936 73.5877021,45.8402979 71.0447234,44.7209362 C70.1140851,44.3113617 68.9530213,43.9434894 67.6951489,43.6177447 C62.6842979,53.0371064 53.5945106,60.2454043 42.7789787,62.3024255 C42.8111064,62.3085957 69.6355745,62.3041277 77.0138723,62.3028511 C78.1902553,62.3026383 78.9011064,61.4630638 78.706,59.8041277" id="Fill-18" fill="#BED8FB"></path>
                <g id="Group-22" transform="translate(34.042553, 0.134681)">
                    <mask id="mask-4" fill="white">
                        <use xlink:href="#path-3"></use>
                    </mask>
                    <g id="Clip-21"></g>
                    <path d="M20.0104468,0.078059194 L9.84895745,0.120914894 C7.99385106,0.128787234 6.4223617,1.32453191 5.85044681,2.98453191 C5.63597872,3.60665957 5.04491489,4.02006383 4.38661702,4.02282979 C2.0217234,4.03282979 0.112787234,5.95793617 0.122748124,8.32282979 L0.160446809,17.2515532 C0.160446809,17.2515532 3.91746809,17.1911277 5.1936383,18.439 C5.46193617,18.7013404 5.91257447,18.5136809 5.91087234,18.1383617 L5.88619149,12.2687872 C5.87768085,10.2307021 7.52278723,8.57176596 9.56065957,8.56304255 L9.60512766,8.56282979 C10.215766,8.5602766 10.8198085,8.65197872 11.3978936,8.83134043 C12.4976809,9.17261702 13.6355532,9.37517021 14.7870426,9.3702766 L15.243,9.3683617 C16.3944894,9.36346809 17.5306596,9.15134043 18.6274681,8.80070213 C19.2038511,8.61644681 19.8072553,8.5196383 20.4178936,8.51708511 L20.4621489,8.51687234 C22.500234,8.5083617 24.1591702,10.1534681 24.1678936,12.1913404 L24.1925745,18.0609149 C24.1940638,18.436234 26.4306596,18.612617 26.696617,18.3479362 C27.9621489,17.0892128 29.9353404,17.1255957 29.9353404,17.1255957 L29.9049149,9.88921277 C29.8819362,4.44793617 25.4519362,0.0551702128 20.0104468,0.078059194 Z" id="Fill-20" fill="#AA8080" mask="url(#mask-4)"></path>
                </g>
                <g id="Group-25" transform="translate(48.510638, 0.134681)">
                    <mask id="mask-6" fill="white">
                        <use xlink:href="#path-5"></use>
                    </mask>
                    <g id="Clip-24"></g>
                    <path d="M15.4368085,9.88957447 C15.4138298,4.44787234 10.9840426,0.055106383 5.54234043,0.0779953642 L0.169148936,0.100638298 L0.181489362,9.36765957 C0.227446809,9.36808511 0.272978723,9.37042553 0.31893617,9.37021277 L0.774893617,9.36829787 C1.92638298,9.36340426 3.06255319,9.1512766 4.1593617,8.8006383 C4.73595745,8.61638298 5.33914894,8.51957447 5.94978723,8.51702128 L5.99404255,8.51680851 C8.03191489,8.50829787 9.69106383,10.1534043 9.69978723,12.1912766 L9.72446809,18.0608511 C9.72595745,18.4361702 11.9625532,18.6125532 12.2285106,18.3478723 C13.4940426,17.0891489 15.4674468,17.1255319 15.4674468,17.1255319 L15.4368085,9.88957447 Z" id="Fill-23" fill="#9D6B6B" mask="url(#mask-6)"></path>
                </g>
            </g>
        </g>
    </g>
</svg>