<svg xmlns="http://www.w3.org/2000/svg" width="374" height="388" viewBox="0 0 374 388">
    <g fill="none">
        <g>
            <path fill="#D4ECFF" d="M36.449 124.163L54.673 113.641 36.449 103.242 18.224 113.641 18.224 113.641 0 124.163 18.224 134.561 18.224 134.561 36.449 144.96 54.673 134.561z" transform="translate(101 48)"/>
            <path fill="#173D7A" d="M36.449 98.167L36.449 21.54 54.673 11.141 54.673 87.644z" transform="translate(101 48)"/>
            <path fill="#396CAA" d="M36.449 21.54L18.224 11.141 18.224 87.644 36.449 98.167z" transform="translate(101 48)"/>
            <path fill="#D4ECFF" d="M54.673 11.141L36.449 0.743 18.224 11.141 36.449 21.54z" transform="translate(101 48)"/>
            <path fill="#95D359" d="M54.673 101.633L36.449 91.111 36.449 98.167 54.673 108.565z" transform="translate(101 48)"/>
            <g>
                <path fill="#C13D1A" d="M18.224 76.543L18.224 20.837 36.449 10.439 36.449 66.145z" transform="translate(101 48) translate(0 32.022)"/>
                <path fill="#DB5126" d="M18.224 20.837L0 10.439 0 66.145 18.224 76.543z" transform="translate(101 48) translate(0 32.022)"/>
                <path fill="#EF602E" d="M36.449 10.439L18.224 0.04 0 10.439 18.224 20.837z" transform="translate(101 48) translate(0 32.022)"/>
                <path fill="#396CAA" d="M18.224 76.543L18.224 20.837 36.449 10.439 36.449 66.145z" transform="translate(101 48) translate(0 32.022)"/>
                <path fill="#5793CE" d="M18.224 20.837L0 10.439 0 66.145 18.224 76.543z" transform="translate(101 48) translate(0 32.022)"/>
                <path fill="#D4ECFF" d="M36.449 10.439L18.224 0.04 0 10.439 18.224 20.837z" transform="translate(101 48) translate(0 32.022)"/>
            </g>
            <g>
                <path fill="#173D7A" d="M18.973 52.116L18.973 20.797 37.198 10.398 37.198 41.718z" transform="translate(101 48) translate(17.476 66.847)"/>
                <path fill="#396CAA" d="M18.973 20.797L0.749 10.398 0.749 41.718 18.973 52.116z" transform="translate(101 48) translate(17.476 66.847)"/>
                <path fill="#D4ECFF" d="M37.198 10.398L18.973 0 0.749 10.398 18.973 20.797z" transform="translate(101 48) translate(17.476 66.847)"/>
            </g>
        </g>
        <g fill="#5793CE">
            <path d="M11.424 -0.871L13.581 -0.847 13.653 5.364 11.496 5.341z" transform="translate(358 205) rotate(75.629 12.538 2.247)"/>
            <path d="M8.288 2.357L10.572 2.382 10.644 8.594 8.359 8.568z" transform="translate(358 205) rotate(75.623 9.466 5.475)"/>
            <path d="M5.318 5.29L7.476 5.314 7.548 11.526 5.39 11.502z" transform="translate(358 205) rotate(75.623 6.433 8.408)"/>
            <path d="M2.2 8.423L4.358 8.447 4.429 14.658 2.272 14.634z" transform="translate(358 205) rotate(75.629 3.315 11.54)"/>
        </g>
        <g>
            <path fill="#D4ECFF" d="M138.542 298.273l-135.833-78.6c-3.817-2.222-3.325-6.047 1.109-8.638l92.484-53.552c4.433-2.591 11.206-2.838 15.024-.617l135.833 78.6c3.817 2.221 3.325 6.046-1.109 8.638l-92.484 53.552c-4.433 2.467-11.083 2.838-15.024.617z" transform="translate(74 63)"/>
            <g>
                <path fill="#173D7A" d="M151.226 80.857L13.054 1.022C11.33.035 9.606-.212 8.374.405L8.128.53 3.57 2.626l4.926 2.468v113.891c0 5.676 3.572 12.339 7.882 14.807l134.355 77.736.738 6.293 4.926-2.344c1.601-.987 2.586-3.085 2.586-6.17V95.664c0-5.676-3.448-12.34-7.758-14.807z" transform="translate(74 63) translate(100.982)"/>
                <path fill="#396CAA" d="M151.226 80.857L13.054 1.022C11.33.035 9.606-.212 8.374.405L8.128.53 3.57 2.626l4.926 2.468V80.24l62.806 49.727 85.342-43.064c-1.355-2.591-3.325-4.812-5.419-6.046z" transform="translate(74 63) translate(100.982)"/>
                <path fill="#274F89" d="M153.443 82.708l-13.547 5.676 10.222 7.897 8.497-3.579c-.616-3.825-2.586-7.65-5.172-9.994z" transform="translate(74 63) translate(100.982)"/>
                <path fill="#D4ECFF" d="M146.67 217.204L8.62 137.37C4.31 134.902.74 128.239.74 122.563V8.919C.739 3.243 4.187.652 8.62 3.12l138.05 79.834c4.31 2.468 7.881 9.131 7.881 14.807v113.644c0 5.8-3.571 8.39-7.881 5.8z" transform="translate(74 63) translate(100.982)"/>
                <path fill="#FFF" d="M142.113 208.814L13.177 134.285c-3.94-2.344-7.143-8.39-7.143-13.573V16.693c0-5.182 3.202-7.527 7.143-5.306l128.936 74.529c3.94 2.344 7.143 8.39 7.143 13.573v104.019c0 5.182-3.202 7.527-7.143 5.306z" transform="translate(74 63) translate(100.982)"/>
                <path fill="#FFF" d="M142.113 208.814L13.177 134.285c-3.94-2.344-7.143-8.39-7.143-13.573V16.693c0-5.182 3.202-7.527 7.143-5.306l128.936 74.529c3.94 2.344 7.143 8.39 7.143 13.573v104.019c0 5.182-3.202 7.527-7.143 5.306z" transform="translate(74 63) translate(100.982)"/>
            </g>
            <path fill="#173D7A" d="M249.745 220.783l-18.596-2.468-119.823-69.346c-3.818-2.221-10.59-1.974-15.024.617l-84.972 49.11-11.207-1.481v6.416c-.123 1.48.739 2.838 2.586 3.949l135.833 78.6c3.817 2.221 10.59 1.974 15.024-.617l92.484-53.552c2.463-1.48 3.695-3.331 3.695-5.059v-6.17z" transform="translate(74 63)"/>
            <path fill="#396CAA" d="M159.723 176.979l-8.497-4.936H57.633l-46.18 26.653-11.207-1.481v6.416c-.123 1.48.74 2.838 2.586 3.949l135.833 78.6c1.97 1.234 4.803 1.604 7.758 1.48l13.3-110.681z" transform="translate(74 63)"/>
            <path fill="#5793CE" d="M5.172 197.832l-4.926-.617v6.416c-.123 1.48.74 2.838 2.586 3.949l2.34 1.357v-11.105z" transform="translate(74 63)"/>
            <path fill="#274F89" d="M139.896 286.797c3.695 1.357 8.867 1.11 12.685-.74v-14.19h-12.685v14.93z" transform="translate(74 63)"/>
            <path fill="#D4ECFF" d="M138.542 279.764l-135.833-78.6c-3.817-2.222-3.325-6.047 1.109-8.638l92.484-53.552c4.433-2.591 11.206-2.838 15.024-.617l135.833 78.6c3.817 2.222 3.325 6.047-1.109 8.638l-92.484 53.552c-4.433 2.591-11.083 2.838-15.024.617z" transform="translate(74 63)"/>
            <path fill="#FFF" d="M246.05 223.374l-92.484 53.552c-4.433 2.591-11.207 2.838-15.024.617L2.709 198.819c-1.231-.74-2.093-1.604-2.34-2.591-.615 1.85.124 3.701 2.34 4.935l135.833 78.6c3.817 2.222 10.59 1.975 15.024-.616l92.484-53.552c2.956-1.728 4.187-4.072 3.448-6.046-.369 1.357-1.6 2.714-3.448 3.825z" transform="translate(74 63)"/>
            <g>
                <path fill="#173D7A" d="M6.512 34.303L.355 30.724c-.493-.246-.493-.74.123-1.11l7.266-4.195c.615-.37 1.477-.37 1.97-.124l6.157 3.579c.493.246.493.74-.123 1.11L8.482 34.18c-.615.37-1.477.494-1.97.124zM15.994 39.855l-6.157-3.578c-.493-.247-.493-.74.123-1.11l7.266-4.196c.616-.37 1.478-.37 1.97-.123l6.158 3.578c.492.247.492.74-.123 1.11l-7.266 4.196c-.616.37-1.478.37-1.97.123zM25.6 45.285l-6.157-3.579c-.493-.246-.493-.74.123-1.11l7.266-4.196c.615-.37 1.477-.37 1.97-.123l6.157 3.578c.493.247.493.74-.123 1.111l-7.266 4.195c-.615.37-1.477.494-1.97.124zM38.654 40.843l-6.158-3.579c-.492-.247-.492-.74.123-1.11l6.035-3.579c.615-.37 1.478-.37 1.97-.123l6.158 3.578c.492.247.492.74-.124 1.11l-6.034 3.58c-.616.37-1.478.37-1.97.123zM48.136 46.272l-6.157-3.579c-.493-.246-.493-.74.123-1.11l6.034-3.578c.616-.37 1.478-.37 1.97-.124l6.158 3.579c.493.246.493.74-.123 1.11l-6.034 3.578c-.616.37-1.478.37-1.97.124zM57.619 51.824l-6.158-3.578c-.492-.247-.492-.74.123-1.11l6.035-3.579c.615-.37 1.477-.37 1.97-.123l6.157 3.578c.493.247.493.74-.123 1.11l-6.034 3.579c-.616.37-1.478.37-1.97.123zM67.101 57.254l-6.157-3.579c-.493-.246-.493-.74.123-1.11l6.034-3.579c.616-.37 1.478-.37 1.97-.123l6.158 3.578c.492.247.492.74-.123 1.11l-6.035 3.58c-.615.37-1.477.37-1.97.123zM76.583 62.806l-6.157-3.578c-.493-.247-.493-.74.123-1.11l6.034-3.579c.616-.37 1.478-.37 1.97-.123l6.158 3.578c.493.247.493.74-.123 1.11l-6.034 3.579c-.616.37-1.478.37-1.97.123zM86.189 68.236l-6.157-3.579c-.493-.247-.493-.74.123-1.11l6.034-3.579c.616-.37 1.478-.37 1.97-.123l6.158 3.578c.492.247.492.74-.123 1.11l-6.035 3.58c-.615.37-1.477.37-1.97.123zM95.671 73.788l-6.157-3.578c-.493-.247-.493-.74.123-1.11l6.034-3.58c.616-.37 1.478-.37 1.97-.123l6.158 3.579c.493.247.493.74-.123 1.11l-6.034 3.579c-.616.37-1.478.37-1.97.123zM105.154 79.217l-6.158-3.578c-.492-.247-.492-.74.124-1.11l6.034-3.579c.616-.37 1.478-.37 1.97-.123l6.158 3.578c.492.247.492.74-.124 1.11l-6.034 3.579c-.616.37-1.478.37-1.97.123zM114.636 84.77l-6.157-3.578c-.493-.247-.493-.74.123-1.11l6.034-3.58c.616-.37 1.478-.37 1.97-.123l6.158 3.579c.493.246.493.74-.123 1.11l-6.034 3.579c-.616.37-1.478.37-1.97.123zM124.119 90.2l-6.158-3.58c-.492-.246-.492-.74.123-1.11l6.035-3.578c.615-.37 1.477-.37 1.97-.123l6.157 3.578c.493.247.493.74-.123 1.11l-6.034 3.579c-.616.37-1.478.37-1.97.123z" transform="translate(74 63) translate(53.954 140.825)"/>
                <path fill="#396CAA" d="M52.693 38.128l-6.158-3.578c-.492-.247-.492-.74.123-1.11l6.035-3.58c.615-.37 1.477-.37 1.97-.123l6.157 3.579c.493.246.493.74-.123 1.11l-6.034 3.579c-.616.493-1.478.493-1.97.123zM42.964 32.575l-6.157-3.578c-.493-.247-.493-.74.123-1.11l6.034-3.579c.616-.37 1.478-.37 1.97-.123l6.158 3.578c.492.247.492.74-.123 1.11l-6.035 3.579c-.615.37-1.477.494-1.97.123z" transform="translate(74 63) translate(53.954 140.825)"/>
                <path fill="#173D7A" d="M33.358 27.023l-13.176-7.65c-.493-.247-.493-.74.123-1.111l6.034-3.578c.616-.37 1.478-.37 1.97-.124l13.177 7.65c.493.247.493.74-.123 1.111l-6.034 3.578c-.616.37-1.478.37-1.97.124zM40.132 20.236l-10.714-6.17c-.493-.246-.493-.74.123-1.11l6.034-3.578c.616-.37 1.478-.37 1.97-.124l10.714 6.17c.493.247.493.74-.123 1.11l-6.034 3.579c-.616.37-1.478.37-1.97.123z" transform="translate(74 63) translate(53.954 140.825)"/>
                <path fill="#396CAA" d="M62.175 43.68l-6.157-3.578c-.493-.247-.493-.74.123-1.11l6.034-3.579c.616-.37 1.478-.37 1.97-.123l6.158 3.578c.492.247.492.74-.123 1.11l-6.035 3.58c-.615.37-1.477.37-1.97.123z" transform="translate(74 63) translate(53.954 140.825)"/>
                <path fill="#173D7A" d="M71.657 49.11L65.5 45.53c-.493-.246-.493-.74.123-1.11l6.034-3.578c.616-.37 1.478-.37 1.97-.124l6.158 3.579c.493.246.493.74-.123 1.11l-6.034 3.578c-.616.494-1.478.494-1.97.124zM81.14 54.662l-6.158-3.578c-.492-.247-.492-.74.124-1.11l6.034-3.579c.616-.37 1.478-.37 1.97-.123l6.158 3.578c.492.247.492.74-.123 1.11L83.11 54.54c-.615.37-1.477.37-1.97.123zM90.622 60.092l-6.157-3.579c-.493-.246-.493-.74.123-1.11l6.034-3.579c.616-.37 1.478-.37 1.97-.123l6.158 3.578c.493.247.493.74-.123 1.11l-6.034 3.58c-.616.493-1.478.493-1.97.123zM100.105 65.644l-6.158-3.578c-.492-.247-.492-.74.123-1.11l6.035-3.579c.615-.37 1.478-.37 1.97-.123l6.158 3.578c.492.247.492.74-.124 1.11l-6.034 3.579c-.616.37-1.478.37-1.97.123zM109.587 71.074l-6.157-3.579c-.493-.247-.493-.74.123-1.11l6.034-3.579c.616-.37 1.478-.37 1.97-.123l6.158 3.578c.493.247.493.74-.123 1.11l-6.034 3.58c-.616.493-1.478.493-1.97.123zM119.07 76.626l-6.158-3.578c-.492-.247-.492-.74.123-1.11l6.035-3.58c.615-.37 1.477-.37 1.97-.122l6.157 3.578c.493.247.493.74-.123 1.11l-6.034 3.579c-.616.37-1.478.37-1.97.123zM128.552 82.055l-6.157-3.578c-.493-.247-.493-.74.123-1.11l6.034-3.579c.616-.37 1.478-.37 1.97-.123l6.158 3.578c.492.247.492.74-.123 1.11l-6.035 3.579c-.615.494-1.477.494-1.97.123zM138.034 87.608l-6.157-3.578c-.493-.247-.493-.74.123-1.11l6.034-3.58c.616-.37 1.478-.37 1.97-.123l6.158 3.579c.493.246.493.74-.123 1.11l-6.034 3.579c-.616.37-1.478.37-1.97.123zM154.906 97.356l-13.423-7.774c-.493-.247-.493-.74.123-1.11l6.034-3.579c.616-.37 1.478-.37 1.97-.123l13.424 7.774c.492.246.492.74-.124 1.11l-6.034 3.579c-.616.37-1.478.37-1.97.123zM173.378 86.62l-11.33-6.539c-.492-.247-.492-.74.123-1.11l6.035-3.579c.615-.37 1.478-.37 1.97-.123l11.33 6.54c.492.246.492.74-.123 1.11l-6.035 3.578c-.492.37-1.354.494-1.97.124zM78.8 42.57l-6.157-3.578c-.493-.247-.493-.74.123-1.11l6.034-3.58c.616-.37 1.478-.37 1.97-.123l6.158 3.579c.492.247.492.74-.123 1.11l-6.035 3.579c-.615.37-1.477.493-1.97.123zM69.071 37.017l-6.157-3.578c-.493-.247-.493-.74.123-1.11l6.034-3.579c.616-.37 1.478-.37 1.97-.123l6.158 3.578c.493.247.493.74-.123 1.11l-6.034 3.58c-.616.37-1.478.37-1.97.122z" transform="translate(74 63) translate(53.954 140.825)"/>
                <path fill="#396CAA" d="M59.343 31.341l-6.158-3.578c-.492-.247-.492-.74.123-1.11l6.035-3.579c.615-.37 1.477-.37 1.97-.123l6.157 3.578c.493.247.493.74-.123 1.11l-6.034 3.58c-.616.37-1.478.37-1.97.122z" transform="translate(74 63) translate(53.954 140.825)"/>
                <path fill="#173D7A" d="M49.614 25.665l-6.157-3.578c-.493-.247-.493-.74.123-1.11l6.034-3.579c.616-.37 1.478-.37 1.97-.123l6.158 3.578c.492.247.492.74-.123 1.11l-6.035 3.579c-.615.37-1.477.494-1.97.123zM88.283 48.123l-6.158-3.579c-.492-.246-.492-.74.123-1.11l6.035-3.579c.615-.37 1.477-.37 1.97-.123l6.157 3.578c.493.247.493.74-.123 1.11L90.253 48c-.616.37-1.478.37-1.97.123zM97.765 53.552l-6.157-3.578c-.493-.247-.493-.74.123-1.111l6.034-3.578c.616-.37 1.478-.37 1.97-.124l6.158 3.579c.492.246.492.74-.123 1.11l-6.035 3.579c-.615.37-1.477.493-1.97.123zM107.247 59.105l-6.157-3.579c-.493-.247-.493-.74.123-1.11l6.034-3.579c.616-.37 1.478-.37 1.97-.123l6.158 3.578c.493.247.493.74-.123 1.11l-6.034 3.58c-.616.37-1.478.37-1.97.123zM116.73 64.534l-6.158-3.579c-.492-.246-.492-.74.124-1.11l6.034-3.578c.616-.37 1.478-.37 1.97-.124l6.158 3.578c.492.247.492.74-.124 1.111L118.7 64.41c-.616.37-1.478.494-1.97.124zM126.212 70.086l-6.157-3.578c-.493-.247-.493-.74.123-1.11l6.034-3.579c.616-.37 1.478-.37 1.97-.123l6.158 3.578c.493.247.493.74-.123 1.11l-6.034 3.579c-.616.37-1.478.37-1.97.123zM135.695 75.516l-6.158-3.579c-.492-.247-.492-.74.123-1.11l6.035-3.579c.615-.37 1.477-.37 1.97-.123l6.157 3.578c.493.247.493.74-.123 1.11l-6.034 3.58c-.616.37-1.478.493-1.97.123zM145.177 81.068l-6.157-3.578c-.493-.247-.493-.74.123-1.11l6.034-3.579c.616-.37 1.478-.37 1.97-.123l6.158 3.578c.492.247.492.74-.123 1.11l-6.035 3.579c-.615.37-1.477.37-1.97.123zM154.66 86.497l-6.158-3.578c-.493-.247-.493-.74.123-1.11l6.034-3.579c.616-.37 1.478-.37 1.97-.123l6.158 3.578c.493.247.493.74-.123 1.11l-6.034 3.58c-.616.37-1.478.493-1.97.122zM164.142 92.05l-6.158-3.578c-.492-.247-.492-.74.124-1.11l6.034-3.58c.616-.37 1.478-.37 1.97-.123l6.158 3.579c.492.247.492.74-.124 1.11l-6.034 3.579c-.616.37-1.478.37-1.97.123zM73.751 28.997l-6.157-3.578c-.493-.247-.493-.74.123-1.11l6.034-3.58c.616-.37 1.478-.37 1.97-.123l6.158 3.579c.492.247.492.74-.123 1.11l-6.035 3.579c-.615.37-1.477.493-1.97.123zM64.269 23.568l-6.158-3.579c-.492-.246-.492-.74.123-1.11L64.27 15.3c.615-.37 1.477-.37 1.97-.124l6.157 3.579c.493.246.493.74-.123 1.11l-6.034 3.578c-.616.37-1.478.37-1.97.124zM54.91 18.139l-6.158-3.579c-.493-.247-.493-.74.123-1.11L54.91 9.87c.616-.37 1.478-.37 1.97-.123l6.158 3.578c.493.247.493.74-.123 1.11l-6.034 3.58c-.616.37-1.478.37-1.97.123zM45.427 12.586l-6.158-3.578c-.492-.247-.492-.74.124-1.11l6.034-3.58c.616-.37 1.478-.37 1.97-.123l6.158 3.579c.492.246.492.74-.123 1.11l-6.035 3.579c-.615.37-1.478.493-1.97.123zM55.156 7.033l-6.158-3.578c-.492-.247-.492-.74.123-1.11l1.97-1.111c.616-.37 1.479-.37 1.971-.123l6.158 3.578c.492.247.492.74-.124 1.11l-1.97 1.11c-.616.371-1.478.371-1.97.124zM67.47 14.19l-6.157-3.578c-.493-.247-.493-.74.123-1.11l1.97-1.111c.616-.37 1.478-.37 1.97-.124l6.158 3.579c.493.246.493.74-.123 1.11l-1.97 1.11c-.616.37-1.478.37-1.97.124zM76.83 19.62l-6.158-3.58c-.492-.246-.492-.74.123-1.11l1.97-1.11c.617-.37 1.479-.37 1.971-.124l6.158 3.579c.492.247.492.74-.124 1.11l-1.97 1.11c-.616.371-1.478.371-1.97.124zM86.312 25.048l-6.157-3.578c-.493-.247-.493-.74.123-1.11l1.97-1.11c.616-.371 1.478-.371 1.97-.124l6.158 3.578c.493.247.493.74-.123 1.11l-1.97 1.111c-.616.37-1.478.37-1.97.123zM95.671 30.478l-6.157-3.579c-.493-.246-.493-.74.123-1.11l1.97-1.11c.616-.37 1.478-.37 1.97-.124l6.158 3.578c.493.247.493.74-.123 1.11l-1.97 1.111c-.616.37-1.478.37-1.97.124zM148.256 60.832l-6.158-3.578c-.492-.247-.492-.74.123-1.11l1.97-1.111c.617-.37 1.479-.37 1.971-.124l6.158 3.579c.492.246.492.74-.124 1.11l-1.97 1.11c-.616.37-1.478.37-1.97.124zM157.615 66.261l-6.157-3.578c-.493-.247-.493-.74.123-1.11l1.97-1.111c.616-.37 1.478-.37 1.97-.124l6.158 3.579c.492.247.492.74-.123 1.11l-1.97 1.11c-.616.371-1.478.371-1.971.124zM166.974 71.69l-6.157-3.578c-.493-.247-.493-.74.123-1.11l1.97-1.11c.616-.371 1.478-.371 1.97-.124l6.158 3.578c.493.247.493.74-.123 1.11l-1.97 1.111c-.616.37-1.478.494-1.97.123zM176.457 77.12l-6.158-3.579c-.492-.246-.492-.74.123-1.11l1.97-1.11c.617-.37 1.479-.37 1.971-.124l6.158 3.578c.492.247.492.74-.124 1.11l-1.97 1.111c-.616.37-1.478.494-1.97.124zM83.233 34.55l-6.157-3.579c-.493-.247-.493-.74.123-1.11l6.034-3.579c.616-.37 1.478-.37 1.97-.123l6.158 3.578c.493.247.493.74-.123 1.11l-6.034 3.58c-.616.37-1.478.37-1.97.123zM92.716 39.979L86.558 36.4c-.492-.246-.492-.74.124-1.11l6.034-3.578c.616-.37 1.478-.37 1.97-.124l6.158 3.579c.492.246.492.74-.124 1.11l-6.034 3.578c-.616.37-1.478.494-1.97.124zM102.198 45.531l-6.157-3.578c-.493-.247-.493-.74.123-1.11l6.034-3.579c.616-.37 1.478-.37 1.97-.123l6.158 3.578c.493.247.493.74-.123 1.11l-6.034 3.58c-.616.37-1.478.37-1.97.122zM111.68 50.96l-6.157-3.578c-.492-.246-.492-.74.123-1.11l6.035-3.579c.615-.37 1.477-.37 1.97-.123l6.157 3.578c.493.247.493.74-.123 1.11l-6.034 3.58c-.616.37-1.478.493-1.97.123zM121.286 56.513l-6.157-3.578c-.493-.247-.493-.74.123-1.11l6.034-3.579c.616-.37 1.478-.37 1.97-.123l6.158 3.578c.493.247.493.74-.123 1.11l-6.034 3.579c-.616.37-1.478.37-1.97.123zM130.769 61.943l-6.158-3.579c-.492-.247-.492-.74.123-1.11l6.035-3.579c.615-.37 1.477-.37 1.97-.123l6.157 3.578c.493.247.493.74-.123 1.11l-6.034 3.58c-.616.37-1.478.493-1.97.123zM140.251 67.495l-6.157-3.578c-.493-.247-.493-.74.123-1.11l6.034-3.58c.616-.37 1.478-.37 1.97-.122l6.158 3.578c.492.247.492.74-.123 1.11l-6.035 3.579c-.615.37-1.477.37-1.97.123zM149.734 72.924l-6.158-3.578c-.492-.247-.492-.74.123-1.11l6.035-3.579c.615-.37 1.477-.37 1.97-.123l6.157 3.578c.493.247.493.74-.123 1.11l-6.034 3.579c-.616.37-1.478.494-1.97.123zM159.216 78.477l-6.157-3.578c-.493-.247-.493-.74.123-1.11l6.034-3.58c.616-.37 1.478-.37 1.97-.123l6.158 3.579c.492.247.492.74-.123 1.11l-6.035 3.579c-.615.37-1.477.37-1.97.123zM29.048 35.167L10.945 24.678c-.492-.246-.492-.74.124-1.11l6.034-3.579c.616-.37 1.478-.37 1.97-.123l18.103 10.488c.493.247.493.74-.123 1.11l-6.034 3.58c-.616.37-1.478.493-1.97.123zM145.67 102.662l-18.103-10.489c-.493-.246-.493-.74.123-1.11l6.034-3.578c.616-.37 1.478-.37 1.97-.124l18.103 10.488c.493.247.493.74-.123 1.111l-6.034 3.578c-.616.37-1.478.37-1.97.124zM107.617 92.79l-6.158-3.578c-.492-.247-.492-.74.124-1.11l7.265-4.196c.616-.37 1.478-.37 1.97-.123l6.158 3.578c.493.247.493.74-.123 1.11l-7.266 4.196c-.616.37-1.478.494-1.97.123zM38.777 52.935l-9.852-5.676c-.493-.247-.493-.74.123-1.11l7.266-4.196c.616-.37 1.478-.37 1.97-.123l9.852 5.676c.493.247.493.74-.123 1.11l-7.266 4.196c-.615.37-1.478.37-1.97.123zM98.504 87.485l-9.852-5.676c-.493-.247-.493-.74.123-1.111l7.266-4.195c.616-.37 1.478-.37 1.97-.124l9.852 5.676c.493.247.493.74-.123 1.11l-7.266 4.196c-.616.37-1.478.494-1.97.124zM52.446 60.832l-9.852-5.676c-.492-.247-.492-.74.124-1.11l7.265-4.196c.616-.37 1.478-.37 1.97-.123l9.853 5.676c.492.247.492.74-.124 1.11l-7.265 4.196c-.616.37-1.478.493-1.97.123z" transform="translate(74 63) translate(53.954 140.825)"/>
                <path fill="#173D7A" d="M51.954 49.85l42.732 24.678c.493.247.493.864 0 1.111l-7.389 4.319c-.492.246-1.354.246-1.97 0L42.594 55.279l9.36-5.429zM134.217 102.785l6.896 3.949c.37.246.37.617-.123.863l-2.956 1.728c-.492.247-1.231.247-1.6.123l-6.897-3.948c-.37-.247-.37-.617.123-.864l2.956-1.727c.492-.37 1.108-.37 1.6-.124zM124.611 97.233l6.897 3.948c.369.247.369.617-.124.864l-2.955 1.727c-.493.247-1.232.247-1.601.124l-6.896-3.949c-.37-.247-.37-.617.123-.864l2.955-1.727c.493-.37 1.232-.37 1.601-.123zM115.129 91.803l6.896 3.949c.37.247.37.617-.123.864l-2.956 1.727c-.492.247-1.231.247-1.6.123l-6.897-3.948c-.37-.247-.37-.617.123-.864l2.956-1.727c.493-.37 1.231-.37 1.6-.124zM129.907 94.148l6.896 3.948c.37.247.37.617-.123.864l-2.956 1.727c-.492.247-1.231.247-1.6.124l-6.897-3.949c-.37-.246-.37-.617.123-.863l2.956-1.728c.492-.247 1.108-.247 1.6-.123z" transform="translate(74 63) translate(53.954 140.825)"/>
            </g>
            <g fill="#D4ECFF">
                <path d="M21.551 14.56l-5.911-3.455c-.493-.37-.985-1.11-.985-1.85 0-.741.37-1.111.985-.741l5.911 3.455c.493.37.985 1.11.985 1.85 0 .741-.37.988-.985.741zM35.59 22.58l-8.62-5.058c-.493-.37-.986-1.11-.986-1.851 0-.74.37-1.11.985-.74l8.62 5.058c.493.37.986 1.11.986 1.851 0 .74-.493 1.11-.985.74zM18.719 45.902l-5.912-3.455c-.492-.37-.985-1.11-.985-1.851 0-.74.37-1.11.985-.74l5.912 3.454c.492.37.985 1.11.985 1.851 0 .74-.493 1.11-.985.74zM31.157 53.182l-8.62-5.06c-.493-.37-.986-1.11-.986-1.85s.37-1.11.985-.74l8.62 5.059c.493.37.986 1.11.986 1.85s-.493.988-.985.74zM5.419 10.735L1.724 8.637c-.493-.37-.985-1.11-.985-1.85s.37-1.111.985-.74L5.42 8.143c.492.37.985 1.11.985 1.85 0 .741-.37.988-.985.741zM17.98 23.444l-11.207-6.54c-.492-.37-.985-1.11-.985-1.85s.37-1.11.985-.74l11.207 6.54c.492.37.985 1.11.985 1.85s-.37 1.11-.985.74zM10.59 30.23l-3.694-2.097c-.492-.37-.985-1.11-.985-1.85 0-.741.37-1.111.985-.741l3.695 2.098c.492.37.985 1.11.985 1.85s-.37 1.111-.985.74zM35.467 66.755l-9.852-5.676c-.493-.37-.985-1.11-.985-1.851 0-.74.37-1.11.985-.74l9.852 5.676c.492.37.985 1.11.985 1.85 0 .617-.37.988-.985.74zM9.482 40.596l-2.34-1.358c-.492-.37-.985-1.11-.985-1.85s.37-1.11.986-.74l2.34 1.357c.492.37.985 1.11.985 1.85s-.37 1.111-.986.74zM10.221 52.071l-2.955-1.727c-.493-.37-.985-1.11-.985-1.851 0-.74.369-1.11.985-.74l2.955 1.727c.493.37.985 1.11.985 1.85 0 .741-.369 1.111-.985.741zM21.674 58.734l-7.758-4.442c-.493-.37-.985-1.11-.985-1.85 0-.741.369-1.111.985-.741l7.758 4.442c.493.37.985 1.11.985 1.851 0 .617-.492.987-.985.74zM12.93 59.228L7.39 56.02c-.493-.37-.985-1.11-.985-1.851 0-.74.37-1.11.985-.74l5.542 3.208c.492.37.985 1.11.985 1.85 0 .618-.37.988-.985.74zM43.964 71.567l-3.571-2.098c-.493-.37-.986-1.11-.986-1.85s.37-1.111.986-.74l3.57 2.097c.494.37.986 1.11.986 1.85 0 .741-.492 1.111-.985.741zM24.26 38.128l-9.852-5.676c-.492-.37-.985-1.11-.985-1.85 0-.741.37-1.111.985-.741l9.852 5.676c.493.37.985 1.11.985 1.85 0 .741-.369 1.111-.985.741zM24.014 32.452L6.896 22.581c-.492-.37-.985-1.11-.985-1.851 0-.74.37-1.11.985-.74l17.118 9.87c.493.37.985 1.111.985 1.852 0 .74-.492 1.11-.985.74zM16.871 39.362L7.02 33.686c-.492-.37-.985-1.11-.985-1.851 0-.74.37-1.11.985-.74l9.852 5.676c.493.37.986 1.11.986 1.85s-.493 1.111-.986.74zM31.772 42.447l-3.571-2.098c-.493-.37-.985-1.11-.985-1.85 0-.741.37-1.111.985-.741l3.571 2.097c.493.37.985 1.111.985 1.851s-.492 1.11-.985.74zM62.067 37.881L41.008 25.665c-.492-.37-.985-1.11-.985-1.85s.37-1.111.985-.74L62.067 35.29c.492.37.985 1.11.985 1.85 0 .741-.493 1.111-.985.741zM19.088 51.701L7.266 44.915c-.493-.37-.985-1.111-.985-1.851s.369-1.11.985-.74l11.822 6.786c.493.37.985 1.11.985 1.85-.123.618-.492.988-.985.741zM10.344 8.02l-8.62-5.059c-.493-.37-.985-1.11-.985-1.85S1.109 0 1.724.37l8.62 5.058c.493.37.986 1.11.986 1.851 0 .74-.37 1.11-.986.74zM12.684 64.534l-10.098-5.8c-.492-.37-.985-1.11-.985-1.85s.37-1.111.985-.74l10.098 5.799c.493.37.985 1.11.985 1.85s-.492.988-.985.74z" transform="translate(74 63) translate(172.408 85.299)"/>
            </g>
        </g>
        <g>
            <path fill="#D4ECFF" d="M.986 221.232l51.79-30.068c10.235-5.915 19.976-6.9 27.251-2.587 7.275 4.19 11.344 13.062 11.344 24.892v3.82l-1.11.74v-4.683c0-11.46-3.822-19.84-10.727-23.907-6.905-3.943-16.154-3.08-26.142 2.588L1.603 222.095c-.247.123-.617.123-.74-.246-.246-.124-.123-.493.123-.617zM162.52 185.25V68.673c0-23.29 16.4-51.88 36.623-63.463 9.865-5.668 19.236-6.654 26.265-2.588 7.028 4.067 10.974 12.57 10.974 24.03v8.133l-1.11 1.11v-9.243c0-10.967-3.7-19.224-10.358-23.044-6.658-3.82-15.66-2.957-25.155 2.588-19.852 11.46-36.129 39.557-36.129 62.477V185.25c0 19.347-11.344 42.268-26.881 56.07v-1.479c14.92-13.678 25.771-35.737 25.771-54.59z" transform="translate(1)"/>
            <path fill="#173D7A" d="M236.382 38.36c1.85-1.725 10.604-9.489 23.429-11.46 14.427-2.218 20.469 14.664 20.469 14.664s1.726 8.75 1.603 13.925c0 5.175-.494 24.03-.494 24.03l-45.747-26.372c-.123-.123-.37-.246-.37-.492v-13.31c.37-.369.74-.615 1.11-.985z" transform="translate(1)"/>
            <g>
                <path fill="#D4ECFF" d="M268.935 27.48L225.531 2.465l.123.616c-6.659-4.313-16.77-4.806-30.334 5.175-26.88 19.717-30.087 47.074-31.443 52.25-1.357 5.175-.863 37.708-.863 37.708s-.124 78.497-.124 87.616c-.123 9.119-2.713 19.347-7.892 30.438-5.178 11.09-18.372 24.522-18.372 24.522v16.02c2.096 17.252 9.494 21.319 20.345 22.305 8.879.739 18.25-5.546 25.772-12.447l-.493.493v16.02c2.096 17.252 9.494 21.319 20.345 22.305 10.975.985 22.69-8.996 30.704-17.499 8.015-8.503 14.797-21.442 18.496-33.025 3.7-11.707 2.467-26.741 2.467-26.741s.123-85.768.123-102.774c.123-16.882.617-13.924 6.165-30.93 5.796-17.252 20.593-29.205 20.593-29.205l35.266-10.475-47.474-27.357z" transform="translate(1) translate(0 .159)"/>
                <path fill="#173D7A" d="M193.347 303.76c-.616-.862-8.385-6.038-10.358-15.157-1.11-5.052-.986-12.816-.986-12.816s0-4.313.123-8.256l.247-.246v-1.48l-.247.247c0-.862.124-1.725.124-2.464.246-4.067-2.836-12.693-2.836-12.693s-4.193-11.584-16.894-12.076c-11.22-.37-23.058 7.64-25.648 9.488v-5.175c-.123.123-.37.246-.493.37v-2.096l.247-.246v-1.479l-.247.247c0-.863.123-1.726.123-2.465.247-4.067-2.836-12.693-2.836-12.693s-4.192-11.583-16.893-12.076c-11.221-.37-23.059 7.64-25.648 9.489v-5.176l-1.11.74v9.118c0 11.09 3.7 19.47 10.481 23.537l.247.123c.123 0 .123.124.246.124h.124l46.487 26.74v-.123l45.747 26.494z" transform="translate(1) translate(0 .159)"/>
                <g fill="#D4ECFF">
                    <path d="M125.651 28.466s-.37-.123-.986-.37c-.247-.123-.37-.246-.617-.246L79.904 2.34s-8.139-4.313-17.88-.616C52.16 5.3.864 36.106.864 36.106l45.993 26.248h.123l45.501 26.248s25.772-15.897 43.528-26.248l1.11-.616c7.275-4.19 13.07-7.27 14.92-7.764 10.975-2.957 18.62.617 20.593 1.726l-46.98-27.234zM172.632 55.576l.493.247c.123.123-.123 0-.493-.247z" transform="translate(1) translate(0 .159) translate(0 186.076)"/>
                </g>
                <path fill="#173D7A" d="M282.006 64.449c1.85-1.725 10.605-9.489 23.429-11.46 14.427-2.218 20.469 14.664 20.469 14.664s1.726 8.75 1.603 13.925c0 5.175-.493 24.03-.493 24.03l-45.748-26.372c-.123-.123-.37-.246-.37-.492v-13.31c.37-.369.74-.615 1.11-.985z" transform="translate(1) translate(0 .159)"/>
                <path fill="#396CAA" d="M202.226 305.855c5.055 0 10.604-1.725 16.4-5.052 20.099-11.584 36.376-39.926 36.376-63.094V121.134c0-22.92 16.153-51.016 36.129-62.477 9.495-5.545 18.496-6.408 25.155-2.588 6.658 3.82 10.358 12.077 10.358 23.044v26.125c0 .37.246.616.616.616s.617-.246.617-.616V79.113c0-11.46-3.946-19.963-10.975-24.03-7.028-4.066-16.4-3.203-26.264 2.588-20.223 11.707-36.746 40.173-36.746 63.463V237.71c0 22.798-16.03 50.648-35.883 62.108-9.495 5.422-18.373 6.408-25.032 2.588-6.658-3.82-10.357-11.953-10.357-22.92v-13.68c0-11.83-4.07-20.702-11.345-24.892-7.275-4.19-17.016-3.327-27.25 2.588l-51.79 30.068c-.247.123-.37.493-.247.74.123.246.493.37.74.246l51.79-30.068c9.864-5.668 19.112-6.654 26.14-2.588 6.906 3.944 10.728 12.446 10.728 23.907v13.678c0 11.337 3.823 19.84 10.852 23.907 3.206 1.602 6.412 2.464 9.988 2.464z" transform="translate(1) translate(0 .159)"/>
            </g>
            <path fill="#5793CE" d="M205.802 149.883l-7.646-4.437c-.74-.37-1.356-1.478-1.356-2.464s.493-1.356 1.233-.986l7.645 4.436c.74.37 1.357 1.479 1.357 2.465 0 .986-.494 1.355-1.233.986zM222.078 159.248l-11.344-6.531c-.74-.37-1.357-1.479-1.357-2.465 0-.986.494-1.355 1.234-.986l11.344 6.532c.74.37 1.356 1.478 1.356 2.464s-.493 1.356-1.233.986zM204.938 120.677l-14.55-8.38c-.74-.37-1.356-1.478-1.356-2.464s.493-1.356 1.233-.986l14.55 8.38c.74.37 1.356 1.479 1.356 2.464 0 .986-.493 1.48-1.233.986zM195.32 129.55l-4.809-2.711c-.74-.37-1.356-1.48-1.356-2.465 0-.986.493-1.355 1.233-.986l4.809 2.711c.74.37 1.356 1.479 1.356 2.465.124.986-.493 1.355-1.233.986zM193.84 142.982l-3.082-1.726c-.74-.37-1.356-1.478-1.356-2.464s.493-1.356 1.233-.986l3.082 1.725c.74.37 1.357 1.479 1.357 2.465.123.986-.494 1.355-1.233.986zM213.2 139.778l-12.824-7.394c-.74-.37-1.356-1.479-1.356-2.465 0-.985.493-1.355 1.233-.985l12.824 7.393c.74.37 1.356 1.48 1.356 2.465 0 .986-.616 1.355-1.233.986zM212.707 132.384l-22.319-12.816c-.74-.37-1.356-1.479-1.356-2.464 0-.986.493-1.356 1.233-.986l22.318 12.816c.74.37 1.357 1.478 1.357 2.464s-.493 1.356-1.233.986zM203.459 141.38l-12.824-7.394c-.74-.37-1.357-1.479-1.357-2.465 0-.985.493-1.355 1.233-.985l12.824 7.393c.74.37 1.357 1.48 1.357 2.465 0 .986-.494 1.355-1.233.986zM222.818 145.323l-4.686-2.711c-.74-.37-1.356-1.479-1.356-2.465 0-.985.493-1.355 1.233-.985l4.686 2.71c.74.37 1.356 1.48 1.356 2.465 0 .986-.493 1.479-1.233.986z" transform="translate(1)"/>
            <g fill="#5793CE">
                <path d="M28.36 18.977l-7.644-4.436c-.74-.37-1.357-1.479-1.357-2.465 0-.985.494-1.355 1.233-.985l7.646 4.436c.74.37 1.356 1.479 1.356 2.464 0 .986-.493 1.356-1.233.986zM46.61 29.452L35.267 22.92c-.74-.37-1.356-1.48-1.356-2.465 0-.986.493-1.355 1.233-.986l11.344 6.531c.74.37 1.357 1.48 1.357 2.465 0 .986-.494 1.479-1.233.986zM24.538 59.766l-7.645-4.436c-.74-.37-1.356-1.479-1.356-2.465 0-.985.493-1.355 1.233-.985l7.645 4.436c.74.37 1.356 1.479 1.356 2.464 0 .986-.493 1.356-1.233.986zM40.815 69.132L29.471 62.6c-.74-.37-1.357-1.48-1.357-2.465 0-.986.494-1.356 1.233-.986l11.345 6.531c.74.37 1.356 1.479 1.356 2.465 0 .986-.493 1.355-1.233.986zM7.398 14.048l-4.809-2.71c-.74-.37-1.356-1.48-1.356-2.465 0-.986.493-1.356 1.233-.986l4.81 2.71c.739.37 1.356 1.48 1.356 2.465 0 .986-.617 1.356-1.234.986zM23.675 30.56l-14.55-8.379c-.74-.37-1.357-1.478-1.357-2.464s.494-1.356 1.234-.986l14.55 8.38c.74.37 1.356 1.478 1.356 2.464s-.493 1.479-1.233.986zM14.057 39.433l-4.809-2.71c-.74-.37-1.356-1.48-1.356-2.465 0-.986.493-1.356 1.233-.986l4.809 2.711c.74.37 1.356 1.479 1.356 2.465.124.985-.493 1.355-1.233.985zM46.487 86.753L33.663 79.36c-.74-.37-1.356-1.479-1.356-2.465 0-.986.493-1.355 1.233-.986l12.824 7.394c.74.37 1.356 1.479 1.356 2.465 0 .985-.616 1.355-1.233.985zM12.577 52.865L9.495 51.14c-.74-.37-1.357-1.479-1.357-2.464 0-.986.494-1.356 1.233-.986l3.083 1.725c.74.37 1.357 1.479 1.357 2.465.123.985-.494 1.355-1.234.985zM13.564 67.776L9.74 65.558c-.74-.37-1.356-1.479-1.356-2.465 0-.985.493-1.355 1.233-.985l3.823 2.218c.74.37 1.356 1.478 1.356 2.464.123.986-.493 1.356-1.233.986zM28.484 76.279l-9.988-5.792c-.74-.37-1.356-1.479-1.356-2.464 0-.986.493-1.356 1.233-.986l9.988 5.792c.74.37 1.356 1.478 1.356 2.464s-.616 1.479-1.233.986zM17.14 77.018l-7.275-4.19c-.74-.37-1.357-1.478-1.357-2.464s.494-1.356 1.233-.986l7.276 4.19c.74.37 1.356 1.479 1.356 2.465 0 .862-.493 1.355-1.233.985zM31.937 49.661l-12.824-7.393c-.74-.37-1.357-1.48-1.357-2.465 0-.986.494-1.355 1.233-.986l12.825 7.394c.74.37 1.356 1.479 1.356 2.465 0 .985-.617 1.355-1.233.985zM31.444 42.268L9.124 29.452c-.739-.37-1.356-1.479-1.356-2.465 0-.986.494-1.355 1.234-.986L31.32 38.817c.74.37 1.357 1.479 1.357 2.465 0 .986-.494 1.355-1.233.986zM22.195 51.263L9.371 43.87c-.74-.37-1.356-1.48-1.356-2.465 0-.986.493-1.355 1.233-.986l12.824 7.394c.74.37 1.357 1.479 1.357 2.465 0 .985-.494 1.355-1.234.985zM41.555 55.207l-4.686-2.711c-.74-.37-1.356-1.479-1.356-2.465 0-.986.493-1.355 1.233-.986l4.686 2.711c.74.37 1.356 1.48 1.356 2.465 0 .986-.493 1.479-1.233.986zM25.032 67.16l-15.29-8.873c-.74-.37-1.357-1.478-1.357-2.464s.493-1.356 1.233-.986l15.29 8.873c.74.37 1.357 1.478 1.357 2.464s-.494 1.479-1.233.986zM13.687 10.598L2.343 4.067c-.74-.37-1.357-1.48-1.357-2.465C.986.616 1.48.246 2.22.616l11.344 6.531c.74.37 1.356 1.48 1.356 2.465.124.862-.493 1.355-1.233.986zM16.647 83.92L3.576 76.401c-.74-.37-1.356-1.479-1.356-2.464 0-.986.493-1.356 1.233-.986l13.07 7.517c.74.37 1.357 1.479 1.357 2.464.123.986-.494 1.356-1.233.986z" transform="translate(1) translate(181.263 90.116)"/>
            </g>
            <path fill="#5793CE" d="M204.075 218.521l-7.645-4.436c-.74-.37-1.356-1.479-1.356-2.465 0-.985.493-1.355 1.233-.985l7.645 4.436c.74.37 1.356 1.479 1.356 2.464 0 .986-.616 1.356-1.233.986zM220.229 227.887l-11.345-6.531c-.74-.37-1.356-1.48-1.356-2.465 0-.986.493-1.356 1.233-.986l11.344 6.531c.74.37 1.357 1.48 1.357 2.465.123.986-.494 1.355-1.233.986zM203.212 189.316l-14.55-8.38c-.74-.37-1.357-1.478-1.357-2.464s.493-1.356 1.233-.986l14.55 8.38c.74.37 1.357 1.478 1.357 2.464s-.616 1.479-1.233.986zM193.594 198.188l-4.809-2.71c-.74-.37-1.356-1.48-1.356-2.465 0-.986.493-1.356 1.233-.986l4.809 2.711c.74.37 1.356 1.479 1.356 2.465 0 .862-.616 1.355-1.233.985zM192.114 211.62l-3.082-1.725c-.74-.37-1.357-1.478-1.357-2.464s.493-1.356 1.233-.986l3.083 1.725c.74.37 1.356 1.479 1.356 2.465 0 .985-.616 1.355-1.233.985zM211.35 208.417l-12.824-7.394c-.74-.37-1.356-1.479-1.356-2.465 0-.986.493-1.355 1.233-.986l12.824 7.394c.74.37 1.356 1.479 1.356 2.465 0 .986-.493 1.355-1.233.986zM210.98 201.023l-22.318-12.816c-.74-.37-1.357-1.479-1.357-2.465 0-.986.493-1.355 1.233-.986l22.32 12.816c.739.37 1.356 1.48 1.356 2.465 0 .986-.617 1.355-1.234.986zM201.609 210.018l-12.824-7.393c-.74-.37-1.356-1.479-1.356-2.465 0-.986.493-1.355 1.233-.986l12.824 7.394c.74.37 1.356 1.479 1.356 2.465.123.862-.493 1.355-1.233.985zM221.092 213.962l-4.686-2.711c-.74-.37-1.356-1.479-1.356-2.465 0-.986.493-1.355 1.233-.986l4.685 2.711c.74.37 1.357 1.48 1.357 2.465 0 .986-.617 1.479-1.233.986z" transform="translate(1)"/>
        </g>
        <g>
            <path fill="#D4ECFF" d="M.986 112.11L15.152 103.961 29.319 112.11 15.152 120.259zM31.044 94.454L45.211 86.305 59.378 94.454 45.211 102.727zM61.103 77.292L75.27 69.019 89.437 77.292 75.27 85.441z" transform="translate(260 267)"/>
            <g>
                <path fill="#C13D1A" d="M14.413 52.474L14.413 8.766 0.246 0.617 0.246 44.326z" transform="translate(260 267) translate(30.798 41.98)"/>
                <path fill="#D3008D" d="M14.413 8.766L28.58.617 28.58 44.326 14.413 52.474zM14.413 52.474L14.413 8.766.246.617.246 44.326z" transform="translate(260 267) translate(30.798 41.98)"/>
            </g>
            <g>
                <path fill="#D3008D" d="M15.152 41.733L15.152 17.162.986 8.89.986 33.584zM15.152 17.162L29.319 8.89 29.319 33.584 15.152 41.733z" transform="translate(260 267) translate(0 70.378)"/>
                <path fill="#FF2C9C" d="M0.986 8.89L15.152 0.741 29.319 8.89 15.152 17.162z" transform="translate(260 267) translate(0 70.378)"/>
            </g>
            <g>
                <path fill="#D3008D" d="M14.906 77.292L14.906 17.162.739 9.013.739 69.019zM14.906 17.162L29.073 9.013 29.073 69.019 14.906 77.292z" transform="translate(260 267) translate(60.364)"/>
                <path fill="#FF2C9C" d="M0.739 9.013L14.906 0.741 29.073 9.013 14.906 17.162z" transform="translate(260 267) translate(60.364)"/>
            </g>
            <path fill="#FF2C9C" d="M31.044 42.597L45.211 34.324 59.378 42.597 45.211 50.746z" transform="translate(260 267)"/>
        </g>
        <g>
            <g transform="translate(26 114) translate(2.468)">
                <path fill="#5793CE" d="M31.225 183.056s-4.32-2.22-7.035 1.11c-2.715 3.331-6.541 11.102-6.665 16.283-.123 5.304 4.197 4.934 6.665 3.7 2.592-1.233 9.997-11.965 10.367-14.062.494-2.097-.494-4.934-1.234-5.55-.74-.617-2.098-1.48-2.098-1.48z"/>
                <path fill="#D4ECFF" d="M32.089 181.946l.246 4.564c0 .987-.493 1.85-1.234 2.344-.74.493-1.851.74-3.332.493-3.332-.493-3.58-1.48-3.826-6.044-.37-4.44 8.146-1.357 8.146-1.357z"/>
                <g>
                    <path fill="#5793CE" d="M15.18 92.885s-4.32-2.22-7.034 1.11c-2.716 3.33-6.542 11.102-6.665 16.283-.123 5.304 4.196 4.934 6.665 3.7 2.591-1.233 9.996-11.965 10.367-14.062.493-2.097-.494-4.934-1.235-5.55-.74-.617-2.098-1.481-2.098-1.481z" transform="translate(0 81.413)"/>
                    <path fill="#D4ECFF" d="M16.168 91.898l.247 4.564c0 .987-.494 1.85-1.235 2.344-.74.493-1.85.74-3.332.493-3.332-.493-3.579-1.48-3.826-6.044-.37-4.564 8.146-1.357 8.146-1.357z" transform="translate(0 81.413)"/>
                    <path fill="#173D7A" d="M55.168 8.635c-1.358-21.094-22.833 3.084-22.833 3.084L17.65 26.15 4.319 40.707C1.729 43.544.495 47.367.988 51.192l5.43 40.83c.248 1.973 1.975 3.453 4.074 3.453.617 0 1.234 0 1.974-.123 4.813-.74 4.443-5.304 4.443-5.304l-.987-38.24 27.892-16.776s12.712-5.427 11.355-26.397z" transform="translate(0 81.413)"/>
                </g>
                <path fill="#173D7A" d="M71.212 98.066c-1.358-21.094-22.832 3.084-22.832 3.084l-14.687 14.432-13.33 14.556c-2.59 2.837-3.825 6.66-3.331 10.485l5.43 40.83c.247 1.973 1.975 3.454 4.073 3.454.617 0 1.234 0 1.974-.124 4.814-.74 4.444-5.304 4.444-5.304l-.988-38.24 27.893-16.652s12.712-5.428 11.354-26.521z"/>
                <path fill="#5793CE" d="M58.5 30.345C74.791 37.129 74.545 46.75 74.545 46.75s-3.21 35.402-2.099 58.963c.494 9.868-52.452 10.608-44.554-15.666 9.257-31.085 5.801-56.25 10.244-60.073 4.196-3.7 16.168-1.357 20.364.37z"/>
                <path fill="#FFC2B0" d="M63.684 38.856c-.864 3.33-5.184 5.058-9.75 3.948-4.567-1.11-7.406-4.811-6.665-8.142.864-3.33 5.184-5.057 9.75-3.947 4.566 1.234 7.528 4.934 6.665 8.141z"/>
                <path fill="#FFF" d="M56.772 43.914c-.987 0-1.975-.124-2.962-.37-2.345-.617-4.32-1.85-5.677-3.454-1.358-1.727-1.975-3.7-1.481-5.551.987-3.7 5.8-5.674 10.614-4.44 2.345.616 4.32 1.85 5.677 3.453 1.358 1.727 1.975 3.7 1.481 5.551-.74 2.96-3.826 4.81-7.652 4.81zm-2.468-12.706c-3.086 0-5.554 1.357-6.171 3.701-.37 1.357 0 2.837 1.11 4.194 1.111 1.357 2.84 2.467 4.937 2.96 4.073 1.11 8.023-.493 8.763-3.33.37-1.357 0-2.837-1.11-4.194-1.111-1.357-2.84-2.467-4.937-2.96-.864-.247-1.728-.37-2.592-.37z"/>
                <path fill="#FFC2B0" d="M51.959 29.605s.123.617-.124 5.797c-.123 1.604 5.554 3.208 7.035 1.727 1.481-1.48.864-2.96 1.234-8.511.37-5.55-8.145.987-8.145.987z"/>
                <path fill="#EA9C92" d="M60.104 28.618s-1.357 5.18-8.269 7.154l.124-4.687 8.145-2.467z"/>
                <ellipse cx="52.377" cy="18.699" fill="#FFC2B0" rx="12.584" ry="12.587" transform="rotate(-59.848 52.377 18.7)"/>
                <path fill="#EA9C92" d="M55.168 19.12s-6.912 2.96-11.725 2.96-3.702-3.947-3.702-3.947l14.193-2.097 1.234 3.084z"/>
                <path fill="#FF2C9C" d="M42.085 19.983s6.048-2.59 11.355-1.48c1.234.247 2.345.863 3.209 1.85.247.37.617.617.987.74.987.247 2.468-3.7 4.32-3.824 1.851-.123 3.085 1.234 1.604 3.578-1.48 2.343-.987 5.057-.247 5.427.74.37 8.022-5.18 1.605-17.886-6.418-12.705-22.833-5.92-25.3-3.33 0 0-2.716 2.343-4.814.246-.37 0-2.839 18.256 7.281 14.68z"/>
                <path fill="#FFC2B0" d="M65.288 72.655v9.622c0 1.11-.494 2.097-1.234 2.837L44.43 103l2.222 3.454 25.918-18.75c1.234-.863 1.974-2.22 2.098-3.7l1.728-16.653-11.108 5.304z"/>
                <path fill="#5793CE" d="M73.063 41.94s5.924 9.005 8.146 32.565c0 0-10.244 3.33-15.921 1.48-5.8-1.85 7.775-34.045 7.775-34.045z"/>
                <path fill="#396CAA" d="M64.177 53.289s-2.345 12.458-2.468 18.38c0 1.603.987 3.083 2.468 3.577V53.289z"/>
            </g>
            <g>
                <path fill="#5793CE" d="M59.117 20.477l-4.32-.617L26.782 3.7c-.864-.493-2.469-.493-3.456.124L3.456 15.296l-2.592-.37v2.59c0 .37.123.617.617.864l31.718 18.38c.864.493 2.469.493 3.456-.124l21.598-12.459c.617-.37.864-.74.864-1.233v-2.467z" transform="translate(26 114) translate(2.468 94.982)"/>
                <path fill="#396CAA" d="M38.013 10.238l-1.975-1.11H14.193L3.456 15.296l-2.592-.37v2.59c0 .37.123.617.617.864l31.718 18.38c.494.246 1.111.37 1.852.37l2.962-26.892z" transform="translate(26 114) translate(2.468 94.982)"/>
                <path fill="#5793CE" d="M1.975 15.05l-1.111-.124v2.59c0 .37.123.617.617.864l.617.37v-3.7h-.123z" transform="translate(26 114) translate(2.468 94.982)"/>
                <path fill="#FFF" d="M33.446 36.883c.864.37 2.098.246 2.962-.124v-4.44h-2.962v4.564z" transform="translate(26 114) translate(2.468 94.982)"/>
                <path fill="#FFF" d="M33.2 34.169L1.48 15.789c-.864-.493-.74-1.48.247-1.973l21.598-12.46c.987-.616 2.592-.616 3.456-.122L58.5 19.614c.864.493.74 1.48-.247 1.973L36.655 34.046c-.987.616-2.592.616-3.456.123z" transform="translate(26 114) translate(2.468 94.982)"/>
                <path fill="#D4ECFF" d="M32.582 31.455L6.171 16.16c-.74-.37-.617-1.233.247-1.727l11.601-6.537c.864-.494 2.222-.494 2.962-.124l26.411 15.296c.74.37.617 1.234-.246 1.727l-11.602 6.538c-.864.493-2.221.493-2.962.123z" transform="translate(26 114) translate(2.468 94.982)"/>
            </g>
            <path fill="#FFC2B0" d="M26.905 95.722l-.37 2.22c-.247 1.85-.247 3.824.123 5.675l.37 1.973c.247 1.11 1.111 1.974 2.222 2.097.864.124 1.604-.493 1.728-1.356l.494-4.688s1.234 1.604 1.727 1.604c.617 0-.617-4.688-1.974-7.401-1.111-2.714-4.32-.124-4.32-.124z" transform="translate(26 114)"/>
            <path fill="#FFC2B0" d="M37.766 60.937L34.31 67.72c-.864 1.604-1.234 3.33-1.357 5.057l-1.481 23.068-4.444-.124-1.974-25.904c-.124-.74 0-1.604.123-2.344L27.522 54.4l10.244 6.538z" transform="translate(26 114)"/>
            <g>
                <path fill="#173D7A" d="M34.557 49.465l-2.715-3.454L3.826 29.85c-.864-.493-1.604-1.973-1.604-3.083V3.824L.617 1.727 2.098.863c.247-.246.617-.123 1.11.124l31.72 18.38c.863.493 1.604 1.85 1.604 3.083v24.918c0 .616-.247 1.11-.617 1.357l-1.358.74z" transform="translate(26 114) translate(0 81.413)"/>
                <path fill="#396CAA" d="M15.18 36.39l-1.974-1.111L2.222 16.283V3.824L.617 1.727 2.098.863c.247-.246.617-.123 1.11.124l31.72 18.38c.493.246.863.74 1.233 1.356L15.181 36.39z" transform="translate(26 114) translate(0 81.413)"/>
                <path fill="#5793CE" d="M1.358 2.59l-.74-.986L2.097.74c.247-.247.617-.123 1.11.123l.618.37L1.358 2.59z" transform="translate(26 114) translate(0 81.413)"/>
                <path fill="#274F89" d="M35.297 19.49c.741.617 1.235 1.727 1.358 2.714l-3.085 1.85-1.481-2.59 3.208-1.974z" transform="translate(26 114) translate(0 81.413)"/>
                <path fill="#5793CE" d="M33.446 20.107L1.728 1.727C.864 1.234.123 1.727.123 2.96v24.918c0 1.233.74 2.59 1.605 3.084l31.718 18.38c.864.493 1.605 0 1.605-1.234V23.19c.123-1.11-.617-2.59-1.605-3.083z" transform="translate(26 114) translate(0 81.413)"/>
            </g>
            <path fill="#FFC2B0" d="M49.12 106.33l-.493 1.11c-.618 1.234-1.481 2.221-2.716 2.961l-3.208 1.974c-.988.617-2.222.617-3.21.123 0 0-.123 0-.123-.123-.987-.617-1.11-2.097-.247-2.96l3.333-3.331s-1.852 1.357-2.345.863c-.37-.37 1.851-2.467 3.455-2.467 1.728-.123 3.333-1.357 3.333-1.357l2.221 3.208z" transform="translate(26 114)"/>
            <path fill="#5793CE" d="M40.728 29.975S28.633 43.174 23.82 55.139c0 0 4.072 7.401 14.193 10.362 10.12 2.96 2.715-35.526 2.715-35.526z" transform="translate(26 114)"/>
            <path fill="#396CAA" d="M35.791 64.76l1.975-18.873-4.567 17.763c.74.37 1.605.74 2.592 1.11z" transform="translate(26 114)"/>
        </g>
        <path fill="#FF2C9C" d="M363.254 143L358 132.254 368.746 127 374 137.746 363.254 143zm-2.03-9.672l3.104 6.448 6.448-3.104-3.104-6.448-6.448 3.104z"/>
        <g>
            <path fill="#D4ECFF" d="M57.938 37.58c-12.098-7.023-31.728-7.023-43.826 0-12.1 7.024-12.1 18.236 0 25.26 12.098 7.022 31.728 7.022 43.826 0 12.1-6.9 12.1-18.236 0-25.26zM46.087 56.063c-5.556 3.203-14.568 3.203-20.124 0-5.555-3.204-5.555-8.38 0-11.583 5.556-3.203 14.568-3.203 20.124 0 5.555 3.204 5.555 8.379 0 11.583z" transform="translate(71 317)"/>
            <g>
                <path fill="#B70083" d="M5.679 33.514l11.111.123c.864-1.108 1.975-2.094 3.457-2.957 6.05-3.45 15.679-3.82 22.222-.862l6.543-6.16 10.123.122c-.493-.37-.987-.616-1.605-.985-14.074-8.133-36.79-8.133-50.863 0-2.593 1.478-4.692 3.203-6.297 4.928l5.309 5.791z" transform="translate(71 317) translate(3.865)"/>
                <path fill="#D3008D" d="M59.135 7.886L59.135 23.904 49.012 23.78 49.012 7.763z" transform="translate(71 317) translate(3.865)"/>
                <path fill="#B70083" d="M42.469 13.923L42.469 29.941 49.012 23.78 49.012 7.763z" transform="translate(71 317) translate(3.865)"/>
                <path fill="#B70083" d="M16.79 17.62v16.018l14.568-11.83 11.234 8.133V13.923l-10.37-5.052s-14.197 4.313-14.938 4.56c-.74.246-.494 4.189-.494 4.189z" transform="translate(71 317) translate(3.865)"/>
                <path fill="#B70083" d="M5.679 17.496L5.679 33.514 16.79 33.638 16.79 17.62z" transform="translate(71 317) translate(3.865)"/>
                <path fill="#D3008D" d="M0.37 11.829L0.37 27.846 5.679 33.514 5.679 17.496z" transform="translate(71 317) translate(3.865)"/>
                <path fill="#FF2C9C" d="M5.679 17.496l11.111.124c.864-1.11 1.975-2.095 3.457-2.958 6.05-3.45 15.679-3.82 22.222-.862l6.543-6.16 10.123.123c-.493-.37-.987-.617-1.605-.986-14.074-8.132-36.79-8.132-50.863 0C4.074 8.255 1.975 9.98.37 11.705l5.309 5.791z" transform="translate(71 317) translate(3.865)"/>
            </g>
            <g>
                <path fill="#5793CE" d="M7.53 6.037V20.7l9.507-2.341s-.617-8.625-.74-8.872c-.124-.123-8.766-3.45-8.766-3.45z" transform="translate(71 317) translate(42.136 9.857)"/>
                <path fill="#173D7A" d="M.37 20.7v16.018l.988 1.109 6.79-3.82S7.16 21.81 7.037 21.563C6.79 21.316.37 20.7.37 20.7z" transform="translate(71 317) translate(42.136 9.857)"/>
                <path fill="#396CAA" d="M13.333 16.634l-5.802 5.421c4.815 3.82 4.197 9.118-1.729 12.568-1.604.986-3.456 1.602-5.555 2.095l5.926 6.407-5.309 4.929c6.667-.74 13.087-2.711 18.395-5.668 12.099-6.9 13.704-17.62 5.062-25.629l-10.988-.123z" transform="translate(71 317) translate(42.136 9.857)"/>
                <path fill="#396CAA" d="M0.988 32.036L0.988 48.054 14.074 43.002 29.876 27.97 29.876 10.966 13.086 24.15z" transform="translate(71 317) translate(42.136 9.857)"/>
                <path fill="#D4ECFF" d="M13.333.616L7.531 6.037c4.815 3.82 4.197 9.118-1.729 12.568-1.604.986-3.456 1.602-5.555 2.095l5.926 6.407-5.309 4.929c6.667-.74 13.087-2.711 18.395-5.668 12.099-6.9 13.704-17.62 5.062-25.629L13.333.616z" transform="translate(71 317) translate(42.136 9.857)"/>
            </g>
            <g>
                <path fill="#396CAA" d="M43.124 38.073l-5.309-5.544c-4.938.246-10-.617-13.704-2.834-3.827-2.218-5.432-5.299-4.814-8.133l-12.593-.246-4.815-5.175c-4.197 7.27-1.358 15.525 8.642 21.316 7.284 4.19 17.037 6.284 26.667 6.038l5.926-5.422z" transform="translate(71 317) translate(0 14.786)"/>
                <path fill="#396CAA" d="M37.321 27.477L37.321 43.495 0.038 22.918 0.038 6.9 5.47 9.118z" transform="translate(71 317) translate(0 14.786)"/>
                <path fill="#173D7A" d="M43.124 22.055L43.124 38.073 37.321 43.495 37.321 27.477z" transform="translate(71 317) translate(0 14.786)"/>
                <path fill="#5793CE" d="M43.124 22.055l-5.309-5.544c-4.938.246-10-.616-13.704-2.834-3.827-2.218-5.432-5.298-4.814-8.132L6.704 5.298 1.89.123C-2.308 7.393.531 15.648 10.531 21.44c7.284 4.19 17.037 6.284 26.667 6.038l5.926-5.422z" transform="translate(71 317) translate(0 14.786)"/>
            </g>
        </g>
        <path fill="#5793CE" d="M31 95c-4.43 0-8-3.57-8-8s3.57-8 8-8 8 3.57 8 8-3.57 8-8 8zm0-13.538c-3.077 0-5.538 2.461-5.538 5.538 0 3.077 2.461 5.538 5.538 5.538 3.077 0 5.538-2.461 5.538-5.538 0-3.077-2.461-5.538-5.538-5.538z"/>
        <path fill="#D4ECFF" d="M12 346c0 3.32-2.68 6-6 6s-6-2.68-6-6 2.68-6 6-6 6 2.68 6 6zM310 11c0 3.875-3.125 7-7 7s-7-3.125-7-7 3.125-7 7-7 7 3.125 7 7z"/>
        <g>
            <path fill="#D3008D" d="M39.56 19.575L6.757.297C6.143-.079 5.53-.079 5.037.172L1.843 2.05s1.351.5 2.211.876v24.41c0 2.003 1.229 4.256 2.703 5.133L38.21 50.996v2.879l3.194-1.878c.491-.375.86-1.127.86-2.128V24.707c-.123-2.002-1.229-4.256-2.703-5.132z" transform="translate(232 64)"/>
            <path fill="#FF2C9C" d="M36.243 53.5L3.44 34.22C1.966 33.345.737 31.091.737 29.09V4.178c0-2.003 1.229-2.88 2.703-2.003l32.803 19.278c1.474.876 2.703 3.13 2.703 5.132v24.911c0 2.003-1.229 2.88-2.703 2.003z" transform="translate(232 64)"/>
            <g fill="#FFF">
                <path d="M4.669 4.303c0 1.502-.983 2.003-2.212 1.252C1.23 4.804.246 3.05.246 1.674c0-1.377.983-2.003 2.211-1.252 1.229.751 2.212 2.504 2.212 3.88zM11.426 8.309c0 1.502-.983 2.003-2.212 1.251-1.228-.75-2.211-2.503-2.211-3.88 0-1.502.983-2.003 2.211-1.252 1.229.751 2.212 2.504 2.212 3.88zM18.06 12.314c0 1.503-.983 2.003-2.211 1.252-1.229-.75-2.212-2.503-2.212-3.88 0-1.503.983-2.003 2.212-1.252 1.228.626 2.211 2.378 2.211 3.88z" transform="translate(232 64) translate(9.829 21.28)"/>
            </g>
        </g>
        <g>
            <path fill="#5793CE" d="M38.541 20.154L6.053 1.252c-.618-.376-1.235-.376-1.73-.125L1.236 2.879s1.36.5 2.224.876v23.91c0 2.003 1.112 4.256 2.594 5.007l31.006 18.152v2.754L40.27 51.7c.494-.375.864-1.001.864-2.128V25.287c0-2.003-1.235-4.256-2.594-5.133z" transform="translate(73 26)"/>
            <path fill="#D4ECFF" d="M35.33 53.578L2.964 34.55C1.482 33.674.37 31.42.37 29.543V5.133c0-2.003 1.111-2.88 2.594-2.003l32.364 18.902c1.483.876 2.595 3.13 2.595 5.007v24.41c0 2.004-1.112 2.88-2.595 2.129z" transform="translate(73 26)"/>
            <g fill="#FFF">
                <path d="M5.188 4.882c0 1.377-.988 2.003-2.223 1.252C1.729 5.383.74 3.755.74 2.254.741.875 1.73.25 2.965 1c1.235.752 2.223 2.504 2.223 3.881zM11.735 8.763c0 1.377-.988 2.003-2.223 1.252-1.236-.752-2.224-2.379-2.224-3.881 0-1.377.988-2.003 2.224-1.252 1.235.751 2.223 2.504 2.223 3.88zM18.406 12.643c0 1.377-.988 2.003-2.224 1.252-1.235-.75-2.223-2.378-2.223-3.88 0-1.377.988-2.003 2.223-1.252 1.236.75 2.224 2.378 2.224 3.88z" transform="translate(73 26) translate(8.647 21.28)"/>
            </g>
        </g>
    </g>
</svg>
