<svg xmlns="http://www.w3.org/2000/svg" width="400" height="314" viewBox="0 0 400 314">
    <defs>
        <radialGradient id="prefix__a" cx="49.92%" cy="50.15%" r="52.663%" fx="49.92%" fy="50.15%" gradientTransform="matrix(1 0 0 .90499 0 .048)">
            <stop offset="0%" stop-color="#FFC8AF"/>
            <stop offset="100%" stop-color="#FFBB9C"/>
        </radialGradient>
        <radialGradient id="prefix__b" cx="50.338%" cy="49.093%" r="56.982%" fx="50.338%" fy="49.093%" gradientTransform="matrix(.97756 -.16683 .21065 .77418 -.092 .195)">
            <stop offset="0%" stop-color="#FFC8AF"/>
            <stop offset="100%" stop-color="#FFBB9C"/>
        </radialGradient>
        <radialGradient id="prefix__c" cx="50.007%" cy="50.065%" r="53.07%" fx="50.007%" fy="50.065%" gradientTransform="matrix(.89543 0 0 1 .052 0)">
            <stop offset="0%" stop-color="#FFC8AF"/>
            <stop offset="100%" stop-color="#FFBB9C"/>
        </radialGradient>
        <radialGradient id="prefix__d" cx="50.246%" cy="49.985%" r="51.36%" fx="50.246%" fy="49.985%" gradientTransform="matrix(.95438 0 0 1 .023 0)">
            <stop offset="0%" stop-color="#FFC8AF"/>
            <stop offset="100%" stop-color="#FFBB9C"/>
        </radialGradient>
        <radialGradient id="prefix__e" cx="147.09%" cy="-.906%" r="414.124%" fx="147.09%" fy="-.906%" gradientTransform="matrix(.3879 0 0 1 .9 0)">
            <stop offset="0%" stop-color="#FFC8AF"/>
            <stop offset="100%" stop-color="#FFBB9C"/>
        </radialGradient>
        <radialGradient id="prefix__f" cx="18.243%" cy="43.903%" r="181.641%" fx="18.243%" fy="43.903%" gradientTransform="matrix(.33981 0 0 1 .12 0)">
            <stop offset="0%" stop-color="#FFC8AF"/>
            <stop offset="100%" stop-color="#FFBB9C"/>
        </radialGradient>
        <linearGradient id="prefix__g" x1="50.007%" x2="50.008%" y1="-.182%" y2="99.971%">
            <stop offset="0%" stop-color="#606BF1"/>
            <stop offset="100%" stop-color="#58479F"/>
        </linearGradient>
        <linearGradient id="prefix__h" x1="39.481%" x2="59.354%" y1="4.833%" y2="96.534%">
            <stop offset="0%" stop-color="#606BF1"/>
            <stop offset="100%" stop-color="#58479F"/>
        </linearGradient>
        <linearGradient id="prefix__i" x1="45.588%" x2="54.514%" y1="2.683%" y2="98.282%">
            <stop offset="0%" stop-color="#606BF1"/>
            <stop offset="100%" stop-color="#58479F"/>
        </linearGradient>
    </defs>
    <g fill="none" fill-rule="evenodd">
        <g fill-rule="nonzero">
            <path fill="#EAF3F7" d="M393.175 121.587L378.698 223.63H11.362L.55 145.738c-1.191-8.757 3.573-17.145 11.637-20.556l32.619-13.643V78.907c0-9.587 6.964-17.791 16.401-19.174l7.697-1.106 12.92-44.062C84.206 6.36 91.72.737 100.24.737h132.494c5.04 0 9.62 1.936 13.103 5.163 3.482 3.226 5.68 7.743 6.047 12.813l63.04 6.729c9.346 1.014 16.585 8.665 17.226 18.067l2.566 44.063 44.53 12.629c9.347 2.673 15.211 11.799 13.928 21.386z" transform="translate(6 85)"/>
            <path fill="#CCD9E2" d="M33.353 142.604l11.453 81.027h291.56l8.613-61.761c.916-6.914-2.84-13.643-9.254-16.316l-25.84-10.785v-25.903c0-7.651-5.589-14.104-13.01-15.21l-6.14-.922-10.262-34.936c-1.924-6.545-7.88-10.97-14.66-10.97h-105.19c-4.03 0-7.696 1.567-10.353 4.148-2.75 2.581-4.49 6.084-4.857 10.14l-50.028 5.347c-7.422.83-13.195 6.913-13.653 14.38l-2.016 34.752-35.368 10.048c-7.33 2.12-12.003 9.402-10.995 16.961z" transform="translate(6 85)"/>
            <path fill="#BCCED8" d="M273.967 193.488c0-8.757-6.322-16.132-14.935-17.422l-6.964-1.014-11.728-40.007c-2.2-7.466-8.98-12.629-16.768-12.629H103.173c-4.581 0-8.796 1.752-11.912 4.702-3.115 2.95-5.222 7.005-5.497 11.615l-52.137 5.53 11.27 79.368H275.25l-1.283-.553v-29.59z" transform="translate(6 85)"/>
        </g>
        <g>
            <g fill-rule="nonzero">
                <path fill="#112B46" d="M0.55 0.367H90.035V83.95700000000001H0.55z" transform="translate(54.095) translate(28.423 17.434)"/>
                <path fill="#1D262D" d="M0.55 0.367H90.035V9.175999999999998H0.55z" transform="translate(54.095) translate(28.423 17.434)"/>
                <g>
                    <path fill="#606BF1" d="M3.76 2.202c0 .918-.734 1.652-1.651 1.652S.459 3.12.459 2.202c0-.917.733-1.651 1.65-1.651.917 0 1.65.734 1.65 1.651z" transform="translate(54.095) translate(28.423 17.434) translate(66.93 2.753)"/>
                    <path fill="#FBD15B" d="M10.544 2.202c0 .918-.734 1.652-1.65 1.652-.917 0-1.65-.734-1.65-1.652 0-.917.733-1.651 1.65-1.651.916 0 1.65.734 1.65 1.651z" transform="translate(54.095) translate(28.423 17.434) translate(66.93 2.753)"/>
                    <path fill="#FF8578" d="M16.779 2.294c0 .917-.734 1.652-1.65 1.652-.918 0-1.651-.735-1.651-1.652 0-.918.733-1.652 1.65-1.652.917.092 1.65.826 1.65 1.652z" transform="translate(54.095) translate(28.423 17.434) translate(66.93 2.753)"/>
                </g>
                <g>
                    <path fill="#FF8578" d="M0 0H12.653V1.101H0z" transform="translate(54.095) translate(28.423 17.434) translate(16.503 17.434)"/>
                    <path fill="#FBD15B" d="M14.853 0H27.506V1.101H14.853z" transform="translate(54.095) translate(28.423 17.434) translate(16.503 17.434)"/>
                    <path fill="#606BF1" d="M3.851 5.781H23.471999999999998V6.882H3.851z" transform="translate(54.095) translate(28.423 17.434) translate(16.503 17.434)"/>
                    <path fill="#FF8578" d="M26.772 5.781H36.766V6.882H26.772z" transform="translate(54.095) translate(28.423 17.434) translate(16.503 17.434)"/>
                    <path fill="#FBD15B" d="M10.727 11.47H19.345V12.571000000000002H10.727zM24.297 11.47H52.903000000000006V12.571000000000002H24.297z" transform="translate(54.095) translate(28.423 17.434) translate(16.503 17.434)"/>
                    <path fill="#606BF1" d="M17.42 17.25H50.152V18.351H17.42z" transform="translate(54.095) translate(28.423 17.434) translate(16.503 17.434)"/>
                    <path fill="#FF8578" d="M9.26 22.939H19.345V24.04H9.26z" transform="translate(54.095) translate(28.423 17.434) translate(16.503 17.434)"/>
                    <path fill="#606BF1" d="M23.563 22.939H33.647999999999996V24.04H23.563z" transform="translate(54.095) translate(28.423 17.434) translate(16.503 17.434)"/>
                    <g>
                        <path fill="#FF8578" d="M0 23.398H14.67V24.499H0z" transform="translate(54.095) translate(28.423 17.434) translate(16.503 17.434) translate(0 29.362)"/>
                        <path fill="#FBD15B" d="M19.712 23.398H34.382V24.499H19.712z" transform="translate(54.095) translate(28.423 17.434) translate(16.503 17.434) translate(0 29.362)"/>
                        <path fill="#FF8578" d="M38.967 23.398H53.637V24.499H38.967z" transform="translate(54.095) translate(28.423 17.434) translate(16.503 17.434) translate(0 29.362)"/>
                        <path fill="#606BF1" d="M3.851 17.617H32.457V18.718H3.851z" transform="translate(54.095) translate(28.423 17.434) translate(16.503 17.434) translate(0 29.362)"/>
                        <path fill="#FF8578" d="M36.949 17.617H65.555V18.718H36.949zM10.727 11.928H39.15V13.029H10.727z" transform="translate(54.095) translate(28.423 17.434) translate(16.503 17.434) translate(0 29.362)"/>
                        <path fill="#FBD15B" d="M41.625 11.928H49.51V13.029H41.625zM8.802 6.148H19.529V7.249H8.802z" transform="translate(54.095) translate(28.423 17.434) translate(16.503 17.434) translate(0 29.362)"/>
                        <path fill="#606BF1" d="M25.214 6.148H35.941V7.249H25.214z" transform="translate(54.095) translate(28.423 17.434) translate(16.503 17.434) translate(0 29.362)"/>
                        <path fill="#FF8578" d="M42.817 6.148H53.544V7.249H42.817z" transform="translate(54.095) translate(28.423 17.434) translate(16.503 17.434) translate(0 29.362)"/>
                        <path fill="#FBD15B" d="M21.271 0.459H36.307V1.56H21.271z" transform="translate(54.095) translate(28.423 17.434) translate(16.503 17.434) translate(0 29.362)"/>
                        <path fill="#606BF1" d="M0.55 0.459H15.586V1.56H0.55z" transform="translate(54.095) translate(28.423 17.434) translate(16.503 17.434) translate(0 29.362)"/>
                    </g>
                </g>
                <g fill="#F9FBFC">
                    <path d="M.825.826H2.2V2.202H.825zM2.2 50.833H.825V48.08H2.2v2.753zm0-6.882H.825V41.2H2.2v2.752zm0-6.973H.825v-2.753H2.2v2.753zm0-6.974H.825v-2.752H2.2v2.752zm0-6.973H.825v-2.753H2.2v2.753zm0-6.974H.825v-2.752H2.2v2.752zm0-6.881H.825V6.423H2.2v2.753zM.825 55.054H2.2V56.43H.825z" transform="translate(54.095) translate(28.423 17.434) translate(7.335 15.599)"/>
                </g>
            </g>
            <g fill-rule="nonzero">
                <path fill="#FF8578" d="M0.183 0.092H73.807V45.510999999999996H0.183z" transform="translate(54.095) translate(137.529)"/>
                <g fill="#F9FBFC">
                    <path d="M12.286 10.093L3.484 13.855 12.286 17.525 11.094 20.186.55 15.507.55 12.295 11.094 7.524zM25.122 1.468L18.796 25.875 15.77 25.141 22.188.734zM40.342 12.204L40.342 15.415 29.89 20.186 28.789 17.525 37.5 13.855 28.789 10.093 29.89 7.524z" transform="translate(54.095) translate(137.529) translate(16.503 8.258)"/>
                </g>
            </g>
            <g fill-rule="nonzero">
                <path fill="#606BF1" d="M0.642 0H42.634V29.913H0.642z" transform="translate(54.095) translate(208.127 88.086)"/>
                <g fill="#F1F2F2">
                    <path d="M6.326 2.753c-1.375 0-1.833.367-1.833 1.376v4.496c0 1.743-.734 2.294-1.926 2.661 1.192.367 1.926.826 1.926 2.57v4.495c0 1.01.458 1.377 1.833 1.377v1.927c-3.392 0-4.4-1.102-4.4-3.395v-4.221c0-1.193-.367-1.652-1.468-1.652v-2.294c1.1 0 1.467-.459 1.467-1.743V4.129c0-2.294 1.009-3.395 4.401-3.395v2.019zM17.512 4.22v4.222c0 1.192.367 1.743 1.467 1.743v2.294c-1.1 0-1.467.459-1.467 1.651v4.221c0 2.294-1.009 3.395-4.4 3.395V19.82c1.283 0 1.833-.367 1.833-1.376v-4.496c0-1.743.733-2.294 1.925-2.57-1.192-.366-1.925-.917-1.925-2.66V4.22c0-1.01-.459-1.377-1.834-1.377V.918c3.484-.092 4.401 1.009 4.401 3.303z" transform="translate(54.095) translate(208.127 88.086) translate(11.92 3.67)"/>
                </g>
            </g>
            <g fill-rule="nonzero">
                <path fill="#FBD15B" d="M0.55 0.184H47.584999999999994V31.656000000000002H0.55z" transform="translate(54.095) translate(0 6.423)"/>
                <path fill="#F9FBFC" d="M16.137 9.176c-2.292 2.844-2.2 6.881.091 9.726 2.568 3.12 7.06 3.67 10.27 1.56l4.95 4.955c.184.183.55.183.734 0l1.375-1.377c.183-.183.183-.55 0-.734l-4.951-4.955c2.017-3.028 1.65-7.065-1.009-9.726-3.209-3.303-8.618-3.028-11.46.55zm9.902 8.717c-2.109 2.11-5.593 2.11-7.702 0s-2.109-5.598 0-7.708c2.109-2.11 5.593-2.11 7.702 0s2.109 5.597 0 7.708z" transform="translate(54.095) translate(0 6.423)"/>
            </g>
            <g>
                <g fill-rule="nonzero">
                    <path fill="url(#prefix__a)" d="M43.276 48.814c-.092 1.01-1.559 11.929-12.653 11.929-11.736 0-9.719-11.653-9.719-11.653v-.092c1.1-.275 2.384-.367 3.668-.184V43.31l13.294-7.432h.459v12.846c0 .091 2.108-.184 4.95.091z" transform="translate(54.095) translate(0 55.054) translate(141.196)"/>
                    <path fill="url(#prefix__b)" d="M28.606 4.955c1.925 1.927 3.3 4.404 4.034 7.432 1.284 5.597.092 11.561-1.558 17.067-.276.917-.642 1.835-1.192 2.66-.367.551-.917 1.01-1.467 1.469-2.384 2.018-4.768 4.129-7.06 6.148-1.559 1.376-11.46 2.569-13.295 1.192C.825 35.785-.55 20.737.917 13.03 3.209.367 19.529-4.22 28.606 4.955z" transform="translate(54.095) translate(0 55.054) translate(141.196) translate(8.252 6.423)"/>
                    <path fill="#F7B094" d="M32.732 27.71c.092-1.192 1.375-2.569 2.659-1.743 1.283.826 1.008 3.028.458 4.22-.458.918-1.834 1.928-2.842 1.102-.825-.734.458-1.56.458-2.294 0-.642-1.192-1.01-.641-1.652" transform="translate(54.095) translate(0 55.054) translate(141.196)"/>
                    <path fill="#F7B094" d="M33.007 33.4c1.284.366 3.576-.643 4.126-2.478.55-1.835.55-3.946.55-3.946s.642 1.652.367 4.313c-.275 2.66-1.284 5.23-3.393 5.23-2.2.092-1.65-3.12-1.65-3.12z" transform="translate(54.095) translate(0 55.054) translate(141.196)"/>
                    <path fill="#3D3D7A" d="M31.357 31.472h-.184c-.825.092-1.1-.917-1.283-1.468-.275-1.468-.275-2.936-.275-4.404 0-.367 0-.826-.092-1.193-.459-1.01-1.65-1.743-2.017-2.844-.459-1.285.825-2.57.275-3.946-.734-2.11-3.484-2.569-5.41-2.569-2.934 0-5.868.55-8.71 1.01-3.117.458-6.968.917-9.719-1.01-3.3-2.386-4.675-8.442-2.2-11.837C3.026 1.376 5.592.46 7.793.367c2.384-.092 4.31 1.376 6.51 2.019 1.742.55 3.392-1.101 4.951-1.377 2.017-.367 2.842 1.835 4.676 1.835 1.742.092 3.392-1.284 5.134-1.56 3.393-.642 3.118 2.753 5.41 3.946 1.375.734 3.209.275 4.584 1.01 1.1.55 1.192 1.56 1.467 2.66.184.918.184 2.019.55 2.937.275.825.917 1.284 1.467 1.926.55.735.917 1.469 1.284 2.386.642 1.927.825 4.037.642 6.056-.275 3.395-1.376 6.698-2.476 9.91-.733 2.11-1.008 4.22-2.109 6.147-.275.551-1.65 2.02-2.108.918-.092-.275-.092-.55-.092-.826.183-2.11 2.109-15.874-3.026-14.222-1.1.367-1.833 1.285-2.2 2.294-.459 1.284-.55 2.477-.459 3.762v.55c-.366.367-.458.643-.641.734z" transform="translate(54.095) translate(0 55.054) translate(141.196)"/>
                </g>
                <path fill="#F7B094" fill-rule="nonzero" d="M165.676 47.622c5.868-.918 9.81-5.598 9.81-5.598s-1.558 7.891-10.176 8.259l.366-2.661z" transform="translate(54.095) translate(0 55.054)"/>
                <g fill-rule="nonzero">
                    <path fill="#0A2033" d="M40.617.826h8.435V82.03c0 .826-.642 1.468-1.467 1.468h-5.501c-.825 0-1.467-.642-1.467-1.468V.826z" transform="translate(54.095) translate(0 55.054) translate(134.778 154.15)"/>
                    <path fill="#30475E" d="M21.638 1.927h46.485V3.21c0 3.212-2.568 5.781-5.777 5.781H27.414c-3.209 0-5.776-2.57-5.776-5.78V1.926z" transform="translate(54.095) translate(0 55.054) translate(134.778 154.15)"/>
                    <g>
                        <path fill="#0A2033" d="M40.617 6.882h8.435v18.81c0 .826-.642 1.468-1.467 1.468h-5.501c-.825 0-1.467-.642-1.467-1.468V6.882zM.917 22.297c0 2.753 2.2 4.955 4.95 4.955 2.751 0 4.952-2.202 4.952-4.955s-2.2-4.955-4.951-4.955c-2.659 0-4.951 2.202-4.951 4.955zM78.85 22.297c0 2.753 2.2 4.955 4.95 4.955 2.752 0 4.952-2.202 4.952-4.955s-2.2-4.955-4.951-4.955c-2.75 0-4.951 2.202-4.951 4.955z" transform="translate(54.095) translate(0 55.054) translate(134.778 154.15) translate(0 66.982)"/>
                        <path fill="#30475E" d="M36.354 0.591H53.408V15.456H36.354z" transform="translate(54.095) translate(0 55.054) translate(134.778 154.15) translate(0 66.982) rotate(-180 44.881 8.023)"/>
                        <path fill="#FBD15B" d="M.917 18.994h87.835V17.25c0-2.936-2.384-5.322-5.318-5.322H6.143c-2.934 0-5.318 2.386-5.318 5.322v1.744h.092z" transform="translate(54.095) translate(0 55.054) translate(134.778 154.15) translate(0 66.982)"/>
                    </g>
                    <path fill="#30475E" d="M41.9 10.736H44.833999999999996V66.249H41.9z" transform="translate(54.095) translate(0 55.054) translate(134.778 154.15)"/>
                </g>
                <path fill="#FBD15B" fill-rule="nonzero" d="M212.895 96.069c-2.017-.092-3.668 1.652-3.576 3.67.55 10.093-1.559 34.684-10.91 43.034-11.461 10.277-44.01 8.9-44.01 8.9s-5.41 6.607 5.41 8.075c10.727 1.468 40.983.459 48.318-6.331 7.06-6.607 11.277-23.949 8.16-54.137-.275-1.835-1.65-3.12-3.392-3.211z" transform="translate(54.095) translate(0 55.054)"/>
                <g fill-rule="nonzero">
                    <path fill="url(#prefix__c)" d="M67.573 162.592L71.423 171.401 59.596 176.631 55.745 167.822z" transform="translate(54.095) translate(0 55.054) translate(84.351 57.807)"/>
                    <path fill="#56548C" d="M123.5 64.505c-.733 1.468-53.36 0-58.403.459 0 0-32.182 15.415-36.858 29.82-.458 1.468-.642 3.395-.458 5.69 1.283 20.277 24.388 68.908 24.388 68.908l3.576-1.56 11.828-5.138 1.65-.734s-18.337-54.595-14.67-57.531c3.668-2.936 45.201-10.277 59.596-14.13 14.486-4.038 9.352-25.784 9.352-25.784z" transform="translate(54.095) translate(0 55.054) translate(84.351 57.807)"/>
                    <path fill="url(#prefix__d)" d="M22.371 164.886L23.288 178.099 10.361 178.099 9.444 164.886z" transform="translate(54.095) translate(0 55.054) translate(84.351 57.807)"/>
                    <path fill="#3D3D7A" d="M64.822 64.505l-.458.183S10.452 72.304 1.65 87.444c-5.684 9.818 5.318 81.847 5.318 81.847h19.07s-2.841-60.01-1.925-63.312c1.1-3.854 2.934-5.23 3.668-5.597-.184-2.294 0-4.221.458-5.69 4.585-14.405 36.858-29.82 36.858-29.82-.092.092-.183-.092-.275-.367z" transform="translate(54.095) translate(0 55.054) translate(84.351 57.807)"/>
                    <path fill="#FF8578" d="M116.991 14.681l-3.576.459s-.916 9.726-3.025 19.544L65.28 51.842l-.641 3.304h-.55v1.926c.091 3.763.366 6.515.733 7.525.092.183.183.367.275.458 1.192 1.01 17.145-.917 34.382 5.414 14.945 5.505 23.288 11.47 23.747 10.644 4.676-9.818-3.85-48.172-6.235-66.432z" transform="translate(54.095) translate(0 55.054) translate(84.351 57.807)"/>
                    <path fill="#F4675D" d="M112.224 37.07c-1.192 5.78-4.31 17.25-10.361 18.81-7.977 2.018-23.38 1.927-37.775 1.1v-1.926h.55l.642-3.303 45.11-17.159c2.109-9.726 3.025-19.544 3.025-19.544v.184c0 1.56.642 13.304-1.191 21.838zM67.114.275c-.825 1.468-1.925 17.159-2.567 32.757l-9.169-8.625C59.138 16.791 67.114.275 67.114.275z" transform="translate(54.095) translate(0 55.054) translate(84.351 57.807)"/>
                    <path fill="#F7B094" d="M61.521 44.318c-7.793 1.377-14.945 2.478-14.945 2.478v.367c-8.618-6.882-21.82-26.518-21.82-26.518s3.942-4.771 4.95-5.964c.184-.183 21.638 14.59 22.738 14.498.275 0 1.376-1.927 2.843-4.864l9.168 8.626c-.183 3.67-.275 7.432-.367 10.919-.825.183-1.65.367-2.567.458z" transform="translate(54.095) translate(0 55.054) translate(84.351 57.807)"/>
                    <path fill="url(#prefix__e)" d="M46.576 46.888l-.183 6.422H22.921s2.293-9.175 8.71-9.175c6.419 0 8.802 3.395 8.802 3.395l6.143-.642z" transform="translate(54.095) translate(0 55.054) translate(84.351 57.807)"/>
                    <path fill="#F7B094" d="M29.523 14.59l.183.183c-1.008 1.284-4.95 5.964-4.95 5.964l-2.476-1.743s-2.66 1.651-5.868-.092c-3.3-1.744-1.284-5.964-1.1-6.515-.642.184-4.585 3.303-5.135 3.028-.642-.367-1.1-1.468 3.3-5.78 4.402-4.313 10.27 1.192 10.453 1.192l5.593 3.762z" transform="translate(54.095) translate(0 55.054) translate(84.351 57.807)"/>
                    <path fill="#F7B094" d="M17.054 18.168s-.917 1.743.733 2.569c1.65.734 4.951 1.285 6.326 1.193 1.376-.092 2.476-2.11 2.476-2.11l-4.218-3.946H18.98l-1.925 2.294z" transform="translate(54.095) translate(0 55.054) translate(84.351 57.807)"/>
                    <path fill="#E8987C" d="M16.779 19.085c.275-.825 2.658-.367 4.125-.367 1.1 0 1.742-.275 2.017-1.1.367-.827-1.283-2.203-1.558-1.744-.275.459.55 1.01.642 1.56 0 .55-1.559.734-2.843.734-1.283 0-3.392.367-3.392.367l1.009.55z" transform="translate(54.095) translate(0 55.054) translate(84.351 57.807)"/>
                </g>
                <path fill="url(#prefix__f)" fill-rule="nonzero" d="M192.357 100.84l-22.921-8.166c-1.65 3.12-3.484 5.505-5.227 5.964-2.658.734-9.168 1.927-15.678 3.028-.825.184-1.742.275-2.567.459-7.793 1.376-14.945 2.477-14.945 2.477v.643l-.183 5.78v1.468s7.793-.367 17.603.276c13.753 1.009 31.54 1.56 37.408-1.193 2.66-1.285 4.86-5.506 6.51-10.736.092-.091 0 0 0 0z" transform="translate(54.095) translate(0 55.054)"/>
                <path fill="#F7B094" fill-rule="nonzero" d="M169.436 92.674L192.357 100.84 191.348 103.868 168.61 94.142z" transform="translate(54.095) translate(0 55.054)"/>
                <path fill="#FF8578" fill-rule="nonzero" d="M169.436 92.674c-1.65 3.12-3.484 5.505-5.227 5.964-2.658.734-9.168 1.927-15.678 3.028.092-3.487.184-7.157.367-10.919.642-15.598 1.742-31.289 2.567-32.757 1.284-2.477 4.951-7.8 10.636-8.992v.092s-1.926 11.653 9.718 11.653c11.186 0 12.561-10.828 12.653-11.929 5.776.643 14.578 3.487 15.77 15.048.275 2.294.642 5.23 1.1 8.534l-3.575.459s-1.467 16.24-5.227 27.802h-.091l-23.013-7.983z" transform="translate(54.095) translate(0 55.054)"/>
                <path fill="#6D4B35" fill-rule="nonzero" d="M169.161 90.564L178.329 68.359 171.544 91.481z" transform="translate(54.095) translate(0 55.054)"/>
                <path fill="#FF8578" fill-rule="nonzero" d="M184.472 48.814h-4.951s-7.151 7.8-11.644 7.8-2.109-7.8-2.109-7.8h-2.2c-6.418 0-11.828 4.772-12.561 11.195-.092.734-.184 1.376-.184 2.018-.458 4.772 18.613 8.167 18.613 8.167l9.81-.55 5.96-11.654 1.191-4.771-1.925-4.405z" transform="translate(54.095) translate(0 55.054)"/>
                <g fill-rule="nonzero">
                    <path fill="#F1F2F2" d="M.458 16.15c.459 2.385 2.11 4.128 4.493 3.67l31.815-5.965c.825-.183 1.375-.917 1.192-1.743l-.55-2.845S3.942 15.14.458 16.15z" transform="translate(54.095) translate(0 55.054) translate(123.776 228.473)"/>
                    <path fill="#3D3D7A" d="M9.902 8.075c.367-.276.642-.551 1.009-.826.641-.55 1.283-1.101 1.833-1.652.275-.275.642-.55.917-.826.55-.55 1.1-1.009 1.65-1.468.367-.275.642-.642 1.01-.917.55-.46 1.008-.918 1.283-1.193.275-.275.641-.275.917 0 1.283 1.1 5.5 3.578 13.202-1.101.367-.184.825-.092 1.009.275l4.676 8.9S3.942 15.14.458 16.057c1.1-.642 5.41-4.404 9.444-7.982z" transform="translate(54.095) translate(0 55.054) translate(123.776 228.473)"/>
                </g>
                <g fill-rule="nonzero">
                    <path fill="#F1F2F2" d="M.733 12.112c.092 2.386 1.467 4.404 3.851 4.312L36.95 15.6c.826 0 1.467-.734 1.467-1.56l-.091-2.845c0 .092-33.924.55-37.592.918z" transform="translate(54.095) translate(0 55.054) translate(73.349 232.144)"/>
                    <path fill="#3D3D7A" d="M11.37 5.78c.366-.275.733-.458 1.1-.733.733-.46 1.466-.918 2.108-1.377.367-.275.734-.459 1.1-.642.642-.459 1.284-.826 1.834-1.193.367-.275.733-.459 1.1-.734.642-.367 1.1-.734 1.467-.917.275-.184.734-.184.917.091 1.1 1.285 4.86 4.496 13.203 1.01.367-.184.825 0 1.008.458l3.118 9.543S4.4 11.745.733 12.112c1.284-.55 6.052-3.487 10.636-6.331z" transform="translate(54.095) translate(0 55.054) translate(73.349 232.144)"/>
                </g>
                <g>
                    <path fill="#ABB5BA" fill-rule="nonzero" d="M18.062 46.521L0.825 0.367 49.969 0.367 67.297 46.521z" transform="translate(54.095) translate(0 55.054) translate(33.007 66.065)"/>
                    <path fill="#8495A0" fill-rule="nonzero" d="M70.323 46.521L67.297 46.521 49.969 0.367 52.719 0.459 68.764 42.208z" transform="translate(54.095) translate(0 55.054) translate(33.007 66.065)"/>
                    <path d="M3.484 41.474L3.667 41.474 65.372 41.474" transform="translate(54.095) translate(0 55.054) translate(33.007 66.065)"/>
                    <path fill="#8495A0" fill-rule="nonzero" d="M69.315 46.52h32.548l-.092-2.936H68.673" transform="translate(54.095) translate(0 55.054) translate(33.007 66.065)"/>
                </g>
                <g fill-rule="nonzero">
                    <path fill="#8495A0" d="M233.066 9.359H240.859V138.001H233.066z" transform="translate(54.095) translate(0 55.054) translate(0 111.943)"/>
                    <path fill="#ABB5BA" d="M190.523 9.359H198.316V138.001H190.523z" transform="translate(54.095) translate(0 55.054) translate(0 111.943)"/>
                    <path fill="#8495A0" d="M54.461 9.359H62.254V138.001H54.461z" transform="translate(54.095) translate(0 55.054) translate(0 111.943)"/>
                    <path fill="#ABB5BA" d="M11.919 9.359H19.712V138.001H11.919z" transform="translate(54.095) translate(0 55.054) translate(0 111.943)"/>
                    <path fill="#141B56" d="M248.652 9.91H4.492C2.385 9.91.734 8.166.734 6.148V4.496c0-2.11 1.743-3.762 3.76-3.762h244.25c2.11 0 3.76 1.743 3.76 3.762v1.652c0 2.018-1.742 3.762-3.85 3.762z" transform="translate(54.095) translate(0 55.054) translate(0 111.943)"/>
                </g>
                <path fill="#8495A0" fill-rule="nonzero" d="M41.992 71.295L42.817 73.497 52.628 73.497 51.803 71.295z" transform="translate(54.095) translate(0 55.054)"/>
                <path fill="#E8987C" fill-rule="nonzero" d="M139.638 82.122L138.904 83.498 148.806 93.775 148.806 90.747z" transform="translate(54.095) translate(0 55.054)"/>
            </g>
        </g>
        <g fill-rule="nonzero">
            <path fill="#A5B7C6" d="M0.092 117.173H396.08299999999997V126.257H0.092z" transform="translate(0 186.266)"/>
            <g>
                <g>
                    <path fill="url(#prefix__g)" d="M20.721 35.326c-1.559 7.616-1.1 20.645-11.186 22.756-2.75.55-5.317-1.377-6.968-3.487C.458 51.751 0 45.786 0 42.391c0-2.752.917-5.78 1.284-8.441.366-2.936.55-5.964.916-8.9C3.484 14.406 8.985 5.505 18.43.184c.733 3.486 2.384 6.422 3.85 9.817.642 1.56 1.284 3.12 1.743 4.772.733 2.844-.184 5.689-.825 8.441-1.1 3.854-1.65 8.075-2.476 12.112z" transform="translate(0 186.266) translate(277.808) translate(34.84 14.681)"/>
                    <path fill="#747DED" d="M7.793 58.357l.275-1.927c1.192 0 2.476-.734 3.484-1.193 1.742-.917 3.21-2.202 4.585-3.578.091-.092-.092-.184-.092-.092-1.375 1.193-2.842 2.294-4.4 3.028-.918.459-2.293 1.101-3.393 1.285.091-.734.183-1.56.366-2.294 1.284-.184 2.384-1.01 3.485-1.652 1.833-1.1 3.392-2.477 4.95-3.762-2.475 1.835-5.226 4.313-8.343 4.863.184-.917.367-1.927.55-2.844v-.184c3.576-.917 6.052-3.762 8.802-6.056 0 0 0-.091-.092-.091-2.75 2.11-5.317 4.496-8.618 5.597.275-1.377.55-2.661.917-4.038 3.3-1.192 5.868-3.12 8.16-5.78 0 0 0-.092-.092-.092-2.384 2.477-4.95 3.854-7.976 5.23.275-1.376.641-2.66.916-4.037 1.376-.734 2.934-1.101 4.218-2.019 1.284-.917 2.475-2.018 3.3-3.303 0-.092-.091-.092-.091-.092-1.834 2.661-4.584 3.487-7.243 4.863.275-1.284.458-2.477.733-3.762 2.934-1.651 6.235-3.12 7.885-6.24 0 0 0-.09-.091 0-1.743 2.845-4.86 4.13-7.702 5.69 0-.184.092-.459.092-.643.183-1.192.366-2.293.55-3.486 1.742-.643 3.3-1.652 4.86-2.661 1.1-.734 2.291-1.377 2.933-2.57 0-.091-.092-.183-.092-.091-1.558 2.294-5.042 3.578-7.61 4.771.184-1.193.367-2.385.459-3.578 2.842-1.744 6.234-2.661 7.977-5.781.091-.092-.092-.183-.184-.092-1.834 2.845-5.043 3.762-7.793 5.322.092-.734.183-1.468.367-2.202 3.117-1.101 6.693-3.762 8.343-6.515.092-.183-.092-.275-.275-.183-1.65 2.477-4.951 5.138-7.977 6.056l.55-3.579s0-.092.092-.092c1.375-.367 2.75-1.376 3.943-2.11 1.467-.918 2.842-1.927 3.759-3.395.091-.183-.184-.275-.275-.183-1.376 2.477-4.585 4.129-7.335 5.046.091-.459.183-.826.275-1.284.091-.643.275-1.285.367-1.927 1.1-.734 2.475-1.101 3.575-1.927.917-.734 1.834-1.56 2.66-2.386.09-.092 0-.183-.092-.092-1.1 1.01-2.293 2.019-3.668 2.753-.733.367-1.65.642-2.384 1.101.184-1.01.459-2.11.642-3.12.092 0 .092 0 .183-.091 1.467-.367 2.66-1.652 3.668-2.753 0 0 0-.092 0 0-1.1 1.01-2.292 2.019-3.668 2.477h-.091c.183-.825.275-1.743.458-2.569.092 0 .184-.092.184-.183.825-.55 1.558-1.193 2.2-1.835.092-.092 0-.092-.092-.092-.733.642-1.375 1.1-2.2 1.56.275-1.744.458-3.579.642-5.322 0-.184-.275-.184-.275 0-.184 1.743-.367 3.487-.734 5.138-.825-1.1-1.742-2.202-2.292-3.487 0-.091-.092 0-.092 0 .275.734.642 1.469 1.1 2.11.367.643.642 1.285 1.192 1.836l-.55 2.753c-1.008-.184-1.925-.367-2.75-1.101-1.009-.918-1.559-2.11-1.65-3.487 0-.184-.276-.184-.276 0 .092 1.284.642 2.385 1.467 3.395.917 1.01 1.926 1.284 3.21 1.56-.184 1.009-.46 2.11-.643 3.12-.916-.551-1.742-1.285-2.567-1.928-1.283-1.1-2.108-2.293-3.3-3.486-.092-.092-.275.092-.184.183 1.1 1.193 1.834 2.386 3.026 3.395.917.734 1.834 1.652 2.934 2.202v.184c-.092.092-.092.183 0 .275-.184 1.01-.459 2.019-.642 3.028v.184c-2.384-1.101-5.868-2.937-6.143-5.69 0-.275-.458-.183-.367.093.734 3.12 4.126 4.496 6.418 6.147-.275 1.101-.458 2.294-.641 3.395-1.56-.55-2.934-1.193-4.218-2.202-1.192-.918-2.842-2.019-3.3-3.487H5.96c.458 1.377 1.925 2.386 3.025 3.395 1.376 1.193 2.75 2.294 4.493 2.753v.183c-.092.735-.275 1.469-.367 2.203-2.842-.184-6.876-2.386-8.343-4.588 1.008 1.651 2.475 2.569 4.217 3.487 1.284.642 2.66 1.376 4.034 1.468-.183 1.376-.366 2.66-.641 4.037-1.192-.459-2.568-.642-3.76-1.193-1.833-.734-3.209-2.019-4.309-3.67-.091-.092-.183 0-.183.092 2.017 3.12 4.86 4.037 8.16 5.23l-.55 3.303c-2.75-.55-6.235-2.202-7.61-4.588-.092-.183-.367 0-.275.184.917 1.56 2.384 2.477 3.942 3.211 1.1.55 2.66 1.468 3.943 1.56v.092c-.275 1.56-.55 3.211-.917 4.771-3.026-.734-5.043-3.028-7.243-5.138-.184-.184-.367.091-.275.183 2.292 2.202 4.217 4.588 7.335 5.322-.275 1.285-.55 2.57-.917 3.854-2.567-.734-5.135-2.57-6.877-4.68-.091-.183-.366.092-.183.184C4.4 42.3 6.876 44.043 9.627 44.96c-.367 1.376-.642 2.752-1.009 4.129-2.658-.367-4.676-2.11-6.326-4.221 0-.092-.092 0-.092.092 1.467 2.018 3.668 4.404 6.327 4.587-.092.46-.184.918-.367 1.285-.092.275-.183.55-.183.826-2.017-.55-3.851-1.285-5.501-2.661-.092 0-.092 0-.092.092 1.558 1.376 3.484 2.385 5.501 3.028-.183.825-.458 1.651-.733 2.569-.459-.275-1.009-.459-1.56-.642-1.008-.276-1.65-.918-2.475-1.469-.091-.091-.183.092-.091.092.733.459 1.283 1.101 2.2 1.468.642.276 1.284.55 1.834.826-.917 3.395-1.742 7.065-1.284 10.277.092.734 1.284.917 1.467.183.275-2.11.275-4.68.55-7.065z" transform="translate(0 186.266) translate(277.808) translate(34.84 14.681)"/>
                </g>
                <g>
                    <path fill="url(#prefix__h)" d="M23.563 31.289c1.834 7.616 7.702 19.177-.55 25.325-2.2 1.651-5.41 1.009-7.793-.276-3.026-1.651-6.051-6.881-7.427-10.001-1.1-2.477-1.558-5.597-2.475-8.258-.917-2.845-1.926-5.597-2.934-8.442C-1.01 19.452.275 8.992 6.6.184c2.11 2.844 4.86 4.863 7.61 7.248 1.284 1.101 2.476 2.294 3.576 3.579 1.925 2.294 2.292 5.23 2.75 7.983.826 4.22 2.11 8.258 3.026 12.295z" transform="translate(0 186.266) translate(277.808) translate(0 16.516)"/>
                    <path fill="#747DED" d="M21.546 57.623c-.183-.642-.367-1.193-.642-1.835 1.1-.55 1.926-1.652 2.66-2.57 1.191-1.56 1.925-3.394 2.566-5.23 0-.091-.091-.183-.183-.091-.733 1.651-1.559 3.211-2.75 4.588-.642.734-1.56 1.927-2.568 2.569-.183-.734-.458-1.468-.641-2.202 1.1-.643 1.742-1.927 2.475-2.937 1.192-1.743 2.017-3.67 2.934-5.505-1.467 2.661-2.934 6.148-5.501 7.983-.275-.918-.459-1.835-.734-2.845v-.183c2.843-2.386 3.943-5.964 5.41-9.176 0-.091-.092-.091-.092-.091-1.559 3.028-2.842 6.33-5.501 8.716-.275-1.376-.642-2.66-.917-4.037 2.476-2.477 4.034-5.322 4.951-8.717 0-.091-.092-.091-.092 0-1.1 3.212-2.842 5.597-4.95 8.167-.276-1.377-.55-2.661-.917-4.038 1.008-1.193 2.2-2.202 2.934-3.578.825-1.377 1.375-2.845 1.558-4.404 0-.092-.091-.092-.091 0-.55 3.12-2.66 5.046-4.493 7.432-.275-1.285-.642-2.478-.917-3.67 2.017-2.753 4.31-5.506 4.493-8.993h-.092c-.367 3.395-2.659 5.781-4.584 8.442-.092-.184-.092-.459-.184-.642-.366-1.101-.642-2.294-1.008-3.395 1.283-1.377 2.292-2.937 3.3-4.496.734-1.101 1.467-2.203 1.65-3.579 0-.092-.09-.092-.09 0-.46 2.753-3.118 5.414-4.952 7.524-.367-1.1-.733-2.294-1.008-3.395 1.833-2.753 4.492-5.046 4.767-8.625 0-.092-.183-.092-.183 0-.459 3.395-3.026 5.505-4.768 8.075-.183-.734-.458-1.377-.642-2.11 2.292-2.295 4.493-6.148 4.768-9.452 0-.183-.275-.183-.275 0-.458 2.937-2.384 6.699-4.676 8.9-.367-1.192-.642-2.293-1.009-3.486v-.092c1.1-.917 1.926-2.385 2.66-3.578.916-1.377 1.741-2.937 1.925-4.68 0-.183-.275-.183-.275 0-.184 2.753-2.476 5.689-4.493 7.616-.092-.459-.183-.826-.367-1.285-.183-.642-.275-1.284-.458-1.927.642-1.192 1.834-2.11 2.475-3.303.55-1.01 1.009-2.202 1.376-3.303 0-.092-.092-.184-.184-.092-.55 1.468-1.192 2.845-2.108 4.037-.55.735-1.192 1.285-1.65 2.02-.276-1.01-.46-2.111-.734-3.12.091 0 .091-.092.183-.092 1.192-1.01 1.65-2.661 2.109-4.038 0 0 0-.091-.092 0-.55 1.377-1.192 2.845-2.292 3.762h-.092c-.183-.825-.458-1.651-.641-2.569.091-.092.091-.183.091-.275.459-.826.825-1.743 1.192-2.661 0-.092-.092-.092-.092 0-.366.826-.825 1.56-1.375 2.294-.458-1.743-1.008-3.395-1.742-5.138-.092-.184-.275-.092-.275.091.55 1.652 1.1 3.304 1.559 4.955-1.192-.642-2.476-1.284-3.484-2.202-.092-.092-.092 0-.092.092.55.55 1.192 1.01 1.925 1.468.642.367 1.192.917 1.834 1.193.275.917.459 1.835.642 2.752-1.009.276-1.925.46-2.934.184-1.284-.367-2.292-1.193-3.026-2.386-.091-.183-.275 0-.275.092.642 1.101 1.559 1.927 2.75 2.386 1.193.55 2.293.367 3.485.091.275 1.01.458 2.11.733 3.12-1.1-.092-2.108-.367-3.117-.642-1.65-.367-2.934-1.193-4.4-1.835-.184-.092-.276.183-.093.275 1.467.55 2.66 1.376 4.218 1.835 1.1.275 2.384.734 3.576.826v.183c0 .092 0 .184.091.184.184 1.01.459 2.019.642 3.028 0 .092 0 .092.092.183-2.567 0-6.51-.183-7.977-2.569-.091-.183-.458 0-.275.184 1.926 2.477 5.593 2.294 8.435 2.844.275 1.101.55 2.294.917 3.395-1.558.184-3.209.184-4.767-.183-1.467-.367-3.393-.643-4.493-1.744 0 0-.092 0-.092.092 1.009 1.101 2.75 1.376 4.126 1.743 1.742.551 3.484.918 5.226.643 0 .091 0 .091.092.183.183.734.367 1.377.642 2.11-2.66 1.01-7.244.735-9.444-.642 1.559 1.101 3.392 1.285 5.226 1.377 1.375 0 2.934.091 4.31-.367.366 1.284.733 2.66 1.191 3.945-1.283.092-2.567.459-3.942.55-1.926.092-3.76-.458-5.41-1.467-.091-.092-.183.091-.091.183 3.117 2.019 6.05 1.652 9.627 1.285.275 1.1.641 2.11.916 3.211-2.658.642-6.6.642-8.801-.917-.184-.092-.367.091-.184.275 1.467 1.01 3.21 1.284 4.951 1.284 1.192 0 3.026.276 4.218-.275v.092c.458 1.56.825 3.12 1.192 4.68-3.118.55-5.776-.643-8.71-1.56-.184-.092-.367.275-.092.275 2.934 1.101 5.776 2.294 8.893 1.743l.826 3.854c-2.66.459-5.777-.183-8.16-1.376-.184-.092-.275.183-.092.275 2.567 1.376 5.593 1.835 8.343 1.56l.825 4.129c-2.567.734-5.134.092-7.518-1.101-.091 0-.091.092-.091.092 2.2 1.192 5.134 2.385 7.701 1.56.092.458.184.917.275 1.284.092.275.092.55.184.826-2.11.275-4.035.459-6.143-.092-.092 0-.092.092 0 .092 2.017.642 4.126.734 6.234.367.184.826.275 1.743.459 2.57-.55 0-1.1 0-1.65.09-1.01.184-1.926-.183-2.935-.274-.091 0-.091.091 0 .183.917.092 1.65.459 2.568.459.641-.092 1.375 0 2.017 0 .642 3.487 1.375 7.157 3.209 9.91.366.642 1.558.275 1.467-.46-.55-2.293-1.65-4.587-2.476-6.881z" transform="translate(0 186.266) translate(277.808) translate(0 16.516)"/>
                </g>
                <g>
                    <path fill="url(#prefix__i)" d="M26.406 41.933c.458 9.634 4.95 25.14-6.51 30.646-3.117 1.468-6.785 0-9.352-2.11-3.3-2.753-5.776-9.818-6.785-13.947-.825-3.303-.55-7.157-1.1-10.552-.55-3.67-1.1-7.249-1.559-10.919C-.642 21.93 3.3 9.543 13.02.275c1.925 3.946 4.859 7.066 7.61 10.644 1.283 1.652 2.475 3.395 3.483 5.138 1.742 3.212 1.56 6.882 1.56 10.369-.093 5.23.55 10.368.733 15.507z" transform="translate(0 186.266) translate(277.808) translate(14.67)"/>
                    <path fill="#747DED" d="M17.879 73.405c-.092-.826-.184-1.56-.275-2.386 1.467-.367 2.75-1.56 3.759-2.477 1.834-1.652 3.117-3.67 4.4-5.689.092-.092-.09-.183-.183-.092-1.283 1.836-2.659 3.579-4.4 4.955-1.01.826-2.384 2.019-3.668 2.57-.092-.918-.183-1.927-.275-2.845 1.467-.55 2.567-1.927 3.667-3.028 1.834-1.835 3.301-3.946 4.86-6.056 0 0 0-.092 0 0-2.384 2.936-4.951 6.79-8.527 8.442-.092-1.193-.183-2.386-.183-3.579v-.183c4.034-2.202 6.143-6.332 8.71-9.91 0-.092 0-.092-.092-.092-2.659 3.395-4.951 7.065-8.71 9.268-.092-1.744-.092-3.395-.183-5.139 3.575-2.477 6.142-5.505 8.068-9.45 0-.092-.092-.092-.092-.092-2.109 3.67-4.767 6.147-7.976 8.716 0-1.651-.092-3.395-.184-5.046 1.467-1.285 3.117-2.202 4.401-3.67 1.284-1.469 2.292-3.12 2.934-4.955 0-.092-.092-.184-.183-.092-1.376 3.67-4.493 5.505-7.244 7.983l-.275-4.68c3.026-2.844 6.51-5.689 7.519-9.91 0 0-.092-.091-.092 0-1.284 4.038-4.584 6.423-7.518 9.176 0-.275 0-.55-.092-.826-.092-1.468-.275-2.936-.458-4.312 1.833-1.377 3.484-3.028 5.042-4.68 1.1-1.193 2.292-2.385 2.75-3.945 0-.092-.09-.184-.182-.092-1.192 3.211-5.043 5.872-7.702 7.983-.183-1.468-.275-2.936-.459-4.405 2.934-2.936 6.602-5.138 7.794-9.359 0-.091-.184-.183-.184-.091-1.283 3.945-4.859 5.964-7.701 8.716l-.275-2.752c3.392-2.294 6.876-6.515 7.976-10.369.092-.183-.275-.275-.366-.092-1.284 3.487-4.401 7.616-7.702 9.727-.183-1.468-.275-2.937-.367-4.405v-.183c1.559-.918 2.843-2.478 4.126-3.762 1.467-1.468 2.842-3.12 3.393-5.23.091-.184-.275-.367-.367-.092-.917 3.395-4.31 6.331-7.243 8.258 0-.55-.092-1.101-.092-1.652 0-.825-.092-1.651-.092-2.385 1.1-1.285 2.66-2.11 3.76-3.395.916-1.101 1.65-2.386 2.383-3.67.092-.092-.091-.276-.183-.092-1.009 1.56-2.109 3.12-3.484 4.404-.825.734-1.742 1.285-2.476 2.019-.091-1.285-.091-2.661-.183-3.946h.092c.091 0 .183-.092.183-.092 1.65-.917 2.659-2.844 3.576-4.404 0 0 0-.092-.092 0-1.009 1.468-2.109 3.12-3.667 4.13h-.092c-.092-1.102-.092-2.111-.183-3.212.091-.092.183-.184.183-.276.825-.917 1.467-1.926 2.017-2.936 0-.092-.092-.183-.092-.092-.642.918-1.375 1.744-2.2 2.478-.184-2.202-.459-4.404-.917-6.607 0-.183-.367-.091-.275.092.367 2.11.55 4.22.733 6.423-1.283-1.01-2.75-2.11-3.759-3.487-.091-.091-.183 0-.091.092.55.826 1.283 1.56 1.925 2.202.642.643 1.192 1.377 1.925 1.927.092 1.193.184 2.294.184 3.487-1.284.092-2.384.183-3.668-.459-1.467-.734-2.567-2.019-3.117-3.578-.092-.184-.367-.092-.275.091.55 1.468 1.467 2.753 2.75 3.579 1.376.917 2.751.917 4.31.917.091 1.377.091 2.661.183 4.038-1.283-.367-2.475-1.01-3.667-1.56-1.926-.826-3.21-2.202-4.951-3.212-.184-.091-.367.184-.184.276 1.65 1.009 2.934 2.294 4.676 3.211 1.284.642 2.75 1.468 4.218 1.743v.276c-.092.092 0 .183 0 .275 0 1.285.092 2.57.092 3.854v.275c-3.118-.55-7.885-1.743-9.077-4.955-.092-.275-.55-.092-.367.184 1.742 3.486 6.235 4.129 9.535 5.413.092 1.468.184 2.845.275 4.313-2.017-.184-3.942-.459-5.776-1.376-1.65-.734-3.942-1.56-5.043-3.12 0-.092-.091 0-.091.092 1.008 1.56 3.025 2.294 4.676 3.12 2.017 1.1 3.942 1.926 6.234 1.926v.184l.275 2.752c-3.484.643-8.893-.825-11.369-2.936 1.65 1.652 3.76 2.386 6.052 2.845 1.742.367 3.575.825 5.317.55.184 1.652.367 3.395.459 5.047-1.65-.184-3.3 0-4.86-.275-2.383-.367-4.492-1.469-6.234-3.12-.092-.092-.275.092-.184.183 3.301 3.212 6.969 3.395 11.37 3.854.091 1.376.274 2.753.366 4.13-3.392.183-8.16-.735-10.544-3.12-.183-.184-.458.091-.275.275 1.467 1.56 3.576 2.294 5.685 2.752 1.467.367 3.576 1.01 5.226.734v.092c.183 2.019.275 3.946.367 5.964-3.851 0-6.969-2.11-10.178-3.945-.183-.092-.458.183-.183.367 3.392 2.018 6.418 4.129 10.452 4.22.092 1.652.092 3.212.092 4.864-3.3-.092-6.968-1.468-9.627-3.579-.183-.183-.367.184-.183.276 2.75 2.202 6.326 3.578 9.81 3.853v5.23c-3.3.367-6.326-1.1-8.894-3.12-.091-.091-.183.092-.091.092 2.384 2.02 5.684 4.13 8.985 3.579V65.973c-2.567-.092-5.043-.367-7.427-1.56-.091 0-.091.092 0 .092 2.293 1.193 4.86 1.835 7.519 1.927 0 1.009-.092 2.11-.092 3.211-.642-.092-1.284-.275-2.017-.275-1.284-.092-2.292-.642-3.484-1.01-.092 0-.184.092-.092.184 1.1.367 1.926 1.01 3.026 1.101.825.092 1.65.275 2.475.459-.091 4.404.092 8.992 1.559 12.754.367.826 1.834.734 1.834-.275 0-3.12-.734-6.148-1.192-9.176z" transform="translate(0 186.266) translate(277.808) translate(14.67)"/>
                </g>
                <path fill="#95A8B5" d="M47.402 77.075L47.035 84.875 46.301 97.078 45.201 117.173 18.154 117.173 17.054 97.078 16.32 84.875 15.953 77.075z" transform="translate(0 186.266) translate(277.808)"/>
                <path fill="#A5B7C6" d="M47.035 84.875L46.943 86.435 46.852 88.086 46.301 97.078 17.054 97.078 16.503 88.086 16.412 86.435 16.32 84.875z" transform="translate(0 186.266) translate(277.808)"/>
                <path fill="#95A8B5" d="M46.943 86.435L46.852 88.086 16.503 88.086 16.412 86.435z" transform="translate(0 186.266) translate(277.808)"/>
            </g>
        </g>
    </g>
</svg>
