<?xml version="1.0" standalone="no"?>
<!DOCTYPE svg PUBLIC "-//W3C//DTD SVG 20010904//EN"
 "http://www.w3.org/TR/2001/REC-SVG-20010904/DTD/svg10.dtd">
<svg version="1.0" xmlns="http://www.w3.org/2000/svg"
 width="700.000000pt" height="700.000000pt" viewBox="0 0 700.000000 700.000000"
 preserveAspectRatio="xMidYMid meet">
<metadata>
Created by potrace 1.14, written by Peter Selinger 2001-2017
</metadata>
<g transform="translate(0.000000,700.000000) scale(0.100000,-0.100000)"
fill="#000000" stroke="none">
<path d="M3359 6224 c-295 -56 -536 -260 -638 -540 -16 -43 -32 -99 -36 -124
-3 -25 -8 -54 -10 -65 -2 -11 -4 -56 -4 -101 l-1 -81 -50 -23 -49 -23 -40 36
c-46 42 -75 52 -146 51 -119 -2 -206 -103 -192 -224 3 -25 8 -54 11 -65 4 -16
-8 -31 -60 -70 -72 -56 -206 -184 -272 -262 l-44 -51 -51 36 c-195 132 -472
172 -703 101 -275 -85 -501 -316 -567 -580 -29 -116 -33 -143 -31 -234 3 -147
53 -329 114 -414 11 -16 20 -34 20 -40 0 -6 4 -11 8 -11 4 0 15 -12 24 -27 37
-63 145 -161 235 -216 118 -72 243 -111 385 -123 40 -4 74 -7 75 -8 0 0 3 -26
5 -56 3 -55 3 -55 -39 -83 -87 -58 -113 -179 -59 -272 30 -50 96 -94 146 -98
36 -2 33 3 95 -161 21 -54 60 -142 86 -194 l49 -96 -33 -36 c-92 -97 -164
-228 -196 -355 -38 -149 -33 -334 14 -472 91 -269 295 -466 570 -549 78 -23
109 -27 225 -27 153 -1 228 14 347 68 143 66 278 178 352 293 23 35 40 51 50
48 9 -3 35 -8 58 -11 39 -6 44 -10 53 -43 15 -56 45 -98 91 -129 34 -22 52
-27 108 -27 58 -1 74 3 110 27 35 24 73 68 84 101 1 4 63 10 137 12 74 2 149
5 165 8 17 2 53 7 80 11 65 9 181 32 225 45 19 5 38 10 41 10 3 0 25 -26 47
-59 216 -308 614 -435 972 -310 256 88 457 305 531 572 18 63 23 109 23 202 1
179 -16 259 -81 390 -37 72 -59 106 -126 187 l-38 47 26 48 c26 47 27 48 70
45 88 -7 161 33 200 112 43 85 29 168 -40 237 -21 21 -42 39 -45 39 -4 0 3 42
15 93 13 52 26 114 29 138 3 24 8 55 11 69 3 14 8 59 11 100 3 41 8 77 9 78 2
2 25 6 52 9 268 26 535 207 653 442 68 137 91 230 95 382 5 232 -78 439 -242
604 -189 190 -450 278 -720 242 -91 -12 -221 -59 -305 -110 -40 -24 -50 -26
-60 -15 -64 69 -61 63 -43 98 32 63 14 172 -38 229 -56 61 -161 78 -239 38
l-46 -23 -78 52 c-99 64 -239 142 -326 179 l-66 29 0 80 c-2 377 -261 710
-629 807 -94 25 -268 31 -364 13z m1084 -1018 c108 -52 191 -98 195 -108 2 -5
7 -8 12 -8 5 0 36 -19 69 -42 52 -35 59 -44 50 -60 -19 -35 -20 -99 -4 -148
19 -57 74 -111 130 -130 44 -14 117 -8 159 13 27 15 29 14 58 -19 l30 -34 -57
-59 c-77 -79 -120 -141 -166 -238 -90 -187 -107 -407 -48 -597 61 -199 170
-347 339 -460 36 -24 88 -55 115 -69 55 -27 194 -65 265 -71 l45 -4 -1 -53 c0
-90 -9 -152 -45 -311 l-22 -98 -32 0 c-71 0 -152 -57 -181 -126 -28 -67 -13
-159 36 -213 l29 -34 -20 -38 c-11 -22 -21 -39 -23 -39 -3 0 -31 17 -63 39
-202 134 -436 177 -669 121 -334 -79 -575 -339 -639 -690 -20 -107 2 -309 46
-425 10 -27 19 -53 19 -56 0 -3 -33 -13 -72 -22 -104 -24 -113 -25 -248 -43
-25 -3 -98 -7 -162 -9 l-118 -4 -6 27 c-14 68 -65 134 -122 157 -46 20 -126
19 -168 -1 -37 -18 -104 -89 -104 -111 0 -15 -38 -17 -75 -3 -21 8 -24 13 -16
29 32 58 63 201 66 301 9 290 -108 534 -340 710 -293 222 -690 220 -1013 -7
-22 -15 -22 -15 -81 108 -32 68 -71 159 -86 202 -30 85 -30 84 27 117 10 6 30
31 45 57 53 90 25 220 -59 271 -32 19 -45 24 -100 36 -26 6 -28 10 -28 60 l0
54 52 7 c267 37 534 254 635 515 50 129 58 178 56 335 -2 218 -76 397 -232
564 -29 31 -31 37 -20 58 18 34 192 208 278 277 l72 59 48 -22 c87 -41 178
-25 244 43 34 35 61 103 57 147 -1 13 -2 29 -1 35 1 12 65 39 78 33 4 -2 17
-35 28 -74 40 -137 111 -252 220 -360 129 -127 294 -207 475 -232 243 -34 499
48 683 217 127 118 213 269 251 443 4 15 9 27 11 27 3 0 47 -20 98 -44z"/>
<path d="M2869 4139 c-149 -12 -303 -84 -409 -189 -224 -223 -256 -577 -77
-839 40 -59 97 -116 237 -236 63 -55 129 -112 145 -126 17 -15 73 -64 125
-109 119 -104 218 -191 290 -254 30 -27 69 -61 85 -75 17 -14 78 -68 137 -119
59 -52 112 -92 117 -90 7 2 362 309 455 393 12 11 108 94 212 185 421 367 404
351 465 444 64 97 97 203 103 329 14 303 -186 574 -489 662 -60 18 -227 24
-289 12 -142 -30 -251 -94 -416 -244 -19 -18 -39 -33 -44 -33 -4 0 -45 32 -90
71 -118 104 -212 163 -301 191 -67 21 -183 33 -256 27z"/>
</g>
</svg>
