<svg xmlns="http://www.w3.org/2000/svg" xmlns:xlink="http://www.w3.org/1999/xlink" width="585" height="302" viewBox="0 0 585 302">
    <defs>
        <path id="prefix__a" d="M0 300.615L585 300.615 585 0.615 0 0.615z"/>
    </defs>
    <g fill="none" fill-rule="evenodd">
        <path fill="#FFECDB" d="M28.94 301.615S-33.895 167.54 89.945 167.54c65.433 0 38.478-36.786 82.964-79.358 44.485-42.572 200.061-76.585 233.174 5.623s-48.721 144.625 30.355 133.918C531.462 214.857 569 301.614 569 301.614H28.94z"/>
        <path fill="#95D39E" d="M538.205 283.67c-5.879-4.273-17.89-1.388-26.757 1.699-1.325-1.852-2.93-3.76-4.873-5.626 19.1-12.241 45.478-38.346 31.497-40.556-12.154-1.921-28.556 21.577-37.322 35.881-9.103-6.092-23.051-10.571-44.347-9.018-55.269 4.031-98.445-31.439-130.272-19.609-25.305 9.406-48.495 14.676-70.861 12.876.963-16.256 1.172-48.172-11.658-51.484-13.025-3.361-.25 32.885 6.852 50.984-1.666-.212-3.328-.464-4.987-.76-4.598-9.02-12.175-20.824-20.495-21.228-7.835-.38 1.835 10.233 11.351 19.224-27.35-5.713-59.795 16.407-60.333 42.562h341.46s-.605-3.818-3.284-8.852c13.197-.257 30.415-1.45 24.03-6.092"/>
        <mask id="prefix__b" fill="#fff">
            <use xlink:href="#prefix__a"/>
        </mask>
        <path fill="#2776CF" d="M161 298.615L251 298.615 251 278.615 161 278.615z" mask="url(#prefix__b)"/>
        <path fill="#469FF1" d="M133 298.615L223 298.615 223 278.615 133 278.615z" mask="url(#prefix__b)"/>
        <path fill="#F56700" d="M286 298.615L353 298.615 353 204.615 286 204.615z" mask="url(#prefix__b)"/>
        <path fill="#FFA447" d="M266 298.615L333 298.615 333 204.615 266 204.615z" mask="url(#prefix__b)"/>
        <path fill="#E55C00" d="M333 205.615L353 219.615 353 205.615z" mask="url(#prefix__b)"/>
        <path fill="#67B475" d="M125.982 226.114s-12.567 9.333-15.017 8.767c-2.45-.566 9.184-10.074 9.184-10.074-4.378-2.102-17.988-.784-17.988-.784s-4.533 14.599-6.769 13.448c-2.235-1.151 4.675-12.723 4.675-12.723-4.876-.293-10.857 3.323-10.857 3.323-8.187 6.457.538 16.623.538 16.623s-1.68 5.026-6.85 9.602c0 0-7.385 5.454-7.898 15.2l1.34.119s2.125-9.076 5.986-13.37c.15-.154.368-.378.638-.649.629-.581 1.07-1.019 1.365-1.343 1.922-1.844 4.578-4.193 5.857-4.42 0 0-.064-.235-.055-.643l.055.643c.438 5.138 10.42 9.625 16.56 10.548 6.141.922 4.243-1.598 2.127-5.336-2.116-3.737-8.811-5.41-10.339-7.131-1.528-1.722 1.63-1.726 5.33-.038 3.7 1.687 4.207 6.187 10.142 9.026 5.935 2.838 14.866-6.998 14.866-6.998-4.73-.24-11.485-5.37-11.24-6.939.244-1.57 11.465 2.708 13.384 2.913 1.918.205 6.283-2.177 6.958-9.894.675-7.717-11.992-9.87-11.992-9.87" mask="url(#prefix__b)"/>
        <path fill="#95D39E" d="M59.88 232.465s13.872-7.753 7.399-18.274c0 0-5.179-6.46-10.727-8.122 0 0 2.959 15.69 0 16.06-2.96.368-2.035-17.721-2.035-17.721s-14.611-7.015-20.345-6.46c0 0 9.063 15.32 6.104 14.95-2.96-.368-13.132-15.874-13.132-15.874s-14.981-2.769-17.385 6.092c-2.405 8.86 1.48 13.29 3.699 13.844 2.219.554 16.46.369 16.09 2.215-.37 1.846-9.987 4.8-15.35 3.138 0 0 5.918 14.582 13.686 13.844 7.768-.738 10.172-5.538 14.981-5.907 4.809-.369 8.323.923 5.919 2.215-2.405 1.292-10.543.424-14.427 3.72-3.884 3.295-7.028 5.325.185 6.802 7.214 1.477 20.16.553 22.75-4.984l2.589-5.538z" mask="url(#prefix__b)"/>
        <path fill="#67B475" d="M63.416 245.548c-3.837-7.177-3.655-13.434-3.655-13.434-4.385-13.986-42.761-26.5-42.761-26.5 48.792 19.875 40.203 32.02 40.203 32.02 1.315.773 3.286 4.456 4.655 7.282.194.48.503 1.146.961 2.05.186.408.335.742.437.976 2.513 6.33 1.182 17.26 1.182 17.26l1.522.413c3.374-11.017-2.544-20.067-2.544-20.067" mask="url(#prefix__b)"/>
        <path fill="#95D39E" d="M81.007 220.907s-18.264-10.227-9.74-24.107c0 0 6.818-8.522 14.123-10.714 0 0-3.896 20.698 0 21.185 3.897.487 2.68-23.376 2.68-23.376s19.237-9.253 26.786-8.523c0 0-11.932 20.211-8.036 19.724 3.897-.487 17.29-20.941 17.29-20.941s19.725-3.653 22.891 8.035c3.166 11.689-1.948 17.532-4.87 18.263-2.922.73-21.674.487-21.187 2.922.487 2.435 13.15 6.33 20.213 4.14 0 0-7.793 19.236-18.02 18.262-10.229-.974-13.395-7.305-19.726-7.792-6.332-.487-10.959 1.217-7.793 2.922 3.166 1.704 13.881.559 18.995 4.906 5.114 4.347 9.254 7.026-.244 8.973-9.497 1.948-26.543.731-29.953-6.574l-3.409-7.305z" mask="url(#prefix__b)"/>
        <path fill="#67B475" d="M138 186.615s-50.656 16.476-56.445 34.89c0 0 .241 8.239-4.824 17.688 0 0-7.812 11.916-3.359 26.422l2.01-.543s-1.757-14.392 1.56-22.726c.135-.307.331-.748.576-1.285.605-1.19 1.013-2.066 1.27-2.7 1.806-3.72 4.409-8.57 6.144-9.586 0 0-11.337-15.992 53.068-42.16" mask="url(#prefix__b)"/>
        <path fill="#FFA447" d="M81.5 297.615c19.606 0 35.5-16.118 35.5-36H46c0 19.882 15.894 36 35.5 36" mask="url(#prefix__b)"/>
        <path fill="#FFBA6F" d="M90 297.34c-1.447.182-2.923.275-4.42.275-19.65 0-35.58-16.119-35.58-36h8.84c0 18.368 13.595 33.522 31.16 35.724" mask="url(#prefix__b)"/>
        <path fill="#FFA447" d="M112.62 294.615H49.38c-2.42 0-4.381 1.79-4.381 4h72c0-2.21-1.961-4-4.38-4" mask="url(#prefix__b)"/>
        <path fill="#F56700" d="M117.455 261.615h-71.91c-.301 0-.545.223-.545.5 0 .276.244.5.545.5h71.91c.301 0 .545-.224.545-.5 0-.277-.244-.5-.545-.5" mask="url(#prefix__b)"/>
        <path fill="#FF9859" d="M392.451 72.921c-1.036-.16-4.159 2.791-4.159 2.791-6.668.788-16.418 2.599-19.927 3.29-2.489.49-9.179-1.843-15.715-4.521-7.773-3.186-15.327-6.862-15.327-6.862-4.313-.224-9.211 7.822-.464 12.937 1.335.781 6.352 2.114 12.13 3.33 7.97 1.68 17.385 3.137 20.59 2.625 3.723-.596 14.261-4.537 20.53-7.556l.016-.008.07-.033c.375-.18 1.91-.879 2.934-.817 1.174.071 3.79-2.126 3.87-2.713.08-.586-3.51-2.302-4.548-2.463" mask="url(#prefix__b)"/>
        <path fill="#0D458E" d="M384 171.872l-3.626.743s-16.592-18.8-19.152-26.71c-1.37-4.228-10.13-6.055-19.283-8.441-7.968-2.077-16.235-4.58-20.182-9.464-8.486-10.492 5.329-23.385 5.329-23.385s14.689 8.803 27.36 17.898c8.858 6.356 16.73 12.854 17.916 16.588 2.88 9.082 8.99 26.344 11.638 32.77" mask="url(#prefix__b)"/>
        <path fill="#0B3563" d="M379.657 178.592h2.038c.682-.115 1.187-.329 1.887-.428 1.063-.15 1.552.32 1.65.428l.019.023h8.657c.217-.336.008-1.114-.196-1.687-.138-.389-.439-.684-.81-.8-.919-.287-2.729-.542-4.386-2.163-.932-.91-4.503-3.346-4.503-3.346l-.019-.004c-.078.001-.452.125-2.075 1.606-.84.764-2.27-1.08-2.27-1.08s-.27.24-.47.688c-.161.353-.279.838-.186 1.435.13.842-.288 2.408-.62 3.467-.202.641-.372 1.096-.372 1.096s-.097.529 1.656.765" mask="url(#prefix__b)"/>
        <path fill="#003A72" d="M354 122.595l-12.703 15.02c-8.092-2.087-16.488-4.602-20.497-9.508-8.619-10.54 5.412-23.492 5.412-23.492s14.918 8.844 27.788 17.98" mask="url(#prefix__b)"/>
        <path fill="#0D458E" d="M343 115.294s-1.026 3.206-2.696 8.03c-2.112 6.1-5.257 14.784-8.67 22.838-.749 1.77-1.512 3.51-2.28 5.185-2.837 6.198-5.742 11.51-8.3 14.21-4.594 4.854-15.765 36.058-15.765 36.058l-2.784-.764s-3.88-26.645 9.867-41.807c.147-.161.262-.348.278-.566.002-.001.002-.003.002-.005.183-2.245.837-12.295 2.261-22.48.35-2.498.746-5.003 1.191-7.403l.086-.457c2.091-11.099 4.093-16.035 6.678-18.518l19.007 5.362 1.125.317z" mask="url(#prefix__b)"/>
        <path fill="#0B3563" d="M302.657 206.593h2.038c.683-.116 1.187-.33 1.887-.428 1.063-.151 1.552.32 1.65.428l.019.022h8.656c.219-.336.01-1.114-.196-1.687-.137-.389-.438-.684-.81-.8-.918-.287-2.728-.542-4.385-2.163-.933-.91-4.503-3.346-4.503-3.346l-.019-.004c-.078.001-.451.125-2.075 1.606-.84.764-2.27-1.08-2.27-1.08s-.27.24-.47.688c-.161.352-.279.837-.186 1.435.13.842-.287 2.408-.62 3.467-.202.641-.372 1.096-.372 1.096s-.097.529 1.656.766" mask="url(#prefix__b)"/>
        <path fill="#FFB37B" d="M306.61 78.842s-3.125 7.71-6.73 15.213c-3.032 6.31-6.401 12.472-8.537 13.788-3.012 1.855-11.31 7.086-16.692 10.988 0 0-4.2-.032-4.853.779-.653.81-2.159 4.452-1.719 4.82.44.37 3.78.198 4.59-.64.708-.731 2.284-1.257 2.675-1.38l.073-.022.016-.004c6.541-2.029 16.8-6.254 19.906-8.32 2.674-1.78 8.602-9.14 13.33-15.69l.002-.001c3.428-4.748 6.225-9.071 6.692-10.528 3.061-9.545-5.749-12.055-8.752-9.003" mask="url(#prefix__b)"/>
        <path fill="#203765" d="M323.108 48.482c-.377-.556-.757-1.048-1.136-1.49.47.011.978-.036 1.4-.213 1.112-.466 1.62-4.052 1.452-5.115-.167-1.064-1.712-4.14-3.618-4.446-1.906-.307-3.876 1.842-3.876 1.842.353-1.551 3.577-2.445 3.577-2.445-6.642 1.243-6.303 5.74-6.258 6.155-6.08-2.199-9.649 9.424-9.649 9.424l15.75 9.42s.04-2.567 1.544-2.401c2.343.258 4.293-5.583.814-10.73" mask="url(#prefix__b)"/>
        <path fill="#FFB37B" d="M324.364 73.022c-3.575 1.678-8.32-.738-8.294-.764.307-.305.199-1.22-.082-2.414-.28-1.246-.945-2.95-2.17-4.983-.256-.433-.511-.865-.818-1.323l.409-.152 6.945-2.771s1.124 2.008 2.299 3.839c.995 1.525 2.042 2.898 2.502 2.848.026-.026 4.622 3.127-.791 5.72" mask="url(#prefix__b)"/>
        <path fill="#FF9859" d="M320 60.615c-.191 2.598-1.094 7.285-4.676 9-.3-1.313-1.012-3.108-2.324-5.25l7-3.75z" mask="url(#prefix__b)"/>
        <path fill="#FFB37B" d="M312.8 67.565s9.153-3.662 6.819-9.413c-2.335-5.751-2.726-10.097-8.669-8.002-5.942 2.095-6.18 4.761-5.86 6.873.319 2.112 5.269 11.347 7.71 10.542" mask="url(#prefix__b)"/>
        <path fill="#203765" d="M316.48 56.458c4.273-.607 5.52-2.345 5.52-2.345s-3.936-1.136-6.248-5.015c0 0-4.804-1.63-8.363 1.095-.216.283-.372.617-.45 1.01-.816-.269-2.043-.2-2.75 2.12-1.064 3.486 2.72 7.292 2.72 7.292.916-.261-.118-3.367-.263-5.025-.106-1.22.548-2.781.901-3.522.453.591 4.961 6.292 10.465 6.52 0 0-2.907-1.015-5.554-3.001 1.316.65 2.716 1.056 4.021.87" mask="url(#prefix__b)"/>
        <path fill="#469FF1" d="M341.411 84.18c-.077-.275-.16-.56-.246-.854 1.348-2.616 2.01-4.975 2.29-6.97.616-4.219-.435-6.822-.435-6.822s-6.296-3.39-9.076-3.822c-.012-.005-.023-.01-.034-.01-.033-.006-.07-.009-.112-.011-2.806-.393-8.882.866-8.882.866s1.172 3.169-2.134 5.281c-3.306 2.112-6.838-.54-6.838-.54-.106.072-.22.152-.336.236 0 0-8.7 5.83-9.481 7.161-.781 1.333-4.127 7.929-4.127 7.929s1.06 5.538 12.813 6c.966 2.38 1.706 4.702 1.947 6.638.933 7.517-.15 13.447.937 17.834 1.088 4.388 20.697 1.886 24.248 1.042 3.55-.845 2.752-4.696 3.025-8.437.344-4.7-2.403-21.374-3.559-25.52" mask="url(#prefix__b)"/>
        <path fill="#0483D7" d="M343 76.388c-.287 2.069-.965 4.514-2.348 7.227-.313-1.424-1.591-6.636-3.652-9 0 0 3.47.323 6 1.773" mask="url(#prefix__b)"/>
        <path fill="#FF9859" d="M263.038 125.433s3.669-4.134 4.458-4.623c.79-.488 4.255-1.345 4.453-1.173.198.173.207.423-.222.775-.43.353-2.068 1.242-1.834 1.343.234.1 5.178-2.19 5.89-1.42.713.77-.403 3.948-2.308 5.472-1.906 1.523-7.592 2.173-7.95 2.386-3.033 1.803-2.487-2.76-2.487-2.76" mask="url(#prefix__b)"/>
        <path fill="#FFB37B" d="M198 115.35s5.429 6.235 12.343 3.627c0 0 1.487-3.483 1.508-6.05.002-.316.006-.622.011-.914.037-2.89.138-4.513.138-4.513h-.007c-.314-.128-10.569-4.204-10.56-3.865.176 7.819-3.433 11.715-3.433 11.715" mask="url(#prefix__b)"/>
        <path fill="#FF9859" d="M203.006 104.692c.933 1.886 4.132 5.575 8.864 6.923.035-3.072.13-4.796.13-4.796l-.007-.001c-.267-.079-9.264-2.682-8.987-2.126" mask="url(#prefix__b)"/>
        <path fill="#FFB37B" d="M214.276 107.128s-11.08 2.64-12.596-4.38-3.968-11.408 3.043-13.39c7.01-1.984 8.968.39 10.036 2.608 1.069 2.219 2.36 14.294-.483 15.162" mask="url(#prefix__b)"/>
        <path fill="#C3433A" d="M201.902 103.562c-.155.095-2.6.817-7.23-8.046-.727-1.392-1.222-4.401.472-7.06 1.694-2.66 7.702-4.751 12.693-5.661 4.992-.91 6.19 1.788 7.366 4.5 1.233 2.848 4.797 5.192 4.797 5.192-4.304 2.31-9.488-.994-11.284-.45-1.797.543-2.43 3.262-2.566 4.135-.134.871-.342 1.595-2.6.817-2.258-.779-1.02 3.075-.66 3.812 0 0 .308 1.963-.988 2.76" mask="url(#prefix__b)"/>
        <path fill="#203765" d="M172.792 278.615h-6.582c-1.38 0-2.913-1.445-3.297-4.09-.383-2.647-3.22-4.09-3.834-6.254-.613-2.165 2.532-5.214 2.532-5.214l.525-.706.547-.736 5.214 1.282s.128 1.298.209 2.952c.056 1.193.086 2.574.021 3.784-.153 2.887.773 5.996 3.226 6.558 2.454.561 1.439 2.424 1.439 2.424M221 278.615h-18.716c-.18-.035-.316-.073-.398-.114-1.25-.614-.858-5.309-.708-6.76.029-.268.05-.425.05-.425s6.58-5.166 7.487-1.21c.028.123.061.244.096.363v.002c1.143 3.701 6.25 5.382 9.2 5.85 2.254.36 2.839 1.649 2.989 2.294" mask="url(#prefix__b)"/>
        <path fill="#FF9941" d="M217 175.278s-.966 12.007-2.102 26.44c-1.544 19.605-3.4 43.687-3.584 48.25-.317 7.92-1.591 20.593-1.591 20.593s-3.021 3.01-9.067 1.741c0 0-5.388-18.089-6.927-37.228l-.071-.946c-1.431-19.484-3.658-60.513-3.658-60.513l27 1.663z" mask="url(#prefix__b)"/>
        <path fill="#FF872E" d="M217 175.266s-.966 11.917-2.102 26.241l-21.169 33.108-.071-.94c-1.431-19.338-3.658-60.06-3.658-60.06l27 1.65z" mask="url(#prefix__b)"/>
        <path fill="#FF9941" d="M212 176.464s-17.397 43.53-28.836 63.985c-11.44 20.457-15.014 26.166-15.014 26.166s-6.554-2.617-7.15-4.401c0 0 4.375-39.492 12.035-49.119 4.329-5.44 9.414-21.764 9.652-27.473.238-5.709 1.55-17.007 1.55-17.007l27.763 7.85z" mask="url(#prefix__b)"/>
        <path fill="#FF9859" d="M173 168.875s-.476 5.721-.824 6.6c-.349.878-2.67 3.602-2.94 3.563-.269-.04-.43-.254-.293-.808.136-.554.936-2.267.683-2.223-.254.045-2.912 4.868-3.97 4.597-1.06-.272-2.094-3.702-1.464-6.124.63-2.423 4.905-6.227 5.068-6.617 1.385-3.31 3.74 1.012 3.74 1.012" mask="url(#prefix__b)"/>
        <path fill="#003A72" d="M171.406 170.13c1.934.609 2.243.471 2.243.471s9.413-16.778 10.366-18.314C184.97 150.75 204 133.47 204 133.47l-4.89-17.856s-21.647 27.444-23.984 31.382C171.263 153.505 169 168.62 169 168.62s.887 1.034 2.406 1.512" mask="url(#prefix__b)"/>
        <path fill="#004D9A" d="M220.978 140.518c-.067 3.673-.282 7.801-.572 11.995l-.054.745c-.185 2.598-.387 5.202-.618 7.741-.092 1.018-.19 2.024-.293 3.013l-.016.133c-.008.37-.054.771-.095 1.138-.943 9.51-1.932 17.023-2.115 17.138-.22.145-.466.218-.737.186-2.514-.313-10.015.253-16.156-1.072-5.183-1.085-9.645-3.14-14.373-5.913-.628-.367-2.059-1.342-1.942-2.07.114-.801.325-1.958.594-3.413.931-5.058 2.54-13.76 3.088-23.943.107-1.898.263-3.77.464-5.613.527-4.798 1.371-9.356 2.504-13.404 2.106-7.521 5.2-13.28 9.082-15.534.508-.282 3.237 1.44 5.743 3.036 2.315 1.472 4.752 1.88 7.122 1.674l2.086 2.289c2.527 2.913 5.216 6.79 5.95 12.303.056.407.103.84.142 1.3.204 2.246.253 5.088.196 8.271" mask="url(#prefix__b)"/>
        <path fill="#003A72" d="M220.978 140.487c-.066 3.785-.278 8.039-.565 12.36l-.052.768c-14.177-9.188-16.361-26-16.361-26 6.974.316 12.515 1.977 16.785 4.35.201 2.314.25 5.243.193 8.522" mask="url(#prefix__b)"/>
        <path fill="#004D9A" d="M265.601 125.921c-.742-2.002-1.895-1.872-1.895-1.872s-21.396 5.32-23.316 5.549c-1.92.228-23.041-8.229-23.041-8.229s-8.313-3.722-12.207-.323c-3.384 2.953-3.538 6.695-2.746 9.837.943 3.745 4.119 6.511 7.957 6.999 8.617 1.095 25.809 3.156 29.412 2.656 8.02-1.114 26.19-11.58 26.19-11.58s.23-1.464-.354-3.037" mask="url(#prefix__b)"/>
        <path fill="#203765" d="M476.39 164.888s3.144 2.689 2.53 4.6c-.613 1.91-3.45 3.183-3.834 5.518-.383 2.335-1.917 3.609-3.297 3.609h-6.58s-1.016-1.643 1.437-2.139c2.454-.495 3.38-3.239 3.226-5.786-.153-2.547.23-5.943.23-5.943l5.214-1.132 1.074 1.273zM439.205 178.296c-.307.148-1.387.25-2.869.319H422c.048-.41.382-1.868 2.726-2.231 2.649-.413 7.237-1.89 8.26-5.141.034-.104.063-.212.088-.319.812-3.473 6.721 1.063 6.721 1.063s.018.138.043.375c.138 1.278.488 5.397-.633 5.934" mask="url(#prefix__b)"/>
        <path fill="#26468E" d="M426 83.127s.895 10.915 1.946 24.035c1.43 17.823 3.149 39.716 3.319 43.864.294 7.202 1.473 18.721 1.473 18.721s2.797 2.738 8.396 1.584c0 0 4.988-16.445 6.413-33.845l.066-.86C448.94 118.914 451 81.616 451 81.616l-25 1.512z" mask="url(#prefix__b)"/>
        <path fill="#203765" d="M426 83.13s.895 10.94 1.946 24.091l19.6 30.394.067-.862C448.94 119 451 81.615 451 81.615l-25 1.515z" mask="url(#prefix__b)"/>
        <path fill="#26468E" d="M430 84.744s16.032 39.531 26.575 58.108c10.542 18.578 13.836 23.763 13.836 23.763s6.04-2.377 6.589-3.997c0 0-4.031-35.865-11.091-44.607-3.99-4.94-8.675-19.766-8.895-24.951-.22-5.184-1.428-15.445-1.428-15.445L430 84.744z" mask="url(#prefix__b)"/>
        <path fill="#FFB37B" d="M380.912 63.542s-4.143-.975-4.84-.926c-.698.05-3.137 1.1-3.169 1.303-.032.203.083.368.504.398.422.029 1.81-.155 1.721.018-.088.173-4.083.981-4.127 1.809-.045.827 2.145 2.364 3.994 2.467 1.85.103 5.486-2.107 5.798-2.135 2.644-.238.119-2.934.119-2.934" mask="url(#prefix__b)"/>
        <path fill="#FF872E" d="M379.486 64.183c-.615-1.952-.471-2.263-.471-2.263s17.4-9.363 18.993-10.312c1.593-.95 19.574-19.993 19.574-19.993L436 36.66s-28.502 21.607-32.586 23.934c-6.75 3.844-22.381 6.02-22.381 6.02s-1.064-.899-1.547-2.431" mask="url(#prefix__b)"/>
        <path fill="#FFB37B" d="M423 22.016s-6.469 11.144-12.791 12.599c0 0 .263-3.743 1.803-6.305-.631-.728-1.184-1.396-1.664-1.995-1.591-1.997-2.348-3.22-2.348-3.22l2.146-5.648 1.456-3.832c.7 1.243 1.47 2.303 2.275 3.21 4.144 4.664 9.123 5.19 9.123 5.19" mask="url(#prefix__b)"/>
        <path fill="#FF9859" d="M413.946 17.616s.78 5.295-3.57 8.999c-1.61-1.894-2.376-3.053-2.376-3.053l2.17-5.356c2.328-.65 3.776-.59 3.776-.59" mask="url(#prefix__b)"/>
        <path fill="#FFB37B" d="M406.283 23.564s9.788-3.83 7.317-9.912c-2.47-6.081-2.87-10.671-9.224-8.483-6.353 2.188-6.617 5.003-6.285 7.234.333 2.231 5.582 12 8.192 11.16" mask="url(#prefix__b)"/>
        <path fill="#FF9941" d="M456.206 81.223c-3.946 5.663-33.44 13.23-33.09 9.31.134-1.5.314-4.146-.004-7.732-.074-.84-.178-1.73-.314-2.671-.749-5.15-2.53-11.773-6.499-19.439-.298-.575-.607-1.153-.929-1.74-1.634-2.967-3.027-6.105-4.09-9.173-2.043-5.896-2.866-11.538-1.835-15.226.004-.018.01-.034.016-.052 6.165-2.846 8.554-13.885 8.554-13.885s21.035 3.77 32.817 31.764c0 0 8.806 23.915 5.374 28.844" mask="url(#prefix__b)"/>
        <path fill="#FF872E" d="M422.529 82.615c-.07-.83-.17-1.709-.3-2.639-.719-5.087-2.425-11.63-6.229-19.202.653-4.075 1.555-7.464 2.545-8.989 4.02-6.201 6.362-7.17 6.362-7.17s6.03 26.167-2.378 38" mask="url(#prefix__b)"/>
        <path fill="#FFB37B" d="M389.834 75.615s-5.676.31-6.556.64c-.88.33-3.644 2.624-3.614 2.901.031.277.239.448.791.326.552-.123 2.272-.89 2.22-.631-.051.258-4.904 2.831-4.667 3.924.238 1.094 3.602 2.26 6.018 1.69 2.417-.57 6.309-4.832 6.7-4.988 3.317-1.316-.892-3.862-.892-3.862" mask="url(#prefix__b)"/>
        <path fill="#FF9941" d="M388.619 77.424c-1.167-1.853-.326-2.698-.326-2.698s17.993-13.845 19.403-15.244c1.41-1.398 7.943-23.67 7.943-23.67s2.249-9.014 7.514-10.008c4.576-.864 7.738 1.361 9.807 3.97 2.466 3.108 2.708 7.395.661 10.784-4.593 7.608-13.86 22.71-16.567 25.29-6.023 5.742-26.174 13.767-26.174 13.767s-1.344-.736-2.261-2.19" mask="url(#prefix__b)"/>
        <path fill="#0D458E" d="M414.664 2.832c.069-.131.268-.271.754-.416 0 0-.456-.148-.986-.035-.275-.65-.943-1.758-2.197-1.766 0 0 .72.181.985.879-1.718-1.056-4.902-1.362-12.85 1.204-10.476 3.382-5.242 9.277-3.655 9.75 1.588.472 4.51-2.561 7.14-2.975 2.628-.414 4.05 3.135 5.053 3.43 1.002.294.432-.513 1.482-1.322 1.049-.81 1.651 1.094 1.629 2.43-.023 1.337 2.023 2.604 2.023 2.604l1.2-2.134c1.2-2.134.874-9.88-.273-11.275l-.305-.374" mask="url(#prefix__b)"/>
        <path fill="#263252" d="M584.383 301.615H.617c-.34 0-.617-.267-.617-.592v-.817c0-.325.278-.591.617-.591h583.765c.34 0 .618.266.618.591v.817c0 .325-.278.592-.617.592" mask="url(#prefix__b)"/>
        <path fill="#1072C0" d="M251 278.615L251 290.615 223 278.615z" mask="url(#prefix__b)"/>
        <path fill="#2776CF" d="M397 298.615L489 298.615 489 178.615 397 178.615z" mask="url(#prefix__b)"/>
        <path fill="#469FF1" d="M368 298.615L460 298.615 460 178.615 368 178.615z" mask="url(#prefix__b)"/>
        <path fill="#1072C0" d="M488 178.615L488 196.615 460 178.615z" mask="url(#prefix__b)"/>
    </g>
</svg>
