<svg width="364" height="188" fill="none" xmlns="http://www.w3.org/2000/svg"><g clip-path="url(#a)"><path fill-rule="evenodd" clip-rule="evenodd" d="M18.007 187.76s-39.097-83.464 37.959-83.464c40.714 0 23.942-22.9 51.622-49.401 27.679-26.502 124.482-47.676 145.086 3.5 20.604 51.176-30.315 90.032 18.887 83.366 59.126-8.009 82.483 45.999 82.483 45.999H18.007Z" fill="#FFF5C2"/><path fill-rule="evenodd" clip-rule="evenodd" d="M334.883 176.589c-3.658-2.66-11.131-.864-16.649 1.058a25.033 25.033 0 0 0-3.032-3.502c11.885-7.621 28.298-23.871 19.598-25.247-7.562-1.196-17.768 13.432-23.222 22.336-5.664-3.792-14.343-6.58-27.594-5.614-34.39 2.51-61.255-19.571-81.058-12.206-15.745 5.855-30.175 9.136-44.091 8.015.599-10.12.729-29.988-7.254-32.05-8.105-2.092-.156 20.472 4.263 31.739a63.338 63.338 0 0 1-3.103-.473c-2.861-5.615-7.575-12.964-12.752-13.215-4.875-.237 1.142 6.37 7.063 11.967-17.018-3.556-37.206 10.214-37.541 26.496h212.464s-.376-2.377-2.043-5.511c8.211-.16 18.925-.902 14.952-3.792" fill="#95D39E"/><mask id="b" style="mask-type:luminance" maskUnits="userSpaceOnUse" x="0" y="0" width="364" height="188"><path d="M0 187.138h364V.383H0v186.755Z" fill="#fff"/></mask><g mask="url(#b)"><path fill-rule="evenodd" clip-rule="evenodd" d="M100.178 185.893h56v-12.451h-56v12.451Z" fill="#2776CF"/></g><mask id="c" style="mask-type:luminance" maskUnits="userSpaceOnUse" x="0" y="0" width="364" height="188"><path d="M0 187.138h364V.383H0v186.755Z" fill="#fff"/></mask><g mask="url(#c)"><path fill-rule="evenodd" clip-rule="evenodd" d="M82.756 185.893h56v-12.451h-56v12.451Z" fill="#469FF1"/></g><mask id="d" style="mask-type:luminance" maskUnits="userSpaceOnUse" x="0" y="0" width="364" height="188"><path d="M0 187.138h364V.383H0v186.755Z" fill="#E5A000"/></mask><g mask="url(#d)"><path fill-rule="evenodd" clip-rule="evenodd" d="M177.956 185.893h41.688v-58.517h-41.688v58.517Z" fill="#DDAA01"/></g><mask id="e" style="mask-type:luminance" maskUnits="userSpaceOnUse" x="0" y="0" width="364" height="188"><path d="M0 187.138h364V.383H0v186.755Z" fill="#FFBE2E"/></mask><g mask="url(#e)"><path fill-rule="evenodd" clip-rule="evenodd" d="M165.511 185.893H207.2v-58.517h-41.689v58.517Z" fill="#FACE00"/></g><g opacity=".4"><mask id="f" style="mask-type:luminance" maskUnits="userSpaceOnUse" x="0" y="0" width="364" height="188"><path d="M0 187.138h364V.383H0v186.755Z" fill="#C2850C"/></mask><g mask="url(#f)"><path fill-rule="evenodd" clip-rule="evenodd" d="m207.2 127.999 12.444 8.715v-8.715H207.2Z" fill="#B38C00"/></g></g><mask id="g" style="mask-type:luminance" maskUnits="userSpaceOnUse" x="0" y="0" width="364" height="188"><path d="M0 187.138h364V.383H0v186.755Z" fill="#fff"/></mask><g mask="url(#g)"><path fill-rule="evenodd" clip-rule="evenodd" d="M78.389 140.76s-7.82 5.81-9.344 5.457c-1.525-.352 5.714-6.271 5.714-6.271-2.724-1.308-11.192-.488-11.192-.488s-2.82 9.088-4.212 8.372c-1.39-.717 2.909-7.921 2.909-7.921-3.034-.182-6.756 2.069-6.756 2.069-5.094 4.02.335 10.348.335 10.348s-1.045 3.129-4.262 5.977c0 0-4.595 3.396-4.914 9.463l.834.074s1.322-5.65 3.724-8.323c.093-.096.23-.236.397-.404.391-.362.666-.635.85-.836 1.195-1.148 2.848-2.611 3.644-2.752 0 0-.04-.146-.035-.4l.035.4c.272 3.199 6.483 5.992 10.304 6.566 3.82.574 2.64-.994 1.323-3.321-1.316-2.327-5.482-3.368-6.433-4.439-.95-1.072 1.014-1.075 3.316-.024 2.303 1.05 2.618 3.851 6.311 5.619 3.693 1.766 9.25-4.357 9.25-4.357-2.943-.149-7.146-3.343-6.994-4.319.152-.978 7.134 1.685 8.328 1.813 1.194.128 3.91-1.355 4.33-6.159.42-4.804-7.462-6.144-7.462-6.144Z" fill="#67B475"/></g><mask id="h" style="mask-type:luminance" maskUnits="userSpaceOnUse" x="0" y="0" width="364" height="188"><path d="M0 187.138h364V.383H0v186.755Z" fill="#fff"/></mask><g mask="url(#h)"><path fill-rule="evenodd" clip-rule="evenodd" d="M37.259 144.713s8.631-4.826 4.603-11.376c0 0-3.222-4.021-6.674-5.056 0 0 1.841 9.768 0 9.998-1.842.229-1.266-11.032-1.266-11.032s-9.092-4.367-12.66-4.021c0 0 5.64 9.537 3.799 9.307-1.842-.23-8.171-9.882-8.171-9.882s-9.322-1.724-10.818 3.792c-1.496 5.516.921 8.273 2.302 8.618 1.38.345 10.242.23 10.011 1.379-.23 1.149-6.214 2.988-9.55 1.954 0 0 3.682 9.077 8.515 8.618 4.833-.46 6.33-3.448 9.322-3.678 2.992-.229 5.178.575 3.683 1.379-1.497.805-6.56.264-8.977 2.316-2.417 2.051-4.373 3.315.115 4.234 4.489.92 12.544.345 14.155-3.102l1.61-3.448Z" fill="#95D39E"/></g><mask id="i" style="mask-type:luminance" maskUnits="userSpaceOnUse" x="0" y="0" width="364" height="188"><path d="M0 187.138h364V.383H0v186.755Z" fill="#fff"/></mask><g mask="url(#i)"><path fill-rule="evenodd" clip-rule="evenodd" d="M39.459 152.858c-2.388-4.468-2.274-8.363-2.274-8.363-2.729-8.707-26.607-16.497-26.607-16.497 30.36 12.373 25.015 19.933 25.015 19.933.818.481 2.045 2.774 2.896 4.533.121.299.313.714.598 1.276.116.254.209.462.272.608 1.564 3.94.736 10.745.736 10.745l.947.257c2.1-6.859-1.583-12.492-1.583-12.492Z" fill="#67B475"/></g><mask id="j" style="mask-type:luminance" maskUnits="userSpaceOnUse" x="0" y="0" width="364" height="188"><path d="M0 187.138h364V.383H0v186.755Z" fill="#fff"/></mask><g mask="url(#j)"><path fill-rule="evenodd" clip-rule="evenodd" d="M50.404 137.518s-11.364-6.366-6.06-15.007c0 0 4.242-5.305 8.788-6.669 0 0-2.425 12.884 0 13.188 2.424.303 1.667-14.552 1.667-14.552s11.97-5.761 16.667-5.306c0 0-7.424 12.582-5 12.278 2.425-.303 10.758-13.036 10.758-13.036s12.273-2.274 14.243 5.002c1.97 7.277-1.212 10.914-3.03 11.369-1.818.455-13.486.303-13.183 1.819.303 1.516 8.182 3.941 12.577 2.577 0 0-4.849 11.975-11.212 11.369-6.365-.606-8.335-4.548-12.274-4.851-3.94-.303-6.82.758-4.85 1.819 1.97 1.061 8.638.348 11.82 3.054 3.182 2.706 5.758 4.374-.152 5.586-5.91 1.213-16.516.455-18.637-4.092l-2.122-4.548Z" fill="#95D39E"/></g><mask id="k" style="mask-type:luminance" maskUnits="userSpaceOnUse" x="0" y="0" width="364" height="188"><path d="M0 187.138h364V.383H0v186.755Z" fill="#fff"/></mask><g mask="url(#k)"><path fill-rule="evenodd" clip-rule="evenodd" d="M85.867 116.171s-31.52 10.256-35.122 21.72c0 0 .15 5.128-3.001 11.011 0 0-4.861 7.417-2.09 16.448l1.25-.338s-1.093-8.96.971-14.148c.084-.191.206-.465.358-.8.377-.74.63-1.286.79-1.68 1.124-2.316 2.744-5.335 3.824-5.968 0 0-7.055-9.955 33.02-26.245Z" fill="#67B475"/></g><mask id="l" style="mask-type:luminance" maskUnits="userSpaceOnUse" x="0" y="0" width="364" height="188"><path d="M0 187.138h364V.383H0v186.755Z" fill="#FFBE2E"/></mask><g mask="url(#l)"><path fill-rule="evenodd" clip-rule="evenodd" d="M50.711 185.27c12.2 0 22.089-10.034 22.089-22.41H28.622c0 12.376 9.89 22.41 22.09 22.41Z" fill="#DDAA01"/></g><mask id="m" style="mask-type:luminance" maskUnits="userSpaceOnUse" x="0" y="0" width="364" height="188"><path d="M0 187.138h364V.383H0v186.755Z" fill="#FFE396"/></mask><g mask="url(#m)"><path fill-rule="evenodd" clip-rule="evenodd" d="M56 185.099c-.9.113-1.819.171-2.75.171-12.227 0-22.139-10.034-22.139-22.41h5.5c0 11.434 8.46 20.868 19.389 22.238" fill="#FEE685"/></g><mask id="n" style="mask-type:luminance" maskUnits="userSpaceOnUse" x="0" y="0" width="364" height="188"><path d="M0 187.138h364V.383H0v186.755Z" fill="#fff"/></mask><g mask="url(#n)"><path fill-rule="evenodd" clip-rule="evenodd" d="M70.075 183.403h-39.35c-1.505 0-2.726 1.114-2.726 2.49h44.8c0-1.376-1.22-2.49-2.724-2.49Z" fill="#B38C00"/></g><mask id="o" style="mask-type:luminance" maskUnits="userSpaceOnUse" x="0" y="0" width="364" height="188"><path d="M0 187.138h364V.383H0v186.755Z" fill="#fff"/></mask><g mask="url(#o)"><path fill-rule="evenodd" clip-rule="evenodd" d="M73.083 162.86H28.34c-.187 0-.339.138-.339.311 0 .172.152.311.34.311h44.743c.187 0 .34-.139.34-.311 0-.173-.153-.311-.34-.311Z" fill="#B38C00"/></g><mask id="p" style="mask-type:luminance" maskUnits="userSpaceOnUse" x="0" y="0" width="364" height="188"><path d="M0 187.138h364V.383H0v186.755Z" fill="#fff"/></mask><g mask="url(#p)"><path fill-rule="evenodd" clip-rule="evenodd" d="M244.192 45.395c-.645-.1-2.588 1.737-2.588 1.737-4.149.49-10.216 1.618-12.399 2.048-1.549.305-5.712-1.147-9.778-2.814-4.837-1.984-9.537-4.272-9.537-4.272-2.684-.14-5.731 4.87-.289 8.053.831.487 3.953 1.316 7.548 2.073 4.959 1.046 10.817 1.953 12.811 1.635 2.317-.371 8.874-2.825 12.774-4.704l.01-.005.044-.02c.233-.113 1.188-.548 1.826-.51.73.045 2.358-1.323 2.408-1.688.049-.365-2.184-1.433-2.83-1.533Z" fill="#FF9859"/></g><mask id="q" style="mask-type:luminance" maskUnits="userSpaceOnUse" x="0" y="0" width="364" height="188"><path d="M0 187.138h364V.383H0v186.755Z" fill="#fff"/></mask><g mask="url(#q)"><path fill-rule="evenodd" clip-rule="evenodd" d="m238.933 106.993-2.256.463s-10.324-11.704-11.917-16.628c-.852-2.632-6.303-3.77-11.998-5.254-4.958-1.293-10.102-2.852-12.558-5.892-5.28-6.531 3.316-14.558 3.316-14.558s9.14 5.48 17.024 11.142c5.512 3.957 10.41 8.002 11.148 10.327 1.792 5.653 5.594 16.4 7.241 20.4Z" fill="#0D458E"/></g><mask id="r" style="mask-type:luminance" maskUnits="userSpaceOnUse" x="0" y="0" width="364" height="188"><path d="M0 187.138h364V.383H0v186.755Z" fill="#fff"/></mask><g mask="url(#r)"><path fill-rule="evenodd" clip-rule="evenodd" d="M236.231 111.176h1.268c.424-.071.739-.204 1.174-.266.662-.093.966.199 1.027.266l.012.015h5.386c.135-.209.005-.694-.122-1.05a.79.79 0 0 0-.504-.498c-.572-.179-1.698-.338-2.729-1.347-.58-.566-2.802-2.083-2.802-2.083l-.011-.002c-.049 0-.282.077-1.292.999-.522.476-1.412-.672-1.412-.672s-.168.149-.292.428c-.101.22-.174.522-.116.894.081.524-.179 1.499-.386 2.158-.126.399-.231.682-.231.682s-.061.33 1.03.476Z" fill="#0B3563"/></g><mask id="s" style="mask-type:luminance" maskUnits="userSpaceOnUse" x="0" y="0" width="364" height="188"><path d="M0 187.138h364V.383H0v186.755Z" fill="#fff"/></mask><g mask="url(#s)"><path fill-rule="evenodd" clip-rule="evenodd" d="m220.267 76.317-7.904 9.35c-5.035-1.299-10.26-2.864-12.754-5.918-5.363-6.562 3.367-14.624 3.367-14.624s9.283 5.505 17.291 11.192Z" fill="#003A72"/></g><mask id="t" style="mask-type:luminance" maskUnits="userSpaceOnUse" x="0" y="0" width="364" height="188"><path d="M0 187.138h364V.383H0v186.755Z" fill="#fff"/></mask><g mask="url(#t)"><path fill-rule="evenodd" clip-rule="evenodd" d="M213.422 71.772s-.638 1.996-1.677 5c-1.314 3.797-3.271 9.203-5.395 14.216a119.042 119.042 0 0 1-1.419 3.228c-1.765 3.858-3.572 7.165-5.164 8.846-2.859 3.022-9.809 22.447-9.809 22.447l-1.733-.476s-2.414-16.587 6.14-26.026a.598.598 0 0 0 .173-.352l.001-.003c.114-1.398.521-7.654 1.407-13.994.218-1.555.464-3.115.741-4.609l.053-.284c1.301-6.91 2.547-9.982 4.156-11.528l11.826 3.338.7.197Z" fill="#0D458E"/></g><mask id="u" style="mask-type:luminance" maskUnits="userSpaceOnUse" x="0" y="0" width="364" height="188"><path d="M0 187.138h364V.383H0v186.755Z" fill="#fff"/></mask><g mask="url(#u)"><path fill-rule="evenodd" clip-rule="evenodd" d="M188.32 128.608h1.268c.425-.073.739-.206 1.174-.267.662-.094.966.199 1.027.267l.012.013h5.386c.136-.209.006-.693-.122-1.05a.793.793 0 0 0-.504-.498c-.572-.179-1.698-.337-2.729-1.346-.58-.567-2.802-2.083-2.802-2.083l-.012-.003c-.048.001-.28.078-1.291 1-.522.475-1.412-.672-1.412-.672s-.168.149-.293.428c-.1.219-.173.521-.115.893.081.524-.179 1.499-.386 2.158-.126.399-.232.683-.232.683s-.06.329 1.031.477Z" fill="#0B3563"/></g><mask id="v" style="mask-type:luminance" maskUnits="userSpaceOnUse" x="0" y="0" width="364" height="188"><path d="M0 187.138h364V.383H0v186.755Z" fill="#fff"/></mask><g mask="url(#v)"><path fill-rule="evenodd" clip-rule="evenodd" d="M190.78 49.08s-1.945 4.8-4.188 9.47c-1.887 3.929-3.983 7.765-5.312 8.584-1.874 1.155-7.037 4.411-10.386 6.84 0 0-2.613-.02-3.02.485-.406.504-1.343 2.772-1.069 3 .273.231 2.352.124 2.856-.398.44-.455 1.421-.782 1.664-.859l.046-.013.01-.003c4.069-1.263 10.453-3.893 12.385-5.18 1.664-1.107 5.353-5.69 8.295-9.767h.001c2.133-2.956 3.873-5.647 4.164-6.554 1.904-5.942-3.577-7.505-5.446-5.605" fill="#FFB37B"/></g><mask id="w" style="mask-type:luminance" maskUnits="userSpaceOnUse" x="0" y="0" width="364" height="188"><path d="M0 187.138h364V.383H0v186.755Z" fill="#fff"/></mask><g mask="url(#w)"><path fill-rule="evenodd" clip-rule="evenodd" d="M201.045 30.18a10.337 10.337 0 0 0-.707-.927c.293.007.609-.022.871-.132.692-.29 1.008-2.523.904-3.184-.104-.663-1.066-2.578-2.252-2.768-1.185-.191-2.411 1.146-2.411 1.146.219-.965 2.225-1.522 2.225-1.522-4.132.774-3.921 3.574-3.893 3.832-3.784-1.369-6.004 5.867-6.004 5.867l9.8 5.864s.025-1.598.96-1.495c1.458.16 2.672-3.475.507-6.68" fill="#203765"/></g><mask id="x" style="mask-type:luminance" maskUnits="userSpaceOnUse" x="0" y="0" width="364" height="188"><path d="M0 187.138h364V.383H0v186.755Z" fill="#fff"/></mask><g mask="url(#x)"><path fill-rule="evenodd" clip-rule="evenodd" d="M201.826 45.457c-2.224 1.045-5.176-.46-5.16-.475.191-.19.124-.76-.051-1.503-.174-.776-.588-1.836-1.35-3.102-.16-.27-.318-.538-.509-.824l.254-.094 4.321-1.725s.7 1.25 1.431 2.39c.619.949 1.27 1.804 1.557 1.773.016-.017 2.876 1.946-.493 3.56Z" fill="#FFB37B"/></g><mask id="y" style="mask-type:luminance" maskUnits="userSpaceOnUse" x="0" y="0" width="364" height="188"><path d="M0 187.138h364V.383H0v186.755Z" fill="#fff"/></mask><g mask="url(#y)"><path fill-rule="evenodd" clip-rule="evenodd" d="M199.111 37.734c-.119 1.617-.681 4.535-2.909 5.602-.187-.817-.63-1.934-1.446-3.268l4.355-2.334Z" fill="#FF9859"/></g><mask id="z" style="mask-type:luminance" maskUnits="userSpaceOnUse" x="0" y="0" width="364" height="188"><path d="M0 187.138h364V.383H0v186.755Z" fill="#fff"/></mask><g mask="url(#z)"><path fill-rule="evenodd" clip-rule="evenodd" d="M194.631 42.06s5.695-2.28 4.243-5.86c-1.453-3.58-1.696-6.285-5.394-4.98-3.697 1.303-3.845 2.963-3.646 4.278.198 1.315 3.278 7.063 4.797 6.562Z" fill="#FFB37B"/></g><mask id="A" style="mask-type:luminance" maskUnits="userSpaceOnUse" x="0" y="0" width="364" height="188"><path d="M0 187.138h364V.383H0v186.755Z" fill="#fff"/></mask><g mask="url(#A)"><path fill-rule="evenodd" clip-rule="evenodd" d="M196.921 35.146c2.659-.378 3.435-1.46 3.435-1.46s-2.45-.707-3.888-3.122c0 0-2.989-1.014-5.204.682a1.515 1.515 0 0 0-.28.629c-.507-.168-1.271-.125-1.711 1.32-.662 2.17 1.693 4.539 1.693 4.539.57-.163-.074-2.096-.164-3.128-.066-.76.341-1.732.561-2.193.281.368 3.086 3.917 6.511 4.059 0 0-1.809-.632-3.456-1.868.819.404 1.69.657 2.502.541" fill="#203765"/></g><mask id="B" style="mask-type:luminance" maskUnits="userSpaceOnUse" x="0" y="0" width="364" height="188"><path d="M0 187.138h364V.383H0v186.755Z" fill="#fff"/></mask><g mask="url(#B)"><path fill-rule="evenodd" clip-rule="evenodd" d="M212.434 52.403c-.048-.17-.1-.348-.154-.531.839-1.629 1.251-3.097 1.425-4.34.384-2.626-.27-4.246-.27-4.246s-3.918-2.11-5.648-2.38a.52.52 0 0 0-.09-.013c-1.746-.244-5.527.54-5.527.54s.729 1.973-1.328 3.287c-2.057 1.315-4.255-.336-4.255-.336-.066.045-.136.095-.209.147 0 0-5.413 3.63-5.899 4.458-.486.83-2.568 4.936-2.568 4.936s.66 3.447 7.973 3.735c.601 1.482 1.061 2.927 1.211 4.132.581 4.68-.093 8.371.583 11.102.677 2.732 12.878 1.174 15.088.649 2.209-.526 1.712-2.924 1.882-5.252.214-2.926-1.495-13.307-2.214-15.888Z" fill="#469FF1"/></g><mask id="C" style="mask-type:luminance" maskUnits="userSpaceOnUse" x="0" y="0" width="364" height="188"><path d="M0 187.138h364V.383H0v186.755Z" fill="#fff"/></mask><g mask="url(#C)"><path fill-rule="evenodd" clip-rule="evenodd" d="M213.422 47.553c-.178 1.288-.6 2.81-1.461 4.499-.194-.887-.99-4.131-2.272-5.603 0 0 2.159.201 3.733 1.104Z" fill="#0483D7"/></g><mask id="D" style="mask-type:luminance" maskUnits="userSpaceOnUse" x="0" y="0" width="364" height="188"><path d="M0 187.138h364V.383H0v186.755Z" fill="#fff"/></mask><g mask="url(#D)"><path fill-rule="evenodd" clip-rule="evenodd" d="M163.668 78.084s2.283-2.573 2.774-2.878c.492-.304 2.648-.837 2.771-.73.123.108.129.263-.138.482-.268.22-1.287.774-1.142.837.146.062 3.222-1.364 3.665-.885.444.48-.25 2.458-1.436 3.407-1.186.948-4.724 1.353-4.946 1.485-1.888 1.123-1.548-1.718-1.548-1.718Z" fill="#FF9859"/></g><mask id="E" style="mask-type:luminance" maskUnits="userSpaceOnUse" x="0" y="0" width="364" height="188"><path d="M0 187.138h364V.383H0v186.755Z" fill="#fff"/></mask><g mask="url(#E)"><path fill-rule="evenodd" clip-rule="evenodd" d="M123.2 71.807s3.378 3.882 7.68 2.258c0 0 .925-2.168.938-3.766l.007-.57c.023-1.798.086-2.808.086-2.808h-.004c-.196-.08-6.576-2.618-6.571-2.407.11 4.868-2.136 7.293-2.136 7.293Z" fill="#FFB37B"/></g><mask id="F" style="mask-type:luminance" maskUnits="userSpaceOnUse" x="0" y="0" width="364" height="188"><path d="M0 187.138h364V.383H0v186.755Z" fill="#fff"/></mask><g mask="url(#F)"><path fill-rule="evenodd" clip-rule="evenodd" d="M126.315 65.172c.58 1.175 2.571 3.471 5.515 4.31.022-1.912.081-2.985.081-2.985l-.004-.001c-.166-.05-5.765-1.67-5.592-1.323Z" fill="#FF9859"/></g><mask id="G" style="mask-type:luminance" maskUnits="userSpaceOnUse" x="0" y="0" width="364" height="188"><path d="M0 187.138h364V.383H0v186.755Z" fill="#fff"/></mask><g mask="url(#G)"><path fill-rule="evenodd" clip-rule="evenodd" d="M133.327 66.689s-6.894 1.643-7.837-2.727c-.943-4.37-2.469-7.101 1.893-8.335 4.362-1.235 5.58.243 6.245 1.623.665 1.382 1.468 8.899-.301 9.439Z" fill="#FFB37B"/></g><mask id="H" style="mask-type:luminance" maskUnits="userSpaceOnUse" x="0" y="0" width="364" height="188"><path d="M0 187.138h364V.383H0v186.755Z" fill="#fff"/></mask><g mask="url(#H)"><path fill-rule="evenodd" clip-rule="evenodd" d="M125.628 64.469c-.097.06-1.618.509-4.499-5.009-.452-.866-.76-2.74.294-4.395 1.054-1.656 4.792-2.957 7.898-3.524 3.106-.566 3.851 1.113 4.583 2.802.767 1.772 2.985 3.232 2.985 3.232-2.678 1.438-5.904-.62-7.021-.28-1.118.337-1.512 2.03-1.597 2.574-.083.542-.213.992-1.618.508-1.405-.485-.634 1.914-.41 2.373 0 0 .191 1.223-.615 1.719Z" fill="#B38C00"/></g><mask id="I" style="mask-type:luminance" maskUnits="userSpaceOnUse" x="0" y="0" width="364" height="188"><path d="M0 187.138h364V.383H0v186.755Z" fill="#fff"/></mask><g mask="url(#I)"><path fill-rule="evenodd" clip-rule="evenodd" d="M107.515 173.442h-4.095c-.859 0-1.813-.899-2.052-2.546-.238-1.647-2.003-2.546-2.385-3.893-.382-1.348 1.575-3.246 1.575-3.246l.327-.439.34-.458 3.244.798s.08.808.13 1.837c.035.743.054 1.603.013 2.356-.095 1.797.481 3.733 2.008 4.082 1.527.35.895 1.509.895 1.509Zm29.996 0h-11.645a1.003 1.003 0 0 1-.248-.071c-.778-.382-.534-3.305-.441-4.208.018-.167.032-.264.032-.264s4.094-3.216 4.658-.754c.018.077.038.152.06.226v.002c.711 2.304 3.889 3.35 5.724 3.641 1.403.224 1.767 1.027 1.86 1.428Z" fill="#203765"/></g><mask id="J" style="mask-type:luminance" maskUnits="userSpaceOnUse" x="0" y="0" width="364" height="188"><path d="M0 187.138h364V.383H0v186.755Z" fill="#FFBE2E"/></mask><g mask="url(#J)"><path fill-rule="evenodd" clip-rule="evenodd" d="M135.022 109.113s-.601 7.475-1.308 16.46c-.96 12.204-2.115 27.196-2.23 30.036-.197 4.931-.99 12.82-.99 12.82s-1.879 1.873-5.641 1.083c0 0-3.353-11.26-4.311-23.175l-.044-.588c-.89-12.13-2.276-37.671-2.276-37.671l16.8 1.035Z" fill="#FACE00"/></g><mask id="K" style="mask-type:luminance" maskUnits="userSpaceOnUse" x="0" y="0" width="364" height="188"><path d="M0 187.138h364V.383H0v186.755Z" fill="#E5A000"/></mask><g mask="url(#K)"><path fill-rule="evenodd" clip-rule="evenodd" d="M135.022 109.106s-.601 7.418-1.308 16.335l-13.172 20.611-.044-.585c-.89-12.039-2.276-37.389-2.276-37.389l16.8 1.027v.001Z" fill="#DDAA01"/></g><mask id="L" style="mask-type:luminance" maskUnits="userSpaceOnUse" x="0" y="0" width="364" height="188"><path d="M0 187.138h364V.383H0v186.755Z" fill="#FFBE2E"/></mask><g mask="url(#L)"><path fill-rule="evenodd" clip-rule="evenodd" d="M131.911 109.852s-10.825 27.098-17.942 39.831c-7.118 12.735-9.342 16.289-9.342 16.289s-4.078-1.629-4.449-2.74c0 0 2.722-24.584 7.488-30.577 2.694-3.386 5.858-13.548 6.006-17.102.148-3.554.964-10.587.964-10.587l17.275 4.886Z" fill="#FACE00"/></g><mask id="M" style="mask-type:luminance" maskUnits="userSpaceOnUse" x="0" y="0" width="364" height="188"><path d="M0 187.138h364V.383H0v186.755Z" fill="#fff"/></mask><g mask="url(#M)"><path fill-rule="evenodd" clip-rule="evenodd" d="M107.644 105.127s-.296 3.562-.512 4.109c-.217.547-1.662 2.242-1.83 2.218-.167-.025-.267-.158-.182-.503.085-.345.582-1.411.425-1.384-.158.028-1.812 3.031-2.47 2.862-.66-.169-1.303-2.305-.911-3.812.392-1.509 3.052-3.877 3.153-4.12.862-2.06 2.327.63 2.327.63Z" fill="#FF9859"/></g><mask id="N" style="mask-type:luminance" maskUnits="userSpaceOnUse" x="0" y="0" width="364" height="188"><path d="M0 187.138h364V.383H0v186.755Z" fill="#fff"/></mask><g mask="url(#N)"><path fill-rule="evenodd" clip-rule="evenodd" d="M106.653 105.909c1.203.379 1.395.293 1.395.293s5.857-10.445 6.45-11.4c.594-.958 12.435-11.715 12.435-11.715l-3.042-11.115s-13.47 17.084-14.924 19.535c-2.403 4.052-3.811 13.462-3.811 13.462s.551.643 1.497.941" fill="#003A72"/></g><mask id="O" style="mask-type:luminance" maskUnits="userSpaceOnUse" x="0" y="0" width="364" height="188"><path d="M0 187.138h364V.383H0v186.755Z" fill="#fff"/></mask><g mask="url(#O)"><path fill-rule="evenodd" clip-rule="evenodd" d="M137.497 87.475c-.041 2.286-.175 4.856-.356 7.467l-.033.464a245.091 245.091 0 0 1-.385 4.819 137.39 137.39 0 0 1-.182 1.875l-.01.083c-.005.23-.034.48-.059.708-.587 5.921-1.202 10.597-1.316 10.669a.674.674 0 0 1-.459.116c-1.564-.195-6.231.157-10.052-.667-3.225-.676-6.002-1.955-8.943-3.681-.391-.229-1.282-.836-1.209-1.289a58.97 58.97 0 0 1 .37-2.125c.579-3.148 1.58-8.566 1.921-14.905.067-1.181.164-2.347.289-3.494.328-2.987.853-5.824 1.558-8.344 1.31-4.682 3.236-8.267 5.651-9.67.316-.176 2.014.896 3.573 1.89 1.441.916 2.957 1.17 4.432 1.042l1.298 1.425c1.572 1.813 3.245 4.227 3.702 7.659.035.253.064.523.088.809.127 1.398.158 3.167.122 5.149Z" fill="#004D9A"/></g><mask id="P" style="mask-type:luminance" maskUnits="userSpaceOnUse" x="0" y="0" width="364" height="188"><path d="M0 187.138h364V.383H0v186.755Z" fill="#fff"/></mask><g mask="url(#P)"><path fill-rule="evenodd" clip-rule="evenodd" d="M137.497 87.455c-.041 2.357-.173 5.005-.351 7.695l-.032.478c-8.822-5.72-10.181-16.186-10.181-16.186 4.34.197 7.787 1.231 10.444 2.708.125 1.44.156 3.264.12 5.305Z" fill="#003A72"/></g><mask id="Q" style="mask-type:luminance" maskUnits="userSpaceOnUse" x="0" y="0" width="364" height="188"><path d="M0 187.138h364V.383H0v186.755Z" fill="#fff"/></mask><g mask="url(#Q)"><path fill-rule="evenodd" clip-rule="evenodd" d="M165.263 78.388c-.462-1.246-1.179-1.166-1.179-1.166s-13.313 3.312-14.508 3.455c-1.195.142-14.337-5.123-14.337-5.123s-5.172-2.317-7.595-.2c-2.106 1.837-2.202 4.167-1.709 6.123.587 2.331 2.563 4.053 4.951 4.357 5.362.681 16.059 1.965 18.301 1.653 4.99-.693 16.296-7.209 16.296-7.209s.143-.91-.22-1.89Z" fill="#004D9A"/></g><mask id="R" style="mask-type:luminance" maskUnits="userSpaceOnUse" x="0" y="0" width="364" height="188"><path d="M0 187.138h364V.383H0v186.755Z" fill="#fff"/></mask><g mask="url(#R)"><path fill-rule="evenodd" clip-rule="evenodd" d="M296.42 102.645s1.957 1.674 1.575 2.864c-.382 1.189-2.147 1.982-2.386 3.435-.238 1.454-1.193 2.247-2.051 2.247h-4.095s-.632-1.023.894-1.332c1.527-.308 2.104-2.016 2.008-3.602-.095-1.585.143-3.699.143-3.699l3.244-.705.668.792Zm-23.137 8.347c-.191.092-.863.156-1.785.199h-8.92c.03-.255.237-1.163 1.696-1.389 1.648-.257 4.503-1.177 5.139-3.2.022-.065.04-.132.055-.199.505-2.162 4.182.662 4.182.662s.011.086.027.233c.086.796.304 3.36-.394 3.694Z" fill="#203765"/></g><mask id="S" style="mask-type:luminance" maskUnits="userSpaceOnUse" x="0" y="0" width="364" height="188"><path d="M0 187.138h364V.383H0v186.755Z" fill="#fff"/></mask><g mask="url(#S)"><path fill-rule="evenodd" clip-rule="evenodd" d="M265.067 51.748s.557 6.795 1.211 14.962c.889 11.095 1.959 24.724 2.065 27.306.183 4.483.916 11.654.916 11.654s1.741 1.705 5.224.986c0 0 3.104-10.237 3.991-21.069l.041-.535c.825-11.026 2.107-34.245 2.107-34.245l-15.555.94Z" fill="#26468E"/></g><mask id="T" style="mask-type:luminance" maskUnits="userSpaceOnUse" x="0" y="0" width="364" height="188"><path d="M0 187.138h364V.383H0v186.755Z" fill="#fff"/></mask><g mask="url(#T)"><path fill-rule="evenodd" clip-rule="evenodd" d="M265.067 51.75s.557 6.81 1.211 14.997l12.195 18.92.042-.536c.825-11.052 2.107-34.324 2.107-34.324l-15.555.943Z" fill="#203765"/></g><mask id="U" style="mask-type:luminance" maskUnits="userSpaceOnUse" x="0" y="0" width="364" height="188"><path d="M0 187.138h364V.383H0v186.755Z" fill="#fff"/></mask><g mask="url(#U)"><path fill-rule="evenodd" clip-rule="evenodd" d="M267.556 52.755s9.975 24.608 16.535 36.173c6.56 11.565 8.609 14.793 8.609 14.793s3.758-1.48 4.1-2.489c0 0-2.508-22.326-6.901-27.768-2.483-3.076-5.398-12.305-5.535-15.533-.137-3.227-.888-9.614-.888-9.614l-15.92 4.438Z" fill="#26468E"/></g><mask id="V" style="mask-type:luminance" maskUnits="userSpaceOnUse" x="0" y="0" width="364" height="188"><path d="M0 187.138h364V.383H0v186.755Z" fill="#fff"/></mask><g mask="url(#V)"><path fill-rule="evenodd" clip-rule="evenodd" d="M237.012 39.556s-2.578-.607-3.012-.576c-.434.03-1.952.684-1.971.81-.02.127.051.23.313.248.263.018 1.126-.096 1.071.012-.055.107-2.541.61-2.568 1.126-.028.514 1.335 1.471 2.485 1.535 1.151.065 3.414-1.311 3.608-1.329 1.645-.148.074-1.826.074-1.826Z" fill="#FFB37B"/></g><mask id="W" style="mask-type:luminance" maskUnits="userSpaceOnUse" x="0" y="0" width="364" height="188"><path d="M0 187.138h364V.383H0v186.755Z" fill="#E5A000"/></mask><g mask="url(#W)"><path fill-rule="evenodd" clip-rule="evenodd" d="M236.125 39.955c-.383-1.215-.293-1.409-.293-1.409s10.826-5.828 11.817-6.42c.992-.59 12.18-12.445 12.18-12.445l11.46 3.14s-17.735 13.451-20.276 14.9c-4.2 2.393-13.926 3.747-13.926 3.747s-.662-.56-.962-1.513Z" fill="#DDAA01"/></g><mask id="X" style="mask-type:luminance" maskUnits="userSpaceOnUse" x="0" y="0" width="364" height="188"><path d="M0 187.138h364V.383H0v186.755Z" fill="#fff"/></mask><g mask="url(#X)"><path fill-rule="evenodd" clip-rule="evenodd" d="M263.2 13.705s-4.025 6.938-7.959 7.843c0 0 .164-2.33 1.122-3.925a40.263 40.263 0 0 1-1.035-1.242c-.99-1.243-1.461-2.004-1.461-2.004l1.335-3.516.906-2.385c.435.773.915 1.433 1.416 1.998 2.578 2.903 5.676 3.23 5.676 3.23" fill="#FFB37B"/></g><mask id="Y" style="mask-type:luminance" maskUnits="userSpaceOnUse" x="0" y="0" width="364" height="188"><path d="M0 187.138h364V.383H0v186.755Z" fill="#fff"/></mask><g mask="url(#Y)"><path fill-rule="evenodd" clip-rule="evenodd" d="M257.566 10.966s.486 3.296-2.221 5.602c-1.002-1.179-1.478-1.9-1.478-1.9l1.35-3.334c1.448-.405 2.349-.368 2.349-.368Z" fill="#FF9859"/></g><mask id="Z" style="mask-type:luminance" maskUnits="userSpaceOnUse" x="0" y="0" width="364" height="188"><path d="M0 187.138h364V.383H0v186.755Z" fill="#fff"/></mask><g mask="url(#Z)"><path fill-rule="evenodd" clip-rule="evenodd" d="M252.798 14.669s6.091-2.384 4.553-6.17c-1.537-3.786-1.786-6.643-5.739-5.281s-4.117 3.114-3.911 4.503c.207 1.389 3.473 7.47 5.097 6.948Z" fill="#FFB37B"/></g><mask id="aa" style="mask-type:luminance" maskUnits="userSpaceOnUse" x="0" y="0" width="364" height="188"><path d="M0 187.138h364V.383H0v186.755Z" fill="#FFBE2E"/></mask><g mask="url(#aa)"><path fill-rule="evenodd" clip-rule="evenodd" d="M283.862 50.563c-2.456 3.525-20.808 8.235-20.59 5.795.084-.933.196-2.58-.002-4.813a29.765 29.765 0 0 0-.196-1.663c-.466-3.206-1.574-7.329-4.043-12.1a56.962 56.962 0 0 0-.578-1.084 37.203 37.203 0 0 1-2.545-5.71c-1.272-3.67-1.784-7.183-1.142-9.479.002-.011.006-.021.01-.032 3.836-1.772 5.322-8.644 5.322-8.644s13.089 2.347 20.42 19.774c0 0 5.479 14.887 3.344 17.956Z" fill="#FACE00"/></g><mask id="ab" style="mask-type:luminance" maskUnits="userSpaceOnUse" x="0" y="0" width="364" height="188"><path d="M0 187.138h364V.383H0v186.755Z" fill="#E5A000"/></mask><g mask="url(#ab)"><path fill-rule="evenodd" clip-rule="evenodd" d="M262.907 51.43a30.646 30.646 0 0 0-.187-1.644c-.447-3.166-1.509-7.24-3.876-11.953.407-2.537.968-4.647 1.584-5.596 2.501-3.86 3.959-4.464 3.959-4.464s3.752 16.29-1.48 23.656Z" fill="#DDAA01"/></g><mask id="ac" style="mask-type:luminance" maskUnits="userSpaceOnUse" x="0" y="0" width="364" height="188"><path d="M0 187.138h364V.383H0v186.755Z" fill="#fff"/></mask><g mask="url(#ac)"><path fill-rule="evenodd" clip-rule="evenodd" d="M242.563 47.072s-3.531.192-4.079.398c-.547.205-2.267 1.633-2.249 1.806.02.172.149.279.493.203.343-.077 1.413-.554 1.381-.393-.032.16-3.052 1.762-2.904 2.443.148.68 2.241 1.407 3.744 1.052 1.504-.355 3.926-3.008 4.169-3.105 2.064-.82-.555-2.404-.555-2.404Z" fill="#FFB37B"/></g><mask id="ad" style="mask-type:luminance" maskUnits="userSpaceOnUse" x="0" y="0" width="364" height="188"><path d="M0 187.138h364V.383H0v186.755Z" fill="#FFBE2E"/></mask><g mask="url(#ad)"><path fill-rule="evenodd" clip-rule="evenodd" d="M241.807 48.198c-.726-1.154-.202-1.68-.202-1.68s11.195-8.619 12.073-9.49c.877-.87 4.942-14.734 4.942-14.734s1.399-5.612 4.675-6.23c2.847-.539 4.815.847 6.102 2.47a5.887 5.887 0 0 1 .412 6.714c-2.858 4.736-8.624 14.137-10.309 15.743-3.747 3.575-16.286 8.57-16.286 8.57s-.836-.458-1.407-1.363Z" fill="#FACE00"/></g><mask id="ae" style="mask-type:luminance" maskUnits="userSpaceOnUse" x="0" y="0" width="364" height="188"><path d="M0 187.138h364V.383H0v186.755Z" fill="#fff"/></mask><g mask="url(#ae)"><path fill-rule="evenodd" clip-rule="evenodd" d="M258.013 1.763c.043-.082.167-.169.469-.259 0 0-.283-.092-.613-.022-.171-.404-.587-1.094-1.367-1.1 0 0 .448.113.613.548-1.069-.657-3.05-.848-7.996.75-6.518 2.105-3.262 5.775-2.274 6.069.988.294 2.806-1.594 4.443-1.852 1.635-.258 2.52 1.952 3.144 2.135.623.183.268-.32.922-.823.653-.504 1.027.681 1.013 1.513-.014.832 1.259 1.621 1.259 1.621l.747-1.328c.746-1.329.544-6.15-.17-7.02l-.19-.232Z" fill="#0D458E"/></g><mask id="af" style="mask-type:luminance" maskUnits="userSpaceOnUse" x="0" y="0" width="364" height="188"><path d="M0 187.138h364V.383H0v186.755Z" fill="#fff"/></mask><g mask="url(#af)"><path fill-rule="evenodd" clip-rule="evenodd" d="M363.616 187.76H.384a.377.377 0 0 1-.384-.368v-.509c0-.202.173-.368.384-.368h363.231c.212 0 .385.166.385.368v.509a.378.378 0 0 1-.384.368Z" fill="#263252"/></g><mask id="ag" style="mask-type:luminance" maskUnits="userSpaceOnUse" x="0" y="0" width="364" height="188"><path d="M0 187.138h364V.383H0v186.755Z" fill="#fff"/></mask><g mask="url(#ag)"><path fill-rule="evenodd" clip-rule="evenodd" d="M156.178 173.442v7.471l-17.422-7.471h17.422Z" fill="#1072C0"/></g><mask id="ah" style="mask-type:luminance" maskUnits="userSpaceOnUse" x="0" y="0" width="364" height="188"><path d="M0 187.138h364V.383H0v186.755Z" fill="#fff"/></mask><g mask="url(#ah)"><path fill-rule="evenodd" clip-rule="evenodd" d="M247.022 185.893h57.245v-74.702h-57.245v74.702Z" fill="#2776CF"/></g><mask id="ai" style="mask-type:luminance" maskUnits="userSpaceOnUse" x="0" y="0" width="364" height="188"><path d="M0 187.138h364V.383H0v186.755Z" fill="#fff"/></mask><g mask="url(#ai)"><path fill-rule="evenodd" clip-rule="evenodd" d="M228.978 185.893h57.244v-74.702h-57.244v74.702Z" fill="#469FF1"/></g><mask id="aj" style="mask-type:luminance" maskUnits="userSpaceOnUse" x="0" y="0" width="364" height="187"><path d="M0 186.755h364V0H0v186.755Z" fill="#fff"/></mask><g mask="url(#aj)"><path fill-rule="evenodd" clip-rule="evenodd" d="M303.644 111.191v11.205l-17.422-11.205h17.422Z" fill="#1072C0"/></g></g><defs><clipPath id="a"><path fill="#fff" d="M0 0h364v188H0z"/></clipPath></defs></svg>