<svg width="328" height="214" viewBox="0 0 328 214" fill="none" xmlns="http://www.w3.org/2000/svg">
<g clip-path="url(#clip0_372_2880)">
<mask id="mask0_372_2880" style="mask-type:luminance" maskUnits="userSpaceOnUse" x="0" y="0" width="328" height="214">
<path d="M328 0H0V214H328V0Z" fill="white"/>
</mask>
<g mask="url(#mask0_372_2880)">
<mask id="mask1_372_2880" style="mask-type:luminance" maskUnits="userSpaceOnUse" x="7" y="2" width="317" height="211">
<path d="M14.7374 212.028C14.7374 212.028 -7.86411 185.032 27.3075 146.201C62.4791 107.37 39.8157 82.4077 68.5474 37.4134C97.2792 -7.58081 169.666 -12.8199 201.927 39.8789C210.72 54.3017 241.619 90.6669 263.292 101.207C280.816 109.836 321.932 116.184 323.17 167.897C323.418 179.792 315.492 201.365 304.965 212.028H14.7374Z" fill="white"/>
</mask>
<g mask="url(#mask1_372_2880)">
<mask id="mask2_372_2880" style="mask-type:luminance" maskUnits="userSpaceOnUse" x="-446" y="-286" width="892" height="526">
<path d="M445.837 -285.189H-445.837V239.332H445.837V-285.189Z" fill="white"/>
</mask>
<g mask="url(#mask2_372_2880)">
<path d="M326.328 -1.10938H4.52026V215.048H326.328V-1.10938Z" fill="#FEF0C8"/>
</g>
</g>
<mask id="mask3_372_2880" style="mask-type:luminance" maskUnits="userSpaceOnUse" x="88" y="182" width="28" height="41">
<path d="M115.298 222.136H93.3781L92.6351 220.349L88.5482 210.549V182.443H109.664C109.664 182.32 113.75 204.632 115.298 222.136Z" fill="white"/>
</mask>
<g mask="url(#mask3_372_2880)">
<mask id="mask4_372_2880" style="mask-type:luminance" maskUnits="userSpaceOnUse" x="-446" y="-286" width="892" height="526">
<path d="M445.837 -285.189H-445.837V239.332H445.837V-285.189Z" fill="white"/>
</mask>
<g mask="url(#mask4_372_2880)">
<path d="M118.395 179.299H85.3903V225.156H118.395V179.299Z" fill="#31429B"/>
</g>
</g>
<mask id="mask5_372_2880" style="mask-type:luminance" maskUnits="userSpaceOnUse" x="88" y="198" width="5" height="23">
<path d="M92.697 220.349L88.6721 214.308V204.446L92.0778 198.591C92.0158 198.529 92.697 212.459 92.697 220.349Z" fill="white"/>
</mask>
<g mask="url(#mask5_372_2880)">
<mask id="mask6_372_2880" style="mask-type:luminance" maskUnits="userSpaceOnUse" x="-446" y="-286" width="892" height="526">
<path d="M445.837 -285.189H-445.837V239.332H445.837V-285.189Z" fill="white"/>
</mask>
<g mask="url(#mask6_372_2880)">
<path d="M95.793 195.447H85.5759V223.43H95.793V195.447Z" fill="#283375"/>
</g>
</g>
<mask id="mask7_372_2880" style="mask-type:luminance" maskUnits="userSpaceOnUse" x="59" y="179" width="37" height="46">
<path d="M63.8414 180.162C63.8414 180.162 60.993 185.586 60.188 192.921C59.5069 198.468 60.8073 220.719 60.8073 220.719L82.7895 224.479C82.7895 224.479 90.2201 209.994 95.112 186.203C97.3412 175.478 76.102 180.409 76.102 180.409" fill="white"/>
</mask>
<g mask="url(#mask7_372_2880)">
<mask id="mask8_372_2880" style="mask-type:luminance" maskUnits="userSpaceOnUse" x="-446" y="-286" width="892" height="526">
<path d="M445.837 -285.189H-445.837V239.332H445.837V-285.189Z" fill="white"/>
</mask>
<g mask="url(#mask8_372_2880)">
<path d="M98.3939 176.217H56.9062V227.56H98.3939V176.217Z" fill="#31429B"/>
</g>
</g>
<mask id="mask9_372_2880" style="mask-type:luminance" maskUnits="userSpaceOnUse" x="102" y="53" width="6" height="13">
<path d="M107.249 56.5823C107.249 56.5823 107.744 61.2667 106.196 64.595C104.648 67.9233 102.666 57.5069 102.666 57.5069L103.719 53.7471" fill="white"/>
</mask>
<g mask="url(#mask9_372_2880)">
<mask id="mask10_372_2880" style="mask-type:luminance" maskUnits="userSpaceOnUse" x="-446" y="-286" width="892" height="526">
<path d="M445.837 -285.189H-445.837V239.332H445.837V-285.189Z" fill="white"/>
</mask>
<g mask="url(#mask10_372_2880)">
<path d="M110.469 50.7266H99.6323V68.3544H110.469V50.7266Z" fill="#1C134D"/>
</g>
</g>
<mask id="mask11_372_2880" style="mask-type:luminance" maskUnits="userSpaceOnUse" x="78" y="71" width="18" height="23">
<path d="M95.1739 79.3878C95.1739 79.3878 94.9262 80.0657 94.5547 81.1136C94.1831 82.2846 93.6878 83.9488 93.2543 85.7363C92.5732 88.4482 92.0778 91.53 92.2016 93.7489C92.2016 93.7489 83.7183 94.6118 79.5077 91.9615C79.5077 91.9615 82.0465 81.7916 78.3931 71.8682L95.1739 79.3878Z" fill="white"/>
</mask>
<g mask="url(#mask11_372_2880)">
<mask id="mask12_372_2880" style="mask-type:luminance" maskUnits="userSpaceOnUse" x="-446" y="-286" width="892" height="526">
<path d="M445.837 -285.188H-445.837V239.333H445.837V-285.188Z" fill="white"/>
</mask>
<g mask="url(#mask12_372_2880)">
<path d="M98.332 68.7256H75.4209V96.8932H98.332V68.7256Z" fill="#B78876"/>
</g>
</g>
<mask id="mask13_372_2880" style="mask-type:luminance" maskUnits="userSpaceOnUse" x="81" y="76" width="14" height="10">
<path d="M94.5546 81.0518C94.1831 82.2229 93.6877 83.8871 93.2543 85.6745C85.8856 83.2707 81.613 76.7373 81.613 76.7373L94.5546 81.0518Z" fill="white"/>
</mask>
<g mask="url(#mask13_372_2880)">
<mask id="mask14_372_2880" style="mask-type:luminance" maskUnits="userSpaceOnUse" x="-446" y="-286" width="892" height="526">
<path d="M445.837 -285.189H-445.837V239.332H445.837V-285.189Z" fill="white"/>
</mask>
<g mask="url(#mask14_372_2880)">
<path d="M97.7127 73.6553H78.5789V88.7561H97.7127V73.6553Z" fill="#9A644F"/>
</g>
</g>
<mask id="mask15_372_2880" style="mask-type:luminance" maskUnits="userSpaceOnUse" x="73" y="41" width="34" height="43">
<path d="M79.7553 76.7368C83.0991 80.6815 101.985 88.5093 104.648 79.2023C107.311 69.8952 106.01 58.8624 104.648 52.0824C103.781 47.8912 101.552 40.0018 90.3439 41.1729C79.3218 42.4056 65.0798 59.6637 79.7553 76.7368Z" fill="white"/>
</mask>
<g mask="url(#mask15_372_2880)">
<mask id="mask16_372_2880" style="mask-type:luminance" maskUnits="userSpaceOnUse" x="-446" y="-286" width="892" height="526">
<path d="M445.837 -285.189H-445.837V239.332H445.837V-285.189Z" fill="white"/>
</mask>
<g mask="url(#mask16_372_2880)">
<path d="M109.354 37.9678H70.405V86.5985H109.354V37.9678Z" fill="#B78876"/>
</g>
</g>
<mask id="mask17_372_2880" style="mask-type:luminance" maskUnits="userSpaceOnUse" x="63" y="35" width="17" height="17">
<path d="M74.1824 51.0967C74.1824 51.0967 65.0798 51.9596 63.408 46.1658C61.6741 40.372 68.1759 33.0373 73.8728 36.1191C79.6315 39.2009 79.0123 46.5973 79.0123 46.5973" fill="white"/>
</mask>
<g mask="url(#mask17_372_2880)">
<mask id="mask18_372_2880" style="mask-type:luminance" maskUnits="userSpaceOnUse" x="-446" y="-286" width="892" height="526">
<path d="M445.837 -285.189H-445.837V239.332H445.837V-285.189Z" fill="white"/>
</mask>
<g mask="url(#mask18_372_2880)">
<path d="M82.1084 32.2354H60.0642V54.1777H82.1084V32.2354Z" fill="#1C134D"/>
</g>
</g>
<mask id="mask19_372_2880" style="mask-type:luminance" maskUnits="userSpaceOnUse" x="70" y="41" width="10" height="11">
<path d="M70.3432 51.7744C70.3432 51.7744 71.272 43.1454 79.5076 41.6045L76.4115 46.6586L70.3432 51.7744Z" fill="white"/>
</mask>
<g mask="url(#mask19_372_2880)">
<mask id="mask20_372_2880" style="mask-type:luminance" maskUnits="userSpaceOnUse" x="-446" y="-286" width="892" height="526">
<path d="M445.837 -285.189H-445.837V239.332H445.837V-285.189Z" fill="white"/>
</mask>
<g mask="url(#mask20_372_2880)">
<path d="M82.6037 38.5225H67.2471V54.856H82.6037V38.5225Z" fill="#586AB2"/>
</g>
</g>
<mask id="mask21_372_2880" style="mask-type:luminance" maskUnits="userSpaceOnUse" x="68" y="39" width="36" height="41">
<path d="M103.286 49.6166C103.286 49.6166 100.19 62.9916 81.5511 63.4847C81.5511 63.4847 79.7554 62.9916 79.0123 64.5942C78.5788 65.5187 78.5169 66.998 78.9504 68.4156C80.065 71.9905 80.808 75.6886 80.2507 79.3868L80.3126 79.8182C80.3126 79.8182 71.0863 78.6472 68.6094 65.3954C65.6991 50.0481 79.7554 37.7209 89.2913 39.1385C93.1924 39.8782 102.481 43.2065 103.286 49.6166Z" fill="white"/>
</mask>
<g mask="url(#mask21_372_2880)">
<mask id="mask22_372_2880" style="mask-type:luminance" maskUnits="userSpaceOnUse" x="-446" y="-286" width="892" height="526">
<path d="M445.837 -285.189H-445.837V239.332H445.837V-285.189Z" fill="white"/>
</mask>
<g mask="url(#mask22_372_2880)">
<path d="M106.382 36.0566H65.08V82.9616H106.382V36.0566Z" fill="#1C134D"/>
</g>
</g>
<mask id="mask23_372_2880" style="mask-type:luminance" maskUnits="userSpaceOnUse" x="85" y="38" width="23" height="20">
<path d="M97.3411 49.3708C97.3411 49.3708 103.162 57.3218 107.682 57.5684C107.682 57.5684 109.106 46.7205 102.976 42.3443C94.6166 36.3656 85.0187 39.4474 85.0187 39.4474" fill="white"/>
</mask>
<g mask="url(#mask23_372_2880)">
<mask id="mask24_372_2880" style="mask-type:luminance" maskUnits="userSpaceOnUse" x="-446" y="-286" width="892" height="526">
<path d="M445.837 -285.189H-445.837V239.332H445.837V-285.189Z" fill="white"/>
</mask>
<g mask="url(#mask24_372_2880)">
<path d="M110.964 35.502H81.9226V60.5878H110.964V35.502Z" fill="#1C134D"/>
</g>
</g>
<mask id="mask25_372_2880" style="mask-type:luminance" maskUnits="userSpaceOnUse" x="70" y="89" width="32" height="13">
<path d="M80.003 89.6193C80.003 89.6193 79.9411 90.9753 78.393 91.8998C76.1638 93.3791 72.3247 94.8583 70.2812 95.6596C70.2812 95.6596 88.1147 108.357 101.18 94.7967C101.18 94.7967 96.4123 93.3174 95.1119 92.3929C91.9539 90.1124 92.5731 89.0029 92.5731 89.0029" fill="white"/>
</mask>
<g mask="url(#mask25_372_2880)">
<mask id="mask26_372_2880" style="mask-type:luminance" maskUnits="userSpaceOnUse" x="-446" y="-286" width="892" height="526">
<path d="M445.837 -285.188H-445.837V239.333H445.837V-285.188Z" fill="white"/>
</mask>
<g mask="url(#mask26_372_2880)">
<path d="M104.276 85.9219H67.1851V104.104H104.276V85.9219Z" fill="#B78876"/>
</g>
</g>
<mask id="mask27_372_2880" style="mask-type:luminance" maskUnits="userSpaceOnUse" x="102" y="119" width="20" height="31">
<path d="M102.481 122.656C102.481 122.656 105.577 132.025 108.116 139.113C109.478 142.873 111.088 145.769 111.521 146.386C112.884 148.112 114.679 150.146 117.837 148.42C120.995 146.694 121.491 145.276 120.995 142.01C120.376 138.681 114.989 119.574 114.989 119.574" fill="white"/>
</mask>
<g mask="url(#mask27_372_2880)">
<mask id="mask28_372_2880" style="mask-type:luminance" maskUnits="userSpaceOnUse" x="-446" y="-286" width="892" height="526">
<path d="M445.837 -285.189H-445.837V239.332H445.837V-285.189Z" fill="white"/>
</mask>
<g mask="url(#mask28_372_2880)">
<path d="M124.339 116.492H99.3846V152.118H124.339V116.492Z" fill="#B78876"/>
</g>
</g>
<mask id="mask29_372_2880" style="mask-type:luminance" maskUnits="userSpaceOnUse" x="108" y="113" width="32" height="40">
<path d="M108.116 139.112C108.116 139.112 112.574 154.028 118.828 152.672C122.11 151.809 127.807 139.359 130.407 134.366C138.519 118.772 139.138 115.259 139.138 115.259L135.052 113.41C135.052 113.41 118.766 134.181 117.528 136.154" fill="white"/>
</mask>
<g mask="url(#mask29_372_2880)">
<mask id="mask30_372_2880" style="mask-type:luminance" maskUnits="userSpaceOnUse" x="-446" y="-286" width="892" height="526">
<path d="M445.837 -285.189H-445.837V239.332H445.837V-285.189Z" fill="white"/>
</mask>
<g mask="url(#mask30_372_2880)">
<path d="M142.173 110.267H105.019V155.816H142.173V110.267Z" fill="#B78876"/>
</g>
</g>
<mask id="mask31_372_2880" style="mask-type:luminance" maskUnits="userSpaceOnUse" x="61" y="92" width="49" height="93">
<path d="M109.664 182.319C89.6628 186.757 71.2101 183.922 62.8506 182.504C61.9218 179.792 63.2222 175.231 64.2748 171.102C67.5567 158.22 66.0087 143.427 64.8941 134.552C64.4606 130.977 64.0272 128.511 64.0272 127.402C64.0272 126.539 63.9652 125.429 63.8414 124.258C63.2222 116.615 61.3026 102.932 61.1168 101.083C60.9311 98.926 73.2535 94.2416 73.2535 94.2416C73.2535 94.2416 95.1738 107.37 96.5361 92.9473C96.5361 92.9473 102.604 94.7963 107.434 97.3234C108.363 103.61 108.797 117.293 108.982 124.32C109.044 127.032 106.691 132.086 106.691 132.086C106.691 132.086 107.063 153.412 108.116 168.883C108.549 174.615 109.973 180.162 109.664 182.319Z" fill="white"/>
</mask>
<g mask="url(#mask31_372_2880)">
<mask id="mask32_372_2880" style="mask-type:luminance" maskUnits="userSpaceOnUse" x="-446" y="-286" width="892" height="526">
<path d="M445.837 -285.189H-445.837V239.332H445.837V-285.189Z" fill="white"/>
</mask>
<g mask="url(#mask32_372_2880)">
<path d="M112.821 89.8037H58.0206V187.743H112.821V89.8037Z" fill="white"/>
</g>
</g>
<mask id="mask33_372_2880" style="mask-type:luminance" maskUnits="userSpaceOnUse" x="63" y="117" width="8" height="18">
<path d="M70.1574 117.293C70.1574 117.293 69.9097 128.203 68.5475 133.996C68.5475 133.996 67.1852 134.613 64.956 134.613C64.5225 131.038 64.0891 128.572 64.0891 127.463C64.0891 126.6 64.0272 125.491 63.9033 124.319L70.1574 117.293Z" fill="white"/>
</mask>
<g mask="url(#mask33_372_2880)">
<mask id="mask34_372_2880" style="mask-type:luminance" maskUnits="userSpaceOnUse" x="-446" y="-286" width="892" height="526">
<path d="M445.837 -285.189H-445.837V239.332H445.837V-285.189Z" fill="white"/>
</mask>
<g mask="url(#mask34_372_2880)">
<path d="M73.3155 114.211H60.8692V137.694H73.3155V114.211Z" fill="#E9ECF1"/>
</g>
</g>
<mask id="mask35_372_2880" style="mask-type:luminance" maskUnits="userSpaceOnUse" x="60" y="124" width="40" height="53">
<path d="M93.44 176.772L60.2499 173.259L65.761 124.937L99.013 128.511L93.44 176.772Z" fill="white"/>
</mask>
<g mask="url(#mask35_372_2880)">
<mask id="mask36_372_2880" style="mask-type:luminance" maskUnits="userSpaceOnUse" x="-446" y="-286" width="892" height="526">
<path d="M445.837 -285.189H-445.837V239.332H445.837V-285.189Z" fill="white"/>
</mask>
<g mask="url(#mask36_372_2880)">
<path d="M102.109 121.854H57.1538V179.854H102.109V121.854Z" fill="#5065AF"/>
</g>
</g>
<mask id="mask37_372_2880" style="mask-type:luminance" maskUnits="userSpaceOnUse" x="57" y="124" width="40" height="53">
<path d="M91.087 176.525L57.7731 173.012L63.346 124.689L96.66 128.264L91.087 176.525Z" fill="white"/>
</mask>
<g mask="url(#mask37_372_2880)">
<mask id="mask38_372_2880" style="mask-type:luminance" maskUnits="userSpaceOnUse" x="-446" y="-286" width="892" height="526">
<path d="M445.837 -285.189H-445.837V239.332H445.837V-285.189Z" fill="white"/>
</mask>
<g mask="url(#mask38_372_2880)">
<path d="M99.756 121.607H54.6769V179.607H99.756V121.607Z" fill="#586AB2"/>
</g>
</g>
<mask id="mask39_372_2880" style="mask-type:luminance" maskUnits="userSpaceOnUse" x="52" y="121" width="16" height="31">
<path d="M54.8628 121.731C54.8628 121.731 53.7482 131.532 53.067 139.051C52.6955 143.057 53.0051 146.324 53.129 147.064C53.6243 149.221 54.4293 151.748 58.0208 151.563C61.6122 151.378 62.7268 150.207 63.5937 147.064C64.4607 143.735 67.5567 124.197 67.5567 124.197" fill="white"/>
</mask>
<g mask="url(#mask39_372_2880)">
<mask id="mask40_372_2880" style="mask-type:luminance" maskUnits="userSpaceOnUse" x="-446" y="-286" width="892" height="526">
<path d="M445.837 -285.189H-445.837V239.332H445.837V-285.189Z" fill="white"/>
</mask>
<g mask="url(#mask40_372_2880)">
<path d="M70.5909 118.649H49.7852V154.645H70.5909V118.649Z" fill="#B78876"/>
</g>
</g>
<mask id="mask41_372_2880" style="mask-type:luminance" maskUnits="userSpaceOnUse" x="52" y="139" width="39" height="19">
<path d="M53.067 139.359C53.067 139.359 51.7047 150.454 55.3581 153.905C57.7731 155.446 63.1603 155.878 68.7332 156.371C86.2571 158.097 89.7867 157.419 89.7867 157.419L90.0344 152.919C90.0344 152.919 64.5845 145.646 62.2934 145.153" fill="white"/>
</mask>
<g mask="url(#mask41_372_2880)">
<mask id="mask42_372_2880" style="mask-type:luminance" maskUnits="userSpaceOnUse" x="-446" y="-286" width="892" height="526">
<path d="M445.837 -285.189H-445.837V239.332H445.837V-285.189Z" fill="white"/>
</mask>
<g mask="url(#mask42_372_2880)">
<path d="M93.1305 136.277H49.7233V160.624H93.1305V136.277Z" fill="#B78876"/>
</g>
</g>
<mask id="mask43_372_2880" style="mask-type:luminance" maskUnits="userSpaceOnUse" x="86" y="150" width="12" height="10">
<path d="M87.4956 152.117C87.4956 152.117 89.4771 152.734 91.2728 152.117C92.2016 151.748 93.2543 151.07 93.8116 150.946C94.307 150.761 97.1554 151.378 97.5888 151.563C98.0223 151.748 97.5888 152.426 97.1554 152.61C96.7219 152.795 95.5454 152.795 95.5454 152.795L94.4927 153.72L94.2451 159.144C94.2451 159.144 93.5639 159.39 92.0778 159.39C90.5297 159.39 89.3532 157.911 86.2571 157.665" fill="white"/>
</mask>
<g mask="url(#mask43_372_2880)">
<mask id="mask44_372_2880" style="mask-type:luminance" maskUnits="userSpaceOnUse" x="-446" y="-286" width="892" height="526">
<path d="M445.837 -285.189H-445.837V239.332H445.837V-285.189Z" fill="white"/>
</mask>
<g mask="url(#mask44_372_2880)">
<path d="M100.809 147.864H83.1611V162.472H100.809V147.864Z" fill="#B78876"/>
</g>
</g>
<mask id="mask45_372_2880" style="mask-type:luminance" maskUnits="userSpaceOnUse" x="92" y="152" width="6" height="8">
<path d="M95.9788 152.303C95.9788 152.303 97.1554 152.796 97.2792 153.227C97.403 153.659 96.9077 158.158 96.1646 158.775C95.7312 159.144 93.2543 159.206 93.2543 159.206L92.8827 157.603C92.8827 157.603 92.8208 154.213 92.8827 154.09C92.9447 154.029 94.3069 152.796 94.3069 152.796L95.9788 152.303Z" fill="white"/>
</mask>
<g mask="url(#mask45_372_2880)">
<mask id="mask46_372_2880" style="mask-type:luminance" maskUnits="userSpaceOnUse" x="-446" y="-286" width="892" height="526">
<path d="M445.837 -285.189H-445.837V239.332H445.837V-285.189Z" fill="white"/>
</mask>
<g mask="url(#mask46_372_2880)">
<path d="M100.313 149.221H89.7247V162.288H100.313V149.221Z" fill="#B78876"/>
</g>
</g>
<mask id="mask47_372_2880" style="mask-type:luminance" maskUnits="userSpaceOnUse" x="77" y="61" width="7" height="10">
<path d="M83.4706 64.0395C83.4706 64.0395 82.8514 59.9715 79.198 61.3275C76.2877 62.3753 78.2692 67.7993 79.3838 69.6484C80.4984 71.4974 82.7276 71.0044 82.9752 69.6484" fill="white"/>
</mask>
<g mask="url(#mask47_372_2880)">
<mask id="mask48_372_2880" style="mask-type:luminance" maskUnits="userSpaceOnUse" x="-446" y="-286" width="892" height="526">
<path d="M445.837 -285.189H-445.837V239.332H445.837V-285.189Z" fill="white"/>
</mask>
<g mask="url(#mask48_372_2880)">
<path d="M86.5667 57.9375H74.5539V73.9628H86.5667V57.9375Z" fill="#B78876"/>
</g>
</g>
<mask id="mask49_372_2880" style="mask-type:luminance" maskUnits="userSpaceOnUse" x="103" y="97" width="16" height="37">
<path d="M118.828 130.607C118.828 130.607 113.007 99.6655 107.434 97.2617C107.93 100.775 102.914 109.342 103.224 115.753C103.843 125.121 106.134 133.072 106.134 133.072C114.37 132.702 118.828 130.607 118.828 130.607Z" fill="white"/>
</mask>
<g mask="url(#mask49_372_2880)">
<mask id="mask50_372_2880" style="mask-type:luminance" maskUnits="userSpaceOnUse" x="-446" y="-286" width="892" height="526">
<path d="M445.837 -285.189H-445.837V239.332H445.837V-285.189Z" fill="white"/>
</mask>
<g mask="url(#mask50_372_2880)">
<path d="M121.924 94.1797H100.128V136.154H121.924V94.1797Z" fill="white"/>
</g>
</g>
<mask id="mask51_372_2880" style="mask-type:luminance" maskUnits="userSpaceOnUse" x="50" y="98" width="21" height="36">
<path d="M64.6464 98.125C64.6464 98.125 55.9154 101.7 53.4386 114.582C51.1474 126.601 50.714 131.532 50.714 131.532C50.714 131.532 60.8692 134.675 67.0614 133.073C68.2379 129.066 70.2194 116.369 70.2194 116.369" fill="white"/>
</mask>
<g mask="url(#mask51_372_2880)">
<mask id="mask52_372_2880" style="mask-type:luminance" maskUnits="userSpaceOnUse" x="-446" y="-286" width="892" height="526">
<path d="M445.837 -285.189H-445.837V239.332H445.837V-285.189Z" fill="white"/>
</mask>
<g mask="url(#mask52_372_2880)">
<path d="M73.2535 95.043H47.5559V136.586H73.2535V95.043Z" fill="white"/>
</g>
</g>
<mask id="mask53_372_2880" style="mask-type:luminance" maskUnits="userSpaceOnUse" x="103" y="108" width="7" height="25">
<path d="M103.905 108.232C103.905 108.232 106.815 114.458 108.239 118.772C109.664 123.025 106.691 132.086 106.691 132.086C106.691 132.086 110.035 126.292 109.602 120.128C109.23 114.026 103.905 108.232 103.905 108.232Z" fill="white"/>
</mask>
<g mask="url(#mask53_372_2880)">
<mask id="mask54_372_2880" style="mask-type:luminance" maskUnits="userSpaceOnUse" x="-446" y="-286" width="892" height="526">
<path d="M445.837 -285.189H-445.837V239.332H445.837V-285.189Z" fill="white"/>
</mask>
<g mask="url(#mask54_372_2880)">
<path d="M112.76 105.151H100.809V135.168H112.76V105.151Z" fill="#E9ECF1"/>
</g>
</g>
<mask id="mask55_372_2880" style="mask-type:luminance" maskUnits="userSpaceOnUse" x="133" y="100" width="15" height="18">
<path d="M133.627 115.26C133.627 115.26 134.68 113.534 134.68 113.041C134.742 110.822 134.742 104.843 135.98 102.624C135.98 102.624 136.847 102.378 137.157 103.364C137.528 104.412 136.723 106.199 137.095 107.001C137.466 107.925 138.024 107.494 138.643 107.001C139.076 106.631 140.624 104.72 141.553 102.748C141.925 101.577 142.482 100.282 142.73 100.282C143.411 100.282 143.349 101.207 143.225 102.07C143.225 102.255 143.039 102.933 142.792 103.672C142.358 104.843 141.739 105.891 141.739 105.891C141.739 105.891 142.234 105.151 143.163 104.042C143.535 103.364 143.782 102.871 144.216 101.885C144.587 100.714 145.145 100.529 145.392 100.775C145.64 101.022 145.392 101.885 145.021 103.241C144.835 103.919 144.402 104.782 144.092 105.398C143.473 106.446 142.916 107.124 142.916 107.124C142.916 107.124 143.597 106.261 144.34 105.336C144.773 104.843 145.207 103.98 145.64 103.179C145.826 101.7 146.569 101.207 146.755 101.453C146.941 101.638 146.817 102.748 146.693 103.857C146.507 104.72 146.259 105.398 145.95 105.891C145.207 107.001 144.402 108.048 144.402 108.048C144.402 108.048 146.631 104.967 147.064 105.398C147.56 105.891 145.331 108.973 144.773 110.021C144.154 111.069 142.482 112.918 141.615 113.349C140.748 113.719 138.767 116.924 138.643 117.602" fill="white"/>
</mask>
<g mask="url(#mask55_372_2880)">
<mask id="mask56_372_2880" style="mask-type:luminance" maskUnits="userSpaceOnUse" x="-446" y="-286" width="892" height="526">
<path d="M445.837 -285.189H-445.837V239.332H445.837V-285.189Z" fill="white"/>
</mask>
<g mask="url(#mask56_372_2880)">
<path d="M150.222 97.2617H130.531V120.745H150.222V97.2617Z" fill="#F59394"/>
</g>
</g>
<mask id="mask57_372_2880" style="mask-type:luminance" maskUnits="userSpaceOnUse" x="145" y="104" width="3" height="3">
<path d="M145.702 106.384C145.702 106.384 146.569 104.781 146.755 104.596C146.941 104.411 147.25 103.98 147.622 104.227C147.993 104.596 146.693 106.877 146.693 106.877" fill="white"/>
</mask>
<g mask="url(#mask57_372_2880)">
<mask id="mask58_372_2880" style="mask-type:luminance" maskUnits="userSpaceOnUse" x="-446" y="-286" width="892" height="526">
<path d="M445.837 -285.189H-445.837V239.332H445.837V-285.189Z" fill="white"/>
</mask>
<g mask="url(#mask58_372_2880)">
<path d="M150.718 101.083H142.606V109.959H150.718V101.083Z" fill="#F59394"/>
</g>
</g>
<mask id="mask59_372_2880" style="mask-type:luminance" maskUnits="userSpaceOnUse" x="83" y="50" width="20" height="14">
<path d="M102.295 50.7881C102.233 51.8359 101.923 52.8221 101.614 53.8699C101.18 54.7944 100.747 55.8422 100.19 56.7051C99.0749 58.4926 97.465 59.9718 95.6692 61.0813C93.8116 62.1291 91.8301 62.8071 89.6628 63.1153C88.6102 63.3002 87.6194 63.3002 86.5048 63.4851C85.4521 63.4235 84.4614 63.4235 83.3468 63.3002C84.3995 63.2385 85.3902 63.1153 86.4429 63.0536C87.4956 62.8687 88.4863 62.8071 89.539 62.5605C90.4678 62.314 91.5205 62.1291 92.4493 61.6976C92.8828 61.5127 93.3781 61.3278 93.8116 61.0813L95.1739 60.4033C98.7034 58.3077 101.366 54.7944 102.295 50.7881Z" fill="white"/>
</mask>
<g mask="url(#mask59_372_2880)">
<mask id="mask60_372_2880" style="mask-type:luminance" maskUnits="userSpaceOnUse" x="-446" y="-286" width="892" height="526">
<path d="M445.837 -285.189H-445.837V239.332H445.837V-285.189Z" fill="white"/>
</mask>
<g mask="url(#mask60_372_2880)">
<path d="M105.391 47.7061H80.1888V66.505H105.391V47.7061Z" fill="#1C134D"/>
</g>
</g>
<mask id="mask61_372_2880" style="mask-type:luminance" maskUnits="userSpaceOnUse" x="79" y="68" width="3" height="3">
<path d="M80.4365 70.3264C80.9319 70.3264 81.3034 69.9566 81.3034 69.4635C81.3034 68.9704 80.9319 68.6006 80.4365 68.6006C79.9411 68.6006 79.5696 68.9704 79.5696 69.4635C79.6315 69.9566 80.003 70.3264 80.4365 70.3264Z" fill="white"/>
</mask>
<g mask="url(#mask61_372_2880)">
<mask id="mask62_372_2880" style="mask-type:luminance" maskUnits="userSpaceOnUse" x="-446" y="-286" width="892" height="526">
<path d="M445.837 -285.189H-445.837V239.332H445.837V-285.189Z" fill="white"/>
</mask>
<g mask="url(#mask62_372_2880)">
<path d="M84.4614 65.5186H76.5354V73.408H84.4614V65.5186Z" fill="white"/>
</g>
</g>
<mask id="mask63_372_2880" style="mask-type:luminance" maskUnits="userSpaceOnUse" x="79" y="63" width="3" height="5">
<path d="M79.5076 63.7935C79.5076 63.7935 80.5603 63.3004 81.3034 64.4715C82.356 65.9507 82.0464 67.3684 80.9318 67.1835C80.3126 67.1218 80.2507 66.1356 80.4984 65.7042C80.8699 65.0878 81.4272 65.3344 81.4272 65.3344C81.4272 65.3344 80.9938 63.6086 79.5076 63.7935Z" fill="white"/>
</mask>
<g mask="url(#mask63_372_2880)">
<mask id="mask64_372_2880" style="mask-type:luminance" maskUnits="userSpaceOnUse" x="-446" y="-286" width="892" height="526">
<path d="M445.837 -285.189H-445.837V239.332H445.837V-285.189Z" fill="white"/>
</mask>
<g mask="url(#mask64_372_2880)">
<path d="M85.0186 60.5879H76.4115V70.2647H85.0186V60.5879Z" fill="#9A644F"/>
</g>
</g>
<mask id="mask65_372_2880" style="mask-type:luminance" maskUnits="userSpaceOnUse" x="206" y="177" width="38" height="190">
<path d="M243.415 220.163C243.229 222.814 242.981 225.033 242.734 226.82C242.052 230.642 240.504 236.805 238.523 243.585C235.117 255.234 230.721 269.041 228.244 277.053C237.842 296.592 224.157 361.248 222.423 366.61C217.655 367.473 214.064 366.672 212.33 366.117C210.287 336.286 206.757 275.697 206.881 274.218C207.624 243.523 211.401 215.356 211.773 210.795C212.144 206.295 212.516 181.025 214.745 180.223C219.513 178.436 231.959 174.368 237.532 182.442C243.167 190.948 244.096 208.638 243.415 220.163Z" fill="white"/>
</mask>
<g mask="url(#mask65_372_2880)">
<mask id="mask66_372_2880" style="mask-type:luminance" maskUnits="userSpaceOnUse" x="-446" y="-286" width="892" height="526">
<path d="M445.837 -285.189H-445.837V239.332H445.837V-285.189Z" fill="white"/>
</mask>
<g mask="url(#mask66_372_2880)">
<path d="M246.697 174.553H203.785V370.124H246.697V174.553Z" fill="#31429B"/>
</g>
</g>
<mask id="mask67_372_2880" style="mask-type:luminance" maskUnits="userSpaceOnUse" x="236" y="207" width="8" height="37">
<path d="M243.415 220.164C243.229 222.814 242.981 225.033 242.734 226.82C242.052 230.642 240.504 236.805 238.523 243.585C237.904 233.97 236.789 207.097 236.789 207.097L243.415 220.164Z" fill="white"/>
</mask>
<g mask="url(#mask67_372_2880)">
<mask id="mask68_372_2880" style="mask-type:luminance" maskUnits="userSpaceOnUse" x="-446" y="-286" width="892" height="526">
<path d="M445.837 -285.189H-445.837V239.332H445.837V-285.189Z" fill="white"/>
</mask>
<g mask="url(#mask68_372_2880)">
<path d="M246.511 204.015H233.755V246.667H246.511V204.015Z" fill="#27316E"/>
</g>
</g>
<mask id="mask69_372_2880" style="mask-type:luminance" maskUnits="userSpaceOnUse" x="230" y="183" width="44" height="189">
<path d="M262.611 370.37C257.904 372.651 253.694 371.542 252.022 371.048C252.641 372.404 239.204 303.804 237.656 290.182C237.594 289.319 237.223 285.683 237.161 284.45C236.541 277.362 237.408 242.106 237.223 228.115L237.656 183.614C237.656 183.614 224.467 182.442 233.693 183.983C245.52 185.956 261.434 183.552 261.434 183.552C277.038 204.508 274.376 223.923 271.341 233.23C270.165 236.99 269.112 240.812 268.431 244.756C265.892 259.056 259.019 277.485 257.409 287.1C271.651 320.815 263.787 359.646 262.611 370.37Z" fill="white"/>
</mask>
<g mask="url(#mask69_372_2880)">
<mask id="mask70_372_2880" style="mask-type:luminance" maskUnits="userSpaceOnUse" x="-446" y="-286" width="892" height="526">
<path d="M445.837 -285.189H-445.837V239.332H445.837V-285.189Z" fill="white"/>
</mask>
<g mask="url(#mask70_372_2880)">
<path d="M276.667 180.162H227.253V374.87H276.667V180.162Z" fill="#31429B"/>
</g>
</g>
<mask id="mask71_372_2880" style="mask-type:luminance" maskUnits="userSpaceOnUse" x="138" y="136" width="26" height="16">
<path d="M163.969 144.228L157.096 142.626C157.096 142.626 155.733 141.886 153.319 139.236C150.904 136.585 147.56 136.832 146.879 136.955C146.197 136.955 146.136 137.88 147.374 138.743C148.241 139.359 149.665 139.112 150.222 140.961C150.47 141.824 147.993 141.886 146.693 141.455C145.392 141.023 141.12 138.989 140.005 138.496C138.891 138.065 137.962 138.743 140.872 140.9C143.535 142.872 144.464 143.304 145.516 143.858C145.516 143.858 146.136 145.153 146.569 145.646C146.631 145.831 146.941 145.892 147.064 146.016C147.25 146.385 147.684 147.31 147.993 147.741C148.055 147.803 148.179 147.926 148.241 147.926C148.489 148.419 148.736 149.036 148.984 149.467C149.851 151.255 153.319 150.762 154.867 150.577C156.415 150.392 162.916 151.871 162.916 151.871L163.969 144.228Z" fill="white"/>
</mask>
<g mask="url(#mask71_372_2880)">
<mask id="mask72_372_2880" style="mask-type:luminance" maskUnits="userSpaceOnUse" x="-446" y="-286" width="892" height="526">
<path d="M445.837 -285.189H-445.837V239.332H445.837V-285.189Z" fill="white"/>
</mask>
<g mask="url(#mask72_372_2880)">
<path d="M167.065 133.75H135.919V154.768H167.065V133.75Z" fill="#FBBD9E"/>
</g>
</g>
<mask id="mask73_372_2880" style="mask-type:luminance" maskUnits="userSpaceOnUse" x="135" y="140" width="14" height="7">
<path d="M147.312 143.736C147.312 143.736 145.516 143.674 142.978 142.811C140.439 141.948 137.157 140.161 136.476 140.099C135.795 140.037 135.733 140.839 136.476 141.578C137.219 142.256 139.324 143.427 140.501 144.044C141.925 144.722 148.117 146.324 148.117 146.324" fill="white"/>
</mask>
<g mask="url(#mask73_372_2880)">
<mask id="mask74_372_2880" style="mask-type:luminance" maskUnits="userSpaceOnUse" x="-446" y="-286" width="892" height="526">
<path d="M445.837 -285.188H-445.837V239.333H445.837V-285.188Z" fill="white"/>
</mask>
<g mask="url(#mask74_372_2880)">
<path d="M151.213 136.956H132.822V149.345H151.213V136.956Z" fill="#F59394"/>
</g>
</g>
<mask id="mask75_372_2880" style="mask-type:luminance" maskUnits="userSpaceOnUse" x="136" y="143" width="14" height="6">
<path d="M148.179 145.523C148.179 145.523 146.383 145.708 143.721 145.091C141.058 144.475 137.652 143.119 136.971 143.119C136.29 143.119 136.29 143.982 137.157 144.598C138.024 145.215 140.253 146.139 141.429 146.632C142.854 147.125 149.294 148.79 149.294 148.79" fill="white"/>
</mask>
<g mask="url(#mask75_372_2880)">
<mask id="mask76_372_2880" style="mask-type:luminance" maskUnits="userSpaceOnUse" x="-446" y="-286" width="892" height="526">
<path d="M445.837 -285.189H-445.837V239.332H445.837V-285.189Z" fill="white"/>
</mask>
<g mask="url(#mask76_372_2880)">
<path d="M152.39 140.037H133.38V151.81H152.39V140.037Z" fill="#FBBD9E"/>
</g>
</g>
<mask id="mask77_372_2880" style="mask-type:luminance" maskUnits="userSpaceOnUse" x="138" y="145" width="14" height="6">
<path d="M150.284 148.112C150.284 148.112 148.489 148.297 145.826 147.68C143.163 147.064 139.758 145.708 139.076 145.708C138.395 145.708 138.395 146.571 139.262 147.187C140.129 147.804 142.358 148.728 143.535 149.221C144.959 149.714 151.399 150.701 151.399 150.701" fill="white"/>
</mask>
<g mask="url(#mask77_372_2880)">
<mask id="mask78_372_2880" style="mask-type:luminance" maskUnits="userSpaceOnUse" x="-446" y="-286" width="892" height="526">
<path d="M445.837 -285.188H-445.837V239.333H445.837V-285.188Z" fill="white"/>
</mask>
<g mask="url(#mask78_372_2880)">
<path d="M154.495 142.688H135.485V153.783H154.495V142.688Z" fill="#FBBD9E"/>
</g>
</g>
<mask id="mask79_372_2880" style="mask-type:luminance" maskUnits="userSpaceOnUse" x="195" y="92" width="31" height="59">
<path d="M225.891 123.087C221.804 133.38 211.525 150.022 211.525 150.022C204.837 150.638 195.921 147.495 195.921 147.495C197.035 134.983 208.429 101.145 208.429 101.145C208.429 101.145 209.11 95.7823 223.662 92.0225" fill="white"/>
</mask>
<g mask="url(#mask79_372_2880)">
<mask id="mask80_372_2880" style="mask-type:luminance" maskUnits="userSpaceOnUse" x="-446" y="-286" width="892" height="526">
<path d="M445.837 -285.189H-445.837V239.332H445.837V-285.189Z" fill="white"/>
</mask>
<g mask="url(#mask80_372_2880)">
<path d="M228.987 88.8789H192.825V153.165H228.987V88.8789Z" fill="#6D8EC9"/>
</g>
</g>
<mask id="mask81_372_2880" style="mask-type:luminance" maskUnits="userSpaceOnUse" x="160" y="136" width="60" height="28">
<path d="M202.237 146.879L161.678 143.304L160.254 151.686C160.254 151.686 190.905 163.459 202.361 163.335C211.773 163.335 219.141 136.832 219.141 136.832L202.237 146.879Z" fill="white"/>
</mask>
<g mask="url(#mask81_372_2880)">
<mask id="mask82_372_2880" style="mask-type:luminance" maskUnits="userSpaceOnUse" x="-446" y="-286" width="892" height="526">
<path d="M445.837 -285.189H-445.837V239.332H445.837V-285.189Z" fill="white"/>
</mask>
<g mask="url(#mask82_372_2880)">
<path d="M222.237 133.75H157.158V166.417H222.237V133.75Z" fill="#6D8EC9"/>
</g>
</g>
<mask id="mask83_372_2880" style="mask-type:luminance" maskUnits="userSpaceOnUse" x="208" y="110" width="5" height="50">
<path d="M211.339 110.021C211.339 110.021 209.296 140.715 208.367 159.884C208.367 159.884 211.092 156.617 212.825 153.166L211.339 110.021Z" fill="white"/>
</mask>
<g mask="url(#mask83_372_2880)">
<mask id="mask84_372_2880" style="mask-type:luminance" maskUnits="userSpaceOnUse" x="-446" y="-286" width="892" height="526">
<path d="M445.837 -285.189H-445.837V239.332H445.837V-285.189Z" fill="white"/>
</mask>
<g mask="url(#mask84_372_2880)">
<path d="M215.86 106.938H205.209V162.966H215.86V106.938Z" fill="#4B72B8"/>
</g>
</g>
<mask id="mask85_372_2880" style="mask-type:luminance" maskUnits="userSpaceOnUse" x="210" y="90" width="58" height="99">
<path d="M266.016 143.735C265.335 147.31 264.22 153.288 263.106 159.144C262.672 161.363 262.363 163.643 261.991 165.677C261.248 170.361 261.124 174.121 261.496 176.217C262.239 180.901 263.23 183.059 261.991 184.415C259.329 187.558 240.876 188.852 232.207 188.852C224.529 188.852 211.401 186.818 210.72 184.353C209.667 180.716 210.968 180.716 211.339 176.833C211.711 173.012 209.482 101.576 212.516 98.0626C216.107 95.104 221.742 92.2688 227.501 90.4197C231.526 89.7417 238.461 90.0499 245.644 91.9606C254.003 94.1178 263.787 95.9669 265.273 99.1104C266.512 102.192 268.06 133.072 266.016 143.735Z" fill="white"/>
</mask>
<g mask="url(#mask85_372_2880)">
<mask id="mask86_372_2880" style="mask-type:luminance" maskUnits="userSpaceOnUse" x="-446" y="-286" width="892" height="526">
<path d="M445.837 -285.189H-445.837V239.332H445.837V-285.189Z" fill="white"/>
</mask>
<g mask="url(#mask86_372_2880)">
<path d="M270.103 87.0303H207.252V191.935H270.103V87.0303Z" fill="#6D8EC9"/>
</g>
</g>
<mask id="mask87_372_2880" style="mask-type:luminance" maskUnits="userSpaceOnUse" x="222" y="147" width="42" height="19">
<path d="M263.106 159.144C262.672 161.363 262.363 163.644 261.991 165.678C247.625 159.884 223.29 147.372 222.547 147.002L263.106 159.144Z" fill="white"/>
</mask>
<g mask="url(#mask87_372_2880)">
<mask id="mask88_372_2880" style="mask-type:luminance" maskUnits="userSpaceOnUse" x="-446" y="-286" width="892" height="526">
<path d="M445.837 -285.189H-445.837V239.332H445.837V-285.189Z" fill="white"/>
</mask>
<g mask="url(#mask88_372_2880)">
<path d="M266.202 143.92H219.451V168.759H266.202V143.92Z" fill="#4B72B8"/>
</g>
</g>
<mask id="mask89_372_2880" style="mask-type:luminance" maskUnits="userSpaceOnUse" x="226" y="123" width="39" height="30">
<path d="M264.53 152.302L260.691 130.976L256.356 123.21C256.356 123.21 256.852 131.408 257.533 141.023C247.378 139.543 226.696 137.694 226.696 137.694C226.696 137.694 245.768 143.673 246.573 143.858C247.192 144.043 254.932 144.906 257.843 145.214C258.028 147.495 258.214 149.898 258.462 152.179H264.53V152.302Z" fill="white"/>
</mask>
<g mask="url(#mask89_372_2880)">
<mask id="mask90_372_2880" style="mask-type:luminance" maskUnits="userSpaceOnUse" x="-446" y="-286" width="892" height="526">
<path d="M445.837 -285.189H-445.837V239.332H445.837V-285.189Z" fill="white"/>
</mask>
<g mask="url(#mask90_372_2880)">
<path d="M267.688 120.19H223.662V155.385H267.688V120.19Z" fill="#4B72B8"/>
</g>
</g>
<mask id="mask91_372_2880" style="mask-type:luminance" maskUnits="userSpaceOnUse" x="204" y="135" width="8" height="4">
<path d="M211.339 135.291C211.339 135.291 204.837 136.77 204.59 137.14C204.342 137.51 204.59 138.619 206.757 138.681C208.924 138.743 210.968 137.633 210.968 137.633" fill="white"/>
</mask>
<g mask="url(#mask91_372_2880)">
<mask id="mask92_372_2880" style="mask-type:luminance" maskUnits="userSpaceOnUse" x="-446" y="-286" width="892" height="526">
<path d="M445.837 -285.189H-445.837V239.332H445.837V-285.189Z" fill="white"/>
</mask>
<g mask="url(#mask92_372_2880)">
<path d="M214.435 132.209H201.37V141.763H214.435V132.209Z" fill="#FBBD9E"/>
</g>
</g>
<mask id="mask93_372_2880" style="mask-type:luminance" maskUnits="userSpaceOnUse" x="204" y="138" width="8" height="8">
<path d="M210.287 138.928L206.324 141.763C206.324 141.763 203.847 144.906 204.032 145.153C204.094 145.338 204.899 145.646 205.642 144.968C206.386 144.29 207.872 142.934 207.872 142.934L211.711 141.455" fill="white"/>
</mask>
<g mask="url(#mask93_372_2880)">
<mask id="mask94_372_2880" style="mask-type:luminance" maskUnits="userSpaceOnUse" x="-446" y="-286" width="892" height="526">
<path d="M445.837 -285.189H-445.837V239.332H445.837V-285.189Z" fill="white"/>
</mask>
<g mask="url(#mask94_372_2880)">
<path d="M214.869 135.846H200.936V148.481H214.869V135.846Z" fill="#FBBD9E"/>
</g>
</g>
<mask id="mask95_372_2880" style="mask-type:luminance" maskUnits="userSpaceOnUse" x="205" y="139" width="9" height="8">
<path d="M211.897 139.976L207.934 142.811C207.934 142.811 205.457 145.954 205.642 146.201C205.704 146.386 206.509 146.694 207.252 146.016C207.995 145.338 209.482 143.982 209.482 143.982L213.321 142.503" fill="white"/>
</mask>
<g mask="url(#mask95_372_2880)">
<mask id="mask96_372_2880" style="mask-type:luminance" maskUnits="userSpaceOnUse" x="-446" y="-286" width="892" height="526">
<path d="M445.837 -285.189H-445.837V239.332H445.837V-285.189Z" fill="white"/>
</mask>
<g mask="url(#mask96_372_2880)">
<path d="M216.479 136.894H202.546V149.529H216.479V136.894Z" fill="#FBBD9E"/>
</g>
</g>
<mask id="mask97_372_2880" style="mask-type:luminance" maskUnits="userSpaceOnUse" x="207" y="140" width="9" height="8">
<path d="M213.63 140.962L209.667 143.797C209.667 143.797 207.19 146.941 207.376 147.187C207.438 147.372 208.243 147.68 208.986 147.002C209.729 146.324 211.215 144.968 211.215 144.968L215.055 143.489" fill="white"/>
</mask>
<g mask="url(#mask97_372_2880)">
<mask id="mask98_372_2880" style="mask-type:luminance" maskUnits="userSpaceOnUse" x="-446" y="-286" width="892" height="526">
<path d="M445.837 -285.189H-445.837V239.332H445.837V-285.189Z" fill="white"/>
</mask>
<g mask="url(#mask98_372_2880)">
<path d="M218.213 137.88H204.28V150.515H218.213V137.88Z" fill="#FBBD9E"/>
</g>
</g>
<mask id="mask99_372_2880" style="mask-type:luminance" maskUnits="userSpaceOnUse" x="201" y="135" width="26" height="11">
<path d="M226.2 139.544L219.451 136.154C219.451 136.154 212.454 135.291 211.401 135.291C210.348 135.291 205.519 138.804 204.837 139.112C204.156 139.482 201.246 144.721 201.246 144.721C201.246 144.721 201.432 145.214 202.113 145.214C202.856 145.214 206.076 141.393 206.076 141.393L209.729 139.359C209.729 139.359 210.225 141.886 211.897 143.858C213.197 145.461 216.603 144.906 219.141 144.598C220.751 144.413 222.114 144.783 222.114 144.783" fill="white"/>
</mask>
<g mask="url(#mask99_372_2880)">
<mask id="mask100_372_2880" style="mask-type:luminance" maskUnits="userSpaceOnUse" x="-446" y="-286" width="892" height="526">
<path d="M445.837 -285.189H-445.837V239.332H445.837V-285.189Z" fill="white"/>
</mask>
<g mask="url(#mask100_372_2880)">
<path d="M229.359 132.209H198.15V148.358H229.359V132.209Z" fill="#FBBD9E"/>
</g>
</g>
<mask id="mask101_372_2880" style="mask-type:luminance" maskUnits="userSpaceOnUse" x="255" y="94" width="28" height="64">
<path d="M282.735 157.85C282.797 157.357 282.797 156.925 282.797 156.494C282.797 145.831 281.497 117.293 270.289 102.624C265.954 96.8917 255.923 94.6729 255.923 94.6729L256.171 121.176C256.418 131.038 263.106 157.85 263.106 157.85H282.735Z" fill="white"/>
</mask>
<g mask="url(#mask101_372_2880)">
<mask id="mask102_372_2880" style="mask-type:luminance" maskUnits="userSpaceOnUse" x="-446" y="-286" width="892" height="526">
<path d="M445.837 -285.189H-445.837V239.332H445.837V-285.189Z" fill="white"/>
</mask>
<g mask="url(#mask102_372_2880)">
<path d="M285.893 91.5908H252.827V160.931H285.893V91.5908Z" fill="#6D8EC9"/>
</g>
</g>
<mask id="mask103_372_2880" style="mask-type:luminance" maskUnits="userSpaceOnUse" x="221" y="137" width="56" height="29">
<path d="M222.052 141.085C221.123 143.55 221.309 146.694 221.309 146.694C221.309 146.694 264.097 164.692 276.233 165.924L275.8 146.386L224.281 137.325C224.157 137.325 222.981 138.496 222.052 141.085Z" fill="white"/>
</mask>
<g mask="url(#mask103_372_2880)">
<mask id="mask104_372_2880" style="mask-type:luminance" maskUnits="userSpaceOnUse" x="-446" y="-286" width="892" height="526">
<path d="M445.837 -285.189H-445.837V239.332H445.837V-285.189Z" fill="white"/>
</mask>
<g mask="url(#mask104_372_2880)">
<path d="M279.33 134.305H218.151V169.006H279.33V134.305Z" fill="#6D8EC9"/>
</g>
</g>
<mask id="mask105_372_2880" style="mask-type:luminance" maskUnits="userSpaceOnUse" x="270" y="147" width="13" height="19">
<path d="M276.171 165.924C276.171 165.924 283.354 167.28 282.859 155.261C282.364 144.598 272.828 147.434 272.828 147.434L270.66 156.186L276.171 165.924Z" fill="white"/>
</mask>
<g mask="url(#mask105_372_2880)">
<mask id="mask106_372_2880" style="mask-type:luminance" maskUnits="userSpaceOnUse" x="-446" y="-286" width="892" height="526">
<path d="M445.837 -285.189H-445.837V239.332H445.837V-285.189Z" fill="white"/>
</mask>
<g mask="url(#mask106_372_2880)">
<path d="M286.017 144.043H267.626V169.067H286.017V144.043Z" fill="#6D8EC9"/>
</g>
</g>
<mask id="mask107_372_2880" style="mask-type:luminance" maskUnits="userSpaceOnUse" x="227" y="57" width="24" height="38">
<path d="M245.644 91.9613C245.644 91.9613 237.532 98.1249 227.501 90.4821C227.501 90.4821 228.801 88.0783 228.925 87.6468C229.544 86.7223 230.535 84.565 231.216 81.6681C231.278 81.4832 231.278 81.2367 231.402 80.9901C231.588 80.1272 231.773 79.141 231.835 78.0932C232.021 76.3058 232.021 74.3334 231.65 72.2378L232.578 71.4982L248.492 58.9861L250.288 57.5068C250.288 57.5068 249.793 60.5886 248.988 65.0264C248.554 67.5535 248.121 70.4504 247.625 73.6555C246.944 80.0656 246.015 87.0304 245.644 91.9613Z" fill="white"/>
</mask>
<g mask="url(#mask107_372_2880)">
<mask id="mask108_372_2880" style="mask-type:luminance" maskUnits="userSpaceOnUse" x="-446" y="-286" width="892" height="526">
<path d="M445.837 -285.189H-445.837V239.332H445.837V-285.189Z" fill="white"/>
</mask>
<g mask="url(#mask108_372_2880)">
<path d="M253.446 54.4863H224.405V97.4466H253.446V54.4863Z" fill="#FBBD9E"/>
</g>
</g>
<mask id="mask109_372_2880" style="mask-type:luminance" maskUnits="userSpaceOnUse" x="228" y="72" width="17" height="16">
<path d="M243.105 74.0866C240.814 77.4149 235.675 83.9484 228.925 87.7082C229.544 86.7836 230.535 84.6264 231.216 81.7295C230.163 82.0993 229.173 82.2226 228.306 82.3458C228.368 81.6062 228.368 80.8666 228.368 80.0653L229.42 79.4489L231.835 78.2779L244.405 72.1143C244.467 72.1143 244.034 72.9155 243.105 74.0866Z" fill="white"/>
</mask>
<g mask="url(#mask109_372_2880)">
<mask id="mask110_372_2880" style="mask-type:luminance" maskUnits="userSpaceOnUse" x="-446" y="-286" width="892" height="526">
<path d="M445.837 -285.189H-445.837V239.332H445.837V-285.189Z" fill="white"/>
</mask>
<g mask="url(#mask110_372_2880)">
<path d="M247.44 69.0322H225.148V90.7897H247.44V69.0322Z" fill="#DD916A"/>
</g>
</g>
<mask id="mask111_372_2880" style="mask-type:luminance" maskUnits="userSpaceOnUse" x="217" y="48" width="6" height="13">
<path d="M217.903 48.1992C217.903 48.1992 215.178 55.7804 220.07 60.0333L222.485 48.5074L217.903 48.1992Z" fill="white"/>
</mask>
<g mask="url(#mask111_372_2880)">
<mask id="mask112_372_2880" style="mask-type:luminance" maskUnits="userSpaceOnUse" x="-446" y="-286" width="892" height="526">
<path d="M445.837 -285.189H-445.837V239.332H445.837V-285.189Z" fill="white"/>
</mask>
<g mask="url(#mask112_372_2880)">
<path d="M225.581 45.1172H214.064V63.1149H225.581V45.1172Z" fill="#1C134D"/>
</g>
</g>
<mask id="mask113_372_2880" style="mask-type:luminance" maskUnits="userSpaceOnUse" x="218" y="40" width="34" height="43">
<path d="M245.706 70.8201C244.963 71.9295 243.972 73.039 243.167 74.0868C241.619 75.6893 239.885 77.2302 237.966 78.5246C235.489 80.1271 233.26 81.1749 231.278 81.668C230.225 82.0378 229.235 82.1611 228.368 82.2844C224.095 82.6542 221.68 80.99 221.68 80.99C217.717 75.1346 217.841 65.581 218.77 58.308C219.141 55.4111 219.637 52.884 219.946 51.0349C220.318 49.4324 220.566 48.5079 220.566 48.5079C220.566 48.4462 220.566 48.4462 220.566 48.323C222.299 38.9543 234.87 38.7077 243.415 43.8852C243.91 44.255 244.467 44.5015 244.839 44.933C247.254 46.6588 249.173 48.8777 250.412 51.4047C252.455 55.8425 251.155 60.835 249.112 65.1496C249.05 65.3961 248.864 65.581 248.74 65.8276C247.873 67.6766 246.759 69.4641 245.706 70.8201Z" fill="white"/>
</mask>
<g mask="url(#mask113_372_2880)">
<mask id="mask114_372_2880" style="mask-type:luminance" maskUnits="userSpaceOnUse" x="-446" y="-286" width="892" height="526">
<path d="M445.837 -285.189H-445.837V239.332H445.837V-285.189Z" fill="white"/>
</mask>
<g mask="url(#mask114_372_2880)">
<path d="M254.561 37.4131H215.116V85.3658H254.561V37.4131Z" fill="#FBBD9E"/>
</g>
</g>
<mask id="mask115_372_2880" style="mask-type:luminance" maskUnits="userSpaceOnUse" x="214" y="31" width="33" height="23">
<path d="M246.263 43.2071C246.263 43.2071 236.108 58.8627 218.956 50.6035C214.002 48.1997 212.763 31.2498 217.222 34.5781C226.2 41.543 233.322 28.2912 241.929 32.7907C244.715 34.2699 247.44 37.7832 246.263 43.2071Z" fill="white"/>
</mask>
<g mask="url(#mask115_372_2880)">
<mask id="mask116_372_2880" style="mask-type:luminance" maskUnits="userSpaceOnUse" x="-446" y="-286" width="892" height="526">
<path d="M445.837 -285.189H-445.837V239.332H445.837V-285.189Z" fill="white"/>
</mask>
<g mask="url(#mask116_372_2880)">
<path d="M249.669 28.7842H211.401V56.1505H249.669V28.7842Z" fill="#1C134D"/>
</g>
</g>
<mask id="mask117_372_2880" style="mask-type:luminance" maskUnits="userSpaceOnUse" x="240" y="38" width="18" height="36">
<path d="M242.796 45.1797C242.796 45.1797 236.913 75.936 243.167 61.8214C243.167 61.8214 244.777 57.8767 247.625 58.2465C250.536 58.6163 248.245 69.1561 247.811 73.6555C247.811 73.6555 254.375 68.9712 256.79 54.9798C259.205 40.9885 249.793 35.318 244.529 41.3583L242.796 45.1797Z" fill="white"/>
</mask>
<g mask="url(#mask117_372_2880)">
<mask id="mask118_372_2880" style="mask-type:luminance" maskUnits="userSpaceOnUse" x="-446" y="-286" width="892" height="526">
<path d="M445.837 -285.189H-445.837V239.332H445.837V-285.189Z" fill="white"/>
</mask>
<g mask="url(#mask118_372_2880)">
<path d="M260.257 35.8721H237.223V76.7367H260.257V35.8721Z" fill="#1C134D"/>
</g>
</g>
<mask id="mask119_372_2880" style="mask-type:luminance" maskUnits="userSpaceOnUse" x="245" y="60" width="3" height="7">
<path d="M247.13 60.4648C247.13 60.4648 245.52 60.7114 245.149 63.6083C244.777 66.5668 246.697 67.1832 247.13 65.5806C247.502 64.0397 246.077 63.1152 245.768 63.7316C245.644 63.7932 245.272 62.0674 247.13 60.4648Z" fill="white"/>
</mask>
<g mask="url(#mask119_372_2880)">
<mask id="mask120_372_2880" style="mask-type:luminance" maskUnits="userSpaceOnUse" x="-446" y="-286" width="892" height="526">
<path d="M445.837 -285.189H-445.837V239.332H445.837V-285.189Z" fill="white"/>
</mask>
<g mask="url(#mask120_372_2880)">
<path d="M250.226 57.3828H241.991V69.5251H250.226V57.3828Z" fill="#DD916A"/>
</g>
</g>
<path d="M216.355 58.7391C216.541 57.8146 217.408 57.1982 218.336 57.1366C219.203 57.0749 222.299 57.6297 223.042 57.9995C224.157 58.4926 224.9 59.4787 224.095 61.7593C223.6 63.2385 222.485 64.9027 219.451 64.4096C216.912 63.9165 216.045 61.3894 216.355 58.7391Z" stroke="#5063AE" stroke-width="0.6268" stroke-miterlimit="10"/>
<path d="M229.049 58.6777C230.473 58.6777 233.693 58.9243 234.931 59.4174C236.108 59.8488 236.913 61.0199 236.541 62.2526C235.675 65.2111 234.56 66.9986 230.473 66.4439C227.067 65.9508 227.067 62.2526 227.191 60.2186C227.253 59.3557 228.12 58.7394 229.049 58.6777Z" stroke="#5063AE" stroke-width="0.6268" stroke-miterlimit="10"/>
<path d="M224.405 60.4655C224.405 60.4655 225.705 59.9724 227.067 60.8353" stroke="#5063AE" stroke-width="0.6268" stroke-miterlimit="10"/>
<path d="M236.603 62.0058C236.603 62.0058 242.424 61.3278 244.22 60.958" stroke="#5063AE" stroke-width="0.6268" stroke-miterlimit="10"/>
<mask id="mask121_372_2880" style="mask-type:luminance" maskUnits="userSpaceOnUse" x="242" y="58" width="4" height="5">
<path d="M242.981 62.3137C242.981 62.3137 243.724 60.2797 245.396 58.9854L245.334 60.9577L242.981 62.3137Z" fill="white"/>
</mask>
<g mask="url(#mask121_372_2880)">
<mask id="mask122_372_2880" style="mask-type:luminance" maskUnits="userSpaceOnUse" x="-446" y="-286" width="892" height="526">
<path d="M445.837 -285.189H-445.837V239.332H445.837V-285.189Z" fill="white"/>
</mask>
<g mask="url(#mask122_372_2880)">
<path d="M248.492 55.9043H239.885V65.3962H248.492V55.9043Z" fill="#DD916A"/>
</g>
</g>
<mask id="mask123_372_2880" style="mask-type:luminance" maskUnits="userSpaceOnUse" x="122" y="96" width="78" height="52">
<path d="M199.017 147.434H132.76C132.017 147.434 131.336 146.94 131.212 146.139L122.296 98.7412C122.048 97.3852 123.039 96.0908 124.463 96.0908H187.561C188.614 96.0908 189.543 96.8305 189.729 97.8783L199.017 147.434Z" fill="white"/>
</mask>
<g mask="url(#mask123_372_2880)">
<mask id="mask124_372_2880" style="mask-type:luminance" maskUnits="userSpaceOnUse" x="-446" y="-286" width="892" height="526">
<path d="M445.837 -285.189H-445.837V239.332H445.837V-285.189Z" fill="white"/>
</mask>
<g mask="url(#mask124_372_2880)">
<path d="M202.113 93.0703H119.2V150.515H202.113V93.0703Z" fill="#1C134D"/>
</g>
</g>
<mask id="mask125_372_2880" style="mask-type:luminance" maskUnits="userSpaceOnUse" x="187" y="144" width="34" height="4">
<path d="M219.265 147.434H187.747V144.783H217.903C218.584 144.783 219.265 145.153 219.637 145.708L220.008 146.201C220.318 146.756 219.884 147.434 219.265 147.434Z" fill="white"/>
</mask>
<g mask="url(#mask125_372_2880)">
<mask id="mask126_372_2880" style="mask-type:luminance" maskUnits="userSpaceOnUse" x="-446" y="-286" width="892" height="526">
<path d="M445.837 -285.189H-445.837V239.332H445.837V-285.189Z" fill="white"/>
</mask>
<g mask="url(#mask126_372_2880)">
<path d="M223.228 141.701H184.713V150.515H223.228V141.701Z" fill="#1C134D"/>
</g>
</g>
<path d="M186.509 98.3711C187.128 98.3711 187.685 98.8025 187.809 99.4189L196.478 143.119" stroke="#D0EBFA" stroke-width="0.2991" stroke-miterlimit="10" stroke-linecap="round"/>
<mask id="mask127_372_2880" style="mask-type:luminance" maskUnits="userSpaceOnUse" x="152" y="118" width="10" height="8">
<path d="M161.926 122.286C161.926 124.258 159.758 125.799 157.22 125.799C154.681 125.799 152.513 124.258 152.513 122.286C152.513 120.313 154.681 118.772 157.22 118.772C159.882 118.834 161.926 120.375 161.926 122.286Z" fill="white"/>
</mask>
<g mask="url(#mask127_372_2880)">
<mask id="mask128_372_2880" style="mask-type:luminance" maskUnits="userSpaceOnUse" x="-446" y="-286" width="892" height="526">
<path d="M445.837 -285.189H-445.837V239.332H445.837V-285.189Z" fill="white"/>
</mask>
<g mask="url(#mask128_372_2880)">
<path d="M165.022 115.752H149.417V128.88H165.022V115.752Z" fill="#31429B"/>
</g>
</g>
<path d="M157.653 18.0596H161.616" stroke="#FFBE2E" stroke-width="0.9678" stroke-miterlimit="10" stroke-linecap="round"/>
<path d="M159.573 16.1484V20.1548" stroke="#FFBE2E" stroke-width="0.9678" stroke-miterlimit="10" stroke-linecap="round"/>
<path d="M187.747 167.28H191.772" stroke="#FFBE2E" stroke-width="0.9678" stroke-miterlimit="10" stroke-linecap="round"/>
<path d="M189.79 165.308V169.252" stroke="#FFBE2E" stroke-width="0.9678" stroke-miterlimit="10" stroke-linecap="round"/>
<mask id="mask129_372_2880" style="mask-type:luminance" maskUnits="userSpaceOnUse" x="191" y="45" width="5" height="5">
<path d="M195.425 47.4597C195.425 48.5075 194.558 49.2472 193.63 49.2472C192.577 49.2472 191.834 48.3843 191.834 47.4597C191.834 46.4119 192.701 45.6723 193.63 45.6723C194.62 45.6106 195.425 46.4119 195.425 47.4597Z" fill="white"/>
</mask>
<g mask="url(#mask129_372_2880)">
<mask id="mask130_372_2880" style="mask-type:luminance" maskUnits="userSpaceOnUse" x="-446" y="-286" width="892" height="526">
<path d="M445.837 -285.189H-445.837V239.332H445.837V-285.189Z" fill="white"/>
</mask>
<g mask="url(#mask130_372_2880)">
<path d="M189.238 43.0293H198.021V51.7678H189.238V43.0293Z" fill="white" stroke="#FFBE2E"/>
</g>
</g>
<mask id="mask131_372_2880" style="mask-type:luminance" maskUnits="userSpaceOnUse" x="130" y="82" width="5" height="5">
<path d="M132.265 86.4138C133.257 86.4138 134.061 85.6135 134.061 84.6263C134.061 83.6391 133.257 82.8389 132.265 82.8389C131.273 82.8389 130.469 83.6391 130.469 84.6263C130.469 85.6135 131.273 86.4138 132.265 86.4138Z" fill="white"/>
</mask>
<g mask="url(#mask131_372_2880)">
<mask id="mask132_372_2880" style="mask-type:luminance" maskUnits="userSpaceOnUse" x="-446" y="-286" width="892" height="526">
<path d="M445.837 -285.189H-445.837V239.332H445.837V-285.189Z" fill="white"/>
</mask>
<g mask="url(#mask132_372_2880)">
<path d="M127.873 80.2568H136.657V88.9953H127.873V80.2568Z" fill="#FFBE2E" stroke="#FFBE2E"/>
</g>
</g>
<mask id="mask133_372_2880" style="mask-type:luminance" maskUnits="userSpaceOnUse" x="108" y="16" width="4" height="4">
<path d="M111.831 18.0599C111.831 19.1077 110.964 19.8473 110.035 19.8473C108.982 19.8473 108.239 18.9844 108.239 18.0599C108.239 17.0121 109.106 16.2725 110.035 16.2725C111.088 16.2725 111.831 17.1354 111.831 18.0599Z" fill="white"/>
</mask>
<g mask="url(#mask133_372_2880)">
<mask id="mask134_372_2880" style="mask-type:luminance" maskUnits="userSpaceOnUse" x="-446" y="-286" width="892" height="526">
<path d="M445.837 -285.189H-445.837V239.332H445.837V-285.189Z" fill="white"/>
</mask>
<g mask="url(#mask134_372_2880)">
<path d="M105.643 13.6904H114.427V22.4289H105.643V13.6904Z" fill="#FFBE2E" stroke="#FFBE2E"/>
</g>
</g>
<mask id="mask135_372_2880" style="mask-type:luminance" maskUnits="userSpaceOnUse" x="290" y="67" width="4" height="5">
<path d="M291.9 71.0661C292.891 71.0661 293.695 70.2658 293.695 69.2787C293.695 68.2915 292.891 67.4912 291.9 67.4912C290.908 67.4912 290.104 68.2915 290.104 69.2787C290.104 70.2658 290.908 71.0661 291.9 71.0661Z" fill="white"/>
</mask>
<g mask="url(#mask135_372_2880)">
<mask id="mask136_372_2880" style="mask-type:luminance" maskUnits="userSpaceOnUse" x="-446" y="-286" width="892" height="526">
<path d="M445.837 -285.189H-445.837V239.332H445.837V-285.189Z" fill="white"/>
</mask>
<g mask="url(#mask136_372_2880)">
<path d="M287.508 64.9092H296.291V73.6477H287.508V64.9092Z" fill="#FFBE2E" stroke="#FFBE2E"/>
</g>
</g>
<mask id="mask137_372_2880" style="mask-type:luminance" maskUnits="userSpaceOnUse" x="255" y="79" width="5" height="5">
<path d="M259.143 81.7298C259.143 82.7776 258.276 83.5173 257.347 83.5173C256.295 83.5173 255.551 82.6544 255.551 81.7298C255.551 80.682 256.418 79.9424 257.347 79.9424C258.276 79.9424 259.143 80.682 259.143 81.7298Z" fill="white"/>
</mask>
<g mask="url(#mask137_372_2880)">
<mask id="mask138_372_2880" style="mask-type:luminance" maskUnits="userSpaceOnUse" x="-446" y="-286" width="892" height="526">
<path d="M445.837 -285.189H-445.837V239.332H445.837V-285.189Z" fill="white"/>
</mask>
<g mask="url(#mask138_372_2880)">
<path d="M252.893 77.3604H261.677V86.0988H252.893V77.3604Z" fill="#FFBE2E" stroke="#FFBE2E"/>
</g>
</g>
<mask id="mask139_372_2880" style="mask-type:luminance" maskUnits="userSpaceOnUse" x="177" y="-1" width="5" height="5">
<path d="M181.245 1.78762C181.245 2.83544 180.378 3.57507 179.449 3.57507C178.397 3.57507 177.654 2.71216 177.654 1.78762C177.654 0.863086 178.521 0.000182449 179.449 0.000182449C180.502 -0.0614535 181.245 0.80145 181.245 1.78762Z" fill="white"/>
</mask>
<g mask="url(#mask139_372_2880)">
<mask id="mask140_372_2880" style="mask-type:luminance" maskUnits="userSpaceOnUse" x="-446" y="-286" width="892" height="526">
<path d="M445.837 -285.189H-445.837V239.332H445.837V-285.189Z" fill="white"/>
</mask>
<g mask="url(#mask140_372_2880)">
<path d="M175.058 -2.58203H183.841V6.15645H175.058V-2.58203Z" fill="#FFBE2E" stroke="#FFBE2E"/>
</g>
</g>
<mask id="mask141_372_2880" style="mask-type:luminance" maskUnits="userSpaceOnUse" x="311" y="141" width="4" height="5">
<path d="M314.749 143.366C314.749 144.413 313.882 145.153 312.953 145.153C311.9 145.153 311.157 144.29 311.157 143.366C311.157 142.318 312.024 141.578 312.953 141.578C313.882 141.578 314.749 142.379 314.749 143.366Z" fill="white"/>
</mask>
<g mask="url(#mask141_372_2880)">
<mask id="mask142_372_2880" style="mask-type:luminance" maskUnits="userSpaceOnUse" x="-446" y="-286" width="892" height="526">
<path d="M445.837 -285.189H-445.837V239.332H445.837V-285.189Z" fill="white"/>
</mask>
<g mask="url(#mask142_372_2880)">
<path d="M317.845 138.496H308.061V148.235H317.845V138.496Z" fill="#FFBE2E"/>
</g>
</g>
<mask id="mask143_372_2880" style="mask-type:luminance" maskUnits="userSpaceOnUse" x="135" y="198" width="5" height="5">
<path d="M139.386 200.625C139.386 201.673 138.519 202.413 137.59 202.413C136.538 202.413 135.795 201.55 135.795 200.625C135.795 199.578 136.661 198.838 137.59 198.838C138.643 198.715 139.386 199.578 139.386 200.625Z" fill="white"/>
</mask>
<g mask="url(#mask143_372_2880)">
<mask id="mask144_372_2880" style="mask-type:luminance" maskUnits="userSpaceOnUse" x="-446" y="-286" width="892" height="526">
<path d="M445.837 -285.189H-445.837V239.332H445.837V-285.189Z" fill="white"/>
</mask>
<g mask="url(#mask144_372_2880)">
<path d="M133.198 196.256H141.982V204.994H133.198V196.256Z" fill="white" stroke="#FFBE2E"/>
</g>
</g>
<mask id="mask145_372_2880" style="mask-type:luminance" maskUnits="userSpaceOnUse" x="21" y="138" width="5" height="4">
<path d="M23.5303 141.825C24.522 141.825 25.326 141.025 25.326 140.037C25.326 139.05 24.522 138.25 23.5303 138.25C22.5385 138.25 21.7346 139.05 21.7346 140.037C21.7346 141.025 22.5385 141.825 23.5303 141.825Z" fill="white"/>
</mask>
<g mask="url(#mask145_372_2880)">
<mask id="mask146_372_2880" style="mask-type:luminance" maskUnits="userSpaceOnUse" x="-446" y="-286" width="892" height="526">
<path d="M445.837 -285.188H-445.837V239.333H445.837V-285.188Z" fill="white"/>
</mask>
<g mask="url(#mask146_372_2880)">
<path d="M19.1384 135.669H27.9221V144.407H19.1384V135.669Z" fill="#FFBE2E" stroke="#FFBE2E"/>
</g>
</g>
<path d="M225.086 5.60938H228.987" stroke="#424CA0" stroke-width="0.9678" stroke-miterlimit="10" stroke-linecap="round"/>
<path d="M227.005 3.5752V7.58153" stroke="#424CA0" stroke-width="0.9678" stroke-miterlimit="10" stroke-linecap="round"/>
<path d="M289.856 45.4873H293.881" stroke="#424CA0" stroke-width="0.9678" stroke-miterlimit="10" stroke-linecap="round"/>
<path d="M291.776 43.5156V47.4603" stroke="#424CA0" stroke-width="0.9678" stroke-miterlimit="10" stroke-linecap="round"/>
<path d="M296.172 191.38H300.197" stroke="#FFBE2E" stroke-width="0.9678" stroke-miterlimit="10" stroke-linecap="round"/>
<path d="M298.154 189.469V193.352" stroke="#FFBE2E" stroke-width="0.9678" stroke-miterlimit="10" stroke-linecap="round"/>
<path d="M20.0007 188.052H24.0257" stroke="#FFBE2E" stroke-width="0.9678" stroke-miterlimit="10" stroke-linecap="round"/>
<path d="M22.1061 186.141V190.147" stroke="#FFBE2E" stroke-width="0.9678" stroke-miterlimit="10" stroke-linecap="round"/>
<mask id="mask147_372_2880" style="mask-type:luminance" maskUnits="userSpaceOnUse" x="23" y="56" width="39" height="20">
<path d="M58.0208 56.5205H26.7502C25.0783 56.5205 23.7161 57.8765 23.7161 59.5407V67.7999C23.7161 69.4641 25.0783 70.82 26.7502 70.82H51.0236L55.5439 75.3195V70.82H58.0827C59.7546 70.82 61.1169 69.4641 61.1169 67.7999V59.5407C61.1169 57.8765 59.7546 56.5205 58.0208 56.5205Z" fill="white"/>
</mask>
<g mask="url(#mask147_372_2880)">
<mask id="mask148_372_2880" style="mask-type:luminance" maskUnits="userSpaceOnUse" x="-446" y="-286" width="892" height="526">
<path d="M445.837 -285.189H-445.837V239.332H445.837V-285.189Z" fill="white"/>
</mask>
<g mask="url(#mask148_372_2880)">
<path d="M64.1511 53.4385H20.5581V78.401H64.1511V53.4385Z" fill="#9FBEE4"/>
</g>
</g>
<path d="M28.3602 60.4033H52.3239" stroke="white" stroke-width="0.9689" stroke-miterlimit="10" stroke-linecap="round"/>
<path d="M28.3602 63.7314H55.9773" stroke="white" stroke-width="0.9689" stroke-miterlimit="10" stroke-linecap="round"/>
<path d="M28.3602 66.9365H38.2057" stroke="white" stroke-width="0.9689" stroke-miterlimit="10" stroke-linecap="round"/>
<mask id="mask149_372_2880" style="mask-type:luminance" maskUnits="userSpaceOnUse" x="172" y="61" width="39" height="19">
<path d="M207.252 61.0811H175.92C174.248 61.0811 172.886 62.437 172.886 64.1012V72.2988C172.886 73.963 174.248 75.319 175.92 75.319H200.193L204.714 79.7567V75.319H207.252C208.924 75.319 210.287 73.963 210.287 72.2988V64.1012C210.287 62.437 208.924 61.0811 207.252 61.0811Z" fill="white"/>
</mask>
<g mask="url(#mask149_372_2880)">
<mask id="mask150_372_2880" style="mask-type:luminance" maskUnits="userSpaceOnUse" x="-446" y="-286" width="892" height="526">
<path d="M445.837 -285.189H-445.837V239.332H445.837V-285.189Z" fill="white"/>
</mask>
<g mask="url(#mask150_372_2880)">
<path d="M213.383 57.999H169.79V82.8383H213.383V57.999Z" fill="#9FBEE4"/>
</g>
</g>
<path d="M177.592 64.9648H201.494" stroke="white" stroke-width="0.9689" stroke-miterlimit="10" stroke-linecap="round"/>
<path d="M177.592 68.1699H192.082" stroke="white" stroke-width="0.9689" stroke-miterlimit="10" stroke-linecap="round"/>
<path d="M194.249 68.1699H205.209" stroke="white" stroke-width="0.9689" stroke-miterlimit="10" stroke-linecap="round"/>
<path d="M177.592 71.4365H187.437" stroke="white" stroke-width="0.9689" stroke-miterlimit="10" stroke-linecap="round"/>
<mask id="mask151_372_2880" style="mask-type:luminance" maskUnits="userSpaceOnUse" x="117" y="30" width="40" height="39">
<path d="M156.229 49.247C156.229 51.281 155.857 53.2534 155.3 55.1024C152.823 62.7453 145.578 68.2925 136.909 68.2925C134.866 68.2925 132.946 67.9227 131.027 67.4296C127.373 66.3202 124.277 64.1629 121.986 61.3893C119.2 58.061 117.59 53.8697 117.59 49.3086C117.59 38.8305 126.197 30.2015 136.909 30.2015C147.622 30.1399 156.229 38.6456 156.229 49.247Z" fill="white"/>
</mask>
<g mask="url(#mask151_372_2880)">
<mask id="mask152_372_2880" style="mask-type:luminance" maskUnits="userSpaceOnUse" x="-446" y="-286" width="892" height="526">
<path d="M445.837 -285.189H-445.837V239.332H445.837V-285.189Z" fill="white"/>
</mask>
<g mask="url(#mask152_372_2880)">
<path d="M114.993 27.6201H158.825V70.8747H114.993V27.6201Z" fill="#FFBE2E" stroke="#FFBE2E"/>
</g>
</g>
<mask id="mask153_372_2880" style="mask-type:luminance" maskUnits="userSpaceOnUse" x="136" y="27" width="23" height="29">
<path d="M158.148 48.631C158.148 50.8499 157.777 53.0688 157.096 55.1028L136.909 48.631V27.6748C148.674 27.6748 158.148 37.0435 158.148 48.631Z" fill="white"/>
</mask>
<g mask="url(#mask153_372_2880)">
<mask id="mask154_372_2880" style="mask-type:luminance" maskUnits="userSpaceOnUse" x="-446" y="-286" width="892" height="526">
<path d="M445.837 -285.189H-445.837V239.332H445.837V-285.189Z" fill="white"/>
</mask>
<g mask="url(#mask154_372_2880)">
<path d="M161.244 24.5928H133.813V58.1844H161.244V24.5928Z" fill="#E5A000"/>
</g>
</g>
<mask id="mask155_372_2880" style="mask-type:luminance" maskUnits="userSpaceOnUse" x="119" y="48" width="18" height="23">
<path d="M136.909 48.6309L130.036 70.8198C125.825 69.4638 122.11 66.9984 119.323 63.67L136.909 48.6309Z" fill="white"/>
</mask>
<g mask="url(#mask155_372_2880)">
<mask id="mask156_372_2880" style="mask-type:luminance" maskUnits="userSpaceOnUse" x="-446" y="-286" width="892" height="526">
<path d="M445.837 -285.189H-445.837V239.332H445.837V-285.189Z" fill="white"/>
</mask>
<g mask="url(#mask156_372_2880)">
<path d="M140.005 45.5488H116.227V73.9014H140.005V45.5488Z" fill="white"/>
</g>
</g>
<mask id="mask157_372_2880" style="mask-type:luminance" maskUnits="userSpaceOnUse" x="152" y="176" width="7" height="26">
<path d="M158.148 176.155H152.513V201.241H158.148V176.155Z" fill="white"/>
</mask>
<g mask="url(#mask157_372_2880)">
<mask id="mask158_372_2880" style="mask-type:luminance" maskUnits="userSpaceOnUse" x="-446" y="-286" width="892" height="526">
<path d="M445.837 -285.189H-445.837V239.332H445.837V-285.189Z" fill="white"/>
</mask>
<g mask="url(#mask158_372_2880)">
<path d="M149.917 173.574H160.744V203.824H149.917V173.574Z" fill="#FFBE2E" stroke="#FFBE2E"/>
</g>
</g>
<mask id="mask159_372_2880" style="mask-type:luminance" maskUnits="userSpaceOnUse" x="161" y="180" width="7" height="22">
<path d="M167.251 180.224H161.616V201.365H167.251V180.224Z" fill="white"/>
</mask>
<g mask="url(#mask159_372_2880)">
<mask id="mask160_372_2880" style="mask-type:luminance" maskUnits="userSpaceOnUse" x="-446" y="-286" width="892" height="526">
<path d="M445.837 -285.189H-445.837V239.332H445.837V-285.189Z" fill="white"/>
</mask>
<g mask="url(#mask160_372_2880)">
<path d="M159.02 177.642H169.847V203.946H159.02V177.642Z" fill="#FFBE2E" stroke="#FFBE2E"/>
</g>
</g>
<mask id="mask161_372_2880" style="mask-type:luminance" maskUnits="userSpaceOnUse" x="143" y="183" width="7" height="19">
<path d="M149.294 183.675H143.659V201.303H149.294V183.675Z" fill="white"/>
</mask>
<g mask="url(#mask161_372_2880)">
<mask id="mask162_372_2880" style="mask-type:luminance" maskUnits="userSpaceOnUse" x="-446" y="-286" width="892" height="526">
<path d="M445.837 -285.189H-445.837V239.332H445.837V-285.189Z" fill="white"/>
</mask>
<g mask="url(#mask162_372_2880)">
<path d="M141.063 181.094H151.89V203.885H141.063V181.094Z" fill="#FFBE2E" stroke="#FFBE2E"/>
</g>
</g>
<mask id="mask163_372_2880" style="mask-type:luminance" maskUnits="userSpaceOnUse" x="170" y="172" width="7" height="30">
<path d="M176.23 172.889H170.595V201.426H176.23V172.889Z" fill="white"/>
</mask>
<g mask="url(#mask163_372_2880)">
<mask id="mask164_372_2880" style="mask-type:luminance" maskUnits="userSpaceOnUse" x="-446" y="-286" width="892" height="526">
<path d="M445.837 -285.189H-445.837V239.332H445.837V-285.189Z" fill="white"/>
</mask>
<g mask="url(#mask164_372_2880)">
<path d="M167.999 170.307H178.826V204.008H167.999V170.307Z" fill="#FFBE2E" stroke="#FFBE2E"/>
</g>
</g>
<mask id="mask165_372_2880" style="mask-type:luminance" maskUnits="userSpaceOnUse" x="145" y="165" width="30" height="17">
<path d="M146.507 181.518C147.312 181.518 147.869 180.902 147.869 180.162C147.869 179.916 147.807 179.731 147.684 179.546L154.619 173.013C154.805 173.197 155.052 173.259 155.424 173.259C155.857 173.259 156.229 173.074 156.477 172.828L163.102 176.711C163.102 176.772 163.102 176.896 163.102 176.896C163.102 177.635 163.721 178.252 164.464 178.252C165.207 178.252 165.827 177.635 165.827 176.896C165.827 176.649 165.765 176.464 165.641 176.218L172.886 167.712C173.072 167.774 173.257 167.774 173.381 167.774C174.186 167.774 174.743 167.157 174.743 166.418C174.743 165.678 174.124 165.062 173.381 165.062C172.638 165.062 172.019 165.678 172.019 166.418C172.019 166.664 172.081 166.911 172.267 167.157L165.022 175.663C164.836 175.601 164.65 175.478 164.402 175.478C163.969 175.478 163.598 175.663 163.35 175.909L156.724 172.026C156.724 171.965 156.724 171.841 156.724 171.841C156.724 171.102 156.105 170.485 155.362 170.485C154.557 170.485 154 171.102 154 171.841C154 172.026 154 172.211 154.062 172.335L147.126 178.93C146.941 178.868 146.693 178.745 146.445 178.745C145.64 178.745 145.083 179.361 145.083 180.101C145.083 180.902 145.702 181.518 146.507 181.518Z" fill="white"/>
</mask>
<g mask="url(#mask165_372_2880)">
<mask id="mask166_372_2880" style="mask-type:luminance" maskUnits="userSpaceOnUse" x="-446" y="-286" width="892" height="526">
<path d="M445.837 -285.189H-445.837V239.332H445.837V-285.189Z" fill="white"/>
</mask>
<g mask="url(#mask166_372_2880)">
<path d="M142.487 162.541H177.401V184.1H142.487V162.541Z" fill="#FFBE2E" stroke="#FFBE2E"/>
</g>
</g>
<mask id="mask167_372_2880" style="mask-type:luminance" maskUnits="userSpaceOnUse" x="27" y="160" width="19" height="19">
<path d="M36.2242 174.739C33.4997 174.739 31.2705 172.52 31.2705 169.746C31.2705 166.972 33.4997 164.754 36.2242 164.754C38.9488 164.754 41.178 166.972 41.178 169.746C41.178 172.396 38.9488 174.739 36.2242 174.739ZM45.2029 171.225V168.205H43.9026C43.7168 167.157 43.2833 166.171 42.726 165.308L43.5929 164.445L41.4876 162.288L40.6207 163.151C39.7538 162.535 38.763 162.103 37.7104 161.98V160.686H34.6762V161.98C33.6235 162.165 32.6328 162.596 31.7659 163.151L30.899 162.288L28.7936 164.445L29.6605 165.308C29.0413 166.171 28.6079 167.219 28.484 168.205H27.1837V171.225H28.484C28.6698 172.273 29.1032 173.259 29.6605 174.122L28.7936 174.985L30.899 177.142L31.7659 176.279C32.6328 176.896 33.6235 177.327 34.6762 177.451V178.745H37.6484V177.512C38.7011 177.327 39.6919 176.896 40.5588 176.341L41.4257 177.204L43.531 175.047L42.6641 174.184C43.2833 173.321 43.7168 172.273 43.8406 171.287H45.2029V171.225Z" fill="white"/>
</mask>
<g mask="url(#mask167_372_2880)">
<mask id="mask168_372_2880" style="mask-type:luminance" maskUnits="userSpaceOnUse" x="-446" y="-286" width="892" height="526">
<path d="M445.837 -285.188H-445.837V239.333H445.837V-285.188Z" fill="white"/>
</mask>
<g mask="url(#mask168_372_2880)">
<path d="M24.5255 158.104H47.737V181.389H24.5255V158.104Z" fill="#9FBEE4" stroke="#FFBE2E"/>
</g>
</g>
<mask id="mask169_372_2880" style="mask-type:luminance" maskUnits="userSpaceOnUse" x="42" y="171" width="13" height="14">
<path d="M48.4848 181.271C46.6272 181.271 45.141 179.73 45.141 177.943C45.141 176.032 46.5652 174.614 48.4848 174.614C50.4044 174.614 51.8286 176.155 51.8286 177.943C51.8286 179.792 50.4044 181.271 48.4848 181.271ZM54.4912 178.929V176.957H53.6243C53.4386 176.279 53.1909 175.601 52.8813 174.984L53.5005 174.368L52.0763 172.889L51.4571 173.505C50.8378 173.074 50.2805 172.827 49.4756 172.704V171.841H47.4941V172.704C46.8129 172.889 46.1318 173.135 45.5126 173.505L44.8933 172.889L43.4691 174.368L44.0884 174.984C43.6549 175.601 43.4072 176.155 43.3453 176.957H42.4784V178.929H43.3453C43.5311 179.607 43.7788 180.285 44.0884 180.901L43.4691 181.518L44.8933 182.997L45.5126 182.381C46.1318 182.812 46.6891 183.059 47.4941 183.182V184.045H49.4756V183.182C50.1567 182.997 50.8378 182.75 51.4571 182.381L52.0763 182.997L53.5005 181.518L52.8813 180.901C53.3147 180.285 53.5624 179.73 53.6243 178.929H54.4912Z" fill="white"/>
</mask>
<g mask="url(#mask169_372_2880)">
<mask id="mask170_372_2880" style="mask-type:luminance" maskUnits="userSpaceOnUse" x="-446" y="-286" width="892" height="526">
<path d="M445.837 -285.189H-445.837V239.332H445.837V-285.189Z" fill="white"/>
</mask>
<g mask="url(#mask170_372_2880)">
<path d="M39.8203 169.321H57.0873V186.566H39.8203V169.321Z" fill="#FFBE2E" stroke="#FFBE2E"/>
</g>
</g>
<mask id="mask171_372_2880" style="mask-type:luminance" maskUnits="userSpaceOnUse" x="288" y="164" width="19" height="13">
<path d="M306.575 164.753H288.927V176.834H306.575V164.753Z" fill="white"/>
</mask>
<g mask="url(#mask171_372_2880)">
<mask id="mask172_372_2880" style="mask-type:luminance" maskUnits="userSpaceOnUse" x="-446" y="-286" width="892" height="526">
<path d="M445.837 -285.189H-445.837V239.332H445.837V-285.189Z" fill="white"/>
</mask>
<g mask="url(#mask172_372_2880)">
<path d="M309.671 161.671H285.831V179.915H309.671V161.671Z" fill="white"/>
</g>
</g>
<mask id="mask173_372_2880" style="mask-type:luminance" maskUnits="userSpaceOnUse" x="288" y="169" width="19" height="8">
<path d="M288.927 176.895C290.29 175.601 291.776 174.306 293.2 173.073C294.624 171.779 296.11 170.546 297.534 169.375L297.72 169.19L297.906 169.375L300.135 171.163C300.816 171.779 301.559 172.395 302.302 173.073C303.727 174.368 305.213 175.601 306.575 176.895C305.027 175.785 303.479 174.553 302.055 173.443C301.312 172.827 300.631 172.211 299.826 171.656L297.596 169.868H297.968C296.544 171.101 295.058 172.272 293.51 173.505C291.961 174.553 290.475 175.785 288.927 176.895Z" fill="white"/>
</mask>
<g mask="url(#mask173_372_2880)">
<mask id="mask174_372_2880" style="mask-type:luminance" maskUnits="userSpaceOnUse" x="-446" y="-286" width="892" height="526">
<path d="M445.837 -285.189H-445.837V239.332H445.837V-285.189Z" fill="white"/>
</mask>
<g mask="url(#mask174_372_2880)">
<path d="M309.671 166.109H285.831V179.977H309.671V166.109Z" fill="#ADA6D2"/>
</g>
</g>
<mask id="mask175_372_2880" style="mask-type:luminance" maskUnits="userSpaceOnUse" x="288" y="164" width="19" height="9">
<path d="M288.927 164.753L297.782 172.088L306.575 164.753" fill="white"/>
</mask>
<g mask="url(#mask175_372_2880)">
<mask id="mask176_372_2880" style="mask-type:luminance" maskUnits="userSpaceOnUse" x="-446" y="-286" width="892" height="526">
<path d="M445.837 -285.189H-445.837V239.332H445.837V-285.189Z" fill="white"/>
</mask>
<g mask="url(#mask176_372_2880)">
<path d="M309.671 161.671H285.831V175.169H309.671V161.671Z" fill="white"/>
</g>
</g>
<mask id="mask177_372_2880" style="mask-type:luminance" maskUnits="userSpaceOnUse" x="288" y="164" width="19" height="9">
<path d="M288.927 164.753C290.475 165.862 292.023 167.095 293.448 168.205C294.996 169.437 296.42 170.608 297.906 171.841H297.534L299.764 170.054C300.507 169.437 301.188 168.821 301.993 168.266C303.541 167.033 304.965 165.924 306.513 164.815C305.151 166.109 303.665 167.403 302.241 168.636C301.559 169.252 300.816 169.869 300.073 170.547L297.844 172.334L297.658 172.519L297.473 172.334C296.048 171.101 294.562 169.93 293.138 168.636C291.776 167.342 290.29 166.109 288.927 164.753Z" fill="white"/>
</mask>
<g mask="url(#mask177_372_2880)">
<mask id="mask178_372_2880" style="mask-type:luminance" maskUnits="userSpaceOnUse" x="-446" y="-286" width="892" height="526">
<path d="M445.837 -285.189H-445.837V239.332H445.837V-285.189Z" fill="white"/>
</mask>
<g mask="url(#mask178_372_2880)">
<path d="M309.671 161.671H285.831V175.539H309.671V161.671Z" fill="#ADA6D2"/>
</g>
</g>
<mask id="mask179_372_2880" style="mask-type:luminance" maskUnits="userSpaceOnUse" x="299" y="162" width="6" height="5">
<path d="M304.532 164.445C304.532 165.739 303.479 166.787 302.24 166.787C300.94 166.787 299.949 165.739 299.949 164.445C299.949 163.15 301.002 162.103 302.24 162.103C303.479 162.164 304.532 163.15 304.532 164.445Z" fill="white"/>
</mask>
<g mask="url(#mask179_372_2880)">
<mask id="mask180_372_2880" style="mask-type:luminance" maskUnits="userSpaceOnUse" x="-446" y="-286" width="892" height="526">
<path d="M445.837 -285.189H-445.837V239.332H445.837V-285.189Z" fill="white"/>
</mask>
<g mask="url(#mask180_372_2880)">
<path d="M307.628 159.082H296.791V169.93H307.628V159.082Z" fill="#1C134D"/>
</g>
</g>
<path d="M300.816 164.321L301.931 165.493L303.479 163.705" stroke="white" stroke-width="0.5979" stroke-miterlimit="10" stroke-linecap="round" stroke-linejoin="round"/>
<mask id="mask181_372_2880" style="mask-type:luminance" maskUnits="userSpaceOnUse" x="263" y="37" width="19" height="20">
<path d="M265.211 52.0827C264.035 50.5418 263.354 48.6928 263.354 46.7204C263.354 41.8512 267.379 37.7832 272.394 37.7832C277.348 37.7832 281.435 41.7279 281.435 46.7204C281.435 51.5897 277.41 55.6576 272.394 55.6576C270.598 55.6576 268.988 55.1645 267.626 54.3016L263.354 56.6438L265.211 52.0827Z" fill="white"/>
</mask>
<g mask="url(#mask181_372_2880)">
<mask id="mask182_372_2880" style="mask-type:luminance" maskUnits="userSpaceOnUse" x="-446" y="-286" width="892" height="526">
<path d="M445.837 -285.189H-445.837V239.332H445.837V-285.189Z" fill="white"/>
</mask>
<g mask="url(#mask182_372_2880)">
<path d="M260.757 35.2012H284.031V59.2254H260.757V35.2012Z" fill="#FFBE2E" stroke="#FFBE2E"/>
</g>
</g>
<mask id="mask183_372_2880" style="mask-type:luminance" maskUnits="userSpaceOnUse" x="275" y="45" width="4" height="4">
<path d="M275.8 47.0897C275.8 47.9526 276.481 48.6306 277.348 48.6306C278.215 48.6306 278.896 47.9526 278.896 47.0897C278.896 46.2268 278.215 45.5488 277.348 45.5488C276.481 45.6721 275.8 46.2885 275.8 47.0897Z" fill="white"/>
</mask>
<g mask="url(#mask183_372_2880)">
<mask id="mask184_372_2880" style="mask-type:luminance" maskUnits="userSpaceOnUse" x="-446" y="-286" width="892" height="526">
<path d="M445.837 -285.189H-445.837V239.332H445.837V-285.189Z" fill="white"/>
</mask>
<g mask="url(#mask184_372_2880)">
<path d="M281.992 42.5293H272.704V51.7131H281.992V42.5293Z" fill="#586AB2"/>
</g>
</g>
<mask id="mask185_372_2880" style="mask-type:luminance" maskUnits="userSpaceOnUse" x="270" y="45" width="4" height="4">
<path d="M270.846 47.0897C270.846 47.9526 271.527 48.6306 272.394 48.6306C273.261 48.6306 273.942 47.9526 273.942 47.0897C273.942 46.2268 273.261 45.5488 272.394 45.5488C271.527 45.6721 270.846 46.2885 270.846 47.0897Z" fill="white"/>
</mask>
<g mask="url(#mask185_372_2880)">
<mask id="mask186_372_2880" style="mask-type:luminance" maskUnits="userSpaceOnUse" x="-446" y="-286" width="892" height="526">
<path d="M445.837 -285.189H-445.837V239.332H445.837V-285.189Z" fill="white"/>
</mask>
<g mask="url(#mask186_372_2880)">
<path d="M277.038 42.5293H267.75V51.7131H277.038V42.5293Z" fill="#586AB2"/>
</g>
</g>
<mask id="mask187_372_2880" style="mask-type:luminance" maskUnits="userSpaceOnUse" x="265" y="45" width="5" height="4">
<path d="M265.954 47.0897C265.954 47.9526 266.635 48.6306 267.502 48.6306C268.369 48.6306 269.05 47.9526 269.05 47.0897C269.05 46.2268 268.369 45.5488 267.502 45.5488C266.574 45.6721 265.954 46.2885 265.954 47.0897Z" fill="white"/>
</mask>
<g mask="url(#mask187_372_2880)">
<mask id="mask188_372_2880" style="mask-type:luminance" maskUnits="userSpaceOnUse" x="-446" y="-286" width="892" height="526">
<path d="M445.837 -285.189H-445.837V239.332H445.837V-285.189Z" fill="white"/>
</mask>
<g mask="url(#mask188_372_2880)">
<path d="M272.146 42.5293H262.858V51.7131H272.146V42.5293Z" fill="#586AB2"/>
</g>
</g>
<mask id="mask189_372_2880" style="mask-type:luminance" maskUnits="userSpaceOnUse" x="275" y="76" width="21" height="21">
<path d="M285.769 92.5779C283.726 92.5779 281.868 91.4684 280.816 89.8659C280.196 88.9413 279.825 87.8319 279.825 86.5992C279.825 83.3325 282.425 80.6821 285.707 80.6821C287.565 80.6821 289.237 81.545 290.351 82.901C291.218 83.8872 291.59 85.1815 291.59 86.5992C291.59 87.3388 291.404 88.1401 291.156 88.8797C290.413 91.0986 288.308 92.5779 285.769 92.5779ZM293.695 80.5588C291.838 78.2167 289.051 76.6758 285.831 76.6758C280.32 76.6758 275.862 81.1136 275.862 86.5992C275.862 88.6948 276.481 90.5439 277.534 92.1464C279.329 94.8584 282.364 96.5226 285.831 96.5226C289.98 96.5226 293.51 93.9955 295.058 90.4822C295.553 89.3112 295.801 87.9552 295.801 86.5992C295.801 84.3186 294.996 82.223 293.695 80.5588Z" fill="white"/>
</mask>
<g mask="url(#mask189_372_2880)">
<mask id="mask190_372_2880" style="mask-type:luminance" maskUnits="userSpaceOnUse" x="-446" y="-286" width="892" height="526">
<path d="M445.837 -285.188H-445.837V239.333H445.837V-285.188Z" fill="white"/>
</mask>
<g mask="url(#mask190_372_2880)">
<path d="M298.959 73.5947H272.828V99.6667H298.959V73.5947Z" fill="#FFE396"/>
</g>
</g>
<mask id="mask191_372_2880" style="mask-type:luminance" maskUnits="userSpaceOnUse" x="285" y="76" width="9" height="8">
<path d="M293.695 80.5588L290.413 83.0243C289.299 81.6683 287.627 80.8054 285.769 80.8054V76.6758C288.989 76.6758 291.838 78.155 293.695 80.5588Z" fill="white"/>
</mask>
<g mask="url(#mask191_372_2880)">
<mask id="mask192_372_2880" style="mask-type:luminance" maskUnits="userSpaceOnUse" x="-446" y="-286" width="892" height="526">
<path d="M445.837 -285.188H-445.837V239.333H445.837V-285.188Z" fill="white"/>
</mask>
<g mask="url(#mask192_372_2880)">
<path d="M296.791 73.5947H282.673V86.1068H296.791V73.5947Z" fill="#9FBEE4"/>
</g>
</g>
<mask id="mask193_372_2880" style="mask-type:luminance" maskUnits="userSpaceOnUse" x="277" y="88" width="18" height="9">
<path d="M294.996 90.5431C293.448 94.1796 289.918 96.5834 285.769 96.5834C282.302 96.5834 279.268 94.796 277.472 92.2073L280.877 89.8651C281.992 91.4676 283.726 92.5771 285.831 92.5771C288.308 92.5771 290.475 91.0362 291.342 88.8789L294.996 90.5431Z" fill="white"/>
</mask>
<g mask="url(#mask193_372_2880)">
<mask id="mask194_372_2880" style="mask-type:luminance" maskUnits="userSpaceOnUse" x="-446" y="-286" width="892" height="526">
<path d="M445.837 -285.189H-445.837V239.332H445.837V-285.189Z" fill="white"/>
</mask>
<g mask="url(#mask194_372_2880)">
<path opacity="0.63" d="M298.092 85.7969H274.438V99.7266H298.092V85.7969Z" fill="#A3A0CF"/>
</g>
</g>
<mask id="mask195_372_2880" style="mask-type:luminance" maskUnits="userSpaceOnUse" x="-9" y="212" width="346" height="180">
<path d="M336.855 212.521H-8.66907V391.265H336.855V212.521Z" fill="white"/>
</mask>
<g mask="url(#mask195_372_2880)">
<mask id="mask196_372_2880" style="mask-type:luminance" maskUnits="userSpaceOnUse" x="-446" y="-286" width="892" height="526">
<path d="M445.837 -285.189H-445.837V239.332H445.837V-285.189Z" fill="white"/>
</mask>
<g mask="url(#mask196_372_2880)">
<path d="M339.951 209.439H-11.7653V394.347H339.951V209.439Z" fill="white"/>
</g>
</g>
<path d="M1.30035 212.521H326.576" stroke="#1C134D" stroke-width="4" stroke-miterlimit="10" stroke-linecap="round"/>
</g>
</g>
<defs>
<clipPath id="clip0_372_2880">
<rect width="328" height="214" fill="white"/>
</clipPath>
</defs>
</svg>
