<svg width="328" height="214" fill="none" xmlns="http://www.w3.org/2000/svg"><g clip-path="url(#a)"><mask id="b" style="mask-type:luminance" maskUnits="userSpaceOnUse" x="0" y="0" width="328" height="214"><path d="M328 0H0v214h328V0Z" fill="#fff"/></mask><g mask="url(#b)"><mask id="c" style="mask-type:luminance" maskUnits="userSpaceOnUse" x="7" y="2" width="317" height="211"><path d="M14.737 212.028s-22.601-26.997 12.57-65.828c35.172-38.83 12.509-63.793 41.24-108.787C97.28-7.581 169.666-12.82 201.928 39.879c8.793 14.422 39.692 50.788 61.365 61.327 17.524 8.629 58.64 14.978 59.878 66.69.248 11.896-7.678 33.469-18.205 44.132H14.737Z" fill="#fff"/></mask><g mask="url(#c)"><mask id="d" style="mask-type:luminance" maskUnits="userSpaceOnUse" x="-446" y="-286" width="892" height="526"><path d="M445.837-285.189h-891.674v524.521h891.674v-524.521Z" fill="#fff"/></mask><g mask="url(#d)"><path d="M326.328-1.11H4.52v216.158h321.808V-1.109Z" fill="#FFF5C2"/></g></g><mask id="e" style="mask-type:luminance" maskUnits="userSpaceOnUse" x="88" y="182" width="28" height="41"><path d="M115.298 222.136h-21.92l-.743-1.787-4.087-9.801v-28.106h21.116c0-.123 4.086 22.189 5.634 39.694Z" fill="#fff"/></mask><g mask="url(#e)"><mask id="f" style="mask-type:luminance" maskUnits="userSpaceOnUse" x="-446" y="-286" width="892" height="526"><path d="M445.837-285.19h-891.674v524.522h891.674V-285.19Z" fill="#fff"/></mask><g mask="url(#f)"><path d="M118.394 179.299H85.39v45.857h33.004v-45.857Z" fill="#31429B"/></g></g><mask id="g" style="mask-type:luminance" maskUnits="userSpaceOnUse" x="88" y="198" width="5" height="23"><path d="m92.697 220.349-4.025-6.041v-9.862l3.406-5.855c-.062-.062.619 13.868.619 21.758Z" fill="#fff"/></mask><g mask="url(#g)"><mask id="h" style="mask-type:luminance" maskUnits="userSpaceOnUse" x="-446" y="-286" width="892" height="526"><path d="M445.837-285.189h-891.674v524.521h891.674v-524.521Z" fill="#fff"/></mask><g mask="url(#h)"><path d="M95.793 195.448H85.576v27.982h10.217v-27.982Z" fill="#283375"/></g></g><mask id="i" style="mask-type:luminance" maskUnits="userSpaceOnUse" x="59" y="179" width="37" height="46"><path d="M63.841 180.162s-2.848 5.424-3.653 12.758c-.681 5.548.62 27.798.62 27.798l21.982 3.76s7.43-14.484 12.322-38.276c2.23-10.724-19.01-5.794-19.01-5.794" fill="#fff"/></mask><g mask="url(#i)"><mask id="j" style="mask-type:luminance" maskUnits="userSpaceOnUse" x="-446" y="-286" width="892" height="526"><path d="M445.837-285.19h-891.674v524.522h891.674V-285.19Z" fill="#fff"/></mask><g mask="url(#j)"><path d="M98.394 176.217H56.906v51.343h41.488v-51.343Z" fill="#31429B"/></g></g><mask id="k" style="mask-type:luminance" maskUnits="userSpaceOnUse" x="102" y="53" width="6" height="13"><path d="M107.249 56.582s.495 4.684-1.053 8.012c-1.548 3.329-3.53-7.088-3.53-7.088l1.053-3.76" fill="#fff"/></mask><g mask="url(#k)"><mask id="l" style="mask-type:luminance" maskUnits="userSpaceOnUse" x="-446" y="-286" width="892" height="526"><path d="M445.837-285.19h-891.674v524.522h891.674V-285.19Z" fill="#fff"/></mask><g mask="url(#l)"><path d="M110.469 50.726H99.632v17.628h10.837V50.726Z" fill="#1C134D"/></g></g><mask id="m" style="mask-type:luminance" maskUnits="userSpaceOnUse" x="78" y="71" width="18" height="23"><path d="M95.174 79.387s-.248.678-.62 1.726a71.005 71.005 0 0 0-1.3 4.623c-.68 2.712-1.176 5.793-1.052 8.012 0 0-8.484.863-12.694-1.787 0 0 2.538-10.17-1.115-20.093l16.78 7.52Z" fill="#fff"/></mask><g mask="url(#m)"><mask id="n" style="mask-type:luminance" maskUnits="userSpaceOnUse" x="-446" y="-286" width="892" height="526"><path d="M445.837-285.19h-891.674v524.522h891.674V-285.19Z" fill="#fff"/></mask><g mask="url(#n)"><path d="M98.332 68.724H75.421v28.168h22.911V68.724Z" fill="#B78876"/></g></g><mask id="o" style="mask-type:luminance" maskUnits="userSpaceOnUse" x="81" y="76" width="14" height="10"><path d="M94.555 81.051a71.05 71.05 0 0 0-1.3 4.623c-7.37-2.404-11.642-8.937-11.642-8.937l12.942 4.314Z" fill="#fff"/></mask><g mask="url(#o)"><mask id="p" style="mask-type:luminance" maskUnits="userSpaceOnUse" x="-446" y="-286" width="892" height="526"><path d="M445.837-285.19h-891.674v524.522h891.674V-285.19Z" fill="#fff"/></mask><g mask="url(#p)"><path d="M97.713 73.655H78.579v15.1h19.134v-15.1Z" fill="#9A644F"/></g></g><mask id="q" style="mask-type:luminance" maskUnits="userSpaceOnUse" x="73" y="41" width="34" height="43"><path d="M79.755 76.737c3.344 3.944 22.23 11.772 24.893 2.465 2.663-9.307 1.362-20.34 0-27.12-.867-4.19-3.096-12.08-14.304-10.91-11.022 1.234-25.264 18.492-10.589 35.565Z" fill="#fff"/></mask><g mask="url(#q)"><mask id="r" style="mask-type:luminance" maskUnits="userSpaceOnUse" x="-446" y="-286" width="892" height="526"><path d="M445.837-285.19h-891.674v524.522h891.674V-285.19Z" fill="#fff"/></mask><g mask="url(#r)"><path d="M109.354 37.968H70.405v48.63h38.949v-48.63Z" fill="#B78876"/></g></g><mask id="s" style="mask-type:luminance" maskUnits="userSpaceOnUse" x="63" y="35" width="17" height="17"><path d="M74.182 51.096s-9.102.863-10.774-4.93c-1.734-5.794 4.768-13.13 10.465-10.047 5.758 3.081 5.14 10.478 5.14 10.478" fill="#fff"/></mask><g mask="url(#s)"><mask id="t" style="mask-type:luminance" maskUnits="userSpaceOnUse" x="-446" y="-286" width="892" height="526"><path d="M445.837-285.19h-891.674v524.522h891.674V-285.19Z" fill="#fff"/></mask><g mask="url(#t)"><path d="M82.108 32.236H60.064v21.942h22.044V32.236Z" fill="#1C134D"/></g></g><mask id="u" style="mask-type:luminance" maskUnits="userSpaceOnUse" x="70" y="41" width="10" height="11"><path d="M70.343 51.774s.929-8.629 9.165-10.17l-3.096 5.054-6.069 5.116Z" fill="#fff"/></mask><g mask="url(#u)"><mask id="v" style="mask-type:luminance" maskUnits="userSpaceOnUse" x="-446" y="-286" width="892" height="526"><path d="M445.837-285.19h-891.674v524.522h891.674V-285.19Z" fill="#fff"/></mask><g mask="url(#v)"><path d="M82.604 38.522H67.247v16.334h15.357V38.522Z" fill="#586AB2"/></g></g><mask id="w" style="mask-type:luminance" maskUnits="userSpaceOnUse" x="68" y="39" width="36" height="41"><path d="M103.286 49.617s-3.096 13.375-21.735 13.868c0 0-1.796-.493-2.539 1.11-.433.924-.495 2.403-.062 3.82 1.115 3.576 1.858 7.274 1.3 10.972l.063.431s-9.227-1.17-11.704-14.422C65.7 50.048 79.755 37.72 89.291 39.139c3.901.74 13.19 4.068 13.995 10.478Z" fill="#fff"/></mask><g mask="url(#w)"><mask id="x" style="mask-type:luminance" maskUnits="userSpaceOnUse" x="-446" y="-286" width="892" height="526"><path d="M445.837-285.19h-891.674v524.522h891.674V-285.19Z" fill="#fff"/></mask><g mask="url(#x)"><path d="M106.382 36.057H65.08v46.905h41.302V36.057Z" fill="#1C134D"/></g></g><mask id="y" style="mask-type:luminance" maskUnits="userSpaceOnUse" x="85" y="38" width="23" height="20"><path d="M97.341 49.37s5.821 7.951 10.341 8.198c0 0 1.424-10.848-4.706-15.224-8.36-5.979-17.957-2.897-17.957-2.897" fill="#fff"/></mask><g mask="url(#y)"><mask id="z" style="mask-type:luminance" maskUnits="userSpaceOnUse" x="-446" y="-286" width="892" height="526"><path d="M445.837-285.19h-891.674v524.522h891.674V-285.19Z" fill="#fff"/></mask><g mask="url(#z)"><path d="M110.964 35.502H81.923v25.086h29.041V35.502Z" fill="#1C134D"/></g></g><mask id="A" style="mask-type:luminance" maskUnits="userSpaceOnUse" x="70" y="89" width="32" height="13"><path d="M80.003 89.619s-.062 1.356-1.61 2.28c-2.23 1.48-6.068 2.959-8.112 3.76 0 0 17.834 12.697 30.899-.863 0 0-4.768-1.48-6.068-2.404-3.158-2.28-2.539-3.39-2.539-3.39" fill="#fff"/></mask><g mask="url(#A)"><mask id="B" style="mask-type:luminance" maskUnits="userSpaceOnUse" x="-446" y="-286" width="892" height="526"><path d="M445.837-285.19h-891.674v524.522h891.674V-285.19Z" fill="#fff"/></mask><g mask="url(#B)"><path d="M104.276 85.92h-37.09v18.183h37.09V85.921Z" fill="#B78876"/></g></g><mask id="C" style="mask-type:luminance" maskUnits="userSpaceOnUse" x="102" y="119" width="20" height="31"><path d="M102.481 122.656s3.096 9.368 5.634 16.456c1.363 3.76 2.973 6.657 3.406 7.273 1.362 1.726 3.158 3.76 6.316 2.034 3.158-1.725 3.654-3.143 3.158-6.41-.619-3.328-6.006-22.435-6.006-22.435" fill="#fff"/></mask><g mask="url(#C)"><mask id="D" style="mask-type:luminance" maskUnits="userSpaceOnUse" x="-446" y="-286" width="892" height="526"><path d="M445.837-285.19h-891.674v524.522h891.674V-285.19Z" fill="#fff"/></mask><g mask="url(#D)"><path d="M124.339 116.492H99.385v35.625h24.954v-35.625Z" fill="#B78876"/></g></g><mask id="E" style="mask-type:luminance" maskUnits="userSpaceOnUse" x="108" y="113" width="32" height="40"><path d="M108.115 139.112s4.459 14.916 10.713 13.56c3.282-.863 8.979-13.313 11.579-18.306 8.112-15.594 8.731-19.107 8.731-19.107l-4.087-1.849s-16.285 20.771-17.523 22.744" fill="#fff"/></mask><g mask="url(#E)"><mask id="F" style="mask-type:luminance" maskUnits="userSpaceOnUse" x="-446" y="-286" width="892" height="526"><path d="M445.837-285.19h-891.674v524.522h891.674V-285.19Z" fill="#fff"/></mask><g mask="url(#F)"><path d="M142.172 110.267h-37.153v45.549h37.153v-45.549Z" fill="#B78876"/></g></g><mask id="G" style="mask-type:luminance" maskUnits="userSpaceOnUse" x="61" y="92" width="49" height="93"><path d="M109.664 182.319c-20.001 4.438-38.454 1.603-46.813.185-.93-2.712.371-7.273 1.424-11.403 3.282-12.882 1.734-27.674.62-36.55-.434-3.575-.868-6.04-.868-7.149 0-.863-.062-1.973-.186-3.144-.619-7.643-2.538-21.326-2.724-23.175-.186-2.157 12.137-6.842 12.137-6.842s21.92 13.129 23.282-1.294c0 0 6.068 1.85 10.898 4.376.929 6.287 1.363 19.97 1.548 26.997.062 2.712-2.291 7.766-2.291 7.766s.372 21.326 1.425 36.797c.433 5.732 1.857 11.279 1.548 13.436Z" fill="#fff"/></mask><g mask="url(#G)"><mask id="H" style="mask-type:luminance" maskUnits="userSpaceOnUse" x="-446" y="-286" width="892" height="526"><path d="M445.837-285.189h-891.674v524.521h891.674v-524.521Z" fill="#fff"/></mask><g mask="url(#H)"><path d="M112.822 89.804H58.021v97.939h54.801v-97.94Z" fill="#fff"/></g></g><mask id="I" style="mask-type:luminance" maskUnits="userSpaceOnUse" x="63" y="117" width="8" height="18"><path d="M70.157 117.293s-.247 10.91-1.61 16.704c0 0-1.362.616-3.591.616-.434-3.575-.867-6.04-.867-7.15 0-.863-.062-1.972-.186-3.143l6.254-7.027Z" fill="#fff"/></mask><g mask="url(#I)"><mask id="J" style="mask-type:luminance" maskUnits="userSpaceOnUse" x="-446" y="-286" width="892" height="526"><path d="M445.837-285.189h-891.674v524.521h891.674v-524.521Z" fill="#fff"/></mask><g mask="url(#J)"><path d="M73.315 114.211H60.87v23.484h12.446v-23.484Z" fill="#E9ECF1"/></g></g><mask id="K" style="mask-type:luminance" maskUnits="userSpaceOnUse" x="60" y="124" width="40" height="53"><path d="m93.44 176.772-33.19-3.513 5.511-48.323 33.252 3.575-5.573 48.261Z" fill="#fff"/></mask><g mask="url(#K)"><mask id="L" style="mask-type:luminance" maskUnits="userSpaceOnUse" x="-446" y="-286" width="892" height="526"><path d="M445.837-285.19h-891.674v524.522h891.674V-285.19Z" fill="#fff"/></mask><g mask="url(#L)"><path d="M102.109 121.854H57.154v58h44.955v-58Z" fill="#5065AF"/></g></g><mask id="M" style="mask-type:luminance" maskUnits="userSpaceOnUse" x="57" y="124" width="40" height="53"><path d="m91.087 176.525-33.314-3.513 5.573-48.322 33.314 3.574-5.573 48.261Z" fill="#fff"/></mask><g mask="url(#M)"><mask id="N" style="mask-type:luminance" maskUnits="userSpaceOnUse" x="-446" y="-286" width="892" height="526"><path d="M445.837-285.19h-891.674v524.522h891.674V-285.19Z" fill="#fff"/></mask><g mask="url(#N)"><path d="M99.756 121.608H54.677v57.999h45.08v-57.999Z" fill="#586AB2"/></g></g><mask id="O" style="mask-type:luminance" maskUnits="userSpaceOnUse" x="52" y="121" width="16" height="31"><path d="M54.863 121.731s-1.115 9.8-1.796 17.32c-.372 4.006-.062 7.273.062 8.012.495 2.158 1.3 4.685 4.892 4.5 3.591-.185 4.706-1.356 5.573-4.5.867-3.328 3.963-22.867 3.963-22.867" fill="#fff"/></mask><g mask="url(#O)"><mask id="P" style="mask-type:luminance" maskUnits="userSpaceOnUse" x="-446" y="-286" width="892" height="526"><path d="M445.837-285.19h-891.674v524.522h891.674V-285.19Z" fill="#fff"/></mask><g mask="url(#P)"><path d="M70.59 118.649H49.786v35.996h20.806v-35.996Z" fill="#B78876"/></g></g><mask id="Q" style="mask-type:luminance" maskUnits="userSpaceOnUse" x="52" y="139" width="39" height="19"><path d="M53.067 139.359s-1.362 11.094 2.291 14.546c2.415 1.541 7.802 1.972 13.375 2.465 17.524 1.726 21.054 1.048 21.054 1.048l.247-4.499s-25.45-7.273-27.74-7.766" fill="#fff"/></mask><g mask="url(#Q)"><mask id="R" style="mask-type:luminance" maskUnits="userSpaceOnUse" x="-446" y="-286" width="892" height="526"><path d="M445.837-285.19h-891.674v524.522h891.674V-285.19Z" fill="#fff"/></mask><g mask="url(#R)"><path d="M93.13 136.277H49.723v24.346H93.13v-24.346Z" fill="#B78876"/></g></g><mask id="S" style="mask-type:luminance" maskUnits="userSpaceOnUse" x="86" y="150" width="12" height="10"><path d="M87.496 152.118s1.981.616 3.777 0c.929-.37 1.981-1.048 2.538-1.172.496-.184 3.344.432 3.778.617.433.185 0 .863-.434 1.048-.433.185-1.61.185-1.61.185l-1.052.924-.248 5.424s-.681.247-2.167.247c-1.548 0-2.725-1.48-5.82-1.726" fill="#fff"/></mask><g mask="url(#S)"><mask id="T" style="mask-type:luminance" maskUnits="userSpaceOnUse" x="-446" y="-286" width="892" height="526"><path d="M445.837-285.189h-891.674v524.521h891.674v-524.521Z" fill="#fff"/></mask><g mask="url(#T)"><path d="M100.809 147.865H83.161v14.607h17.648v-14.607Z" fill="#B78876"/></g></g><mask id="U" style="mask-type:luminance" maskUnits="userSpaceOnUse" x="92" y="152" width="6" height="8"><path d="M95.979 152.302s1.176.494 1.3.925c.124.431-.371 4.931-1.114 5.547-.434.37-2.91.432-2.91.432l-.372-1.603s-.062-3.39 0-3.513c.062-.062 1.424-1.294 1.424-1.294l1.672-.494Z" fill="#fff"/></mask><g mask="url(#U)"><mask id="V" style="mask-type:luminance" maskUnits="userSpaceOnUse" x="-446" y="-286" width="892" height="526"><path d="M445.837-285.19h-891.674v524.522h891.674V-285.19Z" fill="#fff"/></mask><g mask="url(#V)"><path d="M100.313 149.221H89.725v13.066h10.588v-13.066Z" fill="#B78876"/></g></g><mask id="W" style="mask-type:luminance" maskUnits="userSpaceOnUse" x="77" y="61" width="7" height="10"><path d="M83.47 64.04s-.619-4.068-4.272-2.712c-2.91 1.048-.929 6.471.186 8.32 1.114 1.85 3.344 1.357 3.591 0" fill="#fff"/></mask><g mask="url(#W)"><mask id="X" style="mask-type:luminance" maskUnits="userSpaceOnUse" x="-446" y="-286" width="892" height="526"><path d="M445.837-285.19h-891.674v524.522h891.674V-285.19Z" fill="#fff"/></mask><g mask="url(#X)"><path d="M86.567 57.938H74.554v16.025h12.013V57.938Z" fill="#B78876"/></g></g><mask id="Y" style="mask-type:luminance" maskUnits="userSpaceOnUse" x="103" y="97" width="16" height="37"><path d="M118.828 130.607s-5.821-30.942-11.394-33.346c.496 3.514-4.52 12.081-4.21 18.491.619 9.369 2.91 17.32 2.91 17.32 8.236-.37 12.694-2.465 12.694-2.465Z" fill="#fff"/></mask><g mask="url(#Y)"><mask id="Z" style="mask-type:luminance" maskUnits="userSpaceOnUse" x="-446" y="-286" width="892" height="526"><path d="M445.837-285.189h-891.674v524.521h891.674v-524.521Z" fill="#fff"/></mask><g mask="url(#Z)"><path d="M121.924 94.18h-21.796v41.974h21.796V94.18Z" fill="#fff"/></g></g><mask id="aa" style="mask-type:luminance" maskUnits="userSpaceOnUse" x="50" y="98" width="21" height="36"><path d="M64.646 98.124s-8.73 3.575-11.207 16.457c-2.292 12.019-2.725 16.95-2.725 16.95s10.155 3.144 16.347 1.541c1.177-4.006 3.158-16.703 3.158-16.703" fill="#fff"/></mask><g mask="url(#aa)"><mask id="ab" style="mask-type:luminance" maskUnits="userSpaceOnUse" x="-446" y="-286" width="892" height="526"><path d="M445.837-285.19h-891.674v524.522h891.674V-285.19Z" fill="#fff"/></mask><g mask="url(#ab)"><path d="M73.254 95.043H47.556v41.542h25.698V95.043Z" fill="#fff"/></g></g><mask id="ac" style="mask-type:luminance" maskUnits="userSpaceOnUse" x="103" y="108" width="7" height="25"><path d="M103.905 108.233s2.91 6.225 4.334 10.539c1.425 4.253-1.548 13.314-1.548 13.314s3.344-5.794 2.911-11.958c-.372-6.102-5.697-11.895-5.697-11.895Z" fill="#fff"/></mask><g mask="url(#ac)"><mask id="ad" style="mask-type:luminance" maskUnits="userSpaceOnUse" x="-446" y="-286" width="892" height="526"><path d="M445.837-285.19h-891.674v524.522h891.674V-285.19Z" fill="#fff"/></mask><g mask="url(#ad)"><path d="M112.76 105.151h-11.951v30.017h11.951v-30.017Z" fill="#E9ECF1"/></g></g><mask id="ae" style="mask-type:luminance" maskUnits="userSpaceOnUse" x="133" y="100" width="15" height="18"><path d="M133.627 115.259s1.053-1.726 1.053-2.219c.062-2.219.062-8.197 1.3-10.416 0 0 .867-.247 1.177.739.371 1.048-.434 2.836-.062 3.637.371.925.929.493 1.548 0 .433-.37 1.981-2.281 2.91-4.253.372-1.171.929-2.465 1.177-2.465.681 0 .619.924.495 1.787 0 .185-.186.863-.433 1.603a15.68 15.68 0 0 1-1.053 2.219s.495-.74 1.424-1.85c.372-.678.619-1.171 1.053-2.157.371-1.171.929-1.356 1.176-1.109.248.246 0 1.109-.371 2.465-.186.678-.619 1.541-.929 2.157-.619 1.048-1.176 1.726-1.176 1.726s.681-.863 1.424-1.787c.433-.493.867-1.356 1.3-2.157.186-1.48.929-1.973 1.115-1.726.186.185.062 1.294-.062 2.404-.186.862-.434 1.54-.743 2.034-.743 1.109-1.548 2.157-1.548 2.157s2.229-3.082 2.662-2.651c.496.494-1.733 3.575-2.291 4.623-.619 1.048-2.291 2.897-3.158 3.328-.867.37-2.848 3.575-2.972 4.253" fill="#fff"/></mask><g mask="url(#ae)"><mask id="af" style="mask-type:luminance" maskUnits="userSpaceOnUse" x="-446" y="-286" width="892" height="526"><path d="M445.837-285.19h-891.674v524.522h891.674V-285.19Z" fill="#fff"/></mask><g mask="url(#af)"><path d="M150.222 97.261h-19.691v23.484h19.691V97.261Z" fill="#F59394"/></g></g><mask id="ag" style="mask-type:luminance" maskUnits="userSpaceOnUse" x="145" y="104" width="3" height="3"><path d="M145.702 106.384s.867-1.603 1.053-1.788c.185-.185.495-.616.867-.37.371.37-.929 2.651-.929 2.651" fill="#fff"/></mask><g mask="url(#ag)"><mask id="ah" style="mask-type:luminance" maskUnits="userSpaceOnUse" x="-446" y="-286" width="892" height="526"><path d="M445.837-285.189h-891.674v524.521h891.674v-524.521Z" fill="#fff"/></mask><g mask="url(#ah)"><path d="M150.718 101.083h-8.112v8.876h8.112v-8.876Z" fill="#F59394"/></g></g><mask id="ai" style="mask-type:luminance" maskUnits="userSpaceOnUse" x="83" y="50" width="20" height="14"><path d="M102.295 50.788c-.062 1.048-.372 2.034-.681 3.082-.434.924-.867 1.972-1.424 2.835-1.115 1.788-2.725 3.267-4.52 4.376a16.908 16.908 0 0 1-6.007 2.034c-1.053.185-2.044.185-3.158.37-1.053-.062-2.044-.062-3.158-.185 1.053-.061 2.043-.185 3.096-.246 1.053-.185 2.043-.247 3.096-.494.929-.246 1.981-.431 2.91-.862.434-.185.93-.37 1.363-.617l1.362-.678c3.53-2.095 6.192-5.609 7.121-9.615Z" fill="#fff"/></mask><g mask="url(#ai)"><mask id="aj" style="mask-type:luminance" maskUnits="userSpaceOnUse" x="-446" y="-286" width="892" height="526"><path d="M445.837-285.19h-891.674v524.522h891.674V-285.19Z" fill="#fff"/></mask><g mask="url(#aj)"><path d="M105.391 47.706H80.189v18.8h25.202v-18.8Z" fill="#1C134D"/></g></g><mask id="ak" style="mask-type:luminance" maskUnits="userSpaceOnUse" x="79" y="68" width="3" height="3"><path d="M80.436 70.327c.496 0 .867-.37.867-.863a.845.845 0 0 0-.867-.863.845.845 0 0 0-.866.863c.062.493.433.863.867.863Z" fill="#fff"/></mask><g mask="url(#ak)"><mask id="al" style="mask-type:luminance" maskUnits="userSpaceOnUse" x="-446" y="-286" width="892" height="526"><path d="M445.837-285.189h-891.674v524.521h891.674v-524.521Z" fill="#fff"/></mask><g mask="url(#al)"><path d="M84.461 65.519h-7.926v7.89h7.926v-7.89Z" fill="#fff"/></g></g><mask id="am" style="mask-type:luminance" maskUnits="userSpaceOnUse" x="79" y="63" width="3" height="5"><path d="M79.508 63.793s1.052-.493 1.795.678c1.053 1.48.743 2.897-.371 2.712-.62-.062-.681-1.048-.434-1.48.372-.615.93-.369.93-.369s-.434-1.726-1.92-1.54Z" fill="#fff"/></mask><g mask="url(#am)"><mask id="an" style="mask-type:luminance" maskUnits="userSpaceOnUse" x="-446" y="-286" width="892" height="526"><path d="M445.837-285.19h-891.674v524.522h891.674V-285.19Z" fill="#fff"/></mask><g mask="url(#an)"><path d="M85.019 60.588H76.41v9.677h8.608v-9.677Z" fill="#9A644F"/></g></g><mask id="ao" style="mask-type:luminance" maskUnits="userSpaceOnUse" x="206" y="177" width="38" height="190"><path d="M243.415 220.164a99.582 99.582 0 0 1-.681 6.656c-.682 3.822-2.23 9.985-4.211 16.765-3.406 11.649-7.802 25.456-10.279 33.469 9.598 19.538-4.087 84.194-5.821 89.557-4.768.862-8.359.061-10.093-.493-2.043-29.832-5.573-90.42-5.449-91.9.743-30.694 4.52-58.862 4.892-63.423.371-4.499.743-29.77 2.972-30.572 4.768-1.787 17.214-5.855 22.787 2.219 5.635 8.506 6.564 26.196 5.883 37.722Z" fill="#fff"/></mask><g mask="url(#ao)"><mask id="ap" style="mask-type:luminance" maskUnits="userSpaceOnUse" x="-446" y="-286" width="892" height="526"><path d="M445.837-285.19h-891.674v524.522h891.674V-285.19Z" fill="#fff"/></mask><g mask="url(#ap)"><path d="M246.696 174.553h-42.911v195.571h42.911V174.553Z" fill="#31429B"/></g></g><mask id="aq" style="mask-type:luminance" maskUnits="userSpaceOnUse" x="236" y="207" width="8" height="37"><path d="M243.415 220.164a99.582 99.582 0 0 1-.681 6.656c-.682 3.822-2.23 9.985-4.211 16.765-.619-9.615-1.734-36.488-1.734-36.488l6.626 13.067Z" fill="#fff"/></mask><g mask="url(#aq)"><mask id="ar" style="mask-type:luminance" maskUnits="userSpaceOnUse" x="-446" y="-286" width="892" height="526"><path d="M445.837-285.19h-891.674v524.522h891.674V-285.19Z" fill="#fff"/></mask><g mask="url(#ar)"><path d="M246.511 204.015h-12.756v42.652h12.756v-42.652Z" fill="#27316E"/></g></g><mask id="as" style="mask-type:luminance" maskUnits="userSpaceOnUse" x="230" y="183" width="44" height="189"><path d="M262.61 370.37c-4.706 2.281-8.916 1.171-10.588.678.619 1.356-12.818-67.244-14.366-80.866-.062-.863-.433-4.499-.495-5.732-.62-7.088.247-42.344.062-56.335l.433-44.502s-13.189-1.171-3.963.37c11.827 1.973 27.741-.431 27.741-.431 15.604 20.956 12.942 40.371 9.907 49.678-1.176 3.76-2.229 7.582-2.91 11.526-2.539 14.3-9.412 32.729-11.022 42.344 14.242 33.715 6.378 72.546 5.201 83.27Z" fill="#fff"/></mask><g mask="url(#as)"><mask id="at" style="mask-type:luminance" maskUnits="userSpaceOnUse" x="-446" y="-286" width="892" height="526"><path d="M445.837-285.19h-891.674v524.522h891.674V-285.19Z" fill="#fff"/></mask><g mask="url(#at)"><path d="M276.667 180.162h-49.414V374.87h49.414V180.162Z" fill="#31429B"/></g></g><mask id="au" style="mask-type:luminance" maskUnits="userSpaceOnUse" x="138" y="136" width="26" height="16"><path d="m163.969 144.228-6.873-1.602s-1.363-.74-3.777-3.39c-2.415-2.651-5.759-2.404-6.44-2.281-.682 0-.743.925.495 1.788.867.616 2.291.369 2.848 2.218.248.863-2.229.925-3.529.493-1.301-.431-5.573-2.465-6.688-2.958-1.114-.432-2.043.247.867 2.404 2.663 1.972 3.592 2.404 4.644 2.958 0 0 .62 1.295 1.053 1.788.062.185.372.246.495.37.186.369.62 1.294.929 1.725.062.062.186.185.248.185.248.493.495 1.11.743 1.541.867 1.788 4.335 1.295 5.883 1.11 1.548-.185 8.049 1.294 8.049 1.294l1.053-7.643Z" fill="#fff"/></mask><g mask="url(#au)"><mask id="av" style="mask-type:luminance" maskUnits="userSpaceOnUse" x="-446" y="-286" width="892" height="526"><path d="M445.837-285.19h-891.674v524.522h891.674V-285.19Z" fill="#fff"/></mask><g mask="url(#av)"><path d="M167.065 133.75h-31.147v21.018h31.147V133.75Z" fill="#FBBD9E"/></g></g><mask id="aw" style="mask-type:luminance" maskUnits="userSpaceOnUse" x="135" y="140" width="14" height="7"><path d="M147.312 143.735s-1.796-.062-4.334-.925c-2.539-.862-5.821-2.65-6.502-2.712-.681-.061-.743.74 0 1.48.743.678 2.848 1.849 4.025 2.465 1.424.678 7.616 2.281 7.616 2.281" fill="#fff"/></mask><g mask="url(#aw)"><mask id="ax" style="mask-type:luminance" maskUnits="userSpaceOnUse" x="-446" y="-286" width="892" height="526"><path d="M445.837-285.189h-891.674v524.521h891.674v-524.521Z" fill="#fff"/></mask><g mask="url(#ax)"><path d="M151.213 136.955h-18.391v12.389h18.391v-12.389Z" fill="#F59394"/></g></g><mask id="ay" style="mask-type:luminance" maskUnits="userSpaceOnUse" x="136" y="143" width="14" height="6"><path d="M148.179 145.522s-1.796.185-4.458-.431c-2.663-.616-6.069-1.972-6.75-1.972s-.681.863.186 1.479c.867.616 3.096 1.541 4.273 2.034 1.424.493 7.864 2.157 7.864 2.157" fill="#fff"/></mask><g mask="url(#ay)"><mask id="az" style="mask-type:luminance" maskUnits="userSpaceOnUse" x="-446" y="-286" width="892" height="526"><path d="M445.837-285.19h-891.674v524.522h891.674V-285.19Z" fill="#fff"/></mask><g mask="url(#az)"><path d="M152.39 140.037h-19.01v11.772h19.01v-11.772Z" fill="#FBBD9E"/></g></g><mask id="aA" style="mask-type:luminance" maskUnits="userSpaceOnUse" x="138" y="145" width="14" height="6"><path d="M150.284 148.111s-1.795.185-4.458-.431c-2.663-.617-6.068-1.973-6.75-1.973-.681 0-.681.863.186 1.48.867.616 3.096 1.541 4.273 2.034 1.424.493 7.864 1.479 7.864 1.479" fill="#fff"/></mask><g mask="url(#aA)"><mask id="aB" style="mask-type:luminance" maskUnits="userSpaceOnUse" x="-446" y="-286" width="892" height="526"><path d="M445.837-285.189h-891.674v524.521h891.674v-524.521Z" fill="#fff"/></mask><g mask="url(#aB)"><path d="M154.495 142.687h-19.01v11.095h19.01v-11.095Z" fill="#FBBD9E"/></g></g><mask id="aC" style="mask-type:luminance" maskUnits="userSpaceOnUse" x="195" y="92" width="31" height="59"><path d="M225.891 123.087c-4.087 10.293-14.366 26.935-14.366 26.935-6.688.616-15.604-2.527-15.604-2.527 1.114-12.512 12.508-46.35 12.508-46.35s.681-5.363 15.233-9.123" fill="#fff"/></mask><g mask="url(#aC)"><mask id="aD" style="mask-type:luminance" maskUnits="userSpaceOnUse" x="-446" y="-286" width="892" height="526"><path d="M445.837-285.19h-891.674v524.522h891.674V-285.19Z" fill="#fff"/></mask><g mask="url(#aD)"><path d="M228.987 88.88h-36.163v64.285h36.163V88.879Z" fill="#6D8EC9"/></g></g><mask id="aE" style="mask-type:luminance" maskUnits="userSpaceOnUse" x="160" y="136" width="60" height="28"><path d="m202.237 146.878-40.559-3.574-1.424 8.382s30.651 11.773 42.107 11.649c9.412 0 16.78-26.503 16.78-26.503l-16.904 10.046Z" fill="#fff"/></mask><g mask="url(#aE)"><mask id="aF" style="mask-type:luminance" maskUnits="userSpaceOnUse" x="-446" y="-286" width="892" height="526"><path d="M445.837-285.19h-891.674v524.522h891.674V-285.19Z" fill="#fff"/></mask><g mask="url(#aF)"><path d="M222.237 133.75h-65.08v32.667h65.08V133.75Z" fill="#6D8EC9"/></g></g><mask id="aG" style="mask-type:luminance" maskUnits="userSpaceOnUse" x="208" y="110" width="5" height="50"><path d="M211.339 110.02s-2.043 30.695-2.972 49.864c0 0 2.725-3.267 4.458-6.719l-1.486-43.145Z" fill="#fff"/></mask><g mask="url(#aG)"><mask id="aH" style="mask-type:luminance" maskUnits="userSpaceOnUse" x="-446" y="-286" width="892" height="526"><path d="M445.837-285.19h-891.674v524.522h891.674V-285.19Z" fill="#fff"/></mask><g mask="url(#aH)"><path d="M215.86 106.938h-10.651v56.027h10.651v-56.027Z" fill="#4B72B8"/></g></g><mask id="aI" style="mask-type:luminance" maskUnits="userSpaceOnUse" x="210" y="90" width="58" height="99"><path d="M266.016 143.735c-.681 3.575-1.796 9.554-2.91 15.409-.434 2.219-.743 4.499-1.115 6.533-.743 4.685-.867 8.445-.495 10.54.743 4.684 1.734 6.842.495 8.198-2.662 3.143-21.115 4.438-29.784 4.438-7.678 0-20.806-2.034-21.487-4.5-1.053-3.636.248-3.636.619-7.519.372-3.822-1.857-75.258 1.177-78.771 3.591-2.959 9.226-5.794 14.985-7.643 4.025-.678 10.96-.37 18.143 1.54 8.359 2.158 18.143 4.007 19.629 7.15 1.239 3.082 2.787 33.962.743 44.625Z" fill="#fff"/></mask><g mask="url(#aI)"><mask id="aJ" style="mask-type:luminance" maskUnits="userSpaceOnUse" x="-446" y="-286" width="892" height="526"><path d="M445.837-285.19h-891.674v524.522h891.674V-285.19Z" fill="#fff"/></mask><g mask="url(#aJ)"><path d="M270.103 87.03h-62.851v104.904h62.851V87.03Z" fill="#6D8EC9"/></g></g><mask id="aK" style="mask-type:luminance" maskUnits="userSpaceOnUse" x="222" y="147" width="42" height="19"><path d="M263.106 159.144c-.434 2.219-.743 4.499-1.115 6.533-14.366-5.793-38.701-18.305-39.444-18.675l40.559 12.142Z" fill="#fff"/></mask><g mask="url(#aK)"><mask id="aL" style="mask-type:luminance" maskUnits="userSpaceOnUse" x="-446" y="-286" width="892" height="526"><path d="M445.837-285.19h-891.674v524.522h891.674V-285.19Z" fill="#fff"/></mask><g mask="url(#aL)"><path d="M266.202 143.92h-46.751v24.839h46.751V143.92Z" fill="#4B72B8"/></g></g><mask id="aM" style="mask-type:luminance" maskUnits="userSpaceOnUse" x="226" y="123" width="39" height="30"><path d="m264.53 152.302-3.839-21.326-4.335-7.766s.496 8.198 1.177 17.813c-10.155-1.479-30.837-3.328-30.837-3.328s19.072 5.978 19.877 6.163c.619.185 8.359 1.048 11.269 1.356.186 2.281.372 4.685.62 6.965h6.068v.123Z" fill="#fff"/></mask><g mask="url(#aM)"><mask id="aN" style="mask-type:luminance" maskUnits="userSpaceOnUse" x="-446" y="-286" width="892" height="526"><path d="M445.837-285.189h-891.674v524.521h891.674v-524.521Z" fill="#fff"/></mask><g mask="url(#aN)"><path d="M267.688 120.19h-44.026v35.194h44.026V120.19Z" fill="#4B72B8"/></g></g><mask id="aO" style="mask-type:luminance" maskUnits="userSpaceOnUse" x="204" y="135" width="8" height="4"><path d="M211.339 135.291s-6.502 1.479-6.749 1.849c-.248.37 0 1.479 2.167 1.541 2.167.062 4.211-1.048 4.211-1.048" fill="#fff"/></mask><g mask="url(#aO)"><mask id="aP" style="mask-type:luminance" maskUnits="userSpaceOnUse" x="-446" y="-286" width="892" height="526"><path d="M445.837-285.19h-891.674v524.522h891.674V-285.19Z" fill="#fff"/></mask><g mask="url(#aP)"><path d="M214.435 132.209H201.37v9.554h13.065v-9.554Z" fill="#FBBD9E"/></g></g><mask id="aQ" style="mask-type:luminance" maskUnits="userSpaceOnUse" x="204" y="138" width="8" height="8"><path d="m210.287 138.927-3.963 2.836s-2.477 3.143-2.292 3.39c.062.185.867.493 1.61-.185l2.23-2.034 3.839-1.479" fill="#fff"/></mask><g mask="url(#aQ)"><mask id="aR" style="mask-type:luminance" maskUnits="userSpaceOnUse" x="-446" y="-286" width="892" height="526"><path d="M445.837-285.189h-891.674v524.521h891.674v-524.521Z" fill="#fff"/></mask><g mask="url(#aR)"><path d="M214.869 135.846h-13.933v12.635h13.933v-12.635Z" fill="#FBBD9E"/></g></g><mask id="aS" style="mask-type:luminance" maskUnits="userSpaceOnUse" x="205" y="139" width="9" height="8"><path d="m211.897 139.975-3.964 2.835s-2.476 3.144-2.291 3.39c.062.185.867.494 1.61-.184l2.23-2.034 3.839-1.48" fill="#fff"/></mask><g mask="url(#aS)"><mask id="aT" style="mask-type:luminance" maskUnits="userSpaceOnUse" x="-446" y="-286" width="892" height="526"><path d="M445.837-285.19h-891.674v524.522h891.674V-285.19Z" fill="#fff"/></mask><g mask="url(#aT)"><path d="M216.479 136.893h-13.933v12.636h13.933v-12.636Z" fill="#FBBD9E"/></g></g><mask id="aU" style="mask-type:luminance" maskUnits="userSpaceOnUse" x="207" y="140" width="9" height="8"><path d="m213.63 140.961-3.963 2.836s-2.477 3.143-2.291 3.39c.062.185.867.493 1.61-.185l2.229-2.034 3.839-1.48" fill="#fff"/></mask><g mask="url(#aU)"><mask id="aV" style="mask-type:luminance" maskUnits="userSpaceOnUse" x="-446" y="-286" width="892" height="526"><path d="M445.837-285.19h-891.674v524.522h891.674V-285.19Z" fill="#fff"/></mask><g mask="url(#aV)"><path d="M218.213 137.88H204.28v12.635h13.933V137.88Z" fill="#FBBD9E"/></g></g><mask id="aW" style="mask-type:luminance" maskUnits="userSpaceOnUse" x="201" y="135" width="26" height="11"><path d="m226.2 139.544-6.749-3.39s-6.997-.863-8.05-.863c-1.053 0-5.882 3.513-6.564 3.821-.681.37-3.591 5.609-3.591 5.609s.186.493.867.493c.743 0 3.963-3.821 3.963-3.821l3.653-2.034s.496 2.527 2.168 4.499c1.3 1.603 4.706 1.048 7.244.74a8.788 8.788 0 0 1 2.973.185" fill="#fff"/></mask><g mask="url(#aW)"><mask id="aX" style="mask-type:luminance" maskUnits="userSpaceOnUse" x="-446" y="-286" width="892" height="526"><path d="M445.837-285.19h-891.674v524.522h891.674V-285.19Z" fill="#fff"/></mask><g mask="url(#aX)"><path d="M229.359 132.209H198.15v16.149h31.209v-16.149Z" fill="#FBBD9E"/></g></g><mask id="aY" style="mask-type:luminance" maskUnits="userSpaceOnUse" x="255" y="94" width="28" height="64"><path d="M282.735 157.85c.062-.493.062-.925.062-1.356 0-10.663-1.3-39.201-12.508-53.87-4.335-5.732-14.366-7.951-14.366-7.951l.248 26.503c.247 9.862 6.935 36.674 6.935 36.674h19.629Z" fill="#fff"/></mask><g mask="url(#aY)"><mask id="aZ" style="mask-type:luminance" maskUnits="userSpaceOnUse" x="-446" y="-286" width="892" height="526"><path d="M445.837-285.19h-891.674v524.522h891.674V-285.19Z" fill="#fff"/></mask><g mask="url(#aZ)"><path d="M285.893 91.591h-33.066v69.34h33.066v-69.34Z" fill="#6D8EC9"/></g></g><mask id="ba" style="mask-type:luminance" maskUnits="userSpaceOnUse" x="221" y="137" width="56" height="29"><path d="M222.052 141.085c-.929 2.465-.743 5.609-.743 5.609s42.788 17.997 54.924 19.23l-.433-19.539-51.519-9.06c-.124 0-1.3 1.171-2.229 3.76Z" fill="#fff"/></mask><g mask="url(#ba)"><mask id="bb" style="mask-type:luminance" maskUnits="userSpaceOnUse" x="-446" y="-286" width="892" height="526"><path d="M445.837-285.189h-891.674v524.521h891.674v-524.521Z" fill="#fff"/></mask><g mask="url(#bb)"><path d="M279.329 134.305h-61.178v34.701h61.178v-34.701Z" fill="#6D8EC9"/></g></g><mask id="bc" style="mask-type:luminance" maskUnits="userSpaceOnUse" x="270" y="147" width="13" height="19"><path d="M276.171 165.924s7.183 1.356 6.688-10.663c-.495-10.663-10.031-7.828-10.031-7.828l-2.168 8.752 5.511 9.739Z" fill="#fff"/></mask><g mask="url(#bc)"><mask id="bd" style="mask-type:luminance" maskUnits="userSpaceOnUse" x="-446" y="-286" width="892" height="526"><path d="M445.837-285.189h-891.674v524.521h891.674v-524.521Z" fill="#fff"/></mask><g mask="url(#bd)"><path d="M286.017 144.043h-18.391v25.024h18.391v-25.024Z" fill="#6D8EC9"/></g></g><mask id="be" style="mask-type:luminance" maskUnits="userSpaceOnUse" x="227" y="57" width="24" height="38"><path d="M245.644 91.96s-8.112 6.164-18.143-1.478c0 0 1.3-2.404 1.424-2.836.619-.924 1.61-3.082 2.291-5.978.062-.185.062-.432.186-.678.186-.863.371-1.85.433-2.897.186-1.788.186-3.76-.185-5.856l.928-.74 15.914-12.511 1.796-1.48s-.495 3.082-1.3 7.52c-.434 2.527-.867 5.424-1.363 8.629-.681 6.41-1.61 13.375-1.981 18.306Z" fill="#fff"/></mask><g mask="url(#be)"><mask id="bf" style="mask-type:luminance" maskUnits="userSpaceOnUse" x="-446" y="-286" width="892" height="526"><path d="M445.837-285.19h-891.674v524.522h891.674V-285.19Z" fill="#fff"/></mask><g mask="url(#bf)"><path d="M253.446 54.486h-29.041v42.96h29.041v-42.96Z" fill="#FBBD9E"/></g></g><mask id="bg" style="mask-type:luminance" maskUnits="userSpaceOnUse" x="228" y="72" width="17" height="16"><path d="M243.105 74.086c-2.291 3.329-7.431 9.862-14.18 13.622.619-.925 1.61-3.082 2.291-5.979-1.053.37-2.043.493-2.91.617.062-.74.062-1.48.062-2.28l1.052-.617 2.415-1.171 12.57-6.164c.062 0-.371.801-1.3 1.972Z" fill="#fff"/></mask><g mask="url(#bg)"><mask id="bh" style="mask-type:luminance" maskUnits="userSpaceOnUse" x="-446" y="-286" width="892" height="526"><path d="M445.837-285.19h-891.674v524.522h891.674V-285.19Z" fill="#fff"/></mask><g mask="url(#bh)"><path d="M247.44 69.032h-22.292V90.79h22.292V69.032Z" fill="#DD916A"/></g></g><mask id="bi" style="mask-type:luminance" maskUnits="userSpaceOnUse" x="217" y="48" width="6" height="13"><path d="M217.903 48.2s-2.725 7.58 2.167 11.833l2.415-11.526-4.582-.308Z" fill="#fff"/></mask><g mask="url(#bi)"><mask id="bj" style="mask-type:luminance" maskUnits="userSpaceOnUse" x="-446" y="-286" width="892" height="526"><path d="M445.837-285.19h-891.674v524.522h891.674V-285.19Z" fill="#fff"/></mask><g mask="url(#bj)"><path d="M225.581 45.117h-11.517v17.998h11.517V45.117Z" fill="#1C134D"/></g></g><mask id="bk" style="mask-type:luminance" maskUnits="userSpaceOnUse" x="218" y="40" width="34" height="43"><path d="M245.706 70.82c-.743 1.11-1.734 2.219-2.539 3.266-1.548 1.603-3.282 3.144-5.201 4.438-2.477 1.603-4.706 2.65-6.688 3.144-1.053.37-2.043.493-2.91.616-4.273.37-6.688-1.294-6.688-1.294-3.963-5.856-3.839-15.41-2.91-22.682.371-2.897.867-5.424 1.176-7.273.372-1.603.62-2.527.62-2.527v-.185c1.733-9.37 14.304-9.616 22.849-4.438.495.37 1.052.616 1.424 1.048 2.415 1.725 4.334 3.944 5.573 6.471 2.043 4.438.743 9.43-1.3 13.745-.062.247-.248.432-.372.678-.867 1.85-1.981 3.637-3.034 4.993Z" fill="#fff"/></mask><g mask="url(#bk)"><mask id="bl" style="mask-type:luminance" maskUnits="userSpaceOnUse" x="-446" y="-286" width="892" height="526"><path d="M445.837-285.19h-891.674v524.522h891.674V-285.19Z" fill="#fff"/></mask><g mask="url(#bl)"><path d="M254.561 37.413h-39.445v47.953h39.445V37.413Z" fill="#FBBD9E"/></g></g><mask id="bm" style="mask-type:luminance" maskUnits="userSpaceOnUse" x="214" y="31" width="33" height="23"><path d="M246.263 43.207s-10.155 15.655-27.307 7.396c-4.954-2.404-6.193-19.354-1.734-16.025 8.979 6.965 16.1-6.287 24.707-1.788 2.786 1.48 5.511 4.993 4.334 10.417Z" fill="#fff"/></mask><g mask="url(#bm)"><mask id="bn" style="mask-type:luminance" maskUnits="userSpaceOnUse" x="-446" y="-286" width="892" height="526"><path d="M445.837-285.189h-891.674v524.521h891.674v-524.521Z" fill="#fff"/></mask><g mask="url(#bn)"><path d="M249.669 28.784h-38.268V56.15h38.268V28.784Z" fill="#1C134D"/></g></g><mask id="bo" style="mask-type:luminance" maskUnits="userSpaceOnUse" x="240" y="38" width="18" height="36"><path d="M242.795 45.18s-5.882 30.756.372 16.64c0 0 1.61-3.944 4.458-3.574 2.911.37.62 10.91.186 15.409 0 0 6.564-4.684 8.979-18.676 2.415-13.991-6.997-19.662-12.261-13.621l-1.734 3.821Z" fill="#fff"/></mask><g mask="url(#bo)"><mask id="bp" style="mask-type:luminance" maskUnits="userSpaceOnUse" x="-446" y="-286" width="892" height="526"><path d="M445.837-285.19h-891.674v524.522h891.674V-285.19Z" fill="#fff"/></mask><g mask="url(#bp)"><path d="M260.257 35.872h-23.034v40.865h23.034V35.872Z" fill="#1C134D"/></g></g><mask id="bq" style="mask-type:luminance" maskUnits="userSpaceOnUse" x="245" y="60" width="3" height="7"><path d="M247.13 60.465s-1.61.246-1.981 3.143c-.372 2.959 1.548 3.575 1.981 1.973.372-1.541-1.053-2.466-1.362-1.85-.124.062-.496-1.664 1.362-3.266Z" fill="#fff"/></mask><g mask="url(#bq)"><mask id="br" style="mask-type:luminance" maskUnits="userSpaceOnUse" x="-446" y="-286" width="892" height="526"><path d="M445.837-285.19h-891.674v524.522h891.674V-285.19Z" fill="#fff"/></mask><g mask="url(#br)"><path d="M250.226 57.383h-8.235v12.142h8.235V57.383Z" fill="#DD916A"/></g></g><path d="M216.355 58.739c.186-.924 1.053-1.54 1.981-1.602.867-.062 3.963.493 4.707.862 1.114.493 1.857 1.48 1.052 3.76-.495 1.48-1.61 3.144-4.644 2.65-2.539-.493-3.406-3.02-3.096-5.67ZM229.049 58.677c1.424 0 4.644.247 5.883.74 1.176.431 1.981 1.603 1.609 2.835-.866 2.959-1.981 4.746-6.068 4.192-3.406-.493-3.406-4.192-3.282-6.226.062-.863.929-1.479 1.858-1.54Z" stroke="#5063AE" stroke-width=".627" stroke-miterlimit="10"/><path d="M224.405 60.465s1.3-.493 2.662.37M236.603 62.006s5.821-.678 7.617-1.048" stroke="#5063AE" stroke-width=".627" stroke-miterlimit="10"/><mask id="bs" style="mask-type:luminance" maskUnits="userSpaceOnUse" x="242" y="58" width="4" height="5"><path d="M242.981 62.314s.743-2.034 2.415-3.328l-.062 1.972-2.353 1.356Z" fill="#fff"/></mask><g mask="url(#bs)"><mask id="bt" style="mask-type:luminance" maskUnits="userSpaceOnUse" x="-446" y="-286" width="892" height="526"><path d="M445.837-285.19h-891.674v524.522h891.674V-285.19Z" fill="#fff"/></mask><g mask="url(#bt)"><path d="M248.492 55.904h-8.607v9.492h8.607v-9.492Z" fill="#DD916A"/></g></g><mask id="bu" style="mask-type:luminance" maskUnits="userSpaceOnUse" x="122" y="96" width="78" height="52"><path d="M199.017 147.433H132.76c-.743 0-1.424-.493-1.548-1.294l-8.916-47.398c-.248-1.356.743-2.65 2.167-2.65h63.098c1.053 0 1.982.74 2.167 1.787l9.289 49.555Z" fill="#fff"/></mask><g mask="url(#bu)"><mask id="bv" style="mask-type:luminance" maskUnits="userSpaceOnUse" x="-446" y="-286" width="892" height="526"><path d="M445.837-285.189h-891.674v524.521h891.674v-524.521Z" fill="#fff"/></mask><g mask="url(#bv)"><path d="M202.113 93.07h-82.914v57.445h82.914V93.07Z" fill="#1C134D"/></g></g><mask id="bw" style="mask-type:luminance" maskUnits="userSpaceOnUse" x="187" y="144" width="34" height="4"><path d="M219.265 147.433h-31.518v-2.65h30.156c.681 0 1.362.37 1.734.924l.371.493c.31.555-.123 1.233-.743 1.233Z" fill="#fff"/></mask><g mask="url(#bw)"><mask id="bx" style="mask-type:luminance" maskUnits="userSpaceOnUse" x="-446" y="-286" width="892" height="526"><path d="M445.837-285.189h-891.674v524.521h891.674v-524.521Z" fill="#fff"/></mask><g mask="url(#bx)"><path d="M223.228 141.701h-38.515v8.814h38.515v-8.814Z" fill="#1C134D"/></g></g><path d="M186.509 98.371c.619 0 1.176.431 1.3 1.048l8.669 43.7" stroke="#D0EBFA" stroke-width=".299" stroke-miterlimit="10" stroke-linecap="round"/><mask id="by" style="mask-type:luminance" maskUnits="userSpaceOnUse" x="152" y="118" width="10" height="8"><path d="M161.926 122.286c0 1.972-2.168 3.513-4.707 3.513-2.538 0-4.706-1.541-4.706-3.513 0-1.973 2.168-3.514 4.706-3.514 2.663.062 4.707 1.603 4.707 3.514Z" fill="#fff"/></mask><g mask="url(#by)"><mask id="bz" style="mask-type:luminance" maskUnits="userSpaceOnUse" x="-446" y="-286" width="892" height="526"><path d="M445.837-285.19h-891.674v524.522h891.674V-285.19Z" fill="#fff"/></mask><g mask="url(#bz)"><path d="M165.022 115.752h-15.605v13.129h15.605v-13.129Z" fill="#31429B"/></g></g><path d="M157.653 18.06h3.963M159.573 16.149v4.006M187.747 167.28h4.025M189.79 165.308v3.944" stroke="#FACE00" stroke-width=".968" stroke-miterlimit="10" stroke-linecap="round"/><mask id="bA" style="mask-type:luminance" maskUnits="userSpaceOnUse" x="191" y="45" width="5" height="5"><path d="M195.425 47.46c0 1.047-.867 1.787-1.795 1.787a1.792 1.792 0 0 1-1.796-1.787c0-1.048.867-1.788 1.796-1.788.99-.061 1.795.74 1.795 1.788Z" fill="#fff"/></mask><g mask="url(#bA)"><mask id="bB" style="mask-type:luminance" maskUnits="userSpaceOnUse" x="-446" y="-286" width="892" height="526"><path d="M445.837-285.19h-891.674v524.522h891.674V-285.19Z" fill="#fff"/></mask><g mask="url(#bB)"><path d="M189.238 51.767V43.03h8.783v8.738h-8.783Z" fill="#fff" stroke="#E6C74C"/></g></g><mask id="bC" style="mask-type:luminance" maskUnits="userSpaceOnUse" x="130" y="82" width="5" height="5"><path d="M132.265 86.414c.992 0 1.796-.8 1.796-1.788 0-.987-.804-1.787-1.796-1.787s-1.796.8-1.796 1.787c0 .987.804 1.788 1.796 1.788Z" fill="#fff"/></mask><g mask="url(#bC)"><mask id="bD" style="mask-type:luminance" maskUnits="userSpaceOnUse" x="-446" y="-286" width="892" height="526"><path d="M445.837-285.189h-891.674v524.521h891.674v-524.521Z" fill="#fff"/></mask><g mask="url(#bD)"><path d="M127.873 88.995v-8.738h8.784v8.738h-8.784Z" fill="#FACE00" stroke="#FACE00"/></g></g><mask id="bE" style="mask-type:luminance" maskUnits="userSpaceOnUse" x="108" y="16" width="4" height="4"><path d="M111.831 18.06c0 1.047-.867 1.787-1.796 1.787a1.792 1.792 0 0 1-1.796-1.788c0-1.047.867-1.787 1.796-1.787 1.053 0 1.796.863 1.796 1.787Z" fill="#fff"/></mask><g mask="url(#bE)"><mask id="bF" style="mask-type:luminance" maskUnits="userSpaceOnUse" x="-446" y="-286" width="892" height="526"><path d="M445.837-285.19h-891.674v524.522h891.674V-285.19Z" fill="#fff"/></mask><g mask="url(#bF)"><path d="M105.643 22.428V13.69h8.784v8.739h-8.784Z" fill="#FACE00" stroke="#FACE00"/></g></g><mask id="bG" style="mask-type:luminance" maskUnits="userSpaceOnUse" x="290" y="67" width="4" height="5"><path d="M291.899 71.066c.992 0 1.796-.8 1.796-1.787 0-.987-.804-1.788-1.796-1.788-.991 0-1.795.8-1.795 1.788 0 .987.804 1.787 1.795 1.787Z" fill="#fff"/></mask><g mask="url(#bG)"><mask id="bH" style="mask-type:luminance" maskUnits="userSpaceOnUse" x="-446" y="-286" width="892" height="526"><path d="M445.837-285.19h-891.674v524.522h891.674V-285.19Z" fill="#fff"/></mask><g mask="url(#bH)"><path d="M287.508 73.648V64.91h8.783v8.738h-8.783Z" fill="#FACE00" stroke="#FACE00"/></g></g><mask id="bI" style="mask-type:luminance" maskUnits="userSpaceOnUse" x="255" y="79" width="5" height="5"><path d="M259.143 81.73c0 1.047-.867 1.787-1.796 1.787a1.792 1.792 0 0 1-1.795-1.788c0-1.047.866-1.787 1.795-1.787.929 0 1.796.74 1.796 1.787Z" fill="#fff"/></mask><g mask="url(#bI)"><mask id="bJ" style="mask-type:luminance" maskUnits="userSpaceOnUse" x="-446" y="-286" width="892" height="526"><path d="M445.837-285.19h-891.674v524.522h891.674V-285.19Z" fill="#fff"/></mask><g mask="url(#bJ)"><path d="M252.894 86.099V77.36h8.783v8.739h-8.783Z" fill="#FACE00" stroke="#FACE00"/></g></g><mask id="bK" style="mask-type:luminance" maskUnits="userSpaceOnUse" x="177" y="-1" width="5" height="5"><path d="M181.245 1.787c0 1.048-.867 1.788-1.795 1.788a1.792 1.792 0 0 1-1.796-1.788c0-.924.867-1.787 1.796-1.787 1.052-.062 1.795.801 1.795 1.787Z" fill="#fff"/></mask><g mask="url(#bK)"><mask id="bL" style="mask-type:luminance" maskUnits="userSpaceOnUse" x="-446" y="-286" width="892" height="526"><path d="M445.837-285.19h-891.674v524.522h891.674V-285.19Z" fill="#fff"/></mask><g mask="url(#bL)"><path d="M175.058 6.157v-8.739h8.783v8.739h-8.783Z" fill="#FACE00" stroke="#FACE00"/></g></g><mask id="bM" style="mask-type:luminance" maskUnits="userSpaceOnUse" x="311" y="141" width="4" height="5"><path d="M314.749 143.365c0 1.048-.867 1.788-1.796 1.788a1.792 1.792 0 0 1-1.796-1.788c0-1.048.867-1.787 1.796-1.787s1.796.801 1.796 1.787Z" fill="#fff"/></mask><g mask="url(#bM)"><mask id="bN" style="mask-type:luminance" maskUnits="userSpaceOnUse" x="-446" y="-286" width="892" height="526"><path d="M445.837-285.19h-891.674v524.522h891.674V-285.19Z" fill="#fff"/></mask><g mask="url(#bN)"><path d="M317.845 138.496h-9.784v9.738h9.784v-9.738Z" fill="#FACE00"/></g></g><mask id="bO" style="mask-type:luminance" maskUnits="userSpaceOnUse" x="135" y="198" width="5" height="5"><path d="M139.386 200.625c0 1.048-.867 1.787-1.796 1.787a1.791 1.791 0 0 1-1.795-1.787c0-1.048.866-1.787 1.795-1.787 1.053-.124 1.796.739 1.796 1.787Z" fill="#fff"/></mask><g mask="url(#bO)"><mask id="bP" style="mask-type:luminance" maskUnits="userSpaceOnUse" x="-446" y="-286" width="892" height="526"><path d="M445.837-285.19h-891.674v524.522h891.674V-285.19Z" fill="#fff"/></mask><g mask="url(#bP)"><path d="M133.198 204.994v-8.738h8.784v8.738h-8.784Z" fill="#fff" stroke="#E6C74C"/></g></g><mask id="bQ" style="mask-type:luminance" maskUnits="userSpaceOnUse" x="21" y="138" width="5" height="4"><path d="M23.53 141.824c.992 0 1.796-.8 1.796-1.787 0-.987-.804-1.788-1.796-1.788s-1.796.801-1.796 1.788.804 1.787 1.796 1.787Z" fill="#fff"/></mask><g mask="url(#bQ)"><mask id="bR" style="mask-type:luminance" maskUnits="userSpaceOnUse" x="-446" y="-286" width="892" height="526"><path d="M445.837-285.189h-891.674v524.521h891.674v-524.521Z" fill="#fff"/></mask><g mask="url(#bR)"><path d="M19.138 144.406v-8.738h8.784v8.738h-8.784Z" fill="#FACE00" stroke="#FACE00"/></g></g><path d="M225.086 5.609h3.901M227.005 3.575V7.58M289.856 45.487h4.025M291.776 43.515v3.945" stroke="#424CA0" stroke-width=".968" stroke-miterlimit="10" stroke-linecap="round"/><path d="M296.172 191.38h4.025M298.154 189.469v3.883M20 188.051h4.026M22.106 186.141v4.006" stroke="#FACE00" stroke-width=".968" stroke-miterlimit="10" stroke-linecap="round"/><mask id="bS" style="mask-type:luminance" maskUnits="userSpaceOnUse" x="23" y="56" width="39" height="20"><path d="M58.02 56.52H26.75a3.032 3.032 0 0 0-3.034 3.02v8.26a3.032 3.032 0 0 0 3.034 3.02h24.274l4.52 4.5v-4.5h2.539a3.032 3.032 0 0 0 3.034-3.02v-8.26c0-1.664-1.362-3.02-3.096-3.02Z" fill="#fff"/></mask><g mask="url(#bS)"><mask id="bT" style="mask-type:luminance" maskUnits="userSpaceOnUse" x="-446" y="-286" width="892" height="526"><path d="M445.837-285.19h-891.674v524.522h891.674V-285.19Z" fill="#fff"/></mask><g mask="url(#bT)"><path d="M64.151 53.438H20.558v24.963h43.593V53.438Z" fill="#9FBEE4"/></g></g><path d="M28.36 60.403h23.964M28.36 63.732h27.617M28.36 66.937h9.846" stroke="#fff" stroke-width=".969" stroke-miterlimit="10" stroke-linecap="round"/><mask id="bU" style="mask-type:luminance" maskUnits="userSpaceOnUse" x="172" y="61" width="39" height="19"><path d="M207.252 61.081H175.92a3.032 3.032 0 0 0-3.034 3.02V72.3a3.032 3.032 0 0 0 3.034 3.02h24.273l4.521 4.438v-4.438h2.538a3.033 3.033 0 0 0 3.035-3.02v-8.198a3.033 3.033 0 0 0-3.035-3.02Z" fill="#fff"/></mask><g mask="url(#bU)"><mask id="bV" style="mask-type:luminance" maskUnits="userSpaceOnUse" x="-446" y="-286" width="892" height="526"><path d="M445.837-285.189h-891.674v524.521h891.674v-524.521Z" fill="#fff"/></mask><g mask="url(#bV)"><path d="M213.383 58H169.79v24.839h43.593v-24.84Z" fill="#9FBEE4"/></g></g><path d="M177.592 64.964h23.902M177.592 68.17h14.49M194.249 68.17h10.96M177.592 71.436h9.845" stroke="#fff" stroke-width=".969" stroke-miterlimit="10" stroke-linecap="round"/><mask id="bW" style="mask-type:luminance" maskUnits="userSpaceOnUse" x="117" y="30" width="40" height="39"><path d="M156.229 49.247c0 2.034-.372 4.006-.929 5.855-2.477 7.643-9.722 13.19-18.391 13.19-2.043 0-3.963-.37-5.882-.862a18.805 18.805 0 0 1-9.041-6.04c-2.786-3.329-4.396-7.52-4.396-12.081 0-10.478 8.607-19.107 19.319-19.107 10.713-.062 19.32 8.444 19.32 19.045Z" fill="#fff"/></mask><g mask="url(#bW)"><mask id="bX" style="mask-type:luminance" maskUnits="userSpaceOnUse" x="-446" y="-286" width="892" height="526"><path d="M445.837-285.19h-891.674v524.522h891.674V-285.19Z" fill="#fff"/></mask><g mask="url(#bX)"><path d="M114.993 70.874V27.62h43.832v43.254h-43.832Z" fill="#FACE00" stroke="#FACE00"/></g></g><mask id="bY" style="mask-type:luminance" maskUnits="userSpaceOnUse" x="136" y="27" width="23" height="29"><path d="M158.148 48.63c0 2.22-.371 4.438-1.052 6.472l-20.187-6.471V27.674c11.765 0 21.239 9.37 21.239 20.957Z" fill="#fff"/></mask><g mask="url(#bY)"><mask id="bZ" style="mask-type:luminance" maskUnits="userSpaceOnUse" x="-446" y="-286" width="892" height="526"><path d="M445.837-285.19h-891.674v524.522h891.674V-285.19Z" fill="#fff"/></mask><g mask="url(#bZ)"><path d="M161.244 24.593h-27.431v33.591h27.431V24.593Z" fill="#DDAA01"/></g></g><mask id="ca" style="mask-type:luminance" maskUnits="userSpaceOnUse" x="119" y="48" width="18" height="23"><path d="m136.909 48.63-6.873 22.19c-4.211-1.356-7.926-3.822-10.713-7.15l17.586-15.04Z" fill="#fff"/></mask><g mask="url(#ca)"><mask id="cb" style="mask-type:luminance" maskUnits="userSpaceOnUse" x="-446" y="-286" width="892" height="526"><path d="M445.837-285.19h-891.674v524.522h891.674V-285.19Z" fill="#fff"/></mask><g mask="url(#cb)"><path d="M140.005 45.549h-23.778v28.352h23.778V45.55Z" fill="#fff"/></g></g><mask id="cc" style="mask-type:luminance" maskUnits="userSpaceOnUse" x="152" y="176" width="7" height="26"><path d="M158.148 176.156h-5.635v25.085h5.635v-25.085Z" fill="#fff"/></mask><g mask="url(#cc)"><mask id="cd" style="mask-type:luminance" maskUnits="userSpaceOnUse" x="-446" y="-286" width="892" height="526"><path d="M445.837-285.19h-891.674v524.522h891.674V-285.19Z" fill="#fff"/></mask><g mask="url(#cd)"><path d="M149.917 203.823v-30.249h10.827v30.249h-10.827Z" fill="#FACE00" stroke="#FACE00"/></g></g><mask id="ce" style="mask-type:luminance" maskUnits="userSpaceOnUse" x="161" y="180" width="7" height="22"><path d="M167.251 180.224h-5.635v21.141h5.635v-21.141Z" fill="#fff"/></mask><g mask="url(#ce)"><mask id="cf" style="mask-type:luminance" maskUnits="userSpaceOnUse" x="-446" y="-286" width="892" height="526"><path d="M445.837-285.189h-891.674v524.521h891.674v-524.521Z" fill="#fff"/></mask><g mask="url(#cf)"><path d="M159.02 203.946v-26.304h10.827v26.304H159.02Z" fill="#FACE00" stroke="#FACE00"/></g></g><mask id="cg" style="mask-type:luminance" maskUnits="userSpaceOnUse" x="143" y="183" width="7" height="19"><path d="M149.294 183.675h-5.635v17.628h5.635v-17.628Z" fill="#fff"/></mask><g mask="url(#cg)"><mask id="ch" style="mask-type:luminance" maskUnits="userSpaceOnUse" x="-446" y="-286" width="892" height="526"><path d="M445.837-285.19h-891.674v524.522h891.674V-285.19Z" fill="#fff"/></mask><g mask="url(#ch)"><path d="M141.062 203.885v-22.792h10.828v22.792h-10.828Z" fill="#FACE00" stroke="#FACE00"/></g></g><mask id="ci" style="mask-type:luminance" maskUnits="userSpaceOnUse" x="170" y="172" width="7" height="30"><path d="M176.23 172.889h-5.635v28.537h5.635v-28.537Z" fill="#fff"/></mask><g mask="url(#ci)"><mask id="cj" style="mask-type:luminance" maskUnits="userSpaceOnUse" x="-446" y="-286" width="892" height="526"><path d="M445.837-285.19h-891.674v524.522h891.674V-285.19Z" fill="#fff"/></mask><g mask="url(#cj)"><path d="M167.999 204.008v-33.701h10.827v33.701h-10.827Z" fill="#FACE00" stroke="#FACE00"/></g></g><mask id="ck" style="mask-type:luminance" maskUnits="userSpaceOnUse" x="145" y="165" width="30" height="17"><path d="M146.507 181.518c.805 0 1.362-.617 1.362-1.356 0-.247-.062-.432-.185-.617l6.935-6.533c.186.185.433.247.805.247.433 0 .805-.185 1.053-.432l6.625 3.883v.185c0 .74.619 1.356 1.362 1.356.743 0 1.363-.616 1.363-1.356 0-.246-.062-.431-.186-.678l7.245-8.506c.186.062.371.062.495.062.805 0 1.362-.616 1.362-1.356a1.37 1.37 0 0 0-1.362-1.356 1.37 1.37 0 0 0-1.362 1.356c0 .247.062.493.248.74l-7.245 8.505c-.186-.061-.372-.184-.62-.184-.433 0-.804.184-1.052.431l-6.626-3.883v-.185a1.37 1.37 0 0 0-1.362-1.356c-.805 0-1.362.616-1.362 1.356 0 .185 0 .37.062.493l-6.936 6.595c-.185-.062-.433-.185-.681-.185-.805 0-1.362.617-1.362 1.356 0 .801.619 1.418 1.424 1.418Z" fill="#fff"/></mask><g mask="url(#ck)"><mask id="cl" style="mask-type:luminance" maskUnits="userSpaceOnUse" x="-446" y="-286" width="892" height="526"><path d="M445.837-285.19h-891.674v524.522h891.674V-285.19Z" fill="#fff"/></mask><g mask="url(#cl)"><path d="M142.487 184.1v-21.559h34.914V184.1h-34.914Z" fill="#FACE00" stroke="#FACE00"/></g></g><mask id="cm" style="mask-type:luminance" maskUnits="userSpaceOnUse" x="27" y="160" width="19" height="19"><path d="M36.224 174.738c-2.724 0-4.953-2.219-4.953-4.993 0-2.773 2.229-4.992 4.953-4.992 2.725 0 4.954 2.219 4.954 4.992 0 2.651-2.23 4.993-4.954 4.993Zm8.979-3.513v-3.02h-1.3c-.186-1.048-.62-2.034-1.177-2.897l.867-.863-2.105-2.158-.867.863c-.867-.616-1.858-1.047-2.91-1.171v-1.294h-3.035v1.294c-1.052.185-2.043.617-2.91 1.171l-.867-.863-2.105 2.158.867.863c-.62.863-1.053 1.91-1.177 2.897h-1.3v3.02h1.3c.186 1.047.62 2.034 1.177 2.897l-.867.862 2.105 2.158.867-.863c.867.616 1.858 1.048 2.91 1.171v1.294h2.972v-1.232c1.053-.185 2.044-.617 2.91-1.172l.868.863 2.105-2.157-.867-.863c.62-.863 1.053-1.911 1.177-2.897h1.362v-.061Z" fill="#fff"/></mask><g mask="url(#cm)"><mask id="cn" style="mask-type:luminance" maskUnits="userSpaceOnUse" x="-446" y="-286" width="892" height="526"><path d="M445.837-285.19h-891.674v524.522h891.674V-285.19Z" fill="#fff"/></mask><g mask="url(#cn)"><path d="M24.526 181.388v-23.285h23.211v23.285H24.526Z" fill="#9FBEE4" stroke="#FACE00"/></g></g><mask id="co" style="mask-type:luminance" maskUnits="userSpaceOnUse" x="42" y="171" width="13" height="14"><path d="M48.485 181.271c-1.858 0-3.344-1.541-3.344-3.328 0-1.911 1.424-3.328 3.344-3.328a3.322 3.322 0 0 1 3.344 3.328c0 1.849-1.425 3.328-3.344 3.328Zm6.006-2.342v-1.972h-.867a10.805 10.805 0 0 0-.743-1.973l.62-.616-1.425-1.479-.619.616c-.62-.431-1.176-.678-1.981-.801v-.863h-1.982v.863c-.681.185-1.362.431-1.981.801l-.62-.616-1.424 1.479.62.616c-.434.617-.682 1.172-.744 1.973h-.867v1.972h.867c.186.678.434 1.356.743 1.972l-.619.617 1.424 1.479.62-.616c.619.431 1.176.678 1.981.801v.863h1.982v-.863c.68-.185 1.362-.431 1.981-.801l.62.616 1.424-1.479-.62-.617c.434-.616.681-1.171.743-1.972h.867Z" fill="#fff"/></mask><g mask="url(#co)"><mask id="cp" style="mask-type:luminance" maskUnits="userSpaceOnUse" x="-446" y="-286" width="892" height="526"><path d="M445.837-285.19h-891.674v524.522h891.674V-285.19Z" fill="#fff"/></mask><g mask="url(#cp)"><path d="M39.82 186.565v-17.244h17.267v17.244H39.82Z" fill="#FACE00" stroke="#FACE00"/></g></g><mask id="cq" style="mask-type:luminance" maskUnits="userSpaceOnUse" x="288" y="164" width="19" height="13"><path d="M306.575 164.753h-17.648v12.081h17.648v-12.081Z" fill="#fff"/></mask><g mask="url(#cq)"><mask id="cr" style="mask-type:luminance" maskUnits="userSpaceOnUse" x="-446" y="-286" width="892" height="526"><path d="M445.837-285.19h-891.674v524.522h891.674V-285.19Z" fill="#fff"/></mask><g mask="url(#cr)"><path d="M309.671 161.671h-23.84v18.244h23.84v-18.244Z" fill="#fff"/></g></g><mask id="cs" style="mask-type:luminance" maskUnits="userSpaceOnUse" x="288" y="169" width="19" height="8"><path d="M288.927 176.895c1.363-1.294 2.849-2.589 4.273-3.821 1.424-1.295 2.91-2.527 4.334-3.698l.186-.185.186.185 2.229 1.787c.681.616 1.424 1.233 2.167 1.911 1.425 1.294 2.911 2.527 4.273 3.821-1.548-1.109-3.096-2.342-4.52-3.451-.743-.617-1.425-1.233-2.23-1.788l-2.229-1.787h.372c-1.424 1.232-2.91 2.403-4.459 3.636-1.548 1.048-3.034 2.281-4.582 3.39Z" fill="#fff"/></mask><g mask="url(#cs)"><mask id="ct" style="mask-type:luminance" maskUnits="userSpaceOnUse" x="-446" y="-286" width="892" height="526"><path d="M445.837-285.19h-891.674v524.522h891.674V-285.19Z" fill="#fff"/></mask><g mask="url(#ct)"><path d="M309.671 166.109h-23.84v13.868h23.84v-13.868Z" fill="#ADA6D2"/></g></g><mask id="cu" style="mask-type:luminance" maskUnits="userSpaceOnUse" x="288" y="164" width="19" height="9"><path d="m288.927 164.753 8.855 7.335 8.793-7.335" fill="#fff"/></mask><g mask="url(#cu)"><mask id="cv" style="mask-type:luminance" maskUnits="userSpaceOnUse" x="-446" y="-286" width="892" height="526"><path d="M445.837-285.19h-891.674v524.522h891.674V-285.19Z" fill="#fff"/></mask><g mask="url(#cv)"><path d="M309.671 161.671h-23.84v13.498h23.84v-13.498Z" fill="#fff"/></g></g><mask id="cw" style="mask-type:luminance" maskUnits="userSpaceOnUse" x="288" y="164" width="19" height="9"><path d="M288.927 164.753c1.548 1.109 3.096 2.342 4.521 3.451a281.52 281.52 0 0 1 4.458 3.637h-.372l2.23-1.787c.743-.617 1.424-1.233 2.229-1.788 1.548-1.233 2.972-2.342 4.52-3.451-1.362 1.294-2.848 2.588-4.273 3.821-.681.616-1.424 1.233-2.167 1.911l-2.229 1.787-.186.185-.186-.185c-1.424-1.233-2.91-2.404-4.334-3.698-1.362-1.294-2.848-2.527-4.211-3.883Z" fill="#fff"/></mask><g mask="url(#cw)"><mask id="cx" style="mask-type:luminance" maskUnits="userSpaceOnUse" x="-446" y="-286" width="892" height="526"><path d="M445.837-285.19h-891.674v524.522h891.674V-285.19Z" fill="#fff"/></mask><g mask="url(#cx)"><path d="M309.671 161.671h-23.84v13.868h23.84v-13.868Z" fill="#ADA6D2"/></g></g><mask id="cy" style="mask-type:luminance" maskUnits="userSpaceOnUse" x="299" y="162" width="6" height="5"><path d="M304.532 164.445c0 1.294-1.053 2.342-2.292 2.342-1.3 0-2.291-1.048-2.291-2.342 0-1.295 1.053-2.342 2.291-2.342 1.239.061 2.292 1.047 2.292 2.342Z" fill="#fff"/></mask><g mask="url(#cy)"><mask id="cz" style="mask-type:luminance" maskUnits="userSpaceOnUse" x="-446" y="-286" width="892" height="526"><path d="M445.837-285.19h-891.674v524.522h891.674V-285.19Z" fill="#fff"/></mask><g mask="url(#cz)"><path d="M307.628 159.082h-10.837v10.848h10.837v-10.848Z" fill="#1C134D"/></g></g><path d="m300.816 164.321 1.115 1.172 1.548-1.788" stroke="#fff" stroke-width=".598" stroke-miterlimit="10" stroke-linecap="round" stroke-linejoin="round"/><mask id="cA" style="mask-type:luminance" maskUnits="userSpaceOnUse" x="263" y="37" width="19" height="20"><path d="M265.211 52.082c-1.176-1.54-1.857-3.39-1.857-5.362 0-4.87 4.024-8.937 9.04-8.937 4.954 0 9.041 3.944 9.041 8.937 0 4.87-4.025 8.937-9.041 8.937-1.796 0-3.406-.493-4.768-1.356l-4.272 2.342 1.857-4.56Z" fill="#fff"/></mask><g mask="url(#cA)"><mask id="cB" style="mask-type:luminance" maskUnits="userSpaceOnUse" x="-446" y="-286" width="892" height="526"><path d="M445.837-285.19h-891.674v524.522h891.674V-285.19Z" fill="#fff"/></mask><g mask="url(#cB)"><path d="M260.757 59.225V35.201h23.274v24.024h-23.274Z" fill="#FACE00" stroke="#FACE00"/></g></g><mask id="cC" style="mask-type:luminance" maskUnits="userSpaceOnUse" x="275" y="45" width="4" height="4"><path d="M275.8 47.09c0 .863.681 1.54 1.548 1.54a1.53 1.53 0 0 0 1.548-1.54 1.53 1.53 0 0 0-1.548-1.541c-.867.123-1.548.74-1.548 1.54Z" fill="#fff"/></mask><g mask="url(#cC)"><mask id="cD" style="mask-type:luminance" maskUnits="userSpaceOnUse" x="-446" y="-286" width="892" height="526"><path d="M445.837-285.19h-891.674v524.522h891.674V-285.19Z" fill="#fff"/></mask><g mask="url(#cD)"><path d="M281.992 42.529h-9.288v9.183h9.288V42.53Z" fill="#586AB2"/></g></g><mask id="cE" style="mask-type:luminance" maskUnits="userSpaceOnUse" x="270" y="45" width="4" height="4"><path d="M270.846 47.09c0 .863.681 1.54 1.548 1.54a1.53 1.53 0 0 0 1.548-1.54 1.53 1.53 0 0 0-1.548-1.541c-.867.123-1.548.74-1.548 1.54Z" fill="#fff"/></mask><g mask="url(#cE)"><mask id="cF" style="mask-type:luminance" maskUnits="userSpaceOnUse" x="-446" y="-286" width="892" height="526"><path d="M445.837-285.19h-891.674v524.522h891.674V-285.19Z" fill="#fff"/></mask><g mask="url(#cF)"><path d="M277.038 42.529h-9.288v9.183h9.288V42.53Z" fill="#586AB2"/></g></g><mask id="cG" style="mask-type:luminance" maskUnits="userSpaceOnUse" x="265" y="45" width="5" height="4"><path d="M265.954 47.09c0 .863.681 1.54 1.548 1.54a1.53 1.53 0 0 0 1.548-1.54 1.53 1.53 0 0 0-1.548-1.541c-.928.123-1.548.74-1.548 1.54Z" fill="#fff"/></mask><g mask="url(#cG)"><mask id="cH" style="mask-type:luminance" maskUnits="userSpaceOnUse" x="-446" y="-286" width="892" height="526"><path d="M445.837-285.19h-891.674v524.522h891.674V-285.19Z" fill="#fff"/></mask><g mask="url(#cH)"><path d="M272.146 42.529h-9.288v9.183h9.288V42.53Z" fill="#586AB2"/></g></g><mask id="cI" style="mask-type:luminance" maskUnits="userSpaceOnUse" x="275" y="76" width="21" height="21"><path d="M285.769 92.577c-2.043 0-3.901-1.11-4.953-2.712a5.814 5.814 0 0 1-.991-3.266c0-3.267 2.601-5.918 5.882-5.918 1.858 0 3.53.863 4.645 2.22.866.986 1.238 2.28 1.238 3.698 0 .74-.186 1.54-.433 2.28-.744 2.219-2.849 3.698-5.388 3.698Zm7.926-12.019c-1.857-2.342-4.644-3.883-7.864-3.883-5.511 0-9.969 4.438-9.969 9.924 0 2.095.619 3.944 1.672 5.547 1.795 2.712 4.83 4.376 8.297 4.376 4.149 0 7.679-2.527 9.227-6.04.495-1.171.743-2.528.743-3.883 0-2.281-.805-4.377-2.106-6.04Z" fill="#fff"/></mask><g mask="url(#cI)"><mask id="cJ" style="mask-type:luminance" maskUnits="userSpaceOnUse" x="-446" y="-286" width="892" height="526"><path d="M445.837-285.19h-891.674v524.522h891.674V-285.19Z" fill="#fff"/></mask><g mask="url(#cJ)"><path d="M298.959 73.593h-26.131v26.072h26.131V73.593Z" fill="#D0EBFA"/></g></g><mask id="cK" style="mask-type:luminance" maskUnits="userSpaceOnUse" x="285" y="76" width="9" height="8"><path d="m293.695 80.558-3.282 2.466c-1.114-1.356-2.786-2.22-4.644-2.22v-4.129a9.93 9.93 0 0 1 7.926 3.883Z" fill="#fff"/></mask><g mask="url(#cK)"><mask id="cL" style="mask-type:luminance" maskUnits="userSpaceOnUse" x="-446" y="-286" width="892" height="526"><path d="M445.837-285.19h-891.674v524.522h891.674V-285.19Z" fill="#fff"/></mask><g mask="url(#cL)"><path d="M296.791 73.593h-14.118v12.512h14.118V73.593Z" fill="#9FBEE4"/></g></g><mask id="cM" style="mask-type:luminance" maskUnits="userSpaceOnUse" x="277" y="88" width="18" height="9"><path d="M294.996 90.543c-1.548 3.637-5.078 6.04-9.227 6.04-3.467 0-6.501-1.787-8.297-4.376l3.406-2.342c1.114 1.603 2.848 2.712 4.953 2.712 2.477 0 4.644-1.54 5.511-3.698l3.654 1.664Z" fill="#fff"/></mask><g mask="url(#cM)"><mask id="cN" style="mask-type:luminance" maskUnits="userSpaceOnUse" x="-446" y="-286" width="892" height="526"><path d="M445.837-285.19h-891.674v524.522h891.674V-285.19Z" fill="#fff"/></mask><g mask="url(#cN)"><path opacity=".63" d="M298.092 85.797h-23.654v13.93h23.654v-13.93Z" fill="#A3A0CF"/></g></g><mask id="cO" style="mask-type:luminance" maskUnits="userSpaceOnUse" x="-9" y="212" width="346" height="180"><path d="M336.855 212.521H-8.669v178.744h345.524V212.521Z" fill="#fff"/></mask><g mask="url(#cO)"><mask id="cP" style="mask-type:luminance" maskUnits="userSpaceOnUse" x="-446" y="-286" width="892" height="526"><path d="M445.837-285.19h-891.674v524.522h891.674V-285.19Z" fill="#fff"/></mask><g mask="url(#cP)"><path d="M339.951 209.439H-11.765v184.908H339.95V209.439Z" fill="#fff"/></g></g><path d="M1.3 212.521h325.276" stroke="#1C134D" stroke-width="4" stroke-miterlimit="10" stroke-linecap="round"/></g></g><defs><clipPath id="a"><path fill="#fff" d="M0 0h328v214H0z"/></clipPath></defs></svg>