<svg xmlns="http://www.w3.org/2000/svg" width="424" height="315" viewBox="0 0 424 315">
    <g fill="none">
        <g>
            <g fill="#EBEBEB">
                <path d="M0 276.45H423V277.45H0zM200.502 238.79H37.139c-2.622 0-4.822-2.195-4.822-4.812V4.813c0-2.618 2.2-4.813 4.822-4.813h163.363c2.623 0 4.822 2.195 4.822 4.813v229.165c0 2.617-2.115 4.813-4.822 4.813zM37.139.17c-2.538 0-4.653 2.026-4.653 4.644v229.165c0 2.533 2.03 4.644 4.653 4.644h163.363c2.538 0 4.653-2.027 4.653-4.644V4.813c0-2.533-2.03-4.644-4.653-4.644H37.139zM383.492 238.79H220.129c-2.622 0-4.822-2.195-4.822-4.812V4.813c0-2.618 2.2-4.813 4.822-4.813h163.363c2.622 0 4.822 2.195 4.822 4.813v229.165c0 2.617-2.115 4.813-4.822 4.813zM220.129.17c-2.538 0-4.653 2.026-4.653 4.644v229.165c0 2.533 2.03 4.644 4.653 4.644h163.363c2.538 0 4.653-2.027 4.653-4.644V4.813c0-2.533-2.03-4.644-4.653-4.644H220.129z" transform="translate(.269)"/>
                <g>
                    <path d="M.254 2.449H22.25V3.449H.254zM79.693.169H117.763V1.169H79.693zM23.096 10.301H74.533V11.301H23.096zM320.211 8.866H336.454V9.866H320.211zM265.898 8.866H312.682V9.866H265.898zM174.276 5.32H237.303V6.32H174.276z" transform="translate(.269) translate(43.146 282.023)"/>
                </g>
            </g>
            <g>
                <g>
                    <g>
                        <path fill="#E6E6E6" d="M49.576 32.678L3.469 32.678 0.592 0.338 46.784 0.338z" transform="translate(.269) translate(58.374 22.798) translate(1.692 147.767) translate(33.84)"/>
                        <path fill="#F0F0F0" d="M52.029 32.678L5.837 32.678 3.046 0.338 49.237 0.338z" transform="translate(.269) translate(58.374 22.798) translate(1.692 147.767) translate(33.84)"/>
                        <path fill="#FFF" d="M12.098 25.754L10.575 7.346 42.892 7.346 44.415 25.754z" transform="translate(.269) translate(58.374 22.798) translate(1.692 147.767) translate(33.84)"/>
                    </g>
                    <g>
                        <path fill="#E6E6E6" d="M106.427 0.591H113.02600000000001V73.79899999999999H106.427z" transform="translate(.269) translate(58.374 22.798) translate(1.692 147.767) translate(0 32.086)"/>
                        <path fill="#F0F0F0" d="M110.572 0.591H115.14V73.79899999999999H110.572z" transform="translate(.269) translate(58.374 22.798) translate(1.692 147.767) translate(0 32.086)"/>
                        <path fill="#F0F0F0" d="M51.285 0.512H115.073V8.618H51.285z" transform="translate(.269) translate(58.374 22.798) translate(1.692 147.767) translate(0 32.086) rotate(-180 83.179 4.565)"/>
                        <path fill="#E6E6E6" d="M46.953 8.613H53.55200000000001V73.799H46.953z" transform="translate(.269) translate(58.374 22.798) translate(1.692 147.767) translate(0 32.086)"/>
                        <path fill="#F0F0F0" d="M51.098 8.613H55.666V73.799H51.098z" transform="translate(.269) translate(58.374 22.798) translate(1.692 147.767) translate(0 32.086)"/>
                        <path fill="#E6E6E6" d="M0.085 8.613H6.684V73.799H0.085z" transform="translate(.269) translate(58.374 22.798) translate(1.692 147.767) translate(0 32.086)"/>
                        <path fill="#F0F0F0" d="M4.145 8.613H8.713V73.799H4.145z" transform="translate(.269) translate(58.374 22.798) translate(1.692 147.767) translate(0 32.086)"/>
                        <path fill="#E6E6E6" d="M64.719 8.613H71.318V73.799H64.719z" transform="translate(.269) translate(58.374 22.798) translate(1.692 147.767) translate(0 32.086)"/>
                        <path fill="#F0F0F0" d="M68.864 8.613H73.432V73.799H68.864z" transform="translate(.269) translate(58.374 22.798) translate(1.692 147.767) translate(0 32.086)"/>
                        <path fill="#E6E6E6" d="M0.085 0.591H51.353V8.697H0.085z" transform="translate(.269) translate(58.374 22.798) translate(1.692 147.767) translate(0 32.086)"/>
                    </g>
                </g>
                <path fill="#E6E6E6" d="M0 0.338H191.365V109.939H0z" transform="translate(.269) translate(58.374 22.798)"/>
                <path fill="#F0F0F0" d="M2.369 0.338H196.441V109.939H2.369z" transform="translate(.269) translate(58.374 22.798)"/>
                <path fill="#E6E6E6" d="M0 109.938H191.365V119.39500000000001H0z" transform="translate(.269) translate(58.374 22.798)"/>
                <path fill="#F0F0F0" d="M10.913 109.938H204.985V119.39500000000001H10.913z" transform="translate(.269) translate(58.374 22.798)"/>
                <path fill="#FAFAFA" d="M51.877 -34.791L147.123 -34.791 147.123 144.984 51.877 144.984z" transform="translate(.269) translate(58.374 22.798) rotate(90 99.5 55.097)"/>
                <path fill="#FFF" d="M22.757 102.761L64.804 7.515 84.6 7.515 42.638 102.761z" transform="translate(.269) translate(58.374 22.798)"/>
                <path fill="#F0F0F0" d="M12.86 95.668c-.255 0-.508-.253-.508-.506V12.159c0-.253.253-.507.507-.507s.508.254.508.507v83.003c0 .253-.254.506-.508.506z" transform="translate(.269) translate(58.374 22.798)"/>
                <path fill="#FFF" d="M46.868 102.761L88.915 7.515 96.613 7.515 54.567 102.761z" transform="translate(.269) translate(58.374 22.798)"/>
                <path fill="#E6E6E6" d="M141.234 54.697L236.48 54.697 236.48 55.628 141.234 55.628z" transform="translate(.269) translate(58.374 22.798) rotate(90 188.857 55.163)"/>
                <path fill="#EBEBEB" d="M198.218 18.239L6.853 18.239 6.176 10.301 197.541 10.301zM198.218 31.411L6.853 31.411 6.176 23.389 197.541 23.389zM198.218 44.499L6.853 44.499 6.176 36.477 197.541 36.477zM198.218 57.671L6.853 57.671 6.176 49.65 197.541 49.65zM198.218 70.759L6.853 70.759 6.176 62.737 197.541 62.737zM198.218 83.847L6.853 83.847 6.176 75.91 197.541 75.91z" opacity=".6" transform="translate(.269) translate(58.374 22.798)"/>
                <g>
                    <g>
                        <path fill="#EBEBEB" d="M2.928 0.381H54.449V51.804H2.928z" transform="translate(.269) translate(58.374 22.798) translate(230.112) translate(17.766) rotate(-180 28.689 26.092)"/>
                        <path fill="#E0E0E0" d="M0.592 0.338H2.876V51.761H0.592z" transform="translate(.269) translate(58.374 22.798) translate(230.112) translate(17.766)"/>
                        <path fill="#FFF" d="M9.865 7.305H47.427V44.795H9.865z" transform="translate(.269) translate(58.374 22.798) translate(230.112) translate(17.766) rotate(-180 28.646 26.05)"/>
                        <path fill="#F5F5F5" d="M19.757 17.183L37.505 17.2 37.522 34.949 19.774 34.932z" transform="translate(.269) translate(58.374 22.798) translate(230.112) translate(17.766) rotate(135 28.64 26.066)"/>
                    </g>
                    <g>
                        <path fill="#EBEBEB" d="M2.944 0.464H54.465V51.887H2.944z" transform="translate(.269) translate(58.374 22.798) translate(230.112) translate(0 67.55) rotate(-180 28.704 26.175)"/>
                        <path fill="#E0E0E0" d="M0.592 0.422H2.876V51.845H0.592z" transform="translate(.269) translate(58.374 22.798) translate(230.112) translate(0 67.55)"/>
                        <path fill="#FFF" d="M9.881 7.388H47.443V44.878H9.881z" transform="translate(.269) translate(58.374 22.798) translate(230.112) translate(0 67.55) rotate(-180 28.662 26.133)"/>
                        <path fill="#F5F5F5" d="M25.972 34.113h5.33c2.961 0 5.33-2.364 5.33-5.32v-5.32c0-2.955-2.369-5.319-5.33-5.319h-5.33c-2.96 0-5.33 2.364-5.33 5.32v5.32c0 2.955 2.37 5.319 5.33 5.319z" transform="translate(.269) translate(58.374 22.798) translate(230.112) translate(0 67.55)"/>
                    </g>
                </g>
                <g>
                    <g>
                        <path fill="#F0F0F0" d="M.423 0H13.282V105.801H.423zM2.2 105.801H125.631V109.263H2.2z" transform="translate(.269) translate(58.374 22.798) translate(186.12 138.478) translate(2.538 5.91)"/>
                        <path fill="#FAFAFA" d="M13.306 0.037H127.431V105.83800000000001H13.306z" transform="translate(.269) translate(58.374 22.798) translate(186.12 138.478) translate(2.538 5.91) rotate(-180 70.369 52.938)"/>
                        <path fill="#F0F0F0" d="M105.073 61.809H35.617c-6.853 0-12.352-5.573-12.352-12.328 0-6.755 5.584-12.328 12.352-12.328h69.456c6.853 0 12.352 5.573 12.352 12.328 0 6.755-5.5 12.328-12.352 12.328zM35.617 37.997c-6.345 0-11.506 5.15-11.506 11.484 0 6.333 5.16 11.483 11.506 11.483h69.456c6.345 0 11.506-5.15 11.506-11.483s-5.16-11.484-11.506-11.484H35.617zM105.073 92.544H35.617c-6.853 0-12.352-5.573-12.352-12.328 0-6.755 5.584-12.328 12.352-12.328h69.456c6.853 0 12.352 5.573 12.352 12.328 0 6.755-5.5 12.328-12.352 12.328zM35.617 68.648c-6.345 0-11.506 5.15-11.506 11.484 0 6.333 5.16 11.483 11.506 11.483h69.456c6.345 0 11.506-5.15 11.506-11.483s-5.16-11.484-11.506-11.484H35.617z" transform="translate(.269) translate(58.374 22.798) translate(186.12 138.478) translate(2.538 5.91)"/>
                        <path fill="#EBEBEB" d="M80.793 46.863h-20.98c-1.439 0-2.539-1.182-2.539-2.533 0-1.435 1.185-2.533 2.538-2.533h20.981c1.438 0 2.538 1.182 2.538 2.533.085 1.351-1.1 2.533-2.538 2.533z" transform="translate(.269) translate(58.374 22.798) translate(186.12 138.478) translate(2.538 5.91)"/>
                        <path fill="#F0F0F0" d="M105.073 31.158H35.617c-6.853 0-12.352-5.573-12.352-12.328 0-6.84 5.584-12.328 12.352-12.328h69.456c6.853 0 12.352 5.573 12.352 12.328 0 6.755-5.5 12.328-12.352 12.328zM35.617 7.346c-6.345 0-11.506 5.15-11.506 11.484 0 6.333 5.16 11.483 11.506 11.483h69.456c6.345 0 11.506-5.15 11.506-11.483s-5.16-11.484-11.506-11.484H35.617z" transform="translate(.269) translate(58.374 22.798) translate(186.12 138.478) translate(2.538 5.91)"/>
                        <path fill="#EBEBEB" d="M80.793 16.128h-20.98c-1.439 0-2.539-1.182-2.539-2.533 0-1.436 1.185-2.534 2.538-2.534h20.981c1.438 0 2.538 1.183 2.538 2.534.085 1.435-1.1 2.533-2.538 2.533zM80.793 77.514h-20.98c-1.439 0-2.539-1.182-2.539-2.533 0-1.435 1.185-2.533 2.538-2.533h20.981c1.438 0 2.538 1.182 2.538 2.533.085 1.435-1.1 2.533-2.538 2.533z" transform="translate(.269) translate(58.374 22.798) translate(186.12 138.478) translate(2.538 5.91)"/>
                    </g>
                    <path fill="#F0F0F0" d="M15.82 0.591H132.314V5.995H15.82z" transform="translate(.269) translate(58.374 22.798) translate(186.12 138.478)"/>
                    <path fill="#E6E6E6" d="M0.408 0.508H15.805V5.912H0.408z" transform="translate(.269) translate(58.374 22.798) translate(186.12 138.478) rotate(-180 8.107 3.21)"/>
                </g>
            </g>
        </g>
        <ellipse cx="164" cy="10.675" fill="#F5F5F5" rx="163.915" ry="9.887" transform="translate(47.269 294)"/>
        <g>
            <path fill="#407BFF" d="M179.662.17H52.31S29.324 21.3 29.324 72.693c0 44.209 17.408 104.055 10.901 128.652-4.901 18.512-28.817 21.64-40.225 22.147h121.268s39.887 2.367 46.394-22.147c6.507-24.513-10.901-84.443-10.901-128.652C156.76 21.301 179.662.17 179.662.17z" transform="translate(169.269 79)"/>
            <path fill="#FFF" d="M179.662.17H52.31S29.324 21.3 29.324 72.693c0 44.209 17.408 104.055 10.901 128.652-4.901 18.512-28.817 21.64-40.225 22.147h121.268s39.887 2.367 46.394-22.147c6.507-24.513-10.901-84.443-10.901-128.652C156.76 21.301 179.662.17 179.662.17z" opacity=".7" transform="translate(169.269 79)"/>
            <g fill="#407BFF" opacity=".8">
                <path d="M103.606 41.672H1.775C4.648 19.103 12.423 5.917 16.732.17h98.198c-4.817 10.059-9.38 23.753-11.324 41.503z" transform="translate(169.269 79) translate(41.408 12.68)"/>
                <path d="M102.76 53.675H.76c.085-2.028.17-4.057.339-6.001h102c-.17 1.944-.254 3.973-.338 6.001zM32.789 65.678H.76c-.085-1.944-.085-3.803-.085-5.663v-.338h32.028v.338c0 1.86 0 3.72.085 5.663zM103.437 77.682h-102c-.17-2.03-.338-3.973-.423-6.002h102c.085 1.944.254 3.973.423 6.002zM104.535 89.6H2.705c-.254-2.029-.423-3.973-.677-6.002h101.916c.169 2.03.338 4.058.591 6.002zM105.972 101.603H4.225c-.253-2.029-.507-3.973-.76-6.001h101.83c.17 2.028.423 3.972.677 6.001zM107.662 113.606H5.915c-.338-2.029-.591-3.973-.845-6.001h101.747c.253 2.028.591 3.972.845 6.001zM109.437 125.525H7.775l-.507-3.297c-.17-.845-.254-1.775-.423-2.705h101.747c.253 2.029.591 4.057.845 6.002zM9.55 137.528c-.254-1.945-.592-3.973-.846-6.002h101.747c.338 2.029.591 3.973.93 6.002H9.548zM11.155 149.53c-.254-1.944-.507-3.972-.76-6h84.844c.254 2.028.592 3.972.846 6h-84.93zM12.423 161.534c-.17-1.945-.338-3.973-.592-6.002h101.831c.253 2.029.423 4.057.592 6.002H12.423zM13.014 173.452c0-1.944-.084-3.888-.169-6.001h53.747c.169 2.113.169 4.057.253 6.001h-53.83z" opacity=".3" transform="translate(169.269 79) translate(41.408 12.68)"/>
            </g>
            <path fill="#407BFF" d="M130.986 216.984c-6.507 1.184-13.014.254-19.521 0-3.127-.169-6.254-.169-9.38.254-3.043.422-6.085 1.183-9.127.93 1.014-.508 1.943-1.184 2.873-1.945.169-.169.084-.422-.169-.507-9.55-3.38-18.254 5.748-27.718 3.635 2.704-2.029 6.507-2.029 8.788-4.65.17-.168.085-.506-.253-.506-8.535-.17-16.564 3.127-24.93 3.888-.422 0-.422.676 0 .676 8.197-.676 15.972-3.804 24.17-3.888-2.451 2.198-6.17 2.282-8.705 4.48-.169.169-.084.507.17.507 9.548 2.62 18.337-6.509 27.802-3.635-1.014.761-2.028 1.437-3.211 1.945-.254.084-.17.507.084.591 3.127.507 6.17-.169 9.211-.591 3.465-.508 6.93-.592 10.395-.423 6.591.338 13.183 1.183 19.69 0 .422-.254.253-.845-.17-.76z" transform="translate(169.269 79)"/>
        </g>
        <g>
            <path fill="#FFB573" d="M49.855 38.97c.508.676 1.185 1.521 1.862 2.197.678.761 1.27 1.522 2.032 2.198 1.354 1.437 2.708 2.874 4.232 4.227 2.878 2.62 6.01 4.987 9.31 6.509.424.169.847.338 1.186.507.254.084.423.169.592.169.17.085.339.085.593.169.762.17 1.608.338 2.455.423 1.777.084 3.64 0 5.586-.338 1.947-.254 3.894-.761 5.84-1.268 1.947-.508 3.894-1.1 5.756-1.776l1.693 3.382c-3.809 2.367-7.702 4.142-12.104 5.41-2.2.592-4.486 1.014-6.94 1.099-1.186 0-2.455 0-3.81-.254-.338-.084-.677-.084-1.015-.169-.339-.084-.678-.169-.932-.254-.592-.169-1.185-.338-1.692-.591-4.487-1.775-8.295-4.396-11.681-7.355-1.693-1.437-3.301-2.958-4.825-4.649-.762-.845-1.524-1.606-2.2-2.451-.762-.846-1.355-1.691-2.117-2.62l6.18-4.566z" transform="translate(78.269 71)"/>
            <path fill="#407BFF" d="M41.222 36.603c-.17 4.733 1.692 13.271 1.692 13.271l11.766-1.437s.423-12.51-1.862-15.47c-3.894-5.071-11.427-.845-11.596 3.636z" transform="translate(78.269 71)"/>
            <path fill="#FFB573" d="M87.691 53.34l5.502-4.987.677 5.41s-2.285 3.043-4.825 1.775l-1.354-2.198zM95.986 48.606L98.272 51.649 93.87 53.678 93.193 48.268z" transform="translate(78.269 71)"/>
            <g>
                <path fill="#263238" d="M3.978.254H5.84l.424.084c.508.085.846.254 1.015.423.17.169.254.422.254.592l.17.676.761 2.536 1.609 5.156 3.131 10.229c2.117 6.847 4.233 13.694 6.264 20.541 4.148 13.694 7.957 27.473 11.85 41.252 3.81 13.779 7.364 27.642 11.089 41.42 3.724 13.78 7.025 27.727 8.21 42.182.17 2.283-1.524 4.311-3.809 4.48-1.777.17-3.47-.845-4.147-2.45-6.01-13.188-9.904-26.967-13.374-40.83-3.47-13.863-7.11-27.727-10.496-41.59-3.386-13.863-6.687-27.811-9.734-41.759-1.608-7.016-3.047-13.948-4.57-20.964L2.2 11.75 1.1 6.509l-.593-2.62-.17-.677c0-.253-.169-.422-.084-.676.085-.254.339-.507.677-.845l.339-.254c.084-.084.254-.169.423-.254.338-.169.592-.422 1.185-.676.508-.169.846-.253 1.1-.253z" transform="translate(78.269 71) translate(90.569 34.658)"/>
                <g>
                    <path fill="#407BFF" d="M5.84 1.014c-.169-.507-.592-.76-1.1-.676L2.878.845l-1.862.508c-.508.084-.762.591-.677 1.098 1.185 5.326 0 9.13 1.27 13.78 1.269 4.902 6.855 7.438 6.855 7.438l-.169-2.113.847 1.944s3.64-4.903 2.37-9.806C10.242 8.96 7.364 6.171 5.84 1.014z" transform="translate(78.269 71) translate(90.569 34.658) translate(44.015 166.529)"/>
                    <path fill="#FFF" d="M5.84 1.014c-.169-.507-.592-.76-1.1-.676L2.878.845l-1.862.508c-.508.084-.762.591-.677 1.098 1.185 5.326 0 9.13 1.27 13.78 1.269 4.902 6.855 7.438 6.855 7.438l-.169-2.113.847 1.944s3.64-4.903 2.37-9.806C10.242 8.96 7.364 6.171 5.84 1.014z" opacity=".3" transform="translate(78.269 71) translate(90.569 34.658) translate(44.015 166.529)"/>
                </g>
                <path fill="#263238" d="M51.294 179.716c.17.592-.254 1.268-.846 1.437-.593.169-1.27-.254-1.44-.845-.168-.592.255-1.268.847-1.437.593-.17 1.27.253 1.44.845z" transform="translate(78.269 71) translate(90.569 34.658)"/>
                <path fill="#263238" d="M52.31 188.338c-.17 0-.254-.084-.339-.169l-2.116-8.115c0-.17.085-.254.17-.338.169 0 .253.084.338.169L52.48 188c.085.17 0 .338-.17.338z" transform="translate(78.269 71) translate(90.569 34.658)"/>
                <path fill="#407BFF" d="M45.454 138.464l-11.427 2.959c-.677.169-1.354-.254-1.524-.846-.169-.676.254-1.352.847-1.521l11.511-2.959c.677-.169 1.355.254 1.524.845.084.677-.254 1.353-.931 1.522z" transform="translate(78.269 71) translate(90.569 34.658)"/>
            </g>
            <path fill="#FFB573" d="M60.182 18.174c.338 4.143-1.016 10.82-4.148 13.188 0 0 2.37 4.31 9.819 5.325 8.295 1.099 4.401-3.55 4.401-3.55-4.401-1.691-3.893-4.988-2.793-7.946l-7.28-7.017zM82.612 40.153c.678 3.804 1.44 7.861 2.286 11.665.423 1.945.93 3.889 1.439 5.749.508 1.944 1.015 3.804 1.608 5.663.339.93.592 1.86.931 2.79l.508 1.352.085.338v.085c0 .084 0 .084.084.169.085.17.254.423.762.592.508.169 1.27.338 2.116.422 1.608.085 3.555-.084 5.417-.422 1.862-.338 3.81-.761 5.671-1.268l1.524 3.466c-.931.591-1.862 1.014-2.878 1.521-.931.507-1.947.93-2.962 1.268-2.032.761-4.233 1.353-6.687 1.606-1.185.085-2.54.085-3.979-.253-1.438-.338-3.131-1.1-4.316-2.62-.339-.339-.593-.762-.762-1.1-.085-.169-.17-.422-.339-.591l-.169-.339-.677-1.521c-.423-1.015-.847-1.944-1.185-2.959-.762-2.029-1.44-3.973-2.032-6.002-.592-2.028-1.1-4.057-1.693-6.086-1.015-4.057-1.862-8.115-2.454-12.342l7.702-1.183z" transform="translate(78.269 71)"/>
            <path fill="#FFB573" d="M102.758 67.457l3.3-2.62 1.44 4.987s-4.486 3.212-5.671-.592l.93-1.775z" transform="translate(78.269 71)"/>
            <path fill="#FFB573" d="M109.021 65.766L110.206 69.486 107.498 69.908 106.059 64.921zM47.993 226.885L54.765 227.392 56.796 211.754 50.025 211.246zM4.232 207.02L10.157 210.57 19.976 198.313 14.051 194.678z" transform="translate(78.269 71)"/>
            <path fill="#407BFF" d="M14.305 212.43h-.254c-.847 0-1.862-1.353-2.37-2.113v-.17c0-.084.084-.084.17-.084.253.084 2.708.592 3.046 1.352.085.17.085.339-.084.508-.17.253-.339.422-.508.507zm-2.116-1.944c.677 1.014 1.439 1.606 1.862 1.606.17 0 .338-.085.508-.254.084-.084.084-.169.084-.253-.254-.423-1.523-.846-2.454-1.1z" transform="translate(78.269 71)"/>
            <path fill="#407BFF" d="M13.882 210.317c-.762.169-1.693.253-2.117.084-.084 0-.084-.084-.084-.084v-.17c.084-.084 1.439-1.437 2.37-1.352.254 0 .508.084.677.338.254.338.17.592.085.676-.17.17-.508.338-.931.508zm-1.778-.17c.847.085 2.116-.169 2.37-.507.085-.084.085-.169-.085-.338-.084-.169-.253-.169-.423-.169-.508-.084-1.354.592-1.862 1.014z" transform="translate(78.269 71)"/>
            <path fill="#263238" d="M11.935 209.302l-5.587-5.41c-.169-.169-.508-.254-.677-.084l-4.825 3.719c-.507.423-.507 1.183 0 1.606 1.947 1.86 3.048 2.62 5.502 4.988 1.524 1.437 3.555 3.719 5.671 5.748 2.032 1.944 4.148.084 3.47-.93-3.131-4.565-2.623-6.34-2.962-8.622-.084-.339-.338-.761-.592-1.015z" transform="translate(78.269 71)"/>
            <path fill="#407BFF" d="M57.727 227.646c-.762 0-1.608-.17-2.116-.254-.085 0-.085-.084-.17-.169 0-.085 0-.169.085-.169.339-.17 3.048-1.522 3.894-1.099.17.085.254.254.254.423 0 .338-.085.591-.339.76-.254.339-.93.508-1.608.508zm-1.608-.508c1.523.254 2.624.17 3.047-.169.17-.169.254-.338.17-.507 0-.084 0-.169-.085-.169-.424-.253-1.947.338-3.132.845z" transform="translate(78.269 71)"/>
            <path fill="#407BFF" d="M55.611 227.392h-.085c-.084 0-.084-.084-.084-.169s.338-2.874 1.862-2.874h.17c.422.084.592.254.592.423.169.76-1.524 2.197-2.455 2.62.085 0 .085 0 0 0zm1.778-2.79c-1.016 0-1.355 1.607-1.524 2.283.846-.507 1.947-1.69 1.862-2.113 0 0 0-.17-.338-.17z" transform="translate(78.269 71)"/>
            <path fill="#263238" d="M55.188 226.462h-7.703c-.254 0-.508.17-.592.507l-1.016 6.087c-.085.591.423 1.183 1.1 1.183 2.709-.084 3.979-.169 7.364-.169 2.116 0 6.349.254 9.227.254 2.793 0 3.131-2.874 1.946-3.128-5.332-1.183-7.364-2.705-9.141-4.227-.339-.422-.762-.507-1.185-.507z" transform="translate(78.269 71)"/>
            <g fill="#000" opacity=".2">
                <path d="M47.485 17.329L46.385 26.036 39.613 24.853 40.714 16.822zM4.74.338L10.665 3.888 6.602 8.96.593 5.495z" transform="translate(78.269 71) translate(9.31 194.424)"/>
            </g>
            <path fill="#407BFF" d="M44.523 72.444c5.332.677 16.675 2.198 27.678 3.72 10.75-38.716 7.534-39.815 7.534-39.815-.847-.507-2.54-1.014-3.725-1.437-1.27-.507-2.624-.93-3.978-1.268-2.624-.76-5.333-1.437-8.126-1.86-5.332-.93-10.75-1.183-16.082-.93-1.016.085-2.116.677-2.709 1.522l-.254.507c-.338.676-.423 1.353-.338 2.029 2.285 20.372 1.523 27.05 0 37.532z" transform="translate(78.269 71)"/>
            <path fill="#000" d="M74.91 48.183c-.762 5.41.592 9.806 1.523 11.835 1.863-7.523 2.794-12.68 3.302-16.23-2.117-.085-4.317.676-4.825 4.395z" opacity=".2" transform="translate(78.269 71)"/>
            <path fill="#407BFF" d="M79.48 36.18c4.74 2.705 8.042 9.13 9.057 12.933l-10.072 9.214s-5.248-12.172-4.825-15.892c.423-3.804 4.063-7.27 5.84-6.255z" transform="translate(78.269 71)"/>
            <path fill="#FFB573" d="M61.62 9.637c-2.115 6.424-3.131 9.045-1.269 13.61 2.793 6.847 11.173 8.284 15.151 2.704 3.555-4.987 6.433-14.624 1.355-19.78-5.079-4.988-13.12-2.874-15.236 3.466z" transform="translate(78.269 71)"/>
            <path fill="#FFB573" d="M72.201 15.385c-.508 1.099-.508 2.536-.17 3.635.424 1.69 1.694 1.86 2.456.76.677-1.014 1.354-3.043.507-4.48-.93-1.437-2.285-1.268-2.793.085z" transform="translate(78.269 71)"/>
            <path fill="#263238" d="M63.99 1.69C59.42-.844 51.21 6.595 49.094 18.683c-1.523 8.706 17.098 12.849 28.78 12.764-.762-2.029-5.672-8.2-2.54-14.117 2.285-4.311 4.825-3.297 4.994-8.284.254-6.34-8.126-10.567-16.336-7.354z" transform="translate(78.269 71)"/>
            <path fill="#263238" d="M74.402 4.396c5.333-.508 10.665 4.733 6.687 9.89 0 0-2.878-2.536-6.941-1.69-2.455.591.254-8.2.254-8.2zM64.837 75.15s-10.75 45.309-15.744 71.345c-5.332 27.473-30.725 56.13-30.725 56.13l-8.634-4.82s15.998-26.12 21.161-51.818c10.496-52.072 3.386-62.554 13.543-73.627l20.4 2.79z" transform="translate(78.269 71)"/>
            <path fill="#407BFF" d="M19.299 203.385L8.464 197.383 10.073 194.255 22.177 199.75z" transform="translate(78.269 71)"/>
            <path fill="#000" d="M59.166 84.955c-8.38 7.27-7.449 32.968-6.602 44.549 3.47-16.484 7.702-34.828 10.157-45.394-.846-.677-2.031-.423-3.555.845z" opacity=".2" transform="translate(78.269 71)"/>
            <path fill="#263238" d="M71.778 76.164s4.825 53.847 2.2 74.304c-2.708 21.386-16.674 67.795-16.674 67.795l-9.819-1.268s8.041-46.07 9.396-67.204c1.523-23.077-5.333-76.417-5.333-76.417l20.23 2.79z" transform="translate(78.269 71)"/>
            <path fill="#407BFF" d="M59.335 218.854L45.284 217.079 45.538 212.937 60.774 214.374z" transform="translate(78.269 71)"/>
            <g>
                <path fill="#407BFF" d="M1.947.592L.423 2.874c-.084.17.085.423.423.423L29.88 7.185c.254 0 .508-.084.508-.253l.508-2.452c0-.169-.17-.338-.423-.338L2.455.422c-.254 0-.424.085-.508.17z" transform="translate(78.269 71) translate(42.322 70.162)"/>
                <path fill="#000" d="M1.947.592L.423 2.874c-.084.17.085.423.423.423L29.88 7.185c.254 0 .508-.084.508-.253l.508-2.452c0-.169-.17-.338-.423-.338L2.455.422c-.254 0-.424.085-.508.17z" opacity=".5" transform="translate(78.269 71) translate(42.322 70.162)"/>
            </g>
            <path fill="#263238" d="M47.74 74.388l-.763-.084c-.169 0-.254-.085-.254-.17l.678-3.127c0-.084.169-.169.338-.169l.762.085c.17 0 .254.084.254.169l-.677 3.127c-.085.085-.254.17-.339.17zM66.615 76.924l-.762-.084c-.17 0-.254-.085-.254-.17l.677-3.127c0-.084.17-.169.339-.169l.762.085c.169 0 .253.084.253.169l-.677 3.127c0 .17-.169.17-.338.17z" transform="translate(78.269 71)"/>
        </g>
    </g>
</svg>
